<svg width="1500" height="670" viewBox="0 0 1500 670" fill="none" xmlns="http://www.w3.org/2000/svg">
<mask id="mask0_5930_975" style="mask-type:alpha" maskUnits="userSpaceOnUse" x="0" y="0" width="1500" height="670">
<rect width="1500" height="670" fill="#D9D9D9"/>
</mask>
<g mask="url(#mask0_5930_975)">
<path d="M1506.47 193.925L758.625 667.446L697.007 571.787L1506.46 33.3803L1506.47 193.925Z" fill="url(#paint0_linear_5930_975)"/>
<g opacity="0.2" filter="url(#filter0_d_5930_975)">
<path d="M1533.99 347.131L787.187 830.986L724.693 737.061L1513.57 221.733L1533.99 347.131Z" fill="url(#paint1_linear_5930_975)" shape-rendering="crispEdges"/>
</g>
<path d="M758.625 667.446L620.501 409.422L519.493 468.528L630.999 667.446L758.625 667.446Z" fill="url(#paint2_linear_5930_975)"/>
<path d="M1.52747 770.498L1.52796 569.294L283 409.423L620.498 409.423L1.52747 770.498Z" fill="url(#paint3_linear_5930_975)"/>
</g>
<defs>
<filter id="filter0_d_5930_975" x="706.27" y="207.605" width="846.144" height="646.101" filterUnits="userSpaceOnUse" color-interpolation-filters="sRGB">
<feFlood flood-opacity="0" result="BackgroundImageFix"/>
<feColorMatrix in="SourceAlpha" type="matrix" values="0 0 0 0 0 0 0 0 0 0 0 0 0 0 0 0 0 0 127 0" result="hardAlpha"/>
<feOffset dy="4.29537"/>
<feGaussianBlur stdDeviation="9.2119"/>
<feComposite in2="hardAlpha" operator="out"/>
<feColorMatrix type="matrix" values="0 0 0 0 0 0 0 0 0 0 0 0 0 0 0 0 0 0 0.8 0"/>
<feBlend mode="normal" in2="BackgroundImageFix" result="effect1_dropShadow_5930_975"/>
<feBlend mode="normal" in="SourceGraphic" in2="effect1_dropShadow_5930_975" result="shape"/>
</filter>
<linearGradient id="paint0_linear_5930_975" x1="571.324" y1="678.069" x2="924.213" y2="581.293" gradientUnits="userSpaceOnUse">
<stop offset="0.042751" stop-color="#991C23"/>
<stop offset="1" stop-color="#D92630"/>
</linearGradient>
<linearGradient id="paint1_linear_5930_975" x1="1522.09" y1="254.423" x2="988.331" y2="647.226" gradientUnits="userSpaceOnUse">
<stop stop-color="white"/>
<stop offset="1" stop-color="white" stop-opacity="0"/>
</linearGradient>
<linearGradient id="paint2_linear_5930_975" x1="518.883" y1="417.95" x2="596.683" y2="540.86" gradientUnits="userSpaceOnUse">
<stop offset="0.042751" stop-color="#991C23"/>
<stop offset="1" stop-color="#D92630"/>
</linearGradient>
<linearGradient id="paint3_linear_5930_975" x1="52.999" y1="645" x2="253.999" y2="152.498" gradientUnits="userSpaceOnUse">
<stop offset="0.0412703" stop-color="#991C23" stop-opacity="0"/>
<stop offset="0.521375" stop-color="#B9212A"/>
<stop offset="1" stop-color="#D92630"/>
</linearGradient>
</defs>
</svg>
