<svg width="1500" height="666" viewBox="0 0 1500 666" fill="none" xmlns="http://www.w3.org/2000/svg">
<mask id="mask0_5930_968" style="mask-type:alpha" maskUnits="userSpaceOnUse" x="0" y="0" width="1500" height="666">
<rect width="1500" height="666" transform="matrix(1 0 0 -1 0 666)" fill="#D9D9D9"/>
</mask>
<g mask="url(#mask0_5930_968)">
<path d="M1506.47 472.075L758.625 -1.44567L697.007 94.2127L1506.46 632.62L1506.47 472.075Z" fill="url(#paint0_linear_5930_968)"/>
<g opacity="0.2" filter="url(#filter0_d_5930_968)">
<path d="M1533.99 318.869L787.187 -164.986L724.693 -71.0607L1513.57 444.267L1533.99 318.869Z" fill="url(#paint1_linear_5930_968)" shape-rendering="crispEdges"/>
</g>
<path d="M758.625 -1.4459L620.501 256.578L519.493 197.472L630.999 -1.44591L758.625 -1.4459Z" fill="url(#paint2_linear_5930_968)"/>
<path d="M1.52747 -104.498L1.52796 96.706L283 256.577L620.498 256.577L1.52747 -104.498Z" fill="url(#paint3_linear_5930_968)"/>
</g>
<defs>
<filter id="filter0_d_5930_968" x="706.27" y="-179.115" width="846.144" height="646.101" filterUnits="userSpaceOnUse" color-interpolation-filters="sRGB">
<feFlood flood-opacity="0" result="BackgroundImageFix"/>
<feColorMatrix in="SourceAlpha" type="matrix" values="0 0 0 0 0 0 0 0 0 0 0 0 0 0 0 0 0 0 127 0" result="hardAlpha"/>
<feOffset dy="4.29537"/>
<feGaussianBlur stdDeviation="9.2119"/>
<feComposite in2="hardAlpha" operator="out"/>
<feColorMatrix type="matrix" values="0 0 0 0 0 0 0 0 0 0 0 0 0 0 0 0 0 0 0.8 0"/>
<feBlend mode="normal" in2="BackgroundImageFix" result="effect1_dropShadow_5930_968"/>
<feBlend mode="normal" in="SourceGraphic" in2="effect1_dropShadow_5930_968" result="shape"/>
</filter>
<linearGradient id="paint0_linear_5930_968" x1="571.324" y1="-12.0692" x2="924.213" y2="84.7068" gradientUnits="userSpaceOnUse">
<stop offset="0.042751" stop-color="#991C23"/>
<stop offset="1" stop-color="#D92630"/>
</linearGradient>
<linearGradient id="paint1_linear_5930_968" x1="1522.09" y1="411.577" x2="988.331" y2="18.7738" gradientUnits="userSpaceOnUse">
<stop stop-color="white"/>
<stop offset="1" stop-color="white" stop-opacity="0"/>
</linearGradient>
<linearGradient id="paint2_linear_5930_968" x1="518.883" y1="248.05" x2="596.683" y2="125.14" gradientUnits="userSpaceOnUse">
<stop offset="0.042751" stop-color="#991C23"/>
<stop offset="1" stop-color="#D92630"/>
</linearGradient>
<linearGradient id="paint3_linear_5930_968" x1="205.999" y1="-0.997974" x2="253.999" y2="513.502" gradientUnits="userSpaceOnUse">
<stop offset="0.0412703" stop-color="#991C23" stop-opacity="0"/>
<stop offset="0.521375" stop-color="#B9212A"/>
<stop offset="1" stop-color="#D92630"/>
</linearGradient>
</defs>
</svg>
