<svg width="218" height="48" viewBox="0 0 218 48" fill="none" xmlns="http://www.w3.org/2000/svg">
<g clip-path="url(#clip0_5562_19)">
<path d="M45.517 32.6998C38.5033 32.6353 31.488 32.6777 24.4743 32.6421C23.4471 32.637 22.4199 32.4519 21.391 32.35C21.3978 32.0071 21.4046 31.6624 21.4114 31.3195C22.4878 31.1768 23.5642 30.9154 24.6407 30.9103C32.1858 30.8814 39.7326 30.9052 47.2777 30.912C53.4866 30.9171 53.6683 30.7745 55.7617 24.1564C54.799 24.1037 53.8771 24.0103 52.9552 24.0103C41.6902 24.0002 30.4234 23.9934 19.1584 24.0103C13.4707 24.0188 8.2533 27.8831 6.47399 33.3517C5.12422 37.5012 6.29402 39.16 10.6727 39.177C17.6864 39.2041 24.7018 39.177 31.7155 39.1871C32.8072 39.1888 33.8989 39.2788 34.9906 39.3281C34.9991 39.7644 35.0075 40.2024 35.016 40.6388H3.28209C2.03249 43.3264 1.16321 45.1957 0.105469 47.4674C1.74896 47.6066 2.8848 47.7798 4.02234 47.7883C14.6507 47.8647 25.2773 47.9564 35.9057 47.9564C42.2555 47.9564 47.0383 44.5777 49.3796 38.6438C51.1368 34.1905 50.2404 32.7456 45.5204 32.7015L45.517 32.6998Z" fill="white"/>
<path d="M176.012 25.0286C171.243 25.0711 163.344 33.8692 166.321 39.4448C167.37 39.6282 168.774 40.0696 170.185 40.0832C177.092 40.1562 184 40.1086 190.908 40.1273C191.968 40.1307 193.029 40.2496 194.088 40.3158C194.078 40.7148 194.07 41.1121 194.06 41.5111C183.718 42.1274 173.324 41.4296 162.672 41.8574C161.55 44.0374 160.433 46.2123 159.127 48.7506C160.684 48.8236 161.621 48.9051 162.558 48.9051C173.08 48.8949 183.601 48.8898 194.122 48.8473C200.752 48.8219 205.313 45.6164 207.727 39.3701C209.267 35.387 208.241 33.7096 203.987 33.6535C196.973 33.5619 189.959 33.6264 182.944 33.6026C181.733 33.5975 180.525 33.4753 179.316 33.4057C179.302 32.988 179.287 32.572 179.273 32.1544H210.739C212.085 29.5805 213.187 27.4752 214.486 24.9896C201.277 24.9896 188.645 24.9166 176.013 25.0269L176.012 25.0286Z" fill="white"/>
<path d="M155.004 25.1084C152.557 29.6042 150.113 34.0984 147.491 38.9185C143.612 33.9422 140.099 29.4345 136.737 25.1237H119.93C115.776 32.9337 111.699 40.5976 107.414 48.6538H120.372C122.861 44.0578 125.251 39.6468 127.859 34.8318C131.27 39.219 134.219 43.0985 137.282 46.8863C137.96 47.7251 139.017 48.7777 139.936 48.8117C144.9 49.0018 149.877 48.9017 154.878 48.9017C159.14 40.9117 163.26 33.1849 167.568 25.1101H155.004V25.1084Z" fill="white"/>
<path d="M98.8629 34.924C97.6354 37.0785 96.4384 39.1804 95.3128 41.1584H79.6962C81.5944 37.632 83.2701 34.5199 84.9374 31.4231H113.785C114.901 29.3331 115.987 27.3025 117.379 24.698C104.416 24.698 92.1107 24.586 79.8083 24.7744C76.5841 24.8237 74.0323 26.839 72.4245 29.7049C70.1392 33.7779 67.893 37.8748 65.7402 42.0192C63.4175 46.4912 64.7181 48.5235 69.8693 48.5439C77.9475 48.5761 86.041 48.2298 94.1005 48.6339C103.593 49.1093 108.505 43.9411 111.338 34.9257H98.8646L98.8629 34.924Z" fill="white"/>
<path d="M101.167 15.5317H118.948C118.939 15.9035 118.931 16.277 118.923 16.6488H99.0325C98.2312 18.148 97.5639 19.3976 96.6318 21.1446C98.3517 21.1446 99.4927 21.1396 100.634 21.1446C106.362 21.1769 112.097 21.0462 117.817 21.2924C123.659 21.5453 127.081 19.0088 128.446 11.9391C122.091 11.0002 115.819 11.9442 109.646 10.973C110.646 10.4297 111.685 10.1699 112.725 10.1614C117.393 10.1241 122.074 9.95601 126.727 10.2311C130.048 10.428 131.22 8.87111 131.661 5.82012C123.829 5.82012 116.194 5.69618 108.566 5.86596C103.8 5.97123 100.23 10.4161 101.167 15.5283V15.5317Z" fill="white"/>
<path d="M29.4603 20.8339C31.0562 17.9544 32.5826 15.1989 34.316 12.0698C36.856 15.2634 39.1362 18.1293 41.3858 20.9579H51.8783C54.4709 16.0597 57.0634 11.1598 59.8275 5.93728H52.0107C50.4368 8.7234 48.8018 11.6199 46.9427 14.9119C44.323 11.6182 41.9817 8.67586 39.8374 5.97972H29.4365C26.8558 10.827 24.2921 15.6403 21.5264 20.8356H29.4603V20.8339Z" fill="white"/>
<path d="M166.012 20.9307C167.169 18.7694 168.364 16.7609 169.344 14.6539C170.612 11.9238 171.946 9.68267 175.642 10.1581C178.306 10.501 181.048 10.2243 183.756 10.2243C183.739 10.7217 183.722 11.2175 183.705 11.715C181.132 11.715 178.539 11.9187 175.991 11.664C172.7 11.3346 171.109 12.8134 170.417 16.3975H180.95C180.174 18.1955 179.646 19.4163 178.991 20.9324H186.802C188.75 17.2991 190.724 13.7965 192.519 10.2022C193.896 7.44494 192.942 5.86257 189.955 5.83541C183.593 5.77599 177.216 5.57734 170.873 5.93728C168.788 6.05613 166.08 7.18857 164.895 8.77943C162.221 12.3703 160.321 16.5368 157.848 20.9307H166.011H166.012Z" fill="white"/>
<path d="M59.1711 24.3886C55.0165 32.2036 50.9197 39.9117 46.6904 47.8711H60.3884C64.5973 39.9474 68.6432 32.3327 72.864 24.3886H59.1711Z" fill="white"/>
<path d="M130.456 21.0326C137.773 21.0632 145.096 21.165 152.408 20.9545C153.801 20.9137 155.678 19.946 156.436 18.8084C159.099 14.805 161.371 10.5418 164.049 5.93728H155.755C153.795 9.5757 151.894 13.1055 149.992 16.6386H137.486C139.396 12.827 141.069 9.48912 142.858 5.9169H134.802C133.138 10.8559 128.873 14.7116 128.523 20.4061C129.483 20.727 129.97 21.0292 130.459 21.0309L130.456 21.0326Z" fill="white"/>
<path d="M64.6128 20.7592H73.3107L91.7032 5.72844H82.2107L72.3107 14.8814C72.1087 15.0342 71.9066 15.1887 71.7046 15.3466C70.9525 11.8779 70.3158 8.93393 69.6689 5.94746H61.5703C62.5347 10.9747 63.4583 15.7982 64.4125 20.7694C64.4804 20.7677 64.5466 20.7626 64.6145 20.7592H64.6128Z" fill="white"/>
<path d="M199.31 16.7524C201.307 12.8627 202.972 9.61984 204.825 6.01028H196.797C195.023 10.8711 190.889 14.7948 190.41 20.9375H215.703C216.307 19.783 216.923 18.6098 217.894 16.7524H199.31Z" fill="white"/>
<path d="M93.8797 20.9358C96.4553 16.097 99.0258 11.2701 101.775 6.10706H93.6912C91.0392 11.1122 88.5333 15.839 85.832 20.9358H93.8797Z" fill="white"/>
<path d="M27.2863 6.02217H19.2947C16.6868 10.9255 14.1316 15.7286 11.3896 20.8815H19.4118C22.0231 15.9544 24.5681 11.1513 27.2863 6.02217Z" fill="white"/>
<path d="M211.002 6.97464C209.036 6.94917 207.506 5.40586 207.542 3.45846C207.576 1.54841 209.187 0.0424439 211.122 0.10017C213 0.156198 214.547 1.70801 214.486 3.65031C214.43 5.47207 212.92 6.97634 211.003 6.97634L211.002 6.97464ZM213.788 3.51788C213.788 2.03229 212.538 0.806465 211.024 0.80307C209.479 0.799674 208.246 2.01871 208.239 3.55184C208.234 5.03913 209.487 6.26326 211.022 6.26835C212.543 6.27344 213.788 5.03743 213.79 3.51788H213.788Z" fill="white"/>
<path d="M210.292 5.48566H209.598V1.55691C209.74 1.53653 209.885 1.51276 210.031 1.49578C210.499 1.44145 210.969 1.4075 211.436 1.50257C211.703 1.5569 211.951 1.65708 212.168 1.82686C212.698 2.23773 212.672 3.15455 211.993 3.52807C211.97 3.53996 211.947 3.55354 211.932 3.56372C212.037 3.69276 212.151 3.81161 212.243 3.94573C212.394 4.16645 212.467 4.42112 212.526 4.67919C212.588 4.94405 212.638 5.21061 212.696 5.48566H211.992C211.951 5.28701 211.917 5.09006 211.869 4.89481C211.805 4.63165 211.717 4.37868 211.557 4.15457C211.397 3.93045 211.189 3.80312 210.903 3.80991C210.703 3.815 210.503 3.80991 210.289 3.80991V5.48566H210.292ZM210.297 3.25812C210.623 3.24454 210.944 3.23605 211.265 3.21567C211.353 3.21058 211.443 3.17493 211.528 3.14097C211.691 3.07475 211.8 2.95591 211.837 2.77933C211.903 2.46524 211.776 2.22924 211.472 2.12228C211.093 1.98985 210.701 2.0255 210.312 2.04757C210.307 2.04757 210.302 2.05436 210.297 2.05776V3.25472V3.25812Z" fill="white"/>
</g>
<defs>
<clipPath id="clip0_5562_19">
<rect width="218" height="47.7087" fill="white"/>
</clipPath>
</defs>
</svg>
