<svg width="39" height="39" viewBox="0 0 39 39" fill="none" xmlns="http://www.w3.org/2000/svg">
<path d="M23.8074 13.6885L24.5674 14.5781L22.7694 16.2942L21.7981 15.2083C21.0679 15.5492 20.2596 15.7568 19.3699 15.7568C16.0668 15.7568 13.5904 13.0695 13.5904 10.0264C13.5904 6.98329 16.0668 4.36272 19.3699 4.36272C22.6731 4.36272 25.1642 6.98329 25.1642 10.0264C25.1642 11.4053 24.6638 12.6988 23.8074 13.6885ZM19.3699 13.2993C19.596 13.2993 19.8222 13.266 20.0336 13.2178L18.495 11.4868L20.3561 9.75583L22.0392 11.713C22.332 11.2422 22.4913 10.6269 22.4913 10.0301C22.4913 8.20276 21.1642 6.82391 19.3662 6.82391C17.5867 6.82391 16.241 8.19906 16.241 10.0301C16.2447 11.7759 17.5904 13.2993 19.3699 13.2993Z" fill="white"/>
<path d="M22.1432 30.2418H16.8308L16.1005 31.9579H13.283L17.9949 20.953H20.9569L25.6836 31.9579H22.8513L22.1432 30.2418ZM21.2201 28.0734L19.5037 23.9628L17.7539 28.0734H21.2201Z" fill="white"/>
<path d="M25.9614 17.2728H13.042V19.504H25.9614V17.2728Z" fill="white"/>
<path d="M0 0V2.23138H0.0185359V38.2485H5.32723V36.0171H2.24655V2.23138H36.7679V36.0171H33.6909V38.2485H38.9996V0H0Z" fill="white"/>
<path d="M6.65445 35.4237C6.65445 35.409 6.65815 35.3979 6.66928 35.3867C6.6804 35.3756 6.69152 35.3719 6.70635 35.3719H7.65539C7.85928 35.3719 8.05207 35.4089 8.23001 35.4868C8.40796 35.5647 8.56365 35.6684 8.69711 35.7982C8.83057 35.9316 8.93809 36.0836 9.01964 36.2614C9.10119 36.4394 9.14198 36.6284 9.14568 36.8286C9.15309 37.0399 9.11231 37.2363 9.03446 37.4216C8.95291 37.6069 8.8454 37.7664 8.70453 37.9035C8.56736 38.0406 8.40424 38.1482 8.21889 38.2296C8.03352 38.3075 7.83705 38.3482 7.62574 38.3482H6.71007C6.69523 38.3482 6.68412 38.3445 6.67299 38.3335C6.66187 38.3223 6.65816 38.3112 6.65816 38.2963V35.4237H6.65445ZM7.19941 37.8108H7.65539C7.78514 37.8108 7.90748 37.7849 8.0224 37.7367C8.13732 37.6885 8.23742 37.6181 8.32269 37.5328C8.40796 37.4476 8.47839 37.3475 8.52658 37.2326C8.57478 37.1177 8.60073 36.9954 8.60073 36.8656C8.60073 36.7359 8.57478 36.6136 8.52658 36.4986C8.47839 36.3838 8.40796 36.2838 8.32269 36.1985C8.23742 36.1132 8.13732 36.0428 8.0224 35.9946C7.90748 35.9464 7.78514 35.9205 7.65539 35.9205H7.19941V37.8108Z" fill="white"/>
<path d="M10.6729 36.8471C10.6729 36.6284 10.7137 36.4245 10.7952 36.2355C10.8768 36.0465 10.9843 35.8834 11.1215 35.7463C11.2586 35.609 11.4218 35.5016 11.6071 35.4237C11.7961 35.3459 11.9963 35.3089 12.2114 35.3126C12.419 35.3163 12.6118 35.3533 12.7934 35.4312C12.9751 35.5053 13.1345 35.609 13.2716 35.7425C13.2939 35.7648 13.2939 35.787 13.2753 35.8092L13.0048 36.1613C12.9973 36.1762 12.9825 36.1836 12.9676 36.1836C12.9528 36.1836 12.938 36.1798 12.9269 36.1651C12.8379 36.0612 12.7267 35.976 12.6006 35.9131C12.4746 35.85 12.3374 35.8204 12.1928 35.824C12.0594 35.824 11.9333 35.8537 11.8147 35.9093C11.6961 35.965 11.5922 36.0427 11.5033 36.1354C11.4143 36.2281 11.3476 36.3393 11.2957 36.4653C11.2438 36.5913 11.2178 36.7248 11.2178 36.8656C11.2178 37.0065 11.2438 37.1362 11.2994 37.2622C11.355 37.3882 11.4255 37.4958 11.5181 37.5884C11.6071 37.6811 11.7147 37.7552 11.8333 37.8109C11.9519 37.8664 12.0816 37.8923 12.2151 37.8923C12.3263 37.8886 12.4302 37.8701 12.5302 37.8294C12.6303 37.7885 12.723 37.7367 12.8083 37.6663C12.8935 37.5995 12.9639 37.518 13.0232 37.4254C13.0825 37.3326 13.1271 37.2326 13.1567 37.1251H12.3263C12.3114 37.1251 12.3003 37.1176 12.293 37.1066C12.2855 37.0954 12.2855 37.0806 12.2967 37.0658L12.5672 36.6654C12.6044 36.6135 12.6525 36.5877 12.7118 36.5877H13.7203C13.7276 36.6359 13.735 36.6839 13.7387 36.7285C13.7424 36.773 13.7424 36.8212 13.7424 36.8694C13.7387 37.0843 13.698 37.2844 13.6164 37.4734C13.5348 37.6589 13.4236 37.8219 13.2827 37.9628C13.1418 38.0999 12.9788 38.2111 12.7897 38.289C12.6006 38.3668 12.4004 38.4076 12.1854 38.4076C11.9742 38.4076 11.774 38.3668 11.5885 38.2853C11.4032 38.2037 11.2401 38.0925 11.1066 37.9517C10.9695 37.8109 10.8657 37.6477 10.7878 37.4549C10.7137 37.2696 10.6729 37.0658 10.6729 36.8471Z" fill="white"/>
<path d="M15.2439 35.4167C15.2439 35.4019 15.2476 35.3907 15.2587 35.3797C15.2699 35.3685 15.2809 35.3648 15.2957 35.3648H17.142C17.1976 35.3648 17.2457 35.387 17.2828 35.4315L17.598 35.8429C17.609 35.8578 17.6127 35.8689 17.6053 35.8838C17.598 35.8949 17.5868 35.9023 17.5683 35.9023H16.6193V38.2893C16.6193 38.3227 16.6007 38.3412 16.5674 38.3412H16.1261C16.0928 38.3412 16.0743 38.3227 16.0743 38.2893V35.9023H15.292C15.2773 35.9023 15.2661 35.8986 15.255 35.8874C15.2439 35.8763 15.2401 35.8652 15.2401 35.8504V35.4167H15.2439Z" fill="white"/>
<path d="M17.6647 38.289L19.8519 35.4386C19.8891 35.3942 19.9372 35.3719 19.9928 35.3719H20.3969C20.4302 35.3719 20.4488 35.3904 20.4488 35.4237V38.3001C20.4488 38.3335 20.4302 38.352 20.3969 38.352H19.9928C19.9372 38.352 19.8891 38.3297 19.8519 38.2853L19.1143 37.3253L18.3728 38.2853C18.3357 38.3297 18.2875 38.352 18.2319 38.352H17.6907C17.6758 38.352 17.6647 38.3445 17.6573 38.3335C17.6498 38.3187 17.6536 38.3038 17.6647 38.289ZM19.4664 36.8619L19.9038 37.4328V36.2911L19.4664 36.8619Z" fill="white"/>
<path d="M21.1087 35.3719H21.5461C21.5833 35.3719 21.6017 35.3904 21.6017 35.4237V37.8108H22.7918C22.8103 37.8108 22.8215 37.8182 22.8288 37.8331C22.8362 37.8479 22.8362 37.859 22.8251 37.8701L22.5063 38.2815C22.4693 38.326 22.4248 38.3482 22.3691 38.3482H21.105C21.0901 38.3482 21.079 38.3445 21.068 38.3335C21.0568 38.3223 21.0531 38.3112 21.0531 38.2963V35.4201C21.0531 35.4052 21.0568 35.3942 21.068 35.383C21.0827 35.3793 21.0939 35.3719 21.1087 35.3719Z" fill="white"/>
<path d="M24.3562 38.3001V35.4237C24.3562 35.409 24.3599 35.3979 24.3711 35.3867C24.3822 35.3756 24.3934 35.3719 24.4082 35.3719H24.8122C24.8678 35.3719 24.9161 35.3942 24.9531 35.4386L27.1441 38.289C27.1515 38.3038 27.1515 38.3149 27.1478 38.3297C27.1403 38.3409 27.1293 38.3482 27.1107 38.3482H26.5695C26.5139 38.3482 26.4657 38.326 26.4286 38.2815L25.6909 37.3215L24.9494 38.2815C24.9124 38.326 24.8642 38.3482 24.8085 38.3482H24.4045C24.3897 38.3482 24.3785 38.3445 24.3674 38.3335C24.3601 38.326 24.3562 38.3149 24.3562 38.3001ZM24.9012 36.2911V37.4328L25.3387 36.8619L24.9012 36.2911Z" fill="white"/>
<path d="M27.4777 35.4237C27.4777 35.409 27.4814 35.3979 27.4926 35.3867C27.5036 35.3756 27.5147 35.3719 27.5296 35.3719H28.4786C28.6825 35.3719 28.8753 35.4089 29.0532 35.4868C29.2311 35.5647 29.3869 35.6684 29.5203 35.7982C29.6538 35.9316 29.7613 36.0836 29.8429 36.2614C29.9244 36.4394 29.9652 36.6284 29.9689 36.8286C29.9763 37.0399 29.9356 37.2363 29.8577 37.4216C29.7761 37.6069 29.6687 37.7664 29.5278 37.9035C29.3906 38.0406 29.2275 38.1482 29.0422 38.2296C28.8567 38.3075 28.6602 38.3482 28.449 38.3482H27.5333C27.5184 38.3482 27.5073 38.3445 27.4962 38.3335C27.4851 38.3223 27.4814 38.3112 27.4814 38.2963V35.4237H27.4777ZM28.0226 37.8108H28.4786C28.6084 37.8108 28.7307 37.7849 28.8457 37.7367C28.9606 37.6885 29.0606 37.6181 29.1459 37.5328C29.2312 37.4476 29.3016 37.3475 29.3498 37.2326C29.398 37.1177 29.424 36.9954 29.424 36.8656C29.424 36.7359 29.398 36.6136 29.3498 36.4986C29.3016 36.3838 29.2312 36.2838 29.1459 36.1985C29.0606 36.1132 28.9606 36.0428 28.8457 35.9946C28.7307 35.9464 28.6084 35.9205 28.4786 35.9205H28.0226V37.8108Z" fill="white"/>
<path d="M30.3805 36.2426C30.3805 36.1091 30.4064 35.9868 30.462 35.8719C30.5176 35.757 30.5918 35.6607 30.6882 35.5791C30.7845 35.4976 30.8921 35.4309 31.0219 35.3827C31.1479 35.3345 31.2814 35.3086 31.4223 35.3086C31.6446 35.3086 31.8337 35.3493 32.0006 35.4272C32.1636 35.5049 32.286 35.594 32.3676 35.6978C32.3861 35.7236 32.3861 35.746 32.3638 35.7645L32.0709 36.0721C32.0599 36.0832 32.045 36.0906 32.0302 36.0906C32.0153 36.0906 32.0006 36.0832 31.9894 36.0684C31.9635 36.0387 31.9338 36.0128 31.893 35.9832C31.856 35.9535 31.8114 35.9275 31.7595 35.9053C31.7114 35.8831 31.6558 35.8608 31.6002 35.8497C31.5446 35.8349 31.4853 35.8274 31.4259 35.8274C31.3554 35.8274 31.2888 35.8386 31.2331 35.8608C31.1738 35.8831 31.1256 35.909 31.0849 35.9423C31.044 35.9757 31.0144 36.0165 30.9922 36.0609C30.97 36.1054 30.9588 36.1536 30.9588 36.2055C30.9588 36.2871 30.9847 36.3575 31.0403 36.4169C31.096 36.4761 31.1738 36.5169 31.2814 36.5391L31.6965 36.6207C31.8337 36.6466 31.9523 36.6874 32.0562 36.743C32.1599 36.7985 32.2452 36.8653 32.3157 36.9395C32.3861 37.0172 32.438 37.1025 32.475 37.1952C32.5122 37.2916 32.5306 37.3917 32.5306 37.4954C32.5306 37.6104 32.5085 37.7215 32.4602 37.8327C32.412 37.944 32.3453 38.0441 32.2527 38.1293C32.1599 38.2182 32.0487 38.2886 31.9153 38.3405C31.7818 38.3924 31.6298 38.4184 31.4556 38.4184C31.3333 38.4184 31.2184 38.4072 31.1145 38.3814C31.007 38.3554 30.9106 38.322 30.8254 38.2813C30.7401 38.2404 30.6622 38.196 30.5992 38.144C30.5325 38.0959 30.4806 38.0441 30.4361 37.9959C30.4176 37.9773 30.4176 37.955 30.4361 37.9291L30.7031 37.5844C30.7105 37.5695 30.7252 37.5622 30.7401 37.5622C30.7549 37.5622 30.7698 37.5658 30.7808 37.577C30.8217 37.614 30.8661 37.6511 30.9143 37.6881C30.9626 37.7253 31.0144 37.7623 31.07 37.7919C31.1256 37.8216 31.1887 37.8476 31.2517 37.8698C31.3184 37.8883 31.3851 37.8995 31.4593 37.8995C31.6149 37.8995 31.7337 37.8661 31.8151 37.7957C31.8967 37.729 31.9376 37.6399 31.9376 37.5325C31.9376 37.4472 31.9079 37.3732 31.8448 37.3101C31.7855 37.2471 31.6928 37.2026 31.5742 37.1804L31.159 37.0951C30.9217 37.0469 30.7289 36.9505 30.5881 36.8023C30.451 36.6577 30.3805 36.4724 30.3805 36.2426Z" fill="white"/>
<path d="M9.6869 35.3719C9.6869 35.3719 10.18 35.8871 10.18 35.8945V38.2963C10.18 38.3297 10.1614 38.3482 10.1244 38.3482H9.6869C9.67207 38.3482 9.66095 38.3445 9.64983 38.3335C9.6387 38.3223 9.635 38.3112 9.635 38.2963V35.4201C9.635 35.4052 9.6387 35.3942 9.64983 35.383C9.66095 35.3793 9.67207 35.3719 9.6869 35.3719Z" fill="white"/>
<path d="M14.2874 35.3719C14.2874 35.3719 14.7804 35.8871 14.7804 35.8945V38.2963C14.7804 38.3297 14.762 38.3482 14.7249 38.3482H14.2874C14.2726 38.3482 14.2614 38.3445 14.2504 38.3335C14.2393 38.3223 14.2355 38.3112 14.2355 38.2963V35.4201C14.2355 35.4052 14.2393 35.3942 14.2504 35.383C14.2577 35.3793 14.2726 35.3719 14.2874 35.3719Z" fill="white"/>
</svg>
