<svg width="136" height="80" viewBox="0 0 136 80" fill="none" xmlns="http://www.w3.org/2000/svg">
<g clip-path="url(#clip0_4978_427)">
<path d="M67.651 0C55.1853 0 45.0811 10.1042 45.0811 22.5699C45.0811 35.0356 55.1853 45.1398 67.651 45.1398C80.1167 45.1398 90.2209 35.0356 90.2209 22.5699C90.2209 10.1042 80.1167 0 67.651 0ZM83.2765 33.052C81.4513 35.7883 79.1111 37.2326 76.5302 37.2326C75.2962 37.1991 74.0804 36.9035 72.9682 36.3703C71.6122 35.7395 70.4848 34.6974 69.7504 33.3932C69.1501 32.4212 68.8332 31.2999 68.8332 30.1542C68.8332 29.8738 68.8515 29.5904 68.8881 29.3101C69.3147 27.7896 69.8418 26.2843 70.4482 24.8309C72.2551 20.1597 74.7233 13.7668 72.5903 10.6435C71.6945 9.32719 70.0704 8.66597 67.6418 8.67206C65.2163 8.68121 63.5557 9.32719 62.6933 10.6435C60.5329 13.7668 63.0285 20.1597 64.8354 24.84C65.4296 26.2874 65.9507 27.7805 66.3651 29.2888C66.4017 29.563 66.423 29.8434 66.423 30.1206C66.423 31.2633 66.1061 32.3846 65.5058 33.3597C64.7715 34.6608 63.644 35.6999 62.2881 36.3276C61.1759 36.8608 59.9601 37.1534 58.726 37.1899C56.1451 37.1899 53.8293 35.7456 52.0589 33.0245L51.8426 32.6467C53.0523 33.2988 54.3869 33.6919 55.7581 33.7985C56.4925 33.7955 57.2055 33.5669 57.8058 33.1434C61.4806 30.6996 60.2252 27.7652 57.7205 23.2311C56.5808 21.3785 55.6911 19.3674 55.0786 17.2801C54.5454 15.0771 54.0731 11.8685 55.9836 9.44298C57.0531 8.20586 58.4639 7.30696 60.0332 6.86208C62.2576 6.20696 64.5764 5.86873 66.8983 5.86873C66.9898 5.86873 67.0873 5.86873 67.1787 5.86873H68.1324C68.2208 5.86873 68.3213 5.86873 68.4127 5.86873C70.7346 5.86873 73.0504 6.20695 75.2748 6.85904C76.8471 7.30391 78.2579 8.20281 79.3275 9.43994C81.238 11.8654 80.7657 15.0771 80.2386 17.2771C79.617 19.3705 78.7181 21.3724 77.5723 23.2281C75.0676 27.7713 73.8122 30.6965 77.487 33.1403C78.0873 33.5608 78.8034 33.7894 79.5347 33.7955C80.915 33.6919 82.2649 33.2988 83.4837 32.6437L83.2765 33.0489V33.052Z" fill="white"/>
<path d="M3.76055 78.9962H0.116211V55.2867H3.76665L3.76055 78.9962Z" fill="white"/>
<path d="M21.7672 78.9961H18.0985V77.4665C17.0045 78.6731 15.4505 79.3618 13.8203 79.3618H13.7563C10.0754 79.3618 8.06738 76.9211 8.06738 73.3438V62.7855H11.7148V72.6825C11.7148 74.6631 12.6655 75.9825 14.7436 75.9825C14.7649 75.9825 14.7863 75.9825 14.8076 75.9825C16.3707 75.9825 17.7328 74.913 18.1015 73.3955V62.8038H21.7641V78.9961H21.7672Z" fill="white"/>
<path d="M29.9169 78.9962H26.2695V55.2867H29.9169V78.9962Z" fill="white"/>
<path d="M47.8973 78.9961H44.2469V77.4665C43.153 78.6731 41.599 79.3618 39.9688 79.3618H39.9048C36.2239 79.3618 34.2158 76.9211 34.2158 73.3438V62.7855H37.8632V72.6825C37.8632 74.6631 38.8139 75.9825 40.892 75.9825C40.9134 75.9825 40.9347 75.9825 40.956 75.9825C42.5192 75.9825 43.8812 74.913 44.2499 73.3955V62.8038H47.9004L47.8943 78.9961H47.8973Z" fill="white"/>
<path d="M56.0831 78.9962H52.4326V55.2867H56.0831V78.9962Z" fill="white"/>
<path d="M73.9448 73.9623C73.3963 77.1679 71.0287 79.3587 67.1223 79.3587C62.6035 79.3587 59.4619 75.9277 59.4619 70.9335C59.4619 65.9393 62.637 62.4351 67.0492 62.4351C71.4614 62.4351 74.0911 65.6803 74.0911 70.4185V71.7379H63.0392C63.152 74.5809 64.7883 76.2964 67.1254 76.2964C68.8744 76.2964 70.1877 75.5316 70.5899 73.9592H73.9479L73.9448 73.9623ZM63.1489 69.0595H70.4803C70.4467 67.0789 69.3132 65.4822 67.0888 65.4822C65.0838 65.5005 63.5847 66.7437 63.1489 69.0595Z" fill="white"/>
<path d="M94.2231 62.4594C97.5231 62.4594 99.5007 64.7965 99.5007 68.4774V79.0357H95.8502V69.0594C95.8502 67.0788 94.9727 65.7594 93.2114 65.7594C93.1931 65.7594 93.1749 65.7594 93.1566 65.7594C91.7519 65.7594 90.5513 66.7802 90.3289 68.1697V78.9991H86.6327V69.0625C86.6327 67.0819 85.7552 65.7625 83.9939 65.7625C83.9757 65.7625 83.9574 65.7625 83.9391 65.7625C82.5344 65.7625 81.3338 66.7833 81.1114 68.1727V79.0022H77.4609V62.8098H81.1114V64.1292C82.056 63.0658 83.4089 62.4594 84.8319 62.4594C84.9263 62.4594 85.0239 62.4625 85.1183 62.4686C85.1366 62.4686 85.1579 62.4686 85.1793 62.4686C86.846 62.4686 88.4122 63.2699 89.3873 64.6198C90.5208 63.2547 92.2059 62.4625 93.9823 62.4625C94.0646 62.4625 94.1439 62.4625 94.2261 62.4686L94.2231 62.4594Z" fill="white"/>
<path d="M110.342 79.3587C105.784 79.3587 102.648 75.8545 102.648 70.8999C102.648 65.9453 105.784 62.4594 110.342 62.4594C114.901 62.4594 118.036 65.9636 118.036 70.9182C118.036 75.8728 114.901 79.3587 110.342 79.3587ZM110.342 65.5736C107.704 65.5736 106.299 67.8376 106.299 70.8999C106.299 73.9622 107.725 76.2262 110.342 76.2262C112.96 76.2262 114.395 73.9622 114.395 70.8999C114.395 67.8376 112.969 65.5736 110.342 65.5736Z" fill="white"/>
<path d="M121.408 62.8037H125.059V64.3334C126.168 63.1389 127.725 62.4594 129.355 62.4594C129.389 62.4594 129.425 62.4594 129.462 62.4594C133.143 62.4594 135.19 64.9001 135.19 68.4774V79.0357H131.54V69.0594C131.54 67.0788 130.556 65.7594 128.477 65.7594C128.456 65.7594 128.435 65.7594 128.41 65.7594C126.841 65.7594 125.47 66.8259 125.086 68.3464V78.9961H121.411V62.8037H121.408Z" fill="white"/>
</g>
<defs>
<clipPath id="clip0_4978_427">
<rect width="135.292" height="79.5295" fill="white"/>
</clipPath>
</defs>
</svg>
