<svg width="42" height="30" viewBox="0 0 42 30" fill="none" xmlns="http://www.w3.org/2000/svg">
<path d="M6.49593 1.19211e-07L41.4959 0L35 30H0L6.49593 1.19211e-07Z" fill="#D92630"/>
<path d="M20.8895 26.8633C19.2855 25.4952 17.7987 23.9952 16.4447 22.3792C14.4129 19.9524 12 16.3382 12 12.8942C11.9982 9.29718 14.1643 6.0536 17.4874 4.67701C20.8106 3.30042 24.6358 4.06217 27.1781 6.60679C28.8499 8.27116 29.7864 10.5352 29.779 12.8942C29.779 16.3382 27.3661 19.9524 25.3342 22.3792C23.9802 23.9952 22.4935 25.4952 20.8895 26.8633ZM20.8895 9.08441C19.5284 9.08441 18.2707 9.81055 17.5901 10.9893C16.9096 12.168 16.9096 13.6203 17.5901 14.7991C18.2707 15.9778 19.5284 16.704 20.8895 16.704C22.9935 16.704 24.6992 14.9983 24.6992 12.8942C24.6992 10.7901 22.9935 9.08441 20.8895 9.08441Z" fill="white"/>
</svg>
