<svg width="96" height="83" viewBox="0 0 96 83" fill="none" xmlns="http://www.w3.org/2000/svg">
<g clip-path="url(#clip0_4978_404)">
<path fill-rule="evenodd" clip-rule="evenodd" d="M67.6904 12.1157C67.7188 12.098 67.7419 12.0767 67.7614 12.0572L67.6993 12.1335L67.6922 12.1157H67.6904Z" fill="#D50441"/>
<path fill-rule="evenodd" clip-rule="evenodd" d="M9.73331 31.4753C9.95351 30.6371 10.2003 29.8096 10.4738 28.9945L10.2607 28.0747L10.1062 27.4106L10.7082 27.0909L11.2924 26.7802C17.1027 12.4124 31.1846 2.2746 47.637 2.2746C65.8848 2.2746 81.2185 14.7458 85.5834 31.6298C86.4428 31.9334 87.249 32.2442 88.0037 32.5603C83.9301 14.0142 67.4066 0.133026 47.637 0.133026C27.8674 0.133026 11.4452 13.9272 7.30762 32.3863C8.06764 32.0719 8.87562 31.7683 9.73154 31.4735L9.73331 31.4753Z" fill="white"/>
<path fill-rule="evenodd" clip-rule="evenodd" d="M77.0978 67.4897C77.0535 67.4791 77.0073 67.4684 76.9611 67.4578C69.7817 75.5517 59.3047 80.6535 47.6343 80.6535C32.4409 80.6535 19.2665 72.0073 12.7636 59.3674C12.0533 59.5947 11.3714 59.8291 10.7197 60.0688C17.528 73.5486 31.4997 82.795 47.6343 82.795C60.3879 82.795 71.7901 77.0185 79.3726 67.939C78.6658 67.8609 77.904 67.7135 77.0978 67.4897Z" fill="white"/>
<path fill-rule="evenodd" clip-rule="evenodd" d="M17.9051 23.8679C18.6563 23.6778 19.3684 23.534 20.0556 23.431C22.6411 19.4853 26.0488 16.1255 30.0389 13.6004V26.2136C30.3355 26.4907 30.6178 26.7837 30.886 27.0926C34.0344 26.718 37.1722 26.4445 40.1981 26.2776L40.1466 9.36873C42.551 8.80936 45.0601 8.51458 47.635 8.51458C50.2099 8.51458 52.7243 8.81114 55.1323 9.3705V26.2918C58.4459 26.48 61.8784 26.7961 65.279 27.2258V13.6288C71.1745 17.3757 75.7969 22.9445 78.3575 29.5414C79.7835 29.8806 81.1384 30.2375 82.4151 30.6104C77.7982 15.7934 63.972 5.03586 47.635 5.03586C33.5496 5.03586 21.3341 13.0304 15.2734 24.7291C16.1187 24.3846 17.003 24.0916 17.9051 23.8643V23.8679Z" fill="white"/>
<path fill-rule="evenodd" clip-rule="evenodd" d="M69.648 65.9766C68.2878 67.1983 66.8281 68.3117 65.2778 69.2973V65.2965C61.9127 64.8259 58.4962 64.4672 55.1311 64.2399V73.5591C52.7232 74.1185 50.214 74.415 47.6338 74.415C45.0536 74.415 42.6848 74.1345 40.3372 73.6035L40.3088 64.2168C40.1987 64.2239 40.0886 64.2292 39.9785 64.2363C39.9341 64.2399 39.8045 64.2505 39.618 64.2505C38.9947 64.2505 37.7748 64.1316 36.6187 63.336C35.4308 62.5192 34.6423 61.2406 34.2676 59.5306C34.0261 59.5909 33.7793 59.6442 33.5289 59.6868C32.9873 59.7809 32.4386 59.8289 31.8952 59.8289C31.2453 59.8289 30.622 59.7543 30.036 59.6176V69.3275C25.4509 66.4259 21.6313 62.4215 18.9481 57.6891C17.7352 57.9661 16.5739 58.2591 15.4658 58.5645C21.5904 70.0608 33.6958 77.8884 47.632 77.8884C57.9173 77.8884 67.2063 73.623 73.8299 66.7686C72.459 66.4845 71.0633 66.2216 69.6462 65.9766H69.648Z" fill="white"/>
<path fill-rule="evenodd" clip-rule="evenodd" d="M10.0666 60.4522C11.1143 62.6666 12.368 64.6981 13.8952 66.6177C11.125 66.4721 7.16856 66.2323 5.34307 65.5007C3.10916 63.9824 5.25606 62.7696 5.25606 62.7696C6.52396 61.9332 8.15589 61.1572 10.0666 60.4522Z" fill="white"/>
<path fill-rule="evenodd" clip-rule="evenodd" d="M89.8334 66.0831C87.4219 68.2904 82.5137 67.2498 82.1621 67.2498C85.2768 67.1042 86.3742 63.5207 86.4932 60.5001C87.9955 61.127 89.8263 61.9456 90.5224 63.0306C90.5224 63.0306 92.0123 64.5329 89.8334 66.0814V66.0831Z" fill="white"/>
<path fill-rule="evenodd" clip-rule="evenodd" d="M81.5859 69.7839C81.7564 69.7839 81.9055 69.7679 81.9055 69.5673C81.9055 69.4003 81.7422 69.3808 81.6054 69.3808H81.332V69.7821H81.5859V69.7839ZM81.332 70.567H81.1064V69.1872H81.6267C81.9606 69.1872 82.1311 69.3044 82.1311 69.5832C82.1311 69.8336 81.9783 69.9366 81.7706 69.9597L82.1577 70.5652H81.902L81.5451 69.9757H81.332V70.5652V70.567ZM81.5788 68.8268C82.1115 68.8268 82.5306 69.2494 82.5306 69.8567C82.5306 70.464 82.1097 70.8849 81.5788 70.8849C80.9857 70.8849 80.6199 70.4232 80.6199 69.8567C80.6199 69.2494 81.0407 68.8268 81.5788 68.8268ZM81.5788 71.0997C80.8632 71.0997 80.3535 70.5635 80.3535 69.8549C80.3535 69.1056 80.9182 68.6083 81.5788 68.6083C82.2394 68.6083 82.797 69.1056 82.797 69.8549C82.797 70.6043 82.2323 71.0997 81.5788 71.0997Z" fill="white"/>
<path fill-rule="evenodd" clip-rule="evenodd" d="M66.5361 60.074C66.5361 60.2374 66.6391 60.3599 66.8114 60.3848C67.1062 60.4292 67.3068 60.154 67.3068 59.8485V59.7882C66.6746 59.694 66.5361 59.8716 66.5361 60.074Z" fill="white"/>
<path fill-rule="evenodd" clip-rule="evenodd" d="M69.6515 59.243C69.339 59.1897 69.1543 59.5537 69.1543 59.9853V60.6867C69.2466 60.7346 69.3443 60.7666 69.4668 60.7861C69.8025 60.8447 70.0475 60.6529 70.0475 60.0279C70.0475 59.5537 69.9214 59.2892 69.6515 59.243Z" fill="white"/>
<path fill-rule="evenodd" clip-rule="evenodd" d="M58.9707 58.7424C58.9707 59.2147 59.0986 59.4686 59.372 59.4935C59.6881 59.5201 59.8763 59.1401 59.8763 58.7086V58.0019C59.768 57.9681 59.6633 57.9433 59.5603 57.9344C59.2175 57.9042 58.9707 58.1173 58.9707 58.7424Z" fill="white"/>
<path fill-rule="evenodd" clip-rule="evenodd" d="M62.0827 41.093C59.9553 40.9065 58.6182 42.1016 58.6182 44.1242C58.6182 46.937 60.3513 49.2846 62.2993 49.455C64.0076 49.6042 64.8919 48.6826 64.8919 46.2036C64.8919 45.7455 64.7676 42.3094 64.7676 42.3094C63.9952 41.6062 63.0167 41.1746 62.0827 41.093Z" fill="white"/>
<path fill-rule="evenodd" clip-rule="evenodd" d="M41.922 57.4833C41.6716 57.4921 41.4976 57.6981 41.4639 58.0036L42.3287 57.9698C42.3375 57.6537 42.1777 57.4726 41.922 57.4815V57.4833Z" fill="white"/>
<path fill-rule="evenodd" clip-rule="evenodd" d="M75.4056 29.7954C74.7911 28.6464 73.7541 27.7124 72.2269 27.4425C70.7868 27.1885 69.4674 27.6449 68.615 28.5843C61.3877 27.4922 53.8211 26.9311 47.5367 26.9755C42.4189 26.9399 36.4506 27.3057 30.5106 28.032C29.5588 26.8298 28.3549 25.8248 26.9644 25.134C24.3931 23.8341 21.3832 23.9016 18.1229 24.7273C16.3187 25.1837 14.5376 25.9118 12.9892 26.8813L11.1211 27.874L11.5153 29.5734C11.6751 30.2588 11.9645 30.9638 12.4991 31.5321C5.18645 33.6488 -0.185241 36.7333 0.0598151 40.3718C0.549926 47.7075 1.16789 56.7835 1.66688 62.3327C1.92259 65.1722 4.34119 65.6587 4.34119 65.6587C1.51417 63.7356 4.23109 62.2031 4.23109 62.2031C8.65452 59.2837 16.5744 56.9504 25.7889 55.4605C26.8455 56.7302 27.4546 57.3517 28.4099 57.9874C29.9868 59.0369 31.9668 59.0564 33.3785 58.8132C33.9592 58.7119 34.4901 58.5646 34.9785 58.3799C35.5947 63.8173 39.805 63.3573 39.9186 63.3502C42.5397 63.1851 45.1767 63.0874 47.7924 63.0608H47.851C58.1256 63.1656 68.7624 64.5968 77.3163 66.6301C84.3572 68.5728 85.6624 64.334 85.8542 59.6939C87.8004 60.4717 89.482 61.3099 90.8369 62.2031C90.8369 62.2031 93.5539 63.7356 90.7269 65.6587C90.7269 65.6587 93.1472 65.1722 93.4029 62.3327C93.9019 56.7835 94.5199 47.7093 95.01 40.3718C95.3208 35.7335 86.4899 32.1003 75.4038 29.7936L75.4056 29.7954ZM72.0795 29.4615C73.3652 29.6888 74.1767 30.9745 74.1767 32.5585C74.1767 34.1424 73.3137 35.5329 71.7954 36.5859L71.6285 36.7031L70.2434 35.6998L70.5648 35.4672C71.3976 34.8652 71.9179 34.1052 72.1062 33.2794C71.9517 33.2972 71.7954 33.2901 71.6143 33.2599C70.6234 33.0859 70.0143 32.2441 70.0143 31.1751C70.0143 29.9516 70.8773 29.252 72.0778 29.4633L72.0795 29.4615ZM40.1264 50.6517L39.6043 50.6375C38.8283 50.6198 38.0523 50.6713 37.2781 50.7583C36.6637 50.8275 35.4348 51.0353 34.8204 51.1774L34.3321 51.2892L34.5026 50.8151C35.6923 48.4587 35.0673 38.921 34.737 36.8238L34.705 36.6161L34.8932 36.522C36.1238 35.9058 37.7717 35.3766 39.0503 35.199L39.4019 35.1493C39.4019 35.1493 38.6845 48.0396 39.8849 50.2025L40.1264 50.6517ZM37.0384 29.4438C38.3134 29.3763 39.4996 30.2375 39.4996 31.461C39.4996 32.5975 38.1198 33.5387 36.6956 33.615C35.4366 33.6807 34.2344 32.8728 34.2344 31.7079C34.2344 30.4364 35.5165 29.5255 37.0401 29.4455L37.0384 29.4438ZM32.7232 56.6858C31.5637 56.8865 30.2372 56.8012 29.3191 56.1903C28.4348 55.6026 27.9873 55.1036 26.2648 52.9886C25.0484 51.465 22.8979 48.7197 21.7259 47.1251C21.147 46.3366 20.6161 45.6405 20.1757 45.1344C19.9786 44.9071 19.8046 44.7278 19.6589 44.5964C19.6589 44.5964 19.5897 49.5792 19.9892 51.1614C20.4438 52.9602 21.1293 53.8925 21.1293 53.8925L20.8025 53.9671C19.3127 54.3027 15.7789 55.148 14.5696 55.4943L14.0475 55.6452L14.218 55.1284C14.685 53.7132 14.8147 53.2976 14.9052 52.2126C14.9514 51.6373 15.0224 51.1632 15.0224 49.7923V30.4151C14.2713 30.2677 13.9126 29.8415 13.7226 29.0194L13.6764 28.8205L13.8504 28.7122C15.1858 27.8758 16.7556 27.2312 18.368 26.821C21.3885 26.0556 23.8018 26.1 25.7107 27.0642C28.5165 28.4582 30.3988 31.509 30.3988 34.5846C30.3988 37.939 28.3957 41.3361 25.0004 43.7369C25.8475 44.2235 26.8543 45.2765 27.8949 46.4538C29.1682 47.894 32.2669 53.8321 34.927 53.8321C36.1114 53.8321 36.2464 53.1165 36.2464 53.1165L37.3456 53.0774C37.3456 53.0774 36.5056 56.0323 32.7268 56.6858H32.7232ZM38.3542 59.7703L37.7416 59.8111V56.3804L38.3542 56.3395V59.7703ZM39.9098 59.7241C39.2581 59.7596 38.8532 59.4169 38.8532 58.5574C38.8532 57.7708 39.235 57.1439 40.066 57.0978C40.2276 57.0889 40.3963 57.1049 40.549 57.1422L40.4869 57.7104C40.359 57.666 40.2134 57.634 40.0625 57.6429C39.6789 57.6642 39.4871 57.9803 39.4871 58.4562C39.4871 58.8895 39.6416 59.1754 40.043 59.1523C40.2028 59.1434 40.3786 59.0991 40.5047 59.0209L40.5526 59.5714C40.391 59.646 40.1602 59.7099 39.9098 59.7241ZM42.909 58.3905L41.4547 58.4474C41.4494 58.9197 41.6678 59.1399 42.1011 59.1239C42.3319 59.115 42.5841 59.0493 42.7865 58.9392L42.8433 59.44C42.5929 59.5554 42.2964 59.6247 42.0034 59.6353C41.2576 59.6637 40.842 59.2784 40.842 58.3887C40.842 57.6163 41.238 57.0321 41.943 57.0037C42.6285 56.977 42.9303 57.4689 42.9303 58.094C42.9303 58.181 42.925 58.2822 42.9126 58.3887L42.909 58.3905ZM44.0633 58.5539C43.8378 58.5574 43.6584 58.3692 43.6584 58.1277C43.6584 57.8862 43.8378 57.6873 44.0633 57.682C44.2835 57.6784 44.4682 57.8702 44.4682 58.1082C44.4682 58.3461 44.2853 58.5486 44.0633 58.5539ZM46.4748 59.5288C45.3596 59.5394 45.0009 58.7439 45.0009 57.8898C45.0009 56.803 45.5301 56.0359 46.5973 56.0252C46.8246 56.0252 47.0661 56.0518 47.2739 56.1104L47.2082 56.7106C47.0004 56.6467 46.782 56.613 46.5653 56.6148C45.9705 56.6183 45.6775 57.1049 45.6775 57.7708C45.6775 58.5184 45.9651 58.9321 46.608 58.9268C46.8015 58.925 47.0626 58.8611 47.2277 58.7776L47.2987 59.3654C47.0626 59.4595 46.7749 59.5235 46.4766 59.5252L46.4748 59.5288ZM49.8647 59.4933L49.2965 59.4897C49.2965 59.3725 49.3018 59.1754 49.3249 59.0422L49.3196 59.0369C49.1793 59.3352 48.9094 59.5412 48.5205 59.5377C47.9913 59.5323 47.8208 59.1648 47.8208 58.7226V56.9486L48.421 56.9539V58.5699C48.421 58.8345 48.4867 58.9925 48.714 58.9943C49.0212 58.9961 49.2574 58.6232 49.2574 58.181V56.961L49.8629 56.9664V59.4915L49.8647 59.4933ZM51.0154 59.5732C50.8449 59.5679 50.6762 59.5448 50.5235 59.5146L50.5377 58.9819C50.6851 59.0262 50.8645 59.0671 51.0438 59.0706C51.2764 59.0777 51.4274 58.9801 51.4274 58.8114C51.4274 58.3639 50.4791 58.593 50.4791 57.7335C50.4791 57.2913 50.8147 56.9344 51.4753 56.9522C51.6121 56.9539 51.763 56.9806 51.9051 57.009L51.8873 57.5222C51.7559 57.4778 51.5996 57.4476 51.454 57.4458C51.2178 57.4387 51.1042 57.5382 51.1042 57.6962C51.1042 58.1082 52.0667 57.9501 52.0667 58.767C52.0667 59.266 51.66 59.5909 51.0172 59.5732H51.0154ZM53.862 57.5968L53.2902 57.5737V58.6817C53.2902 59.0067 53.3612 59.1008 53.569 59.1097C53.6684 59.1115 53.7767 59.1008 53.862 59.0795V59.6034C53.711 59.6371 53.5352 59.6566 53.3701 59.6495C52.8498 59.6282 52.69 59.4187 52.69 58.8291V57.5488L52.2833 57.5328V57.0303L52.6846 57.0463V56.2685L53.2884 56.1193V57.0694L53.8602 57.0924V57.595L53.862 57.5968ZM53.7643 34.9309C52.8143 36.609 51.5695 37.5253 49.989 37.6283C49.6694 37.6496 48.7922 37.678 48.1689 37.6638V46.7255C48.1689 48.4232 48.556 48.8191 49.0834 48.8156C49.8541 48.8103 50.5395 48.0946 50.5395 47.1801C50.5395 46.7042 50.5022 46.4609 50.3193 46.0791L50.0902 45.6032L50.6159 45.6689C51.4665 45.7755 52.0596 45.8838 52.9528 46.175L53.1623 46.2425L53.1517 46.4627C53.0203 49.1707 51.2853 50.8986 48.6732 50.911C46.4197 50.9217 44.9441 49.9681 44.4895 48.0751C44.3137 47.4571 44.2746 46.7699 44.2746 45.4807V36.8452C43.9248 36.7777 43.7028 36.7706 43.4862 36.7848C43.0138 36.815 42.7616 36.9517 42.3905 37.4951L42.2698 37.6709L41.3925 37.4507L41.4138 37.2181C41.5452 35.714 42.5361 34.7853 44.1006 34.5278C44.0899 34.4106 44.0686 34.1868 44.0278 33.6275C43.9887 33.2333 43.9869 33.0131 43.9443 32.2193L43.9354 32.0364L44.097 31.9405C45.4857 31.1183 46.9169 30.4755 48.1848 30.0617L48.5773 29.9339L48.5471 30.3388C48.4228 31.9973 48.3411 33.1516 48.3411 33.9418C48.3411 34.2348 48.3411 34.3786 48.3713 34.9948C49.4563 35.2843 50.4063 35.2576 50.8627 35.2274C51.6263 35.1777 52.2655 34.906 52.8338 34.3751L52.9794 34.2383L53.9259 34.6574L53.7714 34.9309H53.7643ZM55.7034 59.7135C55.7034 59.5661 55.7088 59.4187 55.7283 59.2873L55.7247 59.282C55.6111 59.5608 55.3234 59.7437 54.9736 59.7241C54.5492 59.6993 54.3023 59.4276 54.3023 59.0209C54.3023 58.4172 54.8582 58.1277 55.6573 58.1703V58.0336C55.6573 57.769 55.5401 57.6252 55.1991 57.6074C54.986 57.5968 54.7037 57.6554 54.5048 57.7672L54.4533 57.2203C54.6895 57.1422 54.9913 57.0924 55.2932 57.1084C56.0479 57.151 56.261 57.4938 56.261 58.0407V59.0937C56.261 59.2962 56.2663 59.5359 56.2752 59.7454L55.7052 59.7117L55.7034 59.7135ZM58.1735 57.9359C57.7402 57.8081 57.5218 58.0993 57.5218 58.8007V59.8324L56.9181 59.7898V57.2647L57.4881 57.3055C57.4881 57.4334 57.4739 57.6358 57.4455 57.8116H57.4543C57.568 57.4991 57.7935 57.2363 58.1984 57.3002L58.1717 57.9395L58.1735 57.9359ZM60.4749 60.0704L59.9138 60.0225C59.9138 59.8999 59.9226 59.7383 59.9422 59.6034H59.9333C59.8126 59.8715 59.5515 60.0473 59.1946 60.0171C58.6246 59.9692 58.344 59.4808 58.344 58.7599C58.344 57.9057 58.8057 57.3553 59.5817 57.4227C59.6794 57.4316 59.7753 57.4458 59.8783 57.4689V56.3093L60.4767 56.3608V60.0704H60.4749ZM61.7517 59.234C61.5297 59.2109 61.3486 58.9978 61.3486 58.7563C61.3486 58.5148 61.5279 58.339 61.7517 58.3639C61.9719 58.387 62.1548 58.6018 62.1548 58.8416C62.1548 59.0813 61.9719 59.2571 61.7517 59.2358V59.234ZM65.4542 60.6351L64.8433 60.5587V59.0706L63.5026 58.9037V60.3936L62.8935 60.3172V56.8865L63.5026 56.961V58.3337L64.8433 58.4988V57.1262L65.4542 57.2008V60.6315V60.6351ZM67.3507 60.9121C67.3507 60.7647 67.356 60.6173 67.3738 60.4877L67.3684 60.4824C67.2566 60.7505 66.9724 60.9068 66.6244 60.8553C66.2035 60.7931 65.9603 60.4966 65.9603 60.0917C65.9603 59.4862 66.5125 59.2482 67.3027 59.3654V59.2287C67.3027 58.9641 67.1855 58.8096 66.8481 58.7599C66.6386 58.7279 66.358 58.7617 66.1627 58.8558L66.1112 58.3035C66.3456 58.2467 66.6439 58.2254 66.9423 58.2698C67.6899 58.3799 67.9012 58.7421 67.9012 59.2908V60.3439C67.9012 60.5463 67.9065 60.786 67.9136 60.9956L67.3489 60.9121H67.3507ZM69.4514 61.2868C69.3395 61.269 69.2507 61.2477 69.1531 61.214V62.4233L68.5564 62.3203V58.5699L69.1105 58.6658C69.1105 58.7865 69.1051 58.9534 69.0874 59.0831H69.0963C69.2277 58.8132 69.4745 58.6764 69.8225 58.7368C70.3713 58.8309 70.6714 59.3157 70.6714 60.0615C70.6714 60.9405 70.2523 61.4235 69.4514 61.285V61.2868ZM70.872 51.2058C70.112 52.0723 69.4035 52.3867 68.306 52.2908C67.0115 52.1771 66.0011 51.481 65.2695 50.2273C64.0584 51.3283 62.6129 51.7936 60.9189 51.6444C57.8024 51.3727 54.8866 48.4587 54.8866 45.5429C54.8866 41.9753 58.0652 39.1146 61.6327 39.4271C62.6289 39.5141 63.3694 39.7414 64.7954 40.4198C64.6728 37.1683 63.6589 35.7761 61.7481 35.6075C60.9828 35.54 60.5974 35.6661 59.3278 36.5894C59.0916 36.7688 58.6903 36.8576 58.4275 36.8345C57.6319 36.7652 56.879 36.1668 56.879 35.4228C56.879 34.1353 59.0703 33.5671 61.0929 33.7447C64.2591 34.0217 67.1571 35.5577 68.2155 37.6478C68.6559 38.5321 68.869 39.4662 68.869 41.226V44.1507C68.869 44.259 68.9116 45.2357 68.9524 46.7877C69.0359 50.0977 69.1921 50.2185 70.7477 50.7423L71.1579 50.879L70.8738 51.204L70.872 51.2058ZM72.0547 61.768C71.9428 61.7449 71.854 61.7236 71.7581 61.6881V62.8974L71.165 62.7784V59.028L71.7173 59.1381C71.7173 59.2606 71.712 59.4258 71.6942 59.5536H71.7031C71.8345 59.2873 72.0795 59.1577 72.4258 59.2269C72.9727 59.3352 73.2693 59.8271 73.2693 60.5747C73.2693 61.4537 72.852 61.9243 72.0547 61.7663V61.768ZM74.3383 62.212L73.7488 62.0823V59.5572L74.3383 59.6868V62.212ZM74.0435 59.2962C73.8411 59.2518 73.6777 59.0387 73.6777 58.8203C73.6777 58.6018 73.8393 58.4651 74.0435 58.5095C74.246 58.5539 74.4129 58.7634 74.4129 58.9819C74.4129 59.2003 74.246 59.3423 74.0435 59.2962ZM76.9558 62.8335L76.3733 62.6932V61.0773C76.3733 60.8127 76.3094 60.6404 76.0928 60.5871C75.7944 60.5143 75.56 60.834 75.56 61.2761V62.4961L74.9723 62.3523V59.8253L75.5281 59.9603C75.5281 60.0775 75.5192 60.2728 75.4961 60.4007L75.5014 60.406C75.6399 60.1397 75.9045 59.9958 76.2774 60.0864C76.7924 60.2125 76.9558 60.6173 76.9558 61.0613V62.8335ZM79.4312 62.3523L78.0284 61.9634C78.0248 62.4339 78.2326 62.7216 78.6534 62.8388C78.8772 62.901 79.1187 62.9116 79.3122 62.8637L79.3673 63.3822C79.1258 63.423 78.8399 63.3982 78.5575 63.32C77.8384 63.1194 77.437 62.608 77.437 61.7183C77.437 60.9459 77.8188 60.4824 78.4972 60.6706C79.1577 60.8535 79.449 61.4377 79.449 62.0628C79.449 62.148 79.4436 62.2493 79.4312 62.3523ZM80.3209 63.8368C80.1575 63.7871 79.9959 63.7143 79.8521 63.645L79.8663 63.1158C80.0048 63.1993 80.177 63.2881 80.3493 63.3414C80.5695 63.4106 80.7151 63.352 80.7151 63.1869C80.7151 62.7394 79.8077 62.7127 79.8077 61.8533C79.8077 61.4111 80.1291 61.1447 80.7595 61.3418C80.8909 61.3809 81.0347 61.4484 81.1697 61.5141L81.1519 62.022C81.0258 61.9421 80.8767 61.871 80.7364 61.8266C80.5109 61.7574 80.4026 61.8249 80.4026 61.9829C80.4026 62.3949 81.3242 62.4979 81.3242 63.3165C81.3242 63.8137 80.9353 64.0286 80.3226 63.8386L80.3209 63.8368ZM82.1943 64.4406C82.0345 64.3855 81.8729 64.3092 81.7291 64.2346L81.7433 63.7054C81.8818 63.7942 82.0522 63.8883 82.2209 63.9469C82.4394 64.0233 82.5832 63.9718 82.5832 63.8031C82.5832 63.3556 81.6847 63.3005 81.6847 62.441C81.6847 61.9989 82.0025 61.7432 82.6276 61.958C82.7572 62.0024 82.9011 62.0717 83.0342 62.1445L83.0165 62.6524C82.8904 62.5689 82.743 62.4925 82.6045 62.4446C82.3808 62.3665 82.2742 62.4304 82.2742 62.5902C82.2742 63.0022 83.1852 63.1336 83.1852 63.9504C83.1852 64.4477 82.7998 64.6519 82.1925 64.4423L82.1943 64.4406ZM77.7211 54.6881C75.0966 54.0346 72.9941 52.1984 71.8807 49.6129L71.7777 49.3714L72.0085 49.2471C73.026 48.6007 74.7752 48.329 74.7752 48.329L75.2369 49.0198L75.2067 49.1423C75.1729 49.2773 75.1729 49.3554 75.1729 49.4957C75.1729 51.0779 76.4319 52.582 78.1917 53.0206C79.8663 53.4379 81.072 52.5891 81.072 51.3265C81.072 50.3108 80.5055 49.4265 78.7671 47.949C76.5989 46.1377 76.0182 45.6672 75.2244 44.8894C73.7363 43.483 73.0189 42.1281 73.0189 40.5796C73.0189 37.7916 75.5973 36.3391 78.6889 37.1097C80.3386 37.5217 82.3026 38.9068 83.416 40.4144L83.5226 40.5601L83.4391 40.7199C82.9721 41.6007 82.2032 42.6093 81.7024 42.9982L81.5746 43.0976L80.6245 42.7425L80.6583 42.5134C80.6973 42.2506 80.6956 42.0819 80.6956 41.8439C80.6956 40.5831 79.8059 39.4999 78.4226 39.1537C77.3518 38.8873 76.6646 39.4129 76.6646 40.0806C76.6646 40.8584 76.9895 41.3609 79.0867 43.0142C80.5855 44.2217 81.4396 44.9071 82.0061 45.4026C82.585 45.9069 82.878 46.2248 83.242 46.6882C84.311 47.9615 84.7567 49.137 84.7567 50.4067C84.7567 53.7362 81.4325 55.615 77.7176 54.6898L77.7211 54.6881Z" fill="white"/>
<path fill-rule="evenodd" clip-rule="evenodd" d="M54.8789 58.9518C54.8789 59.1151 54.9819 59.227 55.1577 59.2359C55.4543 59.2519 55.6567 58.9589 55.6567 58.6534V58.593C55.0192 58.5575 54.8789 58.7475 54.8789 58.9518Z" fill="white"/>
<path fill-rule="evenodd" clip-rule="evenodd" d="M72.2542 59.7279C71.9435 59.6657 71.7588 60.0244 71.7588 60.4577V61.1591C71.8511 61.2071 71.9488 61.2426 72.0695 61.2657C72.4034 61.3331 72.6502 61.1467 72.6502 60.5216C72.6502 60.0493 72.5259 59.7794 72.256 59.7279H72.2542Z" fill="white"/>
<path fill-rule="evenodd" clip-rule="evenodd" d="M19.661 28.9218V42.9042C19.9753 42.8491 20.3837 42.7657 20.6092 42.7089C23.731 41.9186 26.0875 38.6299 26.0875 35.0429C26.0875 31.1575 23.5481 28.7265 19.6592 28.9218H19.661Z" fill="white"/>
<path fill-rule="evenodd" clip-rule="evenodd" d="M78.4783 61.1429C78.2368 61.0755 78.0681 61.2282 78.0361 61.5229L78.869 61.7538C78.8778 61.4413 78.7234 61.2104 78.4765 61.1412L78.4783 61.1429Z" fill="white"/>
</g>
<defs>
<clipPath id="clip0_4978_404">
<rect width="95.181" height="82.9283" fill="white"/>
</clipPath>
</defs>
</svg>
