<svg xmlns="http://www.w3.org/2000/svg">
<defs>
<font id="TofinoProPersonal-Black" horiz-adv-x="0" >
  <font-face 
    font-family="Tofino Pro Personal Black"
    font-weight="470"
    font-stretch="normal"
    units-per-em="2048"
    panose-1="0 0 5 0 0 0 0 0 0 0"
    ascent="1556"
    descent="-492"
    x-height="1124"
    cap-height="1485"
    bbox="-1679 -659 2720 2499"
    underline-thickness="102"
    underline-position="-255"
    unicode-range="U+0020-2661"
  />
<missing-glyph horiz-adv-x="1261" 
d="M1026 1067q28 -19 31 -61q3 -43 -23 -66q-20 -14 -49 -14q-31 0 -94 18q123 -129 123 -311q0 -178 -119.5 -305t-286.5 -127q-166 0 -284.5 127t-118.5 305q0 93 34 175.5t95 141.5q-44 63 -17 131q26 64 108.5 106t182.5 42q102 0 187 -44t114 -112l2 -4q79 24 115 -2z
M608 1180q-85 0 -155.5 -33.5t-90.5 -83.5q-16 -37 9 -80q105 81 229 84q0 25 6 41q17 42 51 51q28 7 58 -11.5t71 -55.5l5 -5q18 7 30 7q7 0 19 -4q-36 41 -101 65.5t-131 24.5zM653 1090q-7 -18 -2 -25q11 -19 88 -29q2 -2 6 -2q3 3 3 6l6 15q-66 61 -86 57q-9 -5 -15 -22
zM823 991q23 0 27 19q4 11 -2 20t-19 12q-2 2 -8 2q-20 0 -26 -18q-2 -6 2 -18q8 -13 18 -15zM901 993q89 -26 103 -14q8 4 4 25q0 15 -9 24q-16 11 -92 -10q-2 -2 -8 -2q0 -15 -2 -21q2 -2 4 -2zM467 987q-31 -36 -10 -84q15 -31 52 -61.5t96 -57.5t150 -41.5t197 -9.5
q-36 134 -135 211q-10 0 -16 2q-31 9 -45 37h-2l-21 4q-68 8 -100 29q-8 2 -25 2q-71 0 -141 -31zM414 883q-15 30 -15 61q-110 -89 -137 -229q60 -1 126 21.5t106 54.5q-58 43 -80 92zM915 651q18 24 29 33h-49q-215 0 -358 80q-42 -41 -113.5 -68t-140.5 -30l16 -15
q34 19 117 19q99 0 145 -21q47 -23 94 0q43 21 146 21q84 0 114 -19zM254 633q0 -158 104 -271.5t250 -113.5q148 0 252.5 113t104.5 272q0 6 -1 17.5t-1 17.5q-15 -12 -33 -37v-2q6 -57 -14.5 -102.5t-65.5 -51.5q-32 -4 -66 -4q-73 0 -96 14q-44 24 -57 93q-2 4 -2 10
q-6 20 -23 20q-11 0 -18 -20q-2 -2 -2 -10q-5 -27 -20.5 -54t-39.5 -39q-23 -14 -96 -14q-35 0 -63 4q-45 6 -66.5 52t-15.5 102v2l-31 28v-26zM516 506q35 21 45 76q6 28 -4 41l-4 4h-2q-36 20 -135 20q-36 0 -62.5 -4.5t-35.5 -8.5t-9 -7q-2 -26 1.5 -52t18.5 -49t40 -26

<glyph glyph-name="f_f" unicode="ff" horiz-adv-x="1562" 
d="M166 0v774h-152v268h152v117q0 58 12.5 112t43.5 107t78.5 91.5t123 62.5t170.5 24h199v-303h-64q-82 0 -119 -39t-37 -122v-50h330v117q0 58 12.5 112t43.5 107t78.5 91.5t123 62.5t170.5 24h199v-303h-64q-82 0 -118.5 -39t-36.5 -122v-50h217v-268h-217v-774h-408v774
h-330v-774h-407z" />
    <glyph glyph-name="f_f_i" unicode="ffi" horiz-adv-x="2166" 
d="M166 0v774h-152v268h152v117q0 58 12.5 112t43.5 107t78.5 91.5t123 62.5t170.5 24h199v-303h-64q-82 0 -119 -39t-37 -122v-50h330v117q0 58 12.5 112t43.5 107t78.5 91.5t123 62.5t170.5 24h199v-303h-64q-82 0 -118.5 -39t-36.5 -122v-50h200v-268h-200v-774h-408v774
h-330v-774h-407zM1649 1264v288h409v-288h-409zM1649 0v1126h409v-1126h-409z" />
    <glyph glyph-name="f_f_l" unicode="ffl" horiz-adv-x="2164" 
d="M166 0v774h-152v268h152v117q0 58 12.5 112t43.5 107t78.5 91.5t123 62.5t170.5 24h199v-303h-64q-82 0 -119 -39t-37 -122v-50h330v117q0 58 12.5 112t43.5 107t78.5 91.5t123 62.5t170.5 24h199v-303h-64q-82 0 -118.5 -39t-36.5 -122v-50h209v-268h-209v-774h-408v774
h-330v-774h-407zM1649 0v1552h407v-1552h-407z" />
    <glyph glyph-name=".notdef" horiz-adv-x="1261" 
d="M1026 1067q28 -19 31 -61q3 -43 -23 -66q-20 -14 -49 -14q-31 0 -94 18q123 -129 123 -311q0 -178 -119.5 -305t-286.5 -127q-166 0 -284.5 127t-118.5 305q0 93 34 175.5t95 141.5q-44 63 -17 131q26 64 108.5 106t182.5 42q102 0 187 -44t114 -112l2 -4q79 24 115 -2z
M608 1180q-85 0 -155.5 -33.5t-90.5 -83.5q-16 -37 9 -80q105 81 229 84q0 25 6 41q17 42 51 51q28 7 58 -11.5t71 -55.5l5 -5q18 7 30 7q7 0 19 -4q-36 41 -101 65.5t-131 24.5zM653 1090q-7 -18 -2 -25q11 -19 88 -29q2 -2 6 -2q3 3 3 6l6 15q-66 61 -86 57q-9 -5 -15 -22
zM823 991q23 0 27 19q4 11 -2 20t-19 12q-2 2 -8 2q-20 0 -26 -18q-2 -6 2 -18q8 -13 18 -15zM901 993q89 -26 103 -14q8 4 4 25q0 15 -9 24q-16 11 -92 -10q-2 -2 -8 -2q0 -15 -2 -21q2 -2 4 -2zM467 987q-31 -36 -10 -84q15 -31 52 -61.5t96 -57.5t150 -41.5t197 -9.5
q-36 134 -135 211q-10 0 -16 2q-31 9 -45 37h-2l-21 4q-68 8 -100 29q-8 2 -25 2q-71 0 -141 -31zM414 883q-15 30 -15 61q-110 -89 -137 -229q60 -1 126 21.5t106 54.5q-58 43 -80 92zM915 651q18 24 29 33h-49q-215 0 -358 80q-42 -41 -113.5 -68t-140.5 -30l16 -15
q34 19 117 19q99 0 145 -21q47 -23 94 0q43 21 146 21q84 0 114 -19zM254 633q0 -158 104 -271.5t250 -113.5q148 0 252.5 113t104.5 272q0 6 -1 17.5t-1 17.5q-15 -12 -33 -37v-2q6 -57 -14.5 -102.5t-65.5 -51.5q-32 -4 -66 -4q-73 0 -96 14q-44 24 -57 93q-2 4 -2 10
q-6 20 -23 20q-11 0 -18 -20q-2 -2 -2 -10q-5 -27 -20.5 -54t-39.5 -39q-23 -14 -96 -14q-35 0 -63 4q-45 6 -66.5 52t-15.5 102v2l-31 28v-26zM516 506q35 21 45 76q6 28 -4 41l-4 4h-2q-36 20 -135 20q-36 0 -62.5 -4.5t-35.5 -8.5t-9 -7q-2 -26 1.5 -52t18.5 -49t40 -26
q32 -4 61 -4q66 0 86 10zM784 496q32 0 64 4q34 4 48.5 44.5t10.5 82.5q-2 3 -10 7t-34 8.5t-62 4.5q-99 0 -135 -20q-2 0 -2 -2l-5 -2q-10 -13 -4 -41q3 -24 16 -45.5t29 -30.5q20 -10 84 -10zM463 602q22 -13 22 -43q0 -20 -14.5 -34.5t-34.5 -14.5t-34.5 14.5t-14.5 34.5
q0 10 2 16l-22 19q-7 3 0 10q3 3 10 0l18 -16l6 8l-12 22q-2 1 -1.5 5.5t3.5 5.5q6 3 10 -4l13 -21l8 4l-4 25q0 8 8 8q5 0 8 -6l2 -25q2 0 6.5 -1t6.5 -1l6 27q3 6 10 6q7 -4 4 -10zM848 604q2 2 5 2t5 -2q4 -7 -2 -10l-20 -21q0 -2 1 -6.5t1 -7.5q0 -20 -15 -34.5
t-37 -14.5q-20 0 -34.5 14.5t-14.5 34.5q0 29 25 43l-8 29q0 7 6 10q8 0 8 -6l6 -27q4 2 12 2l5 25q0 6 8 6q6 0 6 -8l-4 -25l10 -4l12 21q4 8 8 4q3 -1 5 -5t0 -6l-15 -22q6 -3 6 -8zM606 293q46 0 78.5 22t32.5 54q0 31 -32.5 52t-78.5 21t-78 -21t-32 -52q0 -32 32 -54
t78 -22z" />
    <glyph glyph-name=".null" 
 />
    <glyph glyph-name="nonmarkingreturn" horiz-adv-x="682" 
 />
    <glyph glyph-name="space" unicode=" " horiz-adv-x="399" 
 />
    <glyph glyph-name="exclam" unicode="!" horiz-adv-x="626" 
d="M141 408l-32 1077h409l-33 -1077h-344zM109 0v326h409v-326h-409z" />
    <glyph glyph-name="quotedbl" unicode="&#x22;" horiz-adv-x="1030" 
d="M111 950l-60 592h430l-59 -592h-311zM608 950l-59 592h428l-57 -592h-312z" />
    <glyph glyph-name="numbersign" unicode="#" horiz-adv-x="1675" 
d="M276 0l64 326h-172v290h231l47 242h-182v291h242l57 289h311l-57 -289h180l58 289h311l-57 -289h186v-291h-246l-47 -242h197v-290h-256l-64 -326h-311l63 326h-180l-63 -326h-312zM711 616h180l47 242h-180z" />
    <glyph glyph-name="dollar" unicode="$" horiz-adv-x="1204" 
d="M465 -66v154q-399 55 -399 467h344q0 -192 208 -195q72 0 118 27.5t46 87.5q0 36 -30.5 62t-80.5 40t-114 31t-130.5 32.5t-130 46t-113 70.5t-79 107.5t-28.5 155.5q2 168 98 272t291 131v131h262v-131q207 -26 300 -138.5t93 -317.5h-342q0 177 -182 180
q-164 0 -164 -117q0 -33 24.5 -56.5t65.5 -38t94 -27t111.5 -26.5t117.5 -32t112 -48t94 -70t65.5 -102t24.5 -141q0 -360 -414 -403v-152h-262z" />
    <glyph glyph-name="percent" unicode="%" horiz-adv-x="1939" 
d="M821 1094q0 -193 -88 -287t-297 -94q-208 0 -297.5 94.5t-89.5 286.5q0 194 89.5 290.5t297.5 96.5q209 0 297 -96t88 -291zM309 0l942 1438h377l-942 -1438h-377zM309 1094q0 -91 30 -133.5t97 -42.5q68 0 95.5 41.5t27.5 134.5q0 95 -28 139.5t-95 44.5t-97 -45
t-30 -139zM1880 334q0 -191 -88 -285t-297 -94q-208 0 -297.5 94.5t-89.5 284.5q0 195 89.5 292t297.5 97q209 0 297 -96.5t88 -292.5zM1368 334q0 -91 30 -132.5t97 -41.5q68 0 96.5 41t28.5 133q0 95 -29 139.5t-96 44.5t-97 -44.5t-30 -139.5z" />
    <glyph glyph-name="ampersand" unicode="&#x26;" horiz-adv-x="1550" 
d="M780 1528q512 0 512 -477h-374q0 90 -31.5 137t-106.5 47t-107 -39.5t-32 -95.5q0 -32 8.5 -63t29.5 -65t40.5 -61.5t57.5 -67.5t64 -66.5t76.5 -75.5t79.5 -78l64 -66q35 125 35 295h340q0 -313 -131 -537l223 -213v-118h-359q-41 39 -94 92q-189 -119 -448 -119
q-262 0 -395.5 121.5t-133.5 355.5q0 69 16.5 130.5t42 105.5t60.5 82t67.5 61.5t67.5 42.5q-86 140 -86 277q0 196 131.5 295.5t382.5 99.5zM541 623q-84 -77 -84 -187q0 -203 254 -203q93 0 163 43q-48 48 -219 228z" />
    <glyph glyph-name="quotesingle" unicode="'" horiz-adv-x="534" 
d="M111 950l-60 592h430l-59 -592h-311z" />
    <glyph glyph-name="parenleft" unicode="(" horiz-adv-x="833" 
d="M147 578q0 169 22 331.5t53.5 274.5t62.5 199.5t53 130.5l22 42h375q-9 -16 -23 -46.5t-51 -130.5t-65 -207t-51 -269.5t-23 -324.5t23.5 -322.5t57.5 -273.5t68 -202.5t57 -133.5l24 -45h-375q-9 15 -24.5 44t-55.5 126t-70 203t-55 270.5t-25 333.5z" />
    <glyph glyph-name="parenright" unicode=")" horiz-adv-x="833" 
d="M473 1556q9 -15 23 -44t51 -126.5t65 -203.5t51 -270.5t23 -333.5t-23.5 -331.5t-57 -274t-67.5 -199.5t-58 -130l-23 -42h-375q9 16 24.5 46.5t55 130t69.5 206.5t55 269.5t25 324.5t-22 322.5t-53.5 273.5t-62.5 203t-53 135l-22 44h375z" />
    <glyph glyph-name="asterisk" unicode="*" horiz-adv-x="1032" 
d="M127 1120l76 244l205 -92l-13 217h242l-12 -217l204 92l78 -244l-229 -47l174 -170l-215 -162l-119 193l-123 -193l-215 162l176 170z" />
    <glyph glyph-name="plus" unicode="+" horiz-adv-x="1054" 
d="M66 797h323v340h277v-340h325v-242h-325v-342h-277v342h-323v242z" />
    <glyph glyph-name="comma" unicode="," horiz-adv-x="663" 
d="M57 -299q51 137 88 340q17 96 26 167.5t9 94.5v23h365q-9 -109 -68 -318q-31 -105 -67 -181.5t-56 -100.5l-20 -25h-277z" />
    <glyph glyph-name="hyphen" unicode="-" horiz-adv-x="880" 
d="M164 492v309h553v-309h-553z" />
    <glyph glyph-name="period" unicode="." horiz-adv-x="673" 
d="M131 0v326h412v-326h-412z" />
    <glyph glyph-name="slash" unicode="/" horiz-adv-x="1099" 
d="M55 -82l635 1720h361l-635 -1720h-361z" />
    <glyph glyph-name="zero" unicode="0" horiz-adv-x="1374" 
d="M1300 731q0 -176 -25.5 -306t-74 -216t-125 -138.5t-170.5 -74t-219 -21.5t-218.5 21.5t-170.5 74t-125 138.5t-74 216t-26 306q0 219 38.5 367.5t119 234t190 121t266.5 35.5q125 0 219 -22t170.5 -74.5t125 -139t74 -216.5t25.5 -306zM492 731q0 -129 12.5 -212.5
t39.5 -126t60 -58t82 -15.5q40 0 68 9t54 35t41.5 71t24.5 119t9 178t-9 178t-24.5 119t-41.5 71t-54 35t-68 9q-49 0 -82 -15.5t-60 -58t-39.5 -126t-12.5 -212.5z" />
    <glyph glyph-name="one" unicode="1" horiz-adv-x="808" 
d="M260 0v1065l-235 -47v287l403 159h234v-1464h-402z" />
    <glyph glyph-name="two" unicode="2" horiz-adv-x="1284" 
d="M61 2v326q177 102 345 225q173 125 227 172q142 134 147 244q0 67 -35.5 113t-113.5 46q-85 0 -125.5 -65t-40.5 -156h-412q0 132 28 233.5t92 181.5t177 122.5t273 42.5q577 0 577 -481q0 -81 -28 -159t-60.5 -131.5t-102.5 -124.5t-106.5 -101.5t-121.5 -98.5
q-18 -15 -27 -22q-3 -3 -21 -15l453 19v-371h-1125z" />
    <glyph glyph-name="three" unicode="3" horiz-adv-x="1282" 
d="M877 891q176 -48 248.5 -154.5t72.5 -283.5q0 -76 -16 -142.5t-57 -131t-105.5 -110.5t-168.5 -74t-239 -28q-581 0 -581 525h413q0 -75 38 -128t120 -53q85 0 122.5 48.5t37.5 127.5q0 103 -52 157t-190 54q-44 0 -82.5 -5t-54.5 -10l-16 -5v231l319 211l-606 -26v354
h1098v-305z" />
    <glyph glyph-name="four" unicode="4" horiz-adv-x="1388" 
d="M791 0v221h-756v307l553 922h604v-922h156v-307h-156v-221h-401zM791 528v617l-332 -617h332z" />
    <glyph glyph-name="five" unicode="5" horiz-adv-x="1310" 
d="M567 1130l-39 -251q104 71 273 71q103 0 183.5 -28t130 -73.5t81.5 -109.5t44.5 -130t12.5 -140q0 -81 -16 -150.5t-58 -135.5t-107 -112.5t-169.5 -75t-240.5 -28.5q-99 0 -182.5 14.5t-144.5 39.5t-109 60.5t-78.5 75t-50.5 85.5t-28 90.5t-8 91.5h437q0 -15 8.5 -35.5
t26 -43t51.5 -37.5t78 -15q165 0 165 176q0 91 -37.5 148t-117.5 57q-36 0 -68 -9t-52.5 -21t-36.5 -26.5t-23 -23t-9 -12.5l-391 4l119 860h958v-334z" />
    <glyph glyph-name="six" unicode="6" horiz-adv-x="1378" 
d="M1307 465q0 -79 -16.5 -147.5t-59.5 -134t-110 -112t-175 -75t-248 -29.5q-176 -1 -296.5 41t-192 131t-102.5 213t-31 301q0 239 32 396.5t107.5 257t191 141t291.5 41.5q128 0 229 -27t164 -70.5t104.5 -103.5t58 -121.5t16.5 -128.5h-412q0 55 -36 98.5t-115 43.5
q-61 0 -98.5 -25.5t-64 -96.5t-38.5 -198q123 72 295 72q136 0 236.5 -37t158 -103t84.5 -147t27 -180zM700 674q-120 0 -202 -94q8 -157 54.5 -229t145.5 -72q90 0 131 56.5t41 147.5q0 94 -43.5 142.5t-126.5 48.5z" />
    <glyph glyph-name="seven" unicode="7" horiz-adv-x="1124" 
d="M252 0q0 121 23.5 248.5t61.5 234.5t83.5 207.5t91 177.5t83.5 135t61 89l24 30l-670 -18v344h1096v-344q-9 -12 -24 -34t-59 -92.5t-84.5 -143.5t-89 -179t-84 -207.5t-59.5 -221t-24 -226.5h-430z" />
    <glyph glyph-name="eight" unicode="8" horiz-adv-x="1370" 
d="M684 -25q-177 0 -300 30t-192.5 89.5t-99 137.5t-29.5 186q0 72 20.5 135t51 103.5t66 71t64.5 44.5t48 16q-13 2 -35 12.5t-52 34t-55 55t-42.5 81.5t-17.5 108q0 75 16.5 135t57 112.5t105 87.5t164 55t230.5 20t230.5 -20t164 -55t105 -87.5t57 -112.5t16.5 -135
q0 -58 -17.5 -108t-43 -81.5t-55 -55t-52 -34t-36.5 -12.5q19 -2 48 -16t65 -44.5t66.5 -71t51.5 -103.5t21 -135q0 -108 -29.5 -186t-98.5 -137.5t-192 -89.5t-301 -30zM684 1227q-83 0 -119.5 -46.5t-36.5 -140.5q0 -75 37.5 -119t118.5 -44t119.5 44t38.5 119
q0 93 -37.5 140t-120.5 47zM684 670q-89 0 -128.5 -55.5t-39.5 -145.5q0 -197 168 -197q170 0 170 197q0 90 -40.5 145.5t-129.5 55.5z" />
    <glyph glyph-name="nine" unicode="9" horiz-adv-x="1380" 
d="M1305 795q0 -193 -19.5 -328.5t-63 -234t-118.5 -155.5t-178.5 -83.5t-251.5 -26.5q-139 0 -246.5 27t-172.5 70t-106.5 103.5t-57 120.5t-15.5 128h411q0 -53 44.5 -96.5t142.5 -43.5q58 0 94 23t62.5 89t39.5 185q-117 -75 -276 -75q-124 0 -216.5 24t-150 65
t-92.5 105t-48 134.5t-13 162.5q0 79 17.5 147.5t61 134.5t110.5 113t174.5 75.5t244.5 29.5q176 0 296.5 -42t192.5 -131t103 -214.5t31 -306.5zM678 756q121 0 203 102q-6 168 -53 244t-146 76q-87 0 -129.5 -59t-42.5 -146q0 -217 168 -217z" />
    <glyph glyph-name="colon" unicode=":" horiz-adv-x="688" 
d="M139 788v326h410v-326h-410zM139 31v344h410v-344h-410z" />
    <glyph glyph-name="semicolon" unicode=";" horiz-adv-x="690" 
d="M137 758v325h412v-325h-412zM41 -299q51 137 88 340q17 96 26 167.5t9 94.5v23h362q-6 -109 -67 -318q-30 -105 -66 -181.5t-57 -100.5l-21 -25h-274z" />
    <glyph glyph-name="less" unicode="&#x3c;" horiz-adv-x="1130" 
d="M1001 264l-911 268v314l911 268v-293l-641 -131l641 -133v-293z" />
    <glyph glyph-name="equal" unicode="=" horiz-adv-x="1179" 
d="M106 711v241h969v-241h-969zM106 328v241h969v-241h-969z" />
    <glyph glyph-name="greater" unicode="&#x3e;" horiz-adv-x="1130" 
d="M131 264v293l639 133l-639 131v293l911 -268v-314z" />
    <glyph glyph-name="question" unicode="?" horiz-adv-x="1273" 
d="M821 375h-409v43q0 73 18.5 134t48.5 102.5t66 77.5t72 68t66 64.5t48.5 75t18.5 92.5q0 70 -32.5 113t-101.5 43q-75 0 -111 -54t-36 -169h-393q0 104 15.5 187.5t53.5 156.5t97.5 121.5t152 76t213.5 27.5q156 0 270 -36t179.5 -101t96 -147.5t30.5 -184.5
q0 -74 -18.5 -134t-48 -102t-65.5 -78t-73.5 -70t-69.5 -69.5t-55 -85t-29 -108.5zM412 0v299h409v-299h-409z" />
    <glyph glyph-name="at" unicode="@" horiz-adv-x="1816" 
d="M1522 584q0 333 -146.5 496t-478.5 163q-313 0 -457.5 -169.5t-144.5 -489.5q0 -676 604 -676q115 0 231 16.5t181 48.5v-213q-153 -57 -414 -57q-177 0 -317 42.5t-235.5 119t-158 187.5t-90.5 242.5t-28 289.5q0 147 29.5 274.5t93.5 237t159.5 187t235 121.5t311.5 44
q181 0 324 -42t241.5 -117.5t163 -184t94 -237.5t29.5 -283q0 -278 -85 -407.5t-294 -129.5q-204 0 -285 135q-95 -92 -272 -92q-184 0 -270 121.5t-86 355.5q0 480 356 480q130 0 236 -86l18 79h242v-626q0 -85 30 -131.5t82 -46.5q36 0 56 23t32.5 100.5t12.5 224.5z
M879 326q111 0 153 67v342q-54 74 -153 74q-69 0 -105.5 -63t-36.5 -179q0 -117 36.5 -179t105.5 -62z" />
    <glyph glyph-name="A" unicode="A" horiz-adv-x="1505" 
d="M6 0l496 1485h502l495 -1485h-452l-62 219h-475l-61 -219h-443zM594 524h307l-153 551z" />
    <glyph glyph-name="B" unicode="B" horiz-adv-x="1409" 
d="M238 -2h-119v1489h575q241 0 375.5 -40.5t189 -124t54.5 -230.5q0 -243 -193 -332q127 -44 179.5 -128t52.5 -212q0 -83 -10 -141t-37 -108.5t-73 -81t-120 -53t-175.5 -31.5t-242.5 -9h-456v2zM535 1188v-297h167q115 0 161 31t46 116q0 88 -49 119t-174 31h-151z
M535 621v-326h151q147 0 201.5 32t54.5 126q0 97 -54.5 132.5t-185.5 35.5h-167z" />
    <glyph glyph-name="C" unicode="C" horiz-adv-x="1413" 
d="M1358 610q-1 -185 -42 -312.5t-124 -202t-195 -106.5t-268 -32q-168 0 -287.5 40t-205 130.5t-127 242.5t-41.5 371q0 220 41.5 372.5t127 243.5t205 131t287.5 40q155 0 267 -32t195 -105.5t124 -198.5t41 -305h-410q-4 87 -19.5 144t-44.5 88t-65 43t-88 12
q-48 0 -83 -11t-65 -40t-48.5 -77.5t-28.5 -124.5t-10 -180q0 -130 14.5 -215.5t46.5 -132t72.5 -64.5t101.5 -18q53 0 88.5 12t64.5 44t44.5 92t19.5 151h412z" />
    <glyph glyph-name="D" unicode="D" horiz-adv-x="1468" 
d="M119 1487h493q168 0 291 -18t211 -59.5t143.5 -98t87.5 -145t44 -187.5t12 -238q0 -104 -6.5 -184t-22.5 -154.5t-43.5 -129t-70.5 -102t-102 -78t-138.5 -53t-179.5 -32.5t-226 -10h-493v1489zM543 1133v-787h149q105 0 162.5 30.5t87 116.5t29.5 248q0 161 -29.5 246.5
t-87 115.5t-162.5 30h-149z" />
    <glyph glyph-name="E" unicode="E" horiz-adv-x="1230" 
d="M119 0v1485h1050v-334h-634v-248h532v-303h-532v-266h649v-334h-1065z" />
    <glyph glyph-name="F" unicode="F" horiz-adv-x="1155" 
d="M119 0v1485h1016v-334h-600v-301h497v-315h-497v-535h-416z" />
    <glyph glyph-name="G" unicode="G" horiz-adv-x="1423" 
d="M1339 203q0 -5 -20 -29t-68 -61t-114.5 -71.5t-175.5 -59t-234 -25.5q-168 -1 -287.5 38.5t-204.5 130.5t-126 243t-41 372t41 372.5t126 243.5t204.5 131t287.5 40q319 0 465.5 -141t146.5 -449h-393q-7 128 -62 182t-157 54q-60 0 -100.5 -18.5t-72 -65.5t-46 -133
t-14.5 -216q0 -136 15.5 -225t49 -137t76.5 -66t106 -18q103 0 162.5 32.5t57.5 73.5v127h-207v254h585v-579z" />
    <glyph glyph-name="H" unicode="H" horiz-adv-x="1474" 
d="M119 0v1485h416v-547h405v547h418v-1485h-418v565h-405v-565h-416z" />
    <glyph glyph-name="I" unicode="I" horiz-adv-x="651" 
d="M119 0v1485h416v-1485h-416z" />
    <glyph glyph-name="J" unicode="J" horiz-adv-x="897" 
d="M791 672q0 -103 -3.5 -173.5t-15 -142.5t-31 -118t-53.5 -89.5t-81.5 -68.5t-115 -45t-153.5 -27.5t-199 -7.5h-129v360h129q69 0 111 12.5t71.5 47t40.5 94.5t11 158l2 813h416v-813z" />
    <glyph glyph-name="K" unicode="K" horiz-adv-x="1458" 
d="M119 0v1485h416v-686l452 686h455l-445 -600l455 -885h-446l-265 543l-206 -281v-262h-416z" />
    <glyph glyph-name="L" unicode="L" horiz-adv-x="1077" 
d="M119 0v1485h416v-1118h528v-367h-944z" />
    <glyph glyph-name="M" unicode="M" horiz-adv-x="2027" 
d="M119 0v1485h624l267 -1082l258 1082h643l-2 -1485h-398l37 1108l-325 -1108h-441l-307 1110l39 -1110h-395z" />
    <glyph glyph-name="N" unicode="N" horiz-adv-x="1552" 
d="M485 985l21 -985h-387l2 1485h489l461 -959l-22 959h387v-1485h-492z" />
    <glyph glyph-name="O" unicode="O" horiz-adv-x="1460" 
d="M1393 741q0 -219 -41.5 -371t-127.5 -242.5t-205.5 -130.5t-287.5 -40q-134 0 -236.5 25t-184.5 81t-134.5 147t-80 223t-27.5 308q0 220 41.5 372.5t127.5 243.5t206 131t288 40t287.5 -40t205.5 -131t127.5 -243.5t41.5 -372.5zM494 741q0 -130 15 -215.5t46.5 -132
t73 -64.5t102.5 -18t102 18t72.5 64.5t46.5 132t15 215.5t-15 216t-46.5 133t-73 65.5t-101.5 18.5q-61 0 -102.5 -18.5t-73 -65.5t-46.5 -133t-15 -216z" />
    <glyph glyph-name="P" unicode="P" horiz-adv-x="1431" 
d="M119 0v1487h508q147 0 255 -10.5t194 -36t141.5 -65.5t92.5 -102t52.5 -142t15.5 -189t-15.5 -189t-52.5 -142t-92.5 -102t-141.5 -65.5t-194 -36t-255 -10.5h-92v-397h-416zM535 1159v-426h145q58 0 96 4t73.5 16.5t55.5 35.5t31.5 62t11.5 95t-11.5 94.5t-31.5 61.5
t-55.5 36t-73.5 17t-96 4h-145z" />
    <glyph glyph-name="Q" unicode="Q" horiz-adv-x="1460" 
d="M1393 741q0 -458 -197 -643l193 -176l-259 -217l-239 262q-82 -10 -160 -10q-134 0 -236.5 25t-184.5 81t-134.5 147t-80 223t-27.5 308q0 220 41.5 372.5t127.5 243.5t206 131t288 40t287.5 -40t205.5 -131t127.5 -243.5t41.5 -372.5zM494 741q0 -130 15 -215.5
t46.5 -132t73 -64.5t102.5 -18t102 18t72.5 64.5t46.5 132t15 215.5t-15 216t-46.5 133t-73 65.5t-101.5 18.5q-61 0 -102.5 -18.5t-73 -65.5t-46.5 -133t-15 -216z" />
    <glyph glyph-name="R" unicode="R" horiz-adv-x="1460" 
d="M119 0v1487h624q147 0 250 -15.5t183 -51.5t126.5 -98.5t69.5 -153.5t23 -220q0 -190 -49.5 -298.5t-161.5 -162.5l211 -487h-447l-153 420h-260v-420h-416zM535 1151v-397h161q76 0 121 6.5t81.5 26.5t51.5 59t15 104q0 53 -11 89t-30 58.5t-54.5 34t-74.5 15.5t-99 4
h-161z" />
    <glyph glyph-name="S" unicode="S" horiz-adv-x="1382" 
d="M1319 436q0 -479 -631 -479q-622 0 -622 553h403q0 -114 63 -168.5t177 -54.5q82 -2 136 30t54 101q0 37 -28.5 64t-76 44.5t-109.5 32.5t-130.5 32t-136.5 38.5t-129.5 56.5t-109 82t-75 119.5t-26.5 163.5q3 228 152.5 353.5t453.5 125.5q323 -1 465.5 -134t142.5 -409
h-399q0 207 -207 207q-192 3 -192 -133q0 -37 28 -64.5t76 -44.5t110 -31t130.5 -30.5t136.5 -37t130 -55t110 -81t76 -118.5t28 -163z" />
    <glyph glyph-name="T" unicode="T" horiz-adv-x="1224" 
d="M401 0l2 1118h-391v367h1200v-367h-391l-2 -1118h-418z" />
    <glyph glyph-name="U" unicode="U" horiz-adv-x="1421" 
d="M1315 694q0 -115 -6 -200.5t-22.5 -166.5t-45.5 -136.5t-74 -102.5t-109 -74t-150 -42t-197 -15q-110 0 -196 15t-150 42.5t-109.5 74t-75 102.5t-46.5 136t-23.5 166t-6.5 201v791h416v-756q0 -167 19.5 -253.5t58 -117t111.5 -30.5q74 0 112 31t56 116.5t18 253.5v756
h420v-791z" />
    <glyph glyph-name="V" unicode="V" horiz-adv-x="1429" 
d="M2 1485h469l246 -1092l252 1092h458l-440 -1485h-545z" />
    <glyph glyph-name="W" unicode="W" horiz-adv-x="2246" 
d="M1122 1030l-184 -1030h-541l-368 1485h481l176 -1086l191 1086h514l176 -1086l207 1086h444l-391 -1485h-537z" />
    <glyph glyph-name="X" unicode="X" horiz-adv-x="1404" 
d="M690 453l-227 -453h-457l426 725l-424 760h455l239 -481l240 481h455l-443 -737l410 -748h-455z" />
    <glyph glyph-name="Y" unicode="Y" horiz-adv-x="1372" 
d="M475 0v395l-469 1090h461l211 -719l201 719h487l-479 -1086v-399h-412z" />
    <glyph glyph-name="Z" unicode="Z" horiz-adv-x="1245" 
d="M39 2v350l623 781h-596v350h1124v-350l-633 -781h641v-350h-1159z" />
    <glyph glyph-name="bracketleft" unicode="[" horiz-adv-x="983" 
d="M205 -408v1964h717v-309h-359v-1345h359v-310h-717z" />
    <glyph glyph-name="backslash" unicode="\" horiz-adv-x="1105" 
d="M1051 -82h-361l-635 1720h361z" />
    <glyph glyph-name="bracketright" unicode="]" horiz-adv-x="983" 
d="M778 -408h-717v310h359v1345h-359v309h717v-1964z" />
    <glyph glyph-name="asciicircum" unicode="^" horiz-adv-x="1003" 
d="M915 930h-280l-125 334l-125 -334h-279l273 616h264z" />
    <glyph glyph-name="underscore" unicode="_" horiz-adv-x="1230" 
d="M168 0v293h897v-293h-897z" />
    <glyph glyph-name="grave" unicode="`" horiz-adv-x="1083" 
d="M717 1266h-359l-249 368h409z" />
    <glyph glyph-name="a" unicode="a" horiz-adv-x="1306" 
d="M842 0l-25 66q-136 -103 -323 -103q-209 0 -317.5 87t-108.5 274q0 364 452 364q132 0 264 -12v45q0 96 -31 135t-118 39q-154 0 -154 -135h-358q0 33 3.5 63.5t16 71t33 74.5t58 69t87 59t124.5 39t167 15q115 0 203.5 -15t149.5 -39t104 -67t67 -86.5t37.5 -111.5
t17 -127.5t3.5 -147.5v-242l23 -315h-375zM623 229q89 0 161 60v188q-55 6 -131 6q-170 0 -170 -135q0 -57 35.5 -88t104.5 -31z" />
    <glyph glyph-name="b" unicode="b" horiz-adv-x="1325" 
d="M92 0l21 332v1220h407v-501q119 102 293 102q229 0 336.5 -147.5t107.5 -446.5t-107 -442.5t-337 -143.5q-223 0 -342 148l-31 -121h-348zM680 846q-92 0 -160 -76v-412q68 -82 162 -82q81 0 121.5 67.5t40.5 215.5q0 150 -40.5 218.5t-123.5 68.5z" />
    <glyph glyph-name="c" unicode="c" horiz-adv-x="1261" 
d="M1208 438q-8 -116 -38 -199t-92.5 -147.5t-169 -96.5t-259.5 -32q-158 0 -270 38.5t-180.5 116t-99.5 186t-31 257.5q0 302 135.5 451t445.5 149q153 0 260 -33.5t170 -100t93 -154.5t36 -209h-403q-4 105 -42.5 149.5t-113.5 44.5q-89 0 -126.5 -66t-37.5 -231
t37.5 -229t126.5 -64q72 0 111 39.5t45 130.5h403z" />
    <glyph glyph-name="d" unicode="d" horiz-adv-x="1320" 
d="M885 0l-33 119q-117 -146 -340 -146q-231 0 -337.5 143.5t-106.5 442.5t107 446.5t337 147.5q170 0 291 -100v499h407v-1220l21 -332h-346zM641 276q89 0 162 80v414q-69 76 -158 76q-83 0 -123.5 -68.5t-40.5 -218.5q0 -148 40 -215.5t120 -67.5z" />
    <glyph glyph-name="e" unicode="e" horiz-adv-x="1286" 
d="M1219 371q-31 -408 -566 -408q-311 0 -448 149t-137 449q0 301 137 450.5t448 149.5q309 0 438.5 -158t129.5 -520h-734q7 -137 45 -191t119 -54q82 0 122.5 37.5t43.5 95.5h402zM651 913q-76 0 -113 -46t-49 -165h318q-14 123 -50.5 167t-105.5 44z" />
    <glyph glyph-name="f" unicode="f" horiz-adv-x="829" 
d="M793 1569v-316h-64q-82 0 -119 -39t-37 -122v-50h224v-270h-224v-772h-407v772h-152v270h152v117q0 61 12.5 117t43.5 111t78.5 95t123 64.5t170.5 24.5z" />
    <glyph glyph-name="g" unicode="g" horiz-adv-x="1320" 
d="M1210 -6v-21q0 -54 -1 -84.5t-11.5 -86.5t-30.5 -90.5t-61.5 -78t-100 -68t-150.5 -42t-210 -17.5q-92 0 -169 13.5t-130 36.5t-94.5 52.5t-66 62.5t-41.5 66t-23.5 62.5t-9.5 52.5t-3 36l1 14h409q0 -19 0.5 -29t7.5 -33.5t20 -36.5t41.5 -24.5t69.5 -11.5q30 0 53 5
t38.5 12.5t26 24.5t16 31t8.5 42t3.5 49t0.5 59v80q-108 -97 -291 -97q-231 0 -337.5 143.5t-106.5 442.5t107 446.5t337 147.5q67 0 126 -15.5t101 -41t67.5 -47t45.5 -43.5l33 120h346l-21 -331v-801zM641 276q89 0 162 80v414q-69 76 -158 76q-83 0 -123.5 -68.5
t-40.5 -218.5q0 -148 40 -215.5t120 -67.5z" />
    <glyph glyph-name="h" unicode="h" horiz-adv-x="1341" 
d="M109 0v1552h409v-546q152 137 340 137q211 0 295 -119.5t84 -392.5l-2 -631h-408v623q0 163 -127 163q-111 0 -182 -122v-664h-409z" />
    <glyph glyph-name="i" unicode="i" horiz-adv-x="624" 
d="M106 1264v321h410v-321h-410zM106 0v1126h410v-1126h-410z" />
    <glyph glyph-name="j" unicode="j" horiz-adv-x="634" 
d="M117 1264v321h409v-321h-409zM526 186q0 -75 -1 -117.5t-7 -108t-17.5 -103.5t-33.5 -89t-54.5 -80.5t-81 -62.5t-111.5 -50t-148 -28.5t-189 -11.5v350q50 0 87 7t63 15.5t42 32t25 40.5t13.5 57t5 66t0.5 83v940h407v-940z" />
    <glyph glyph-name="k" unicode="k" horiz-adv-x="1232" 
d="M109 0v1552h395v-850l284 424h431l-353 -440l377 -686h-455l-170 377l-114 -146v-231h-395z" />
    <glyph glyph-name="l" unicode="l" horiz-adv-x="626" 
d="M109 0l2 1552h407l-2 -1552h-407z" />
    <glyph glyph-name="m" unicode="m" horiz-adv-x="1970" 
d="M113 0v817l-21 309h348l35 -137q50 58 135 106t201 48q232 0 315 -170q20 24 49 49t74.5 54.5t108.5 48t131 18.5q201 0 289 -121.5t88 -390.5l-2 -631h-389v623q0 79 -28.5 121t-94.5 42q-97 0 -168 -98q2 -18 2 -57l-2 -631h-373v623q0 80 -27.5 121.5t-93.5 41.5
q-94 0 -168 -102v-684h-409z" />
    <glyph glyph-name="n" unicode="n" horiz-adv-x="1337" 
d="M113 0v817l-21 309h348l41 -155q20 23 49 47.5t76.5 55t113.5 50t136 19.5q212 0 294.5 -124.5t82.5 -422.5v-596h-408v588q0 104 -29 151t-98 47q-60 0 -105 -34t-71 -78v-674h-409z" />
    <glyph glyph-name="o" unicode="o" horiz-adv-x="1308" 
d="M1241 561q0 -300 -137 -449t-449 -149q-160 0 -273 38.5t-182 116t-100.5 186t-31.5 257.5q0 302 137 451.5t450 150.5q312 0 449 -150t137 -452zM485 561q0 -163 38 -227t132 -64q93 0 130.5 64t37.5 227q0 165 -37.5 230t-130.5 65q-94 0 -132 -65t-38 -230z" />
    <glyph glyph-name="p" unicode="p" horiz-adv-x="1325" 
d="M113 -492v1287l-21 331h348l31 -120q19 22 43.5 42.5t66.5 47t102.5 42t129.5 15.5q229 0 336.5 -147.5t107.5 -446.5t-107 -442.5t-337 -143.5q-178 0 -293 99v-564h-407zM680 846q-92 0 -160 -76v-412q68 -82 162 -82q81 0 121.5 67.5t40.5 215.5q0 150 -40.5 218.5
t-123.5 68.5z" />
    <glyph glyph-name="q" unicode="q" horiz-adv-x="1320" 
d="M803 -492v562q-108 -97 -291 -97q-231 0 -337.5 143.5t-106.5 442.5t107 446.5t337 147.5q66 0 125 -15.5t100.5 -40.5t67.5 -46.5t45 -44.5l35 120h346l-21 -321v-1297h-407zM641 276q89 0 162 80v414q-69 76 -158 76q-83 0 -123.5 -68.5t-40.5 -218.5q0 -148 40 -215.5
t120 -67.5z" />
    <glyph glyph-name="r" unicode="r" horiz-adv-x="911" 
d="M113 0v786l-21 340h350l43 -196q11 30 27.5 57.5t49 60t74 56t106 39.5t141.5 16v-356q-78 0 -141 -21t-100 -49.5t-64.5 -67.5t-38.5 -65t-17 -51v-549h-409z" />
    <glyph glyph-name="s" unicode="s" horiz-adv-x="1239" 
d="M1190 334q0 -89 -30 -155.5t-96 -116t-177.5 -74.5t-268.5 -25q-285 0 -427 111t-140 321h385q0 -84 47 -126t131 -42q168 -3 168 97q0 33 -24 55t-65 34t-94.5 20.5t-113 18t-118.5 22.5t-113 38t-95.5 60t-66.5 93t-26 134q-2 178 131.5 271t418.5 93
q284 -1 414.5 -99.5t130.5 -303.5h-379q0 76 -37.5 111.5t-119.5 35.5q-86 0 -123 -27.5t-37 -70.5q0 -33 31 -54.5t82 -31t116.5 -20.5t133 -21.5t133 -36t116.5 -61.5t82 -100t31 -150z" />
    <glyph glyph-name="t" unicode="t" horiz-adv-x="835" 
d="M797 0h-111q-90 0 -161.5 9t-124.5 29t-92.5 45t-65.5 63.5t-42.5 77.5t-25 95t-11.5 106.5t-3 121.5v309h-150v270h150v297l407 62v-359h224v-270h-224v-293q0 -127 34.5 -178t117.5 -51h78v-334z" />
    <glyph glyph-name="u" unicode="u" horiz-adv-x="1318" 
d="M879 0l-43 162q-23 -27 -52 -52.5t-76 -57t-110 -51t-131 -19.5q-211 0 -295 119.5t-82 392.5v630h410v-622q0 -80 29 -122t96 -42q100 0 172 119v669h409v-813l23 -313h-350z" />
    <glyph glyph-name="v" unicode="v" horiz-adv-x="1273" 
d="M12 1126h457l174 -845l166 845h453l-388 -1126h-464z" />
    <glyph glyph-name="w" unicode="w" horiz-adv-x="1888" 
d="M936 727l-123 -727h-489l-320 1126h426l148 -829l141 829h442l154 -833l145 833h424l-313 -1126h-500z" />
    <glyph glyph-name="x" unicode="x" horiz-adv-x="1329" 
d="M647 281l-160 -281h-450l383 565l-400 561h478l184 -315l178 315h451l-396 -598l371 -528h-477z" />
    <glyph glyph-name="y" unicode="y" horiz-adv-x="1277" 
d="M420 -483l129 483h-156l-381 1126h447l182 -780l209 780h416l-482 -1609h-364z" />
    <glyph glyph-name="z" unicode="z" horiz-adv-x="1083" 
d="M1022 827l-481 -524l483 2v-303h-973v301l486 524h-465v297h952v-297h-2z" />
    <glyph glyph-name="braceleft" unicode="{" horiz-adv-x="1013" 
d="M311 1124q0 76 4.5 130.5t19 101t34 76.5t58 54t81 36.5t113.5 20.5t145.5 10.5t185.5 2.5v-290q-81 0 -124.5 -8.5t-75 -38.5t-42 -83.5t-10.5 -146.5v-188q0 -46 -16 -86.5t-36.5 -65t-46.5 -44.5t-40.5 -27t-23.5 -11l2 -1q14 -6 26.5 -12.5t40 -27t46.5 -44
t34.5 -63.5t15.5 -85v-205q0 -86 10 -135.5t41 -77.5t75 -36.5t124 -8.5v-293q-108 0 -185.5 3t-146 13t-113 24t-81.5 40t-57.5 57t-34.5 79.5t-18.5 103t-4.5 131.5v288q0 44 -12 67t-51 35.5t-115 12.5v273q111 0 144.5 23.5t33.5 88.5v307z" />
    <glyph glyph-name="bar" unicode="|" horiz-adv-x="499" 
d="M109 -375v2054h282v-2054h-282z" />
    <glyph glyph-name="braceright" unicode="}" horiz-adv-x="1013" 
d="M700 12q0 -77 -4.5 -131t-19 -101t-33.5 -76.5t-57 -54t-81 -37t-113 -21t-145 -11t-186 -2.5v293q64 0 102.5 5.5t70 21t46.5 47t22.5 78.5t8.5 122l2 189q1 46 17 86.5t36 64.5t47 44.5t39 26.5t23 11q-5 1 -20.5 8.5t-41.5 26.5t-48.5 44t-39 66.5t-16.5 88.5v205
q0 58 -4 98t-16 70t-29 47t-47 27.5t-64.5 14t-87.5 3.5v290q109 0 185.5 -3t145.5 -12.5t113 -23.5t81 -39.5t57 -56.5t34 -79t18.5 -102.5t4.5 -131.5v-289q0 -65 34 -89.5t145 -24.5v-275q-111 0 -145 -24t-34 -89v-305z" />
    <glyph glyph-name="asciitilde" unicode="~" horiz-adv-x="1239" 
d="M70 451q0 97 15.5 168.5t53.5 130t107 88.5t170 30q62 0 119 -17.5t94 -38.5t89.5 -38.5t104.5 -17.5q70 0 106 39t36 73h206q0 -76 -9.5 -136.5t-33.5 -114.5t-63 -89.5t-100 -56t-142 -20.5q-62 0 -119 17.5t-94 38.5t-89.5 38.5t-104.5 17.5q-70 0 -106 -39t-36 -73
h-204z" />
    <glyph glyph-name="exclamdown" unicode="&#xa1;" horiz-adv-x="626" 
d="M109 801v325h409v-325h-409zM109 -358l32 1077h344l33 -1077h-409z" />
    <glyph glyph-name="cent" unicode="&#xa2;" horiz-adv-x="1261" 
d="M514 -41v160q-237 30 -341.5 176.5t-104.5 413.5t104 413.5t342 177.5v154h258v-151q227 -25 326 -148.5t110 -343.5h-403q-4 105 -42.5 150t-113.5 45q-89 0 -126.5 -66t-37.5 -231t37.5 -230t126.5 -65q72 0 111 40.5t45 129.5h403q-7 -102 -31.5 -178.5t-74 -139
t-132 -100t-198.5 -49.5v-158h-258z" />
    <glyph glyph-name="sterling" unicode="&#xa3;" horiz-adv-x="1232" 
d="M641 475q-13 -125 -96 -190l608 18v-311h-1108v278q7 3 19.5 9t44 26t55.5 41.5t43.5 55.5t19.5 69v4h-217v223h164q-14 28 -43 77t-45.5 80t-30.5 84t-14 110q0 82 30 151.5t93.5 127t176 90t265.5 32.5q168 0 280.5 -34.5t174 -104.5t86 -158.5t24.5 -214.5h-403
q0 77 -37 123.5t-106 46.5q-72 0 -109 -41t-37 -104q0 -42 20.5 -82t55.5 -91t53 -92h295v-223h-262z" />
    <glyph glyph-name="currency" unicode="&#xa4;" horiz-adv-x="1447" 
d="M1260 985q57 -128 57 -323t-55 -316l118 -119l-219 -219l-117 117q-126 -57 -319 -57q-196 0 -322 57l-116 -117l-217 219l116 117q-53 125 -53 318q0 196 55 319l-120 121l217 217l116 -117q127 59 324 62q188 0 317 -58l119 117l217 -217zM541 662q0 -252 184 -252
q182 0 182 252q0 260 -182 260q-184 0 -184 -260z" />
    <glyph glyph-name="yen" unicode="&#xa5;" horiz-adv-x="1357" 
d="M475 0v268h-231v197h231v100h-231v199h168l-406 688h461l205 -508l190 508h490l-418 -688h166v-199h-230v-100h230v-197h-230v-268h-395z" />
    <glyph glyph-name="brokenbar" unicode="&#xa6;" horiz-adv-x="499" 
d="M109 809v870h282v-870h-282zM391 502v-871h-282v871h282z" />
    <glyph glyph-name="section" unicode="&#xa7;" horiz-adv-x="1167" 
d="M1118 805q0 -141 -106 -236q104 -90 104 -252q0 -183 -125.5 -276.5t-415.5 -93.5q-199 0 -315.5 47t-163 135t-45.5 231h363q0 -174 155 -174q158 0 158 105q0 40 -29 66.5t-76.5 39t-108 25.5t-123.5 24.5t-123.5 37.5t-108 62t-76.5 101t-29 152q0 140 115 229
q-113 88 -113 258q0 346 520 346q281 0 401 -94t120 -289h-363q0 78 -33.5 111t-113.5 33q-76 0 -109 -26.5t-33 -78.5q0 -33 23 -55t62 -33.5t89.5 -19.5t106.5 -17t112 -22t106.5 -38t89.5 -61.5t62 -97t23 -139.5zM442 801q0 -30 18 -51t54.5 -33.5t74 -20t94.5 -15.5
q6 -1 9 -1q37 46 37 98q0 26 -13 46t-32 32.5t-52.5 23t-62.5 17t-74 15.5q-4 1 -6 1q-47 -44 -47 -112z" />
    <glyph glyph-name="dieresis" unicode="&#xa8;" horiz-adv-x="1116" 
d="M131 1260v325h377v-325h-377zM629 1260v325h377v-325h-377z" />
    <glyph glyph-name="copyright" unicode="&#xa9;" horiz-adv-x="1691" 
d="M1624 713q0 -138 -25.5 -254t-84 -217t-147 -171.5t-221.5 -110.5t-302 -40q-166 0 -298 40t-220.5 110.5t-147 171t-84.5 217.5t-26 254q0 138 26 256t84.5 220t147 174t220.5 112.5t298 40.5q168 0 301.5 -41t222 -112t147 -173.5t84 -220t25.5 -256.5zM262 713
q0 -627 582 -627q133 0 235.5 32.5t168 87.5t107 136.5t58.5 171.5t17 199q0 637 -586 637q-582 0 -582 -637zM1241 637q0 -116 -25.5 -195.5t-77 -126t-121.5 -66.5t-167 -20q-104 0 -178 24.5t-128 80.5t-80 151t-26 232t26 231.5t80 150.5t128 80.5t178 24.5
q196 0 293 -89.5t98 -309.5h-264q-4 101 -34.5 136.5t-92.5 35.5q-47 0 -76 -20t-46 -78.5t-17 -161.5q0 -104 17.5 -162.5t45.5 -78t76 -19.5q62 0 93.5 37t35.5 143h262z" />
    <glyph glyph-name="ordfeminine" unicode="&#xaa;" horiz-adv-x="894" 
d="M584 741l-17 43q-93 -69 -225 -69q-297 0 -297 252q0 254 315 254q82 0 183 -9v29q0 65 -21.5 93t-79.5 28q-104 0 -104 -90h-254q0 32 5.5 62.5t26.5 70t55.5 68.5t100.5 49t154 20q80 0 141.5 -10.5t104 -27t72 -46.5t46.5 -60.5t26.5 -78t12 -89t2.5 -102.5v-167
l17 -220h-264zM434 903q58 0 109 37v131q-54 4 -88 4q-117 0 -117 -92q0 -80 96 -80z" />
    <glyph glyph-name="guillemotleft" unicode="&#xab;" horiz-adv-x="1593" 
d="M406 156l-240 366v62l240 381h432l-301 -414l301 -395h-432zM995 156l-239 366v62l239 381h432l-301 -414l301 -395h-432z" />
    <glyph glyph-name="registered" unicode="&#xae;" horiz-adv-x="1691" 
d="M1624 713q0 -138 -25.5 -254t-84 -217t-147 -171.5t-221.5 -110.5t-302 -40q-166 0 -298 40t-220.5 110.5t-147 171t-84.5 217.5t-26 254q0 138 26 256t84.5 220t147 174t220.5 112.5t298 40.5q168 0 301.5 -41t222 -112t147 -173.5t84 -220t25.5 -256.5zM262 713
q0 -627 582 -627q133 0 235.5 32.5t168 87.5t107 136.5t58.5 171.5t17 199q0 637 -586 637q-582 0 -582 -637zM475 272v902h385q111 0 182 -15t119.5 -52.5t69 -100t20.5 -160.5q0 -115 -30 -182t-97 -99l121 -293h-274l-90 252h-146v-252h-260zM735 965v-232h96
q84 0 118 21.5t34 93.5t-34.5 94.5t-117.5 22.5h-96z" />
    <glyph glyph-name="macron" unicode="&#xaf;" horiz-adv-x="1122" 
d="M123 1546h702v-241h-702v241z" />
    <glyph glyph-name="degree" unicode="&#xb0;" horiz-adv-x="849" 
d="M727 1206q0 -295 -303 -295q-144 0 -222.5 72t-78.5 223q0 152 78.5 225.5t222.5 73.5q303 0 303 -299zM342 1206q0 -114 82 -114q48 0 66 29.5t18 84.5q0 121 -84 121q-82 0 -82 -121z" />
    <glyph glyph-name="plusminus" unicode="&#xb1;" horiz-adv-x="1136" 
d="M430 477v228h-319v241h319v225h277v-225h321v-241h-321v-228h-277zM111 156v241h917v-241h-917z" />
    <glyph glyph-name="uni00B2" unicode="&#xb2;" horiz-adv-x="1011" 
d="M59 559v258q138 84 267 178q146 103 194 148q98 91 98 176q0 47 -26.5 81t-85.5 34q-65 0 -94 -47.5t-29 -118.5h-332q0 82 13 148t45 124.5t82.5 97.5t128.5 61.5t180 22.5q456 0 456 -374q0 -38 -8 -75t-17 -66t-32 -64.5t-36.5 -56.5t-47.5 -55.5t-47.5 -48.5
t-55.5 -49t-51.5 -42.5t-54.5 -42.5q-2 -2 -11 -10t-15 -11l362 17v-285h-883z" />
    <glyph glyph-name="uni00B3" unicode="&#xb3;" horiz-adv-x="1021" 
d="M707 1251q137 -37 193 -120t56 -222q0 -58 -12.5 -109.5t-45.5 -101.5t-83.5 -86t-132.5 -58t-188 -22q-457 0 -457 414h332q0 -56 27.5 -97.5t88.5 -41.5q63 0 91 37t28 94q0 79 -38 120.5t-146 41.5q-35 0 -64 -4t-41 -8l-12 -5v185l240 157l-469 -20v285h864v-246z
" />
    <glyph glyph-name="acute" unicode="&#xb4;" horiz-adv-x="1083" 
d="M76 1266l198 368h410l-248 -368h-360z" />
    <glyph glyph-name="paragraph" unicode="&#xb6;" horiz-adv-x="1574" 
d="M729 0v502q-132 3 -226.5 14t-173 35.5t-128.5 62t-84.5 96.5t-49 136.5t-14.5 183.5t14.5 184.5t49 138t85 98t128.5 62.5t173.5 33.5t225.5 9.5h737v-1556h-282v1247h-172v-1247h-283zM438 1032q0 -124 60 -167t231 -46v426q-89 -2 -141.5 -11.5t-88 -33.5t-48.5 -63.5
t-13 -104.5z" />
    <glyph glyph-name="periodcentered" unicode="&#xb7;" horiz-adv-x="686" 
d="M139 459v325h410v-325h-410z" />
    <glyph glyph-name="cedilla" unicode="&#xb8;" horiz-adv-x="1095" 
d="M766 -336q0 -55 -17.5 -95t-61.5 -72.5t-126 -49t-203 -16.5q-72 0 -130.5 6t-81.5 12l-23 6v176q0 -3 9.5 -6.5t38.5 -7.5t71 -4q63 0 96 24t33 66q0 98 -178 98h-5l109 203h324l-72 -133q40 -1 76 -12t69 -33.5t52.5 -64t19.5 -97.5z" />
    <glyph glyph-name="uni00B9" unicode="&#xb9;" horiz-adv-x="638" 
d="M197 557v813l-185 -72v269l318 125h188v-1135h-321z" />
    <glyph glyph-name="ordmasculine" unicode="&#xba;" horiz-adv-x="905" 
d="M860 1130q0 -211 -94 -314t-313 -103q-218 0 -313 103t-95 314q0 210 95 314t313 104q219 0 313 -104t94 -314zM338 1130q0 -114 25.5 -158t89.5 -44t90 44t26 158q0 113 -26 157t-90 44t-89.5 -44t-25.5 -157z" />
    <glyph glyph-name="guillemotright" unicode="&#xbb;" horiz-adv-x="1593" 
d="M598 156h-434l301 395l-301 414h434l240 -381v-62zM1188 156h-432l299 395l-299 414h432l239 -381v-62z" />
    <glyph glyph-name="onequarter" unicode="&#xbc;" horiz-adv-x="2172" 
d="M197 420v813l-185 -72v269l318 124h188v-1134h-321zM344 -82l897 1620h309l-897 -1620h-309zM1718 0v168h-563v248l426 717h459v-717h123v-248h-123v-168h-322zM1718 416v469l-248 -469h248z" />
    <glyph glyph-name="onehalf" unicode="&#xbd;" horiz-adv-x="2250" 
d="M197 420v813l-185 -72v269l318 124h188v-1134h-321zM344 -82l897 1620h309l-897 -1620h-309zM1298 2v258q138 84 267 178q146 103 193 147q100 92 100 177q0 47 -27 81t-86 34q-65 0 -94 -47.5t-29 -118.5h-332q0 82 13 148t45 124.5t82.5 97.5t128.5 61.5t180 22.5
q456 0 456 -374q0 -38 -8 -75t-17 -66t-32 -64.5t-36.5 -56.5t-47.5 -55.5t-47.5 -48.5t-55.5 -49t-51.5 -42.5t-54.5 -42.5q-2 -2 -11 -10t-15 -11l362 17v-285h-883z" />
    <glyph glyph-name="threequarters" unicode="&#xbe;" horiz-adv-x="2502" 
d="M707 1114q137 -37 193 -120t56 -222q0 -58 -12.5 -109.5t-45.5 -101.5t-83.5 -86t-132.5 -58t-188 -22q-457 0 -457 414h332q0 -56 27.5 -97.5t88.5 -41.5q63 0 91 37t28 94q0 79 -38 120.5t-146 41.5q-35 0 -64 -4.5t-41 -8.5l-12 -4v184l240 158l-469 -20v284h864v-245
zM674 -82l897 1620h309l-897 -1620h-309zM2048 0v168h-563v248l426 717h459v-717h122v-248h-122v-168h-322zM2048 416v469l-248 -469h248z" />
    <glyph glyph-name="questiondown" unicode="&#xbf;" horiz-adv-x="1241" 
d="M862 1126v-299h-409v299h409zM453 752h409v-45q0 -73 -18.5 -133.5t-48.5 -102t-66 -78t-72 -68.5t-66 -64t-48.5 -74.5t-18.5 -92.5q0 -155 135 -155q74 0 111 53.5t37 167.5h393q0 -104 -15.5 -188t-54 -156.5t-98.5 -121.5t-152.5 -76.5t-213.5 -27.5q-156 0 -270 36
t-179.5 101.5t-96 147.5t-30.5 184q0 74 18.5 135t48 102.5t66 78t74 70t69.5 69t55 85t28 108.5z" />
    <glyph glyph-name="Agrave" unicode="&#xc0;" horiz-adv-x="1505" 
d="M954 1595h-428l-247 312h477zM6 0l496 1485h502l495 -1485h-452l-62 219h-475l-61 -219h-443zM594 524h307l-153 551z" />
    <glyph glyph-name="Aacute" unicode="&#xc1;" horiz-adv-x="1505" 
d="M530 1589l197 314h477l-248 -314h-426zM6 0l496 1485h502l495 -1485h-452l-62 219h-475l-61 -219h-443zM594 524h307l-153 551z" />
    <glyph glyph-name="Acircumflex" unicode="&#xc2;" horiz-adv-x="1505" 
d="M1206 1589h-319l-137 133l-136 -133h-303l248 330h381zM6 0l496 1485h502l495 -1485h-452l-62 219h-475l-61 -219h-443zM594 524h307l-153 551z" />
    <glyph glyph-name="Atilde" unicode="&#xc3;" horiz-adv-x="1505" 
d="M1176 1956q0 -180 -55.5 -274.5t-194.5 -94.5q-62 0 -112 14.5t-76.5 32.5t-61 32.5t-70.5 14.5q-56 0 -83 -33t-27 -63h-174q0 87 12 151t39.5 115t77.5 77t122 26q61 0 110.5 -14.5t76 -32.5t61 -32.5t70.5 -14.5q56 0 83 33t27 63h175zM6 0l496 1485h502l495 -1485
h-452l-62 219h-475l-61 -219h-443zM594 524h307l-153 551z" />
    <glyph glyph-name="Adieresis" unicode="&#xc4;" horiz-adv-x="1505" 
d="M281 1589v326h409v-326h-409zM811 1589v326h410v-326h-410zM6 0l496 1485h502l495 -1485h-452l-62 219h-475l-61 -219h-443zM594 524h307l-153 551z" />
    <glyph glyph-name="Aring" unicode="&#xc5;" horiz-adv-x="1505" 
d="M1049 1841q0 -132 -81.5 -203t-217.5 -71q-137 0 -218 71t-81 203q0 131 81 202t218 71q136 0 217.5 -71.5t81.5 -201.5zM682 1841q0 -32 19 -50.5t49 -18.5t48.5 18.5t18.5 50.5q0 31 -18.5 49.5t-48.5 18.5t-49 -19t-19 -49zM6 0l496 1485h502l495 -1485h-452l-62 219
h-475l-61 -219h-443zM594 524h307l-153 551z" />
    <glyph glyph-name="AE" unicode="&#xc6;" horiz-adv-x="2072" 
d="M6 0l692 1485h1313v-334h-633v-248h531v-303h-531v-266h647v-334h-1064v254h-392l-104 -254h-459zM961 557v631l-265 -631h265z" />
    <glyph glyph-name="Ccedilla" unicode="&#xc7;" horiz-adv-x="1413" 
d="M1358 610q-1 -209 -56 -346t-154 -205.5t-251 -89.5l-53 -102q40 -1 76 -12t69 -33.5t52.5 -64t19.5 -97.5q0 -55 -17.5 -95t-61.5 -72.5t-126 -49t-203 -16.5q-72 0 -130.5 6t-81.5 12l-23 6v176q1 -4 11.5 -7.5t38.5 -7t69 -3.5q63 0 96 24t33 66q0 98 -179 98h-4
l90 170q-170 23 -279.5 106t-167.5 248t-58 420q0 220 41.5 372.5t127 243.5t205 131t287.5 40q155 0 267 -32t195 -105.5t124 -198.5t41 -305h-410q-4 87 -19.5 144t-44.5 88t-65 43t-88 12q-48 0 -83 -11t-65 -40t-48.5 -77.5t-28.5 -124.5t-10 -180q0 -130 14.5 -215.5
t46.5 -132t72.5 -64.5t101.5 -18q53 0 88.5 12t64.5 44t44.5 92t19.5 151h412z" />
    <glyph glyph-name="Egrave" unicode="&#xc8;" horiz-adv-x="1230" 
d="M844 1595h-428l-248 312h477zM119 0v1485h1050v-334h-634v-248h532v-303h-532v-266h649v-334h-1065z" />
    <glyph glyph-name="Eacute" unicode="&#xc9;" horiz-adv-x="1230" 
d="M420 1589l196 314h478l-248 -314h-426zM119 0v1485h1050v-334h-634v-248h532v-303h-532v-266h649v-334h-1065z" />
    <glyph glyph-name="Ecircumflex" unicode="&#xca;" horiz-adv-x="1230" 
d="M1096 1589h-320l-137 133l-135 -133h-303l248 330h380zM119 0v1485h1050v-334h-634v-248h532v-303h-532v-266h649v-334h-1065z" />
    <glyph glyph-name="Edieresis" unicode="&#xcb;" horiz-adv-x="1230" 
d="M170 1589v326h410v-326h-410zM700 1589v326h410v-326h-410zM119 0v1485h1050v-334h-634v-248h532v-303h-532v-266h649v-334h-1065z" />
    <glyph glyph-name="Igrave" unicode="&#xcc;" horiz-adv-x="651" 
d="M532 1595h-428l-247 312h477zM119 0v1485h416v-1485h-416z" />
    <glyph glyph-name="Iacute" unicode="&#xcd;" horiz-adv-x="651" 
d="M109 1589l196 314h477l-247 -314h-426zM119 0v1485h416v-1485h-416z" />
    <glyph glyph-name="Icircumflex" unicode="&#xce;" horiz-adv-x="651" 
d="M784 1589h-319l-137 133l-135 -133h-304l248 330h381zM119 0v1485h416v-1485h-416z" />
    <glyph glyph-name="Idieresis" unicode="&#xcf;" horiz-adv-x="651" 
d="M-141 1589v326h409v-326h-409zM389 1589v326h410v-326h-410zM119 0v1485h416v-1485h-416z" />
    <glyph glyph-name="Eth" unicode="&#xd0;" horiz-adv-x="1468" 
d="M119 645h-123v193h123v649h493q168 0 291 -18t211 -59.5t143.5 -98t87.5 -145t44 -187.5t12 -238q0 -104 -6.5 -184t-22.5 -154.5t-43.5 -129t-70.5 -102t-102 -78t-138.5 -53t-179.5 -32.5t-226 -10h-493v647zM543 645v-299h149q105 0 162.5 30.5t87 116.5t29.5 248
q0 161 -29.5 246.5t-87 115.5t-162.5 30h-149v-295h198v-193h-198z" />
    <glyph glyph-name="Ntilde" unicode="&#xd1;" horiz-adv-x="1552" 
d="M1196 1956q0 -180 -55.5 -274.5t-194.5 -94.5q-62 0 -112 14.5t-76 32.5t-60.5 32.5t-70.5 14.5q-57 0 -84 -33t-27 -63h-174q0 86 12 150.5t40 115.5t78 77t122 26q61 0 110.5 -14.5t75.5 -32.5t60.5 -32.5t70.5 -14.5q57 0 84 33t27 63h174zM485 985l21 -985h-387
l2 1485h489l461 -959l-22 959h387v-1485h-492z" />
    <glyph glyph-name="Ograve" unicode="&#xd2;" horiz-adv-x="1460" 
d="M936 1612h-428l-248 311h477zM1393 741q0 -219 -41.5 -371t-127.5 -242.5t-205.5 -130.5t-287.5 -40q-134 0 -236.5 25t-184.5 81t-134.5 147t-80 223t-27.5 308q0 220 41.5 372.5t127.5 243.5t206 131t288 40t287.5 -40t205.5 -131t127.5 -243.5t41.5 -372.5zM494 741
q0 -130 15 -215.5t46.5 -132t73 -64.5t102.5 -18t102 18t72.5 64.5t46.5 132t15 215.5t-15 216t-46.5 133t-73 65.5t-101.5 18.5q-61 0 -102.5 -18.5t-73 -65.5t-46.5 -133t-15 -216z" />
    <glyph glyph-name="Oacute" unicode="&#xd3;" horiz-adv-x="1460" 
d="M512 1606l197 313h477l-248 -313h-426zM1393 741q0 -219 -41.5 -371t-127.5 -242.5t-205.5 -130.5t-287.5 -40q-134 0 -236.5 25t-184.5 81t-134.5 147t-80 223t-27.5 308q0 220 41.5 372.5t127.5 243.5t206 131t288 40t287.5 -40t205.5 -131t127.5 -243.5t41.5 -372.5z
M494 741q0 -130 15 -215.5t46.5 -132t73 -64.5t102.5 -18t102 18t72.5 64.5t46.5 132t15 215.5t-15 216t-46.5 133t-73 65.5t-101.5 18.5q-61 0 -102.5 -18.5t-73 -65.5t-46.5 -133t-15 -216z" />
    <glyph glyph-name="Ocircumflex" unicode="&#xd4;" horiz-adv-x="1460" 
d="M1188 1606h-320l-137 133l-135 -133h-303l248 329h381zM1393 741q0 -219 -41.5 -371t-127.5 -242.5t-205.5 -130.5t-287.5 -40q-134 0 -236.5 25t-184.5 81t-134.5 147t-80 223t-27.5 308q0 220 41.5 372.5t127.5 243.5t206 131t288 40t287.5 -40t205.5 -131
t127.5 -243.5t41.5 -372.5zM494 741q0 -130 15 -215.5t46.5 -132t73 -64.5t102.5 -18t102 18t72.5 64.5t46.5 132t15 215.5t-15 216t-46.5 133t-73 65.5t-101.5 18.5q-61 0 -102.5 -18.5t-73 -65.5t-46.5 -133t-15 -216z" />
    <glyph glyph-name="Otilde" unicode="&#xd5;" horiz-adv-x="1460" 
d="M1157 1972q0 -180 -55.5 -274t-194.5 -94q-62 0 -112 14.5t-76 32.5t-60.5 32.5t-70.5 14.5q-57 0 -84 -33t-27 -63h-174q0 178 56.5 273t195.5 95q61 0 110.5 -14.5t75.5 -32.5t60.5 -32.5t70.5 -14.5q57 0 84 33t27 63h174zM1393 741q0 -219 -41.5 -371t-127.5 -242.5
t-205.5 -130.5t-287.5 -40q-134 0 -236.5 25t-184.5 81t-134.5 147t-80 223t-27.5 308q0 220 41.5 372.5t127.5 243.5t206 131t288 40t287.5 -40t205.5 -131t127.5 -243.5t41.5 -372.5zM494 741q0 -130 15 -215.5t46.5 -132t73 -64.5t102.5 -18t102 18t72.5 64.5t46.5 132
t15 215.5t-15 216t-46.5 133t-73 65.5t-101.5 18.5q-61 0 -102.5 -18.5t-73 -65.5t-46.5 -133t-15 -216z" />
    <glyph glyph-name="Odieresis" unicode="&#xd6;" horiz-adv-x="1460" 
d="M262 1606v325h410v-325h-410zM793 1606v325h409v-325h-409zM1393 741q0 -219 -41.5 -371t-127.5 -242.5t-205.5 -130.5t-287.5 -40q-134 0 -236.5 25t-184.5 81t-134.5 147t-80 223t-27.5 308q0 220 41.5 372.5t127.5 243.5t206 131t288 40t287.5 -40t205.5 -131
t127.5 -243.5t41.5 -372.5zM494 741q0 -130 15 -215.5t46.5 -132t73 -64.5t102.5 -18t102 18t72.5 64.5t46.5 132t15 215.5t-15 216t-46.5 133t-73 65.5t-101.5 18.5q-61 0 -102.5 -18.5t-73 -65.5t-46.5 -133t-15 -216z" />
    <glyph glyph-name="multiply" unicode="&#xd7;" horiz-adv-x="1052" 
d="M791 197l-267 272l-262 -272l-170 159l270 281l-270 281l168 157l264 -272l262 272l172 -157l-272 -281l275 -281z" />
    <glyph glyph-name="Oslash" unicode="&#xd8;" horiz-adv-x="1460" 
d="M100 -27l117 174q-149 183 -149 594q0 220 41.5 372.5t127.5 243.5t206 131t288 40q229 0 373 -78l43 61h186l-106 -157q166 -187 166 -613q0 -219 -41.5 -371t-127.5 -242.5t-205.5 -130.5t-287.5 -40q-248 0 -395 88l-47 -72h-189zM494 741q0 -111 8 -176l379 555
q-51 54 -150 54q-61 0 -102.5 -18.5t-73 -65.5t-46.5 -133t-15 -216zM967 741q0 106 -15 209l-389 -571q55 -68 168 -68q61 0 102 18t72.5 64.5t46.5 132t15 215.5z" />
    <glyph glyph-name="Ugrave" unicode="&#xd9;" horiz-adv-x="1421" 
d="M915 1595h-428l-247 312h477zM1315 694q0 -115 -6 -200.5t-22.5 -166.5t-45.5 -136.5t-74 -102.5t-109 -74t-150 -42t-197 -15q-110 0 -196 15t-150 42.5t-109.5 74t-75 102.5t-46.5 136t-23.5 166t-6.5 201v791h416v-756q0 -167 19.5 -253.5t58 -117t111.5 -30.5
q74 0 112 31t56 116.5t18 253.5v756h420v-791z" />
    <glyph glyph-name="Uacute" unicode="&#xda;" horiz-adv-x="1421" 
d="M492 1589l196 314h477l-247 -314h-426zM1315 694q0 -115 -6 -200.5t-22.5 -166.5t-45.5 -136.5t-74 -102.5t-109 -74t-150 -42t-197 -15q-110 0 -196 15t-150 42.5t-109.5 74t-75 102.5t-46.5 136t-23.5 166t-6.5 201v791h416v-756q0 -167 19.5 -253.5t58 -117
t111.5 -30.5q74 0 112 31t56 116.5t18 253.5v756h420v-791z" />
    <glyph glyph-name="Ucircumflex" unicode="&#xdb;" horiz-adv-x="1421" 
d="M1167 1589h-319l-137 133l-136 -133h-303l248 330h381zM1315 694q0 -115 -6 -200.5t-22.5 -166.5t-45.5 -136.5t-74 -102.5t-109 -74t-150 -42t-197 -15q-110 0 -196 15t-150 42.5t-109.5 74t-75 102.5t-46.5 136t-23.5 166t-6.5 201v791h416v-756q0 -167 19.5 -253.5
t58 -117t111.5 -30.5q74 0 112 31t56 116.5t18 253.5v756h420v-791z" />
    <glyph glyph-name="Udieresis" unicode="&#xdc;" horiz-adv-x="1421" 
d="M242 1589v326h409v-326h-409zM772 1589v326h410v-326h-410zM1315 694q0 -115 -6 -200.5t-22.5 -166.5t-45.5 -136.5t-74 -102.5t-109 -74t-150 -42t-197 -15q-110 0 -196 15t-150 42.5t-109.5 74t-75 102.5t-46.5 136t-23.5 166t-6.5 201v791h416v-756
q0 -167 19.5 -253.5t58 -117t111.5 -30.5q74 0 112 31t56 116.5t18 253.5v756h420v-791z" />
    <glyph glyph-name="Yacute" unicode="&#xdd;" horiz-adv-x="1372" 
d="M469 1589l197 314h477l-248 -314h-426zM475 0v395l-469 1090h461l211 -719l201 719h487l-479 -1086v-399h-412z" />
    <glyph glyph-name="Thorn" unicode="&#xde;" horiz-adv-x="1427" 
d="M119 0v1485h420v-197h194q143 0 245 -16t180 -52.5t124 -100t69 -155.5t23 -221q0 -161 -33.5 -263t-114.5 -162.5t-199.5 -83.5t-305.5 -23h-186v-211h-416zM537 952v-407h149q57 0 94 4t71 16t52.5 34t29.5 58.5t11 90.5t-11 91t-29 59.5t-52.5 34t-71 15.5t-94.5 4
h-149z" />
    <glyph glyph-name="germandbls" unicode="&#xdf;" horiz-adv-x="1335" 
d="M109 0v1032q0 71 3.5 121.5t16.5 110.5t36.5 101.5t65 82.5t100 65.5t143.5 40t194 15.5q132 0 231 -19.5t163 -54t103.5 -88.5t55.5 -116t16 -142q0 -63 -12.5 -118t-33 -92t-44.5 -67.5t-48.5 -48.5t-45 -30t-33.5 -17l-12 -4q5 -1 14.5 -2.5t36.5 -11t51 -23t54 -40.5
t51.5 -61.5t36 -88.5t14.5 -119q0 -85 -10 -144.5t-37.5 -109.5t-73 -80.5t-120 -52.5t-174.5 -30.5t-241 -8.5v295q135 0 190.5 34t55.5 130q0 56 -16 91t-51 52t-73 22.5t-100 6.5v270q95 0 150 45.5t55 136.5q0 97 -33 143t-120 46q-85 0 -117.5 -46.5t-32.5 -142.5
v-1083h-409z" />
    <glyph glyph-name="agrave" unicode="&#xe0;" horiz-adv-x="1306" 
d="M827 1266h-358l-250 368h410zM842 0l-25 66q-136 -103 -323 -103q-209 0 -317.5 87t-108.5 274q0 364 452 364q132 0 264 -12v45q0 96 -31 135t-118 39q-154 0 -154 -135h-358q0 33 3.5 63.5t16 71t33 74.5t58 69t87 59t124.5 39t167 15q115 0 203.5 -15t149.5 -39
t104 -67t67 -86.5t37.5 -111.5t17 -127.5t3.5 -147.5v-242l23 -315h-375zM623 229q89 0 161 60v188q-55 6 -131 6q-170 0 -170 -135q0 -57 35.5 -88t104.5 -31z" />
    <glyph glyph-name="aacute" unicode="&#xe1;" horiz-adv-x="1306" 
d="M473 1266l199 368h409l-247 -368h-361zM842 0l-25 66q-136 -103 -323 -103q-209 0 -317.5 87t-108.5 274q0 364 452 364q132 0 264 -12v45q0 96 -31 135t-118 39q-154 0 -154 -135h-358q0 33 3.5 63.5t16 71t33 74.5t58 69t87 59t124.5 39t167 15q115 0 203.5 -15
t149.5 -39t104 -67t67 -86.5t37.5 -111.5t17 -127.5t3.5 -147.5v-242l23 -315h-375zM623 229q89 0 161 60v188q-55 6 -131 6q-170 0 -170 -135q0 -57 35.5 -88t104.5 -31z" />
    <glyph glyph-name="acircumflex" unicode="&#xe2;" horiz-adv-x="1306" 
d="M1104 1260h-318l-139 139l-137 -139h-313l276 364h348zM842 0l-25 66q-136 -103 -323 -103q-209 0 -317.5 87t-108.5 274q0 364 452 364q132 0 264 -12v45q0 96 -31 135t-118 39q-154 0 -154 -135h-358q0 33 3.5 63.5t16 71t33 74.5t58 69t87 59t124.5 39t167 15
q115 0 203.5 -15t149.5 -39t104 -67t67 -86.5t37.5 -111.5t17 -127.5t3.5 -147.5v-242l23 -315h-375zM623 229q89 0 161 60v188q-55 6 -131 6q-170 0 -170 -135q0 -57 35.5 -88t104.5 -31z" />
    <glyph glyph-name="atilde" unicode="&#xe3;" horiz-adv-x="1306" 
d="M1079 1642q0 -180 -55.5 -274t-194.5 -94q-61 0 -110.5 14.5t-77 32.5t-62 32.5t-69.5 14.5q-57 0 -84 -32.5t-27 -63.5h-174q0 179 56 273.5t194 94.5q61 0 111.5 -14.5t77.5 -32.5t62 -32.5t71 -14.5q55 0 81.5 33t26.5 63h174zM842 0l-25 66q-136 -103 -323 -103
q-209 0 -317.5 87t-108.5 274q0 364 452 364q132 0 264 -12v45q0 96 -31 135t-118 39q-154 0 -154 -135h-358q0 33 3.5 63.5t16 71t33 74.5t58 69t87 59t124.5 39t167 15q115 0 203.5 -15t149.5 -39t104 -67t67 -86.5t37.5 -111.5t17 -127.5t3.5 -147.5v-242l23 -315h-375z
M623 229q89 0 161 60v188q-55 6 -131 6q-170 0 -170 -135q0 -57 35.5 -88t104.5 -31z" />
    <glyph glyph-name="adieresis" unicode="&#xe4;" horiz-adv-x="1306" 
d="M217 1260v325h377v-325h-377zM715 1260v325h377v-325h-377zM842 0l-25 66q-136 -103 -323 -103q-209 0 -317.5 87t-108.5 274q0 364 452 364q132 0 264 -12v45q0 96 -31 135t-118 39q-154 0 -154 -135h-358q0 33 3.5 63.5t16 71t33 74.5t58 69t87 59t124.5 39t167 15
q115 0 203.5 -15t149.5 -39t104 -67t67 -86.5t37.5 -111.5t17 -127.5t3.5 -147.5v-242l23 -315h-375zM623 229q89 0 161 60v188q-55 6 -131 6q-170 0 -170 -135q0 -57 35.5 -88t104.5 -31z" />
    <glyph glyph-name="aring" unicode="&#xe5;" horiz-adv-x="1306" 
d="M938 1493q0 -124 -76.5 -190t-206.5 -66q-132 0 -207 65.5t-75 190.5q0 128 75 193t207 65q130 0 206.5 -65.5t76.5 -192.5zM588 1493q0 -31 19 -49.5t48 -18.5q30 0 49 19t19 49q0 32 -19 51t-49 19t-48.5 -19t-18.5 -51zM842 0l-25 66q-136 -103 -323 -103
q-209 0 -317.5 87t-108.5 274q0 364 452 364q132 0 264 -12v45q0 96 -31 135t-118 39q-154 0 -154 -135h-358q0 33 3.5 63.5t16 71t33 74.5t58 69t87 59t124.5 39t167 15q115 0 203.5 -15t149.5 -39t104 -67t67 -86.5t37.5 -111.5t17 -127.5t3.5 -147.5v-242l23 -315h-375z
M623 229q89 0 161 60v188q-55 6 -131 6q-170 0 -170 -135q0 -57 35.5 -88t104.5 -31z" />
    <glyph glyph-name="ae" unicode="&#xe6;" horiz-adv-x="1982" 
d="M1915 371q-31 -408 -565 -408q-328 0 -467 168q-152 -160 -389 -160q-210 0 -318 83.5t-108 269.5q0 362 452 362h250q3 42 12 86q-6 62 -45 92.5t-102 30.5q-154 0 -154 -135h-358q0 33 3.5 63.5t16 71t33 74.5t58 69t87 59t124.5 39t167 15q206 0 330 -100
q144 110 408 110q309 0 438 -158t129 -520h-733q7 -137 45 -191t119 -54q82 0 121 37t44 96h402zM1346 913q-76 0 -113 -46.5t-47 -164.5h315q-14 123 -50 167t-105 44zM797 301q-25 84 -31 178h-113q-170 0 -170 -131q0 -57 35.5 -88t104.5 -31q98 0 174 72z" />
    <glyph glyph-name="ccedilla" unicode="&#xe7;" horiz-adv-x="1261" 
d="M1208 438q-14 -203 -104.5 -318.5t-296.5 -146.5l-55 -102q40 -1 76 -12t69 -33.5t52.5 -64t19.5 -97.5q0 -55 -17.5 -95t-61.5 -72.5t-126 -49t-203 -16.5q-72 0 -130.5 6t-81.5 12l-23 6v176q6 -18 118 -18q63 0 96 24t33 66q0 98 -178 98h-4l92 176
q-220 36 -317.5 181t-97.5 403q0 302 135.5 451t445.5 149q153 0 260 -33.5t170 -100t93 -154.5t36 -209h-403q-4 105 -42.5 149.5t-113.5 44.5q-89 0 -126.5 -66t-37.5 -231t37.5 -229t126.5 -64q72 0 111 39.5t45 130.5h403z" />
    <glyph glyph-name="egrave" unicode="&#xe8;" horiz-adv-x="1286" 
d="M834 1266h-359l-250 368h410zM1219 371q-31 -408 -566 -408q-311 0 -448 149t-137 449q0 301 137 450.5t448 149.5q309 0 438.5 -158t129.5 -520h-734q7 -137 45 -191t119 -54q82 0 122.5 37.5t43.5 95.5h402zM651 913q-76 0 -113 -46t-49 -165h318q-14 123 -50.5 167
t-105.5 44z" />
    <glyph glyph-name="eacute" unicode="&#xe9;" horiz-adv-x="1286" 
d="M479 1266l199 368h409l-247 -368h-361zM1219 371q-31 -408 -566 -408q-311 0 -448 149t-137 449q0 301 137 450.5t448 149.5q309 0 438.5 -158t129.5 -520h-734q7 -137 45 -191t119 -54q82 0 122.5 37.5t43.5 95.5h402zM651 913q-76 0 -113 -46t-49 -165h318
q-14 123 -50.5 167t-105.5 44z" />
    <glyph glyph-name="ecircumflex" unicode="&#xea;" horiz-adv-x="1286" 
d="M1110 1260h-317l-140 139l-137 -139h-313l276 364h348zM1219 371q-31 -408 -566 -408q-311 0 -448 149t-137 449q0 301 137 450.5t448 149.5q309 0 438.5 -158t129.5 -520h-734q7 -137 45 -191t119 -54q82 0 122.5 37.5t43.5 95.5h402zM651 913q-76 0 -113 -46t-49 -165
h318q-14 123 -50.5 167t-105.5 44z" />
    <glyph glyph-name="edieresis" unicode="&#xeb;" horiz-adv-x="1286" 
d="M223 1260v325h377v-325h-377zM721 1260v325h377v-325h-377zM1219 371q-31 -408 -566 -408q-311 0 -448 149t-137 449q0 301 137 450.5t448 149.5q309 0 438.5 -158t129.5 -520h-734q7 -137 45 -191t119 -54q82 0 122.5 37.5t43.5 95.5h402zM651 913q-76 0 -113 -46
t-49 -165h318q-14 123 -50.5 167t-105.5 44z" />
    <glyph glyph-name="igrave" unicode="&#xec;" horiz-adv-x="624" 
d="M485 1266h-358l-250 368h410zM106 0v1126h410v-1126h-410z" />
    <glyph glyph-name="iacute" unicode="&#xed;" horiz-adv-x="624" 
d="M150 1266l198 368h375l-248 -368h-325zM106 0v1126h410v-1126h-410z" />
    <glyph glyph-name="icircumflex" unicode="&#xee;" horiz-adv-x="624" 
d="M762 1260h-318l-139 139l-137 -139h-313l276 364h348zM106 0v1126h410v-1126h-410z" />
    <glyph glyph-name="idieresis" unicode="&#xef;" horiz-adv-x="624" 
d="M-125 1260v325h377v-325h-377zM373 1260v325h377v-325h-377zM106 0v1126h410v-1126h-410z" />
    <glyph glyph-name="eth" unicode="&#xf0;" horiz-adv-x="1308" 
d="M893 1393q61 -73 116 -155.5t110.5 -190.5t88.5 -235t33 -251q0 -149 -31.5 -257.5t-100 -186t-181.5 -116t-273 -38.5t-273 38.5t-182 116t-100.5 186t-31.5 257.5q0 276 135.5 420t441.5 147q-58 86 -74 107l-149 -72l-76 113l139 65q-54 61 -110.5 114.5t-86.5 76.5
l-30 24h477l68 -63l143 68l78 -105zM823 539q0 110 -20 200q-12 53 -51 85t-97 32q-94 0 -132 -65t-38 -230q0 -163 38.5 -227t131.5 -64q91 0 129.5 59.5t38.5 209.5z" />
    <glyph glyph-name="ntilde" unicode="&#xf1;" horiz-adv-x="1337" 
d="M1098 1642q0 -180 -55.5 -274t-194.5 -94q-61 0 -111 14.5t-77 32.5t-62 32.5t-70 14.5q-57 0 -83.5 -32.5t-26.5 -63.5h-174q0 179 56 273.5t194 94.5q61 0 111 -14.5t77 -32.5t62 -32.5t71 -14.5q55 0 82 33t27 63h174zM113 0v817l-21 309h348l41 -155q20 23 49 47.5
t76.5 55t113.5 50t136 19.5q212 0 294.5 -124.5t82.5 -422.5v-596h-408v588q0 104 -29 151t-98 47q-60 0 -105 -34t-71 -78v-674h-409z" />
    <glyph glyph-name="ograve" unicode="&#xf2;" horiz-adv-x="1308" 
d="M829 1262h-358l-250 368h410zM1241 561q0 -300 -137 -449t-449 -149q-160 0 -273 38.5t-182 116t-100.5 186t-31.5 257.5q0 302 137 451.5t450 150.5q312 0 449 -150t137 -452zM485 561q0 -163 38 -227t132 -64q93 0 130.5 64t37.5 227q0 165 -37.5 230t-130.5 65
q-94 0 -132 -65t-38 -230z" />
    <glyph glyph-name="oacute" unicode="&#xf3;" horiz-adv-x="1308" 
d="M475 1262l199 368h409l-247 -368h-361zM1241 561q0 -300 -137 -449t-449 -149q-160 0 -273 38.5t-182 116t-100.5 186t-31.5 257.5q0 302 137 451.5t450 150.5q312 0 449 -150t137 -452zM485 561q0 -163 38 -227t132 -64q93 0 130.5 64t37.5 227q0 165 -37.5 230
t-130.5 65q-94 0 -132 -65t-38 -230z" />
    <glyph glyph-name="ocircumflex" unicode="&#xf4;" horiz-adv-x="1308" 
d="M1106 1255h-318l-139 140l-137 -140h-313l276 365h348zM1241 561q0 -300 -137 -449t-449 -149q-160 0 -273 38.5t-182 116t-100.5 186t-31.5 257.5q0 302 137 451.5t450 150.5q312 0 449 -150t137 -452zM485 561q0 -163 38 -227t132 -64q93 0 130.5 64t37.5 227
q0 165 -37.5 230t-130.5 65q-94 0 -132 -65t-38 -230z" />
    <glyph glyph-name="otilde" unicode="&#xf5;" horiz-adv-x="1308" 
d="M1081 1638q0 -180 -55.5 -274t-194.5 -94q-61 0 -110.5 14.5t-77 32.5t-62 32.5t-69.5 14.5q-57 0 -84 -32.5t-27 -63.5h-174q0 179 56 273.5t194 94.5q61 0 111.5 -14.5t77.5 -32.5t62 -32.5t71 -14.5q55 0 81.5 33t26.5 63h174zM1241 561q0 -300 -137 -449t-449 -149
q-160 0 -273 38.5t-182 116t-100.5 186t-31.5 257.5q0 302 137 451.5t450 150.5q312 0 449 -150t137 -452zM485 561q0 -163 38 -227t132 -64q93 0 130.5 64t37.5 227q0 165 -37.5 230t-130.5 65q-94 0 -132 -65t-38 -230z" />
    <glyph glyph-name="odieresis" unicode="&#xf6;" horiz-adv-x="1308" 
d="M219 1255v326h377v-326h-377zM717 1255v326h377v-326h-377zM1241 561q0 -300 -137 -449t-449 -149q-160 0 -273 38.5t-182 116t-100.5 186t-31.5 257.5q0 302 137 451.5t450 150.5q312 0 449 -150t137 -452zM485 561q0 -163 38 -227t132 -64q93 0 130.5 64t37.5 227
q0 165 -37.5 230t-130.5 65q-94 0 -132 -65t-38 -230z" />
    <glyph glyph-name="divide" unicode="&#xf7;" horiz-adv-x="1089" 
d="M356 887v317h377v-317h-377zM66 555v242h958v-242h-958zM356 147v318h377v-318h-377z" />
    <glyph glyph-name="oslash" unicode="&#xf8;" horiz-adv-x="1308" 
d="M123 -29l96 125q-151 145 -151 465q0 302 137 451.5t450 150.5q203 0 330 -65l49 63h154l-101 -131q154 -144 154 -469q0 -300 -137 -449t-449 -149q-202 0 -336 64l-43 -56h-153zM485 561q0 -48 4 -110l279 364q-38 41 -113 41q-94 0 -132 -65t-38 -230zM823 561
q0 67 -6 117l-278 -365q37 -43 116 -43q93 0 130.5 64t37.5 227z" />
    <glyph glyph-name="ugrave" unicode="&#xf9;" horiz-adv-x="1318" 
d="M827 1266h-358l-250 368h410zM879 0l-43 162q-23 -27 -52 -52.5t-76 -57t-110 -51t-131 -19.5q-211 0 -295 119.5t-82 392.5v630h410v-622q0 -80 29 -122t96 -42q100 0 172 119v669h409v-813l23 -313h-350z" />
    <glyph glyph-name="uacute" unicode="&#xfa;" horiz-adv-x="1318" 
d="M473 1266l199 368h409l-247 -368h-361zM879 0l-43 162q-23 -27 -52 -52.5t-76 -57t-110 -51t-131 -19.5q-211 0 -295 119.5t-82 392.5v630h410v-622q0 -80 29 -122t96 -42q100 0 172 119v669h409v-813l23 -313h-350z" />
    <glyph glyph-name="ucircumflex" unicode="&#xfb;" horiz-adv-x="1318" 
d="M1104 1260h-318l-139 139l-137 -139h-313l276 364h348zM879 0l-43 162q-23 -27 -52 -52.5t-76 -57t-110 -51t-131 -19.5q-211 0 -295 119.5t-82 392.5v630h410v-622q0 -80 29 -122t96 -42q100 0 172 119v669h409v-813l23 -313h-350z" />
    <glyph glyph-name="udieresis" unicode="&#xfc;" horiz-adv-x="1318" 
d="M217 1260v325h377v-325h-377zM715 1260v325h377v-325h-377zM879 0l-43 162q-23 -27 -52 -52.5t-76 -57t-110 -51t-131 -19.5q-211 0 -295 119.5t-82 392.5v630h410v-622q0 -80 29 -122t96 -42q100 0 172 119v669h409v-813l23 -313h-350z" />
    <glyph glyph-name="yacute" unicode="&#xfd;" horiz-adv-x="1277" 
d="M473 1266l199 368h409l-247 -368h-361zM420 -483l129 483h-156l-381 1126h447l182 -780l209 780h416l-482 -1609h-364z" />
    <glyph glyph-name="thorn" unicode="&#xfe;" horiz-adv-x="1325" 
d="M109 -492v2044h407v-503q117 104 297 104q229 0 336.5 -147.5t107.5 -446.5t-107 -442.5t-337 -143.5q-180 0 -297 101v-566h-407zM680 846q-90 0 -164 -82v-402q68 -86 166 -86q81 0 121.5 67.5t40.5 215.5q0 150 -40.5 218.5t-123.5 68.5z" />
    <glyph glyph-name="ydieresis" unicode="&#xff;" horiz-adv-x="1277" 
d="M217 1260v325h377v-325h-377zM715 1260v325h377v-325h-377zM420 -483l129 483h-156l-381 1126h447l182 -780l209 780h416l-482 -1609h-364z" />
    <glyph glyph-name="Amacron" unicode="&#x100;" horiz-adv-x="1505" 
d="M397 1876h703v-274h-703v274zM6 0l496 1485h502l495 -1485h-452l-62 219h-475l-61 -219h-443zM594 524h307l-153 551z" />
    <glyph glyph-name="amacron" unicode="&#x101;" horiz-adv-x="1306" 
d="M301 1546h703v-241h-703v241zM842 0l-25 66q-136 -103 -323 -103q-209 0 -317.5 87t-108.5 274q0 364 452 364q132 0 264 -12v45q0 96 -31 135t-118 39q-154 0 -154 -135h-358q0 33 3.5 63.5t16 71t33 74.5t58 69t87 59t124.5 39t167 15q115 0 203.5 -15t149.5 -39
t104 -67t67 -86.5t37.5 -111.5t17 -127.5t3.5 -147.5v-242l23 -315h-375zM623 229q89 0 161 60v188q-55 6 -131 6q-170 0 -170 -135q0 -57 35.5 -88t104.5 -31z" />
    <glyph glyph-name="Abreve" unicode="&#x102;" horiz-adv-x="1505" 
d="M1167 1905q0 -48 -12.5 -93.5t-43.5 -91t-77 -78.5t-119.5 -54t-164.5 -21t-164.5 21t-120 54t-77.5 78.5t-43.5 91t-12.5 93.5h293q0 -37 38 -63.5t87 -26.5t88 26.5t39 63.5h290zM6 0l496 1485h502l495 -1485h-452l-62 219h-475l-61 -219h-443zM594 524h307l-153 551z
" />
    <glyph glyph-name="abreve" unicode="&#x103;" horiz-adv-x="1306" 
d="M1090 1612q0 -48 -13 -95.5t-45 -96t-80.5 -85t-125.5 -59.5t-173 -23t-173 23t-125 59.5t-80 85t-45 96t-13 95.5h309q0 -41 35 -75t92 -34t93 34t36 75h308zM842 0l-25 66q-136 -103 -323 -103q-209 0 -317.5 87t-108.5 274q0 364 452 364q132 0 264 -12v45
q0 96 -31 135t-118 39q-154 0 -154 -135h-358q0 33 3.5 63.5t16 71t33 74.5t58 69t87 59t124.5 39t167 15q115 0 203.5 -15t149.5 -39t104 -67t67 -86.5t37.5 -111.5t17 -127.5t3.5 -147.5v-242l23 -315h-375zM623 229q89 0 161 60v188q-55 6 -131 6q-170 0 -170 -135
q0 -57 35.5 -88t104.5 -31z" />
    <glyph glyph-name="Aogonek" unicode="&#x104;" horiz-adv-x="1505" 
d="M854 -268q0 49 19.5 95t47.5 77t56 55t47 35l20 12l-59 213h-475l-61 -219h-443l496 1485h502l495 -1485h-174q-12 -7 -26 -19t-37.5 -35t-38.5 -55.5t-15 -66.5q0 -28 17 -48t49 -20q22 0 46.5 7t37.5 13l14 7v-189q-2 -2 -7.5 -6t-26 -14.5t-46.5 -18t-71.5 -14
t-98.5 -6.5q-77 0 -132.5 18.5t-83.5 49.5t-40 63t-12 66zM594 524h307l-153 551z" />
    <glyph glyph-name="aogonek" unicode="&#x105;" horiz-adv-x="1306" 
d="M655 -268q0 46 18 90t41 73t53.5 55t45.5 35.5t27 16.5l-23 64q-136 -103 -323 -103q-209 0 -317.5 87t-108.5 274q0 364 452 364q132 0 264 -12v45q0 96 -31 135t-118 39q-154 0 -154 -135h-358q0 33 3.5 63.5t16 71t33 74.5t58 69t87 59t124.5 39t167 15
q115 0 203.5 -15t149.5 -39t104 -67t67 -86.5t37.5 -111.5t17 -127.5t3.5 -147.5v-242l23 -315h-91q-11 -7 -25.5 -19t-37.5 -35t-38 -55.5t-15 -66.5q0 -29 16.5 -48.5t48.5 -19.5q22 0 46.5 7t38.5 13l14 7v-189q-2 -2 -7.5 -6t-26 -14.5t-46.5 -18t-71.5 -14t-98.5 -6.5
q-62 0 -111 13t-78 32.5t-47.5 46.5t-25.5 52.5t-7 52.5zM623 229q89 0 161 60v188q-55 6 -131 6q-170 0 -170 -135q0 -57 35.5 -88t104.5 -31z" />
    <glyph glyph-name="Cacute" unicode="&#x106;" horiz-adv-x="1413" 
d="M516 1606l197 313h477l-248 -313h-426zM1358 610q-1 -185 -42 -312.5t-124 -202t-195 -106.5t-268 -32q-168 0 -287.5 40t-205 130.5t-127 242.5t-41.5 371q0 220 41.5 372.5t127 243.5t205 131t287.5 40q155 0 267 -32t195 -105.5t124 -198.5t41 -305h-410
q-4 87 -19.5 144t-44.5 88t-65 43t-88 12q-48 0 -83 -11t-65 -40t-48.5 -77.5t-28.5 -124.5t-10 -180q0 -130 14.5 -215.5t46.5 -132t72.5 -64.5t101.5 -18q53 0 88.5 12t64.5 44t44.5 92t19.5 151h412z" />
    <glyph glyph-name="cacute" unicode="&#x107;" horiz-adv-x="1261" 
d="M457 1266l198 368h410l-248 -368h-360zM1208 438q-8 -116 -38 -199t-92.5 -147.5t-169 -96.5t-259.5 -32q-158 0 -270 38.5t-180.5 116t-99.5 186t-31 257.5q0 302 135.5 451t445.5 149q153 0 260 -33.5t170 -100t93 -154.5t36 -209h-403q-4 105 -42.5 149.5t-113.5 44.5
q-89 0 -126.5 -66t-37.5 -231t37.5 -229t126.5 -64q72 0 111 39.5t45 130.5h403z" />
    <glyph glyph-name="Ccircumflex" unicode="&#x108;" horiz-adv-x="1413" 
d="M1192 1606h-320l-137 133l-135 -133h-303l248 329h381zM1358 610q-1 -185 -42 -312.5t-124 -202t-195 -106.5t-268 -32q-168 0 -287.5 40t-205 130.5t-127 242.5t-41.5 371q0 220 41.5 372.5t127 243.5t205 131t287.5 40q155 0 267 -32t195 -105.5t124 -198.5t41 -305
h-410q-4 87 -19.5 144t-44.5 88t-65 43t-88 12q-48 0 -83 -11t-65 -40t-48.5 -77.5t-28.5 -124.5t-10 -180q0 -130 14.5 -215.5t46.5 -132t72.5 -64.5t101.5 -18q53 0 88.5 12t64.5 44t44.5 92t19.5 151h412z" />
    <glyph glyph-name="ccircumflex" unicode="&#x109;" horiz-adv-x="1261" 
d="M1087 1260h-317l-139 139l-137 -139h-314l277 364h348zM1208 438q-8 -116 -38 -199t-92.5 -147.5t-169 -96.5t-259.5 -32q-158 0 -270 38.5t-180.5 116t-99.5 186t-31 257.5q0 302 135.5 451t445.5 149q153 0 260 -33.5t170 -100t93 -154.5t36 -209h-403
q-4 105 -42.5 149.5t-113.5 44.5q-89 0 -126.5 -66t-37.5 -231t37.5 -229t126.5 -64q72 0 111 39.5t45 130.5h403z" />
    <glyph glyph-name="Cdotaccent" unicode="&#x10a;" horiz-adv-x="1413" 
d="M530 1606v325h410v-325h-410zM1358 610q-1 -185 -42 -312.5t-124 -202t-195 -106.5t-268 -32q-168 0 -287.5 40t-205 130.5t-127 242.5t-41.5 371q0 220 41.5 372.5t127 243.5t205 131t287.5 40q155 0 267 -32t195 -105.5t124 -198.5t41 -305h-410q-4 87 -19.5 144
t-44.5 88t-65 43t-88 12q-48 0 -83 -11t-65 -40t-48.5 -77.5t-28.5 -124.5t-10 -180q0 -130 14.5 -215.5t46.5 -132t72.5 -64.5t101.5 -18q53 0 88.5 12t64.5 44t44.5 92t19.5 151h412z" />
    <glyph glyph-name="cdotaccent" unicode="&#x10b;" horiz-adv-x="1261" 
d="M432 1264v321h410v-321h-410zM1208 438q-8 -116 -38 -199t-92.5 -147.5t-169 -96.5t-259.5 -32q-158 0 -270 38.5t-180.5 116t-99.5 186t-31 257.5q0 302 135.5 451t445.5 149q153 0 260 -33.5t170 -100t93 -154.5t36 -209h-403q-4 105 -42.5 149.5t-113.5 44.5
q-89 0 -126.5 -66t-37.5 -231t37.5 -229t126.5 -64q72 0 111 39.5t45 130.5h403z" />
    <glyph glyph-name="Ccaron" unicode="&#x10c;" horiz-adv-x="1413" 
d="M1192 1935l-266 -329h-381l-248 329h303l135 -135l137 135h320zM1358 610q-1 -185 -42 -312.5t-124 -202t-195 -106.5t-268 -32q-168 0 -287.5 40t-205 130.5t-127 242.5t-41.5 371q0 220 41.5 372.5t127 243.5t205 131t287.5 40q155 0 267 -32t195 -105.5t124 -198.5
t41 -305h-410q-4 87 -19.5 144t-44.5 88t-65 43t-88 12q-48 0 -83 -11t-65 -40t-48.5 -77.5t-28.5 -124.5t-10 -180q0 -130 14.5 -215.5t46.5 -132t72.5 -64.5t101.5 -18q53 0 88.5 12t64.5 44t44.5 92t19.5 151h412z" />
    <glyph glyph-name="ccaron" unicode="&#x10d;" horiz-adv-x="1261" 
d="M1085 1624l-282 -364h-348l-265 364h302l137 -129l139 129h317zM1208 438q-8 -116 -38 -199t-92.5 -147.5t-169 -96.5t-259.5 -32q-158 0 -270 38.5t-180.5 116t-99.5 186t-31 257.5q0 302 135.5 451t445.5 149q153 0 260 -33.5t170 -100t93 -154.5t36 -209h-403
q-4 105 -42.5 149.5t-113.5 44.5q-89 0 -126.5 -66t-37.5 -231t37.5 -229t126.5 -64q72 0 111 39.5t45 130.5h403z" />
    <glyph glyph-name="Dcaron" unicode="&#x10e;" horiz-adv-x="1468" 
d="M1153 1919l-266 -330h-381l-248 330h303l135 -135l138 135h319zM119 1487h493q168 0 291 -18t211 -59.5t143.5 -98t87.5 -145t44 -187.5t12 -238q0 -104 -6.5 -184t-22.5 -154.5t-43.5 -129t-70.5 -102t-102 -78t-138.5 -53t-179.5 -32.5t-226 -10h-493v1489zM543 1133
v-787h149q105 0 162.5 30.5t87 116.5t29.5 248q0 161 -29.5 246.5t-87 115.5t-162.5 30h-149z" />
    <glyph glyph-name="dcaron" unicode="&#x10f;" horiz-adv-x="1320" 
d="M1253 1130l125 426h310l-209 -426h-226zM885 0l-33 119q-117 -146 -340 -146q-231 0 -337.5 143.5t-106.5 442.5t107 446.5t337 147.5q170 0 291 -100v499h407v-1220l21 -332h-346zM641 276q89 0 162 80v414q-69 76 -158 76q-83 0 -123.5 -68.5t-40.5 -218.5
q0 -148 40 -215.5t120 -67.5z" />
    <glyph glyph-name="Dcroat" unicode="&#x110;" horiz-adv-x="1468" 
d="M119 645h-123v193h123v649h493q168 0 291 -18t211 -59.5t143.5 -98t87.5 -145t44 -187.5t12 -238q0 -104 -6.5 -184t-22.5 -154.5t-43.5 -129t-70.5 -102t-102 -78t-138.5 -53t-179.5 -32.5t-226 -10h-493v647zM543 645v-299h149q105 0 162.5 30.5t87 116.5t29.5 248
q0 161 -29.5 246.5t-87 115.5t-162.5 30h-149v-295h198v-193h-198z" />
    <glyph glyph-name="dcroat" unicode="&#x111;" horiz-adv-x="1320" 
d="M1210 1210v-878l21 -332h-346l-33 119q-117 -146 -340 -146q-231 0 -337.5 143.5t-106.5 442.5t107 446.5t337 147.5q170 0 291 -100v157h-223v193h223v149h407v-149h115v-193h-115zM641 276q89 0 162 80v414q-69 76 -158 76q-83 0 -123.5 -68.5t-40.5 -218.5
q0 -148 40 -215.5t120 -67.5z" />
    <glyph glyph-name="Emacron" unicode="&#x112;" horiz-adv-x="1230" 
d="M287 1876h702v-274h-702v274zM119 0v1485h1050v-334h-634v-248h532v-303h-532v-266h649v-334h-1065z" />
    <glyph glyph-name="emacron" unicode="&#x113;" horiz-adv-x="1286" 
d="M307 1546h703v-241h-703v241zM1219 371q-31 -408 -566 -408q-311 0 -448 149t-137 449q0 301 137 450.5t448 149.5q309 0 438.5 -158t129.5 -520h-734q7 -137 45 -191t119 -54q82 0 122.5 37.5t43.5 95.5h402zM651 913q-76 0 -113 -46t-49 -165h318q-14 123 -50.5 167
t-105.5 44z" />
    <glyph glyph-name="Ebreve" unicode="&#x114;" horiz-adv-x="1230" 
d="M1057 1905q0 -48 -12.5 -93.5t-43.5 -91t-77.5 -78.5t-120 -54t-164.5 -21t-164.5 21t-120 54t-77.5 78.5t-43.5 91t-12.5 93.5h293q0 -37 38 -63.5t87 -26.5t88 26.5t39 63.5h291zM119 0v1485h1050v-334h-634v-248h532v-303h-532v-266h649v-334h-1065z" />
    <glyph glyph-name="ebreve" unicode="&#x115;" horiz-adv-x="1286" 
d="M1096 1612q0 -48 -13 -95.5t-45 -96t-80.5 -85t-125.5 -59.5t-173 -23t-173 23t-125 59.5t-80 85t-45 96t-13 95.5h309q0 -41 35 -75t92 -34t93 34t36 75h308zM1219 371q-31 -408 -566 -408q-311 0 -448 149t-137 449q0 301 137 450.5t448 149.5q309 0 438.5 -158
t129.5 -520h-734q7 -137 45 -191t119 -54q82 0 122.5 37.5t43.5 95.5h402zM651 913q-76 0 -113 -46t-49 -165h318q-14 123 -50.5 167t-105.5 44z" />
    <glyph glyph-name="Edotaccent" unicode="&#x116;" horiz-adv-x="1230" 
d="M434 1589v326h410v-326h-410zM119 0v1485h1050v-334h-634v-248h532v-303h-532v-266h649v-334h-1065z" />
    <glyph glyph-name="edotaccent" unicode="&#x117;" horiz-adv-x="1286" 
d="M455 1264v321h409v-321h-409zM1219 371q-31 -408 -566 -408q-311 0 -448 149t-137 449q0 301 137 450.5t448 149.5q309 0 438.5 -158t129.5 -520h-734q7 -137 45 -191t119 -54q82 0 122.5 37.5t43.5 95.5h402zM651 913q-76 0 -113 -46t-49 -165h318q-14 123 -50.5 167
t-105.5 44z" />
    <glyph glyph-name="Eogonek" unicode="&#x118;" horiz-adv-x="1230" 
d="M647 -270q0 45 17 88t39.5 72t51.5 55t45 37t29 18h-710v1485h1050v-334h-634v-248h532v-303h-532v-266h649v-334h-62q-5 -3 -13 -8.5t-29 -23.5t-37 -37.5t-29 -49t-13 -59.5q0 -28 17 -48t49 -20q22 0 46.5 7t38.5 13l13 7v-189q-2 -2 -7.5 -6t-26 -14.5t-46.5 -18
t-71.5 -14t-98.5 -6.5q-77 0 -132.5 18.5t-83.5 49.5t-40 63t-12 66z" />
    <glyph glyph-name="eogonek" unicode="&#x119;" horiz-adv-x="1286" 
d="M571 -213q0 95 70 176q-305 3 -439 152t-134 446q0 301 137 450.5t448 149.5q309 0 438.5 -158t129.5 -520h-734q7 -137 45 -191t119 -54q82 0 122.5 37.5t43.5 95.5h402q-18 -228 -197 -332q-96 -74 -96 -160q0 -28 16.5 -47.5t48.5 -19.5q22 0 46.5 6.5t38.5 13.5l14 6
v-188q-2 -2 -7.5 -6.5t-26 -14.5t-46.5 -18t-71.5 -14.5t-98.5 -6.5q-62 0 -111 13t-78 32.5t-47.5 46.5t-25.5 52.5t-7 52.5zM651 913q-76 0 -113 -46t-49 -165h318q-14 123 -50.5 167t-105.5 44z" />
    <glyph glyph-name="Ecaron" unicode="&#x11a;" horiz-adv-x="1230" 
d="M1096 1919l-267 -330h-380l-248 330h303l135 -135l137 135h320zM119 0v1485h1050v-334h-634v-248h532v-303h-532v-266h649v-334h-1065z" />
    <glyph glyph-name="ecaron" unicode="&#x11b;" horiz-adv-x="1286" 
d="M1108 1624l-283 -364h-348l-264 364h301l137 -129l140 129h317zM1219 371q-31 -408 -566 -408q-311 0 -448 149t-137 449q0 301 137 450.5t448 149.5q309 0 438.5 -158t129.5 -520h-734q7 -137 45 -191t119 -54q82 0 122.5 37.5t43.5 95.5h402zM651 913q-76 0 -113 -46
t-49 -165h318q-14 123 -50.5 167t-105.5 44z" />
    <glyph glyph-name="Gcircumflex" unicode="&#x11c;" horiz-adv-x="1423" 
d="M1182 1606h-320l-137 133l-135 -133h-303l248 329h380zM1339 203q0 -5 -20 -29t-68 -61t-114.5 -71.5t-175.5 -59t-234 -25.5q-168 -1 -287.5 38.5t-204.5 130.5t-126 243t-41 372t41 372.5t126 243.5t204.5 131t287.5 40q319 0 465.5 -141t146.5 -449h-393
q-7 128 -62 182t-157 54q-60 0 -100.5 -18.5t-72 -65.5t-46 -133t-14.5 -216q0 -136 15.5 -225t49 -137t76.5 -66t106 -18q103 0 162.5 32.5t57.5 73.5v127h-207v254h585v-579z" />
    <glyph glyph-name="gcircumflex" unicode="&#x11d;" horiz-adv-x="1320" 
d="M1108 1260h-317l-140 139l-137 -139h-313l276 364h348zM1210 -6v-21q0 -54 -1 -84.5t-11.5 -86.5t-30.5 -90.5t-61.5 -78t-100 -68t-150.5 -42t-210 -17.5q-92 0 -169 13.5t-130 36.5t-94.5 52.5t-66 62.5t-41.5 66t-23.5 62.5t-9.5 52.5t-3 36l1 14h409q0 -19 0.5 -29
t7.5 -33.5t20 -36.5t41.5 -24.5t69.5 -11.5q30 0 53 5t38.5 12.5t26 24.5t16 31t8.5 42t3.5 49t0.5 59v80q-108 -97 -291 -97q-231 0 -337.5 143.5t-106.5 442.5t107 446.5t337 147.5q67 0 126 -15.5t101 -41t67.5 -47t45.5 -43.5l33 120h346l-21 -331v-801zM641 276
q89 0 162 80v414q-69 76 -158 76q-83 0 -123.5 -68.5t-40.5 -218.5q0 -148 40 -215.5t120 -67.5z" />
    <glyph glyph-name="Gbreve" unicode="&#x11e;" horiz-adv-x="1423" 
d="M1143 1921q0 -48 -12.5 -93.5t-43.5 -91t-77.5 -78.5t-120 -54t-164.5 -21t-164.5 21t-120 54t-77.5 78.5t-43.5 91t-12.5 93.5h293q0 -37 38 -63.5t87 -26.5t88 26.5t39 63.5h291zM1339 203q0 -5 -20 -29t-68 -61t-114.5 -71.5t-175.5 -59t-234 -25.5
q-168 -1 -287.5 38.5t-204.5 130.5t-126 243t-41 372t41 372.5t126 243.5t204.5 131t287.5 40q319 0 465.5 -141t146.5 -449h-393q-7 128 -62 182t-157 54q-60 0 -100.5 -18.5t-72 -65.5t-46 -133t-14.5 -216q0 -136 15.5 -225t49 -137t76.5 -66t106 -18q103 0 162.5 32.5
t57.5 73.5v127h-207v254h585v-579z" />
    <glyph glyph-name="gbreve" unicode="&#x11f;" horiz-adv-x="1320" 
d="M1094 1612q0 -48 -13 -95.5t-45 -96t-80.5 -85t-125.5 -59.5t-173 -23t-173 23t-125 59.5t-80 85t-45 96t-13 95.5h309q0 -41 35 -75t92 -34t93 34t36 75h308zM1210 -6v-21q0 -54 -1 -84.5t-11.5 -86.5t-30.5 -90.5t-61.5 -78t-100 -68t-150.5 -42t-210 -17.5
q-92 0 -169 13.5t-130 36.5t-94.5 52.5t-66 62.5t-41.5 66t-23.5 62.5t-9.5 52.5t-3 36l1 14h409q0 -19 0.5 -29t7.5 -33.5t20 -36.5t41.5 -24.5t69.5 -11.5q30 0 53 5t38.5 12.5t26 24.5t16 31t8.5 42t3.5 49t0.5 59v80q-108 -97 -291 -97q-231 0 -337.5 143.5
t-106.5 442.5t107 446.5t337 147.5q67 0 126 -15.5t101 -41t67.5 -47t45.5 -43.5l33 120h346l-21 -331v-801zM641 276q89 0 162 80v414q-69 76 -158 76q-83 0 -123.5 -68.5t-40.5 -218.5q0 -148 40 -215.5t120 -67.5z" />
    <glyph glyph-name="Gdotaccent" unicode="&#x120;" horiz-adv-x="1423" 
d="M520 1606v325h410v-325h-410zM1339 203q0 -5 -20 -29t-68 -61t-114.5 -71.5t-175.5 -59t-234 -25.5q-168 -1 -287.5 38.5t-204.5 130.5t-126 243t-41 372t41 372.5t126 243.5t204.5 131t287.5 40q319 0 465.5 -141t146.5 -449h-393q-7 128 -62 182t-157 54
q-60 0 -100.5 -18.5t-72 -65.5t-46 -133t-14.5 -216q0 -136 15.5 -225t49 -137t76.5 -66t106 -18q103 0 162.5 32.5t57.5 73.5v127h-207v254h585v-579z" />
    <glyph glyph-name="gdotaccent" unicode="&#x121;" horiz-adv-x="1320" 
d="M453 1264v321h409v-321h-409zM1210 -6v-21q0 -54 -1 -84.5t-11.5 -86.5t-30.5 -90.5t-61.5 -78t-100 -68t-150.5 -42t-210 -17.5q-92 0 -169 13.5t-130 36.5t-94.5 52.5t-66 62.5t-41.5 66t-23.5 62.5t-9.5 52.5t-3 36l1 14h409q0 -19 0.5 -29t7.5 -33.5t20 -36.5
t41.5 -24.5t69.5 -11.5q30 0 53 5t38.5 12.5t26 24.5t16 31t8.5 42t3.5 49t0.5 59v80q-108 -97 -291 -97q-231 0 -337.5 143.5t-106.5 442.5t107 446.5t337 147.5q67 0 126 -15.5t101 -41t67.5 -47t45.5 -43.5l33 120h346l-21 -331v-801zM641 276q89 0 162 80v414
q-69 76 -158 76q-83 0 -123.5 -68.5t-40.5 -218.5q0 -148 40 -215.5t120 -67.5z" />
    <glyph glyph-name="Gcommaaccent" unicode="&#x122;" horiz-adv-x="1423" 
d="M1339 203q0 -5 -20 -29t-68 -61t-114.5 -71.5t-175.5 -59t-234 -25.5q-168 -1 -287.5 38.5t-204.5 130.5t-126 243t-41 372t41 372.5t126 243.5t204.5 131t287.5 40q319 0 465.5 -141t146.5 -449h-393q-7 128 -62 182t-157 54q-60 0 -100.5 -18.5t-72 -65.5t-46 -133
t-14.5 -216q0 -136 15.5 -225t49 -137t76.5 -66t106 -18q103 0 162.5 32.5t57.5 73.5v127h-207v254h585v-579zM508 -633q32 100 67 264q16 71 24.5 137.5t9.5 97.5l1 30h346q-14 -143 -67 -297q-30 -84 -61 -142t-46 -74l-16 -16h-258z" />
    <glyph glyph-name="gcommaaccent" unicode="&#x123;" horiz-adv-x="1320" 
d="M928 1757q-35 -102 -72 -272q-16 -75 -25 -142t-9 -97l-1 -29h-346q13 141 68 303q30 87 62 146t49 75l16 16h258zM1210 -6v-21q0 -54 -1 -84.5t-11.5 -86.5t-30.5 -90.5t-61.5 -78t-100 -68t-150.5 -42t-210 -17.5q-92 0 -169 13.5t-130 36.5t-94.5 52.5t-66 62.5
t-41.5 66t-23.5 62.5t-9.5 52.5t-3 36l1 14h409q0 -19 0.5 -29t7.5 -33.5t20 -36.5t41.5 -24.5t69.5 -11.5q30 0 53 5t38.5 12.5t26 24.5t16 31t8.5 42t3.5 49t0.5 59v80q-108 -97 -291 -97q-231 0 -337.5 143.5t-106.5 442.5t107 446.5t337 147.5q67 0 126 -15.5t101 -41
t67.5 -47t45.5 -43.5l33 120h346l-21 -331v-801zM641 276q89 0 162 80v414q-69 76 -158 76q-83 0 -123.5 -68.5t-40.5 -218.5q0 -148 40 -215.5t120 -67.5z" />
    <glyph glyph-name="Hcircumflex" unicode="&#x124;" horiz-adv-x="1474" 
d="M1186 1589h-320l-137 133l-135 -133h-303l248 330h381zM119 0v1485h416v-547h405v547h418v-1485h-418v565h-405v-565h-416z" />
    <glyph glyph-name="hcircumflex" unicode="&#x125;" horiz-adv-x="1341" 
d="M766 1618h-320l-137 133l-135 -133h-303l248 330h381zM109 0v1552h409v-546q152 137 340 137q211 0 295 -119.5t84 -392.5l-2 -631h-408v623q0 163 -127 163q-111 0 -182 -122v-664h-409z" />
    <glyph glyph-name="Hbar" unicode="&#x126;" horiz-adv-x="1474" 
d="M1358 1133v-1133h-418v565h-405v-565h-416v1133h-139v159h139v193h416v-193h405v193h418v-193h121v-159h-121zM940 938v195h-405v-195h405z" />
    <glyph glyph-name="hbar" unicode="&#x127;" horiz-adv-x="1341" 
d="M518 1217v-211q152 137 340 137q211 0 295 -119.5t84 -392.5l-2 -631h-408v623q0 163 -127 163q-111 0 -182 -122v-664h-409v1217h-134v192h134v143h409v-143h203v-192h-203z" />
    <glyph glyph-name="Itilde" unicode="&#x128;" horiz-adv-x="651" 
d="M754 1956q0 -180 -55.5 -274.5t-194.5 -94.5q-62 0 -112 14.5t-76.5 32.5t-61 32.5t-70.5 14.5q-56 0 -83 -33t-27 -63h-174q0 86 12 150.5t40 115.5t78 77t122 26q61 0 110.5 -14.5t75.5 -32.5t60.5 -32.5t70.5 -14.5q57 0 84 33t27 63h174zM119 0v1485h416v-1485h-416z
" />
    <glyph glyph-name="itilde" unicode="&#x129;" horiz-adv-x="624" 
d="M737 1642q0 -180 -55.5 -274t-194.5 -94q-61 0 -110.5 14.5t-77 32.5t-62 32.5t-69.5 14.5q-57 0 -84 -32.5t-27 -63.5h-174q0 179 56 273.5t194 94.5q61 0 111.5 -14.5t77.5 -32.5t62 -32.5t71 -14.5q55 0 81.5 33t26.5 63h174zM106 0v1126h410v-1126h-410z" />
    <glyph glyph-name="Imacron" unicode="&#x12a;" horiz-adv-x="651" 
d="M-25 1876h703v-274h-703v274zM119 0v1485h416v-1485h-416z" />
    <glyph glyph-name="imacron" unicode="&#x12b;" horiz-adv-x="624" 
d="M-41 1546h703v-241h-703v241zM106 0v1126h410v-1126h-410z" />
    <glyph glyph-name="Ibreve" unicode="&#x12c;" horiz-adv-x="651" 
d="M745 1905q0 -48 -12.5 -93.5t-43.5 -91t-77 -78.5t-119.5 -54t-164.5 -21t-164.5 21t-120 54t-77.5 78.5t-43.5 91t-12.5 93.5h293q0 -37 38 -63.5t87 -26.5t88 26.5t39 63.5h290zM119 0v1485h416v-1485h-416z" />
    <glyph glyph-name="ibreve" unicode="&#x12d;" horiz-adv-x="624" 
d="M748 1612q0 -48 -13 -95.5t-45 -96t-80.5 -85t-125.5 -59.5t-173 -23t-173 23t-125 59.5t-80 85t-45 96t-13 95.5h309q0 -41 35 -75t92 -34t93 34t36 75h308zM106 0v1126h410v-1126h-410z" />
    <glyph glyph-name="Iogonek" unicode="&#x12e;" horiz-adv-x="651" 
d="M-61 -268q0 43 16 85t37 70.5t49 54t45.5 37.5t32.5 21v1485h416v-1485h-125q-12 -7 -26 -19t-37.5 -35t-38.5 -55.5t-15 -66.5q0 -29 16.5 -48.5t48.5 -19.5q22 0 46.5 7t38.5 13l14 7v-189q-2 -2 -7.5 -6t-26 -14.5t-46.5 -18t-71.5 -14t-98.5 -6.5q-77 0 -132.5 18.5
t-83.5 49.5t-40 63t-12 66z" />
    <glyph glyph-name="iogonek" unicode="&#x12f;" horiz-adv-x="624" 
d="M106 1264v321h410v-321h-410zM-74 -264q0 43 16 85t37 70.5t49 54t45.5 37.5t32.5 21v1122h410v-1126h-125q-14 -9 -29 -22.5t-35.5 -35.5t-33 -52.5t-12.5 -61.5q0 -29 16.5 -48.5t48.5 -19.5q22 0 46.5 7t37.5 13l14 7v-188q-2 -2 -7.5 -6.5t-26 -14.5t-46 -18
t-71 -14.5t-98.5 -6.5q-62 0 -111 13t-78 32.5t-47.5 46.5t-25.5 52.5t-7 52.5z" />
    <glyph glyph-name="Idotaccent" unicode="&#x130;" horiz-adv-x="651" 
d="M123 1589v326h409v-326h-409zM119 0v1485h416v-1485h-416z" />
    <glyph glyph-name="dotlessi" unicode="&#x131;" horiz-adv-x="624" 
d="M106 0v1126h410v-1126h-410z" />
    <glyph glyph-name="IJ" unicode="&#x132;" horiz-adv-x="1548" 
d="M119 0v1485h416v-1485h-416zM1442 672q0 -139 -7 -225.5t-30 -170.5t-65.5 -129.5t-116 -82.5t-178 -50.5t-254.5 -13.5h-129v360h129q92 0 140 24.5t70.5 91t22.5 196.5l2 813h416v-813z" />
    <glyph glyph-name="ij" unicode="&#x133;" horiz-adv-x="1292" 
d="M106 1264v321h410v-321h-410zM774 1264v321h410v-321h-410zM106 0v1126h410v-1126h-410zM1184 186q0 -75 -1 -117.5t-7 -108t-17.5 -103.5t-33.5 -89t-54.5 -80.5t-81 -62.5t-111.5 -50t-148 -28.5t-189 -11.5v350q50 0 87 7t62.5 15.5t42 31.5t25 40t13 56.5t5 65.5
t0.5 82v3v940h408v-940z" />
    <glyph glyph-name="Jcircumflex" unicode="&#x134;" horiz-adv-x="897" 
d="M1034 1589h-319l-137 133l-136 -133h-303l248 330h381zM791 672q0 -103 -3.5 -173.5t-15 -142.5t-31 -118t-53.5 -89.5t-81.5 -68.5t-115 -45t-153.5 -27.5t-199 -7.5h-129v360h129q69 0 111 12.5t71.5 47t40.5 94.5t11 158l2 813h416v-813z" />
    <glyph glyph-name="jcircumflex" unicode="&#x135;" horiz-adv-x="634" 
d="M772 1260h-317l-140 139l-137 -139h-313l276 364h348zM526 186q0 -75 -1 -117.5t-7 -108t-17.5 -103.5t-33.5 -89t-54.5 -80.5t-81 -62.5t-111.5 -50t-148 -28.5t-189 -11.5v350q50 0 87 7t63 15.5t42 32t25 40.5t13.5 57t5 66t0.5 83v940h407v-940z" />
    <glyph glyph-name="Kcommaaccent" unicode="&#x136;" horiz-adv-x="1458" 
d="M119 0v1485h416v-686l452 686h455l-445 -600l455 -885h-446l-265 543l-206 -281v-262h-416zM524 -625q33 101 68 265q16 71 24.5 137t9.5 97l1 30h346q-15 -143 -68 -297q-30 -84 -61 -142t-46 -74l-16 -16h-258z" />
    <glyph glyph-name="kcommaaccent" unicode="&#x137;" horiz-adv-x="1232" 
d="M109 0v1552h395v-850l284 424h431l-353 -440l377 -686h-455l-170 377l-114 -146v-231h-395zM401 -625q33 101 68 265q16 71 24.5 137t9.5 97l1 30h346q-15 -143 -68 -297q-30 -84 -61 -142t-47 -74l-15 -16h-258z" />
    <glyph glyph-name="kgreenlandic" unicode="&#x138;" horiz-adv-x="1232" 
d="M109 0v1126h395v-424l284 424h431l-353 -440l377 -686h-455l-170 377l-114 -146v-231h-395z" />
    <glyph glyph-name="Lacute" unicode="&#x139;" horiz-adv-x="1077" 
d="M115 1589l196 314h477l-247 -314h-426zM119 0v1485h416v-1118h528v-367h-944z" />
    <glyph glyph-name="lacute" unicode="&#x13a;" horiz-adv-x="626" 
d="M90 1647l197 313h477l-248 -313h-426zM109 0l2 1552h407l-2 -1552h-407z" />
    <glyph glyph-name="Lcommaaccent" unicode="&#x13b;" horiz-adv-x="1077" 
d="M119 0v1485h416v-1118h528v-367h-944zM307 -625q33 101 68 265q16 71 24.5 137t9.5 97l1 30h346q-15 -143 -68 -297q-30 -84 -61 -142t-47 -74l-15 -16h-258z" />
    <glyph glyph-name="lcommaaccent" unicode="&#x13c;" horiz-adv-x="626" 
d="M109 0l2 1552h407l-2 -1552h-407zM43 -625q33 101 68 265q16 71 24.5 137t8.5 97l1 30h347q-15 -143 -68 -297q-30 -84 -61 -142t-47 -74l-15 -16h-258z" />
    <glyph glyph-name="Lcaron" unicode="&#x13d;" horiz-adv-x="1077" 
d="M623 1100l141 471h326l-191 -471h-276zM119 0v1485h416v-1118h528v-367h-944z" />
    <glyph glyph-name="lcaron" unicode="&#x13e;" horiz-adv-x="626" 
d="M561 1130l125 426h309l-209 -426h-225zM109 0l2 1552h407l-2 -1552h-407z" />
    <glyph glyph-name="Ldot" unicode="&#x13f;" horiz-adv-x="1058" 
d="M119 0v1485h434v-1100h475v-385h-909zM645 631v325h410v-325h-410z" />
    <glyph glyph-name="ldot" unicode="&#x140;" horiz-adv-x="1038" 
d="M143 0v1556h408v-1556h-408zM610 588v325h410v-325h-410z" />
    <glyph glyph-name="Lslash" unicode="&#x141;" horiz-adv-x="1077" 
d="M535 788v-421h528v-367h-944v586l-146 -72l-104 221l250 121v629h416v-426l165 82l105 -219z" />
    <glyph glyph-name="lslash" unicode="&#x142;" horiz-adv-x="626" 
d="M109 0v545l-150 -74l-104 221l254 125l2 735h407l-2 -536l170 82l105 -219l-275 -136v-743h-407z" />
    <glyph glyph-name="Nacute" unicode="&#x143;" horiz-adv-x="1552" 
d="M551 1589l197 314h477l-248 -314h-426zM485 985l21 -985h-387l2 1485h489l461 -959l-22 959h387v-1485h-492z" />
    <glyph glyph-name="nacute" unicode="&#x144;" horiz-adv-x="1337" 
d="M492 1266l198 368h410l-248 -368h-360zM113 0v817l-21 309h348l41 -155q20 23 49 47.5t76.5 55t113.5 50t136 19.5q212 0 294.5 -124.5t82.5 -422.5v-596h-408v588q0 104 -29 151t-98 47q-60 0 -105 -34t-71 -78v-674h-409z" />
    <glyph glyph-name="Ncommaaccent" unicode="&#x145;" horiz-adv-x="1552" 
d="M485 985l21 -985h-387l2 1485h489l461 -959l-22 959h387v-1485h-492zM551 -625q32 101 67 265q16 71 24.5 137t9.5 97l1 30h346q-14 -143 -67 -297q-30 -84 -61 -142t-47 -74l-15 -16h-258z" />
    <glyph glyph-name="ncommaaccent" unicode="&#x146;" horiz-adv-x="1337" 
d="M113 0v817l-21 309h348l41 -155q20 23 49 47.5t76.5 55t113.5 50t136 19.5q212 0 294.5 -124.5t82.5 -422.5v-596h-408v588q0 104 -29 151t-98 47q-60 0 -105 -34t-71 -78v-674h-409zM416 -625q32 101 67 265q16 71 24.5 137t9.5 97l1 30h346q-14 -143 -67 -297
q-30 -84 -61 -142t-46 -74l-16 -16h-258z" />
    <glyph glyph-name="Ncaron" unicode="&#x147;" horiz-adv-x="1552" 
d="M1227 1919l-266 -330h-381l-248 330h303l135 -135l137 135h320zM485 985l21 -985h-387l2 1485h489l461 -959l-22 959h387v-1485h-492z" />
    <glyph glyph-name="ncaron" unicode="&#x148;" horiz-adv-x="1337" 
d="M1120 1624l-282 -364h-349l-264 364h301l138 -129l139 129h317zM113 0v817l-21 309h348l41 -155q20 23 49 47.5t76.5 55t113.5 50t136 19.5q212 0 294.5 -124.5t82.5 -422.5v-596h-408v588q0 104 -29 151t-98 47q-60 0 -105 -34t-71 -78v-674h-409z" />
    <glyph glyph-name="Eng" unicode="&#x14a;" horiz-adv-x="1552" 
d="M1436 1485v-1485q0 -66 -9.5 -121t-32.5 -112t-65.5 -100.5t-104.5 -78t-155 -53t-211 -18.5h-113v311h113q111 0 167 38.5t56 133.5l-596 930l21 -930h-387l2 1485h438l508 -819l-18 819h387z" />
    <glyph glyph-name="eng" unicode="&#x14b;" horiz-adv-x="1339" 
d="M102 0v817l-10 309h338l43 -165q16 20 43.5 45t76 59t118.5 56t145 22q212 0 294.5 -124.5t82.5 -422.5v-4l2 -399q0 -74 -1 -117.5t-7 -108.5t-18 -103t-34 -89t-54.5 -80.5t-81 -63t-112 -50.5t-148.5 -28.5t-189 -11.5v350q49 0 85 6t61.5 16t41.5 30t25 39t13 53.5
t5.5 64t1.5 78.5v15l2 393v2q0 104 -29 151t-98 47q-48 0 -89.5 -25.5t-61 -51t-35.5 -54.5v-655h-410z" />
    <glyph glyph-name="Omacron" unicode="&#x14c;" horiz-adv-x="1460" 
d="M379 1892h702v-274h-702v274zM1393 741q0 -219 -41.5 -371t-127.5 -242.5t-205.5 -130.5t-287.5 -40q-134 0 -236.5 25t-184.5 81t-134.5 147t-80 223t-27.5 308q0 220 41.5 372.5t127.5 243.5t206 131t288 40t287.5 -40t205.5 -131t127.5 -243.5t41.5 -372.5zM494 741
q0 -130 15 -215.5t46.5 -132t73 -64.5t102.5 -18t102 18t72.5 64.5t46.5 132t15 215.5t-15 216t-46.5 133t-73 65.5t-101.5 18.5q-61 0 -102.5 -18.5t-73 -65.5t-46.5 -133t-15 -216z" />
    <glyph glyph-name="omacron" unicode="&#x14d;" horiz-adv-x="1308" 
d="M303 1542h703v-242h-703v242zM1241 561q0 -300 -137 -449t-449 -149q-160 0 -273 38.5t-182 116t-100.5 186t-31.5 257.5q0 302 137 451.5t450 150.5q312 0 449 -150t137 -452zM485 561q0 -163 38 -227t132 -64q93 0 130.5 64t37.5 227q0 165 -37.5 230t-130.5 65
q-94 0 -132 -65t-38 -230z" />
    <glyph glyph-name="Obreve" unicode="&#x14e;" horiz-adv-x="1460" 
d="M1149 1921q0 -48 -12.5 -93.5t-43.5 -91t-77.5 -78.5t-120 -54t-164.5 -21t-164.5 21t-120 54t-77.5 78.5t-43.5 91t-12.5 93.5h293q0 -37 38 -63.5t87 -26.5t88 26.5t39 63.5h291zM1393 741q0 -219 -41.5 -371t-127.5 -242.5t-205.5 -130.5t-287.5 -40q-134 0 -236.5 25
t-184.5 81t-134.5 147t-80 223t-27.5 308q0 220 41.5 372.5t127.5 243.5t206 131t288 40t287.5 -40t205.5 -131t127.5 -243.5t41.5 -372.5zM494 741q0 -130 15 -215.5t46.5 -132t73 -64.5t102.5 -18t102 18t72.5 64.5t46.5 132t15 215.5t-15 216t-46.5 133t-73 65.5
t-101.5 18.5q-61 0 -102.5 -18.5t-73 -65.5t-46.5 -133t-15 -216z" />
    <glyph glyph-name="obreve" unicode="&#x14f;" horiz-adv-x="1308" 
d="M1092 1608q0 -48 -13 -95.5t-45 -96t-80.5 -85t-125.5 -59.5t-173 -23t-173 23t-125 59.5t-80 85t-45 96t-13 95.5h309q0 -41 35 -75t92 -34t93 34t36 75h308zM1241 561q0 -300 -137 -449t-449 -149q-160 0 -273 38.5t-182 116t-100.5 186t-31.5 257.5q0 302 137 451.5
t450 150.5q312 0 449 -150t137 -452zM485 561q0 -163 38 -227t132 -64q93 0 130.5 64t37.5 227q0 165 -37.5 230t-130.5 65q-94 0 -132 -65t-38 -230z" />
    <glyph glyph-name="Ohungarumlaut" unicode="&#x150;" horiz-adv-x="1460" 
d="M274 1612l195 311h410l-244 -311h-361zM748 1612l247 311h410l-297 -311h-360zM1393 741q0 -219 -41.5 -371t-127.5 -242.5t-205.5 -130.5t-287.5 -40q-134 0 -236.5 25t-184.5 81t-134.5 147t-80 223t-27.5 308q0 220 41.5 372.5t127.5 243.5t206 131t288 40t287.5 -40
t205.5 -131t127.5 -243.5t41.5 -372.5zM494 741q0 -130 15 -215.5t46.5 -132t73 -64.5t102.5 -18t102 18t72.5 64.5t46.5 132t15 215.5t-15 216t-46.5 133t-73 65.5t-101.5 18.5q-61 0 -102.5 -18.5t-73 -65.5t-46.5 -133t-15 -216z" />
    <glyph glyph-name="ohungarumlaut" unicode="&#x151;" horiz-adv-x="1308" 
d="M180 1262l197 368h409l-245 -368h-361zM655 1262l248 368h410l-299 -368h-359zM1241 561q0 -300 -137 -449t-449 -149q-160 0 -273 38.5t-182 116t-100.5 186t-31.5 257.5q0 302 137 451.5t450 150.5q312 0 449 -150t137 -452zM485 561q0 -163 38 -227t132 -64
q93 0 130.5 64t37.5 227q0 165 -37.5 230t-130.5 65q-94 0 -132 -65t-38 -230z" />
    <glyph glyph-name="OE" unicode="&#x152;" horiz-adv-x="1978" 
d="M727 0q-137 0 -238 21t-183.5 71.5t-133 135.5t-77.5 212t-27 301q0 217 40 362.5t125.5 229t203.5 118t290 34.5h1188v-334h-633v-248h530v-303h-530v-266h649v-334h-1204zM496 741q0 -102 10 -176t28.5 -122t48.5 -76t65 -39t83 -11h135v850h-135q-60 0 -101.5 -18.5
t-72.5 -65t-46 -131t-15 -211.5z" />
    <glyph glyph-name="oe" unicode="&#x153;" horiz-adv-x="2045" 
d="M1978 371q-31 -408 -565 -408q-264 0 -379 115q-115 -115 -379 -115q-160 0 -273 38.5t-182 116t-100.5 186t-31.5 257.5q0 302 137 451.5t450 150.5q266 0 379 -116q114 114 379 114q309 0 438 -158t129 -520h-733q7 -137 45 -191t119 -54q82 0 121.5 37t44.5 96h401z
M1409 913q-76 0 -113 -46.5t-47 -164.5h316q-14 123 -50.5 167t-105.5 44zM485 561q0 -168 37.5 -229.5t132.5 -61.5q94 0 131 62t37 229q0 169 -37 232t-131 63q-95 0 -132.5 -63t-37.5 -232z" />
    <glyph glyph-name="Racute" unicode="&#x154;" horiz-adv-x="1460" 
d="M465 1589l197 314h477l-248 -314h-426zM119 0v1487h624q147 0 250 -15.5t183 -51.5t126.5 -98.5t69.5 -153.5t23 -220q0 -190 -49.5 -298.5t-161.5 -162.5l211 -487h-447l-153 420h-260v-420h-416zM535 1151v-397h161q76 0 121 6.5t81.5 26.5t51.5 59t15 104q0 53 -11 89
t-30 58.5t-54.5 34t-74.5 15.5t-99 4h-161z" />
    <glyph glyph-name="racute" unicode="&#x155;" horiz-adv-x="911" 
d="M289 1266l198 368h410l-248 -368h-360zM113 0v786l-21 340h350l43 -196q11 30 27.5 57.5t49 60t74 56t106 39.5t141.5 16v-356q-78 0 -141 -21t-100 -49.5t-64.5 -67.5t-38.5 -65t-17 -51v-549h-409z" />
    <glyph glyph-name="Rcommaaccent" unicode="&#x156;" horiz-adv-x="1460" 
d="M119 0v1487h624q147 0 250 -15.5t183 -51.5t126.5 -98.5t69.5 -153.5t23 -220q0 -190 -49.5 -298.5t-161.5 -162.5l211 -487h-447l-153 420h-260v-420h-416zM535 1151v-397h161q76 0 121 6.5t81.5 26.5t51.5 59t15 104q0 53 -11 89t-30 58.5t-54.5 34t-74.5 15.5t-99 4
h-161zM463 -625q32 101 67 265q16 71 24.5 137t9.5 97l1 30h346q-14 -143 -67 -297q-30 -84 -61 -142t-47 -74l-15 -16h-258z" />
    <glyph glyph-name="rcommaaccent" unicode="&#x157;" horiz-adv-x="911" 
d="M113 0v786l-21 340h350l43 -196q11 30 27.5 57.5t49 60t74 56t106 39.5t141.5 16v-356q-78 0 -141 -21t-100 -49.5t-64.5 -67.5t-38.5 -65t-17 -51v-549h-409zM35 -625q32 101 67 265q16 71 24.5 137t9.5 97l1 30h346q-14 -143 -67 -297q-30 -84 -61 -142t-47 -74
l-15 -16h-258z" />
    <glyph glyph-name="Rcaron" unicode="&#x158;" horiz-adv-x="1460" 
d="M1141 1919l-267 -330h-380l-248 330h303l135 -135l137 135h320zM119 0v1487h624q147 0 250 -15.5t183 -51.5t126.5 -98.5t69.5 -153.5t23 -220q0 -190 -49.5 -298.5t-161.5 -162.5l211 -487h-447l-153 420h-260v-420h-416zM535 1151v-397h161q76 0 121 6.5t81.5 26.5
t51.5 59t15 104q0 53 -11 89t-30 58.5t-54.5 34t-74.5 15.5t-99 4h-161z" />
    <glyph glyph-name="rcaron" unicode="&#x159;" horiz-adv-x="911" 
d="M918 1624l-283 -364h-348l-264 364h301l137 -129l139 129h318zM113 0v786l-21 340h350l43 -196q11 30 27.5 57.5t49 60t74 56t106 39.5t141.5 16v-356q-78 0 -141 -21t-100 -49.5t-64.5 -67.5t-38.5 -65t-17 -51v-549h-409z" />
    <glyph glyph-name="Sacute" unicode="&#x15a;" horiz-adv-x="1382" 
d="M471 1606l197 313h477l-248 -313h-426zM1319 436q0 -479 -631 -479q-622 0 -622 553h403q0 -114 63 -168.5t177 -54.5q82 -2 136 30t54 101q0 37 -28.5 64t-76 44.5t-109.5 32.5t-130.5 32t-136.5 38.5t-129.5 56.5t-109 82t-75 119.5t-26.5 163.5q3 228 152.5 353.5
t453.5 125.5q323 -1 465.5 -134t142.5 -409h-399q0 207 -207 207q-192 3 -192 -133q0 -37 28 -64.5t76 -44.5t110 -31t130.5 -30.5t136.5 -37t130 -55t110 -81t76 -118.5t28 -163z" />
    <glyph glyph-name="sacute" unicode="&#x15b;" horiz-adv-x="1239" 
d="M440 1266l199 368h410l-248 -368h-361zM1190 334q0 -89 -30 -155.5t-96 -116t-177.5 -74.5t-268.5 -25q-285 0 -427 111t-140 321h385q0 -84 47 -126t131 -42q168 -3 168 97q0 33 -24 55t-65 34t-94.5 20.5t-113 18t-118.5 22.5t-113 38t-95.5 60t-66.5 93t-26 134
q-2 178 131.5 271t418.5 93q284 -1 414.5 -99.5t130.5 -303.5h-379q0 76 -37.5 111.5t-119.5 35.5q-86 0 -123 -27.5t-37 -70.5q0 -33 31 -54.5t82 -31t116.5 -20.5t133 -21.5t133 -36t116.5 -61.5t82 -100t31 -150z" />
    <glyph glyph-name="Scircumflex" unicode="&#x15c;" horiz-adv-x="1382" 
d="M1147 1606h-320l-137 133l-135 -133h-303l248 329h381zM1319 436q0 -479 -631 -479q-622 0 -622 553h403q0 -114 63 -168.5t177 -54.5q82 -2 136 30t54 101q0 37 -28.5 64t-76 44.5t-109.5 32.5t-130.5 32t-136.5 38.5t-129.5 56.5t-109 82t-75 119.5t-26.5 163.5
q3 228 152.5 353.5t453.5 125.5q323 -1 465.5 -134t142.5 -409h-399q0 207 -207 207q-192 3 -192 -133q0 -37 28 -64.5t76 -44.5t110 -31t130.5 -30.5t136.5 -37t130 -55t110 -81t76 -118.5t28 -163z" />
    <glyph glyph-name="scircumflex" unicode="&#x15d;" horiz-adv-x="1239" 
d="M1071 1260h-317l-140 139l-137 -139h-313l276 364h348zM1190 334q0 -89 -30 -155.5t-96 -116t-177.5 -74.5t-268.5 -25q-285 0 -427 111t-140 321h385q0 -84 47 -126t131 -42q168 -3 168 97q0 33 -24 55t-65 34t-94.5 20.5t-113 18t-118.5 22.5t-113 38t-95.5 60
t-66.5 93t-26 134q-2 178 131.5 271t418.5 93q284 -1 414.5 -99.5t130.5 -303.5h-379q0 76 -37.5 111.5t-119.5 35.5q-86 0 -123 -27.5t-37 -70.5q0 -33 31 -54.5t82 -31t116.5 -20.5t133 -21.5t133 -36t116.5 -61.5t82 -100t31 -150z" />
    <glyph glyph-name="Scedilla" unicode="&#x15e;" horiz-adv-x="1382" 
d="M1016 -358q0 -55 -17.5 -95t-61.5 -73t-126 -49.5t-203 -16.5q-72 0 -131 6t-81 12l-23 7v176q1 -4 11.5 -8t39 -7.5t68.5 -3.5q63 0 96 24.5t33 66.5q0 98 -179 98h-4l101 188q-473 58 -473 543h403q0 -114 63 -168.5t177 -54.5q83 0 136.5 31t53.5 100q0 37 -28.5 64
t-76 44.5t-109.5 32.5t-130.5 32t-136.5 38.5t-129.5 56.5t-109 82t-75 119.5t-26.5 163.5q3 228 152.5 353.5t453.5 125.5q323 -1 465.5 -134t142.5 -409h-399q0 207 -207 207q-192 0 -192 -133q0 -37 28 -64.5t76 -44.5t110 -31t130.5 -30.5t136.5 -37t130 -55t110 -81
t76 -118.5t28 -163q0 -406 -457 -467l-63 -121q40 -1 76 -11.5t69 -33t52.5 -64t19.5 -97.5z" />
    <glyph glyph-name="scedilla" unicode="&#x15f;" horiz-adv-x="1239" 
d="M946 -332q0 -55 -17.5 -95t-61 -72.5t-125.5 -49t-203 -16.5q-72 0 -131 6t-82 12l-23 6v176q1 -4 11.5 -7.5t38.5 -7t69 -3.5q63 0 96 24t33 66q0 55 -48.5 76.5t-133.5 21.5l90 168q-205 29 -307.5 136t-100.5 286h385q0 -84 47 -126t131 -42q168 0 168 97q0 33 -24 55
t-65 34t-94.5 20.5t-113 18t-118.5 22.5t-113 38t-95.5 60t-66.5 93t-26 134q-2 178 131.5 271t418.5 93q284 0 414.5 -99t130.5 -304h-379q0 76 -37.5 111.5t-119.5 35.5q-86 0 -123 -27.5t-37 -70.5q0 -33 31 -54.5t82 -31t116.5 -20.5t133 -21.5t133 -36t116.5 -61.5
t82 -100t31 -150q0 -156 -96 -247.5t-314 -115.5l-51 -96q40 -1 76 -12t69 -33.5t52.5 -64t19.5 -97.5z" />
    <glyph glyph-name="Scaron" unicode="&#x160;" horiz-adv-x="1382" 
d="M1147 1935l-266 -329h-381l-248 329h303l135 -135l137 135h320zM1319 436q0 -479 -631 -479q-622 0 -622 553h403q0 -114 63 -168.5t177 -54.5q82 -2 136 30t54 101q0 37 -28.5 64t-76 44.5t-109.5 32.5t-130.5 32t-136.5 38.5t-129.5 56.5t-109 82t-75 119.5
t-26.5 163.5q3 228 152.5 353.5t453.5 125.5q323 -1 465.5 -134t142.5 -409h-399q0 207 -207 207q-192 3 -192 -133q0 -37 28 -64.5t76 -44.5t110 -31t130.5 -30.5t136.5 -37t130 -55t110 -81t76 -118.5t28 -163z" />
    <glyph glyph-name="scaron" unicode="&#x161;" horiz-adv-x="1239" 
d="M1069 1624l-283 -364h-348l-264 364h301l137 -129l140 129h317zM1190 334q0 -89 -30 -155.5t-96 -116t-177.5 -74.5t-268.5 -25q-285 0 -427 111t-140 321h385q0 -84 47 -126t131 -42q168 -3 168 97q0 33 -24 55t-65 34t-94.5 20.5t-113 18t-118.5 22.5t-113 38t-95.5 60
t-66.5 93t-26 134q-2 178 131.5 271t418.5 93q284 -1 414.5 -99.5t130.5 -303.5h-379q0 76 -37.5 111.5t-119.5 35.5q-86 0 -123 -27.5t-37 -70.5q0 -33 31 -54.5t82 -31t116.5 -20.5t133 -21.5t133 -36t116.5 -61.5t82 -100t31 -150z" />
    <glyph glyph-name="uni0162" unicode="&#x162;" horiz-adv-x="1224" 
d="M926 -338q0 -55 -17.5 -95t-61.5 -72.5t-126 -49t-203 -16.5q-72 0 -130.5 6t-81.5 12l-23 6v176q6 -18 118 -18q63 0 96 24t33 66q0 98 -178 98h-4l107 201h-54l2 1118h-391v367h1200v-367h-391l-2 -1118h-41l-69 -131q40 -1 76 -12t69 -33.5t52.5 -64t19.5 -97.5z" />
    <glyph glyph-name="uni0163" unicode="&#x163;" horiz-adv-x="835" 
d="M866 -299q0 -55 -17.5 -95t-61 -72.5t-125.5 -49t-203 -16.5q-72 0 -131 6t-82 12l-23 6v176q1 -4 11.5 -7.5t38.5 -7t69 -3.5q63 0 96 24t33 66q0 98 -178 98h-4l106 201q-62 22 -105.5 58t-68.5 78.5t-39 105.5t-18 122t-4 144v309h-150v270h150v297l407 62v-359h224
v-270h-224v-293q0 -127 34.5 -178t117.5 -51h78v-334h-99l-49 -92q40 -1 76 -12t69 -33.5t52.5 -64t19.5 -97.5z" />
    <glyph glyph-name="Tcaron" unicode="&#x164;" horiz-adv-x="1224" 
d="M1069 1919l-266 -330h-381l-248 330h303l135 -135l138 135h319zM401 0l2 1118h-391v367h1200v-367h-391l-2 -1118h-418z" />
    <glyph glyph-name="tcaron" unicode="&#x165;" horiz-adv-x="835" 
d="M621 1202l124 426h310l-209 -426h-225zM797 0h-111q-90 0 -161.5 9t-124.5 29t-92.5 45t-65.5 63.5t-42.5 77.5t-25 95t-11.5 106.5t-3 121.5v309h-150v270h150v297l407 62v-359h224v-270h-224v-293q0 -127 34.5 -178t117.5 -51h78v-334z" />
    <glyph glyph-name="Tbar" unicode="&#x166;" horiz-adv-x="1224" 
d="M401 0v535h-170v192h170l2 391h-391v367h1200v-367h-391l-2 -391h158v-192h-158v-535h-418z" />
    <glyph glyph-name="tbar" unicode="&#x167;" horiz-adv-x="835" 
d="M569 496q9 -89 43.5 -125.5t106.5 -36.5h78v-334h-111q-113 0 -198 14.5t-142 46t-93.5 71t-56.5 99.5t-27.5 120.5t-8.5 144.5h-129v192h129v168h-150v270h150v297l407 62v-359h224v-270h-224v-168h209v-192h-207z" />
    <glyph glyph-name="Utilde" unicode="&#x168;" horiz-adv-x="1421" 
d="M1137 1956q0 -180 -55.5 -274.5t-194.5 -94.5q-62 0 -112 14.5t-76.5 32.5t-61 32.5t-70.5 14.5q-56 0 -83 -33t-27 -63h-174q0 86 12 150.5t40 115.5t78 77t122 26q61 0 110.5 -14.5t75.5 -32.5t60.5 -32.5t70.5 -14.5q57 0 84 33t27 63h174zM1315 694q0 -115 -6 -200.5
t-22.5 -166.5t-45.5 -136.5t-74 -102.5t-109 -74t-150 -42t-197 -15q-110 0 -196 15t-150 42.5t-109.5 74t-75 102.5t-46.5 136t-23.5 166t-6.5 201v791h416v-756q0 -167 19.5 -253.5t58 -117t111.5 -30.5q74 0 112 31t56 116.5t18 253.5v756h420v-791z" />
    <glyph glyph-name="utilde" unicode="&#x169;" horiz-adv-x="1318" 
d="M1079 1642q0 -180 -55.5 -274t-194.5 -94q-61 0 -110.5 14.5t-77 32.5t-62 32.5t-69.5 14.5q-57 0 -84 -32.5t-27 -63.5h-174q0 179 56 273.5t194 94.5q61 0 111.5 -14.5t77.5 -32.5t62 -32.5t71 -14.5q55 0 81.5 33t26.5 63h174zM879 0l-43 162q-23 -27 -52 -52.5
t-76 -57t-110 -51t-131 -19.5q-211 0 -295 119.5t-82 392.5v630h410v-622q0 -80 29 -122t96 -42q100 0 172 119v669h409v-813l23 -313h-350z" />
    <glyph glyph-name="Umacron" unicode="&#x16a;" horiz-adv-x="1421" 
d="M358 1876h703v-274h-703v274zM1315 694q0 -115 -6 -200.5t-22.5 -166.5t-45.5 -136.5t-74 -102.5t-109 -74t-150 -42t-197 -15q-110 0 -196 15t-150 42.5t-109.5 74t-75 102.5t-46.5 136t-23.5 166t-6.5 201v791h416v-756q0 -167 19.5 -253.5t58 -117t111.5 -30.5
q74 0 112 31t56 116.5t18 253.5v756h420v-791z" />
    <glyph glyph-name="umacron" unicode="&#x16b;" horiz-adv-x="1318" 
d="M301 1546h703v-241h-703v241zM879 0l-43 162q-23 -27 -52 -52.5t-76 -57t-110 -51t-131 -19.5q-211 0 -295 119.5t-82 392.5v630h410v-622q0 -80 29 -122t96 -42q100 0 172 119v669h409v-813l23 -313h-350z" />
    <glyph glyph-name="Ubreve" unicode="&#x16c;" horiz-adv-x="1421" 
d="M1128 1905q0 -48 -12.5 -93.5t-43.5 -91t-77 -78.5t-119.5 -54t-164.5 -21t-164.5 21t-120 54t-77.5 78.5t-43.5 91t-12.5 93.5h293q0 -37 38 -63.5t87 -26.5t88 26.5t39 63.5h290zM1315 694q0 -115 -6 -200.5t-22.5 -166.5t-45.5 -136.5t-74 -102.5t-109 -74t-150 -42
t-197 -15q-110 0 -196 15t-150 42.5t-109.5 74t-75 102.5t-46.5 136t-23.5 166t-6.5 201v791h416v-756q0 -167 19.5 -253.5t58 -117t111.5 -30.5q74 0 112 31t56 116.5t18 253.5v756h420v-791z" />
    <glyph glyph-name="ubreve" unicode="&#x16d;" horiz-adv-x="1318" 
d="M1090 1612q0 -48 -13 -95.5t-45 -96t-80.5 -85t-125.5 -59.5t-173 -23t-173 23t-125 59.5t-80 85t-45 96t-13 95.5h309q0 -41 35 -75t92 -34t93 34t36 75h308zM879 0l-43 162q-23 -27 -52 -52.5t-76 -57t-110 -51t-131 -19.5q-211 0 -295 119.5t-82 392.5v630h410v-622
q0 -80 29 -122t96 -42q100 0 172 119v669h409v-813l23 -313h-350z" />
    <glyph glyph-name="Uring" unicode="&#x16e;" horiz-adv-x="1421" 
d="M1010 1841q0 -132 -81.5 -203t-217.5 -71q-137 0 -218 71t-81 203q0 131 81 202t218 71q136 0 217.5 -71.5t81.5 -201.5zM643 1841q0 -32 19 -50.5t49 -18.5t48.5 18.5t18.5 50.5q0 31 -19 49.5t-48 18.5q-30 0 -49 -19t-19 -49zM1315 694q0 -115 -6 -200.5t-22.5 -166.5
t-45.5 -136.5t-74 -102.5t-109 -74t-150 -42t-197 -15q-110 0 -196 15t-150 42.5t-109.5 74t-75 102.5t-46.5 136t-23.5 166t-6.5 201v791h416v-756q0 -167 19.5 -253.5t58 -117t111.5 -30.5q74 0 112 31t56 116.5t18 253.5v756h420v-791z" />
    <glyph glyph-name="uring" unicode="&#x16f;" horiz-adv-x="1318" 
d="M938 1493q0 -124 -76.5 -190t-206.5 -66q-132 0 -207 65.5t-75 190.5q0 128 75 193t207 65q130 0 206.5 -65.5t76.5 -192.5zM588 1493q0 -31 19 -49.5t48 -18.5q30 0 49 19t19 49q0 32 -19 51t-49 19t-48.5 -19t-18.5 -51zM879 0l-43 162q-23 -27 -52 -52.5t-76 -57
t-110 -51t-131 -19.5q-211 0 -295 119.5t-82 392.5v630h410v-622q0 -80 29 -122t96 -42q100 0 172 119v669h409v-813l23 -313h-350z" />
    <glyph glyph-name="Uhungarumlaut" unicode="&#x170;" horiz-adv-x="1421" 
d="M254 1595l195 312h409l-244 -312h-360zM727 1595l248 312h409l-297 -312h-360zM1315 694q0 -115 -6 -200.5t-22.5 -166.5t-45.5 -136.5t-74 -102.5t-109 -74t-150 -42t-197 -15q-110 0 -196 15t-150 42.5t-109.5 74t-75 102.5t-46.5 136t-23.5 166t-6.5 201v791h416v-756
q0 -167 19.5 -253.5t58 -117t111.5 -30.5q74 0 112 31t56 116.5t18 253.5v756h420v-791z" />
    <glyph glyph-name="uhungarumlaut" unicode="&#x171;" horiz-adv-x="1318" 
d="M178 1266l197 368h409l-245 -368h-361zM653 1266l248 368h410l-299 -368h-359zM879 0l-43 162q-23 -27 -52 -52.5t-76 -57t-110 -51t-131 -19.5q-211 0 -295 119.5t-82 392.5v630h410v-622q0 -80 29 -122t96 -42q100 0 172 119v669h409v-813l23 -313h-350z" />
    <glyph glyph-name="Uogonek" unicode="&#x172;" horiz-adv-x="1421" 
d="M463 -213q0 97 74 182q-90 12 -157.5 39t-115.5 72.5t-79 102t-49 137.5t-25 169t-7 205v791h416v-756q0 -167 19.5 -253.5t58 -117t111.5 -30.5q74 0 112 31t56 116.5t18 253.5v756h420v-791q0 -148 -10.5 -250.5t-40 -193.5t-82 -147t-136.5 -92t-204 -48
q-25 -39 -25 -84q0 -28 17 -47.5t49 -19.5q22 0 46.5 6.5t38.5 13.5l13 6v-188q-2 -2 -7.5 -6.5t-26 -14.5t-46.5 -18t-71.5 -14.5t-98.5 -6.5q-77 0 -132.5 18.5t-83.5 49.5t-40 63t-12 66z" />
    <glyph glyph-name="uogonek" unicode="&#x173;" horiz-adv-x="1318" 
d="M713 -256q0 47 17.5 91.5t46 77t52.5 53t48 36.5l-41 160q-23 -27 -52 -52.5t-76 -57t-110 -51t-131 -19.5q-210 0 -293.5 119t-83.5 393v630h410v-622q0 -80 29 -122t96 -42q100 0 172 119v669h409v-813l23 -313h-64q-98 -74 -98 -164q0 -28 17 -47.5t49 -19.5
q22 0 46.5 6.5t38.5 12.5l13 7v-188q-2 -2 -7.5 -6.5t-26 -14.5t-46.5 -18t-71.5 -14.5t-98.5 -6.5q-77 0 -132.5 18.5t-83.5 49.5t-40 63t-12 66z" />
    <glyph glyph-name="Wcircumflex" unicode="&#x174;" horiz-adv-x="2246" 
d="M1591 1589h-319l-137 133l-136 -133h-303l248 330h381zM1122 1030l-184 -1030h-541l-368 1485h481l176 -1086l191 1086h514l176 -1086l207 1086h444l-391 -1485h-537z" />
    <glyph glyph-name="wcircumflex" unicode="&#x175;" horiz-adv-x="1888" 
d="M1393 1260h-318l-139 139l-137 -139h-314l277 364h348zM936 727l-123 -727h-489l-320 1126h426l148 -829l141 829h442l154 -833l145 833h424l-313 -1126h-500z" />
    <glyph glyph-name="Ycircumflex" unicode="&#x176;" horiz-adv-x="1372" 
d="M1145 1589h-320l-137 133l-135 -133h-303l248 330h381zM475 0v395l-469 1090h461l211 -719l201 719h487l-479 -1086v-399h-412z" />
    <glyph glyph-name="ycircumflex" unicode="&#x177;" horiz-adv-x="1277" 
d="M1104 1260h-318l-139 139l-137 -139h-313l276 364h348zM420 -483l129 483h-156l-381 1126h447l182 -780l209 780h416l-482 -1609h-364z" />
    <glyph glyph-name="Ydieresis" unicode="&#x178;" horiz-adv-x="1372" 
d="M219 1589v326h410v-326h-410zM750 1589v326h409v-326h-409zM475 0v395l-469 1090h461l211 -719l201 719h487l-479 -1086v-399h-412z" />
    <glyph glyph-name="Zacute" unicode="&#x179;" horiz-adv-x="1245" 
d="M403 1589l197 314h477l-248 -314h-426zM39 2v350l623 781h-596v350h1124v-350l-633 -781h641v-350h-1159z" />
    <glyph glyph-name="zacute" unicode="&#x17a;" horiz-adv-x="1083" 
d="M360 1266l199 368h410l-248 -368h-361zM1022 827l-481 -524l483 2v-303h-973v301l486 524h-465v297h952v-297h-2z" />
    <glyph glyph-name="Zdotaccent" unicode="&#x17b;" horiz-adv-x="1245" 
d="M418 1589v326h409v-326h-409zM39 2v350l623 781h-596v350h1124v-350l-633 -781h641v-350h-1159z" />
    <glyph glyph-name="zdotaccent" unicode="&#x17c;" horiz-adv-x="1083" 
d="M336 1264v321h409v-321h-409zM1022 827l-481 -524l483 2v-303h-973v301l486 524h-465v297h952v-297h-2z" />
    <glyph glyph-name="Zcaron" unicode="&#x17d;" horiz-adv-x="1245" 
d="M1079 1919l-266 -330h-381l-248 330h303l136 -135l137 135h319zM39 2v350l623 781h-596v350h1124v-350l-633 -781h641v-350h-1159z" />
    <glyph glyph-name="zcaron" unicode="&#x17e;" horiz-adv-x="1083" 
d="M989 1624l-282 -364h-349l-264 364h301l137 -129l140 129h317zM1022 827l-481 -524l483 2v-303h-973v301l486 524h-465v297h952v-297h-2z" />
    <glyph glyph-name="uni018F" unicode="&#x18f;" horiz-adv-x="1454" 
d="M1386 741q0 -176 -26.5 -308t-78 -223t-132.5 -147t-184 -81t-238 -25q-170 0 -289.5 43.5t-204 143.5t-125 267.5t-40.5 411.5h888q-7 193 -62.5 272t-166.5 79q-94 0 -152 -51.5t-71 -151.5h-428q27 297 187 427t464 130q135 0 238 -25t184 -81.5t132.5 -147.5
t78 -223.5t26.5 -309.5zM727 311q98 0 151.5 61t71.5 214h-444q19 -156 72 -215.5t149 -59.5z" />
    <glyph glyph-name="uni019D" unicode="&#x19d;" horiz-adv-x="1552" 
d="M479 995l10 -995q1 -81 -11.5 -146t-49 -129.5t-97 -108t-162.5 -70.5t-239 -27h-112v309h112q104 0 146.5 39.5t42.5 132.5l2 1485h487l461 -955l-20 955h387v-1485h-492z" />
    <glyph glyph-name="Gcaron" unicode="&#x1e6;" horiz-adv-x="1423" 
d="M1182 1935l-267 -329h-380l-248 329h303l135 -135l137 135h320zM1339 203q0 -5 -20 -29t-68 -61t-114.5 -71.5t-175.5 -59t-234 -25.5q-168 -1 -287.5 38.5t-204.5 130.5t-126 243t-41 372t41 372.5t126 243.5t204.5 131t287.5 40q319 0 465.5 -141t146.5 -449h-393
q-7 128 -62 182t-157 54q-60 0 -100.5 -18.5t-72 -65.5t-46 -133t-14.5 -216q0 -136 15.5 -225t49 -137t76.5 -66t106 -18q103 0 162.5 32.5t57.5 73.5v127h-207v254h585v-579z" />
    <glyph glyph-name="gcaron" unicode="&#x1e7;" horiz-adv-x="1320" 
d="M1106 1624l-283 -364h-348l-264 364h301l137 -129l139 129h318zM1210 -6v-21q0 -54 -1 -84.5t-11.5 -86.5t-30.5 -90.5t-61.5 -78t-100 -68t-150.5 -42t-210 -17.5q-92 0 -169 13.5t-130 36.5t-94.5 52.5t-66 62.5t-41.5 66t-23.5 62.5t-9.5 52.5t-3 36l1 14h409
q0 -19 0.5 -29t7.5 -33.5t20 -36.5t41.5 -24.5t69.5 -11.5q30 0 53 5t38.5 12.5t26 24.5t16 31t8.5 42t3.5 49t0.5 59v80q-108 -97 -291 -97q-231 0 -337.5 143.5t-106.5 442.5t107 446.5t337 147.5q67 0 126 -15.5t101 -41t67.5 -47t45.5 -43.5l33 120h346l-21 -331v-801z
M641 276q89 0 162 80v414q-69 76 -158 76q-83 0 -123.5 -68.5t-40.5 -218.5q0 -148 40 -215.5t120 -67.5z" />
    <glyph glyph-name="uni01EA" unicode="&#x1ea;" horiz-adv-x="1460" 
d="M463 -256q0 119 117 223q-261 33 -386.5 214t-125.5 560q0 220 41.5 372.5t127.5 243.5t206 131t288 40t287.5 -40t205.5 -131t127.5 -243.5t41.5 -372.5q0 -257 -59.5 -423t-171.5 -248.5t-285 -104.5q-60 -60 -60 -129q0 -28 17 -47.5t49 -19.5q22 0 46.5 6.5
t38.5 12.5l13 7v-188q-2 -2 -7.5 -6.5t-26 -14.5t-46.5 -18t-71.5 -14.5t-98.5 -6.5q-77 0 -132.5 18.5t-83.5 49.5t-40 63t-12 66zM494 741q0 -130 15 -215.5t46.5 -132t73 -64.5t102.5 -18t102 18t72.5 64.5t46.5 132t15 215.5t-15 216t-46.5 133t-73 65.5t-101.5 18.5
q-61 0 -102.5 -18.5t-73 -65.5t-46.5 -133t-15 -216z" />
    <glyph glyph-name="uni01EB" unicode="&#x1eb;" horiz-adv-x="1308" 
d="M557 -215q0 95 72 178q-299 6 -430 155t-131 443q0 302 137 451.5t450 150.5q312 0 449 -150t137 -452q0 -198 -56.5 -328.5t-180.5 -197.5q-93 -72 -93 -158q0 -28 17 -47.5t49 -19.5q22 0 46.5 6.5t38.5 13.5l13 6v-188q-2 -2 -7.5 -6.5t-26 -14.5t-46.5 -18
t-71.5 -14.5t-98.5 -6.5q-77 0 -132.5 18.5t-83.5 49.5t-40 63t-12 66zM485 561q0 -163 38 -227t132 -64q93 0 130.5 64t37.5 227q0 165 -37.5 230t-130.5 65q-94 0 -132 -65t-38 -230z" />
    <glyph glyph-name="Aringacute" unicode="&#x1fa;" horiz-adv-x="1505" 
d="M530 2185l197 314h477l-248 -314h-426zM1049 1841q0 -132 -81.5 -203t-217.5 -71q-137 0 -218 71t-81 203q0 131 81 202t218 71q136 0 217.5 -71.5t81.5 -201.5zM682 1841q0 -32 19 -50.5t49 -18.5t48.5 18.5t18.5 50.5q0 31 -18.5 49.5t-48.5 18.5t-49 -19t-19 -49zM6 0
l496 1485h502l495 -1485h-452l-62 219h-475l-61 -219h-443zM594 524h307l-153 551z" />
    <glyph glyph-name="aringacute" unicode="&#x1fb;" horiz-adv-x="1306" 
d="M477 1817l199 368h409l-247 -368h-361zM938 1493q0 -124 -76.5 -190t-206.5 -66q-132 0 -207 65.5t-75 190.5q0 128 75 193t207 65q130 0 206.5 -65.5t76.5 -192.5zM588 1493q0 -31 19 -49.5t48 -18.5q30 0 49 19t19 49q0 32 -19 51t-49 19t-48.5 -19t-18.5 -51zM842 0
l-25 66q-136 -103 -323 -103q-209 0 -317.5 87t-108.5 274q0 364 452 364q132 0 264 -12v45q0 96 -31 135t-118 39q-154 0 -154 -135h-358q0 33 3.5 63.5t16 71t33 74.5t58 69t87 59t124.5 39t167 15q115 0 203.5 -15t149.5 -39t104 -67t67 -86.5t37.5 -111.5t17 -127.5
t3.5 -147.5v-242l23 -315h-375zM623 229q89 0 161 60v188q-55 6 -131 6q-170 0 -170 -135q0 -57 35.5 -88t104.5 -31z" />
    <glyph glyph-name="AEacute" unicode="&#x1fc;" horiz-adv-x="2072" 
d="M733 1589l197 314h477l-248 -314h-426zM6 0l692 1485h1313v-334h-633v-248h531v-303h-531v-266h647v-334h-1064v254h-392l-104 -254h-459zM961 557v631l-265 -631h265z" />
    <glyph glyph-name="aeacute" unicode="&#x1fd;" horiz-adv-x="1982" 
d="M848 1266l199 368h409l-248 -368h-360zM1915 371q-31 -408 -565 -408q-328 0 -467 168q-152 -160 -389 -160q-210 0 -318 83.5t-108 269.5q0 362 452 362h250q3 42 12 86q-6 62 -45 92.5t-102 30.5q-154 0 -154 -135h-358q0 33 3.5 63.5t16 71t33 74.5t58 69t87 59
t124.5 39t167 15q206 0 330 -100q144 110 408 110q309 0 438 -158t129 -520h-733q7 -137 45 -191t119 -54q82 0 121 37t44 96h402zM1346 913q-76 0 -113 -46.5t-47 -164.5h315q-14 123 -50 167t-105 44zM797 301q-25 84 -31 178h-113q-170 0 -170 -131q0 -57 35.5 -88
t104.5 -31q98 0 174 72z" />
    <glyph glyph-name="Oslashacute" unicode="&#x1fe;" horiz-adv-x="1460" 
d="M506 1589l196 314h478l-248 -314h-426zM100 -27l117 174q-149 183 -149 594q0 220 41.5 372.5t127.5 243.5t206 131t288 40q229 0 373 -78l43 61h186l-106 -157q166 -187 166 -613q0 -219 -41.5 -371t-127.5 -242.5t-205.5 -130.5t-287.5 -40q-248 0 -395 88l-47 -72
h-189zM494 741q0 -111 8 -176l379 555q-51 54 -150 54q-61 0 -102.5 -18.5t-73 -65.5t-46.5 -133t-15 -216zM967 741q0 106 -15 209l-389 -571q55 -68 168 -68q61 0 102 18t72.5 64.5t46.5 132t15 215.5z" />
    <glyph glyph-name="oslashacute" unicode="&#x1ff;" horiz-adv-x="1308" 
d="M475 1262l199 368h409l-247 -368h-361zM123 -29l96 125q-151 145 -151 465q0 302 137 451.5t450 150.5q203 0 330 -65l49 63h154l-101 -131q154 -144 154 -469q0 -300 -137 -449t-449 -149q-202 0 -336 64l-43 -56h-153zM485 561q0 -48 4 -110l279 364q-38 41 -113 41
q-94 0 -132 -65t-38 -230zM823 561q0 67 -6 117l-278 -365q37 -43 116 -43q93 0 130.5 64t37.5 227z" />
    <glyph glyph-name="Scommaaccent" unicode="&#x218;" horiz-adv-x="1382" 
d="M1319 436q0 -479 -631 -479q-622 0 -622 553h403q0 -114 63 -168.5t177 -54.5q82 -2 136 30t54 101q0 37 -28.5 64t-76 44.5t-109.5 32.5t-130.5 32t-136.5 38.5t-129.5 56.5t-109 82t-75 119.5t-26.5 163.5q3 228 152.5 353.5t453.5 125.5q323 -1 465.5 -134t142.5 -409
h-399q0 207 -207 207q-192 3 -192 -133q0 -37 28 -64.5t76 -44.5t110 -31t130.5 -30.5t136.5 -37t130 -55t110 -81t76 -118.5t28 -163zM477 -647q33 100 68 264q16 71 24.5 137t9.5 96l1 31h346q-15 -143 -68 -297q-30 -84 -61 -142t-47 -74l-15 -15h-258z" />
    <glyph glyph-name="scommaaccent" unicode="&#x219;" horiz-adv-x="1239" 
d="M1190 334q0 -89 -30 -155.5t-96 -116t-177.5 -74.5t-268.5 -25q-285 0 -427 111t-140 321h385q0 -84 47 -126t131 -42q168 -3 168 97q0 33 -24 55t-65 34t-94.5 20.5t-113 18t-118.5 22.5t-113 38t-95.5 60t-66.5 93t-26 134q-2 178 131.5 271t418.5 93
q284 -1 414.5 -99.5t130.5 -303.5h-379q0 76 -37.5 111.5t-119.5 35.5q-86 0 -123 -27.5t-37 -70.5q0 -33 31 -54.5t82 -31t116.5 -20.5t133 -21.5t133 -36t116.5 -61.5t82 -100t31 -150zM408 -621q32 101 67 265q16 71 24.5 137t9.5 97l1 30h346q-15 -143 -68 -297
q-30 -84 -60.5 -142t-45.5 -74l-16 -16h-258z" />
    <glyph glyph-name="uni021A" unicode="&#x21a;" horiz-adv-x="1196" 
d="M379 0v1100h-363v385h1164v-385h-367v-1100h-434zM299 -625q33 99 70 265q16 71 24.5 136.5t8.5 95.5l1 30h347q-15 -143 -68 -297q-30 -84 -61 -141.5t-47 -73.5l-15 -15h-260z" />
    <glyph glyph-name="uni021B" unicode="&#x21b;" horiz-adv-x="835" 
d="M797 0h-111q-90 0 -161.5 9t-124.5 29t-92.5 45t-65.5 63.5t-42.5 77.5t-25 95t-11.5 106.5t-3 121.5v309h-150v270h150v297l407 62v-359h224v-270h-224v-293q0 -127 34.5 -178t117.5 -51h78v-334zM328 -588q32 100 67 264q16 71 24.5 137.5t9.5 96.5l1 31h346
q-14 -143 -67 -297q-30 -84 -61 -142t-46 -74l-16 -16h-258z" />
    <glyph glyph-name="uni0232" unicode="&#x232;" horiz-adv-x="1372" 
d="M336 1876h702v-274h-702v274zM475 0v395l-469 1090h461l211 -719l201 719h487l-479 -1086v-399h-412z" />
    <glyph glyph-name="uni0233" unicode="&#x233;" horiz-adv-x="1277" 
d="M301 1546h703v-241h-703v241zM420 -483l129 483h-156l-381 1126h447l182 -780l209 780h416l-482 -1609h-364z" />
    <glyph glyph-name="uni0237" unicode="&#x237;" horiz-adv-x="634" 
d="M526 186q0 -75 -1 -117.5t-7 -108t-17.5 -103.5t-33.5 -89t-54.5 -80.5t-81 -62.5t-111.5 -50t-148 -28.5t-189 -11.5v350q50 0 87 7t63 15.5t42 32t25 40.5t13.5 57t5 66t0.5 83v940h407v-940z" />
    <glyph glyph-name="uni0259" unicode="&#x259;" horiz-adv-x="1290" 
d="M1223 565q0 -301 -137.5 -451.5t-448.5 -150.5q-308 0 -437.5 156t-129.5 506h733q-4 149 -42 207.5t-122 58.5q-82 0 -122.5 -38t-43.5 -95h-401q32 405 565 405q311 0 448.5 -148.5t137.5 -449.5zM639 213q73 0 109.5 42.5t48.5 152.5l-314 -2q17 -112 52.5 -152.5
t103.5 -40.5z" />
    <glyph glyph-name="uni0272" unicode="&#x272;" horiz-adv-x="1341" 
d="M526 193q0 -75 -1 -117.5t-7 -108t-17.5 -103.5t-33.5 -89.5t-54.5 -80.5t-81 -62.5t-111.5 -50.5t-148 -28.5t-189 -11.5v350q50 0 86.5 7t62 15.5t42 31.5t25.5 39.5t13 56.5t4.5 65.5t0.5 81.5v5v624l-21 309h348l41 -155q20 23 49 47.5t76.5 55t113.5 50t136 19.5
q212 0 294.5 -124.5t82.5 -422.5v-596h-408v588q0 104 -28.5 151t-98.5 47q-60 0 -105 -34t-71 -78v-481z" />
    <glyph glyph-name="circumflex" unicode="&#x2c6;" horiz-adv-x="1128" 
d="M1069 1260h-317l-140 139l-137 -139h-313l276 364h348z" />
    <glyph glyph-name="caron" unicode="&#x2c7;" horiz-adv-x="1128" 
d="M1069 1624l-283 -364h-348l-264 364h301l137 -129l140 129h317z" />
    <glyph glyph-name="breve" unicode="&#x2d8;" horiz-adv-x="1122" 
d="M944 1612q0 -48 -13 -95.5t-45 -96t-80 -85t-125 -59.5t-173 -23t-173 23t-125 59.5t-80 85t-45 96t-13 95.5h309q0 -41 35 -75t92 -34t93 34t36 75h307z" />
    <glyph glyph-name="dotaccent" unicode="&#x2d9;" horiz-adv-x="1056" 
d="M98 1264v321h410v-321h-410z" />
    <glyph glyph-name="ring" unicode="&#x2da;" horiz-adv-x="1099" 
d="M690 1493q0 -124 -76 -190t-206 -66q-132 0 -207.5 65.5t-75.5 190.5q0 127 75 192.5t208 65.5q130 0 206 -65.5t76 -192.5zM340 1493q0 -30 19 -49t49 -19t48.5 18.5t18.5 49.5q0 32 -18.5 51t-48.5 19t-49 -19t-19 -51z" />
    <glyph glyph-name="ogonek" unicode="&#x2db;" horiz-adv-x="1097" 
d="M109 -254q0 49 19.5 95t47.5 77t56 55t48 35l19 12l285 -4q-5 -3 -13 -8.5t-29 -23.5t-37 -37.5t-29 -49t-13 -59.5q0 -28 16.5 -47.5t48.5 -19.5q22 0 46.5 6.5t38.5 12.5l14 7v-188q-2 -2 -7.5 -6.5t-26 -14.5t-46.5 -18t-71.5 -14.5t-98.5 -6.5q-77 0 -132.5 18.5
t-83.5 49.5t-40 63t-12 66z" />
    <glyph glyph-name="tilde" unicode="&#x2dc;" horiz-adv-x="1128" 
d="M1006 1642q0 -180 -55.5 -274t-194.5 -94q-61 0 -111 14.5t-77 32.5t-62 32.5t-70 14.5q-57 0 -83.5 -32.5t-26.5 -63.5h-174q0 87 12 151.5t39.5 115t77 76t120.5 25.5q61 0 111.5 -14.5t77.5 -32.5t62 -32.5t71 -14.5q55 0 81.5 33t26.5 63h175z" />
    <glyph glyph-name="hungarumlaut" unicode="&#x2dd;" horiz-adv-x="1122" 
d="M109 1266l196 368h410l-246 -368h-360zM584 1266l247 368h410l-299 -368h-358z" />
    <glyph glyph-name="gravecomb" unicode="&#x300;" 
d="M-76 1266h-358l-250 368h410z" />
    <glyph glyph-name="acutecomb" unicode="&#x301;" 
d="M-717 1266l199 368h409l-247 -368h-361z" />
    <glyph glyph-name="uni0302" unicode="&#x302;" 
d="M-172 1260h-317l-140 139l-137 -139h-313l276 364h348z" />
    <glyph glyph-name="tildecomb" unicode="&#x303;" 
d="M-152 1642q0 -180 -55 -274t-194 -94q-61 0 -111 14.5t-77 32.5t-62 32.5t-70 14.5q-57 0 -83.5 -32.5t-26.5 -63.5h-175q0 179 56 273.5t194 94.5q61 0 111.5 -14.5t77.5 -32.5t62 -32.5t71 -14.5q55 0 81.5 33t26.5 63h174z" />
    <glyph glyph-name="uni0304" unicode="&#x304;" 
d="M-825 1546h702v-241h-702v241z" />
    <glyph glyph-name="uni0306" unicode="&#x306;" 
d="M-72 1612q0 -48 -13 -95.5t-45 -96t-80 -85t-125 -59.5t-173 -23t-173 23t-125 59.5t-80 85t-45 96t-13 95.5h309q0 -41 35 -75t92 -34t93 34t36 75h307z" />
    <glyph glyph-name="uni0307" unicode="&#x307;" 
d="M-506 1264v321h410v-321h-410z" />
    <glyph glyph-name="uni0308" unicode="&#x308;" 
d="M-1006 1260v325h377v-325h-377zM-508 1260v325h377v-325h-377z" />
    <glyph glyph-name="uni030A" unicode="&#x30a;" 
d="M-106 1493q0 -124 -76.5 -190t-206.5 -66q-132 0 -207.5 65.5t-75.5 190.5q0 127 75 192.5t208 65.5q130 0 206.5 -65.5t76.5 -192.5zM-457 1493q0 -30 19 -49t49 -19q29 0 48 18.5t19 49.5q0 32 -18.5 51t-48.5 19t-49 -19t-19 -51z" />
    <glyph glyph-name="uni030B" unicode="&#x30b;" 
d="M-1241 1266l197 368h409l-246 -368h-360zM-766 1266l248 368h409l-299 -368h-358z" />
    <glyph glyph-name="uni030C" unicode="&#x30c;" 
d="M-172 1624l-283 -364h-348l-264 364h301l137 -129l140 129h317z" />
    <glyph glyph-name="uni0312" unicode="&#x312;" 
d="M-80 1757q-35 -102 -72 -272q-16 -75 -24.5 -142t-9.5 -97v-29h-346q12 141 67 303q30 87 62 146t49 75l16 16h258z" />
    <glyph glyph-name="dotbelowcomb" unicode="&#x323;" 
d="M-506 -412v318h410v-318h-410z" />
    <glyph glyph-name="uni0326" unicode="&#x326;" 
d="M-526 -625q32 101 67 265q16 71 24.5 137t9.5 97l1 30h346q-14 -143 -67 -297q-30 -84 -61 -142t-46 -74l-16 -16h-258z" />
    <glyph glyph-name="uni0327" unicode="&#x327;" 
d="M-117 -336q0 -55 -17.5 -95t-61 -72.5t-125.5 -49t-203 -16.5q-72 0 -131 6t-82 12l-23 6v176q0 -3 9.5 -6.5t38.5 -7.5t71 -4q63 0 96 24t33 66q0 98 -178 98h-4l108 203h324l-72 -133q40 -1 76 -12t69 -33.5t52.5 -64t19.5 -97.5z" />
    <glyph glyph-name="uni0328" unicode="&#x328;" 
d="M-662 -254q0 49 19.5 95t48 77t56.5 55t48 35l19 12l285 -4q-5 -3 -13 -8.5t-29 -23.5t-37 -37.5t-29 -49t-13 -59.5q0 -28 16.5 -47.5t48.5 -19.5q22 0 46.5 6.5t38.5 12.5l14 7v-188q-2 -2 -7.5 -6.5t-26 -14.5t-46.5 -18t-71.5 -14.5t-98.5 -6.5q-62 0 -111 13
t-78 32.5t-47.5 46.5t-25.5 52.5t-7 52.5z" />
    <glyph glyph-name="uni0335" unicode="&#x335;" 
d="M-836 643v193h746v-193h-746z" />
    <glyph glyph-name="uni0336" unicode="&#x336;" 
d="M-1679 659v160h1499v-160h-1499z" />
    <glyph glyph-name="uni0337" unicode="&#x337;" 
d="M-901 365l-105 221l832 405l104 -219z" />
    <glyph glyph-name="uni0338" unicode="&#x338;" 
d="M-983 188l911 1190h154l-911 -1190h-154z" />
    <glyph glyph-name="pi" unicode="&#x3c0;" horiz-adv-x="1417" 
d="M1126 922v-437q0 -108 15 -150t71 -42h58v-293h-74q-68 0 -121 7t-93.5 23t-69.5 36t-49 53t-32.5 67t-19 84.5t-8.5 98.5t-2 116v437h-213v-922h-326v922h-160v258h1184v-258h-160z" />
    <glyph glyph-name="Wgrave" unicode="&#x1e80;" horiz-adv-x="2246" 
d="M1339 1595h-428l-247 312h477zM1122 1030l-184 -1030h-541l-368 1485h481l176 -1086l191 1086h514l176 -1086l207 1086h444l-391 -1485h-537z" />
    <glyph glyph-name="wgrave" unicode="&#x1e81;" horiz-adv-x="1888" 
d="M1116 1266h-358l-250 368h410zM936 727l-123 -727h-489l-320 1126h426l148 -829l141 829h442l154 -833l145 833h424l-313 -1126h-500z" />
    <glyph glyph-name="Wacute" unicode="&#x1e82;" horiz-adv-x="2246" 
d="M915 1589l197 314h477l-248 -314h-426zM1122 1030l-184 -1030h-541l-368 1485h481l176 -1086l191 1086h514l176 -1086l207 1086h444l-391 -1485h-537z" />
    <glyph glyph-name="wacute" unicode="&#x1e83;" horiz-adv-x="1888" 
d="M762 1266l199 368h409l-248 -368h-360zM936 727l-123 -727h-489l-320 1126h426l148 -829l141 829h442l154 -833l145 833h424l-313 -1126h-500z" />
    <glyph glyph-name="Wdieresis" unicode="&#x1e84;" horiz-adv-x="2246" 
d="M666 1589v326h409v-326h-409zM1196 1589v326h410v-326h-410zM1122 1030l-184 -1030h-541l-368 1485h481l176 -1086l191 1086h514l176 -1086l207 1086h444l-391 -1485h-537z" />
    <glyph glyph-name="wdieresis" unicode="&#x1e85;" horiz-adv-x="1888" 
d="M506 1260v325h377v-325h-377zM1004 1260v325h376v-325h-376zM936 727l-123 -727h-489l-320 1126h426l148 -829l141 829h442l154 -833l145 833h424l-313 -1126h-500z" />
    <glyph glyph-name="uni1E9E" unicode="&#x1e9e;" horiz-adv-x="1505" 
d="M1458 453q0 -65 -16 -125t-57.5 -121t-106 -105t-169.5 -72t-239 -28h-239v342h231q160 0 160 176q0 178 -209 178q-44 0 -82.5 -5t-54.5 -10l-17 -5v264l287 246h-231q-100 0 -143.5 -56.5t-43.5 -166.5v-965h-409v946q0 54 2 95.5t9 89.5t19 84t33 75t50 66.5t71.5 53
t96 41t124.5 25t156 9.5h723v-297l-270 -262q177 -46 251 -160t74 -313z" />
    <glyph glyph-name="uni1EA0" unicode="&#x1ea0;" horiz-adv-x="1505" 
d="M6 0l496 1485h502l495 -1485h-452l-62 219h-475l-61 -219h-443zM594 524h307l-153 551zM543 -412v318h409v-318h-409z" />
    <glyph glyph-name="uni1EA1" unicode="&#x1ea1;" horiz-adv-x="1306" 
d="M842 0l-25 66q-136 -103 -323 -103q-209 0 -317.5 87t-108.5 274q0 364 452 364q132 0 264 -12v45q0 96 -31 135t-118 39q-154 0 -154 -135h-358q0 33 3.5 63.5t16 71t33 74.5t58 69t87 59t124.5 39t167 15q115 0 203.5 -15t149.5 -39t104 -67t67 -86.5t37.5 -111.5
t17 -127.5t3.5 -147.5v-242l23 -315h-375zM623 229q89 0 161 60v188q-55 6 -131 6q-170 0 -170 -135q0 -57 35.5 -88t104.5 -31zM444 -444v317h410v-317h-410z" />
    <glyph glyph-name="uni1EB8" unicode="&#x1eb8;" horiz-adv-x="1230" 
d="M119 0v1485h1050v-334h-634v-248h532v-303h-532v-266h649v-334h-1065zM453 -412v318h409v-318h-409z" />
    <glyph glyph-name="uni1EB9" unicode="&#x1eb9;" horiz-adv-x="1286" 
d="M1219 371q-31 -408 -566 -408q-311 0 -448 149t-137 449q0 301 137 450.5t448 149.5q309 0 438.5 -158t129.5 -520h-734q7 -137 45 -191t119 -54q82 0 122.5 37.5t43.5 95.5h402zM651 913q-76 0 -113 -46t-49 -165h318q-14 123 -50.5 167t-105.5 44zM457 -436v317h409
v-317h-409z" />
    <glyph glyph-name="uni1EBC" unicode="&#x1ebc;" horiz-adv-x="1230" 
d="M1065 1956q0 -180 -55.5 -274.5t-194.5 -94.5q-62 0 -112 14.5t-76 32.5t-60.5 32.5t-70.5 14.5q-57 0 -84 -33t-27 -63h-174q0 86 12 150.5t40 115.5t78 77t122 26q61 0 110.5 -14.5t75.5 -32.5t60.5 -32.5t70.5 -14.5q57 0 84 33t27 63h174zM119 0v1485h1050v-334h-634
v-248h532v-303h-532v-266h649v-334h-1065z" />
    <glyph glyph-name="uni1EBD" unicode="&#x1ebd;" horiz-adv-x="1286" 
d="M1085 1642q0 -180 -55 -274t-194 -94q-61 0 -111 14.5t-77 32.5t-62 32.5t-70 14.5q-57 0 -83.5 -32.5t-26.5 -63.5h-175q0 179 56 273.5t194 94.5q61 0 111.5 -14.5t77.5 -32.5t62 -32.5t71 -14.5q55 0 81.5 33t26.5 63h174zM1219 371q-31 -408 -566 -408
q-311 0 -448 149t-137 449q0 301 137 450.5t448 149.5q309 0 438.5 -158t129.5 -520h-734q7 -137 45 -191t119 -54q82 0 122.5 37.5t43.5 95.5h402zM651 913q-76 0 -113 -46t-49 -165h318q-14 123 -50.5 167t-105.5 44z" />
    <glyph glyph-name="uni1ECA" unicode="&#x1eca;" horiz-adv-x="651" 
d="M119 0v1485h416v-1485h-416zM121 -428v317h409v-317h-409z" />
    <glyph glyph-name="uni1ECB" unicode="&#x1ecb;" horiz-adv-x="624" 
d="M106 1264v321h410v-321h-410zM106 0v1126h410v-1126h-410zM109 -412v318h409v-318h-409z" />
    <glyph glyph-name="uni1ECC" unicode="&#x1ecc;" horiz-adv-x="1460" 
d="M1393 741q0 -219 -41.5 -371t-127.5 -242.5t-205.5 -130.5t-287.5 -40q-134 0 -236.5 25t-184.5 81t-134.5 147t-80 223t-27.5 308q0 220 41.5 372.5t127.5 243.5t206 131t288 40t287.5 -40t205.5 -131t127.5 -243.5t41.5 -372.5zM494 741q0 -130 15 -215.5t46.5 -132
t73 -64.5t102.5 -18t102 18t72.5 64.5t46.5 132t15 215.5t-15 216t-46.5 133t-73 65.5t-101.5 18.5q-61 0 -102.5 -18.5t-73 -65.5t-46.5 -133t-15 -216zM526 -444v317h410v-317h-410z" />
    <glyph glyph-name="uni1ECD" unicode="&#x1ecd;" horiz-adv-x="1308" 
d="M1241 561q0 -300 -137 -449t-449 -149q-160 0 -273 38.5t-182 116t-100.5 186t-31.5 257.5q0 302 137 451.5t450 150.5q312 0 449 -150t137 -452zM485 561q0 -163 38 -227t132 -64q93 0 130.5 64t37.5 227q0 165 -37.5 230t-130.5 65q-94 0 -132 -65t-38 -230zM451 -444
v317h409v-317h-409z" />
    <glyph glyph-name="uni1EE4" unicode="&#x1ee4;" horiz-adv-x="1421" 
d="M1315 694q0 -115 -6 -200.5t-22.5 -166.5t-45.5 -136.5t-74 -102.5t-109 -74t-150 -42t-197 -15q-110 0 -196 15t-150 42.5t-109.5 74t-75 102.5t-46.5 136t-23.5 166t-6.5 201v791h416v-756q0 -167 19.5 -253.5t58 -117t111.5 -30.5q74 0 112 31t56 116.5t18 253.5v756
h420v-791zM506 -444v317h409v-317h-409z" />
    <glyph glyph-name="uni1EE5" unicode="&#x1ee5;" horiz-adv-x="1318" 
d="M879 0l-43 162q-23 -27 -52 -52.5t-76 -57t-110 -51t-131 -19.5q-211 0 -295 119.5t-82 392.5v630h410v-622q0 -80 29 -122t96 -42q100 0 172 119v669h409v-813l23 -313h-350zM449 -444v317h409v-317h-409z" />
    <glyph glyph-name="Ygrave" unicode="&#x1ef2;" horiz-adv-x="1372" 
d="M893 1595h-428l-248 312h477zM475 0v395l-469 1090h461l211 -719l201 719h487l-479 -1086v-399h-412z" />
    <glyph glyph-name="ygrave" unicode="&#x1ef3;" horiz-adv-x="1277" 
d="M827 1266h-358l-250 368h410zM420 -483l129 483h-156l-381 1126h447l182 -780l209 780h416l-482 -1609h-364z" />
    <glyph glyph-name="uni1EF8" unicode="&#x1ef8;" horiz-adv-x="1372" 
d="M1114 1956q0 -180 -55.5 -274.5t-194.5 -94.5q-62 0 -112 14.5t-76 32.5t-60.5 32.5t-70.5 14.5q-57 0 -84 -33t-27 -63h-174q0 86 12 150.5t40 115.5t78 77t122 26q61 0 110.5 -14.5t75.5 -32.5t60.5 -32.5t70.5 -14.5q57 0 84 33t27 63h174zM475 0v395l-469 1090h461
l211 -719l201 719h487l-479 -1086v-399h-412z" />
    <glyph glyph-name="uni1EF9" unicode="&#x1ef9;" horiz-adv-x="1277" 
d="M1079 1642q0 -180 -55.5 -274t-194.5 -94q-61 0 -110.5 14.5t-77 32.5t-62 32.5t-69.5 14.5q-57 0 -84 -32.5t-27 -63.5h-174q0 179 56 273.5t194 94.5q61 0 111.5 -14.5t77.5 -32.5t62 -32.5t71 -14.5q55 0 81.5 33t26.5 63h174zM420 -483l129 483h-156l-381 1126h447
l182 -780l209 780h416l-482 -1609h-364z" />
    <glyph glyph-name="uni2009" unicode="&#x2009;" horiz-adv-x="112" 
 />
    <glyph glyph-name="endash" unicode="&#x2013;" horiz-adv-x="1298" 
d="M143 510v291h1012v-291h-1012z" />
    <glyph glyph-name="emdash" unicode="&#x2014;" horiz-adv-x="2011" 
d="M168 510v291h1675v-291h-1675z" />
    <glyph glyph-name="uni2016" unicode="&#x2016;" horiz-adv-x="964" 
d="M109 -369v2048h282v-2048h-282zM573 -369v2048h283v-2048h-283z" />
    <glyph glyph-name="quoteleft" unicode="&#x2018;" horiz-adv-x="626" 
d="M102 932q7 108 68 319q30 104 66 180t56 101l21 24h277q-51 -134 -88 -339q-17 -96 -26 -167t-9 -94v-24h-365z" />
    <glyph glyph-name="quoteright" unicode="&#x2019;" horiz-adv-x="626" 
d="M61 932q54 135 91 340q17 96 25 167t7 94v23h365q-7 -108 -68 -317q-31 -105 -67 -181.5t-56 -101.5l-20 -24h-277z" />
    <glyph glyph-name="quotesinglbase" unicode="&#x201a;" horiz-adv-x="659" 
d="M53 -299q51 137 88 340q17 96 26 167.5t9 94.5v23h365q-9 -109 -68 -318q-31 -105 -67 -181.5t-56 -100.5l-20 -25h-277z" />
    <glyph glyph-name="quotedblleft" unicode="&#x201c;" horiz-adv-x="1079" 
d="M102 932q7 108 68 319q30 104 66 180t56 101l21 24h277q-51 -134 -88 -339q-17 -96 -26 -167t-9 -94v-24h-365zM555 932q7 108 68 319q30 104 66 180t57 101l20 24h276q-51 -134 -88 -339q-17 -96 -25.5 -167t-8.5 -94v-24h-365z" />
    <glyph glyph-name="quotedblright" unicode="&#x201d;" horiz-adv-x="1079" 
d="M61 932q52 135 89 340q17 96 25.5 167t8.5 94v23h365q-9 -108 -68 -317q-31 -105 -67 -181.5t-56 -101.5l-20 -24h-277zM514 932q51 135 88 340q17 96 26 167t9 94v23h364q-8 -108 -67 -317q-31 -105 -67.5 -181.5t-57.5 -101.5l-21 -24h-274z" />
    <glyph glyph-name="quotedblbase" unicode="&#x201e;" horiz-adv-x="1101" 
d="M61 -307q52 137 89 340q17 96 25.5 167t8.5 94v23h365q-9 -108 -68 -317q-31 -105 -67 -181.5t-56 -100.5l-20 -25h-277zM512 -307q51 137 88 340q17 96 26 167t9 94v23h364q-8 -108 -67 -317q-31 -105 -67 -181.5t-57 -100.5l-20 -25h-276z" />
    <glyph glyph-name="dagger" unicode="&#x2020;" horiz-adv-x="1153" 
d="M147 1257h287v367h283v-367h289v-241h-289v-1016h-283v1016h-287v241z" />
    <glyph glyph-name="daggerdbl" unicode="&#x2021;" horiz-adv-x="1269" 
d="M147 1257h287v367h283v-367h289v-241h-289v-410h289v-241h-289v-365h-283v365h-287v241h287v410h-287v241z" />
    <glyph glyph-name="bullet" unicode="&#x2022;" horiz-adv-x="1105" 
d="M309 383v469h486v-469h-486z" />
    <glyph glyph-name="ellipsis" unicode="&#x2026;" horiz-adv-x="1824" 
d="M145 0v342h412v-342h-412zM707 0v342h409v-342h-409zM1266 0v342h411v-342h-411z" />
    <glyph glyph-name="perthousand" unicode="&#x2030;" horiz-adv-x="2770" 
d="M821 1094q0 -193 -88 -287t-297 -94q-208 0 -297.5 94.5t-89.5 286.5q0 194 89.5 290.5t297.5 96.5q209 0 297 -96t88 -291zM309 0l942 1438h377l-942 -1438h-377zM309 1094q0 -91 30 -133.5t97 -42.5q68 0 95.5 41.5t27.5 134.5q0 95 -28 139.5t-95 44.5t-97 -45
t-30 -139zM1880 334q0 -191 -88 -285t-297 -94q-208 0 -297.5 94.5t-89.5 284.5q0 195 89.5 292t297.5 97q209 0 297 -96.5t88 -292.5zM2720 334q0 -191 -88 -285t-297 -94q-208 0 -297.5 94.5t-89.5 284.5q0 195 89.5 292t297.5 97q209 0 297 -96.5t88 -292.5zM1368 334
q0 -91 30 -132.5t97 -41.5q68 0 96.5 41t28.5 133q0 95 -29 139.5t-96 44.5t-97 -44.5t-30 -139.5zM2208 334q0 -91 30 -132.5t97 -41.5q68 0 96.5 41t28.5 133q0 95 -29 139.5t-96 44.5t-97 -44.5t-30 -139.5z" />
    <glyph glyph-name="guilsinglleft" unicode="&#x2039;" horiz-adv-x="1003" 
d="M406 156l-240 366v62l240 381h432l-301 -414l301 -395h-432z" />
    <glyph glyph-name="guilsinglright" unicode="&#x203a;" horiz-adv-x="1003" 
d="M598 156h-434l301 395l-301 414h434l240 -381v-62z" />
    <glyph glyph-name="fraction" unicode="&#x2044;" horiz-adv-x="600" 
d="M-295 -82l897 1620h309l-897 -1620h-309z" />
    <glyph glyph-name="uni2070" unicode="&#x2070;" horiz-adv-x="1136" 
d="M1057 1126q0 -173 -30 -289.5t-94.5 -183t-152 -94t-215.5 -27.5q-127 0 -214 27.5t-151 94t-94 183t-30 289.5q0 138 20 239t58 168.5t99 108t136 57.5t176 17q128 0 215.5 -27.5t152 -93.5t94.5 -181.5t30 -287.5zM412 1126q0 -100 10 -163.5t31 -96t47 -44t65 -11.5
q33 0 55 6.5t42.5 26t32.5 54t19 91.5t7 137t-7 136.5t-19 91t-32.5 54t-43 26t-54.5 6.5q-39 0 -65 -11.5t-47 -44t-31 -96t-10 -162.5z" />
    <glyph glyph-name="uni2074" unicode="&#x2074;" horiz-adv-x="1060" 
d="M606 557v168h-563v248l426 717h459v-717h123v-248h-123v-168h-322zM606 973v469l-248 -469h248z" />
    <glyph glyph-name="uni2075" unicode="&#x2075;" horiz-adv-x="1040" 
d="M465 1436l-29 -189q82 53 207 53q82 0 145.5 -22t102.5 -57.5t64 -85.5t34.5 -100.5t9.5 -108.5q0 -63 -12.5 -117.5t-45.5 -106.5t-84 -89t-133 -59t-189 -22q-108 0 -192.5 22t-136 57t-85 83.5t-46 97t-12.5 101.5h351q0 -29 30 -63.5t91 -34.5q122 0 122 131
q0 153 -116 153q-44 0 -79.5 -17.5t-49.5 -34.5l-13 -17l-313 2l92 678h756v-269z" />
    <glyph glyph-name="uni2076" unicode="&#x2076;" horiz-adv-x="1091" 
d="M1042 922q0 -62 -13 -115t-47 -104.5t-86.5 -88t-137.5 -59t-195 -23.5q-139 -1 -233.5 32t-150 102.5t-79.5 166.5t-24 236q0 246 48 386t152.5 201.5t286.5 61.5q101 0 181 -21t130 -55.5t83 -81.5t46 -95t13 -101h-332q0 40 -27.5 73t-85.5 33q-67 0 -103.5 -51
t-47.5 -186q88 55 227 55q107 0 185.5 -29t123 -81t65.5 -115.5t21 -140.5zM567 1079q-90 0 -153 -67q6 -120 40.5 -175t108.5 -55q68 0 98.5 43.5t30.5 110.5q0 69 -32.5 106t-92.5 37z" />
    <glyph glyph-name="uni2077" unicode="&#x2077;" horiz-adv-x="890" 
d="M205 557q0 129 34 266t83 240.5t98 188.5t83 130l34 45l-521 -14v275h863v-275q-13 -18 -35.5 -51t-79 -133t-99.5 -197.5t-78.5 -229.5t-35.5 -245h-346z" />
    <glyph glyph-name="uni2078" unicode="&#x2078;" horiz-adv-x="1085" 
d="M555 532q-140 0 -236.5 23.5t-150.5 71t-77 108.5t-23 146q0 69 23 126.5t56 90t62.5 50.5t50.5 21q-16 3 -39.5 17t-51.5 39.5t-47.5 71t-19.5 100.5q0 74 22 130t72.5 100.5t140.5 67.5t218 23t218 -23t140 -67.5t71.5 -100.5t21.5 -130q0 -55 -19.5 -100.5t-47 -71
t-51.5 -39.5t-40 -17q16 -2 39 -13t51 -34.5t51 -55.5t39 -80.5t16 -104.5q0 -85 -23 -146t-77.5 -108.5t-151 -71t-237.5 -23.5zM555 1507q-117 0 -117 -143q0 -123 117 -123t117 123q0 72 -27 107.5t-90 35.5zM555 1075q-125 0 -125 -153q0 -152 125 -152q127 0 127 152
q0 153 -127 153z" />
    <glyph glyph-name="uni2079" unicode="&#x2079;" horiz-adv-x="1091" 
d="M1044 1176q0 -190 -23 -310t-82 -196.5t-151.5 -107t-238.5 -30.5q-110 0 -195 21t-136 55t-83.5 81.5t-44.5 94.5t-12 101h332q0 -41 32 -73t107 -32q65 0 100.5 46t48.5 175q-95 -57 -213 -57q-99 0 -171.5 18.5t-117.5 51t-72.5 82t-37.5 104.5t-10 127q0 61 13 115
t47 106t87 88.5t138 59t194 22.5q139 0 233.5 -33t151 -103t80.5 -168t24 -238zM553 1151q90 0 149 74q-5 128 -39 185.5t-108 57.5q-67 0 -98 -43.5t-31 -109.5q0 -164 127 -164z" />
    <glyph glyph-name="Euro" unicode="&#x20ac;" horiz-adv-x="1331" 
d="M567 463q20 -99 69 -146t136 -47q65 0 108 30t46 81h344q-18 -436 -516 -436q-149 0 -256 30.5t-179 96t-112 160.5t-57 231h-140v190h127v121h-127v189h140q33 277 171.5 403.5t432.5 126.5q510 0 522 -463h-346q-2 56 -45.5 96.5t-112.5 40.5q-89 0 -137.5 -49.5
t-69.5 -154.5h441v-189h-457v-57q0 -8 -0.5 -21.5t-0.5 -23.5t1 -19h457v-190h-439z" />
    <glyph glyph-name="uni20BD" unicode="&#x20bd;" horiz-adv-x="1458" 
d="M168 0v217h-158v242h158v121h-158v278h158v610h496q147 0 251 -7.5t190.5 -27t140.5 -51.5t91.5 -83t52.5 -118.5t15 -160.5q0 -111 -24 -186t-73.5 -126t-141 -78.5t-208.5 -38.5t-294 -11h-80v-121h329v-242h-329v-217h-416zM584 1192v-336h133q137 0 197.5 33
t60.5 135t-60.5 135t-197.5 33h-133z" />
    <glyph glyph-name="uni2116" unicode="&#x2116;" horiz-adv-x="2729" 
d="M2540 1001q0 -123 -24 -211t-79 -152.5t-149 -96t-230 -31.5t-230 31.5t-148.5 96t-78.5 152.5t-24 211t24 211.5t78.5 153.5t148.5 97t230 32t230 -32t149 -97t79 -153.5t24 -211.5zM119 0l2 1485h434l502 -899v899h338v-1485h-437l-499 891v-891h-340zM1923 1001
q0 -142 29.5 -193.5t105.5 -51.5q77 0 107 51.5t30 193.5t-30 194t-107 52q-76 0 -105.5 -51.5t-29.5 -194.5zM1602 55v310h921v-310h-921z" />
    <glyph glyph-name="uni2117" unicode="&#x2117;" horiz-adv-x="1691" 
d="M1624 713q0 -138 -25.5 -254t-84 -217t-147 -171.5t-221.5 -110.5t-302 -40q-166 0 -298 40t-220.5 110.5t-147 171t-84.5 217.5t-26 254q0 138 26 256t84.5 220t147 174t220.5 112.5t298 40.5q168 0 301.5 -41t222 -112t147 -173.5t84 -220t25.5 -256.5zM262 713
q0 -627 582 -627q133 0 235.5 32.5t168 87.5t107 136.5t58.5 171.5t17 199q0 637 -586 637q-582 0 -582 -637zM510 272v902h387q215 0 302 -74.5t87 -268.5q0 -103 -20 -167t-70 -101.5t-121.5 -51t-187.5 -13.5h-117v-226h-260zM770 965v-260h98q84 0 117 23.5t33 105.5
t-33 106.5t-117 24.5h-98z" />
    <glyph glyph-name="uni2120" unicode="&#x2120;" horiz-adv-x="1832" 
d="M731 983q0 -114 -72 -171.5t-237 -57.5q-169 0 -236 59.5t-67 200.5h200q0 -56 25.5 -78.5t71.5 -22.5q96 -3 96 62q0 25 -16.5 41t-43.5 22.5t-61.5 14.5t-70.5 14.5t-70.5 23t-61.5 40t-44 66.5t-17 101q3 215 295 215q165 -1 230 -58.5t65 -186.5h-199q0 86 -88 86
t-88 -64q0 -24 21.5 -39.5t56 -23.5t76 -16t82.5 -22.5t75.5 -37t56 -65.5t21.5 -103zM817 772v721h307l121 -514l119 514h315v-721h-196l16 518l-147 -518h-217l-142 526l19 -526h-195z" />
    <glyph glyph-name="trademark" unicode="&#x2122;" horiz-adv-x="1759" 
d="M283 774v529h-174v190h561v-190h-172v-529h-215zM739 772v721h308l120 -512l119 512h316v-721h-197l16 518l-147 -518h-217l-144 526l21 -526h-195z" />
    <glyph glyph-name="oneeighth" unicode="&#x215b;" horiz-adv-x="2314" 
d="M197 420v813l-185 -72v269l318 124h188v-1134h-321zM344 -82l897 1620h309l-897 -1620h-309zM1784 -25q-140 0 -236.5 23.5t-151 71t-77.5 108.5t-23 146q0 69 23 126.5t56.5 90t63 50.5t50.5 21q-16 3 -39.5 17t-51.5 39.5t-47.5 71t-19.5 100.5q0 74 22 130t72.5 100.5
t140.5 67.5t218 23t218 -23t139.5 -67.5t71 -100.5t21.5 -130q0 -55 -19 -100.5t-47 -71t-51.5 -39.5t-39.5 -17q16 -2 39 -13t51 -34.5t51 -55.5t39 -80.5t16 -104.5q0 -85 -23 -146t-77.5 -108.5t-151 -71t-237.5 -23.5zM1784 950q-117 0 -117 -143q0 -123 117 -123
t117 123q0 72 -27 107.5t-90 35.5zM1784 518q-125 0 -125 -153q0 -152 125 -152q127 0 127 152q0 153 -127 153z" />
    <glyph glyph-name="threeeighths" unicode="&#x215c;" horiz-adv-x="2643" 
d="M707 1114q137 -37 193 -120t56 -222q0 -58 -12.5 -109.5t-45.5 -101.5t-83.5 -86t-132.5 -58t-188 -22q-457 0 -457 414h332q0 -56 27.5 -97.5t88.5 -41.5q63 0 91 37t28 94q0 79 -38 120.5t-146 41.5q-35 0 -64 -4.5t-41 -8.5l-12 -4v184l240 158l-469 -20v284h864v-245
zM674 -82l897 1620h309l-897 -1620h-309zM2114 -25q-140 0 -236.5 23.5t-151 71t-77.5 108.5t-23 146q0 69 23 126.5t56.5 90t63 50.5t50.5 21q-16 3 -39.5 17t-51.5 39.5t-47.5 71t-19.5 100.5q0 74 22 130t72.5 100.5t140.5 67.5t218 23t218 -23t139.5 -67.5t71 -100.5
t21.5 -130q0 -55 -19.5 -100.5t-47 -71t-51.5 -39.5t-40 -17q21 -3 52 -21t64.5 -50.5t57 -90t23.5 -126.5q0 -85 -23 -146t-77.5 -108.5t-151 -71t-237.5 -23.5zM2114 950q-117 0 -117 -143q0 -123 117 -123q116 0 116 123q0 72 -27 107.5t-89 35.5zM2114 518
q-125 0 -125 -153q0 -152 125 -152q127 0 127 152q0 153 -127 153z" />
    <glyph glyph-name="fiveeighths" unicode="&#x215d;" horiz-adv-x="2678" 
d="M465 1298l-29 -188q82 53 207 53q82 0 145.5 -22t102.5 -57.5t64 -86t34.5 -101t9.5 -108.5q0 -63 -12.5 -117.5t-45.5 -106.5t-84 -88.5t-133 -58.5t-189 -22q-108 0 -192.5 22t-136 57t-85 83.5t-46 97t-12.5 101.5h351q0 -29 30 -64t91 -35q122 0 122 131
q0 69 -27 111.5t-89 42.5q-27 0 -52 -7t-40.5 -17.5t-27.5 -21t-17 -17.5l-5 -7l-313 2l92 678h756v-268zM709 -82l897 1620h309l-897 -1620h-309zM2148 -25q-140 0 -236.5 23.5t-150.5 71t-77 108.5t-23 146q0 69 23 126.5t56 90t62.5 50.5t50.5 21q-12 2 -29.5 10.5
t-40 27t-41.5 43.5t-32.5 63.5t-13.5 83.5q0 74 22 130t72 100.5t140 67.5t218 23t218 -23t140 -67.5t71.5 -100.5t21.5 -130q0 -55 -19.5 -100.5t-47 -71t-51.5 -39.5t-40 -17q21 -3 52 -21t64.5 -50.5t57 -90t23.5 -126.5q0 -85 -23 -146t-77.5 -108.5t-151.5 -71
t-238 -23.5zM2148 950q-61 0 -88.5 -36t-27.5 -107q0 -123 116 -123q117 0 117 123q0 72 -27 107.5t-90 35.5zM2148 518q-125 0 -125 -153q0 -152 125 -152q127 0 127 152q0 153 -127 153z" />
    <glyph glyph-name="seveneighths" unicode="&#x215e;" horiz-adv-x="2426" 
d="M205 420q0 129 34 266t83 240.5t98 188.5t83 130l34 45l-521 -14v274h863v-274q-13 -18 -35.5 -51t-79 -133t-99.5 -197.5t-78.5 -229.5t-35.5 -245h-346zM457 -82l897 1620h309l-897 -1620h-309zM1896 -25q-140 0 -236.5 23.5t-150.5 71t-77 108.5t-23 146
q0 69 23 126.5t56.5 90t63 50.5t50.5 21q-16 3 -39.5 17t-51.5 39.5t-47.5 71t-19.5 100.5q0 74 22 130t72 100.5t140 67.5t218 23t218 -23t140 -67.5t71.5 -100.5t21.5 -130q0 -55 -19.5 -100.5t-47 -71t-51.5 -39.5t-40 -17q21 -3 52 -21t64.5 -50.5t57 -90t23.5 -126.5
q0 -85 -23 -146t-77.5 -108.5t-151.5 -71t-238 -23.5zM1896 950q-61 0 -88.5 -36t-27.5 -107q0 -123 116 -123q117 0 117 123q0 72 -27 107.5t-90 35.5zM1896 518q-124 0 -124 -153q0 -152 124 -152q127 0 127 152q0 153 -127 153z" />
    <glyph glyph-name="arrowleft" unicode="&#x2190;" horiz-adv-x="1468" 
d="M1372 360l-749 48l292 -236l-213 -242l-593 510v252l593 508l213 -242l-290 -235l747 47v-410z" />
    <glyph glyph-name="arrowup" unicode="&#x2191;" horiz-adv-x="1374" 
d="M481 -39l47 748l-235 -291l-242 213l510 596h252l508 -596l-242 -213l-235 291l47 -748h-410z" />
    <glyph glyph-name="arrowright" unicode="&#x2192;" horiz-adv-x="1468" 
d="M94 770l750 -47l-291 235l213 242l594 -508v-252l-594 -510l-213 242l291 236l-750 -48v410z" />
    <glyph glyph-name="arrowdown" unicode="&#x2193;" horiz-adv-x="1366" 
d="M889 1186l-47 -750l235 293l242 -213l-510 -594h-252l-508 594l242 213l233 -291l-45 748h410z" />
    <glyph glyph-name="arrowboth" unicode="&#x2194;" horiz-adv-x="2029" 
d="M1329 1227l594 -510v-250l-594 -510l-213 242l283 229l-776 -6l292 -236l-213 -241l-593 510v252l593 507l213 -241l-303 -246l815 6l-311 252z" />
    <glyph glyph-name="arrowupdn" unicode="&#x2195;" horiz-adv-x="1386" 
d="M825 -385h-252l-510 594l242 213l232 -287l-7 846l-235 -291l-244 213l510 594h252l508 -594l-240 -213l-233 287l6 -848l238 293l241 -213z" />
    <glyph glyph-name="uni2196" unicode="&#x2196;" horiz-adv-x="1275" 
d="M930 2l-498 565l41 -377l-321 -18l-60 780l176 178l783 -61l-21 -321l-375 40l564 -497z" />
    <glyph glyph-name="uni2197" unicode="&#x2197;" horiz-adv-x="1275" 
d="M57 291l564 497l-375 -40l-19 321l781 61l178 -178l-62 -780l-321 21l41 372l-498 -563z" />
    <glyph glyph-name="uni2198" unicode="&#x2198;" horiz-adv-x="1275" 
d="M348 1159l496 -563l-41 373l321 20l62 -782l-178 -176l-781 59l19 322l375 -41l-564 497z" />
    <glyph glyph-name="uni2199" unicode="&#x2199;" horiz-adv-x="1275" 
d="M1221 868l-566 -497l375 41l21 -322l-783 -59l-176 176l60 782l321 -20l-41 -377l498 567z" />
    <glyph glyph-name="minus" unicode="&#x2212;" horiz-adv-x="1003" 
d="M51 555v242h901v-242h-901z" />
    <glyph glyph-name="infinity" unicode="&#x221e;" horiz-adv-x="1769" 
d="M485 229q-419 0 -419 394q0 194 105.5 293.5t315.5 99.5q65 0 123 -18.5t107.5 -54.5t87.5 -73.5t80 -89.5q41 52 79 89.5t86.5 73.5t106.5 54.5t123 18.5q211 0 317.5 -99.5t106.5 -293.5t-106.5 -294t-317.5 -100q-123 0 -215.5 62t-179.5 172q-89 -110 -182.5 -172
t-217.5 -62zM326 623q0 -77 40 -124.5t119 -47.5q78 0 143 45t132 127q-67 82 -132 127t-143 45t-118.5 -48t-40.5 -124zM1442 623q0 76 -41 124t-119 48t-141 -44t-133 -128q70 -84 133 -128t141 -44q79 0 119.5 47.5t40.5 124.5z" />
    <glyph glyph-name="approxequal" unicode="&#x2248;" horiz-adv-x="1314" 
d="M106 709q0 97 16 168t53.5 129t107.5 88t172 30q62 0 119 -17.5t93.5 -38.5t88.5 -38.5t104 -17.5q70 0 105.5 39t35.5 73h207q0 -96 -16 -167.5t-54 -129.5t-107.5 -88t-170.5 -30q-62 0 -119 17.5t-93.5 38.5t-88.5 38.5t-104 17.5q-70 0 -106 -39t-36 -73h-207z
M106 227q0 97 16 168.5t53.5 130t107.5 89t172 30.5q62 0 119 -17.5t93.5 -39t88.5 -39t104 -17.5q70 0 105.5 39.5t35.5 73.5h207q0 -96 -16 -168t-54 -130.5t-107.5 -89t-170.5 -30.5q-62 0 -119 17.5t-93.5 39t-88.5 39t-104 17.5q-70 0 -106 -39.5t-36 -73.5h-207z" />
    <glyph glyph-name="notequal" unicode="&#x2260;" horiz-adv-x="1179" 
d="M164 141l106 189h-164v239h302l81 142h-383v241h521l98 172h219l-98 -172h227v-241h-366l-82 -142h448v-239h-586l-106 -189h-217z" />
    <glyph glyph-name="lessequal" unicode="&#x2264;" horiz-adv-x="1165" 
d="M1032 406l-911 272v313l911 264v-292l-641 -129l641 -136v-292zM113 106v242h919v-242h-919z" />
    <glyph glyph-name="greaterequal" unicode="&#x2265;" horiz-adv-x="1165" 
d="M133 406v292l641 136l-641 129v292l911 -264v-313zM133 106v242h920v-242h-920z" />
    <glyph glyph-name="uni2661" unicode="&#x2661;" horiz-adv-x="1675" 
d="M1552 897q0 -106 -38 -216t-93 -198t-135 -178t-144 -149t-140.5 -118.5t-105 -79t-55.5 -36.5l-3 -2l-7 5q-23 15 -44 29.5t-74 54t-99 77.5t-108.5 97t-112.5 116.5t-102.5 131t-88 145.5t-57.5 156t-22 165q1 183 111.5 296.5t271.5 113.5q57 0 111.5 -17t89 -36.5
t68.5 -49t44 -40.5t20 -24l1 -1q0 2 13 18.5t41.5 41.5t65.5 49t93 41.5t116 17.5q161 0 272 -113.5t111 -296.5zM838 352l2 2q138 104 215 220q63 95 63 178q0 75 -35 114t-88 39q-27 0 -52 -10t-41 -24.5t-28.5 -29t-17.5 -24.5l-6 -10h-23q-2 4 -6 10.5t-17.5 23.5
t-29.5 30t-41.5 23.5t-52.5 10.5q-51 0 -87 -39t-36 -114q0 -42 15 -86.5t40 -82.5t55 -74t60 -63.5t55 -48.5t40 -33z" />
    <glyph glyph-name="i.loclTRK" horiz-adv-x="624" 
d="M106 1264v321h410v-321h-410zM106 0v1126h410v-1126h-410z" />
    <glyph glyph-name="a.sc" horiz-adv-x="1300" 
d="M2 0l420 1217h473l403 -1217h-426l-38 166h-373l-41 -166h-418zM528 432h242l-117 492z" />
    <glyph glyph-name="aacute.sc" horiz-adv-x="1300" 
d="M473 1356l199 368h409l-247 -368h-361zM2 0l420 1217h473l403 -1217h-426l-38 166h-373l-41 -166h-418zM528 432h242l-117 492z" />
    <glyph glyph-name="abreve.sc" horiz-adv-x="1300" 
d="M1090 1702q0 -48 -13 -95.5t-45 -96t-80.5 -85t-125.5 -59.5t-173 -23t-173 23t-125 59.5t-80 85t-45 96t-13 95.5h309q0 -41 35 -75t92 -34t93 34t36 75h308zM2 0l420 1217h473l403 -1217h-426l-38 166h-373l-41 -166h-418zM528 432h242l-117 492z" />
    <glyph glyph-name="acircumflex.sc" horiz-adv-x="1300" 
d="M1104 1350h-318l-139 139l-137 -139h-313l276 364h348zM2 0l420 1217h473l403 -1217h-426l-38 166h-373l-41 -166h-418zM528 432h242l-117 492z" />
    <glyph glyph-name="adieresis.sc" horiz-adv-x="1300" 
d="M217 1350v325h377v-325h-377zM715 1350v325h377v-325h-377zM2 0l420 1217h473l403 -1217h-426l-38 166h-373l-41 -166h-418zM528 432h242l-117 492z" />
    <glyph glyph-name="uni1EA1.sc" horiz-adv-x="1300" 
d="M2 0l420 1217h473l403 -1217h-426l-38 166h-373l-41 -166h-418zM528 432h242l-117 492zM440 -412v318h410v-318h-410z" />
    <glyph glyph-name="agrave.sc" horiz-adv-x="1300" 
d="M827 1356h-358l-250 368h410zM2 0l420 1217h473l403 -1217h-426l-38 166h-373l-41 -166h-418zM528 432h242l-117 492z" />
    <glyph glyph-name="amacron.sc" horiz-adv-x="1300" 
d="M301 1636h703v-241h-703v241zM2 0l420 1217h473l403 -1217h-426l-38 166h-373l-41 -166h-418zM528 432h242l-117 492z" />
    <glyph glyph-name="aogonek.sc" horiz-adv-x="1300" 
d="M686 -270q0 57 25.5 109.5t62 86t61 51t37.5 23.5l-38 166h-373l-41 -166h-418l420 1217h473l403 -1217h-137q-5 -3 -13 -8.5t-29 -23.5t-37 -37.5t-29 -49t-13 -59.5q0 -28 17 -48t49 -20q22 0 46.5 7t37.5 13l14 7v-189q-2 -2 -7.5 -6t-26 -14.5t-46.5 -18t-71.5 -14
t-98.5 -6.5q-77 0 -132.5 18.5t-83.5 49.5t-40 63t-12 66zM528 432h242l-117 492z" />
    <glyph glyph-name="aring.sc" horiz-adv-x="1300" 
d="M938 1583q0 -124 -76.5 -190t-206.5 -66q-132 0 -207 65.5t-75 190.5q0 128 75 193t207 65q130 0 206.5 -65.5t76.5 -192.5zM588 1583q0 -30 18.5 -48.5t48.5 -18.5t49 18.5t19 48.5q0 32 -19 51t-49 19t-48.5 -19t-18.5 -51zM2 0l420 1217h473l403 -1217h-426l-38 166
h-373l-41 -166h-418zM528 432h242l-117 492z" />
    <glyph glyph-name="aringacute.sc" horiz-adv-x="1300" 
d="M477 1907l199 368h409l-247 -368h-361zM938 1583q0 -124 -76.5 -190t-206.5 -66q-132 0 -207 65.5t-75 190.5q0 128 75 193t207 65q130 0 206.5 -65.5t76.5 -192.5zM588 1583q0 -30 18.5 -48.5t48.5 -18.5t49 18.5t19 48.5q0 32 -19 51t-49 19t-48.5 -19t-18.5 -51zM2 0
l420 1217h473l403 -1217h-426l-38 166h-373l-41 -166h-418zM528 432h242l-117 492z" />
    <glyph glyph-name="atilde.sc" horiz-adv-x="1300" 
d="M1079 1733q0 -180 -55.5 -274.5t-194.5 -94.5q-61 0 -110.5 14.5t-77 32.5t-62 32.5t-69.5 14.5q-57 0 -84 -32.5t-27 -63.5h-174q0 179 56 274t194 95q61 0 111.5 -15t77.5 -32.5t62 -32.5t71 -15q55 0 81.5 33.5t26.5 63.5h174zM2 0l420 1217h473l403 -1217h-426
l-38 166h-373l-41 -166h-418zM528 432h242l-117 492z" />
    <glyph glyph-name="ae.sc" horiz-adv-x="1785" 
d="M2 0l576 1217h1157v-295h-518v-185h432v-250h-432v-192h532v-295h-924v182h-317l-76 -182h-430zM825 465v477l-200 -477h200z" />
    <glyph glyph-name="aeacute.sc" horiz-adv-x="1785" 
d="M631 1356l198 368h410l-248 -368h-360zM2 0l576 1217h1157v-295h-518v-185h432v-250h-432v-192h532v-295h-924v182h-317l-76 -182h-430zM825 465v477l-200 -477h200z" />
    <glyph glyph-name="b.sc" horiz-adv-x="1202" 
d="M205 0h-113v1219h500q211 0 326.5 -32t163.5 -101.5t48 -194.5q0 -196 -153 -273q101 -35 142.5 -102.5t41.5 -169.5q0 -70 -8.5 -118.5t-32 -89.5t-62.5 -66t-104 -42.5t-152 -24.5t-210 -7h-387v2zM483 965v-248h109q89 0 123.5 24.5t34.5 98.5q0 75 -35.5 100
t-128.5 25h-103zM483 514v-264h103q110 0 151 25t41 102q0 84 -41 110.5t-145 26.5h-109z" />
    <glyph glyph-name="ordfeminine.sc" horiz-adv-x="874" 
d="M565 569l-16 41q-91 -67 -215 -67q-143 0 -217 58.5t-74 186.5q0 130 82.5 188t222.5 58q86 0 176 -8v33q0 59 -20 84.5t-74 25.5q-96 0 -96 -86h-254q0 32 5.5 61.5t26 68.5t54.5 67t98 48t150 20q78 0 138 -10t102.5 -26t71.5 -45t46 -59t26.5 -75.5t12 -86.5t2.5 -100
v-164l14 -213h-262zM424 731q54 0 100 33v123q-50 4 -82 4q-108 0 -108 -86q0 -74 90 -74z" />
    <glyph glyph-name="ordmasculine.sc" horiz-adv-x="884" 
d="M842 946q0 -204 -93 -304.5t-307 -100.5t-306.5 100t-92.5 305t93 306.5t306 101.5t306.5 -101.5t93.5 -306.5zM334 946q0 -107 24.5 -148.5t83.5 -41.5t83 41.5t24 148.5q0 108 -24 149.5t-83 41.5t-83.5 -42t-24.5 -149z" />
    <glyph glyph-name="c.sc" horiz-adv-x="1210" 
d="M1169 506q-1 -155 -36.5 -261.5t-108 -168t-169.5 -87.5t-234 -26q-94 0 -169 13t-140.5 42.5t-112.5 79t-81 120t-50.5 168.5t-16.5 222t16.5 222t50.5 168.5t81 120t112.5 79t140.5 42.5t169 13q135 0 232 -25.5t170 -85t108.5 -163.5t35.5 -254h-385q-5 81 -26 125.5
t-52 58t-83 13.5q-33 0 -57 -6.5t-46 -26t-35.5 -53.5t-21.5 -91t-8 -137q0 -99 11 -163t35 -96t52 -43t70 -11q39 0 65.5 8t48.5 30t34 64.5t15 108.5h385z" />
    <glyph glyph-name="cacute.sc" horiz-adv-x="1210" 
d="M449 1372l198 369h410l-248 -369h-360zM1169 506q-1 -155 -36.5 -261.5t-108 -168t-169.5 -87.5t-234 -26q-94 0 -169 13t-140.5 42.5t-112.5 79t-81 120t-50.5 168.5t-16.5 222t16.5 222t50.5 168.5t81 120t112.5 79t140.5 42.5t169 13q135 0 232 -25.5t170 -85
t108.5 -163.5t35.5 -254h-385q-5 81 -26 125.5t-52 58t-83 13.5q-33 0 -57 -6.5t-46 -26t-35.5 -53.5t-21.5 -91t-8 -137q0 -99 11 -163t35 -96t52 -43t70 -11q39 0 65.5 8t48.5 30t34 64.5t15 108.5h385z" />
    <glyph glyph-name="ccaron.sc" horiz-adv-x="1210" 
d="M1077 1731l-282 -365h-349l-264 365h301l138 -129l139 129h317zM1169 506q-1 -155 -36.5 -261.5t-108 -168t-169.5 -87.5t-234 -26q-94 0 -169 13t-140.5 42.5t-112.5 79t-81 120t-50.5 168.5t-16.5 222t16.5 222t50.5 168.5t81 120t112.5 79t140.5 42.5t169 13
q135 0 232 -25.5t170 -85t108.5 -163.5t35.5 -254h-385q-5 81 -26 125.5t-52 58t-83 13.5q-33 0 -57 -6.5t-46 -26t-35.5 -53.5t-21.5 -91t-8 -137q0 -99 11 -163t35 -96t52 -43t70 -11q39 0 65.5 8t48.5 30t34 64.5t15 108.5h385z" />
    <glyph glyph-name="ccedilla.sc" horiz-adv-x="1210" 
d="M954 -338q0 -55 -17.5 -95t-61 -72.5t-125.5 -49t-203 -16.5q-72 0 -131 6t-82 12l-23 6v176q1 -4 12 -7.5t39 -7t68 -3.5q63 0 96 24t33 66q0 98 -178 98h-4l92 174q-211 30 -314.5 177t-103.5 458q0 124 16.5 222t50.5 168.5t81 120t112.5 79t140.5 42.5t169 13
q135 0 232 -25.5t170 -85t108.5 -163.5t35.5 -254h-385q-5 81 -26 125.5t-52 58t-83 13.5q-33 0 -57 -6.5t-46 -26t-35.5 -53.5t-21.5 -91t-8 -137q0 -99 11 -163t35 -96t52 -43t70 -11q39 0 65.5 8t48.5 30t34 64.5t15 108.5h385q-1 -250 -94.5 -374.5t-279.5 -154.5
l-58 -108q40 -1 76 -12t69 -33.5t52.5 -64t19.5 -97.5z" />
    <glyph glyph-name="ccircumflex.sc" horiz-adv-x="1210" 
d="M1079 1366h-317l-139 139l-138 -139h-313l277 365h348zM1169 506q-1 -155 -36.5 -261.5t-108 -168t-169.5 -87.5t-234 -26q-94 0 -169 13t-140.5 42.5t-112.5 79t-81 120t-50.5 168.5t-16.5 222t16.5 222t50.5 168.5t81 120t112.5 79t140.5 42.5t169 13q135 0 232 -25.5
t170 -85t108.5 -163.5t35.5 -254h-385q-5 81 -26 125.5t-52 58t-83 13.5q-33 0 -57 -6.5t-46 -26t-35.5 -53.5t-21.5 -91t-8 -137q0 -99 11 -163t35 -96t52 -43t70 -11q39 0 65.5 8t48.5 30t34 64.5t15 108.5h385z" />
    <glyph glyph-name="cdotaccent.sc" horiz-adv-x="1210" 
d="M424 1370v322h410v-322h-410zM1169 506q-1 -155 -36.5 -261.5t-108 -168t-169.5 -87.5t-234 -26q-94 0 -169 13t-140.5 42.5t-112.5 79t-81 120t-50.5 168.5t-16.5 222t16.5 222t50.5 168.5t81 120t112.5 79t140.5 42.5t169 13q135 0 232 -25.5t170 -85t108.5 -163.5
t35.5 -254h-385q-5 81 -26 125.5t-52 58t-83 13.5q-33 0 -57 -6.5t-46 -26t-35.5 -53.5t-21.5 -91t-8 -137q0 -99 11 -163t35 -96t52 -43t70 -11q39 0 65.5 8t48.5 30t34 64.5t15 108.5h385z" />
    <glyph glyph-name="d.sc" horiz-adv-x="1253" 
d="M92 1219h424q147 0 254.5 -14.5t184 -48t124.5 -79.5t75.5 -118.5t37.5 -154t10 -196.5q0 -87 -5.5 -152.5t-19.5 -127t-37.5 -105.5t-60.5 -83t-88 -63.5t-120.5 -42.5t-156.5 -26t-198 -8h-424v1219zM492 903v-594h102q46 0 76 6t56.5 24t41.5 51.5t23 86.5t8 131
q0 96 -11.5 155t-39 89.5t-62 40.5t-92.5 10h-102z" />
    <glyph glyph-name="eth.sc" horiz-adv-x="1253" 
d="M92 512h-112v193h112v514h424q147 0 254.5 -14.5t184 -48t124.5 -79.5t75.5 -118.5t37.5 -154t10 -196.5q0 -87 -5.5 -152.5t-19.5 -127t-37.5 -105.5t-60.5 -83t-88 -63.5t-120.5 -42.5t-156.5 -26t-198 -8h-424v512zM492 512v-203h102q46 0 76 6t56.5 24t41.5 51.5
t23 86.5t8 131q0 96 -11.5 155t-39 89.5t-62 40.5t-92.5 10h-102v-198h133v-193h-133z" />
    <glyph glyph-name="dcaron.sc" horiz-adv-x="1253" 
d="M1044 1714l-282 -364h-348l-264 364h301l137 -129l139 129h317zM92 1219h424q147 0 254.5 -14.5t184 -48t124.5 -79.5t75.5 -118.5t37.5 -154t10 -196.5q0 -87 -5.5 -152.5t-19.5 -127t-37.5 -105.5t-60.5 -83t-88 -63.5t-120.5 -42.5t-156.5 -26t-198 -8h-424v1219z
M492 903v-594h102q46 0 76 6t56.5 24t41.5 51.5t23 86.5t8 131q0 96 -11.5 155t-39 89.5t-62 40.5t-92.5 10h-102z" />
    <glyph glyph-name="dcroat.sc" horiz-adv-x="1253" 
d="M92 512h-112v193h112v514h424q147 0 254.5 -14.5t184 -48t124.5 -79.5t75.5 -118.5t37.5 -154t10 -196.5q0 -87 -5.5 -152.5t-19.5 -127t-37.5 -105.5t-60.5 -83t-88 -63.5t-120.5 -42.5t-156.5 -26t-198 -8h-424v512zM492 512v-203h102q46 0 76 6t56.5 24t41.5 51.5
t23 86.5t8 131q0 96 -11.5 155t-39 89.5t-62 40.5t-92.5 10h-102v-198h133v-193h-133z" />
    <glyph glyph-name="e.sc" horiz-adv-x="1052" 
d="M92 0v1217h909v-295h-518v-185h432v-250h-432v-192h533v-295h-924z" />
    <glyph glyph-name="eacute.sc" horiz-adv-x="1052" 
d="M362 1356l199 368h410l-248 -368h-361zM92 0v1217h909v-295h-518v-185h432v-250h-432v-192h533v-295h-924z" />
    <glyph glyph-name="ebreve.sc" horiz-adv-x="1052" 
d="M979 1702q0 -48 -13 -95.5t-45 -96t-80 -85t-125 -59.5t-173 -23t-173 23t-125.5 59.5t-80.5 85t-45 96t-13 95.5h310q0 -41 35 -75t92 -34t93 34t36 75h307zM92 0v1217h909v-295h-518v-185h432v-250h-432v-192h533v-295h-924z" />
    <glyph glyph-name="ecaron.sc" horiz-adv-x="1052" 
d="M991 1714l-282 -364h-349l-264 364h301l138 -129l139 129h317zM92 0v1217h909v-295h-518v-185h432v-250h-432v-192h533v-295h-924z" />
    <glyph glyph-name="ecircumflex.sc" horiz-adv-x="1052" 
d="M993 1350h-317l-139 139l-138 -139h-313l276 364h349zM92 0v1217h909v-295h-518v-185h432v-250h-432v-192h533v-295h-924z" />
    <glyph glyph-name="edieresis.sc" horiz-adv-x="1052" 
d="M106 1350v325h377v-325h-377zM604 1350v325h377v-325h-377zM92 0v1217h909v-295h-518v-185h432v-250h-432v-192h533v-295h-924z" />
    <glyph glyph-name="edotaccent.sc" horiz-adv-x="1052" 
d="M338 1354v321h410v-321h-410zM92 0v1217h909v-295h-518v-185h432v-250h-432v-192h533v-295h-924z" />
    <glyph glyph-name="uni1EB9.sc" horiz-adv-x="1052" 
d="M92 0v1217h909v-295h-518v-185h432v-250h-432v-192h533v-295h-924zM356 -412v318h410v-318h-410z" />
    <glyph glyph-name="egrave.sc" horiz-adv-x="1052" 
d="M717 1356h-359l-249 368h409zM92 0v1217h909v-295h-518v-185h432v-250h-432v-192h533v-295h-924z" />
    <glyph glyph-name="emacron.sc" horiz-adv-x="1052" 
d="M190 1636h703v-241h-703v241zM92 0v1217h909v-295h-518v-185h432v-250h-432v-192h533v-295h-924z" />
    <glyph glyph-name="eogonek.sc" horiz-adv-x="1052" 
d="M541 -270q0 45 17 88t39.5 72t51.5 55t45 37t29 18h-631v1217h909v-295h-518v-185h432v-250h-432v-192h533v-295q-5 -3 -13 -8.5t-29 -23.5t-37 -37.5t-29 -49t-13 -59.5q0 -28 17 -48t49 -20q22 0 46.5 7t38.5 13l13 7v-189q-2 -2 -7.5 -6t-26 -14.5t-46.5 -18
t-71.5 -14t-98.5 -6.5q-77 0 -132.5 18.5t-83.5 49.5t-40 63t-12 66z" />
    <glyph glyph-name="uni1EBD.sc" horiz-adv-x="1052" 
d="M969 1733q0 -180 -55.5 -274.5t-194.5 -94.5q-61 0 -111 14.5t-77 32.5t-62 32.5t-70 14.5q-57 0 -83.5 -32.5t-26.5 -63.5h-174q0 179 56 274t194 95q61 0 111 -15t77 -32.5t62 -32.5t71 -15q55 0 82 33.5t27 63.5h174zM92 0v1217h909v-295h-518v-185h432v-250h-432
v-192h533v-295h-924z" />
    <glyph glyph-name="f.sc" horiz-adv-x="989" 
d="M92 0v1217h879v-295h-488v-234h400v-260h-400v-428h-391z" />
    <glyph glyph-name="g.sc" horiz-adv-x="1218" 
d="M1153 172q0 -4 -17 -24t-58.5 -51.5t-99 -61t-152 -50.5t-203.5 -22q-145 -1 -247 29.5t-177 103.5t-111.5 199.5t-36.5 312.5q0 149 24.5 259.5t69.5 184.5t116.5 118.5t159 63.5t202.5 19q278 0 404 -116t126 -383h-371q-4 98 -43.5 133t-115.5 35q-34 0 -58 -6.5
t-46.5 -26t-36 -54t-21.5 -91.5t-8 -136q0 -105 12 -172t38 -100t56 -44t76 -11q80 0 123 22.5t41 56.5v91h-146v186h500v-465z" />
    <glyph glyph-name="gbreve.sc" horiz-adv-x="1218" 
d="M1057 1718q0 -48 -13 -95.5t-45 -96t-80 -84.5t-125 -59t-173 -23t-173 23t-125.5 59t-80.5 84.5t-45 96t-13 95.5h310q0 -41 35 -74.5t92 -33.5t93 33.5t36 74.5h307zM1153 172q0 -4 -17 -24t-58.5 -51.5t-99 -61t-152 -50.5t-203.5 -22q-145 -1 -247 29.5t-177 103.5
t-111.5 199.5t-36.5 312.5q0 149 24.5 259.5t69.5 184.5t116.5 118.5t159 63.5t202.5 19q278 0 404 -116t126 -383h-371q-4 98 -43.5 133t-115.5 35q-34 0 -58 -6.5t-46.5 -26t-36 -54t-21.5 -91.5t-8 -136q0 -105 12 -172t38 -100t56 -44t76 -11q80 0 123 22.5t41 56.5v91
h-146v186h500v-465z" />
    <glyph glyph-name="gcaron.sc" horiz-adv-x="1218" 
d="M1069 1731l-283 -365h-348l-264 365h301l137 -129l140 129h317zM1153 172q0 -4 -17 -24t-58.5 -51.5t-99 -61t-152 -50.5t-203.5 -22q-145 -1 -247 29.5t-177 103.5t-111.5 199.5t-36.5 312.5q0 149 24.5 259.5t69.5 184.5t116.5 118.5t159 63.5t202.5 19q278 0 404 -116
t126 -383h-371q-4 98 -43.5 133t-115.5 35q-34 0 -58 -6.5t-46.5 -26t-36 -54t-21.5 -91.5t-8 -136q0 -105 12 -172t38 -100t56 -44t76 -11q80 0 123 22.5t41 56.5v91h-146v186h500v-465z" />
    <glyph glyph-name="gcircumflex.sc" horiz-adv-x="1218" 
d="M1071 1366h-317l-140 139l-137 -139h-313l276 365h348zM1153 172q0 -4 -17 -24t-58.5 -51.5t-99 -61t-152 -50.5t-203.5 -22q-145 -1 -247 29.5t-177 103.5t-111.5 199.5t-36.5 312.5q0 149 24.5 259.5t69.5 184.5t116.5 118.5t159 63.5t202.5 19q278 0 404 -116
t126 -383h-371q-4 98 -43.5 133t-115.5 35q-34 0 -58 -6.5t-46.5 -26t-36 -54t-21.5 -91.5t-8 -136q0 -105 12 -172t38 -100t56 -44t76 -11q80 0 123 22.5t41 56.5v91h-146v186h500v-465z" />
    <glyph glyph-name="gcommaaccent.sc" horiz-adv-x="1218" 
d="M1153 172q0 -4 -17 -24t-58.5 -51.5t-99 -61t-152 -50.5t-203.5 -22q-145 -1 -247 29.5t-177 103.5t-111.5 199.5t-36.5 312.5q0 149 24.5 259.5t69.5 184.5t116.5 118.5t159 63.5t202.5 19q278 0 404 -116t126 -383h-371q-4 98 -43.5 133t-115.5 35q-34 0 -58 -6.5
t-46.5 -26t-36 -54t-21.5 -91.5t-8 -136q0 -105 12 -172t38 -100t56 -44t76 -11q80 0 123 22.5t41 56.5v91h-146v186h500v-465zM401 -659q33 100 68 264q16 71 24.5 137t9.5 96l1 31h346q-15 -143 -68 -297q-30 -84 -61 -142t-47 -74l-15 -15h-258z" />
    <glyph glyph-name="gdotaccent.sc" horiz-adv-x="1218" 
d="M416 1370v322h409v-322h-409zM1153 172q0 -4 -17 -24t-58.5 -51.5t-99 -61t-152 -50.5t-203.5 -22q-145 -1 -247 29.5t-177 103.5t-111.5 199.5t-36.5 312.5q0 149 24.5 259.5t69.5 184.5t116.5 118.5t159 63.5t202.5 19q278 0 404 -116t126 -383h-371q-4 98 -43.5 133
t-115.5 35q-34 0 -58 -6.5t-46.5 -26t-36 -54t-21.5 -91.5t-8 -136q0 -105 12 -172t38 -100t56 -44t76 -11q80 0 123 22.5t41 56.5v91h-146v186h500v-465z" />
    <glyph glyph-name="h.sc" horiz-adv-x="1259" 
d="M92 0v1217h391v-447h293v447h391v-1217h-391v455h-293v-455h-391z" />
    <glyph glyph-name="hbar.sc" horiz-adv-x="1259" 
d="M1167 903v-903h-391v455h-293v-455h-391v903h-143v160h143v154h391v-154h293v154h391v-154h131v-160h-131zM776 770v133h-293v-133h293z" />
    <glyph glyph-name="hcircumflex.sc" horiz-adv-x="1259" 
d="M1079 1350h-317l-139 139l-138 -139h-313l277 364h348zM92 0v1217h391v-447h293v447h391v-1217h-391v455h-293v-455h-391z" />
    <glyph glyph-name="i.sc" horiz-adv-x="575" 
d="M92 0v1217h391v-1217h-391z" />
    <glyph glyph-name="iacute.sc" horiz-adv-x="575" 
d="M117 1356l198 368h410l-248 -368h-360zM92 0v1217h391v-1217h-391z" />
    <glyph glyph-name="ibreve.sc" horiz-adv-x="575" 
d="M733 1702q0 -48 -13 -95.5t-45 -96t-80 -85t-125 -59.5t-173 -23t-173 23t-125 59.5t-80 85t-45 96t-13 95.5h309q0 -41 35 -75t92 -34t93 34t36 75h307zM92 0v1217h391v-1217h-391z" />
    <glyph glyph-name="icircumflex.sc" horiz-adv-x="575" 
d="M748 1350h-318l-139 139l-137 -139h-314l277 364h348zM92 0v1217h391v-1217h-391z" />
    <glyph glyph-name="idieresis.sc" horiz-adv-x="575" 
d="M-139 1350v325h377v-325h-377zM358 1350v325h377v-325h-377zM92 0v1217h391v-1217h-391z" />
    <glyph glyph-name="i.sc.loclTRK" horiz-adv-x="575" 
d="M92 1354v321h410v-321h-410zM92 0v1217h391v-1217h-391z" />
    <glyph glyph-name="uni1ECB.sc" horiz-adv-x="575" 
d="M92 0v1217h391v-1217h-391zM80 -426v317h409v-317h-409z" />
    <glyph glyph-name="igrave.sc" horiz-adv-x="575" 
d="M471 1356h-358l-250 368h409zM92 0v1217h391v-1217h-391z" />
    <glyph glyph-name="ij.sc" horiz-adv-x="1357" 
d="M92 0v1217h391v-1217h-391zM1274 569q0 -70 -2 -120t-7.5 -102.5t-15 -88.5t-26 -73t-39.5 -60.5t-55.5 -46.5t-73.5 -36t-94.5 -23.5t-118 -14.5t-144.5 -4h-112v338h112q71 0 108.5 16.5t57 66.5t19.5 148v648h391v-648z" />
    <glyph glyph-name="imacron.sc" horiz-adv-x="575" 
d="M-55 1636h702v-241h-702v241zM92 0v1217h391v-1217h-391z" />
    <glyph glyph-name="iogonek.sc" horiz-adv-x="575" 
d="M-92 -270q0 46 17 89t40 72.5t51.5 54.5t46.5 37t29 17v1217h391v-1217h-100q-5 -3 -13 -8.5t-29 -23.5t-37 -37.5t-29 -49t-13 -59.5q0 -28 17 -48t49 -20q22 0 46.5 7t37.5 13l14 7v-189q-2 -2 -7.5 -6t-26 -14.5t-46.5 -18t-71.5 -14t-98.5 -6.5q-77 0 -132.5 18.5
t-83.5 49.5t-40 63t-12 66z" />
    <glyph glyph-name="itilde.sc" horiz-adv-x="575" 
d="M723 1733q0 -180 -55.5 -274.5t-194.5 -94.5q-61 0 -110.5 14.5t-77 32.5t-62 32.5t-69.5 14.5q-57 0 -84 -32.5t-27 -63.5h-174q0 179 56 274t194 95q61 0 111 -15t77 -32.5t62 -32.5t71 -15q55 0 82 33.5t27 63.5h174zM92 0v1217h391v-1217h-391z" />
    <glyph glyph-name="j.sc" horiz-adv-x="782" 
d="M698 569q0 -70 -2 -120t-7.5 -102.5t-15 -88.5t-26 -73t-39 -60.5t-55 -46.5t-73.5 -36t-94.5 -23.5t-118 -14.5t-144.5 -4h-113v338h113q71 0 108 16.5t56.5 66.5t19.5 148v648h391v-648z" />
    <glyph glyph-name="jcircumflex.sc" horiz-adv-x="782" 
d="M958 1350h-317l-139 139l-137 -139h-314l277 364h348zM698 569q0 -70 -2 -120t-7.5 -102.5t-15 -88.5t-26 -73t-39 -60.5t-55 -46.5t-73.5 -36t-94.5 -23.5t-118 -14.5t-144.5 -4h-113v338h113q71 0 108 16.5t56.5 66.5t19.5 148v648h391v-648z" />
    <glyph glyph-name="k.sc" horiz-adv-x="1261" 
d="M92 0v1217h391v-517l340 517h426l-368 -488l379 -729h-418l-201 410l-158 -211v-199h-391z" />
    <glyph glyph-name="kcommaaccent.sc" horiz-adv-x="1261" 
d="M92 0v1217h391v-517l340 517h426l-368 -488l379 -729h-418l-201 410l-158 -211v-199h-391zM385 -625q33 101 68 265q16 71 24.5 137t8.5 97l1 30h347q-15 -143 -68 -297q-30 -84 -61 -142t-47 -74l-15 -16h-258z" />
    <glyph glyph-name="l.sc" horiz-adv-x="919" 
d="M92 0v1217h391v-873h424v-344h-815z" />
    <glyph glyph-name="lacute.sc" horiz-adv-x="919" 
d="M113 1356l198 368h410l-248 -368h-360zM92 0v1217h391v-873h424v-344h-815z" />
    <glyph glyph-name="lcaron.sc" horiz-adv-x="919" 
d="M541 928l125 426h309l-209 -426h-225zM92 0v1217h391v-873h424v-344h-815z" />
    <glyph glyph-name="lcommaaccent.sc" horiz-adv-x="919" 
d="M92 0v1217h391v-873h424v-344h-815zM233 -653q33 100 68 264q16 71 24.5 137t9.5 96l1 31h346q-15 -143 -68 -297q-30 -84 -60.5 -142t-45.5 -74l-16 -15h-259z" />
    <glyph glyph-name="ldot.sc" horiz-adv-x="919" 
d="M92 0v1217h391v-873h424v-344h-815zM582 481v326h409v-326h-409z" />
    <glyph glyph-name="lslash.sc" horiz-adv-x="919" 
d="M483 618v-274h424v-344h-815v428l-164 -80l-104 221l268 131v517h391v-326l172 84l105 -219z" />
    <glyph glyph-name="m.sc" horiz-adv-x="1746" 
d="M92 0v1217h572l204 -836l201 836h586v-1217h-373l33 852l-244 -852h-416l-227 852l35 -852h-371z" />
    <glyph glyph-name="n.sc" horiz-adv-x="1329" 
d="M432 780l21 -780h-361l2 1217h453l352 -771l-20 771h358v-1217h-438z" />
    <glyph glyph-name="nacute.sc" horiz-adv-x="1329" 
d="M477 1356l199 368h409l-247 -368h-361zM432 780l21 -780h-361l2 1217h453l352 -771l-20 771h358v-1217h-438z" />
    <glyph glyph-name="ncaron.sc" horiz-adv-x="1329" 
d="M1106 1714l-283 -364h-348l-264 364h301l137 -129l139 129h318zM432 780l21 -780h-361l2 1217h453l352 -771l-20 771h358v-1217h-438z" />
    <glyph glyph-name="ncommaaccent.sc" horiz-adv-x="1329" 
d="M432 780l21 -780h-361l2 1217h453l352 -771l-20 771h358v-1217h-438zM442 -625q33 101 68 265q16 71 24.5 137t9.5 97l1 30h346q-15 -143 -68 -297q-30 -84 -61 -142t-46 -74l-16 -16h-258z" />
    <glyph glyph-name="eng.sc" horiz-adv-x="1329" 
d="M1237 1217v-1217q0 -52 -8.5 -97t-28.5 -92t-58.5 -83.5t-93 -65.5t-137.5 -45t-188 -16h-100v290h100q90 0 136 23.5t46 85.5l-467 702l19 -702h-365l2 1217h412l383 -601l-15 601h363z" />
    <glyph glyph-name="uni0272.sc" horiz-adv-x="1329" 
d="M432 756l10 -756q1 -63 -10 -116t-44 -107t-87 -91.5t-146 -61t-214 -23.5h-97v290h97q83 0 118 25t35 84v1217h461l340 -717l-18 717h360v-1217h-461z" />
    <glyph glyph-name="ntilde.sc" horiz-adv-x="1329" 
d="M1083 1733q0 -180 -55 -274.5t-194 -94.5q-61 0 -111 14.5t-77 32.5t-62 32.5t-70 14.5q-57 0 -84 -32.5t-27 -63.5h-174q0 179 56 274t194 95q61 0 111.5 -15t77.5 -32.5t62 -32.5t71 -15q55 0 81.5 33.5t26.5 63.5h174zM432 780l21 -780h-361l2 1217h453l352 -771
l-20 771h358v-1217h-438z" />
    <glyph glyph-name="o.sc" horiz-adv-x="1245" 
d="M1194 608q0 -149 -24.5 -260t-70 -184t-117.5 -118t-158.5 -64t-200.5 -19q-144 0 -245.5 30.5t-177 103t-112.5 199.5t-37 312t37 312t112.5 199.5t177 103t245.5 30.5q114 0 200.5 -19t158.5 -64t117.5 -118t70 -184t24.5 -260zM453 608q0 -105 11 -172.5t35.5 -101
t52.5 -44.5t71 -11q44 0 72.5 11t53 44.5t35.5 100.5t11 173q0 85 -8 145t-21.5 96t-36.5 56t-47 26.5t-59 6.5q-43 0 -71 -11.5t-52.5 -44.5t-35.5 -100.5t-11 -173.5z" />
    <glyph glyph-name="oacute.sc" horiz-adv-x="1245" 
d="M442 1372l199 369h410l-248 -369h-361zM1194 608q0 -149 -24.5 -260t-70 -184t-117.5 -118t-158.5 -64t-200.5 -19q-144 0 -245.5 30.5t-177 103t-112.5 199.5t-37 312t37 312t112.5 199.5t177 103t245.5 30.5q114 0 200.5 -19t158.5 -64t117.5 -118t70 -184t24.5 -260z
M453 608q0 -105 11 -172.5t35.5 -101t52.5 -44.5t71 -11q44 0 72.5 11t53 44.5t35.5 100.5t11 173q0 85 -8 145t-21.5 96t-36.5 56t-47 26.5t-59 6.5q-43 0 -71 -11.5t-52.5 -44.5t-35.5 -100.5t-11 -173.5z" />
    <glyph glyph-name="obreve.sc" horiz-adv-x="1245" 
d="M1059 1718q0 -48 -13 -95.5t-45 -96t-80 -84.5t-125 -59t-173 -23t-173 23t-125.5 59t-80.5 84.5t-45 96t-13 95.5h310q0 -41 35 -74.5t92 -33.5t93 33.5t36 74.5h307zM1194 608q0 -149 -24.5 -260t-70 -184t-117.5 -118t-158.5 -64t-200.5 -19q-144 0 -245.5 30.5
t-177 103t-112.5 199.5t-37 312t37 312t112.5 199.5t177 103t245.5 30.5q114 0 200.5 -19t158.5 -64t117.5 -118t70 -184t24.5 -260zM453 608q0 -105 11 -172.5t35.5 -101t52.5 -44.5t71 -11q44 0 72.5 11t53 44.5t35.5 100.5t11 173q0 85 -8 145t-21.5 96t-36.5 56
t-47 26.5t-59 6.5q-43 0 -71 -11.5t-52.5 -44.5t-35.5 -100.5t-11 -173.5z" />
    <glyph glyph-name="ocircumflex.sc" horiz-adv-x="1245" 
d="M1073 1366h-317l-140 139l-137 -139h-313l276 365h349zM1194 608q0 -149 -24.5 -260t-70 -184t-117.5 -118t-158.5 -64t-200.5 -19q-144 0 -245.5 30.5t-177 103t-112.5 199.5t-37 312t37 312t112.5 199.5t177 103t245.5 30.5q114 0 200.5 -19t158.5 -64t117.5 -118
t70 -184t24.5 -260zM453 608q0 -105 11 -172.5t35.5 -101t52.5 -44.5t71 -11q44 0 72.5 11t53 44.5t35.5 100.5t11 173q0 85 -8 145t-21.5 96t-36.5 56t-47 26.5t-59 6.5q-43 0 -71 -11.5t-52.5 -44.5t-35.5 -100.5t-11 -173.5z" />
    <glyph glyph-name="odieresis.sc" horiz-adv-x="1245" 
d="M186 1366v326h377v-326h-377zM684 1366v326h377v-326h-377zM1194 608q0 -149 -24.5 -260t-70 -184t-117.5 -118t-158.5 -64t-200.5 -19q-144 0 -245.5 30.5t-177 103t-112.5 199.5t-37 312t37 312t112.5 199.5t177 103t245.5 30.5q114 0 200.5 -19t158.5 -64t117.5 -118
t70 -184t24.5 -260zM453 608q0 -105 11 -172.5t35.5 -101t52.5 -44.5t71 -11q44 0 72.5 11t53 44.5t35.5 100.5t11 173q0 85 -8 145t-21.5 96t-36.5 56t-47 26.5t-59 6.5q-43 0 -71 -11.5t-52.5 -44.5t-35.5 -100.5t-11 -173.5z" />
    <glyph glyph-name="uni1ECD.sc" horiz-adv-x="1245" 
d="M1194 608q0 -149 -24.5 -260t-70 -184t-117.5 -118t-158.5 -64t-200.5 -19q-144 0 -245.5 30.5t-177 103t-112.5 199.5t-37 312t37 312t112.5 199.5t177 103t245.5 30.5q114 0 200.5 -19t158.5 -64t117.5 -118t70 -184t24.5 -260zM453 608q0 -105 11 -172.5t35.5 -101
t52.5 -44.5t71 -11q44 0 72.5 11t53 44.5t35.5 100.5t11 173q0 85 -8 145t-21.5 96t-36.5 56t-47 26.5t-59 6.5q-43 0 -71 -11.5t-52.5 -44.5t-35.5 -100.5t-11 -173.5zM418 -442v317h409v-317h-409z" />
    <glyph glyph-name="ograve.sc" horiz-adv-x="1245" 
d="M797 1372h-359l-250 369h410zM1194 608q0 -149 -24.5 -260t-70 -184t-117.5 -118t-158.5 -64t-200.5 -19q-144 0 -245.5 30.5t-177 103t-112.5 199.5t-37 312t37 312t112.5 199.5t177 103t245.5 30.5q114 0 200.5 -19t158.5 -64t117.5 -118t70 -184t24.5 -260zM453 608
q0 -105 11 -172.5t35.5 -101t52.5 -44.5t71 -11q44 0 72.5 11t53 44.5t35.5 100.5t11 173q0 85 -8 145t-21.5 96t-36.5 56t-47 26.5t-59 6.5q-43 0 -71 -11.5t-52.5 -44.5t-35.5 -100.5t-11 -173.5z" />
    <glyph glyph-name="ohungarumlaut.sc" horiz-adv-x="1245" 
d="M147 1372l197 369h410l-246 -369h-361zM623 1372l247 369h410l-299 -369h-358zM1194 608q0 -149 -24.5 -260t-70 -184t-117.5 -118t-158.5 -64t-200.5 -19q-144 0 -245.5 30.5t-177 103t-112.5 199.5t-37 312t37 312t112.5 199.5t177 103t245.5 30.5q114 0 200.5 -19
t158.5 -64t117.5 -118t70 -184t24.5 -260zM453 608q0 -105 11 -172.5t35.5 -101t52.5 -44.5t71 -11q44 0 72.5 11t53 44.5t35.5 100.5t11 173q0 85 -8 145t-21.5 96t-36.5 56t-47 26.5t-59 6.5q-43 0 -71 -11.5t-52.5 -44.5t-35.5 -100.5t-11 -173.5z" />
    <glyph glyph-name="omacron.sc" horiz-adv-x="1245" 
d="M270 1653h703v-242h-703v242zM1194 608q0 -149 -24.5 -260t-70 -184t-117.5 -118t-158.5 -64t-200.5 -19q-144 0 -245.5 30.5t-177 103t-112.5 199.5t-37 312t37 312t112.5 199.5t177 103t245.5 30.5q114 0 200.5 -19t158.5 -64t117.5 -118t70 -184t24.5 -260zM453 608
q0 -105 11 -172.5t35.5 -101t52.5 -44.5t71 -11q44 0 72.5 11t53 44.5t35.5 100.5t11 173q0 85 -8 145t-21.5 96t-36.5 56t-47 26.5t-59 6.5q-43 0 -71 -11.5t-52.5 -44.5t-35.5 -100.5t-11 -173.5z" />
    <glyph glyph-name="uni01EB.sc" horiz-adv-x="1245" 
d="M524 -203q0 90 62 166q-107 3 -188.5 24t-148 67.5t-109.5 119.5t-66 181.5t-23 252.5q0 185 37 312t112.5 199.5t177 103t245.5 30.5q114 0 200.5 -19t158.5 -64t117.5 -118t70 -184t24.5 -260q0 -240 -62.5 -381t-187.5 -204q-65 -61 -65 -134q0 -28 16.5 -47.5
t48.5 -19.5q22 0 46.5 6.5t37.5 13.5l14 6v-188q-2 -2 -7.5 -6t-26 -14.5t-46 -18t-71 -14t-98.5 -6.5q-77 0 -133 18.5t-84 49.5t-40 62.5t-12 65.5zM453 608q0 -105 11 -172.5t35.5 -101t52.5 -44.5t71 -11q44 0 72.5 11t53 44.5t35.5 100.5t11 173q0 85 -8 145t-21.5 96
t-36.5 56t-47 26.5t-59 6.5q-43 0 -71 -11.5t-52.5 -44.5t-35.5 -100.5t-11 -173.5z" />
    <glyph glyph-name="oslash.sc" horiz-adv-x="1245" 
d="M49 -37l125 162q-123 150 -123 483q0 185 37 312t112.5 199.5t177 103t245.5 30.5q228 0 356 -82l59 78h154l-123 -159q125 -152 125 -482q0 -149 -24.5 -260t-70 -184t-117.5 -118t-158.5 -64t-200.5 -19q-227 0 -359 82l-61 -82h-154zM453 608q0 -81 4 -114l295 383
q-22 36 -52.5 48.5t-76.5 12.5q-43 0 -71 -11.5t-52.5 -44.5t-35.5 -100.5t-11 -173.5zM795 608q0 49 -4 119l-297 -385q22 -37 52.5 -50t76.5 -13q44 0 72.5 11t53 44.5t35.5 100.5t11 173z" />
    <glyph glyph-name="oslashacute.sc" horiz-adv-x="1245" 
d="M442 1372l199 369h410l-248 -369h-361zM49 -37l125 162q-123 150 -123 483q0 185 37 312t112.5 199.5t177 103t245.5 30.5q228 0 356 -82l59 78h154l-123 -159q125 -152 125 -482q0 -149 -24.5 -260t-70 -184t-117.5 -118t-158.5 -64t-200.5 -19q-227 0 -359 82l-61 -82
h-154zM453 608q0 -81 4 -114l295 383q-22 36 -52.5 48.5t-76.5 12.5q-43 0 -71 -11.5t-52.5 -44.5t-35.5 -100.5t-11 -173.5zM795 608q0 49 -4 119l-297 -385q22 -37 52.5 -50t76.5 -13q44 0 72.5 11t53 44.5t35.5 100.5t11 173z" />
    <glyph glyph-name="otilde.sc" horiz-adv-x="1245" 
d="M1049 1749q0 -180 -55.5 -274.5t-194.5 -94.5q-61 0 -111 15t-77 32.5t-62 32.5t-70 15q-57 0 -83.5 -33t-26.5 -64h-174q0 87 12 151.5t39.5 115t77 76.5t120.5 26q61 0 111.5 -14.5t77.5 -32.5t62 -32.5t71 -14.5q55 0 81.5 33t26.5 63h175zM1194 608
q0 -149 -24.5 -260t-70 -184t-117.5 -118t-158.5 -64t-200.5 -19q-144 0 -245.5 30.5t-177 103t-112.5 199.5t-37 312t37 312t112.5 199.5t177 103t245.5 30.5q114 0 200.5 -19t158.5 -64t117.5 -118t70 -184t24.5 -260zM453 608q0 -105 11 -172.5t35.5 -101t52.5 -44.5
t71 -11q44 0 72.5 11t53 44.5t35.5 100.5t11 173q0 85 -8 145t-21.5 96t-36.5 56t-47 26.5t-59 6.5q-43 0 -71 -11.5t-52.5 -44.5t-35.5 -100.5t-11 -173.5z" />
    <glyph glyph-name="oe.sc" horiz-adv-x="1677" 
d="M621 0q-98 0 -172 10.5t-141 36t-112.5 70t-79 111.5t-49.5 161.5t-16 218.5t16 218.5t49.5 161.5t79 112t112.5 70.5t141 36t172 10.5h1007v-295h-518v-185h430v-250h-430v-192h530v-295h-1019zM455 608q0 -99 11.5 -162.5t35.5 -95t52 -42.5t71 -11h92v623h-92
q-43 0 -71 -11t-52 -43t-35.5 -95.5t-11.5 -162.5z" />
    <glyph glyph-name="p.sc" horiz-adv-x="1230" 
d="M92 0v1219h436q197 0 319.5 -20.5t201 -74.5t109 -140t30.5 -224t-30.5 -224.5t-109 -140.5t-201 -75t-319.5 -21h-45v-299h-391zM483 928v-330h97q58 0 91.5 5t61.5 21.5t39.5 50t11.5 87.5q0 56 -11.5 89.5t-39.5 50t-61.5 21.5t-91.5 5h-97z" />
    <glyph glyph-name="thorn.sc" horiz-adv-x="1230" 
d="M92 0v1217h395v-148h140q159 0 261.5 -21t172 -74t98.5 -140.5t29 -223.5q0 -91 -12.5 -158t-42 -118t-72.5 -83.5t-109.5 -52.5t-147 -28t-190.5 -8h-131v-162h-391zM485 770v-313h99q58 0 91.5 5t60.5 21t37.5 47t10.5 82q0 43 -8 71.5t-22 46t-40.5 26.5t-55.5 11.5
t-76 2.5h-97z" />
    <glyph glyph-name="q.sc" horiz-adv-x="1247" 
d="M1194 608q0 -374 -164 -526l156 -139l-242 -205l-207 231q-55 -6 -114 -6q-144 0 -245.5 30.5t-177 103t-112.5 199.5t-37 312t37 312t112.5 199.5t177 103t245.5 30.5q114 0 200.5 -19t158.5 -64t117.5 -118t70 -184t24.5 -260zM453 608q0 -105 11 -172.5t35.5 -101
t52.5 -44.5t71 -11q44 0 72.5 11t53 44.5t35.5 100.5t11 173q0 85 -8 145t-21.5 96t-36.5 56t-47 26.5t-59 6.5q-43 0 -71 -11.5t-52.5 -44.5t-35.5 -100.5t-11 -173.5z" />
    <glyph glyph-name="r.sc" horiz-adv-x="1253" 
d="M92 0v1219h547q161 0 264 -21t173 -74t99 -140.5t29 -223.5q0 -154 -39 -245t-127 -138l162 -377h-416l-110 313h-191v-313h-391zM483 920v-312h113q60 0 94 5t62 21t38.5 47t10.5 83t-10.5 83t-38.5 47t-62 21t-94 5h-113z" />
    <glyph glyph-name="racute.sc" horiz-adv-x="1253" 
d="M401 1356l199 368h410l-248 -368h-361zM92 0v1219h547q161 0 264 -21t173 -74t99 -140.5t29 -223.5q0 -154 -39 -245t-127 -138l162 -377h-416l-110 313h-191v-313h-391zM483 920v-312h113q60 0 94 5t62 21t38.5 47t10.5 83t-10.5 83t-38.5 47t-62 21t-94 5h-113z" />
    <glyph glyph-name="rcaron.sc" horiz-adv-x="1253" 
d="M1030 1714l-282 -364h-349l-264 364h301l137 -129l140 129h317zM92 0v1219h547q161 0 264 -21t173 -74t99 -140.5t29 -223.5q0 -154 -39 -245t-127 -138l162 -377h-416l-110 313h-191v-313h-391zM483 920v-312h113q60 0 94 5t62 21t38.5 47t10.5 83t-10.5 83t-38.5 47
t-62 21t-94 5h-113z" />
    <glyph glyph-name="rcommaaccent.sc" horiz-adv-x="1253" 
d="M92 0v1219h547q161 0 264 -21t173 -74t99 -140.5t29 -223.5q0 -154 -39 -245t-127 -138l162 -377h-416l-110 313h-191v-313h-391zM483 920v-312h113q60 0 94 5t62 21t38.5 47t10.5 83t-10.5 83t-38.5 47t-62 21t-94 5h-113zM367 -625q32 101 67 265q16 71 24.5 137
t9.5 97l1 30h346q-14 -143 -67 -297q-30 -84 -61 -142t-47 -74l-15 -16h-258z" />
    <glyph glyph-name="s.sc" horiz-adv-x="1187" 
d="M1137 369q0 -406 -547 -406q-270 0 -404.5 112t-134.5 322h369q0 -156 180 -159q82 0 121 26.5t39 81.5q0 28 -24 47.5t-65 32.5t-93.5 24t-111 24t-116.5 30t-110.5 46t-92.5 67t-63.5 97.5t-22.5 133.5q3 194 133 300.5t394 106.5q277 0 402.5 -107.5t125.5 -320.5
h-366q0 148 -164 148q-79 0 -115.5 -31t-36.5 -80q0 -28 24 -48t64.5 -32.5t93.5 -23t111.5 -23t116.5 -28.5t111 -44t93.5 -65.5t64.5 -96.5t24 -134z" />
    <glyph glyph-name="sacute.sc" horiz-adv-x="1187" 
d="M412 1372l198 369h410l-248 -369h-360zM1137 369q0 -406 -547 -406q-270 0 -404.5 112t-134.5 322h369q0 -156 180 -159q82 0 121 26.5t39 81.5q0 28 -24 47.5t-65 32.5t-93.5 24t-111 24t-116.5 30t-110.5 46t-92.5 67t-63.5 97.5t-22.5 133.5q3 194 133 300.5
t394 106.5q277 0 402.5 -107.5t125.5 -320.5h-366q0 148 -164 148q-79 0 -115.5 -31t-36.5 -80q0 -28 24 -48t64.5 -32.5t93.5 -23t111.5 -23t116.5 -28.5t111 -44t93.5 -65.5t64.5 -96.5t24 -134z" />
    <glyph glyph-name="scaron.sc" horiz-adv-x="1187" 
d="M1040 1731l-282 -365h-348l-265 365h301l138 -129l139 129h317zM1137 369q0 -406 -547 -406q-270 0 -404.5 112t-134.5 322h369q0 -156 180 -159q82 0 121 26.5t39 81.5q0 28 -24 47.5t-65 32.5t-93.5 24t-111 24t-116.5 30t-110.5 46t-92.5 67t-63.5 97.5t-22.5 133.5
q3 194 133 300.5t394 106.5q277 0 402.5 -107.5t125.5 -320.5h-366q0 148 -164 148q-79 0 -115.5 -31t-36.5 -80q0 -28 24 -48t64.5 -32.5t93.5 -23t111.5 -23t116.5 -28.5t111 -44t93.5 -65.5t64.5 -96.5t24 -134z" />
    <glyph glyph-name="scedilla.sc" horiz-adv-x="1187" 
d="M918 -352q0 -55 -17.5 -95t-61.5 -73t-126 -49.5t-203 -16.5q-72 0 -131 6t-82 12l-23 7v176q1 -4 12 -7.5t39 -7t68 -3.5q63 0 96 24t33 66q0 98 -178 98h-4l100 188q-195 29 -292 137.5t-97 286.5h369q0 -156 180 -159q82 0 121 26.5t39 81.5q0 28 -24 47.5t-65 32.5
t-93.5 24t-111 24t-116.5 30t-110.5 46t-92.5 67t-63.5 97.5t-22.5 133.5q3 194 133 300.5t394 106.5q277 0 402.5 -107.5t125.5 -320.5h-366q0 148 -164 148q-79 0 -115.5 -31t-36.5 -80q0 -28 24 -48t64.5 -32.5t93.5 -23t111.5 -23t116.5 -28.5t111 -44t93.5 -65.5
t64.5 -96.5t24 -134q0 -335 -371 -392l-66 -122q40 -1 76 -12t69 -33.5t53 -64t20 -97.5z" />
    <glyph glyph-name="scircumflex.sc" horiz-adv-x="1187" 
d="M1042 1366h-317l-139 139l-137 -139h-314l277 365h348zM1137 369q0 -406 -547 -406q-270 0 -404.5 112t-134.5 322h369q0 -156 180 -159q82 0 121 26.5t39 81.5q0 28 -24 47.5t-65 32.5t-93.5 24t-111 24t-116.5 30t-110.5 46t-92.5 67t-63.5 97.5t-22.5 133.5
q3 194 133 300.5t394 106.5q277 0 402.5 -107.5t125.5 -320.5h-366q0 148 -164 148q-79 0 -115.5 -31t-36.5 -80q0 -28 24 -48t64.5 -32.5t93.5 -23t111.5 -23t116.5 -28.5t111 -44t93.5 -65.5t64.5 -96.5t24 -134z" />
    <glyph glyph-name="scommaaccent.sc" horiz-adv-x="1187" 
d="M1137 369q0 -406 -547 -406q-270 0 -404.5 112t-134.5 322h369q0 -156 180 -159q82 0 121 26.5t39 81.5q0 28 -24 47.5t-65 32.5t-93.5 24t-111 24t-116.5 30t-110.5 46t-92.5 67t-63.5 97.5t-22.5 133.5q3 194 133 300.5t394 106.5q277 0 402.5 -107.5t125.5 -320.5
h-366q0 148 -164 148q-79 0 -115.5 -31t-36.5 -80q0 -28 24 -48t64.5 -32.5t93.5 -23t111.5 -23t116.5 -28.5t111 -44t93.5 -65.5t64.5 -96.5t24 -134zM379 -641q32 100 67 264q16 71 24.5 137t9.5 96l1 31h346q-14 -143 -67 -297q-30 -84 -61 -142t-47 -74l-15 -15h-258z
" />
    <glyph glyph-name="germandbls.sc" horiz-adv-x="1300" 
d="M1260 369q0 -51 -13.5 -98.5t-49 -97.5t-91 -87t-147.5 -60.5t-209 -23.5h-177v320h134q79 0 110 28t31 82q0 123 -154 123q-24 0 -47 -3.5t-34 -7.5l-11 -3v235l180 180h-164q-75 0 -108 -41t-33 -120v-795h-385v760q0 61 3 103t14 93.5t31.5 86t57.5 70t89 56.5
t128.5 34.5t174.5 13.5h622v-261l-202 -196q136 -40 193 -134.5t57 -256.5z" />
    <glyph glyph-name="uni0259.sc" horiz-adv-x="1269" 
d="M1202 608q0 -149 -24 -259.5t-68.5 -184.5t-115 -118.5t-157.5 -63.5t-202 -19t-202 21t-157.5 70.5t-115 130.5t-68.5 202.5t-24 284.5h731q-3 98 -23.5 154t-54 76t-86.5 20q-66 0 -108.5 -34.5t-51.5 -101.5h-401q20 251 158.5 359t402.5 108q115 0 202 -19
t157.5 -63.5t115 -118.5t68.5 -184.5t24 -259.5zM635 295q70 0 107.5 40.5t50.5 149.5h-316q7 -61 20 -99.5t35 -58t45 -26t58 -6.5z" />
    <glyph glyph-name="t.sc" horiz-adv-x="1050" 
d="M330 0v872h-320v345h1032v-345h-321v-872h-391z" />
    <glyph glyph-name="tbar.sc" horiz-adv-x="1050" 
d="M330 0v408h-185v190h185v274h-320v345h1032v-345h-321v-274h170v-190h-170v-408h-391z" />
    <glyph glyph-name="tcaron.sc" horiz-adv-x="1050" 
d="M975 1714l-283 -364h-348l-264 364h301l137 -129l139 129h318zM330 0v872h-320v345h1032v-345h-321v-872h-391z" />
    <glyph glyph-name="uni0163.sc" horiz-adv-x="1050" 
d="M799 -336q0 -55 -17.5 -95t-61.5 -72.5t-126 -49t-203 -16.5q-72 0 -130.5 6t-81.5 12l-23 6v176q1 -4 11.5 -7.5t38.5 -7t68 -3.5q63 0 96 24t33 66q0 98 -178 98h-4l109 203v868h-320v345h1032v-345h-321v-872h-70l-69 -129q40 -1 76 -12t69 -33.5t52.5 -64t19.5 -97.5
z" />
    <glyph glyph-name="uni021B.sc" horiz-adv-x="1050" 
d="M330 0v872h-320v345h1032v-345h-321v-872h-391zM252 -625q30 101 67 265q16 71 24.5 136.5t9.5 95.5l1 30h346q-14 -143 -67 -297q-30 -84 -61 -141.5t-46 -73.5l-16 -15h-258z" />
    <glyph glyph-name="u.sc" horiz-adv-x="1224" 
d="M1141 563q0 -112 -7.5 -190.5t-28.5 -150t-58 -117t-95.5 -79.5t-142 -48.5t-197.5 -14.5q-113 0 -196 14.5t-141.5 48.5t-95.5 79.5t-58 117t-29 150.5t-8 190v654h391v-705q0 -108 28 -154.5t107 -46.5q82 0 108.5 45.5t26.5 155.5v705h396v-654z" />
    <glyph glyph-name="uacute.sc" horiz-adv-x="1224" 
d="M432 1356l199 368h409l-247 -368h-361zM1141 563q0 -112 -7.5 -190.5t-28.5 -150t-58 -117t-95.5 -79.5t-142 -48.5t-197.5 -14.5q-113 0 -196 14.5t-141.5 48.5t-95.5 79.5t-58 117t-29 150.5t-8 190v654h391v-705q0 -108 28 -154.5t107 -46.5q82 0 108.5 45.5
t26.5 155.5v705h396v-654z" />
    <glyph glyph-name="ubreve.sc" horiz-adv-x="1224" 
d="M1049 1702q0 -48 -13 -95.5t-45 -96t-80.5 -85t-125.5 -59.5t-173 -23t-173 23t-125 59.5t-80 85t-45 96t-13 95.5h309q0 -41 35 -75t92 -34t93 34t36 75h308zM1141 563q0 -112 -7.5 -190.5t-28.5 -150t-58 -117t-95.5 -79.5t-142 -48.5t-197.5 -14.5q-113 0 -196 14.5
t-141.5 48.5t-95.5 79.5t-58 117t-29 150.5t-8 190v654h391v-705q0 -108 28 -154.5t107 -46.5q82 0 108.5 45.5t26.5 155.5v705h396v-654z" />
    <glyph glyph-name="ucircumflex.sc" horiz-adv-x="1224" 
d="M1063 1350h-318l-139 139l-137 -139h-313l276 364h348zM1141 563q0 -112 -7.5 -190.5t-28.5 -150t-58 -117t-95.5 -79.5t-142 -48.5t-197.5 -14.5q-113 0 -196 14.5t-141.5 48.5t-95.5 79.5t-58 117t-29 150.5t-8 190v654h391v-705q0 -108 28 -154.5t107 -46.5
q82 0 108.5 45.5t26.5 155.5v705h396v-654z" />
    <glyph glyph-name="udieresis.sc" horiz-adv-x="1224" 
d="M176 1350v325h377v-325h-377zM674 1350v325h377v-325h-377zM1141 563q0 -112 -7.5 -190.5t-28.5 -150t-58 -117t-95.5 -79.5t-142 -48.5t-197.5 -14.5q-113 0 -196 14.5t-141.5 48.5t-95.5 79.5t-58 117t-29 150.5t-8 190v654h391v-705q0 -108 28 -154.5t107 -46.5
q82 0 108.5 45.5t26.5 155.5v705h396v-654z" />
    <glyph glyph-name="uni1EE5.sc" horiz-adv-x="1224" 
d="M1141 563q0 -112 -7.5 -190.5t-28.5 -150t-58 -117t-95.5 -79.5t-142 -48.5t-197.5 -14.5q-113 0 -196 14.5t-141.5 48.5t-95.5 79.5t-58 117t-29 150.5t-8 190v654h391v-705q0 -108 28 -154.5t107 -46.5q82 0 108.5 45.5t26.5 155.5v705h396v-654zM408 -444v317h409
v-317h-409z" />
    <glyph glyph-name="ugrave.sc" horiz-adv-x="1224" 
d="M786 1356h-358l-250 368h410zM1141 563q0 -112 -7.5 -190.5t-28.5 -150t-58 -117t-95.5 -79.5t-142 -48.5t-197.5 -14.5q-113 0 -196 14.5t-141.5 48.5t-95.5 79.5t-58 117t-29 150.5t-8 190v654h391v-705q0 -108 28 -154.5t107 -46.5q82 0 108.5 45.5t26.5 155.5v705
h396v-654z" />
    <glyph glyph-name="uhungarumlaut.sc" horiz-adv-x="1224" 
d="M137 1356l197 368h409l-245 -368h-361zM612 1356l248 368h410l-299 -368h-359zM1141 563q0 -112 -7.5 -190.5t-28.5 -150t-58 -117t-95.5 -79.5t-142 -48.5t-197.5 -14.5q-113 0 -196 14.5t-141.5 48.5t-95.5 79.5t-58 117t-29 150.5t-8 190v654h391v-705
q0 -108 28 -154.5t107 -46.5q82 0 108.5 45.5t26.5 155.5v705h396v-654z" />
    <glyph glyph-name="umacron.sc" horiz-adv-x="1224" 
d="M260 1636h703v-241h-703v241zM1141 563q0 -112 -7.5 -190.5t-28.5 -150t-58 -117t-95.5 -79.5t-142 -48.5t-197.5 -14.5q-113 0 -196 14.5t-141.5 48.5t-95.5 79.5t-58 117t-29 150.5t-8 190v654h391v-705q0 -108 28 -154.5t107 -46.5q82 0 108.5 45.5t26.5 155.5v705
h396v-654z" />
    <glyph glyph-name="uogonek.sc" horiz-adv-x="1224" 
d="M516 -213q0 95 70 176q-107 2 -186 18t-134.5 50.5t-91 80t-55.5 116t-27.5 148.5t-7.5 187v654h391v-705q0 -108 28 -154.5t107 -46.5q82 0 108.5 45.5t26.5 155.5v705h396v-654q0 -229 -41 -354.5t-156 -185.5q-74 -66 -74 -144q0 -28 17 -47.5t49 -19.5q22 0 46.5 6.5
t37.5 13.5l14 6v-188q-2 -2 -7.5 -6.5t-26 -14.5t-46.5 -18t-71.5 -14.5t-98.5 -6.5q-77 0 -132.5 18.5t-83.5 49.5t-40 63t-12 66z" />
    <glyph glyph-name="uring.sc" horiz-adv-x="1224" 
d="M897 1583q0 -124 -76.5 -190t-206.5 -66q-132 0 -207 65.5t-75 190.5q0 128 75 193t207 65q130 0 206.5 -65.5t76.5 -192.5zM547 1583q0 -30 18.5 -48.5t48.5 -18.5t49 18.5t19 48.5q0 32 -19 51t-49 19t-48.5 -19t-18.5 -51zM1141 563q0 -112 -7.5 -190.5t-28.5 -150
t-58 -117t-95.5 -79.5t-142 -48.5t-197.5 -14.5q-113 0 -196 14.5t-141.5 48.5t-95.5 79.5t-58 117t-29 150.5t-8 190v654h391v-705q0 -108 28 -154.5t107 -46.5q82 0 108.5 45.5t26.5 155.5v705h396v-654z" />
    <glyph glyph-name="utilde.sc" horiz-adv-x="1224" 
d="M1038 1733q0 -180 -55.5 -274.5t-194.5 -94.5q-61 0 -110.5 14.5t-77 32.5t-62 32.5t-69.5 14.5q-57 0 -84 -32.5t-27 -63.5h-174q0 179 56 274t194 95q61 0 111.5 -15t77.5 -32.5t62 -32.5t71 -15q55 0 81.5 33.5t26.5 63.5h174zM1141 563q0 -112 -7.5 -190.5
t-28.5 -150t-58 -117t-95.5 -79.5t-142 -48.5t-197.5 -14.5q-113 0 -196 14.5t-141.5 48.5t-95.5 79.5t-58 117t-29 150.5t-8 190v654h391v-705q0 -108 28 -154.5t107 -46.5q82 0 108.5 45.5t26.5 155.5v705h396v-654z" />
    <glyph glyph-name="v.sc" horiz-adv-x="1236" 
d="M2 1217h440l179 -838l184 838h432l-379 -1217h-479z" />
    <glyph glyph-name="w.sc" horiz-adv-x="1947" 
d="M973 817l-154 -817h-489l-305 1217h450l125 -824l141 824h486l125 -832l153 832h418l-328 -1217h-487z" />
    <glyph glyph-name="wacute.sc" horiz-adv-x="1947" 
d="M803 1356l198 368h410l-248 -368h-360zM973 817l-154 -817h-489l-305 1217h450l125 -824l141 824h486l125 -832l153 832h418l-328 -1217h-487z" />
    <glyph glyph-name="wcircumflex.sc" horiz-adv-x="1947" 
d="M1434 1350h-318l-139 139l-137 -139h-314l277 364h348zM973 817l-154 -817h-489l-305 1217h450l125 -824l141 824h486l125 -832l153 832h418l-328 -1217h-487z" />
    <glyph glyph-name="wdieresis.sc" horiz-adv-x="1947" 
d="M547 1350v325h377v-325h-377zM1044 1350v325h377v-325h-377zM973 817l-154 -817h-489l-305 1217h450l125 -824l141 824h486l125 -832l153 832h418l-328 -1217h-487z" />
    <glyph glyph-name="wgrave.sc" horiz-adv-x="1947" 
d="M1157 1356h-358l-250 368h409zM973 817l-154 -817h-489l-305 1217h450l125 -824l141 824h486l125 -832l153 832h418l-328 -1217h-487z" />
    <glyph glyph-name="x.sc" horiz-adv-x="1212" 
d="M594 332l-164 -332h-428l350 592l-350 625h428l176 -359l176 359h426l-364 -607l334 -610h-428z" />
    <glyph glyph-name="y.sc" horiz-adv-x="1187" 
d="M393 0v305l-391 912h434l150 -588l139 588h461l-406 -908v-309h-387z" />
    <glyph glyph-name="yacute.sc" horiz-adv-x="1187" 
d="M410 1356l198 368h410l-248 -368h-360zM393 0v305l-391 912h434l150 -588l139 588h461l-406 -908v-309h-387z" />
    <glyph glyph-name="ycircumflex.sc" horiz-adv-x="1187" 
d="M1040 1350h-317l-139 139l-138 -139h-313l277 364h348zM393 0v305l-391 912h434l150 -588l139 588h461l-406 -908v-309h-387z" />
    <glyph glyph-name="ydieresis.sc" horiz-adv-x="1187" 
d="M154 1350v325h376v-325h-376zM651 1350v325h377v-325h-377zM393 0v305l-391 912h434l150 -588l139 588h461l-406 -908v-309h-387z" />
    <glyph glyph-name="ygrave.sc" horiz-adv-x="1187" 
d="M764 1356h-358l-250 368h409zM393 0v305l-391 912h434l150 -588l139 588h461l-406 -908v-309h-387z" />
    <glyph glyph-name="uni0233.sc" horiz-adv-x="1187" 
d="M238 1636h702v-241h-702v241zM393 0v305l-391 912h434l150 -588l139 588h461l-406 -908v-309h-387z" />
    <glyph glyph-name="uni1EF9.sc" horiz-adv-x="1187" 
d="M1016 1733q0 -180 -55.5 -274.5t-194.5 -94.5q-61 0 -111 14.5t-77 32.5t-62 32.5t-70 14.5q-57 0 -83.5 -32.5t-26.5 -63.5h-174q0 179 56 274t194 95q61 0 111 -15t77 -32.5t62 -32.5t71 -15q55 0 82 33.5t27 63.5h174zM393 0v305l-391 912h434l150 -588l139 588h461
l-406 -908v-309h-387z" />
    <glyph glyph-name="z.sc" horiz-adv-x="1075" 
d="M33 0v328l510 561h-490v328h975v-328l-520 -561h526v-328h-1001z" />
    <glyph glyph-name="zacute.sc" horiz-adv-x="1075" 
d="M354 1356l199 368h410l-248 -368h-361zM33 0v328l510 561h-490v328h975v-328l-520 -561h526v-328h-1001z" />
    <glyph glyph-name="zcaron.sc" horiz-adv-x="1075" 
d="M983 1714l-283 -364h-348l-264 364h301l137 -129l140 129h317zM33 0v328l510 561h-490v328h975v-328l-520 -561h526v-328h-1001z" />
    <glyph glyph-name="zdotaccent.sc" horiz-adv-x="1075" 
d="M330 1354v321h409v-321h-409zM33 0v328l510 561h-490v328h975v-328l-520 -561h526v-328h-1001z" />
    <glyph glyph-name="zero.osf" horiz-adv-x="1316" 
d="M1249 582q0 -156 -31.5 -269t-101.5 -192.5t-183.5 -118.5t-275.5 -39q-316 0 -452.5 152t-136.5 467q0 157 31.5 270.5t101 193t182.5 118.5t274 40q317 0 454.5 -152.5t137.5 -469.5zM485 582q0 -178 38 -245t134 -67t134 67t38 245q0 180 -38 247.5t-134 67.5
t-134 -67.5t-38 -247.5z" />
    <glyph glyph-name="one.osf" horiz-adv-x="911" 
d="M45 0v270h231v521l-204 -37v286l356 134h234v-904h217v-270h-834z" />
    <glyph glyph-name="two.osf" horiz-adv-x="1210" 
d="M61 0v279q146 67 281 153q22 13 74 44t79 48t70.5 45.5t67.5 50t49.5 48.5t37 53.5t11.5 52.5q0 121 -143 121q-80 0 -116 -47t-36 -125h-383q0 88 14 156.5t50 130t95 101t152.5 62.5t219.5 23q130 0 227.5 -22t155.5 -57.5t93.5 -88.5t47.5 -106t12 -119q0 -47 -12 -93
t-27.5 -81.5t-48 -77.5t-54.5 -66.5t-68.5 -65t-67.5 -57.5t-72 -57l338 14v-319h-1047z" />
    <glyph glyph-name="three.osf" horiz-adv-x="1236" 
d="M846 618q173 -46 246 -152.5t73 -283.5q0 -76 -16 -142.5t-56.5 -130.5t-103 -110t-162.5 -74t-229 -28q-128 0 -226.5 28.5t-160.5 76t-102 116t-56 142.5t-16 161h399q0 -75 36.5 -128.5t115.5 -53.5q83 0 120 49t37 127q0 104 -51 158.5t-188 54.5q-44 0 -82.5 -5
t-55.5 -10l-16 -5v229l318 213l-582 -29v355h1057v-304z" />
    <glyph glyph-name="four.osf" horiz-adv-x="1343" 
d="M762 -291v291h-723v309l553 867h553v-867h155v-309h-155v-291h-383zM762 309v580l-332 -580h332z" />
    <glyph glyph-name="five.osf" horiz-adv-x="1277" 
d="M547 858l-41 -268q105 72 270 72q101 0 180 -28t128 -74t80.5 -110t44 -130t12.5 -140q0 -80 -16 -149.5t-57.5 -135.5t-105.5 -113t-167 -75.5t-236 -28.5q-132 0 -235.5 28t-167.5 73t-105.5 106.5t-57.5 122.5t-16 127h422q0 -15 8 -35t25 -42t50.5 -37t76.5 -15
q85 0 123.5 48t38.5 126q0 89 -38.5 147t-113.5 58q-35 0 -66.5 -9t-52 -21t-36.5 -26.5t-22.5 -23t-8.5 -12.5l-375 4l119 877h930v-334z" />
    <glyph glyph-name="six.osf" horiz-adv-x="1329" 
d="M1270 465q0 -78 -17.5 -147t-60.5 -134.5t-108.5 -112t-169.5 -75t-236 -29.5q-320 -1 -461 167t-141 519q0 236 34 396t109.5 258t186 140t272.5 42q121 0 218 -27t158.5 -71t103 -103.5t58.5 -121.5t17 -128h-395q0 54 -36.5 98t-115.5 44q-59 0 -96 -25.5t-63.5 -97
t-37.5 -197.5q123 72 291 72q130 0 227 -37t153 -102.5t83 -147.5t27 -180zM680 674q-121 0 -199 -94q8 -156 54.5 -228.5t142.5 -72.5q90 0 131 56.5t41 147.5q0 94 -43.5 142.5t-126.5 48.5z" />
    <glyph glyph-name="seven.osf" horiz-adv-x="1064" 
d="M229 -336q0 134 23.5 272t61.5 251.5t84 219t92 184t84 137.5t62 90l23 30l-649 -17v343h1047v-343q-9 -12 -24 -34t-59 -93.5t-84.5 -146.5t-89 -185.5t-84 -218.5t-59.5 -238.5t-24 -250.5h-404z" />
    <glyph glyph-name="eight.osf" horiz-adv-x="1361" 
d="M680 -25q-176 0 -298 30t-191 89.5t-98.5 138t-29.5 185.5q0 72 20.5 135t51 103.5t66 71t64.5 44.5t48 16q-13 2 -35 12.5t-52 34t-55 55t-42.5 81.5t-17.5 108q0 95 27.5 166.5t90.5 128t176.5 86t274.5 29.5t275 -29.5t177 -86t91 -128t28 -166.5q0 -58 -17.5 -108
t-43 -81.5t-55 -55t-52 -34t-36.5 -12.5q25 -3 63.5 -26t82 -65t74.5 -116t31 -163q0 -108 -29.5 -186t-98.5 -137.5t-191 -89.5t-299 -30zM680 1227q-80 0 -116 -47t-36 -140q0 -75 37 -119t115 -44t116 44t38 119q0 187 -154 187zM680 670q-86 0 -125 -55.5t-39 -145.5
q0 -197 164 -197q166 0 166 197q0 90 -39 145.5t-127 55.5z" />
    <glyph glyph-name="nine.osf" horiz-adv-x="1341" 
d="M1264 510q0 -324 -61 -507t-191 -260t-359 -77q-131 0 -233.5 27t-166 70t-104.5 103t-57 121t-16 128h395q0 -24 9 -47t28 -45t56.5 -35t88.5 -13q44 0 74.5 13t57 47t43 97.5t24.5 160.5q-119 -80 -279 -80q-118 0 -206.5 24t-143.5 65.5t-89 105t-47 134.5t-13 163
q0 78 18 147.5t61.5 134.5t109.5 112t168 75.5t231 29.5q321 0 461.5 -168.5t140.5 -525.5zM657 471q119 0 201 102q-6 168 -52 244t-144 76q-84 0 -126 -59t-42 -146q0 -217 163 -217z" />
    <glyph glyph-name="zero.tf" horiz-adv-x="1441" 
d="M1323 731q0 -176 -25.5 -306t-74 -216t-125 -138.5t-170.5 -74t-219 -21.5t-218.5 21.5t-170.5 74t-125.5 138.5t-74.5 216t-26 306q0 219 38.5 367.5t119.5 234t190.5 121t266.5 35.5q125 0 219 -22t170.5 -74.5t125 -139t74 -216.5t25.5 -306zM514 731q0 -104 9 -178
t24.5 -119t41 -71t53.5 -35t67 -9q40 0 68 9t53.5 35t41 71t24.5 119t9 178t-9 178t-24.5 119t-41 71t-53.5 35t-68 9q-39 0 -67 -9t-53.5 -35t-41 -71t-24.5 -119t-9 -178z" />
    <glyph glyph-name="one.tf" horiz-adv-x="1441" 
d="M322 0v317h245v748l-235 -47v287l403 159h234v-1147h229v-317h-876z" />
    <glyph glyph-name="two.tf" horiz-adv-x="1441" 
d="M127 2v326q176 102 344 225q172 124 225 170q142 123 149 232q1 7 1 14q0 67 -36 113t-114 46q-85 0 -125.5 -65t-40.5 -156h-411q0 132 28 233.5t91.5 181.5t176.5 122.5t273 42.5q114 0 205.5 -18.5t153.5 -53.5t106 -79t68 -100t34.5 -111.5t10.5 -118.5
q0 -80 -28.5 -159t-59.5 -130.5t-103.5 -124.5t-105.5 -101t-122 -99q-19 -15 -28 -23q-5 -5 -20 -15l452 19v-371h-1124z" />
    <glyph glyph-name="three.tf" horiz-adv-x="1441" 
d="M944 891q176 -48 249 -154.5t73 -283.5q0 -76 -16 -142.5t-57 -131t-105.5 -110.5t-168.5 -74t-239 -28q-582 0 -582 525h414q0 -75 38 -128t120 -53q159 0 159 176q0 103 -51.5 157t-189.5 54q-44 0 -82.5 -5t-55.5 -10l-16 -5v231l320 211l-607 -26v354h1098v-305z" />
    <glyph glyph-name="four.tf" horiz-adv-x="1441" 
d="M805 0v221h-756v307l553 922h604v-922h156v-307h-156v-221h-401zM805 528v617l-332 -617h332z" />
    <glyph glyph-name="five.tf" horiz-adv-x="1441" 
d="M614 1130l-39 -251q104 71 273 71q103 0 183.5 -28t130 -73.5t81.5 -109.5t44.5 -130t12.5 -140q0 -81 -16 -150.5t-58 -135.5t-107 -112.5t-169.5 -75t-240.5 -28.5q-137 0 -244 28t-173 72.5t-108.5 106t-58.5 122.5t-16 128h436q0 -15 8.5 -35.5t26 -43t51.5 -37.5
t78 -15q165 0 165 176q0 91 -37.5 148t-117.5 57q-36 0 -68 -9t-52.5 -21t-36.5 -26.5t-23 -23t-9 -12.5l-391 4l119 860h959v-334z" />
    <glyph glyph-name="six.tf" horiz-adv-x="1441" 
d="M1331 465q0 -79 -16.5 -147.5t-59.5 -134t-110 -112t-174.5 -75t-247.5 -29.5q-176 -1 -296.5 41t-192.5 130.5t-103 213t-31 301.5q0 239 32 396.5t108 257t191.5 141t291.5 41.5q107 0 195.5 -18.5t149.5 -52t106 -76t70.5 -94t37.5 -103.5t12 -107h-411q0 54 -36.5 98
t-115.5 44q-61 0 -98.5 -25.5t-64 -96.5t-38.5 -198q123 72 295 72q136 0 236.5 -37t158 -103t84.5 -147t27 -180zM725 674q-121 0 -203 -94q8 -157 55 -229t146 -72q90 0 131 56.5t41 147.5q0 94 -43.5 142.5t-126.5 48.5z" />
    <glyph glyph-name="seven.tf" horiz-adv-x="1441" 
d="M410 0q0 121 23.5 248.5t61.5 234.5t83.5 207.5t91 177.5t83.5 135t61 89l24 30l-670 -18v344h1096v-344q-9 -12 -24 -34t-59 -92.5t-84.5 -143.5t-89 -179t-84 -207.5t-59.5 -221t-24 -226.5h-430z" />
    <glyph glyph-name="eight.tf" horiz-adv-x="1441" 
d="M717 -25q-177 0 -300 30t-192.5 89.5t-99 137.5t-29.5 186q0 72 20.5 135t51 103.5t66 71t64.5 44.5t48 16q-18 3 -48 20t-66.5 49.5t-62.5 91.5t-26 130q0 95 27.5 166.5t91.5 128t178 86t277 29.5q131 0 230.5 -20t164 -55t105 -87.5t57 -112.5t16.5 -135
q0 -71 -26 -130t-62.5 -91t-67 -49.5t-49.5 -20.5q19 -2 48 -16t65 -44.5t66.5 -71t51.5 -103.5t21 -135q0 -108 -29.5 -186t-98 -137.5t-191.5 -89.5t-301 -30zM717 1227q-83 0 -119.5 -46.5t-36.5 -140.5q0 -75 37.5 -119t118.5 -44t119 44t38 119q0 93 -37 140t-120 47z
M717 670q-89 0 -128.5 -55.5t-39.5 -145.5q0 -197 168 -197q170 0 170 197q0 90 -40.5 145.5t-129.5 55.5z" />
    <glyph glyph-name="nine.tf" horiz-adv-x="1441" 
d="M1329 795q0 -193 -19.5 -328.5t-63 -234t-118.5 -155.5t-178.5 -83.5t-251.5 -26.5q-139 0 -246.5 27t-172.5 70t-106.5 103.5t-57 120.5t-15.5 128h412q0 -53 44 -96.5t142 -43.5q58 0 94.5 23t63 89t39.5 185q-117 -75 -277 -75q-124 0 -216.5 24t-150 65t-92.5 105
t-48 134.5t-13 162.5q0 78 17.5 147t61 135t111 113t175 75.5t244.5 29.5q176 0 296.5 -42t192 -131t102.5 -214.5t31 -306.5zM702 756q121 0 203 102q-6 168 -52.5 244t-145.5 76q-87 0 -129.5 -59t-42.5 -146q0 -217 167 -217z" />
    <glyph glyph-name="zero.subs" horiz-adv-x="1136" 
d="M1057 156q0 -173 -30 -289.5t-94.5 -183t-152 -94t-215.5 -27.5q-127 0 -214 27.5t-151 94t-94 183t-30 289.5q0 172 30 287t94 181.5t151 93.5t214 27q128 0 215.5 -27t152 -93.5t94.5 -181.5t30 -287zM412 156q0 -100 10 -164t31 -96.5t47 -44t65 -11.5q41 0 67 11.5
t48 44t31.5 96.5t9.5 164q0 80 -7 136.5t-19 90.5t-32.5 53.5t-42.5 26t-55 6.5q-39 0 -65 -11.5t-47 -43.5t-31 -95.5t-10 -162.5z" />
    <glyph glyph-name="one.subs" horiz-adv-x="638" 
d="M197 -414v813l-185 -71v268l318 125h188v-1135h-321z" />
    <glyph glyph-name="two.subs" horiz-adv-x="1011" 
d="M59 -412v258q138 85 267 179q146 103 192 146q100 92 100 177q0 47 -26.5 81t-85.5 34q-65 0 -94 -47.5t-29 -118.5h-332q0 103 22 182.5t71.5 142.5t139 96.5t216.5 33.5q107 0 189.5 -22t132 -57t80.5 -85t42.5 -101t11.5 -110q0 -38 -8 -75t-17 -66t-32 -64.5
t-36.5 -56.5t-47.5 -55.5t-47.5 -48.5t-55.5 -49t-51.5 -42.5t-54.5 -42.5l-26 -20l362 16v-285h-883z" />
    <glyph glyph-name="three.subs" horiz-adv-x="1021" 
d="M707 281q137 -37 193 -120t56 -222q0 -58 -12.5 -109.5t-45.5 -101.5t-83.5 -86t-132.5 -58t-188 -22q-457 0 -457 413h332q0 -56 27.5 -97.5t88.5 -41.5q63 0 91 37t28 94q0 79 -38 120.5t-146 41.5q-35 0 -64 -4t-41 -8l-12 -4v184l240 158l-469 -21v285h864v-246z" />
    <glyph glyph-name="four.subs" horiz-adv-x="1060" 
d="M606 -414v168h-563v248l426 717h459v-717h123v-248h-123v-168h-322zM606 2v469l-248 -469h248z" />
    <glyph glyph-name="five.subs" horiz-adv-x="1040" 
d="M465 465l-29 -189q84 54 207 54q82 0 145.5 -22t102.5 -57.5t64 -86t34.5 -101t9.5 -108.5q0 -63 -12.5 -117.5t-45.5 -106.5t-84 -88.5t-133 -58.5t-189 -22q-108 0 -192.5 22t-136 56.5t-85 83t-46 97t-12.5 101.5h351q0 -29 30 -63.5t91 -34.5q122 0 122 131
q0 69 -27 111.5t-89 42.5q-27 0 -52 -7t-40.5 -17.5t-27.5 -21t-17 -17.5l-5 -7l-313 2l92 678h756v-268z" />
    <glyph glyph-name="six.subs" horiz-adv-x="1091" 
d="M1042 -49q0 -61 -13 -114.5t-47 -105t-86.5 -87.5t-137.5 -58.5t-195 -23.5q-139 -1 -233.5 31.5t-150 102t-79.5 166.5t-24 236q0 246 48 386.5t152.5 202t286.5 61.5q101 0 181 -21t130 -55.5t83 -82t46 -95.5t13 -101h-332q0 40 -27.5 73.5t-85.5 33.5
q-67 0 -103.5 -51t-47.5 -187q88 55 227 55q107 0 185.5 -29t123 -81t65.5 -115.5t21 -140.5zM567 109q-89 0 -153 -68q6 -119 40.5 -174t108.5 -55q68 0 98.5 43t30.5 110q0 69 -32.5 106.5t-92.5 37.5z" />
    <glyph glyph-name="seven.subs" horiz-adv-x="890" 
d="M205 -414q0 129 34 266t83 241t98 189t83 130l34 45l-521 -15v275h863v-275q-13 -18 -35.5 -51t-79 -133t-99.5 -197.5t-78.5 -229.5t-35.5 -245h-346z" />
    <glyph glyph-name="eight.subs" horiz-adv-x="1085" 
d="M555 -438q-140 0 -236.5 23.5t-150.5 70.5t-77 108t-23 146q0 69 23 126.5t56 90.5t62.5 51t50.5 21q-16 3 -39.5 16.5t-51.5 39t-47.5 71t-19.5 100.5q0 74 22 130t72.5 100.5t140.5 68t218 23.5t218 -23t140 -68t71.5 -101t21.5 -130q0 -45 -13 -83.5t-32 -63t-42 -43
t-41 -27t-30 -10.5q21 -3 51.5 -21t64.5 -51t57 -90.5t23 -126.5q0 -85 -23 -146t-77.5 -108t-151 -70.5t-237.5 -23.5zM555 537q-117 0 -117 -144q0 -123 117 -123t117 123q0 72 -27.5 108t-89.5 36zM555 104q-125 0 -125 -153q0 -152 125 -152q127 0 127 152
q0 153 -127 153z" />
    <glyph glyph-name="nine.subs" horiz-adv-x="1091" 
d="M1044 205q0 -190 -23 -310t-82 -196t-151.5 -106.5t-238.5 -30.5q-110 0 -195 21t-136 54.5t-83.5 81t-44.5 94.5t-12 101h332q0 -41 32 -72.5t107 -31.5q65 0 100.5 46t48.5 175q-97 -58 -213 -58q-99 0 -171.5 18.5t-117.5 51t-72.5 82t-37.5 104.5t-10 127
q0 61 13 115t47 106t87 89t138 59.5t194 22.5q139 0 233.5 -33t151 -103.5t80.5 -168.5t24 -238zM553 180q90 0 149 74q-5 128 -39 186t-108 58q-67 0 -98 -44t-31 -110q0 -164 127 -164z" />
    <glyph glyph-name="zero.dnom" horiz-adv-x="1136" 
d="M1057 569q0 -173 -30 -289.5t-94.5 -183t-152 -94t-215.5 -27.5q-127 0 -214 27.5t-151 94t-94 183t-30 289.5q0 138 20 239t58 168.5t99 108t136 57.5t176 17q128 0 215.5 -27.5t152 -93.5t94.5 -181.5t30 -287.5zM412 569q0 -100 10 -163.5t31 -96t47 -44t65 -11.5
q33 0 55 6.5t42.5 26t32.5 54t19 91.5t7 137t-7 136.5t-19 91t-32.5 54t-43 26t-54.5 6.5q-39 0 -65 -11.5t-47 -44t-31 -96t-10 -162.5z" />
    <glyph glyph-name="one.dnom" horiz-adv-x="638" 
d="M197 0v813l-185 -72v269l318 125h188v-1135h-321z" />
    <glyph glyph-name="two.dnom" horiz-adv-x="1011" 
d="M59 2v258q138 84 267 178q146 103 194 148q98 91 98 176q0 47 -26.5 81t-85.5 34q-65 0 -94 -47.5t-29 -118.5h-332q0 82 13 148t45 124.5t82.5 97.5t128.5 61.5t180 22.5q456 0 456 -374q0 -38 -8 -75t-17 -66t-32 -64.5t-36.5 -56.5t-47.5 -55.5t-47.5 -48.5t-55.5 -49
t-51.5 -42.5t-54.5 -42.5q-2 -2 -11 -10t-15 -11l362 17v-285h-883z" />
    <glyph glyph-name="three.dnom" horiz-adv-x="1021" 
d="M707 694q137 -37 193 -120t56 -222q0 -58 -12.5 -109.5t-45.5 -101.5t-83.5 -86t-132.5 -58t-188 -22q-457 0 -457 414h332q0 -56 27.5 -97.5t88.5 -41.5q63 0 91 37t28 94q0 79 -38 120.5t-146 41.5q-35 0 -64 -4.5t-41 -8.5l-12 -4v185l240 157l-469 -20v285h864v-246z
" />
    <glyph glyph-name="four.dnom" horiz-adv-x="1060" 
d="M606 0v168h-563v248l426 717h459v-717h123v-248h-123v-168h-322zM606 416v469l-248 -469h248z" />
    <glyph glyph-name="five.dnom" horiz-adv-x="1040" 
d="M465 879l-29 -189q82 53 207 53q82 0 145.5 -22t102.5 -57.5t64 -85.5t34.5 -100.5t9.5 -108.5q0 -63 -12.5 -117.5t-45.5 -106.5t-84 -89t-133 -59t-189 -22q-108 0 -192.5 22t-136 57t-85 83.5t-46 97t-12.5 101.5h351q0 -29 30 -63.5t91 -34.5q122 0 122 131
q0 153 -116 153q-27 0 -52 -7t-40.5 -17t-27.5 -20.5t-17 -17.5l-5 -7l-313 2l92 678h756v-269z" />
    <glyph glyph-name="six.dnom" horiz-adv-x="1091" 
d="M1042 365q0 -62 -13 -115t-47 -104.5t-86.5 -88t-137.5 -59t-195 -23.5q-139 -1 -233.5 32t-150 102.5t-79.5 166.5t-24 236q0 246 48 386t152.5 201.5t286.5 61.5q101 0 181 -21t130 -55.5t83 -81.5t46 -95t13 -101h-332q0 40 -27.5 73t-85.5 33q-67 0 -103.5 -51
t-47.5 -186q88 55 227 55q107 0 185.5 -29t123 -81t65.5 -115.5t21 -140.5zM567 522q-90 0 -153 -67q6 -120 40.5 -175t108.5 -55q68 0 98.5 43.5t30.5 110.5q0 69 -32.5 106t-92.5 37z" />
    <glyph glyph-name="seven.dnom" horiz-adv-x="890" 
d="M205 0q0 129 34 266t83 240.5t98 188.5t83 130l34 45l-521 -14v274h863v-274q-13 -18 -35.5 -51t-79 -133t-99.5 -197.5t-78.5 -229.5t-35.5 -245h-346z" />
    <glyph glyph-name="eight.dnom" horiz-adv-x="1085" 
d="M555 -25q-140 0 -236.5 23.5t-150.5 71t-77 108.5t-23 146q0 69 23 126.5t56 90t62.5 50.5t50.5 21q-16 3 -39.5 17t-51.5 39.5t-47.5 71t-19.5 100.5q0 74 22 130t72.5 100.5t140.5 67.5t218 23t218 -23t140 -67.5t71.5 -100.5t21.5 -130q0 -55 -19.5 -100.5t-47 -71
t-51.5 -39.5t-40 -17q16 -2 39 -13t51 -34.5t51 -55.5t39 -80.5t16 -104.5q0 -85 -23 -146t-77.5 -108.5t-151 -71t-237.5 -23.5zM555 950q-117 0 -117 -143q0 -123 117 -123t117 123q0 72 -27 107.5t-90 35.5zM555 518q-125 0 -125 -153q0 -152 125 -152q127 0 127 152
q0 153 -127 153z" />
    </font>
</defs>
</svg>
