<svg xmlns="http://www.w3.org/2000/svg">
<defs>
<font id="TofinoProPersonalWide-BlackItalic" horiz-adv-x="0" >
  <font-face 
    font-family="Tofino Pro Personal Wide Bk It"
    font-weight="475"
    font-style="italic"
    font-stretch="expanded"
    units-per-em="2048"
    panose-1="0 0 5 5 0 0 0 0 0 0"
    ascent="1556"
    descent="-492"
    x-height="1126"
    cap-height="1493"
    bbox="-1923 -723 3190.38 2548"
    underline-thickness="102"
    underline-position="-255"
    slope="-10"
    unicode-range="U+0020-2661"
  />
<missing-glyph horiz-adv-x="1261" 
d="M1026 1067q28 -19 31 -61q3 -43 -23 -66q-20 -14 -49 -14q-31 0 -94 18q123 -129 123 -311q0 -178 -119.5 -305t-286.5 -127q-166 0 -284.5 127t-118.5 305q0 93 34 175.5t95 141.5q-44 63 -17 131q26 64 108.5 106t182.5 42q102 0 187 -44t114 -112l2 -4q79 24 115 -2z
M608 1180q-85 0 -155.5 -33.5t-90.5 -83.5q-16 -37 9 -80q105 81 229 84q0 25 6 41q17 42 51 51q28 7 58 -11.5t71 -55.5l5 -5q18 7 30 7q7 0 19 -4q-36 41 -101 65.5t-131 24.5zM653 1090q-7 -18 -2 -25q11 -19 88 -29q2 -2 6 -2q3 3 3 6l6 15q-66 61 -86 57q-9 -5 -15 -22
zM823 991q23 0 27 19q4 11 -2 20t-19 12q-2 2 -8 2q-20 0 -26 -18q-2 -6 2 -18q8 -13 18 -15zM901 993q89 -26 103 -14q8 4 4 25q0 15 -9 24q-16 11 -92 -10q-2 -2 -8 -2q0 -15 -2 -21q2 -2 4 -2zM467 987q-31 -36 -10 -84q15 -31 52 -61.5t96 -57.5t150 -41.5t197 -9.5
q-36 134 -135 211q-10 0 -16 2q-31 9 -45 37h-2l-21 4q-68 8 -100 29q-8 2 -25 2q-71 0 -141 -31zM414 883q-15 30 -15 61q-110 -89 -137 -229q60 -1 126 21.5t106 54.5q-58 43 -80 92zM915 651q18 24 29 33h-49q-215 0 -358 80q-42 -41 -113.5 -68t-140.5 -30l16 -15
q34 19 117 19q99 0 145 -21q47 -23 94 0q43 21 146 21q84 0 114 -19zM254 633q0 -158 104 -271.5t250 -113.5q148 0 252.5 113t104.5 272q0 6 -1 17.5t-1 17.5q-15 -12 -33 -37v-2q6 -57 -14.5 -102.5t-65.5 -51.5q-32 -4 -66 -4q-73 0 -96 14q-44 24 -57 93q-2 4 -2 10

<glyph glyph-name="f_f" unicode="ff" horiz-adv-x="1742" 
d="M1059 1583l-58 -321h-63q-97 0 -159.5 -51t-76.5 -136l-6 -35h391l25 136q11 63 33.5 119t64.5 110.5t99 93.5t142 63t189 23l230 -2l-60 -321h-63q-97 0 -159.5 -51t-76.5 -136l-6 -35h269l-48 -274h-270l-135 -766h-416l135 766h-393l-135 -766h-416l135 766h-163
l47 274h164l24 136q11 63 33.5 118.5t64.5 110t99 93.5t142 63t189 24z" />
    <glyph glyph-name="f_f_i" unicode="ffi" horiz-adv-x="2463" 
d="M2021 1282l58 332h420l-60 -332h-418zM1870 1583l-60 -321h-63q-97 0 -159.5 -51t-76.5 -136l-6 -35h269l-48 -274h-270l-135 -766h-416l135 766h-393l-135 -766h-416l135 766h-163l47 274h164l24 136q11 63 33.5 118.5t64.5 110t99 93.5t142 63t189 24l228 -2l-58 -321
h-63q-97 0 -159.5 -51t-76.5 -136l-6 -35h391l25 136q11 63 33.5 119t64.5 110.5t99 93.5t142 63t189 23zM1794 0l199 1126h417l-198 -1126h-418z" />
    <glyph glyph-name="f_f_l" unicode="ffl" horiz-adv-x="2467" 
d="M1870 1583l-60 -321h-63q-97 0 -159.5 -51t-76.5 -136l-6 -35h269l-48 -274h-270l-135 -766h-416l135 766h-393l-135 -766h-416l135 766h-163l47 274h164l24 136q11 63 33.5 118.5t64.5 110t99 93.5t142 63t189 24l228 -2l-58 -321h-63q-97 0 -159.5 -51t-76.5 -136
l-6 -35h391l25 136q11 63 33.5 119t64.5 110.5t99 93.5t142 63t189 23zM1796 0l279 1567h415l-278 -1567h-416z" />
    <glyph glyph-name=".notdef" horiz-adv-x="1261" 
d="M1026 1067q28 -19 31 -61q3 -43 -23 -66q-20 -14 -49 -14q-31 0 -94 18q123 -129 123 -311q0 -178 -119.5 -305t-286.5 -127q-166 0 -284.5 127t-118.5 305q0 93 34 175.5t95 141.5q-44 63 -17 131q26 64 108.5 106t182.5 42q102 0 187 -44t114 -112l2 -4q79 24 115 -2z
M608 1180q-85 0 -155.5 -33.5t-90.5 -83.5q-16 -37 9 -80q105 81 229 84q0 25 6 41q17 42 51 51q28 7 58 -11.5t71 -55.5l5 -5q18 7 30 7q7 0 19 -4q-36 41 -101 65.5t-131 24.5zM653 1090q-7 -18 -2 -25q11 -19 88 -29q2 -2 6 -2q3 3 3 6l6 15q-66 61 -86 57q-9 -5 -15 -22
zM823 991q23 0 27 19q4 11 -2 20t-19 12q-2 2 -8 2q-20 0 -26 -18q-2 -6 2 -18q8 -13 18 -15zM901 993q89 -26 103 -14q8 4 4 25q0 15 -9 24q-16 11 -92 -10q-2 -2 -8 -2q0 -15 -2 -21q2 -2 4 -2zM467 987q-31 -36 -10 -84q15 -31 52 -61.5t96 -57.5t150 -41.5t197 -9.5
q-36 134 -135 211q-10 0 -16 2q-31 9 -45 37h-2l-21 4q-68 8 -100 29q-8 2 -25 2q-71 0 -141 -31zM414 883q-15 30 -15 61q-110 -89 -137 -229q60 -1 126 21.5t106 54.5q-58 43 -80 92zM915 651q18 24 29 33h-49q-215 0 -358 80q-42 -41 -113.5 -68t-140.5 -30l16 -15
q34 19 117 19q99 0 145 -21q47 -23 94 0q43 21 146 21q84 0 114 -19zM254 633q0 -158 104 -271.5t250 -113.5q148 0 252.5 113t104.5 272q0 6 -1 17.5t-1 17.5q-15 -12 -33 -37v-2q6 -57 -14.5 -102.5t-65.5 -51.5q-32 -4 -66 -4q-73 0 -96 14q-44 24 -57 93q-2 4 -2 10
q-6 20 -23 20q-11 0 -18 -20q-2 -2 -2 -10q-5 -27 -20.5 -54t-39.5 -39q-23 -14 -96 -14q-35 0 -63 4q-45 6 -66.5 52t-15.5 102v2l-31 28v-26zM516 506q35 21 45 76q6 28 -4 41l-4 4h-2q-36 20 -135 20q-36 0 -62.5 -4.5t-35.5 -8.5t-9 -7q-2 -26 1.5 -52t18.5 -49t40 -26
q32 -4 61 -4q66 0 86 10zM784 496q32 0 64 4q34 4 48.5 44.5t10.5 82.5q-2 3 -10 7t-34 8.5t-62 4.5q-99 0 -135 -20q-2 0 -2 -2l-5 -2q-10 -13 -4 -41q3 -24 16 -45.5t29 -30.5q20 -10 84 -10zM463 602q22 -13 22 -43q0 -20 -14.5 -34.5t-34.5 -14.5t-34.5 14.5t-14.5 34.5
q0 10 2 16l-22 19q-7 3 0 10q3 3 10 0l18 -16l6 8l-12 22q-2 1 -1.5 5.5t3.5 5.5q6 3 10 -4l13 -21l8 4l-4 25q0 8 8 8q5 0 8 -6l2 -25q2 0 6.5 -1t6.5 -1l6 27q3 6 10 6q7 -4 4 -10zM848 604q2 2 5 2t5 -2q4 -7 -2 -10l-20 -21q0 -2 1 -6.5t1 -7.5q0 -20 -15 -34.5
t-37 -14.5q-20 0 -34.5 14.5t-14.5 34.5q0 29 25 43l-8 29q0 7 6 10q8 0 8 -6l6 -27q4 2 12 2l5 25q0 6 8 6q6 0 6 -8l-4 -25l10 -4l12 21q4 8 8 4q3 -1 5 -5t0 -6l-15 -22q6 -3 6 -8zM606 293q46 0 78.5 22t32.5 54q0 31 -32.5 52t-78.5 21t-78 -21t-32 -52q0 -32 32 -54
t78 -22z" />
    <glyph glyph-name=".null" 
 />
    <glyph glyph-name="nonmarkingreturn" horiz-adv-x="682" 
 />
    <glyph glyph-name="space" unicode=" " horiz-adv-x="454" 
 />
    <glyph glyph-name="exclam" unicode="!" horiz-adv-x="749" 
d="M135 410l156 1075h418l-224 -1075h-350zM29 0l57 328h418l-58 -328h-417z" />
    <glyph glyph-name="quotedbl" unicode="&#x22;" horiz-adv-x="1159" 
d="M197 942l43 598h438l-166 -598h-315zM719 942l43 598h438l-166 -598h-315z" />
    <glyph glyph-name="numbersign" unicode="#" horiz-adv-x="1832" 
d="M131 0l131 322h-203l54 299h270l96 233h-213l53 299h283l117 285h303l-117 -285h285l117 285h305l-117 -285h217l-51 -299h-287l-96 -233h229l-53 -299h-297l-131 -322h-307l131 322h-283l-129 -322h-307zM690 621h281l96 233h-283z" />
    <glyph glyph-name="dollar" unicode="$" horiz-adv-x="1413" 
d="M418 -63l26 151q-455 60 -383 479h345q-18 -105 40.5 -152.5t188.5 -49.5q122 -2 189 29.5t79 105.5q7 37 -17.5 61.5t-71 38.5t-108.5 24t-130.5 21t-136 25.5t-126 42.5t-100 67t-58.5 103.5t-1 148.5q67 357 524 393l22 127h269l-23 -133q235 -28 323.5 -142.5
t53.5 -315.5h-344q3 26 3.5 51t-13 47.5t-35.5 40t-66 28t-104 11.5q-115 1 -179 -37t-75 -101q-7 -37 17.5 -62.5t71 -39.5t108.5 -23.5t130.5 -20t136.5 -25t127 -41.5t101.5 -66t60.5 -102.5t3 -147.5q-33 -188 -171 -283.5t-386 -109.5l-23 -143h-268z" />
    <glyph glyph-name="percent" unicode="%" horiz-adv-x="2060" 
d="M930 1063q-32 -175 -141.5 -262.5t-331.5 -87.5q-121 0 -206 29t-129 82.5t-59 129t3 168.5q32 178 143.5 269.5t331.5 91.5q460 0 389 -420zM143 0l1350 1438h397l-1347 -1438h-400zM324 1063q-13 -66 18.5 -104.5t116.5 -38.5q89 0 141 48t72 154q25 152 -131 152
q-178 0 -217 -211zM1958 305q-20 -115 -71 -190.5t-150.5 -118.5t-249.5 -43q-240 0 -333.5 108.5t-59.5 303.5q32 177 144 268.5t333 91.5q459 0 387 -420zM1350 305q-24 -143 135 -143q89 0 142 48.5t71 154.5q26 151 -131 151q-178 0 -217 -211z" />
    <glyph glyph-name="ampersand" unicode="&#x26;" horiz-adv-x="1630" 
d="M913 1528q290 0 416.5 -128.5t87.5 -350.5h-377q32 182 -145 182q-103 0 -159.5 -41.5t-67.5 -116.5q-9 -52 4 -101t54.5 -104.5t85.5 -102.5t124 -125q27 -26 41 -40q67 -67 104 -100q95 141 133 354h342q-61 -334 -258 -559l220 -201l-9 -110h-381l-94 96
q-225 -123 -512 -123q-305 0 -443.5 135t-98.5 373q15 81 54.5 150t94.5 115.5t106.5 77t108.5 52.5q-72 138 -45 289q67 379 614 379zM621 524q-104 109 -107 113q-157 -100 -178 -229q-14 -74 46.5 -122t221.5 -48q129 0 236 49q-76 78 -219 237z" />
    <glyph glyph-name="quotesingle" unicode="'" horiz-adv-x="636" 
d="M197 942l43 598h438l-166 -598h-315z" />
    <glyph glyph-name="parenleft" unicode="(" horiz-adv-x="1091" 
d="M203 606q29 165 81.5 323.5t107.5 267t106 193.5t84 126l32 40h400q-14 -17 -37 -48.5t-87 -135t-118 -214t-112 -278t-87 -333.5q-27 -170 -26 -315t22 -262t46.5 -199t46.5 -126l20 -44h-389q-8 16 -21 46t-41 130.5t-44 210t-15.5 278t31.5 340.5z" />
    <glyph glyph-name="parenright" unicode=")" horiz-adv-x="1077" 
d="M813 1556q7 -16 17 -46t32.5 -131t34 -211t7.5 -279.5t-34 -341.5q-21 -120 -57 -237t-76.5 -208t-84.5 -173.5t-84 -141t-72 -101.5t-51 -64l-19 -21h-401q15 17 40.5 48.5t94.5 134.5t127.5 213t120 276.5t90.5 332.5q27 159 30 315t-13 265.5t-35.5 196.5t-36.5 130
l-17 43h387z" />
    <glyph glyph-name="asterisk" unicode="*" horiz-adv-x="1030" 
d="M135 1137l117 229l223 -98l29 221h246l-54 -219l250 96l53 -240l-270 -65l154 -178l-240 -154l-104 197l-181 -197l-196 168l223 170z" />
    <glyph glyph-name="plus" unicode="+" horiz-adv-x="1236" 
d="M104 799h383l62 342h280l-61 -342h385l-43 -246h-385l-59 -342h-281l59 342h-385z" />
    <glyph glyph-name="comma" unicode="," horiz-adv-x="657" 
d="M-119 -311q88 164 174 381q36 91 59 159.5t28 91.5l5 23h383q-30 -139 -141 -364q-50 -102 -101.5 -174.5t-77.5 -94.5l-26 -22h-303z" />
    <glyph glyph-name="hyphen" unicode="-" horiz-adv-x="976" 
d="M104 489l56 316h626l-55 -316h-627z" />
    <glyph glyph-name="period" unicode="." horiz-adv-x="638" 
d="M16 0l58 328h422l-60 -328h-420z" />
    <glyph glyph-name="slash" unicode="/" horiz-adv-x="1589" 
d="M82 -82l1046 1741h377l-1050 -1741h-373z" />
    <glyph glyph-name="zero" unicode="0" horiz-adv-x="1601" 
d="M1493 702q-36 -207 -103 -349t-169 -225.5t-228.5 -119t-298.5 -35.5q-120 0 -214 17.5t-170 56.5t-123.5 100t-76 149t-26.5 203.5t25 262.5q30 167 79.5 290.5t117 207t159.5 134.5t199.5 73t244.5 22q120 0 214 -17.5t170 -56t123.5 -100t76 -149t26.5 -203
t-26 -261.5zM524 702q-17 -91 -17.5 -157t12.5 -108t42 -67t66.5 -34.5t91.5 -9.5q65 0 116 19t98.5 66t83.5 135t60 216q16 91 16.5 156t-12 107.5t-41 67.5t-66 34.5t-91.5 9.5q-51 0 -93.5 -11.5t-84 -41t-74 -78t-60.5 -125t-47 -179.5z" />
    <glyph glyph-name="one" unicode="1" horiz-adv-x="854" 
d="M139 0l185 1063l-285 -45l49 287l475 159h246l-260 -1464h-410z" />
    <glyph glyph-name="two" unicode="2" horiz-adv-x="1458" 
d="M-49 6l41 230l14 81v2q230 121 455 244q36 20 96.5 53t92.5 51t80.5 46.5t74.5 48t59 47.5t51 53t33 56.5t21 64.5q3 20 -2.5 42t-22 45t-55 37.5t-94.5 14.5q-106 0 -185.5 -59.5t-89.5 -124.5h-414q15 87 47.5 164.5t90.5 149t135.5 123t190 82t247.5 30.5
q110 0 200.5 -16.5t152 -46t109 -69t72 -86.5t39.5 -99t12.5 -104.5t-9.5 -104.5q-8 -43 -22.5 -84t-32 -75t-45.5 -69.5t-52 -62t-62 -59t-65.5 -54t-73.5 -52.5t-74 -49t-78 -50.5t-77 -49.5l-16 -8l485 19l-63 -361h-1266z" />
    <glyph glyph-name="three" unicode="3" horiz-adv-x="1456" 
d="M1008 895q376 -97 313 -465q-10 -56 -32 -107.5t-59 -105t-94 -97.5t-131.5 -79t-178 -54.5t-226.5 -19.5q-96 0 -177.5 12.5t-142 35t-108 53t-79 69t-52 80.5t-28.5 89t-7.5 93t8.5 95h418q-5 -25 1 -54t24 -58t59 -48t100 -19q113 0 187.5 63.5t87.5 145.5
q12 72 -49.5 122t-204.5 50q-54 0 -105 -7t-76 -14l-24 -7l27 225q4 2 6 2l438 221l-725 -31l64 363h1231l-54 -309z" />
    <glyph glyph-name="four" unicode="4" horiz-adv-x="1466" 
d="M729 0l37 217h-842l51 315l834 918h586l-164 -918h186l-55 -315h-186l-37 -217h-410zM821 532l117 654l-553 -654h436z" />
    <glyph glyph-name="five" unicode="5" horiz-adv-x="1484" 
d="M680 1122l-90 -250q131 78 317 78q87 0 158.5 -16.5t121.5 -45.5t88.5 -68t58.5 -85t32.5 -96t10 -101t-8.5 -100q-13 -70 -42 -133t-86 -126t-135 -109t-197.5 -74.5t-266.5 -28.5q-80 0 -151 7.5t-127 22t-104 34t-83 44t-63.5 51.5t-46.5 57t-30.5 60.5t-17 62.5
t-4 61.5t5.5 58.5h439q-1 -7 3 -20.5t17.5 -32t35 -35t61.5 -28t90 -11.5q115 0 189.5 61.5t88.5 137.5q11 70 -35 121t-161 51q-48 0 -92.5 -8.5t-73 -20t-52 -25t-34 -22.5t-13.5 -14l-401 4l289 858h1075l-60 -340z" />
    <glyph glyph-name="six" unicode="6" horiz-adv-x="1552" 
d="M1438 436q-12 -68 -40.5 -130.5t-86.5 -125.5t-138 -109t-203.5 -74.5t-275.5 -29.5q-161 -1 -279.5 30t-191 91t-111 147t-41 199t20.5 248q40 228 100.5 379t159 248t232.5 138.5t325 41.5q142 0 253.5 -28.5t178 -74.5t106.5 -106t50.5 -120.5t-0.5 -121.5h-416
q3 19 -2.5 40t-23 43.5t-58.5 37.5t-100 15q-113 0 -192 -72t-138 -252q160 82 353 82q92 0 169.5 -14.5t133 -41t99.5 -63t68.5 -80t40.5 -92.5t15 -100.5t-8 -104.5zM799 668q-171 0 -297 -101q-18 -143 27 -212.5t167 -69.5q135 0 214 62.5t94 148.5q14 86 -34.5 129
t-170.5 43z" />
    <glyph glyph-name="seven" unicode="7" horiz-adv-x="1212" 
d="M100 0q21 120 71.5 247.5t114.5 234t137 208t141.5 178.5t124.5 136t90 90l34 30l-805 -28l62 348h1243l-60 -334q-13 -12 -36 -34.5t-90 -94.5t-129.5 -145.5t-142 -180.5t-141 -209t-112.5 -221t-70 -225h-432z" />
    <glyph glyph-name="eight" unicode="8" horiz-adv-x="1548" 
d="M674 -27q-202 0 -340.5 35t-208.5 101t-91.5 149t-2.5 191q12 65 46 122.5t77 96t90.5 67t85.5 42t63 14.5q-12 2 -36 15t-55.5 41t-58 63t-39.5 88t-3 110q12 67 39.5 121.5t79.5 104t127 83t187.5 53t254.5 19.5q107 0 195.5 -11.5t152.5 -33t113 -52.5t77.5 -68.5
t45.5 -81.5t17.5 -92.5t-7.5 -100.5q-12 -61 -51 -113.5t-87 -82.5t-89 -47t-66 -20q18 -3 48.5 -19.5t68 -51t67.5 -79t44.5 -110t2.5 -137.5q-14 -78 -44 -139t-87 -114t-138.5 -88t-202 -55t-275.5 -20zM874 1223q-107 0 -177 -58t-89 -155q-9 -51 37.5 -90t153.5 -39
q102 0 176 60t86 128q14 77 -28.5 115.5t-158.5 38.5zM778 668q-115 0 -193.5 -70.5t-95.5 -157.5q-12 -74 33 -119t168 -45q120 0 196.5 65.5t92.5 158.5q12 67 -35 117.5t-166 50.5z" />
    <glyph glyph-name="nine" unicode="9" horiz-adv-x="1566" 
d="M1462 766q-40 -229 -98.5 -377t-156 -245t-234 -137t-336.5 -40q-98 0 -182 11.5t-145.5 32t-112.5 48.5t-83 61t-56.5 70.5t-33 76t-12 77t5.5 74.5h416q-3 -19 4 -40t27 -43.5t65.5 -37t110.5 -14.5q121 0 200 65.5t138 235.5q-157 -86 -332 -86q-119 0 -212.5 19
t-153.5 53.5t-101.5 82.5t-56.5 106t-18.5 124t12.5 137q11 67 41.5 130t90.5 125.5t141.5 108.5t203 75t266.5 30q162 1 280 -30t191 -91t111.5 -148t41 -201.5t-21.5 -252.5zM743 762q170 0 308 115q19 153 -26 223.5t-169 70.5q-118 0 -205.5 -68.5t-99.5 -141.5
q-19 -99 31 -149t161 -50z" />
    <glyph glyph-name="colon" unicode=":" horiz-adv-x="882" 
d="M238 788l57 328h420l-58 -328h-419zM102 31l62 344h422l-62 -344h-422z" />
    <glyph glyph-name="semicolon" unicode=";" horiz-adv-x="823" 
d="M172 758l57 327h420l-57 -327h-420zM-141 -311q88 164 174 381q36 91 59 159.5t28 91.5l5 23h383q-3 -16 -11 -45t-44 -124t-86 -195q-51 -102 -102.5 -174.5t-76.5 -94.5l-26 -22h-303z" />
    <glyph glyph-name="less" unicode="&#x3c;" horiz-adv-x="1398" 
d="M1081 264l-979 266l56 322l1073 266l-51 -293l-758 -133l711 -135z" />
    <glyph glyph-name="equal" unicode="=" horiz-adv-x="1435" 
d="M174 711l45 245h1086l-43 -245h-1088zM106 326l44 243h1085l-41 -243h-1088z" />
    <glyph glyph-name="greater" unicode="&#x3e;" horiz-adv-x="1368" 
d="M123 262l51 293l752 133l-705 135l49 293l981 -266l-55 -322z" />
    <glyph glyph-name="question" unicode="?" horiz-adv-x="1386" 
d="M793 375h-420l10 59q13 76 45 137t73 101t88 74t93 63.5t85.5 60.5t68.5 74t38 96q10 64 -25 104t-126 40q-97 0 -163.5 -57.5t-84.5 -163.5h-395q18 102 48.5 185.5t83.5 157.5t124.5 124t175 79t231.5 29q118 0 213.5 -19t160.5 -53.5t111.5 -82.5t67 -106t26.5 -124
t-9 -137q-12 -72 -43 -129.5t-71 -95t-87 -69t-94.5 -61.5t-89.5 -63t-76 -82t-51 -110zM305 0l53 301h418l-53 -301h-418z" />
    <glyph glyph-name="at" unicode="@" horiz-adv-x="2074" 
d="M1735 600q31 159 13 283.5t-85 209.5t-197.5 130t-324.5 45q-155 0 -285 -34t-226.5 -96t-169.5 -151.5t-118 -196.5t-68 -235q-13 -75 -16 -143t7.5 -137t35.5 -126t71 -107t110 -84.5t156.5 -54.5t207.5 -20q135 0 272.5 19.5t220.5 52.5l-14 -227q-174 -52 -465 -52
q-149 0 -272 25t-213 71t-157.5 111.5t-107.5 145t-59.5 174.5t-18.5 197t21 214q25 140 78 264t142.5 234.5t208.5 190t284 126t360 46.5q151 0 276.5 -24.5t217.5 -70t163 -109.5t112 -142t64.5 -168.5t21 -189t-18.5 -202.5q-24 -139 -60 -233.5t-94 -161t-141 -97
t-199 -30.5q-223 0 -294 146q-123 -107 -334 -107q-216 0 -299 136.5t-41 373.5q78 453 461 453q168 0 288 -107l39 100h250l-111 -643q-15 -85 7.5 -122.5t89.5 -38.5q49 0 84 26t68.5 108t58.5 228zM913 328q167 0 238 102l51 303q-53 72 -184 72q-90 0 -155 -68.5
t-85 -181.5q-40 -227 135 -227z" />
    <glyph glyph-name="A" unicode="A" horiz-adv-x="1665" 
d="M-145 0l847 1493h515l321 -1493h-455l-34 219h-621l-111 -219h-462zM588 528h411l-98 613z" />
    <glyph glyph-name="B" unicode="B" horiz-adv-x="1619" 
d="M287 1493h618q280 0 431 -45t199.5 -136.5t20.5 -248.5q-20 -110 -82.5 -187.5t-183.5 -121.5q129 -50 172 -142t21 -221q-14 -81 -34 -135t-58.5 -101t-93.5 -74.5t-143.5 -47.5t-204.5 -27.5t-279 -7.5h-647zM657 1192l-51 -295h236q150 0 219 34t84 120
q15 83 -43.5 112t-231.5 29h-213zM557 621l-55 -322h186q205 0 289 33.5t102 134.5q15 86 -41.5 120t-216.5 34h-264z" />
    <glyph glyph-name="C" unicode="C" horiz-adv-x="1691" 
d="M1552 612q-34 -184 -101 -312t-169.5 -203.5t-230.5 -108.5t-299 -33q-392 0 -550.5 200t-84.5 621q68 400 276.5 581t583.5 181q114 0 206.5 -14.5t171 -47t131.5 -83.5t87.5 -124t39 -168.5t-13.5 -217.5l-413 2q23 161 -35 226t-203 65q-159 0 -262.5 -100.5
t-144.5 -301.5q-49 -234 5.5 -346.5t233.5 -112.5q75 0 128 12.5t99.5 45t78 92t51.5 149.5z" />
    <glyph glyph-name="D" unicode="D" horiz-adv-x="1728" 
d="M287 1493h555q225 0 379 -32t243 -94.5t130 -156.5t40 -217.5t-28 -277.5q-20 -111 -43 -192.5t-60 -160t-88 -133t-124 -101t-170 -73.5t-225 -42t-290 -15h-583zM655 1133l-137 -781h205q149 -1 236.5 36.5t137 125t77.5 250.5q13 75 15 129.5t-8 96.5t-31.5 68.5
t-59 43.5t-86 24t-117.5 7h-232z" />
    <glyph glyph-name="E" unicode="E" horiz-adv-x="1441" 
d="M23 0l262 1493h1192l-62 -342h-766l-41 -242h645l-53 -309h-647l-45 -260h784l-61 -340h-1208z" />
    <glyph glyph-name="F" unicode="F" horiz-adv-x="1363" 
d="M23 0l262 1493h1159l-60 -342h-733l-53 -297h614l-55 -319h-614l-94 -535h-426z" />
    <glyph glyph-name="G" unicode="G" horiz-adv-x="1681" 
d="M1462 203q-1 -2 -14 -15t-43.5 -35.5t-70.5 -48t-101 -52t-130 -48t-161.5 -35.5t-191.5 -14q-393 -2 -550 198t-83 621q70 402 277 583t581 181q354 0 509 -150t103 -454l-397 2q14 124 -51.5 182t-192.5 58q-156 0 -260 -100.5t-145 -301.5q-49 -237 9.5 -356
t244.5 -119q68 0 130.5 13t101.5 31.5t62 36t25 28.5l21 118h-271l45 258h654z" />
    <glyph glyph-name="H" unicode="H" horiz-adv-x="1722" 
d="M23 0l262 1493h426l-97 -543h553l97 543h426l-263 -1493h-426l101 571h-553l-100 -571h-426z" />
    <glyph glyph-name="I" unicode="I" horiz-adv-x="743" 
d="M23 0l262 1493h426l-262 -1493h-426z" />
    <glyph glyph-name="J" unicode="J" horiz-adv-x="1040" 
d="M893 659q-24 -137 -45.5 -220t-60.5 -166.5t-92 -127.5t-139 -81t-202.5 -50.5t-281.5 -13.5h-158l63 369h134q170 0 249.5 70.5t110.5 250.5l143 803h424z" />
    <glyph glyph-name="K" unicode="K" horiz-adv-x="1654" 
d="M23 0l262 1493h426l-129 -735l706 735h475l-635 -619l373 -874h-444l-246 565l-317 -311l-45 -254h-426z" />
    <glyph glyph-name="L" unicode="L" horiz-adv-x="1230" 
d="M23 0l262 1493h426l-197 -1118h649l-67 -375h-1073z" />
    <glyph glyph-name="M" unicode="M" horiz-adv-x="2351" 
d="M23 0l262 1493h667l140 -1151l538 1151h688l-264 -1493h-424l244 1157l-619 -1157h-450l-195 1188l-166 -1188h-421z" />
    <glyph glyph-name="N" unicode="N" horiz-adv-x="1822" 
d="M594 1016l-158 -1016h-413l268 1493h485l451 -993l153 993h410l-262 -1493h-486z" />
    <glyph glyph-name="O" unicode="O" horiz-adv-x="1738" 
d="M1622 717q-71 -402 -279.5 -582t-586.5 -180q-395 0 -554 200t-85 621q70 401 278.5 581.5t587.5 180.5q394 0 553 -200t86 -621zM541 774q-49 -234 6.5 -346.5t236.5 -112.5q171 0 272 98.5t142 303.5q47 235 -9 348t-237 113q-326 0 -411 -404z" />
    <glyph glyph-name="P" unicode="P" horiz-adv-x="1632" 
d="M23 0l264 1493h557q123 0 220.5 -6.5t180.5 -21t143.5 -37.5t106.5 -57t74 -77.5t41.5 -100.5t12 -126t-16.5 -154q-19 -107 -49.5 -184t-82 -136.5t-119 -96.5t-168.5 -60.5t-222 -33t-287 -9.5h-162l-67 -393h-426zM651 1159l-73 -424h190q78 0 129 4t103.5 17t85 37
t56.5 65t34 100q11 65 -1.5 105.5t-55.5 61t-99.5 27.5t-151.5 7h-217z" />
    <glyph glyph-name="Q" unicode="Q" horiz-adv-x="1738" 
d="M1622 717q-78 -446 -332 -623l183 -188l-291 -221l-230 284q-85 -14 -196 -14q-395 0 -554 200t-85 621q70 401 278.5 581.5t587.5 180.5q394 0 553 -200t86 -621zM541 776q-49 -235 6.5 -348t236.5 -113q171 0 272 98.5t142 303.5q47 235 -8.5 347t-237.5 112
q-327 0 -411 -400z" />
    <glyph glyph-name="R" unicode="R" horiz-adv-x="1687" 
d="M23 0l264 1493h678q103 0 186 -6t154.5 -20t124.5 -36.5t94.5 -55.5t67 -76.5t38 -99.5t11 -125t-16.5 -154q-34 -194 -112.5 -300t-225.5 -153l174 -467h-448l-125 416h-367l-71 -416h-426zM649 1151l-67 -395h206q79 0 132.5 4t104.5 16.5t83 35.5t55 61t33 92
q4 25 4.5 45t-3.5 37t-11 30.5t-19 24t-26.5 18t-35 13t-42.5 9t-52 5.5t-59.5 3t-68.5 1h-234z" />
    <glyph glyph-name="S" unicode="S" horiz-adv-x="1617" 
d="M1458 422q-41 -241 -232 -355t-534 -112q-348 2 -513.5 144.5t-117.5 426.5h408q-21 -123 47.5 -178t220.5 -57q78 -1 138.5 12t105.5 49t55 94q7 42 -21 70t-82 44t-125.5 28t-150.5 25t-157 30.5t-145.5 50t-115.5 78.5t-67.5 121t-1.5 172q88 476 741 473
q366 0 514.5 -140t100.5 -413h-402q9 46 2.5 85t-28 67t-74 44t-135.5 17q-141 1 -214.5 -42.5t-84.5 -121.5q-8 -42 20.5 -70.5t82 -44.5t125 -27.5t150.5 -24t157 -29t145.5 -48.5t116 -77.5t68.5 -119.5t3 -171z" />
    <glyph glyph-name="T" unicode="T" horiz-adv-x="1323" 
d="M319 0l199 1118h-481l65 375h1375l-68 -375h-467l-199 -1118h-424z" />
    <glyph glyph-name="U" unicode="U" horiz-adv-x="1640" 
d="M1509 758q-19 -107 -38 -188.5t-46 -162t-59.5 -139t-77 -112t-100.5 -89t-128 -62t-161.5 -38.5t-198.5 -12q-128 0 -226 18.5t-167 52.5t-114 89.5t-68.5 120.5t-28 155t4 184.5t30.5 215.5l123 702h424l-121 -700q-33 -173 -27 -275t52.5 -143t152.5 -41
q149 0 227.5 102.5t122.5 354.5l123 702h430z" />
    <glyph glyph-name="V" unicode="V" horiz-adv-x="1581" 
d="M111 1493h473l131 -1116l528 1116h475l-788 -1493h-555z" />
    <glyph glyph-name="W" unicode="W" horiz-adv-x="2531" 
d="M1329 1108l-407 -1108h-617l-180 1493h504l41 -1149l442 1149h580l30 -1145l467 1145h480l-721 -1493h-613z" />
    <glyph glyph-name="X" unicode="X" horiz-adv-x="1658" 
d="M770 451l-385 -451h-506l643 745l-356 748h459l237 -475l404 475h503l-663 -760l346 -733h-461z" />
    <glyph glyph-name="Y" unicode="Y" horiz-adv-x="1501" 
d="M393 0l72 408l-365 1085h465l170 -702l400 702h507l-755 -1092h-4l-70 -401h-420z" />
    <glyph glyph-name="Z" unicode="Z" horiz-adv-x="1472" 
d="M-59 4l32 176l27 182l860 768h-694l61 357h1274l-22 -119h2l-39 -238l-871 -768h752l-63 -358h-1319z" />
    <glyph glyph-name="bracketleft" unicode="[" horiz-adv-x="1433" 
d="M242 -408l346 1964h772l-57 -315h-404l-235 -1335h405l-55 -314h-772z" />
    <glyph glyph-name="backslash" unicode="\" horiz-adv-x="905" 
d="M827 -82h-360l-393 1741h358z" />
    <glyph glyph-name="bracketright" unicode="]" horiz-adv-x="1271" 
d="M754 -408h-772l57 314h403l236 1335h-406l56 315h772z" />
    <glyph glyph-name="asciicircum" unicode="^" horiz-adv-x="1122" 
d="M991 930h-276l-97 368l-229 -368h-293l424 616h266z" />
    <glyph glyph-name="underscore" unicode="_" horiz-adv-x="1482" 
d="M201 0l53 297h1028l-53 -297h-1028z" />
    <glyph glyph-name="grave" unicode="`" horiz-adv-x="1056" 
d="M668 1278h-324l-205 393h375z" />
    <glyph glyph-name="a" unicode="a" horiz-adv-x="1501" 
d="M903 0l-18 76q-176 -113 -389 -113q-247 0 -360.5 97t-78.5 292q16 99 63.5 168t123 106.5t163.5 53.5t203 16q211 0 348 -18l3 4q15 76 11 122.5t-43 66.5t-132 20q-115 0 -175 -40t-69 -91l-360 2q5 29 12.5 56.5t26.5 68t46 74.5t73 70.5t103.5 62t143 41.5t186.5 16
q133 0 233 -17t166.5 -44.5t108 -76t61 -97t22 -122t-4.5 -137t-24 -155.5l-35 -185l-33 -317h-375zM625 236q144 0 272 86l29 159q-65 6 -162 6q-132 0 -200 -30.5t-81 -102.5q-11 -60 22.5 -89t119.5 -29z" />
    <glyph glyph-name="b" unicode="b" horiz-adv-x="1529" 
d="M29 0l82 334l219 1233h415l-88 -500q159 86 342 86q270 0 374 -162t52 -463q-48 -276 -188 -415.5t-387 -139.5q-280 0 -397 170l-66 -143h-358zM844 842q-121 0 -242 -99l-65 -378q67 -84 198 -84q106 0 177.5 68t95.5 206q26 152 -11.5 219.5t-152.5 67.5z" />
    <glyph glyph-name="c" unicode="c" horiz-adv-x="1482" 
d="M1354 438q-29 -117 -77 -201t-127.5 -147.5t-199 -95t-280.5 -31.5q-352 0 -486.5 161.5t-81.5 467.5q25 140 77 242.5t138 177t213.5 112t298.5 37.5q325 0 459.5 -128t102.5 -371h-404q13 105 -29.5 145.5t-142.5 40.5q-120 0 -190 -66t-99 -215q-28 -151 11 -221
t155 -70q100 0 164.5 36.5t87.5 125.5h410z" />
    <glyph glyph-name="d" unicode="d" horiz-adv-x="1546" 
d="M954 0l-14 135q-153 -162 -412 -162q-268 0 -371 158.5t-51 456.5q49 279 190 422t392 143q218 0 361 -119l94 533h416l-218 -1233l-34 -334h-353zM698 281q130 0 240 114l66 373q-70 74 -181 74q-123 0 -199.5 -71.5t-101.5 -205.5q-26 -151 14 -217.5t162 -66.5z" />
    <glyph glyph-name="e" unicode="e" horiz-adv-x="1497" 
d="M1358 369q-102 -406 -678 -406q-689 0 -576 629q51 285 224.5 428t509.5 143q342 0 474 -161.5t70 -520.5h-870q-15 -134 29 -188.5t153 -54.5q113 0 178 38.5t80 92.5h406zM827 909q-101 0 -164 -47.5t-102 -156.5h438q3 122 -36.5 163t-135.5 41z" />
    <glyph glyph-name="f" unicode="f" horiz-adv-x="931" 
d="M1059 1583l-58 -321h-63q-97 0 -159.5 -51t-76.5 -136l-6 -35h269l-47 -274h-271l-135 -766h-416l135 766h-163l47 274h164l24 136q11 63 33.5 118.5t64.5 110t99 93.5t142 63t189 24z" />
    <glyph glyph-name="g" unicode="g" horiz-adv-x="1628" 
d="M1343 -23q-21 -122 -36 -167q-64 -192 -267 -270q-155 -60 -395 -60q-105 0 -191 14.5t-142.5 39t-99.5 56t-65.5 66.5t-37.5 70t-17.5 66.5t-3 56t2.5 39.5l3 14h416q0 -2 -2.5 -13t-3.5 -17.5t-1.5 -19.5t1 -21.5t5.5 -21t11 -20.5t18.5 -17.5t27 -15t38 -9t49.5 -3.5
q63 0 109.5 14t74.5 35.5t48 58.5t29 70.5t18 83.5l12 76q-145 -109 -350 -109q-268 0 -371 158.5t-51 456.5q48 279 189.5 422t390.5 143q86 0 160.5 -18t122.5 -47t73.5 -50t42.5 -41l59 129h359l-82 -331zM764 281q125 0 233 108l66 383q-74 70 -193 70
q-110 0 -183.5 -72.5t-98.5 -204.5q-27 -151 13 -217.5t163 -66.5z" />
    <glyph glyph-name="h" unicode="h" horiz-adv-x="1550" 
d="M53 0l277 1567h418l-99 -551q189 127 400 127q248 0 331.5 -134t30.5 -421l-104 -588h-416l106 610q15 83 -13.5 126.5t-123.5 43.5q-143 0 -272 -114l-117 -666h-418z" />
    <glyph glyph-name="i" unicode="i" horiz-adv-x="720" 
d="M279 1282l57 332h420l-60 -332h-417zM51 0l199 1126h418l-199 -1126h-418z" />
    <glyph glyph-name="j" unicode="j" horiz-adv-x="755" 
d="M301 1282l57 332h420l-59 -332h-418zM524 176q-35 -200 -66 -284q-63 -175 -209 -259q-175 -100 -513 -100l35 356q67 0 118 9t85.5 30.5t57.5 45t39 64.5t24 75.5t18 91.5l163 921h416z" />
    <glyph glyph-name="k" unicode="k" horiz-adv-x="1427" 
d="M53 0l277 1567h403l-158 -889l439 448h454l-483 -450l315 -676h-456l-154 401l-196 -184l-39 -217h-402z" />
    <glyph glyph-name="l" unicode="l" horiz-adv-x="724" 
d="M53 0l279 1567h416l-279 -1567h-416z" />
    <glyph glyph-name="m" unicode="m" horiz-adv-x="2289" 
d="M53 0l146 817l30 309h353l12 -131q68 57 171.5 102.5t229.5 45.5q267 0 344 -176q16 18 53 44t95 57.5t140 53t165 21.5q236 0 323.5 -136t34.5 -421l-104 -586h-397l108 608q13 85 -14 128.5t-119 43.5q-138 0 -256 -100q-6 -61 -18 -127l-101 -553h-379l101 575
q20 111 -6 158t-119 47q-136 0 -258 -104l-117 -676h-418z" />
    <glyph glyph-name="n" unicode="n" horiz-adv-x="1540" 
d="M53 0l146 817l30 309h353l12 -147q40 33 93.5 65.5t154 65.5t200.5 33q249 0 329.5 -138.5t27.5 -451.5l-99 -553h-415l100 575q18 107 -9 156t-122 49q-146 0 -268 -108l-115 -672h-418z" />
    <glyph glyph-name="o" unicode="o" horiz-adv-x="1515" 
d="M1413 532q-25 -141 -77 -244t-138.5 -177.5t-215.5 -111t-302 -36.5q-183 0 -309 43t-192 124t-85.5 198t10.5 264q24 141 75.5 244.5t138.5 178t216.5 111.5t303.5 37q360 1 495 -161t80 -470zM526 567q-32 -163 7 -227t163 -64q126 0 195 64.5t98 216.5
q32 164 -7 228.5t-163 64.5q-125 0 -194.5 -65.5t-98.5 -217.5z" />
    <glyph glyph-name="p" unicode="p" horiz-adv-x="1509" 
d="M-59 -518l231 1313l35 331h352l10 -104q21 17 52.5 35t83.5 42t125 39t151 15q270 0 373 -162t51 -463q-48 -276 -188 -415.5t-388 -139.5q-241 0 -364 127l-107 -618h-417zM823 842q-130 0 -248 -105l-65 -368q71 -88 205 -88q105 0 178.5 72.5t95.5 201.5
q25 152 -13 219.5t-153 67.5z" />
    <glyph glyph-name="q" unicode="q" horiz-adv-x="1529" 
d="M776 -518l105 600q-145 -109 -353 -109q-268 0 -371 158.5t-51 456.5q49 279 190 422t392 143q84 0 157 -17.5t121.5 -46t75.5 -49t45 -41.5l60 127h358l-82 -323l-231 -1321h-416zM682 281q136 0 252 112l65 377q-76 72 -194 72q-110 0 -184 -72.5t-99 -204.5
q-26 -149 12 -216.5t148 -67.5z" />
    <glyph glyph-name="r" unicode="r" horiz-adv-x="1052" 
d="M53 0l140 786l36 340h355l12 -194q14 27 32.5 52t59 58.5t90.5 58t130.5 41.5t176.5 17l-36 -362q-86 0 -162 -18t-125.5 -43t-92 -60t-63 -59.5t-37.5 -49.5l-98 -567h-418z" />
    <glyph glyph-name="s" unicode="s" horiz-adv-x="1419" 
d="M1294 315q-30 -179 -186.5 -266t-486.5 -86q-314 1 -465.5 117t-114.5 317l391 -2q-12 -69 36.5 -116t176.5 -48q112 -1 171 30t69 85q9 45 -32 69.5t-112.5 33.5t-159 16t-173 25t-153.5 51t-102.5 103t-17.5 173q55 349 647 346q311 -1 451 -103.5t106 -299.5l-383 2
q7 22 0 46.5t-23 45.5t-60 34.5t-109 14.5q-116 1 -168.5 -35t-58.5 -80q-6 -35 26.5 -56.5t90 -29t131.5 -16t151.5 -16.5t149 -32t124 -60t76.5 -103.5t8 -159.5z" />
    <glyph glyph-name="t" unicode="t" horiz-adv-x="899" 
d="M748 0h-109q-111 0 -195.5 14.5t-141.5 39t-93.5 65.5t-54.5 84.5t-22 105.5t1.5 120t18.5 136l49 285h-162l49 276h162l53 297l428 62l-63 -359h272l-49 -276h-273l-51 -299q-22 -122 5 -166.5t133 -44.5h104z" />
    <glyph glyph-name="u" unicode="u" horiz-adv-x="1550" 
d="M952 0l-16 160q-27 -25 -65 -51t-95.5 -57t-132.5 -50.5t-151 -19.5q-249 0 -335 135t-34 422l106 585h416l-108 -610q-14 -91 13 -130.5t114 -39.5q84 0 157 38.5t125 88.5l115 655h418l-144 -813l-30 -313h-353z" />
    <glyph glyph-name="v" unicode="v" horiz-adv-x="1376" 
d="M74 1126h458l103 -751l362 751h467l-635 -1126h-510z" />
    <glyph glyph-name="w" unicode="w" horiz-adv-x="2119" 
d="M1071 688l-285 -688h-503l-185 1126h455l49 -774l332 774h450l62 -764l305 764h463l-547 -1126h-532z" />
    <glyph glyph-name="x" unicode="x" horiz-adv-x="1507" 
d="M692 309l-274 -309h-477l546 578l-342 548h457l184 -335l301 335h476l-574 -600l328 -526h-459z" />
    <glyph glyph-name="y" unicode="y" horiz-adv-x="1390" 
d="M233 -483l236 483h-166l-237 1126h448l127 -778l381 778h459l-844 -1609h-404z" />
    <glyph glyph-name="z" unicode="z" horiz-adv-x="1249" 
d="M-25 0l33 182l19 127l655 512h-539l56 305h1069l-33 -186l-16 -117l-656 -514h561l-55 -309h-1094z" />
    <glyph glyph-name="braceleft" unicode="{" horiz-adv-x="1222" 
d="M465 1137q11 62 21.5 107.5t27 87t32 69.5t44 53t54.5 40t72.5 27.5t89.5 18.5t113 10t135.5 5t164.5 1l-25 -296q-95 0 -152 -11t-101 -43.5t-67.5 -88.5t-39.5 -150l-33 -181q-8 -49 -32 -88.5t-52.5 -62t-57.5 -36.5t-49 -18.5t-24 -2.5q-3 -1 12 -12.5t39 -33.5
t46.5 -50.5t34.5 -73t3 -93.5l-35 -196q-11 -59 -14 -97t5 -67t21.5 -43.5t48 -23.5t72 -11t103.5 -2l-25 -297q-156 0 -259 7t-182.5 28t-120.5 52t-62 86.5t-19 124t20 171.5l50 283q7 24 4 41.5t-9 28.5t-28.5 17t-55 8.5t-88.5 2.5l23 281q127 0 179 30.5t63 96.5z" />
    <glyph glyph-name="bar" unicode="|" horiz-adv-x="757" 
d="M8 -358l365 2058h286l-364 -2058h-287z" />
    <glyph glyph-name="braceright" unicode="}" horiz-adv-x="1204" 
d="M739 -2q-11 -62 -21.5 -107.5t-27 -87t-32 -69.5t-43.5 -53.5t-54.5 -40.5t-72.5 -27.5t-89 -18.5t-113 -10t-135.5 -5t-164.5 -1l26 297q76 0 125.5 7t90 25t66.5 52t44.5 83.5t32.5 125.5l32 180q10 49 34.5 88.5t53 62t56.5 36.5t47.5 18.5t23.5 1.5q3 2 -12 13.5
t-39 33.5t-46.5 51t-34.5 73t-3 93l35 197q11 60 14.5 97.5t-4.5 66.5t-21.5 43.5t-47.5 23.5t-71.5 11t-104.5 2l24 296q156 0 259 -7t183 -28t121 -52t62 -86.5t18.5 -124t-20.5 -171.5l-49 -282q-3 -31 -3.5 -50t19.5 -29.5t55.5 -14.5t104.5 -4l-23 -279
q-127 0 -179.5 -31.5t-63.5 -97.5z" />
    <glyph glyph-name="asciitilde" unicode="~" horiz-adv-x="1449" 
d="M66 465q14 78 33.5 137t52 112t76.5 86t109 52.5t148 19.5q77 0 142.5 -18t103.5 -39t92 -39t111 -18q90 0 149 48t64 83l207 -33q-18 -99 -45 -168.5t-74.5 -126t-122.5 -84.5t-180 -28q-76 0 -141 18t-103 39t-92.5 39t-112.5 18q-88 0 -146 -47.5t-65 -83.5z" />
    <glyph glyph-name="exclamdown" unicode="&#xa1;" horiz-adv-x="663" 
d="M117 799l59 327h418l-59 -327h-418zM-88 -358l225 1075h350l-157 -1075h-418z" />
    <glyph glyph-name="cent" unicode="&#xa2;" horiz-adv-x="1482" 
d="M481 -41l27 162q-259 34 -355.5 191t-50.5 425q46 259 192 401.5t423 166.5l26 149h263l-27 -154q468 -55 412 -493h-402q11 114 -31 155.5t-143 41.5q-120 0 -190 -66t-99 -215q-28 -152 11 -221.5t155 -69.5q105 0 167.5 35t84.5 119h410q-52 -219 -187 -336.5
t-397 -136.5l-27 -154h-262z" />
    <glyph glyph-name="sterling" unicode="&#xa3;" horiz-adv-x="1492" 
d="M748 473q-25 -117 -125 -184l704 20l-55 -317h-1256l52 282q8 3 22 9t51 26.5t68 42t63.5 55t46.5 66.5h-251l41 227h208q-8 26 -22.5 56.5t-25.5 53t-24 54.5t-18 60t-7.5 69.5t7.5 83.5q12 70 56 133.5t121 118.5t204 88t287 33q106 0 193 -14t149 -39t107.5 -61.5
t72.5 -79.5t40 -96t12.5 -108t-11.5 -118h-405q9 76 -32 121t-134 45q-92 0 -160 -48t-78 -104q-7 -40 6.5 -77.5t42 -86.5t41.5 -84h359l-41 -227h-309z" />
    <glyph glyph-name="currency" unicode="&#xa4;" horiz-adv-x="1812" 
d="M1554 969q46 -139 13 -336q-28 -160 -99 -281l121 -137l-254 -223l-123 141q-156 -67 -383 -67q-242 0 -380 75l-168 -149l-193 221l170 149q-47 137 -10 328q30 165 100 281l-119 137l252 221l119 -137q154 71 389 74q235 0 377 -74l168 147l192 -221zM655 649
q-4 -35 -5 -68.5t12 -64t35 -53t63 -36t96 -13.5q127 0 206 73.5t99 186.5q4 35 4.5 69.5t-12 66t-34.5 55.5t-62 38.5t-94 14.5q-128 0 -208 -77.5t-100 -191.5z" />
    <glyph glyph-name="yen" unicode="&#xa5;" horiz-adv-x="1466" 
d="M387 0l47 264h-268l35 201h268l18 98h-268l35 201h199l-353 688h463l180 -549l359 549h506l-604 -688h186l-35 -201h-264l-19 -98h267l-35 -201h-266l-47 -264h-404z" />
    <glyph glyph-name="brokenbar" unicode="&#xa6;" horiz-adv-x="759" 
d="M219 819l156 879h287l-156 -879h-287zM451 512l-156 -881h-287l156 881h287z" />
    <glyph glyph-name="section" unicode="&#xa7;" horiz-adv-x="1458" 
d="M1323 786q-24 -140 -164 -223q103 -93 72 -268q-30 -176 -179.5 -262t-465.5 -86q-328 0 -454 102.5t-87 319.5h365q-18 -102 26.5 -140.5t151.5 -38.5q229 0 250 119q7 40 -16 67t-66.5 41t-102 23t-123 19t-128.5 23t-119 39.5t-94.5 65t-56 102.5t-1.5 149
q23 137 174 217q-115 93 -82 274q29 162 176 244t439 82q316 0 444 -97t94 -294h-366q15 83 -19.5 114t-152.5 31q-105 0 -161.5 -33.5t-64.5 -87.5q-7 -36 16.5 -59t67.5 -34t103 -17.5t123.5 -14.5t129 -19.5t120 -37.5t95 -64.5t55.5 -103.5t1 -152zM518 780
q-4 -21 2.5 -37t24.5 -27t38 -18t54.5 -12.5t62 -8.5t71.5 -7q29 -3 44 -4q101 67 115 153q5 32 -8.5 53.5t-59.5 36t-74 20t-106 16.5q-22 3 -33 5q-116 -80 -131 -170z" />
    <glyph glyph-name="dieresis" unicode="&#xa8;" horiz-adv-x="1259" 
d="M143 1272l60 342h385l-62 -342h-383zM682 1272l59 342h385l-61 -342h-383z" />
    <glyph glyph-name="copyright" unicode="&#xa9;" horiz-adv-x="1951" 
d="M1849 682q-13 -120 -53 -229t-117 -209.5t-184.5 -173.5t-264 -116.5t-345.5 -43.5q-123 0 -227.5 18.5t-183.5 53t-143 82.5t-106 106.5t-73 126t-43 140t-17 149.5t6 155q12 119 53 229.5t119.5 213t186.5 177.5t264 120t342 45q124 0 230 -19.5t185 -54.5t143.5 -84
t105.5 -108.5t71.5 -128.5t42 -142.5t15.5 -151t-7 -155.5zM285 682q-9 -92 1.5 -174t49.5 -163t106.5 -139t181.5 -94t265 -36q116 0 216.5 20.5t176 56t137.5 85.5t105 108t73.5 125t46 133.5t21.5 136.5q7 93 -3.5 176t-49.5 166t-105.5 142.5t-181.5 97t-268 37.5
q-133 0 -245.5 -28t-193 -78t-142 -114.5t-100.5 -142.5t-61 -155t-30 -160zM1401 639q-40 -224 -157 -317t-322 -93q-244 0 -346 126t-56 390q42 244 168.5 351.5t351.5 107.5q460 0 392 -401h-267q9 87 -24 128.5t-109 41.5q-200 0 -244 -285q-19 -120 15 -173.5
t129 -53.5q171 0 207 178h262z" />
    <glyph glyph-name="ordfeminine" unicode="&#xaa;" horiz-adv-x="1056" 
d="M659 760l-12 47q-123 -74 -262 -74q-175 0 -257 71.5t-56 211.5q11 66 43 112t83.5 71t111.5 35.5t139 10.5q137 0 247 -12l2 14q13 74 -6.5 103.5t-101.5 29.5t-123 -28.5t-47 -63.5h-254q49 275 405 275q72 0 130.5 -7.5t101.5 -20t75 -34t53 -44t33.5 -55t17.5 -63.5
t3.5 -72.5t-6 -78t-12.5 -84.5l-23 -125l-22 -219h-263zM473 924q96 0 182 63l17 109q-29 2 -101 2q-102 0 -151 -24t-58 -75q-5 -36 21 -55.5t90 -19.5z" />
    <glyph glyph-name="guillemotleft" unicode="&#xab;" horiz-adv-x="1761" 
d="M354 154l-213 368l2 64l344 383h453l-401 -420l266 -395h-451zM979 154l-213 368l2 64l346 383h451l-402 -420l267 -395h-451z" />
    <glyph glyph-name="registered" unicode="&#xae;" horiz-adv-x="1951" 
d="M1849 682q-13 -120 -53 -229t-117 -209.5t-184.5 -173.5t-264 -116.5t-345.5 -43.5q-123 0 -227.5 18.5t-183.5 53t-143 82.5t-106 106.5t-73 126t-43 140t-17 149.5t6 155q12 119 53 229.5t119.5 213t186.5 177.5t264 120t342 45q124 0 230 -19.5t185 -54.5t143.5 -84
t105.5 -108.5t71.5 -128.5t42 -142.5t15.5 -151t-7 -155.5zM285 682q-9 -92 1.5 -174t49.5 -163t106.5 -139t181.5 -94t265 -36q116 0 216.5 20.5t176 56t137.5 85.5t105 108t73.5 125t46 133.5t21.5 136.5q7 93 -3.5 176t-49.5 166t-105.5 142.5t-181.5 97t-268 37.5
q-133 0 -245.5 -28t-193 -78t-142 -114.5t-100.5 -142.5t-61 -155t-30 -160zM487 270l160 906h418q235 0 324 -80t55 -281q-20 -115 -66.5 -176.5t-132.5 -89.5l92 -279h-276l-64 250h-200l-43 -250h-267zM874 963l-40 -232h122q101 0 157 25t67 92q12 65 -25 90t-131 25
h-150z" />
    <glyph glyph-name="macron" unicode="&#xaf;" horiz-adv-x="1255" 
d="M180 1563h770l-45 -246h-768z" />
    <glyph glyph-name="degree" unicode="&#xb0;" horiz-adv-x="790" 
d="M799 1176q-47 -269 -348 -269q-167 0 -245.5 84t-49.5 244q47 272 348 272q168 0 246 -84.5t49 -246.5zM369 1194q-14 -104 88 -104q59 0 91 35t38 94q3 16 0.5 34.5t-8.5 34.5t-26.5 26.5t-53.5 10.5q-56 0 -88.5 -36.5t-40.5 -94.5z" />
    <glyph glyph-name="plusminus" unicode="&#xb1;" horiz-adv-x="1411" 
d="M530 477l39 228h-374l43 245h374l41 226h281l-41 -226h379l-43 -245h-379l-39 -228h-281zM98 154l41 245h1035l-41 -245h-1035z" />
    <glyph glyph-name="uni00B2" unicode="&#xb2;" horiz-adv-x="1132" 
d="M39 557l45 250v2h4q31 22 361 213q16 10 48 28q62 36 91.5 54t76.5 48.5t70.5 51.5t51 49.5t41.5 57.5t20 61q5 21 0.5 42.5t-16 39t-41 28.5t-74.5 11q-79 0 -141.5 -54.5t-73.5 -103.5h-332q14 75 39 138.5t69.5 122.5t105 100t148.5 65.5t197 24.5q88 0 160.5 -13
t122.5 -36.5t87.5 -56t57 -70.5t31.5 -80t9.5 -86t-7.5 -88q-7 -39 -19.5 -75t-34 -70t-39.5 -60.5t-52 -58.5t-54.5 -51t-64 -51t-63 -45.5t-70 -47.5t-66.5 -45l-35 -18l395 16l-51 -293h-997z" />
    <glyph glyph-name="uni00B3" unicode="&#xb3;" horiz-adv-x="1169" 
d="M891 1284q154 -41 209.5 -138.5t29.5 -250.5q-10 -54 -31.5 -102.5t-65.5 -98t-104 -85t-153.5 -57.5t-208.5 -22q-88 0 -160 12.5t-122.5 35t-89 54t-59 69.5t-33 80.5t-10.5 88t9 91.5h334q-6 -22 -0.5 -48.5t18 -49t44 -37.5t77.5 -15q86 0 142.5 51.5t68.5 118.5
q12 63 -31.5 105t-156.5 42q-44 0 -84 -6t-58 -12l-18 -6l21 178l8 4l336 187l-572 -23l54 291h975l-46 -250z" />
    <glyph glyph-name="acute" unicode="&#xb4;" horiz-adv-x="1212" 
d="M119 1278l291 393h395l-346 -393h-340z" />
    <glyph glyph-name="paragraph" unicode="&#xb6;" horiz-adv-x="1705" 
d="M649 0l88 500q-121 3 -213 12.5t-169.5 28t-129 49t-88.5 73t-52.5 101.5t-15.5 133.5t17 169.5q19 107 48.5 184.5t78 135t109.5 93.5t153 58t198.5 30.5t254.5 8.5h782l-278 -1577h-287l223 1262h-209l-221 -1262h-289zM471 1028q-6 -32 -6 -56.5t6 -45.5t17 -36
t30.5 -27t44.5 -19.5t60.5 -12.5t77 -7.5t94.5 -2.5l77 439q-202 -6 -291 -56t-110 -176z" />
    <glyph glyph-name="periodcentered" unicode="&#xb7;" horiz-adv-x="755" 
d="M106 457l58 327h422l-60 -327h-420z" />
    <glyph glyph-name="cedilla" unicode="&#xb8;" horiz-adv-x="1181" 
d="M840 -377q-8 -52 -31.5 -88.5t-72.5 -65.5t-134 -43t-209 -14q-81 0 -145.5 8t-88.5 16l-24 7l15 158q0 -4 106 -4q87 0 138.5 34t62.5 93q6 40 -24 53.5t-97 15.5h-78l154 211h340l-107 -141q44 -4 81.5 -19t68 -42.5t43 -73.5t2.5 -105z" />
    <glyph glyph-name="uni00B9" unicode="&#xb9;" horiz-adv-x="720" 
d="M229 555l148 862l-227 -76l45 273l376 131h199l-211 -1190h-330z" />
    <glyph glyph-name="ordmasculine" unicode="&#xba;" horiz-adv-x="1050" 
d="M977 1120q-33 -198 -149 -293.5t-351 -95.5q-251 0 -346 115t-57 332q22 130 76.5 214t159.5 130.5t263 46.5q129 0 217.5 -31t134 -89t59 -141t-6.5 -188zM369 1153q-20 -103 4 -152t108 -49q87 0 136 44.5t67 148.5q18 106 -6 154.5t-109 48.5q-84 0 -133 -46t-67 -149
z" />
    <glyph glyph-name="guillemotright" unicode="&#xbb;" horiz-adv-x="1708" 
d="M561 154h-455l400 403l-260 412h432l227 -383l-2 -64zM1186 154h-453l397 401l-260 414h433l227 -383l-2 -64z" />
    <glyph glyph-name="onequarter" unicode="&#xbc;" horiz-adv-x="2629" 
d="M131 416l148 862l-228 -76l45 273l377 131h199l-211 -1190h-330zM274 -82l1371 1618h327l-1370 -1618h-328zM2005 0l31 178h-662l39 254l658 756h473l-136 -756h152l-45 -254h-152l-30 -178h-328zM2081 432l92 529l-426 -529h334z" />
    <glyph glyph-name="onehalf" unicode="&#xbd;" horiz-adv-x="2689" 
d="M131 416l148 862l-228 -76l45 273l377 131h199l-211 -1190h-330zM274 -82l1371 1618h327l-1370 -1618h-328zM1497 2l45 250v2h2q66 41 363 213q16 10 48 28q62 36 91.5 54t76.5 48.5t70.5 51.5t51 49.5t41.5 57.5t20 61q5 21 0.5 42.5t-16 39t-41 28.5t-74.5 11
q-79 0 -141.5 -54.5t-73.5 -103.5h-332q14 75 39 138.5t69.5 122.5t105 100t148.5 65.5t197 24.5q88 0 160.5 -13t122.5 -36.5t87.5 -56t57 -70.5t31.5 -80t9.5 -86t-7.5 -88q-7 -39 -19.5 -75t-34 -70t-39.5 -60.5t-52 -58.5t-54.5 -51t-64 -51t-63 -45.5t-70 -47.5
t-66.5 -45l-35 -18l396 16l-52 -293h-997z" />
    <glyph glyph-name="threequarters" unicode="&#xbe;" horiz-adv-x="3022" 
d="M793 1145q154 -41 209.5 -138.5t29.5 -250.5q-10 -54 -31.5 -102.5t-65.5 -98t-104 -85t-153.5 -57.5t-208.5 -22q-88 0 -160 12.5t-122.5 35t-89 54t-59 69t-33 80t-10.5 88t9 91.5h334q-6 -22 -0.5 -48t18 -48.5t44 -37.5t77.5 -15q86 0 142.5 51.5t68.5 118.5
q12 63 -31.5 105t-156.5 42q-44 0 -84 -6t-58 -12l-18 -6l20 178l9 4l336 186l-572 -22l53 291h975l-45 -250zM668 -82l1370 1618h327l-1370 -1618h-327zM2398 0l31 178h-662l39 254l658 756h473l-135 -756h151l-45 -254h-151l-31 -178h-328zM2474 432l92 529l-426 -529h334
z" />
    <glyph glyph-name="questiondown" unicode="&#xbf;" horiz-adv-x="1280" 
d="M928 1126l-54 -301h-415l53 301h416zM440 752h420l-10 -60q-13 -76 -45 -137t-73 -101t-88 -73.5t-93 -63t-85.5 -60.5t-68.5 -74.5t-39 -96.5q-10 -64 25.5 -103.5t126.5 -39.5q94 0 161.5 62t86.5 159h397q-23 -135 -68 -236t-122 -179t-196.5 -118.5t-279.5 -40.5
q-175 0 -298 41t-186 114t-83.5 164.5t-1.5 201.5q13 72 44 129.5t71.5 95t87.5 69.5t94.5 62t89.5 63t76 82t51 111z" />
    <glyph glyph-name="Agrave" unicode="&#xc0;" horiz-adv-x="1665" 
d="M1153 1595h-356l-219 322h409zM-145 0l847 1493h515l321 -1493h-455l-34 219h-621l-111 -219h-462zM588 528h411l-98 613z" />
    <glyph glyph-name="Aacute" unicode="&#xc1;" horiz-adv-x="1665" 
d="M786 1591l281 322h428l-330 -322h-379zM-145 0l847 1493h515l321 -1493h-455l-34 219h-621l-111 -219h-462zM588 528h411l-98 613z" />
    <glyph glyph-name="Acircumflex" unicode="&#xc2;" horiz-adv-x="1665" 
d="M1468 1591h-317l-135 135l-170 -135h-340l340 334h385zM-145 0l847 1493h515l321 -1493h-455l-34 219h-621l-111 -219h-462zM588 528h411l-98 613z" />
    <glyph glyph-name="Atilde" unicode="&#xc3;" horiz-adv-x="1665" 
d="M1507 1960q-17 -91 -37.5 -153t-55 -114.5t-88 -78t-128.5 -25.5q-73 0 -126 16.5t-77 36t-57 36t-70 16.5q-72 0 -118.5 -45t-51.5 -78l-174 31q16 90 37 153t56 114.5t89 77t128 25.5q60 0 105.5 -10.5t72 -26t48 -31t47 -26t56.5 -10.5q40 0 74 15.5t54 37t31 40.5
t13 30zM-145 0l847 1493h515l321 -1493h-455l-34 219h-621l-111 -219h-462zM588 528h411l-98 613z" />
    <glyph glyph-name="Adieresis" unicode="&#xc4;" horiz-adv-x="1665" 
d="M489 1591l60 340h418l-60 -340h-418zM1059 1591l61 340h418l-61 -340h-418zM-145 0l847 1493h515l321 -1493h-455l-34 219h-621l-111 -219h-462zM588 528h411l-98 613z" />
    <glyph glyph-name="Aring" unicode="&#xc5;" horiz-adv-x="1665" 
d="M1313 1821q-21 -121 -101.5 -179.5t-207.5 -58.5q-144 0 -217.5 77.5t-49.5 219.5q41 236 310 236q145 0 217.5 -76.5t48.5 -218.5zM950 1843q-6 -35 12 -51t50 -16q36 0 59 22t29 60q6 33 -12 50t-48 17q-36 0 -60 -23t-30 -59zM-145 0l847 1493h515l321 -1493h-455
l-34 219h-621l-111 -219h-462zM588 528h411l-98 613z" />
    <glyph glyph-name="AE" unicode="&#xc6;" horiz-adv-x="2369" 
d="M-145 0l1085 1493h1464l-61 -342h-768l-41 -242h647l-53 -309h-649l-45 -260h784l-59 -340h-1209l43 252h-489l-170 -252h-479zM1049 563l116 660l-448 -660h332z" />
    <glyph glyph-name="Ccedilla" unicode="&#xc7;" horiz-adv-x="1691" 
d="M1018 -381q-8 -52 -31.5 -88.5t-72.5 -65.5t-134 -43t-209 -14q-81 0 -145.5 8t-88.5 16l-24 7l15 158q0 -5 106 -5q87 0 138.5 34t62.5 93q6 40 -24 54t-97 16h-78l129 180q-290 43 -401.5 240.5t-46.5 566.5q68 400 276.5 581t583.5 181q114 0 206.5 -14.5t171 -47
t131.5 -83.5t87.5 -124t39 -168.5t-13.5 -217.5l-413 2q23 161 -35 226t-203 65q-159 0 -262.5 -100.5t-144.5 -301.5q-49 -234 5.5 -346.5t233.5 -112.5q75 0 128 12.5t99.5 45t78 92t51.5 149.5l415 -2q-60 -319 -219 -470.5t-432 -178.5l-78 -104q44 -4 81.5 -19
t68 -42.5t43 -73.5t2.5 -105z" />
    <glyph glyph-name="Egrave" unicode="&#xc8;" horiz-adv-x="1441" 
d="M1063 1595h-356l-220 322h410zM23 0l262 1493h1192l-62 -342h-766l-41 -242h645l-53 -309h-647l-45 -260h784l-61 -340h-1208z" />
    <glyph glyph-name="Eacute" unicode="&#xc9;" horiz-adv-x="1441" 
d="M696 1591l281 322h428l-330 -322h-379zM23 0l262 1493h1192l-62 -342h-766l-41 -242h645l-53 -309h-647l-45 -260h784l-61 -340h-1208z" />
    <glyph glyph-name="Ecircumflex" unicode="&#xca;" horiz-adv-x="1441" 
d="M1378 1591h-317l-135 135l-170 -135h-340l340 334h385zM23 0l262 1493h1192l-62 -342h-766l-41 -242h645l-53 -309h-647l-45 -260h784l-61 -340h-1208z" />
    <glyph glyph-name="Edieresis" unicode="&#xcb;" horiz-adv-x="1441" 
d="M399 1591l60 340h418l-60 -340h-418zM969 1591l61 340h418l-62 -340h-417zM23 0l262 1493h1192l-62 -342h-766l-41 -242h645l-53 -309h-647l-45 -260h784l-61 -340h-1208z" />
    <glyph glyph-name="Igrave" unicode="&#xcc;" horiz-adv-x="743" 
d="M696 1595h-356l-219 322h409zM23 0l262 1493h426l-262 -1493h-426z" />
    <glyph glyph-name="Iacute" unicode="&#xcd;" horiz-adv-x="743" 
d="M330 1591l280 322h428l-329 -322h-379zM23 0l262 1493h426l-262 -1493h-426z" />
    <glyph glyph-name="Icircumflex" unicode="&#xce;" horiz-adv-x="743" 
d="M1012 1591h-318l-135 135l-170 -135h-340l340 334h385zM23 0l262 1493h426l-262 -1493h-426z" />
    <glyph glyph-name="Idieresis" unicode="&#xcf;" horiz-adv-x="743" 
d="M33 1591l59 340h418l-59 -340h-418zM602 1591l62 340h417l-61 -340h-418zM23 0l262 1493h426l-262 -1493h-426z" />
    <glyph glyph-name="Eth" unicode="&#xd0;" horiz-adv-x="1728" 
d="M137 645h-147l35 195h147l115 653h555q225 0 379 -32t243 -94.5t130 -156.5t40 -217.5t-28 -277.5q-20 -111 -43 -192.5t-60 -160t-88 -133t-124 -101t-170 -73.5t-225 -42t-290 -15h-583zM569 645l-51 -293h205q149 -1 236.5 36.5t137 125t77.5 250.5q13 75 15 129.5
t-8 96.5t-31.5 68.5t-59 43.5t-86 24t-117.5 7h-232l-51 -293h260l-33 -195h-262z" />
    <glyph glyph-name="Ntilde" unicode="&#xd1;" horiz-adv-x="1822" 
d="M1614 1960q-17 -91 -37.5 -153t-55 -114.5t-88 -78t-128.5 -25.5q-73 0 -126 16.5t-77 36t-57 36t-70 16.5q-72 0 -118.5 -45t-51.5 -78l-174 31q16 90 37 153t55.5 114.5t88.5 77t128 25.5q60 0 105.5 -10.5t72 -26t48.5 -31t47.5 -26t56.5 -10.5q40 0 74 15.5t54 37
t31 40.5t13 30zM594 1016l-158 -1016h-413l268 1493h485l451 -993l153 993h410l-262 -1493h-486z" />
    <glyph glyph-name="Ograve" unicode="&#xd2;" horiz-adv-x="1738" 
d="M1192 1614h-356l-220 321h410zM1622 717q-71 -402 -279.5 -582t-586.5 -180q-395 0 -554 200t-85 621q70 401 278.5 581.5t587.5 180.5q394 0 553 -200t86 -621zM541 774q-49 -234 6.5 -346.5t236.5 -112.5q171 0 272 98.5t142 303.5q47 235 -9 348t-237 113
q-326 0 -411 -404z" />
    <glyph glyph-name="Oacute" unicode="&#xd3;" horiz-adv-x="1738" 
d="M825 1610l281 321h428l-330 -321h-379zM1622 717q-71 -402 -279.5 -582t-586.5 -180q-395 0 -554 200t-85 621q70 401 278.5 581.5t587.5 180.5q394 0 553 -200t86 -621zM541 774q-49 -234 6.5 -346.5t236.5 -112.5q171 0 272 98.5t142 303.5q47 235 -9 348t-237 113
q-326 0 -411 -404z" />
    <glyph glyph-name="Ocircumflex" unicode="&#xd4;" horiz-adv-x="1738" 
d="M1507 1610h-317l-135 135l-170 -135h-340l340 334h385zM1622 717q-71 -402 -279.5 -582t-586.5 -180q-395 0 -554 200t-85 621q70 401 278.5 581.5t587.5 180.5q394 0 553 -200t86 -621zM541 774q-49 -234 6.5 -346.5t236.5 -112.5q171 0 272 98.5t142 303.5
q47 235 -9 348t-237 113q-326 0 -411 -404z" />
    <glyph glyph-name="Otilde" unicode="&#xd5;" horiz-adv-x="1738" 
d="M1546 1978q-13 -72 -28 -124.5t-39.5 -101.5t-56 -79t-78.5 -47.5t-107 -17.5t-105 10.5t-71.5 26t-48.5 31t-48 26t-57 10.5q-72 0 -118.5 -45t-51.5 -78l-174 31q16 90 37 153t55.5 115t88.5 77.5t128 25.5q73 0 126.5 -16.5t77 -36t56.5 -36t70 -16.5q40 0 74 15.5
t54 37t31 40.5t13 30zM1622 717q-71 -402 -279.5 -582t-586.5 -180q-395 0 -554 200t-85 621q70 401 278.5 581.5t587.5 180.5q394 0 553 -200t86 -621zM541 774q-49 -234 6.5 -346.5t236.5 -112.5q171 0 272 98.5t142 303.5q47 235 -9 348t-237 113q-326 0 -411 -404z" />
    <glyph glyph-name="Odieresis" unicode="&#xd6;" horiz-adv-x="1738" 
d="M528 1610l60 340h418l-60 -340h-418zM1098 1610l61 340h418l-61 -340h-418zM1622 717q-71 -402 -279.5 -582t-586.5 -180q-395 0 -554 200t-85 621q70 401 278.5 581.5t587.5 180.5q394 0 553 -200t86 -621zM541 774q-49 -234 6.5 -346.5t236.5 -112.5q171 0 272 98.5
t142 303.5q47 235 -9 348t-237 113q-326 0 -411 -404z" />
    <glyph glyph-name="multiply" unicode="&#xd7;" horiz-adv-x="1284" 
d="M872 193l-264 280l-356 -283l-154 175l353 278l-252 270l188 164l262 -278l357 282l155 -170l-354 -280l256 -271z" />
    <glyph glyph-name="Oslash" unicode="&#xd8;" horiz-adv-x="1738" 
d="M12 -27l183 189q-151 204 -78 614q70 401 278.5 581.5t587.5 180.5q278 0 438 -100l72 75h201l-164 -170q165 -198 92 -626q-71 -402 -279.5 -582t-586.5 -180q-292 0 -455 108l-86 -90h-203zM541 774q-36 -169 -19 -270l606 631q-64 43 -176 43q-326 0 -411 -404z
M1198 717q37 181 10 293l-614 -641q66 -54 190 -54q171 0 272 98.5t142 303.5z" />
    <glyph glyph-name="Ugrave" unicode="&#xd9;" horiz-adv-x="1640" 
d="M1126 1595h-356l-219 322h410zM1509 758q-19 -107 -38 -188.5t-46 -162t-59.5 -139t-77 -112t-100.5 -89t-128 -62t-161.5 -38.5t-198.5 -12q-128 0 -226 18.5t-167 52.5t-114 89.5t-68.5 120.5t-28 155t4 184.5t30.5 215.5l123 702h424l-121 -700q-33 -173 -27 -275
t52.5 -143t152.5 -41q149 0 227.5 102.5t122.5 354.5l123 702h430z" />
    <glyph glyph-name="Uacute" unicode="&#xda;" horiz-adv-x="1640" 
d="M760 1591l280 322h428l-329 -322h-379zM1509 758q-19 -107 -38 -188.5t-46 -162t-59.5 -139t-77 -112t-100.5 -89t-128 -62t-161.5 -38.5t-198.5 -12q-128 0 -226 18.5t-167 52.5t-114 89.5t-68.5 120.5t-28 155t4 184.5t30.5 215.5l123 702h424l-121 -700
q-33 -173 -27 -275t52.5 -143t152.5 -41q149 0 227.5 102.5t122.5 354.5l123 702h430z" />
    <glyph glyph-name="Ucircumflex" unicode="&#xdb;" horiz-adv-x="1640" 
d="M1442 1591h-318l-135 135l-170 -135h-340l340 334h385zM1509 758q-19 -107 -38 -188.5t-46 -162t-59.5 -139t-77 -112t-100.5 -89t-128 -62t-161.5 -38.5t-198.5 -12q-128 0 -226 18.5t-167 52.5t-114 89.5t-68.5 120.5t-28 155t4 184.5t30.5 215.5l123 702h424
l-121 -700q-33 -173 -27 -275t52.5 -143t152.5 -41q149 0 227.5 102.5t122.5 354.5l123 702h430z" />
    <glyph glyph-name="Udieresis" unicode="&#xdc;" horiz-adv-x="1640" 
d="M463 1591l59 340h418l-59 -340h-418zM1032 1591l62 340h417l-61 -340h-418zM1509 758q-19 -107 -38 -188.5t-46 -162t-59.5 -139t-77 -112t-100.5 -89t-128 -62t-161.5 -38.5t-198.5 -12q-128 0 -226 18.5t-167 52.5t-114 89.5t-68.5 120.5t-28 155t4 184.5t30.5 215.5
l123 702h424l-121 -700q-33 -173 -27 -275t52.5 -143t152.5 -41q149 0 227.5 102.5t122.5 354.5l123 702h430z" />
    <glyph glyph-name="Yacute" unicode="&#xdd;" horiz-adv-x="1501" 
d="M674 1591l280 322h428l-329 -322h-379zM393 0l72 408l-365 1085h465l170 -702l400 702h507l-755 -1092h-4l-70 -401h-420z" />
    <glyph glyph-name="Thorn" unicode="&#xde;" horiz-adv-x="1636" 
d="M23 0l262 1493h430l-33 -184h252q97 0 176 -7t147.5 -21.5t119.5 -38.5t91 -58t64 -79t36 -102.5t10 -128t-17 -155.5q-22 -128 -62.5 -216.5t-101 -148.5t-155 -93.5t-210 -47.5t-280.5 -14h-269l-34 -199h-426zM621 967l-76 -426h209q87 0 144.5 7.5t109.5 30.5
t82.5 68.5t44.5 116.5q9 37 4.5 66t-11 50.5t-26.5 36.5t-41 25t-55.5 15.5t-70 7.5t-83.5 2h-231z" />
    <glyph glyph-name="germandbls" unicode="&#xdf;" horiz-adv-x="1495" 
d="M39 0l184 1040q13 73 26.5 125.5t38.5 113t58 102t86 82t121 65t163.5 40t213.5 15.5t212 -15.5t158.5 -44t109 -69t65 -91t25.5 -110.5t-9 -127q-11 -61 -35.5 -112.5t-55 -85.5t-65.5 -60.5t-67.5 -40.5t-60.5 -22.5t-44.5 -11t-19.5 -0.5l7 -4q2 0 6 -2
q264 -83 249 -337q-1 -27 -6 -55q-14 -81 -35.5 -137t-61.5 -102.5t-96.5 -74.5t-146 -47t-204 -26.5t-275.5 -7.5l49 301q184 0 265.5 37.5t98.5 132.5q8 43 -2.5 73.5t-32.5 48t-64.5 27.5t-85 13t-106.5 4l46 276q123 0 210 48t99 122q21 106 -15 151.5t-143 45.5
q-215 -3 -254 -217l-188 -1063h-418z" />
    <glyph glyph-name="agrave" unicode="&#xe0;" horiz-adv-x="1501" 
d="M1049 1294h-324l-205 394h375zM903 0l-18 76q-176 -113 -389 -113q-247 0 -360.5 97t-78.5 292q16 99 63.5 168t123 106.5t163.5 53.5t203 16q211 0 348 -18l3 4q15 76 11 122.5t-43 66.5t-132 20q-115 0 -175 -40t-69 -91l-360 2q5 29 12.5 56.5t26.5 68t46 74.5
t73 70.5t103.5 62t143 41.5t186.5 16q133 0 233 -17t166.5 -44.5t108 -76t61 -97t22 -122t-4.5 -137t-24 -155.5l-35 -185l-33 -317h-375zM625 236q144 0 272 86l29 159q-65 6 -162 6q-132 0 -200 -30.5t-81 -102.5q-11 -60 22.5 -89t119.5 -29z" />
    <glyph glyph-name="aacute" unicode="&#xe1;" horiz-adv-x="1501" 
d="M715 1294l291 394h395l-346 -394h-340zM903 0l-18 76q-176 -113 -389 -113q-247 0 -360.5 97t-78.5 292q16 99 63.5 168t123 106.5t163.5 53.5t203 16q211 0 348 -18l3 4q15 76 11 122.5t-43 66.5t-132 20q-115 0 -175 -40t-69 -91l-360 2q5 29 12.5 56.5t26.5 68
t46 74.5t73 70.5t103.5 62t143 41.5t186.5 16q133 0 233 -17t166.5 -44.5t108 -76t61 -97t22 -122t-4.5 -137t-24 -155.5l-35 -185l-33 -317h-375zM625 236q144 0 272 86l29 159q-65 6 -162 6q-132 0 -200 -30.5t-81 -102.5q-11 -60 22.5 -89t119.5 -29z" />
    <glyph glyph-name="acircumflex" unicode="&#xe2;" horiz-adv-x="1501" 
d="M1370 1288h-315l-133 156l-179 -156h-348l377 387h350zM903 0l-18 76q-176 -113 -389 -113q-247 0 -360.5 97t-78.5 292q16 99 63.5 168t123 106.5t163.5 53.5t203 16q211 0 348 -18l3 4q15 76 11 122.5t-43 66.5t-132 20q-115 0 -175 -40t-69 -91l-360 2q5 29 12.5 56.5
t26.5 68t46 74.5t73 70.5t103.5 62t143 41.5t186.5 16q133 0 233 -17t166.5 -44.5t108 -76t61 -97t22 -122t-4.5 -137t-24 -155.5l-35 -185l-33 -317h-375zM625 236q144 0 272 86l29 159q-65 6 -162 6q-132 0 -200 -30.5t-81 -102.5q-11 -60 22.5 -89t119.5 -29z" />
    <glyph glyph-name="atilde" unicode="&#xe3;" horiz-adv-x="1501" 
d="M1419 1667q-17 -92 -37.5 -154.5t-55 -115t-88 -78t-126.5 -25.5q-59 0 -105 11t-74 27t-51 32.5t-49 27.5t-55 11q-72 0 -117.5 -45t-52.5 -80l-174 33q17 90 38 153t55.5 114.5t87.5 77t126 25.5t127.5 -17t80 -37t58.5 -37t68 -17q39 0 72.5 15.5t53.5 38t31.5 41
t14.5 30.5zM903 0l-18 76q-176 -113 -389 -113q-247 0 -360.5 97t-78.5 292q16 99 63.5 168t123 106.5t163.5 53.5t203 16q211 0 348 -18l3 4q15 76 11 122.5t-43 66.5t-132 20q-115 0 -175 -40t-69 -91l-360 2q5 29 12.5 56.5t26.5 68t46 74.5t73 70.5t103.5 62t143 41.5
t186.5 16q133 0 233 -17t166.5 -44.5t108 -76t61 -97t22 -122t-4.5 -137t-24 -155.5l-35 -185l-33 -317h-375zM625 236q144 0 272 86l29 159q-65 6 -162 6q-132 0 -200 -30.5t-81 -102.5q-11 -60 22.5 -89t119.5 -29z" />
    <glyph glyph-name="adieresis" unicode="&#xe4;" horiz-adv-x="1501" 
d="M432 1288l60 342h385l-62 -342h-383zM971 1288l59 342h385l-61 -342h-383zM903 0l-18 76q-176 -113 -389 -113q-247 0 -360.5 97t-78.5 292q16 99 63.5 168t123 106.5t163.5 53.5t203 16q211 0 348 -18l3 4q15 76 11 122.5t-43 66.5t-132 20q-115 0 -175 -40t-69 -91
l-360 2q5 29 12.5 56.5t26.5 68t46 74.5t73 70.5t103.5 62t143 41.5t186.5 16q133 0 233 -17t166.5 -44.5t108 -76t61 -97t22 -122t-4.5 -137t-24 -155.5l-35 -185l-33 -317h-375zM625 236q144 0 272 86l29 159q-65 6 -162 6q-132 0 -200 -30.5t-81 -102.5q-11 -60 22.5 -89
t119.5 -29z" />
    <glyph glyph-name="aring" unicode="&#xe5;" horiz-adv-x="1501" 
d="M1221 1501q-21 -119 -102 -177t-208 -58q-145 0 -217.5 77t-46.5 218q41 235 307 235q145 0 218 -76t49 -219zM860 1524q-6 -34 11.5 -51t48.5 -17q35 0 58.5 23t29.5 59q4 34 -12.5 51t-47.5 17q-35 0 -58.5 -23t-29.5 -59zM903 0l-18 76q-176 -113 -389 -113
q-247 0 -360.5 97t-78.5 292q16 99 63.5 168t123 106.5t163.5 53.5t203 16q211 0 348 -18l3 4q15 76 11 122.5t-43 66.5t-132 20q-115 0 -175 -40t-69 -91l-360 2q5 29 12.5 56.5t26.5 68t46 74.5t73 70.5t103.5 62t143 41.5t186.5 16q133 0 233 -17t166.5 -44.5t108 -76
t61 -97t22 -122t-4.5 -137t-24 -155.5l-35 -185l-33 -317h-375zM625 236q144 0 272 86l29 159q-65 6 -162 6q-132 0 -200 -30.5t-81 -102.5q-11 -60 22.5 -89t119.5 -29z" />
    <glyph glyph-name="ae" unicode="&#xe6;" horiz-adv-x="2306" 
d="M2167 369q-102 -406 -678 -406q-373 0 -512 187q-202 -179 -479 -179q-506 0 -441 381q16 99 63 166.5t122.5 104t163 51t204.5 14.5h324q20 69 41 117q1 54 -38.5 70t-137.5 16q-116 0 -176.5 -40t-69.5 -91l-360 2q5 29 12.5 56.5t26.5 68t46 74.5t73 70.5t103.5 62
t143 41.5t186.5 16q248 0 381 -111q177 123 482 123q342 0 474 -161.5t70 -520.5h-870q-15 -134 29 -188.5t153 -54.5q119 0 180.5 37.5t77.5 93.5h406zM1638 909q-102 0 -165.5 -47.5t-102.5 -156.5h438q3 122 -36 163t-134 41zM905 328q-12 70 -6 151h-137
q-136 0 -201.5 -28.5t-77.5 -104.5q-8 -51 25.5 -80.5t116.5 -29.5q153 0 280 92z" />
    <glyph glyph-name="ccedilla" unicode="&#xe7;" horiz-adv-x="1482" 
d="M926 -377q-8 -52 -31.5 -88.5t-72.5 -65.5t-134 -43t-209 -14q-81 0 -145.5 8t-88.5 16l-24 7l15 158q0 -4 106 -4q87 0 138.5 34t62.5 93q6 40 -24 53.5t-97 15.5h-78l133 184q-466 80 -375 615q25 140 77 242.5t138 177t213.5 112t298.5 37.5q325 0 459.5 -128
t102.5 -371h-404q13 105 -29.5 145.5t-142.5 40.5q-120 0 -190 -66t-99 -215q-28 -151 11 -221t155 -70q100 0 164.5 36.5t87.5 125.5h410q-26 -103 -66 -180t-103.5 -138.5t-156.5 -98.5t-217 -50l-80 -108q44 -4 81.5 -19t68 -42.5t43 -73.5t2.5 -105z" />
    <glyph glyph-name="egrave" unicode="&#xe8;" horiz-adv-x="1497" 
d="M1047 1278h-324l-205 393h375zM1358 369q-102 -406 -678 -406q-689 0 -576 629q51 285 224.5 428t509.5 143q342 0 474 -161.5t70 -520.5h-870q-15 -134 29 -188.5t153 -54.5q113 0 178 38.5t80 92.5h406zM827 909q-101 0 -164 -47.5t-102 -156.5h438q3 122 -36.5 163
t-135.5 41z" />
    <glyph glyph-name="eacute" unicode="&#xe9;" horiz-adv-x="1497" 
d="M713 1278l291 393h395l-346 -393h-340zM1358 369q-102 -406 -678 -406q-689 0 -576 629q51 285 224.5 428t509.5 143q342 0 474 -161.5t70 -520.5h-870q-15 -134 29 -188.5t153 -54.5q113 0 178 38.5t80 92.5h406zM827 909q-101 0 -164 -47.5t-102 -156.5h438
q3 122 -36.5 163t-135.5 41z" />
    <glyph glyph-name="ecircumflex" unicode="&#xea;" horiz-adv-x="1497" 
d="M1368 1272h-315l-133 155l-179 -155h-348l377 387h350zM1358 369q-102 -406 -678 -406q-689 0 -576 629q51 285 224.5 428t509.5 143q342 0 474 -161.5t70 -520.5h-870q-15 -134 29 -188.5t153 -54.5q113 0 178 38.5t80 92.5h406zM827 909q-101 0 -164 -47.5t-102 -156.5
h438q3 122 -36.5 163t-135.5 41z" />
    <glyph glyph-name="edieresis" unicode="&#xeb;" horiz-adv-x="1497" 
d="M430 1272l59 342h385l-61 -342h-383zM969 1272l59 342h385l-61 -342h-383zM1358 369q-102 -406 -678 -406q-689 0 -576 629q51 285 224.5 428t509.5 143q342 0 474 -161.5t70 -520.5h-870q-15 -134 29 -188.5t153 -54.5q113 0 178 38.5t80 92.5h406zM827 909
q-101 0 -164 -47.5t-102 -156.5h438q3 122 -36.5 163t-135.5 41z" />
    <glyph glyph-name="igrave" unicode="&#xec;" horiz-adv-x="720" 
d="M641 1278h-324l-204 393h374zM51 0l199 1126h418l-199 -1126h-418z" />
    <glyph glyph-name="iacute" unicode="&#xed;" horiz-adv-x="720" 
d="M307 1278l291 393h395l-346 -393h-340zM51 0l199 1126h418l-199 -1126h-418z" />
    <glyph glyph-name="icircumflex" unicode="&#xee;" horiz-adv-x="720" 
d="M963 1272h-316l-133 155l-178 -155h-348l377 387h350zM51 0l199 1126h418l-199 -1126h-418z" />
    <glyph glyph-name="idieresis" unicode="&#xef;" horiz-adv-x="720" 
d="M25 1272l59 342h385l-61 -342h-383zM563 1272l60 342h385l-62 -342h-383zM51 0l199 1126h418l-199 -1126h-418z" />
    <glyph glyph-name="eth" unicode="&#xf0;" horiz-adv-x="1523" 
d="M1167 1415q53 -74 97.5 -155.5t86.5 -187.5t61 -231t7 -249q-29 -303 -222.5 -466t-516.5 -163q-183 0 -309 43t-191.5 124t-85 198t9.5 264q23 129 73.5 225.5t136.5 168t216 108t304 36.5q33 0 75 -10q-46 93 -80 144l-204 -93l-62 113l193 84q-49 62 -102.5 116
t-81.5 78l-29 23l489 -8q22 -22 55 -61l181 79l65 -104zM991 555q16 116 10 211q-54 86 -180 86q-132 0 -201.5 -75.5t-99.5 -244.5q-26 -143 16.5 -199.5t159.5 -56.5q129 0 197 65.5t98 213.5z" />
    <glyph glyph-name="ntilde" unicode="&#xf1;" horiz-adv-x="1540" 
d="M1423 1651q-17 -92 -37.5 -154.5t-55 -115t-88 -78t-126.5 -25.5q-72 0 -126.5 17t-80 37t-59 37t-68.5 17q-72 0 -117.5 -44.5t-52.5 -79.5l-174 32q17 90 38 153t55.5 115t87.5 77.5t126 25.5q60 0 106 -11t74 -27.5t50.5 -32.5t48.5 -27t55 -11q39 0 72.5 15.5
t53.5 38t31.5 41t14.5 30.5zM53 0l146 817l30 309h353l12 -147q40 33 93.5 65.5t154 65.5t200.5 33q249 0 329.5 -138.5t27.5 -451.5l-99 -553h-415l100 575q18 107 -9 156t-122 49q-146 0 -268 -108l-115 -672h-418z" />
    <glyph glyph-name="ograve" unicode="&#xf2;" horiz-adv-x="1515" 
d="M1040 1276h-323l-205 393h375zM1413 532q-25 -141 -77 -244t-138.5 -177.5t-215.5 -111t-302 -36.5q-183 0 -309 43t-192 124t-85.5 198t10.5 264q24 141 75.5 244.5t138.5 178t216.5 111.5t303.5 37q360 1 495 -161t80 -470zM526 567q-32 -163 7 -227t163 -64
q126 0 195 64.5t98 216.5q32 164 -7 228.5t-163 64.5q-125 0 -194.5 -65.5t-98.5 -217.5z" />
    <glyph glyph-name="oacute" unicode="&#xf3;" horiz-adv-x="1515" 
d="M707 1276l290 393h396l-346 -393h-340zM1413 532q-25 -141 -77 -244t-138.5 -177.5t-215.5 -111t-302 -36.5q-183 0 -309 43t-192 124t-85.5 198t10.5 264q24 141 75.5 244.5t138.5 178t216.5 111.5t303.5 37q360 1 495 -161t80 -470zM526 567q-32 -163 7 -227t163 -64
q126 0 195 64.5t98 216.5q32 164 -7 228.5t-163 64.5q-125 0 -194.5 -65.5t-98.5 -217.5z" />
    <glyph glyph-name="ocircumflex" unicode="&#xf4;" horiz-adv-x="1515" 
d="M1362 1270h-315l-134 155l-178 -155h-348l377 387h350zM1413 532q-25 -141 -77 -244t-138.5 -177.5t-215.5 -111t-302 -36.5q-183 0 -309 43t-192 124t-85.5 198t10.5 264q24 141 75.5 244.5t138.5 178t216.5 111.5t303.5 37q360 1 495 -161t80 -470zM526 567
q-32 -163 7 -227t163 -64q126 0 195 64.5t98 216.5q32 164 -7 228.5t-163 64.5q-125 0 -194.5 -65.5t-98.5 -217.5z" />
    <glyph glyph-name="otilde" unicode="&#xf5;" horiz-adv-x="1515" 
d="M1411 1649q-17 -92 -37.5 -154.5t-55 -115t-88 -78t-126.5 -25.5q-72 0 -126.5 17t-80 37t-59 37t-68.5 17q-72 0 -117.5 -44.5t-52.5 -79.5l-174 32q17 90 38 153t55.5 115t87.5 77.5t126 25.5q60 0 106 -11t74 -27.5t50.5 -32.5t48.5 -27t55 -11q39 0 72.5 15.5
t53.5 38t31.5 41t14.5 30.5zM1413 532q-25 -141 -77 -244t-138.5 -177.5t-215.5 -111t-302 -36.5q-183 0 -309 43t-192 124t-85.5 198t10.5 264q24 141 75.5 244.5t138.5 178t216.5 111.5t303.5 37q360 1 495 -161t80 -470zM526 567q-32 -163 7 -227t163 -64q126 0 195 64.5
t98 216.5q32 164 -7 228.5t-163 64.5q-125 0 -194.5 -65.5t-98.5 -217.5z" />
    <glyph glyph-name="odieresis" unicode="&#xf6;" horiz-adv-x="1515" 
d="M424 1270l59 342h385l-61 -342h-383zM963 1270l59 342h385l-61 -342h-383zM1413 532q-25 -141 -77 -244t-138.5 -177.5t-215.5 -111t-302 -36.5q-183 0 -309 43t-192 124t-85.5 198t10.5 264q24 141 75.5 244.5t138.5 178t216.5 111.5t303.5 37q360 1 495 -161t80 -470z
M526 567q-32 -163 7 -227t163 -64q126 0 195 64.5t98 216.5q32 164 -7 228.5t-163 64.5q-125 0 -194.5 -65.5t-98.5 -217.5z" />
    <glyph glyph-name="divide" unicode="&#xf7;" horiz-adv-x="1271" 
d="M469 889l57 319h383l-57 -319h-383zM59 553l45 246h1084l-45 -246h-1084zM338 145l57 322h383l-57 -322h-383z" />
    <glyph glyph-name="oslash" unicode="&#xf8;" horiz-adv-x="1515" 
d="M6 -63l187 178q-149 159 -89 477q24 141 75.5 244.5t138.5 178t216.5 111.5t303.5 37q243 0 383 -73l108 102h168l-182 -172q156 -156 98 -488q-25 -141 -77 -244t-138.5 -177.5t-215.5 -111t-302 -36.5q-249 0 -393 78l-111 -104h-170zM526 567q-17 -87 -14 -149
l430 407q-48 25 -123 25q-125 0 -194.5 -65.5t-98.5 -217.5zM989 557q20 112 12 164l-436 -416q45 -29 131 -29q126 0 195 64.5t98 216.5z" />
    <glyph glyph-name="ugrave" unicode="&#xf9;" horiz-adv-x="1550" 
d="M1047 1278h-324l-205 393h375zM952 0l-16 160q-27 -25 -65 -51t-95.5 -57t-132.5 -50.5t-151 -19.5q-249 0 -335 135t-34 422l106 585h416l-108 -610q-14 -91 13 -130.5t114 -39.5q84 0 157 38.5t125 88.5l115 655h418l-144 -813l-30 -313h-353z" />
    <glyph glyph-name="uacute" unicode="&#xfa;" horiz-adv-x="1550" 
d="M713 1278l291 393h395l-346 -393h-340zM952 0l-16 160q-27 -25 -65 -51t-95.5 -57t-132.5 -50.5t-151 -19.5q-249 0 -335 135t-34 422l106 585h416l-108 -610q-14 -91 13 -130.5t114 -39.5q84 0 157 38.5t125 88.5l115 655h418l-144 -813l-30 -313h-353z" />
    <glyph glyph-name="ucircumflex" unicode="&#xfb;" horiz-adv-x="1550" 
d="M1368 1272h-315l-133 155l-179 -155h-348l377 387h350zM952 0l-16 160q-27 -25 -65 -51t-95.5 -57t-132.5 -50.5t-151 -19.5q-249 0 -335 135t-34 422l106 585h416l-108 -610q-14 -91 13 -130.5t114 -39.5q84 0 157 38.5t125 88.5l115 655h418l-144 -813l-30 -313h-353z
" />
    <glyph glyph-name="udieresis" unicode="&#xfc;" horiz-adv-x="1550" 
d="M430 1272l59 342h385l-61 -342h-383zM969 1272l59 342h385l-61 -342h-383zM952 0l-16 160q-27 -25 -65 -51t-95.5 -57t-132.5 -50.5t-151 -19.5q-249 0 -335 135t-34 422l106 585h416l-108 -610q-14 -91 13 -130.5t114 -39.5q84 0 157 38.5t125 88.5l115 655h418
l-144 -813l-30 -313h-353z" />
    <glyph glyph-name="yacute" unicode="&#xfd;" horiz-adv-x="1390" 
d="M621 1278l290 393h396l-346 -393h-340zM233 -483l236 483h-166l-237 1126h448l127 -778l381 778h459l-844 -1609h-404z" />
    <glyph glyph-name="thorn" unicode="&#xfe;" horiz-adv-x="1531" 
d="M-43 -518l369 2085h415l-90 -504q158 90 353 90q269 0 372 -162t51 -463q-48 -276 -188 -415.5t-387 -139.5q-248 0 -369 131l-110 -622h-416zM846 842q-127 0 -252 -107l-64 -362q68 -92 207 -92q104 0 177 72.5t96 201.5q26 152 -11.5 219.5t-152.5 67.5z" />
    <glyph glyph-name="ydieresis" unicode="&#xff;" horiz-adv-x="1390" 
d="M338 1272l59 342h385l-61 -342h-383zM877 1272l59 342h385l-61 -342h-383zM233 -483l236 483h-166l-237 1126h448l127 -778l381 778h459l-844 -1609h-404z" />
    <glyph glyph-name="Amacron" unicode="&#x100;" horiz-adv-x="1665" 
d="M651 1880h768l-49 -281h-768zM-145 0l847 1493h515l321 -1493h-455l-34 219h-621l-111 -219h-462zM588 528h411l-98 613z" />
    <glyph glyph-name="amacron" unicode="&#x101;" horiz-adv-x="1501" 
d="M557 1579h770l-45 -246h-768zM903 0l-18 76q-176 -113 -389 -113q-247 0 -360.5 97t-78.5 292q16 99 63.5 168t123 106.5t163.5 53.5t203 16q211 0 348 -18l3 4q15 76 11 122.5t-43 66.5t-132 20q-115 0 -175 -40t-69 -91l-360 2q5 29 12.5 56.5t26.5 68t46 74.5t73 70.5
t103.5 62t143 41.5t186.5 16q133 0 233 -17t166.5 -44.5t108 -76t61 -97t22 -122t-4.5 -137t-24 -155.5l-35 -185l-33 -317h-375zM625 236q144 0 272 86l29 159q-65 6 -162 6q-132 0 -200 -30.5t-81 -102.5q-11 -60 22.5 -89t119.5 -29z" />
    <glyph glyph-name="Abreve" unicode="&#x102;" horiz-adv-x="1665" 
d="M1489 1921q-12 -64 -43.5 -123t-87 -112.5t-146.5 -86t-206 -32.5q-73 0 -134 11.5t-105 31t-78.5 47t-54 59t-32.5 66t-12.5 70t4.5 69.5h289q-7 -44 32.5 -72t100.5 -28q56 0 113 28.5t63 71.5h297zM-145 0l847 1493h515l321 -1493h-455l-34 219h-621l-111 -219h-462z
M588 528h411l-98 613z" />
    <glyph glyph-name="abreve" unicode="&#x103;" horiz-adv-x="1501" 
d="M1423 1665q-9 -51 -30.5 -101t-62.5 -102t-96 -91t-138 -64t-181 -25q-87 0 -158.5 17.5t-117.5 47t-80 68t-47.5 81t-19.5 86t4 83.5h301q-9 -50 27 -89.5t102 -39.5q63 0 119 40.5t65 88.5h313zM903 0l-18 76q-176 -113 -389 -113q-247 0 -360.5 97t-78.5 292
q16 99 63.5 168t123 106.5t163.5 53.5t203 16q211 0 348 -18l3 4q15 76 11 122.5t-43 66.5t-132 20q-115 0 -175 -40t-69 -91l-360 2q5 29 12.5 56.5t26.5 68t46 74.5t73 70.5t103.5 62t143 41.5t186.5 16q133 0 233 -17t166.5 -44.5t108 -76t61 -97t22 -122t-4.5 -137
t-24 -155.5l-35 -185l-33 -317h-375zM625 236q144 0 272 86l29 159q-65 6 -162 6q-132 0 -200 -30.5t-81 -102.5q-11 -60 22.5 -89t119.5 -29z" />
    <glyph glyph-name="Aogonek" unicode="&#x104;" horiz-adv-x="1665" 
d="M838 -248q7 43 33 84t56.5 69t65 51.5t56.5 34.5t32 15l-32 213h-621l-111 -219h-462l847 1493h515l321 -1493h-139q-7 -4 -19 -11t-43 -28.5t-55.5 -43t-47 -52.5t-26.5 -60q-12 -59 56 -59q23 0 52 9t46 17l18 9l-20 -180l-8.5 -8.5t-27 -19.5t-48 -24.5t-71.5 -19
t-97 -8.5q-59 0 -106 10.5t-76 28t-50.5 41t-29 49t-11 52t2.5 50.5zM588 528h411l-98 613z" />
    <glyph glyph-name="aogonek" unicode="&#x105;" horiz-adv-x="1501" 
d="M655 -248q9 53 45 101.5t81.5 80.5t74.5 49t45 23l-16 70q-176 -113 -389 -113q-247 0 -360.5 97t-78.5 292q16 99 63.5 168t123 106.5t163.5 53.5t203 16q211 0 348 -18l3 4q15 76 11 122.5t-43 66.5t-132 20q-115 0 -175 -40t-69 -91l-360 2q5 29 12.5 56.5t26.5 68
t46 74.5t73 70.5t103.5 62t143 41.5t186.5 16q133 0 233 -17t166.5 -44.5t108 -76t61 -97t22 -122t-4.5 -137t-24 -155.5l-35 -185l-33 -317h-61q-7 -4 -19 -11t-43 -28.5t-55.5 -43t-47 -52.5t-26.5 -60q-12 -59 55 -59q23 0 52 9t47 17l18 9l-20 -180l-8.5 -8.5t-27 -19.5
t-48 -24.5t-71.5 -19t-97 -8.5q-87 0 -147 22t-86.5 58t-35.5 73.5t-2 77.5zM625 236q144 0 272 86l29 159q-65 6 -162 6q-132 0 -200 -30.5t-81 -102.5q-11 -60 22.5 -89t119.5 -29z" />
    <glyph glyph-name="Cacute" unicode="&#x106;" horiz-adv-x="1691" 
d="M823 1610l281 321h428l-330 -321h-379zM1552 612q-34 -184 -101 -312t-169.5 -203.5t-230.5 -108.5t-299 -33q-392 0 -550.5 200t-84.5 621q68 400 276.5 581t583.5 181q114 0 206.5 -14.5t171 -47t131.5 -83.5t87.5 -124t39 -168.5t-13.5 -217.5l-413 2q23 161 -35 226
t-203 65q-159 0 -262.5 -100.5t-144.5 -301.5q-49 -234 5.5 -346.5t233.5 -112.5q75 0 128 12.5t99.5 45t78 92t51.5 149.5z" />
    <glyph glyph-name="cacute" unicode="&#x107;" horiz-adv-x="1482" 
d="M682 1278l291 393h395l-346 -393h-340zM1354 438q-29 -117 -77 -201t-127.5 -147.5t-199 -95t-280.5 -31.5q-352 0 -486.5 161.5t-81.5 467.5q25 140 77 242.5t138 177t213.5 112t298.5 37.5q325 0 459.5 -128t102.5 -371h-404q13 105 -29.5 145.5t-142.5 40.5
q-120 0 -190 -66t-99 -215q-28 -151 11 -221t155 -70q100 0 164.5 36.5t87.5 125.5h410z" />
    <glyph glyph-name="Ccircumflex" unicode="&#x108;" horiz-adv-x="1691" 
d="M1505 1610h-317l-135 135l-170 -135h-340l340 334h385zM1552 612q-34 -184 -101 -312t-169.5 -203.5t-230.5 -108.5t-299 -33q-392 0 -550.5 200t-84.5 621q68 400 276.5 581t583.5 181q114 0 206.5 -14.5t171 -47t131.5 -83.5t87.5 -124t39 -168.5t-13.5 -217.5l-413 2
q23 161 -35 226t-203 65q-159 0 -262.5 -100.5t-144.5 -301.5q-49 -234 5.5 -346.5t233.5 -112.5q75 0 128 12.5t99.5 45t78 92t51.5 149.5z" />
    <glyph glyph-name="ccircumflex" unicode="&#x109;" horiz-adv-x="1482" 
d="M1337 1272h-315l-133 155l-178 -155h-349l377 387h351zM1354 438q-29 -117 -77 -201t-127.5 -147.5t-199 -95t-280.5 -31.5q-352 0 -486.5 161.5t-81.5 467.5q25 140 77 242.5t138 177t213.5 112t298.5 37.5q325 0 459.5 -128t102.5 -371h-404q13 105 -29.5 145.5
t-142.5 40.5q-120 0 -190 -66t-99 -215q-28 -151 11 -221t155 -70q100 0 164.5 36.5t87.5 125.5h410z" />
    <glyph glyph-name="Cdotaccent" unicode="&#x10a;" horiz-adv-x="1691" 
d="M813 1610l59 340h418l-59 -340h-418zM1552 612q-34 -184 -101 -312t-169.5 -203.5t-230.5 -108.5t-299 -33q-392 0 -550.5 200t-84.5 621q68 400 276.5 581t583.5 181q114 0 206.5 -14.5t171 -47t131.5 -83.5t87.5 -124t39 -168.5t-13.5 -217.5l-413 2q23 161 -35 226
t-203 65q-159 0 -262.5 -100.5t-144.5 -301.5q-49 -234 5.5 -346.5t233.5 -112.5q75 0 128 12.5t99.5 45t78 92t51.5 149.5z" />
    <glyph glyph-name="cdotaccent" unicode="&#x10b;" horiz-adv-x="1482" 
d="M653 1282l58 332h419l-59 -332h-418zM1354 438q-29 -117 -77 -201t-127.5 -147.5t-199 -95t-280.5 -31.5q-352 0 -486.5 161.5t-81.5 467.5q25 140 77 242.5t138 177t213.5 112t298.5 37.5q325 0 459.5 -128t102.5 -371h-404q13 105 -29.5 145.5t-142.5 40.5
q-120 0 -190 -66t-99 -215q-28 -151 11 -221t155 -70q100 0 164.5 36.5t87.5 125.5h410z" />
    <glyph glyph-name="Ccaron" unicode="&#x10c;" horiz-adv-x="1691" 
d="M1573 1944l-354 -334h-385l-224 334h303l136 -138l172 138h352zM1552 612q-34 -184 -101 -312t-169.5 -203.5t-230.5 -108.5t-299 -33q-392 0 -550.5 200t-84.5 621q68 400 276.5 581t583.5 181q114 0 206.5 -14.5t171 -47t131.5 -83.5t87.5 -124t39 -168.5t-13.5 -217.5
l-413 2q23 161 -35 226t-203 65q-159 0 -262.5 -100.5t-144.5 -301.5q-49 -234 5.5 -346.5t233.5 -112.5q75 0 128 12.5t99.5 45t78 92t51.5 149.5z" />
    <glyph glyph-name="ccaron" unicode="&#x10d;" horiz-adv-x="1482" 
d="M1413 1659l-383 -387h-350l-229 387h301l133 -146l178 146h350zM1354 438q-29 -117 -77 -201t-127.5 -147.5t-199 -95t-280.5 -31.5q-352 0 -486.5 161.5t-81.5 467.5q25 140 77 242.5t138 177t213.5 112t298.5 37.5q325 0 459.5 -128t102.5 -371h-404
q13 105 -29.5 145.5t-142.5 40.5q-120 0 -190 -66t-99 -215q-28 -151 11 -221t155 -70q100 0 164.5 36.5t87.5 125.5h410z" />
    <glyph glyph-name="Dcaron" unicode="&#x10e;" horiz-adv-x="1728" 
d="M1511 1925l-354 -334h-385l-223 334h303l135 -137l172 137h352zM287 1493h555q225 0 379 -32t243 -94.5t130 -156.5t40 -217.5t-28 -277.5q-20 -111 -43 -192.5t-60 -160t-88 -133t-124 -101t-170 -73.5t-225 -42t-290 -15h-583zM655 1133l-137 -781h205
q149 -1 236.5 36.5t137 125t77.5 250.5q13 75 15 129.5t-8 96.5t-31.5 68.5t-59 43.5t-86 24t-117.5 7h-232z" />
    <glyph glyph-name="dcaron" unicode="&#x10f;" horiz-adv-x="1546" 
d="M1532 1126l219 451h328l-310 -451h-237zM954 0l-14 135q-153 -162 -412 -162q-268 0 -371 158.5t-51 456.5q49 279 190 422t392 143q218 0 361 -119l94 533h416l-218 -1233l-34 -334h-353zM698 281q130 0 240 114l66 373q-70 74 -181 74q-123 0 -199.5 -71.5
t-101.5 -205.5q-26 -151 14 -217.5t162 -66.5z" />
    <glyph glyph-name="Dcroat" unicode="&#x110;" horiz-adv-x="1728" 
d="M137 645h-147l35 195h147l115 653h555q225 0 379 -32t243 -94.5t130 -156.5t40 -217.5t-28 -277.5q-20 -111 -43 -192.5t-60 -160t-88 -133t-124 -101t-170 -73.5t-225 -42t-290 -15h-583zM569 645l-51 -293h205q149 -1 236.5 36.5t137 125t77.5 250.5q13 75 15 129.5
t-8 96.5t-31.5 68.5t-59 43.5t-86 24t-117.5 7h-232l-51 -293h260l-33 -195h-262z" />
    <glyph glyph-name="dcroat" unicode="&#x111;" horiz-adv-x="1546" 
d="M1495 1210l-154 -876l-34 -334h-353l-14 135q-153 -162 -412 -162q-268 0 -371 158.5t-51 456.5q49 279 190 422t392 143q218 0 361 -119l30 176h-268l35 195h268l29 162h416l-29 -162h156l-33 -195h-158zM698 281q130 0 240 114l66 373q-70 74 -181 74
q-123 0 -199.5 -71.5t-101.5 -205.5q-26 -151 14 -217.5t162 -66.5z" />
    <glyph glyph-name="Emacron" unicode="&#x112;" horiz-adv-x="1441" 
d="M561 1880h768l-49 -281h-768zM23 0l262 1493h1192l-62 -342h-766l-41 -242h645l-53 -309h-647l-45 -260h784l-61 -340h-1208z" />
    <glyph glyph-name="emacron" unicode="&#x113;" horiz-adv-x="1497" 
d="M555 1563h770l-45 -246h-768zM1358 369q-102 -406 -678 -406q-689 0 -576 629q51 285 224.5 428t509.5 143q342 0 474 -161.5t70 -520.5h-870q-15 -134 29 -188.5t153 -54.5q113 0 178 38.5t80 92.5h406zM827 909q-101 0 -164 -47.5t-102 -156.5h438q3 122 -36.5 163
t-135.5 41z" />
    <glyph glyph-name="Ebreve" unicode="&#x114;" horiz-adv-x="1441" 
d="M1399 1921q-12 -64 -44 -123t-87 -112.5t-146.5 -86t-206.5 -32.5q-84 0 -153 15.5t-114.5 41.5t-79.5 61t-48 74t-20 81t4 81h289q-7 -44 32.5 -72t100.5 -28q56 0 113 28.5t63 71.5h297zM23 0l262 1493h1192l-62 -342h-766l-41 -242h645l-53 -309h-647l-45 -260h784
l-61 -340h-1208z" />
    <glyph glyph-name="ebreve" unicode="&#x115;" horiz-adv-x="1497" 
d="M1421 1649q-9 -51 -30.5 -101t-62.5 -102t-96 -91t-138 -64t-181 -25q-87 0 -158.5 17.5t-117.5 47t-80 68t-47.5 81t-19.5 86t4 83.5h301q-9 -50 27 -89.5t102 -39.5q63 0 119 40.5t65 88.5h313zM1358 369q-102 -406 -678 -406q-689 0 -576 629q51 285 224.5 428
t509.5 143q342 0 474 -161.5t70 -520.5h-870q-15 -134 29 -188.5t153 -54.5q113 0 178 38.5t80 92.5h406zM827 909q-101 0 -164 -47.5t-102 -156.5h438q3 122 -36.5 163t-135.5 41z" />
    <glyph glyph-name="Edotaccent" unicode="&#x116;" horiz-adv-x="1441" 
d="M686 1591l59 340h418l-59 -340h-418zM23 0l262 1493h1192l-62 -342h-766l-41 -242h645l-53 -309h-647l-45 -260h784l-61 -340h-1208z" />
    <glyph glyph-name="edotaccent" unicode="&#x117;" horiz-adv-x="1497" 
d="M684 1282l57 332h420l-59 -332h-418zM1358 369q-102 -406 -678 -406q-689 0 -576 629q51 285 224.5 428t509.5 143q342 0 474 -161.5t70 -520.5h-870q-15 -134 29 -188.5t153 -54.5q113 0 178 38.5t80 92.5h406zM827 909q-101 0 -164 -47.5t-102 -156.5h438
q3 122 -36.5 163t-135.5 41z" />
    <glyph glyph-name="Eogonek" unicode="&#x118;" horiz-adv-x="1441" 
d="M670 -248q7 46 35 89.5t68.5 75.5t68.5 50t57 33h-876l262 1493h1192l-62 -342h-766l-41 -242h645l-53 -309h-647l-45 -260h784l-61 -340q-7 -4 -19 -11t-43 -28.5t-55.5 -43t-47 -52.5t-26.5 -60q-12 -59 56 -59q23 0 52 9t46 17l18 9l-20 -180l-8.5 -8.5t-27 -19.5
t-48 -24.5t-71.5 -19t-97 -8.5q-59 0 -106 10.5t-76 28t-50.5 41t-29 49t-11 52t2.5 50.5z" />
    <glyph glyph-name="eogonek" unicode="&#x119;" horiz-adv-x="1497" 
d="M563 -188q14 82 90 151q-661 11 -549 629q51 285 224.5 428t509.5 143q342 0 474 -161.5t70 -520.5h-870q-15 -134 29 -188.5t153 -54.5q113 0 178 38.5t80 92.5h406q-61 -234 -268 -330q-143 -93 -156 -174q-12 -60 55 -60q23 0 52 8.5t47 17.5l18 9l-21 -180l-8.5 -8.5
t-27 -19.5t-47.5 -24.5t-71 -19t-97 -8.5q-59 0 -106 10.5t-76.5 28.5t-50.5 41t-29 49t-11.5 52.5t2.5 50.5zM827 909q-101 0 -164 -47.5t-102 -156.5h438q3 122 -36.5 163t-135.5 41z" />
    <glyph glyph-name="Ecaron" unicode="&#x11a;" horiz-adv-x="1441" 
d="M1446 1925l-354 -334h-385l-224 334h303l136 -137l172 137h352zM23 0l262 1493h1192l-62 -342h-766l-41 -242h645l-53 -309h-647l-45 -260h784l-61 -340h-1208z" />
    <glyph glyph-name="ecaron" unicode="&#x11b;" horiz-adv-x="1497" 
d="M1444 1659l-383 -387h-350l-230 387h301l133 -146l179 146h350zM1358 369q-102 -406 -678 -406q-689 0 -576 629q51 285 224.5 428t509.5 143q342 0 474 -161.5t70 -520.5h-870q-15 -134 29 -188.5t153 -54.5q113 0 178 38.5t80 92.5h406zM827 909q-101 0 -164 -47.5
t-102 -156.5h438q3 122 -36.5 163t-135.5 41z" />
    <glyph glyph-name="Gcircumflex" unicode="&#x11c;" horiz-adv-x="1681" 
d="M1497 1610h-317l-136 135l-170 -135h-339l339 334h386zM1462 203q-1 -2 -14 -15t-43.5 -35.5t-70.5 -48t-101 -52t-130 -48t-161.5 -35.5t-191.5 -14q-393 -2 -550 198t-83 621q70 402 277 583t581 181q354 0 509 -150t103 -454l-397 2q14 124 -51.5 182t-192.5 58
q-156 0 -260 -100.5t-145 -301.5q-49 -237 9.5 -356t244.5 -119q68 0 130.5 13t101.5 31.5t62 36t25 28.5l21 118h-271l45 258h654z" />
    <glyph glyph-name="gcircumflex" unicode="&#x11d;" horiz-adv-x="1628" 
d="M1430 1272h-316l-133 155l-178 -155h-348l376 387h351zM1343 -23q-21 -122 -36 -167q-64 -192 -267 -270q-155 -60 -395 -60q-105 0 -191 14.5t-142.5 39t-99.5 56t-65.5 66.5t-37.5 70t-17.5 66.5t-3 56t2.5 39.5l3 14h416q0 -2 -2.5 -13t-3.5 -17.5t-1.5 -19.5t1 -21.5
t5.5 -21t11 -20.5t18.5 -17.5t27 -15t38 -9t49.5 -3.5q63 0 109.5 14t74.5 35.5t48 58.5t29 70.5t18 83.5l12 76q-145 -109 -350 -109q-268 0 -371 158.5t-51 456.5q48 279 189.5 422t390.5 143q86 0 160.5 -18t122.5 -47t73.5 -50t42.5 -41l59 129h359l-82 -331zM764 281
q125 0 233 108l66 383q-74 70 -193 70q-110 0 -183.5 -72.5t-98.5 -204.5q-27 -151 13 -217.5t163 -66.5z" />
    <glyph glyph-name="Gbreve" unicode="&#x11e;" horiz-adv-x="1681" 
d="M1518 1939q-12 -64 -44 -123t-87 -112.5t-146.5 -86t-206.5 -32.5q-84 0 -153 15.5t-114.5 41.5t-79.5 61t-48 74t-20 81t4 81h288q-7 -44 32.5 -72t100.5 -28q56 0 113.5 28.5t63.5 71.5h297zM1462 203q-1 -2 -14 -15t-43.5 -35.5t-70.5 -48t-101 -52t-130 -48
t-161.5 -35.5t-191.5 -14q-393 -2 -550 198t-83 621q70 402 277 583t581 181q354 0 509 -150t103 -454l-397 2q14 124 -51.5 182t-192.5 58q-156 0 -260 -100.5t-145 -301.5q-49 -237 9.5 -356t244.5 -119q68 0 130.5 13t101.5 31.5t62 36t25 28.5l21 118h-271l45 258h654z
" />
    <glyph glyph-name="gbreve" unicode="&#x11f;" horiz-adv-x="1628" 
d="M1483 1649q-9 -51 -30.5 -101t-62.5 -102t-96 -91t-138 -64t-181 -25q-75 0 -138.5 13t-108 35.5t-80 52.5t-54.5 65t-32 72t-12 74t5 71h301q-9 -50 27 -89.5t102 -39.5q63 0 119 40.5t65 88.5h314zM1343 -23q-21 -122 -36 -167q-64 -192 -267 -270q-155 -60 -395 -60
q-105 0 -191 14.5t-142.5 39t-99.5 56t-65.5 66.5t-37.5 70t-17.5 66.5t-3 56t2.5 39.5l3 14h416q0 -2 -2.5 -13t-3.5 -17.5t-1.5 -19.5t1 -21.5t5.5 -21t11 -20.5t18.5 -17.5t27 -15t38 -9t49.5 -3.5q63 0 109.5 14t74.5 35.5t48 58.5t29 70.5t18 83.5l12 76
q-145 -109 -350 -109q-268 0 -371 158.5t-51 456.5q48 279 189.5 422t390.5 143q86 0 160.5 -18t122.5 -47t73.5 -50t42.5 -41l59 129h359l-82 -331zM764 281q125 0 233 108l66 383q-74 70 -193 70q-110 0 -183.5 -72.5t-98.5 -204.5q-27 -151 13 -217.5t163 -66.5z" />
    <glyph glyph-name="Gdotaccent" unicode="&#x120;" horiz-adv-x="1681" 
d="M805 1610l59 340h418l-59 -340h-418zM1462 203q-1 -2 -14 -15t-43.5 -35.5t-70.5 -48t-101 -52t-130 -48t-161.5 -35.5t-191.5 -14q-393 -2 -550 198t-83 621q70 402 277 583t581 181q354 0 509 -150t103 -454l-397 2q14 124 -51.5 182t-192.5 58q-156 0 -260 -100.5
t-145 -301.5q-49 -237 9.5 -356t244.5 -119q68 0 130.5 13t101.5 31.5t62 36t25 28.5l21 118h-271l45 258h654z" />
    <glyph glyph-name="gdotaccent" unicode="&#x121;" horiz-adv-x="1628" 
d="M745 1282l58 332h420l-60 -332h-418zM1343 -23q-21 -122 -36 -167q-64 -192 -267 -270q-155 -60 -395 -60q-105 0 -191 14.5t-142.5 39t-99.5 56t-65.5 66.5t-37.5 70t-17.5 66.5t-3 56t2.5 39.5l3 14h416q0 -2 -2.5 -13t-3.5 -17.5t-1.5 -19.5t1 -21.5t5.5 -21t11 -20.5
t18.5 -17.5t27 -15t38 -9t49.5 -3.5q63 0 109.5 14t74.5 35.5t48 58.5t29 70.5t18 83.5l12 76q-145 -109 -350 -109q-268 0 -371 158.5t-51 456.5q48 279 189.5 422t390.5 143q86 0 160.5 -18t122.5 -47t73.5 -50t42.5 -41l59 129h359l-82 -331zM764 281q125 0 233 108
l66 383q-74 70 -193 70q-110 0 -183.5 -72.5t-98.5 -204.5q-27 -151 13 -217.5t163 -66.5z" />
    <glyph glyph-name="Gcommaaccent" unicode="&#x122;" horiz-adv-x="1681" 
d="M1462 203q-1 -2 -14 -15t-43.5 -35.5t-70.5 -48t-101 -52t-130 -48t-161.5 -35.5t-191.5 -14q-393 -2 -550 198t-83 621q70 402 277 583t581 181q354 0 509 -150t103 -454l-397 2q14 124 -51.5 182t-192.5 58q-156 0 -260 -100.5t-145 -301.5q-49 -237 9.5 -356
t244.5 -119q68 0 130.5 13t101.5 31.5t62 36t25 28.5l21 118h-271l45 258h654zM354 -696q70 139 142 317q27 64 49.5 128.5t31.5 96.5l9 33h366q-49 -164 -137 -334q-44 -83 -86.5 -143t-62.5 -79l-21 -19h-291z" />
    <glyph glyph-name="gcommaaccent" unicode="&#x123;" horiz-adv-x="1628" 
d="M1341 1782q-75 -138 -147 -324q-28 -69 -51 -134.5t-32 -96.5l-9 -31h-367q4 21 13 56.5t43.5 129t78.5 168.5q50 82 95.5 140t65.5 75l20 17h290zM1343 -23q-21 -122 -36 -167q-64 -192 -267 -270q-155 -60 -395 -60q-105 0 -191 14.5t-142.5 39t-99.5 56t-65.5 66.5
t-37.5 70t-17.5 66.5t-3 56t2.5 39.5l3 14h416q0 -2 -2.5 -13t-3.5 -17.5t-1.5 -19.5t1 -21.5t5.5 -21t11 -20.5t18.5 -17.5t27 -15t38 -9t49.5 -3.5q63 0 109.5 14t74.5 35.5t48 58.5t29 70.5t18 83.5l12 76q-145 -109 -350 -109q-268 0 -371 158.5t-51 456.5
q48 279 189.5 422t390.5 143q86 0 160.5 -18t122.5 -47t73.5 -50t42.5 -41l59 129h359l-82 -331zM764 281q125 0 233 108l66 383q-74 70 -193 70q-110 0 -183.5 -72.5t-98.5 -204.5q-27 -151 13 -217.5t163 -66.5z" />
    <glyph glyph-name="Hcircumflex" unicode="&#x124;" horiz-adv-x="1722" 
d="M1483 1591h-318l-135 135l-170 -135h-340l340 334h385zM23 0l262 1493h426l-97 -543h553l97 543h426l-263 -1493h-426l101 571h-553l-100 -571h-426z" />
    <glyph glyph-name="hcircumflex" unicode="&#x125;" horiz-adv-x="1550" 
d="M1032 1634h-317l-135 135l-170 -135h-340l340 334h385zM53 0l277 1567h418l-99 -551q189 127 400 127q248 0 331.5 -134t30.5 -421l-104 -588h-416l106 610q15 83 -13.5 126.5t-123.5 43.5q-143 0 -272 -114l-117 -666h-418z" />
    <glyph glyph-name="Hbar" unicode="&#x126;" horiz-adv-x="1722" 
d="M1626 1135l-199 -1135h-426l101 571h-553l-100 -571h-426l198 1135h-153l28 161h154l35 197h426l-35 -197h553l35 197h426l-35 -197h137l-29 -161h-137zM1167 950l33 185h-553l-33 -185h553z" />
    <glyph glyph-name="hbar" unicode="&#x127;" horiz-adv-x="1550" 
d="M684 1217l-35 -201q189 127 400 127q248 0 331.5 -134t30.5 -421l-104 -588h-416l106 610q15 83 -13.5 126.5t-123.5 43.5q-143 0 -272 -114l-117 -666h-418l215 1217h-159l34 194h158l29 156h418l-29 -156h264l-33 -194h-266z" />
    <glyph glyph-name="Itilde" unicode="&#x128;" horiz-adv-x="743" 
d="M1051 1960q-17 -91 -37.5 -153t-55.5 -114.5t-88.5 -78t-128.5 -25.5q-73 0 -125.5 16.5t-76.5 36t-57 36t-70 16.5q-72 0 -118.5 -45t-51.5 -78l-174 31q16 90 37 153t55.5 114.5t88.5 77t128 25.5q60 0 105.5 -10.5t72 -26t48.5 -31t47.5 -26t56.5 -10.5q40 0 74 15.5
t54 37t31 40.5t13 30zM23 0l262 1493h426l-262 -1493h-426z" />
    <glyph glyph-name="itilde" unicode="&#x129;" horiz-adv-x="720" 
d="M1012 1651q-17 -92 -37.5 -154.5t-55 -115t-88 -78t-126.5 -25.5q-72 0 -126.5 17t-80 37t-59 37t-68.5 17q-72 0 -117.5 -44.5t-52.5 -79.5l-174 32q17 90 38 153t55.5 115t87.5 77.5t126 25.5q60 0 106 -11t74 -27.5t50.5 -32.5t48.5 -27t55 -11q39 0 72.5 15.5
t53.5 38t31.5 41t14.5 30.5zM51 0l199 1126h418l-199 -1126h-418z" />
    <glyph glyph-name="Imacron" unicode="&#x12a;" horiz-adv-x="743" 
d="M195 1880h768l-50 -281h-768zM23 0l262 1493h426l-262 -1493h-426z" />
    <glyph glyph-name="imacron" unicode="&#x12b;" horiz-adv-x="720" 
d="M150 1563h770l-46 -246h-768zM51 0l199 1126h418l-199 -1126h-418z" />
    <glyph glyph-name="Ibreve" unicode="&#x12c;" horiz-adv-x="743" 
d="M1032 1921q-12 -64 -43.5 -123t-87 -112.5t-146.5 -86t-206 -32.5q-73 0 -134 11.5t-105 31t-78.5 47t-54 59t-32.5 66t-12.5 70t4.5 69.5h289q-7 -44 32.5 -72t100.5 -28q55 0 112.5 28.5t63.5 71.5h297zM23 0l262 1493h426l-262 -1493h-426z" />
    <glyph glyph-name="ibreve" unicode="&#x12d;" horiz-adv-x="720" 
d="M1016 1649q-9 -51 -30.5 -101t-62.5 -102t-96 -91t-138 -64t-181 -25q-75 0 -138.5 13t-108 35.5t-80 52.5t-54.5 65t-32 72t-12 74t5 71h301q-9 -50 27 -89.5t102 -39.5q63 0 119 40.5t65 88.5h314zM51 0l199 1126h418l-199 -1126h-418z" />
    <glyph glyph-name="Iogonek" unicode="&#x12e;" horiz-adv-x="743" 
d="M-221 -248q8 43 34 84t57 69t65.5 51.5t56 34.5t31.5 15l262 1487h426l-262 -1493h-109q-7 -4 -19 -11t-42.5 -28.5t-55 -43t-47 -52.5t-26.5 -60q-12 -59 55 -59q23 0 52 9t47 17l18 9l-21 -180l-8.5 -8.5t-27 -19.5t-48 -24.5t-71.5 -19t-97 -8.5q-59 0 -106 10.5
t-76 28t-50.5 41t-29 49t-11 52t2.5 50.5z" />
    <glyph glyph-name="iogonek" unicode="&#x12f;" horiz-adv-x="720" 
d="M279 1282l57 332h420l-60 -332h-417zM-193 -248q8 43 34 84t57 69t65.5 51.5t56 34.5t31.5 15l199 1120h418l-199 -1126h-100q-7 -4 -19 -11t-43 -28.5t-55.5 -43t-47 -52.5t-26.5 -60q-12 -59 55 -59q23 0 52 9t47 17l18 9l-20 -180l-8.5 -8.5t-27 -19.5t-48 -24.5
t-71.5 -19t-97 -8.5q-87 0 -147 22t-86.5 58t-35.5 73.5t-2 77.5z" />
    <glyph glyph-name="Idotaccent" unicode="&#x130;" horiz-adv-x="743" 
d="M319 1591l60 340h418l-60 -340h-418zM23 0l262 1493h426l-262 -1493h-426z" />
    <glyph glyph-name="dotlessi" unicode="&#x131;" horiz-adv-x="720" 
d="M51 0l199 1126h418l-199 -1126h-418z" />
    <glyph glyph-name="IJ" unicode="&#x132;" horiz-adv-x="1783" 
d="M23 0l262 1493h426l-262 -1493h-426zM1636 659q-24 -137 -45.5 -220t-60.5 -166.5t-92 -127.5t-139 -81t-202.5 -50.5t-281.5 -13.5h-158l64 369h133q170 0 249.5 70.5t110.5 250.5l144 803h424z" />
    <glyph glyph-name="ij" unicode="&#x133;" horiz-adv-x="1540" 
d="M279 1282l57 332h420l-60 -332h-417zM1085 1282l58 332h420l-60 -332h-418zM51 0l199 1126h418l-199 -1126h-418zM1309 176q-35 -200 -66 -285q-64 -175 -211 -258q-176 -100 -512 -100l35 356q67 0 118 9t85.5 30.5t57.5 45t39 64.5t24 75.5t18 91.5l164 921h416z" />
    <glyph glyph-name="Jcircumflex" unicode="&#x134;" horiz-adv-x="1040" 
d="M1327 1591h-317l-136 135l-169 -135h-340l340 334h385zM893 659q-24 -137 -45.5 -220t-60.5 -166.5t-92 -127.5t-139 -81t-202.5 -50.5t-281.5 -13.5h-158l63 369h134q170 0 249.5 70.5t110.5 250.5l143 803h424z" />
    <glyph glyph-name="jcircumflex" unicode="&#x135;" horiz-adv-x="755" 
d="M985 1272h-315l-133 155l-179 -155h-348l377 387h350zM524 176q-35 -200 -66 -284q-63 -175 -209 -259q-175 -100 -513 -100l35 356q67 0 118 9t85.5 30.5t57.5 45t39 64.5t24 75.5t18 91.5l163 921h416z" />
    <glyph glyph-name="Kcommaaccent" unicode="&#x136;" horiz-adv-x="1654" 
d="M23 0l262 1493h426l-129 -735l706 735h475l-635 -619l373 -874h-444l-246 565l-317 -311l-45 -254h-426zM322 -686q69 139 141 317q27 64 49.5 128.5t31.5 96.5l9 33h367q-50 -163 -138 -333q-44 -83 -86.5 -143.5t-63.5 -79.5l-20 -19h-290z" />
    <glyph glyph-name="kcommaaccent" unicode="&#x137;" horiz-adv-x="1427" 
d="M53 0l277 1567h403l-158 -889l439 448h454l-483 -450l315 -676h-456l-154 401l-196 -184l-39 -217h-402zM238 -686q69 139 141 317q27 64 49.5 128.5t31.5 96.5l9 33h367q-50 -163 -138 -333q-44 -83 -86.5 -143.5t-63.5 -79.5l-20 -19h-290z" />
    <glyph glyph-name="kgreenlandic" unicode="&#x138;" horiz-adv-x="1427" 
d="M53 0l199 1126h403l-80 -448l439 448h454l-483 -450l315 -676h-456l-154 401l-196 -184l-39 -217h-402z" />
    <glyph glyph-name="Lacute" unicode="&#x139;" horiz-adv-x="1230" 
d="M332 1591l280 322h428l-329 -322h-379zM23 0l262 1493h426l-197 -1118h649l-67 -375h-1073z" />
    <glyph glyph-name="lacute" unicode="&#x13a;" horiz-adv-x="724" 
d="M354 1667l281 322h428l-330 -322h-379zM53 0l279 1567h416l-279 -1567h-416z" />
    <glyph glyph-name="Lcommaaccent" unicode="&#x13b;" horiz-adv-x="1230" 
d="M23 0l262 1493h426l-197 -1118h649l-67 -375h-1073zM115 -686q69 139 141 317q27 64 49.5 128.5t31.5 96.5l9 33h367q-50 -163 -138 -333q-44 -83 -86 -143.5t-63 -79.5l-20 -19h-291z" />
    <glyph glyph-name="lcommaaccent" unicode="&#x13c;" horiz-adv-x="724" 
d="M53 0l279 1567h416l-279 -1567h-416zM-170 -686q69 139 141 317q27 64 49.5 128.5t31.5 96.5l9 33h367q-49 -163 -137 -333q-44 -83 -86.5 -143.5t-62.5 -79.5l-21 -19h-291z" />
    <glyph glyph-name="Lcaron" unicode="&#x13d;" horiz-adv-x="1230" 
d="M774 1130l244 482h344l-297 -482h-291zM23 0l262 1493h426l-197 -1118h649l-67 -375h-1073z" />
    <glyph glyph-name="lcaron" unicode="&#x13e;" horiz-adv-x="724" 
d="M717 1126l219 451h328l-310 -451h-237zM53 0l279 1567h416l-279 -1567h-416z" />
    <glyph glyph-name="Ldot" unicode="&#x13f;" horiz-adv-x="1230" 
d="M23 0l262 1493h426l-197 -1118h649l-67 -375h-1073zM678 631l59 327h420l-57 -327h-422z" />
    <glyph glyph-name="ldot" unicode="&#x140;" horiz-adv-x="724" 
d="M53 0l279 1567h416l-279 -1567h-416zM643 584l57 327h422l-59 -327h-420z" />
    <glyph glyph-name="Lslash" unicode="&#x141;" horiz-adv-x="1230" 
d="M586 786l-72 -411h649l-67 -375h-1073l102 590l-176 -76l-68 225l293 125l111 629h426l-76 -432l207 88l67 -225z" />
    <glyph glyph-name="lslash" unicode="&#x142;" horiz-adv-x="724" 
d="M53 0l97 543l-181 -76l-67 225l297 127l133 748h416l-99 -557l213 92l68 -225l-330 -142l-131 -735h-416z" />
    <glyph glyph-name="Nacute" unicode="&#x143;" horiz-adv-x="1822" 
d="M893 1591l281 322h428l-330 -322h-379zM594 1016l-158 -1016h-413l268 1493h485l451 -993l153 993h410l-262 -1493h-486z" />
    <glyph glyph-name="nacute" unicode="&#x144;" horiz-adv-x="1540" 
d="M719 1278l291 393h395l-346 -393h-340zM53 0l146 817l30 309h353l12 -147q40 33 93.5 65.5t154 65.5t200.5 33q249 0 329.5 -138.5t27.5 -451.5l-99 -553h-415l100 575q18 107 -9 156t-122 49q-146 0 -268 -108l-115 -672h-418z" />
    <glyph glyph-name="Ncommaaccent" unicode="&#x145;" horiz-adv-x="1822" 
d="M594 1016l-158 -1016h-413l268 1493h485l451 -993l153 993h410l-262 -1493h-486zM410 -686q69 139 141 317q27 64 49.5 128.5t31.5 96.5l9 33h367q-50 -163 -138 -333q-44 -83 -86.5 -143.5t-63.5 -79.5l-20 -19h-290z" />
    <glyph glyph-name="ncommaaccent" unicode="&#x146;" horiz-adv-x="1540" 
d="M53 0l146 817l30 309h353l12 -147q40 33 93.5 65.5t154 65.5t200.5 33q249 0 329.5 -138.5t27.5 -451.5l-99 -553h-415l100 575q18 107 -9 156t-122 49q-146 0 -268 -108l-115 -672h-418zM262 -686q69 139 141 317q27 64 50 128.5t32 96.5l9 33h366q-49 -163 -137 -333
q-44 -83 -86.5 -143.5t-62.5 -79.5l-21 -19h-291z" />
    <glyph glyph-name="Ncaron" unicode="&#x147;" horiz-adv-x="1822" 
d="M1642 1925l-354 -334h-385l-223 334h303l135 -137l172 137h352zM594 1016l-158 -1016h-413l268 1493h485l451 -993l153 993h410l-262 -1493h-486z" />
    <glyph glyph-name="ncaron" unicode="&#x148;" horiz-adv-x="1540" 
d="M1450 1659l-383 -387h-350l-230 387h301l134 -146l178 146h350zM53 0l146 817l30 309h353l12 -147q40 33 93.5 65.5t154 65.5t200.5 33q249 0 329.5 -138.5t27.5 -451.5l-99 -553h-415l100 575q18 107 -9 156t-122 49q-146 0 -268 -108l-115 -672h-418z" />
    <glyph glyph-name="Eng" unicode="&#x14a;" horiz-adv-x="1787" 
d="M1755 1493l-262 -1493q-10 -56 -24.5 -103.5t-41 -98.5t-62 -91t-89.5 -76.5t-121.5 -60.5t-159.5 -38.5t-202 -14.5h-142l58 317h112q141 0 218.5 37t93.5 129l-564 963l-149 -963h-397l268 1493h432l504 -877l133 877h395z" />
    <glyph glyph-name="eng" unicode="&#x14b;" horiz-adv-x="1550" 
d="M1343 180q-36 -204 -67 -289q-62 -170 -203 -251q-175 -101 -520 -101l35 357q51 0 91.5 4.5t72 16t54.5 24t41 36t29.5 43.5t22 55t16.5 62.5t15 73.5l65 364q20 107 -7.5 156t-123.5 49q-87 0 -158.5 -36t-119.5 -82l-115 -662h-418l146 817l41 309h342l12 -155
q23 21 61 46t97.5 55.5t139.5 50.5t161 20q249 0 329 -138.5t27 -451.5z" />
    <glyph glyph-name="Omacron" unicode="&#x14c;" horiz-adv-x="1738" 
d="M690 1898h768l-49 -280h-768zM1622 717q-71 -402 -279.5 -582t-586.5 -180q-395 0 -554 200t-85 621q70 401 278.5 581.5t587.5 180.5q394 0 553 -200t86 -621zM541 774q-49 -234 6.5 -346.5t236.5 -112.5q171 0 272 98.5t142 303.5q47 235 -9 348t-237 113
q-326 0 -411 -404z" />
    <glyph glyph-name="omacron" unicode="&#x14d;" horiz-adv-x="1515" 
d="M549 1561h770l-45 -246h-768zM1413 532q-25 -141 -77 -244t-138.5 -177.5t-215.5 -111t-302 -36.5q-183 0 -309 43t-192 124t-85.5 198t10.5 264q24 141 75.5 244.5t138.5 178t216.5 111.5t303.5 37q360 1 495 -161t80 -470zM526 567q-32 -163 7 -227t163 -64
q126 0 195 64.5t98 216.5q32 164 -7 228.5t-163 64.5q-125 0 -194.5 -65.5t-98.5 -217.5z" />
    <glyph glyph-name="Obreve" unicode="&#x14e;" horiz-adv-x="1738" 
d="M1528 1939q-12 -64 -44 -123t-87 -112.5t-146.5 -86t-206.5 -32.5q-84 0 -153 15.5t-114.5 41.5t-79.5 61t-48 74t-20 81t4 81h289q-7 -44 32.5 -72t100.5 -28q55 0 112.5 28.5t63.5 71.5h297zM1622 717q-71 -402 -279.5 -582t-586.5 -180q-395 0 -554 200t-85 621
q70 401 278.5 581.5t587.5 180.5q394 0 553 -200t86 -621zM541 774q-49 -234 6.5 -346.5t236.5 -112.5q171 0 272 98.5t142 303.5q47 235 -9 348t-237 113q-326 0 -411 -404z" />
    <glyph glyph-name="obreve" unicode="&#x14f;" horiz-adv-x="1515" 
d="M1415 1647q-9 -51 -30.5 -101t-62.5 -102t-96 -91t-138 -64t-181 -25q-75 0 -138.5 13t-108 35.5t-80 52.5t-54.5 65t-32 72t-12 74t5 71h301q-9 -50 27.5 -89.5t102.5 -39.5q63 0 119 40.5t65 88.5h313zM1413 532q-25 -141 -77 -244t-138.5 -177.5t-215.5 -111
t-302 -36.5q-183 0 -309 43t-192 124t-85.5 198t10.5 264q24 141 75.5 244.5t138.5 178t216.5 111.5t303.5 37q360 1 495 -161t80 -470zM526 567q-32 -163 7 -227t163 -64q126 0 195 64.5t98 216.5q32 164 -7 228.5t-163 64.5q-125 0 -194.5 -65.5t-98.5 -217.5z" />
    <glyph glyph-name="Ohungarumlaut" unicode="&#x150;" horiz-adv-x="1738" 
d="M535 1614l274 321h430l-326 -321h-378zM1044 1614l330 321h430l-383 -321h-377zM1622 717q-71 -402 -279.5 -582t-586.5 -180q-395 0 -554 200t-85 621q70 401 278.5 581.5t587.5 180.5q394 0 553 -200t86 -621zM541 774q-49 -234 6.5 -346.5t236.5 -112.5
q171 0 272 98.5t142 303.5q47 235 -9 348t-237 113q-326 0 -411 -404z" />
    <glyph glyph-name="ohungarumlaut" unicode="&#x151;" horiz-adv-x="1515" 
d="M381 1276l287 393h426l-338 -393h-375zM889 1276l342 393h428l-393 -393h-377zM1413 532q-25 -141 -77 -244t-138.5 -177.5t-215.5 -111t-302 -36.5q-183 0 -309 43t-192 124t-85.5 198t10.5 264q24 141 75.5 244.5t138.5 178t216.5 111.5t303.5 37q360 1 495 -161
t80 -470zM526 567q-32 -163 7 -227t163 -64q126 0 195 64.5t98 216.5q32 164 -7 228.5t-163 64.5q-125 0 -194.5 -65.5t-98.5 -217.5z" />
    <glyph glyph-name="OE" unicode="&#x152;" horiz-adv-x="2344" 
d="M750 0q-114 0 -203.5 11t-166 36.5t-130 67t-91 101.5t-53.5 141t-13 185t26 234q25 144 62.5 253t92 188.5t121.5 132.5t158 85t194 45t236 13h1397l-62 -342h-766l-41 -242h646l-54 -309h-647l-45 -260h784l-61 -340h-1384zM545 717q-15 -84 -18.5 -145.5t6 -105
t28 -71t52 -43.5t73 -22t96.5 -6h199l149 845h-172q-85 0 -148 -20.5t-116 -71t-89.5 -139.5t-59.5 -221z" />
    <glyph glyph-name="oe" unicode="&#x153;" horiz-adv-x="2390" 
d="M2253 373q-107 -410 -680 -410q-313 0 -430 135q-147 -135 -463 -135q-183 0 -309 43t-192 124t-85.5 198t10.5 264q24 141 75.5 244.5t138.5 178t216.5 111.5t303.5 37q318 0 434 -137q146 137 461 137q341 0 473 -162t71 -520h-870q-15 -134 29 -188.5t153 -54.5
q119 0 180.5 37.5t77.5 93.5zM1722 909q-101 0 -164 -47.5t-102 -156.5h438q3 122 -36.5 163t-135.5 41zM520 532q-25 -141 10.5 -198.5t151.5 -57.5q140 0 211.5 68t101.5 248q25 141 -10 199.5t-149 58.5q-141 0 -213 -68.5t-103 -249.5z" />
    <glyph glyph-name="Racute" unicode="&#x154;" horiz-adv-x="1687" 
d="M748 1591l280 322h428l-330 -322h-378zM23 0l264 1493h678q103 0 186 -6t154.5 -20t124.5 -36.5t94.5 -55.5t67 -76.5t38 -99.5t11 -125t-16.5 -154q-34 -194 -112.5 -300t-225.5 -153l174 -467h-448l-125 416h-367l-71 -416h-426zM649 1151l-67 -395h206q79 0 132.5 4
t104.5 16.5t83 35.5t55 61t33 92q4 25 4.5 45t-3.5 37t-11 30.5t-19 24t-26.5 18t-35 13t-42.5 9t-52 5.5t-59.5 3t-68.5 1h-234z" />
    <glyph glyph-name="racute" unicode="&#x155;" horiz-adv-x="1052" 
d="M487 1278l291 393h396l-347 -393h-340zM53 0l140 786l36 340h355l12 -194q14 27 32.5 52t59 58.5t90.5 58t130.5 41.5t176.5 17l-36 -362q-86 0 -162 -18t-125.5 -43t-92 -60t-63 -59.5t-37.5 -49.5l-98 -567h-418z" />
    <glyph glyph-name="Rcommaaccent" unicode="&#x156;" horiz-adv-x="1687" 
d="M23 0l264 1493h678q103 0 186 -6t154.5 -20t124.5 -36.5t94.5 -55.5t67 -76.5t38 -99.5t11 -125t-16.5 -154q-34 -194 -112.5 -300t-225.5 -153l174 -467h-448l-125 416h-367l-71 -416h-426zM649 1151l-67 -395h206q79 0 132.5 4t104.5 16.5t83 35.5t55 61t33 92
q4 25 4.5 45t-3.5 37t-11 30.5t-19 24t-26.5 18t-35 13t-42.5 9t-52 5.5t-59.5 3t-68.5 1h-234zM281 -686q69 139 141 317q27 64 49.5 128.5t31.5 96.5l9 33h367q-50 -163 -138 -333q-44 -83 -86.5 -143.5t-62.5 -79.5l-21 -19h-290z" />
    <glyph glyph-name="rcommaaccent" unicode="&#x157;" horiz-adv-x="1052" 
d="M53 0l140 786l36 340h355l12 -194q14 27 32.5 52t59 58.5t90.5 58t130.5 41.5t176.5 17l-36 -362q-86 0 -162 -18t-125.5 -43t-92 -60t-63 -59.5t-37.5 -49.5l-98 -567h-418zM-182 -686q69 139 141 317q27 64 49.5 128.5t31.5 96.5l9 33h367q-49 -163 -137 -333
q-44 -83 -86.5 -143.5t-62.5 -79.5l-21 -19h-291z" />
    <glyph glyph-name="Rcaron" unicode="&#x158;" horiz-adv-x="1687" 
d="M1497 1925l-354 -334h-385l-223 334h303l135 -137l172 137h352zM23 0l264 1493h678q103 0 186 -6t154.5 -20t124.5 -36.5t94.5 -55.5t67 -76.5t38 -99.5t11 -125t-16.5 -154q-34 -194 -112.5 -300t-225.5 -153l174 -467h-448l-125 416h-367l-71 -416h-426zM649 1151
l-67 -395h206q79 0 132.5 4t104.5 16.5t83 35.5t55 61t33 92q4 25 4.5 45t-3.5 37t-11 30.5t-19 24t-26.5 18t-35 13t-42.5 9t-52 5.5t-59.5 3t-68.5 1h-234z" />
    <glyph glyph-name="rcaron" unicode="&#x159;" horiz-adv-x="1052" 
d="M1219 1659l-383 -387h-351l-229 387h301l133 -146l178 146h351zM53 0l140 786l36 340h355l12 -194q14 27 32.5 52t59 58.5t90.5 58t130.5 41.5t176.5 17l-36 -362q-86 0 -162 -18t-125.5 -43t-92 -60t-63 -59.5t-37.5 -49.5l-98 -567h-418z" />
    <glyph glyph-name="Sacute" unicode="&#x15a;" horiz-adv-x="1617" 
d="M762 1610l280 321h428l-329 -321h-379zM1458 422q-41 -241 -232 -355t-534 -112q-348 2 -513.5 144.5t-117.5 426.5h408q-21 -123 47.5 -178t220.5 -57q78 -1 138.5 12t105.5 49t55 94q7 42 -21 70t-82 44t-125.5 28t-150.5 25t-157 30.5t-145.5 50t-115.5 78.5
t-67.5 121t-1.5 172q88 476 741 473q366 0 514.5 -140t100.5 -413h-402q9 46 2.5 85t-28 67t-74 44t-135.5 17q-141 1 -214.5 -42.5t-84.5 -121.5q-8 -42 20.5 -70.5t82 -44.5t125 -27.5t150.5 -24t157 -29t145.5 -48.5t116 -77.5t68.5 -119.5t3 -171z" />
    <glyph glyph-name="sacute" unicode="&#x15b;" horiz-adv-x="1419" 
d="M653 1278l291 393h395l-346 -393h-340zM1294 315q-30 -179 -186.5 -266t-486.5 -86q-314 1 -465.5 117t-114.5 317l391 -2q-12 -69 36.5 -116t176.5 -48q112 -1 171 30t69 85q9 45 -32 69.5t-112.5 33.5t-159 16t-173 25t-153.5 51t-102.5 103t-17.5 173q55 349 647 346
q311 -1 451 -103.5t106 -299.5l-383 2q7 22 0 46.5t-23 45.5t-60 34.5t-109 14.5q-116 1 -168.5 -35t-58.5 -80q-6 -35 26.5 -56.5t90 -29t131.5 -16t151.5 -16.5t149 -32t124 -60t76.5 -103.5t8 -159.5z" />
    <glyph glyph-name="Scircumflex" unicode="&#x15c;" horiz-adv-x="1617" 
d="M1444 1610h-318l-135 135l-170 -135h-340l340 334h385zM1458 422q-41 -241 -232 -355t-534 -112q-348 2 -513.5 144.5t-117.5 426.5h408q-21 -123 47.5 -178t220.5 -57q78 -1 138.5 12t105.5 49t55 94q7 42 -21 70t-82 44t-125.5 28t-150.5 25t-157 30.5t-145.5 50
t-115.5 78.5t-67.5 121t-1.5 172q88 476 741 473q366 0 514.5 -140t100.5 -413h-402q9 46 2.5 85t-28 67t-74 44t-135.5 17q-141 1 -214.5 -42.5t-84.5 -121.5q-8 -42 20.5 -70.5t82 -44.5t125 -27.5t150.5 -24t157 -29t145.5 -48.5t116 -77.5t68.5 -119.5t3 -171z" />
    <glyph glyph-name="scircumflex" unicode="&#x15d;" horiz-adv-x="1419" 
d="M1309 1272h-316l-133 155l-178 -155h-348l377 387h350zM1294 315q-30 -179 -186.5 -266t-486.5 -86q-314 1 -465.5 117t-114.5 317l391 -2q-12 -69 36.5 -116t176.5 -48q112 -1 171 30t69 85q9 45 -32 69.5t-112.5 33.5t-159 16t-173 25t-153.5 51t-102.5 103t-17.5 173
q55 349 647 346q311 -1 451 -103.5t106 -299.5l-383 2q7 22 0 46.5t-23 45.5t-60 34.5t-109 14.5q-116 1 -168.5 -35t-58.5 -80q-6 -35 26.5 -56.5t90 -29t131.5 -16t151.5 -16.5t149 -32t124 -60t76.5 -103.5t8 -159.5z" />
    <glyph glyph-name="Scedilla" unicode="&#x15e;" horiz-adv-x="1617" 
d="M948 -406q-8 -52 -31 -88.5t-72 -65t-134 -42.5t-209 -14q-81 0 -145.5 7.5t-88.5 14.5l-24 8l14 158q0 -4 107 -4q87 0 138 34t62 93q6 40 -24 53.5t-97 15.5h-77l147 203q-259 34 -377 173.5t-76 385.5h408q-21 -123 47.5 -178t220.5 -57q78 -1 138.5 12t105.5 49
t55 94q7 42 -21 70t-82 44t-125.5 28t-150.5 25t-157 30.5t-145.5 50t-115.5 78.5t-67.5 121t-1.5 172q88 476 741 473q366 0 514.5 -140t100.5 -413h-402q9 46 2.5 85t-28 67t-74 44t-135.5 17q-141 1 -214.5 -42.5t-84.5 -121.5q-8 -42 20.5 -70.5t82 -44.5t125 -27.5
t150.5 -24t157 -29t145.5 -48.5t116 -77.5t68.5 -119.5t3 -171q-36 -212 -188.5 -324.5t-421.5 -136.5l-94 -127q96 -9 155 -68t39 -172z" />
    <glyph glyph-name="scedilla" unicode="&#x15f;" horiz-adv-x="1419" 
d="M883 -373q-8 -52 -31.5 -88.5t-72.5 -65.5t-134 -43t-209 -14q-81 0 -145.5 8t-88.5 16l-24 7l15 158q0 -4 106 -4q87 0 138.5 34t62.5 93q6 40 -24 53.5t-97 15.5h-78l129 180q-219 32 -319.5 142t-69.5 278l391 -2q-12 -69 36.5 -116t176.5 -48q112 -1 171 30t69 85
q9 45 -32 69.5t-112.5 33.5t-159 16t-173 25t-153.5 51t-102.5 103t-17.5 173q55 349 647 346q311 -1 451 -103.5t106 -299.5l-383 2q7 22 0 46.5t-23 45.5t-60 34.5t-109 14.5q-116 1 -168.5 -35t-58.5 -80q-6 -35 26.5 -56.5t90 -29t131.5 -16t151.5 -16.5t149 -32
t124 -60t76.5 -103.5t8 -159.5q-27 -159 -151 -244.5t-379 -103.5l-76 -100q44 -4 81.5 -19t68 -42.5t43 -73.5t2.5 -105z" />
    <glyph glyph-name="Scaron" unicode="&#x160;" horiz-adv-x="1617" 
d="M1511 1944l-354 -334h-385l-223 334h303l135 -138l172 138h352zM1458 422q-41 -241 -232 -355t-534 -112q-348 2 -513.5 144.5t-117.5 426.5h408q-21 -123 47.5 -178t220.5 -57q78 -1 138.5 12t105.5 49t55 94q7 42 -21 70t-82 44t-125.5 28t-150.5 25t-157 30.5
t-145.5 50t-115.5 78.5t-67.5 121t-1.5 172q88 476 741 473q366 0 514.5 -140t100.5 -413h-402q9 46 2.5 85t-28 67t-74 44t-135.5 17q-141 1 -214.5 -42.5t-84.5 -121.5q-8 -42 20.5 -70.5t82 -44.5t125 -27.5t150.5 -24t157 -29t145.5 -48.5t116 -77.5t68.5 -119.5t3 -171
z" />
    <glyph glyph-name="scaron" unicode="&#x161;" horiz-adv-x="1419" 
d="M1384 1659l-383 -387h-350l-229 387h301l133 -146l178 146h350zM1294 315q-30 -179 -186.5 -266t-486.5 -86q-314 1 -465.5 117t-114.5 317l391 -2q-12 -69 36.5 -116t176.5 -48q112 -1 171 30t69 85q9 45 -32 69.5t-112.5 33.5t-159 16t-173 25t-153.5 51t-102.5 103
t-17.5 173q55 349 647 346q311 -1 451 -103.5t106 -299.5l-383 2q7 22 0 46.5t-23 45.5t-60 34.5t-109 14.5q-116 1 -168.5 -35t-58.5 -80q-6 -35 26.5 -56.5t90 -29t131.5 -16t151.5 -16.5t149 -32t124 -60t76.5 -103.5t8 -159.5z" />
    <glyph glyph-name="uni0162" unicode="&#x162;" horiz-adv-x="1323" 
d="M748 -381q-8 -52 -31.5 -88.5t-72.5 -65.5t-134 -43t-209 -14q-81 0 -145.5 8t-88.5 16l-24 7l14 158q0 -5 107 -5q87 0 138.5 34t62.5 93q6 40 -24 54t-97 16h-78l153 211l199 1118h-481l65 375h1375l-68 -375h-467l-199 -1118h-84l-106 -141q44 -4 81.5 -19t68 -42.5
t43 -73.5t2.5 -105z" />
    <glyph glyph-name="uni0163" unicode="&#x163;" horiz-adv-x="899" 
d="M750 -334q-8 -52 -31.5 -88.5t-72.5 -65.5t-134 -43t-209 -14q-81 0 -145.5 7.5t-88.5 15.5l-24 8l14 158q0 -4 107 -4q87 0 138.5 34t62.5 93q6 40 -24 53.5t-97 15.5h-78l154 209q-52 21 -89.5 50.5t-59 68t-32.5 81t-11.5 96.5t5 106t17.5 118l49 285h-162l49 276h162
l53 297l428 62l-63 -359h272l-49 -276h-273l-51 -299q-22 -122 5 -166.5t133 -44.5h104l-61 -340h-123l-70 -94q44 -4 81.5 -19t68 -42.5t43 -73.5t2.5 -105z" />
    <glyph glyph-name="Tcaron" unicode="&#x164;" horiz-adv-x="1323" 
d="M1354 1925l-355 -334h-385l-223 334h303l135 -137l172 137h353zM319 0l199 1118h-481l65 375h1375l-68 -375h-467l-199 -1118h-424z" />
    <glyph glyph-name="tcaron" unicode="&#x165;" horiz-adv-x="899" 
d="M750 1180l219 450h327l-309 -450h-237zM748 0h-109q-111 0 -195.5 14.5t-141.5 39t-93.5 65.5t-54.5 84.5t-22 105.5t1.5 120t18.5 136l49 285h-162l49 276h162l53 297l428 62l-63 -359h272l-49 -276h-273l-51 -299q-22 -122 5 -166.5t133 -44.5h104z" />
    <glyph glyph-name="Tbar" unicode="&#x166;" horiz-adv-x="1323" 
d="M319 0l95 530h-211l35 195h211l69 393h-481l65 375h1375l-68 -375h-467l-70 -393h205l-33 -195h-206l-95 -530h-424z" />
    <glyph glyph-name="tbar" unicode="&#x167;" horiz-adv-x="899" 
d="M559 494q-9 -87 21.5 -120.5t124.5 -33.5h104l-61 -340h-109q-120 0 -209 16t-146 46.5t-93 74.5t-49 99t-14 120t11 138h-149l35 194h147l29 162h-162l49 276h162l53 297l428 62l-63 -359h272l-49 -276h-273l-28 -162h274l-33 -194h-272z" />
    <glyph glyph-name="Utilde" unicode="&#x168;" horiz-adv-x="1640" 
d="M1481 1960q-17 -91 -37.5 -153t-55.5 -114.5t-88.5 -78t-128.5 -25.5q-73 0 -125.5 16.5t-76.5 36t-57 36t-70 16.5q-72 0 -118.5 -45t-51.5 -78l-174 31q16 90 37 153t55.5 114.5t88.5 77t128 25.5q60 0 105.5 -10.5t72 -26t48.5 -31t47.5 -26t56.5 -10.5q40 0 74 15.5
t54 37t31 40.5t13 30zM1509 758q-19 -107 -38 -188.5t-46 -162t-59.5 -139t-77 -112t-100.5 -89t-128 -62t-161.5 -38.5t-198.5 -12q-128 0 -226 18.5t-167 52.5t-114 89.5t-68.5 120.5t-28 155t4 184.5t30.5 215.5l123 702h424l-121 -700q-33 -173 -27 -275t52.5 -143
t152.5 -41q149 0 227.5 102.5t122.5 354.5l123 702h430z" />
    <glyph glyph-name="utilde" unicode="&#x169;" horiz-adv-x="1550" 
d="M1417 1651q-17 -92 -37.5 -154.5t-55 -115t-88 -78t-126.5 -25.5q-72 0 -126.5 17t-80 37t-59 37t-68.5 17q-72 0 -117.5 -44.5t-52.5 -79.5l-174 32q17 90 38 153t55.5 115t87.5 77.5t126 25.5q60 0 106 -11t74 -27.5t50.5 -32.5t48.5 -27t55 -11q39 0 72.5 15.5
t53.5 38t31.5 41t14.5 30.5zM952 0l-16 160q-27 -25 -65 -51t-95.5 -57t-132.5 -50.5t-151 -19.5q-249 0 -335 135t-34 422l106 585h416l-108 -610q-14 -91 13 -130.5t114 -39.5q84 0 157 38.5t125 88.5l115 655h418l-144 -813l-30 -313h-353z" />
    <glyph glyph-name="Umacron" unicode="&#x16a;" horiz-adv-x="1640" 
d="M625 1880h768l-50 -281h-768zM1509 758q-19 -107 -38 -188.5t-46 -162t-59.5 -139t-77 -112t-100.5 -89t-128 -62t-161.5 -38.5t-198.5 -12q-128 0 -226 18.5t-167 52.5t-114 89.5t-68.5 120.5t-28 155t4 184.5t30.5 215.5l123 702h424l-121 -700q-33 -173 -27 -275
t52.5 -143t152.5 -41q149 0 227.5 102.5t122.5 354.5l123 702h430z" />
    <glyph glyph-name="umacron" unicode="&#x16b;" horiz-adv-x="1550" 
d="M555 1563h770l-45 -246h-768zM952 0l-16 160q-27 -25 -65 -51t-95.5 -57t-132.5 -50.5t-151 -19.5q-249 0 -335 135t-34 422l106 585h416l-108 -610q-14 -91 13 -130.5t114 -39.5q84 0 157 38.5t125 88.5l115 655h418l-144 -813l-30 -313h-353z" />
    <glyph glyph-name="Ubreve" unicode="&#x16c;" horiz-adv-x="1640" 
d="M1462 1921q-12 -64 -43.5 -123t-87 -112.5t-146.5 -86t-206 -32.5q-73 0 -134 11.5t-105 31t-78.5 47t-54 59t-32.5 66t-12.5 70t4.5 69.5h289q-7 -44 32.5 -72t100.5 -28q55 0 112.5 28.5t63.5 71.5h297zM1509 758q-19 -107 -38 -188.5t-46 -162t-59.5 -139t-77 -112
t-100.5 -89t-128 -62t-161.5 -38.5t-198.5 -12q-128 0 -226 18.5t-167 52.5t-114 89.5t-68.5 120.5t-28 155t4 184.5t30.5 215.5l123 702h424l-121 -700q-33 -173 -27 -275t52.5 -143t152.5 -41q149 0 227.5 102.5t122.5 354.5l123 702h430z" />
    <glyph glyph-name="ubreve" unicode="&#x16d;" horiz-adv-x="1550" 
d="M1421 1649q-9 -51 -30.5 -101t-62.5 -102t-96 -91t-138 -64t-181 -25q-87 0 -158.5 17.5t-117.5 47t-80 68t-47.5 81t-19.5 86t4 83.5h301q-9 -50 27 -89.5t102 -39.5q63 0 119 40.5t65 88.5h313zM952 0l-16 160q-27 -25 -65 -51t-95.5 -57t-132.5 -50.5t-151 -19.5
q-249 0 -335 135t-34 422l106 585h416l-108 -610q-14 -91 13 -130.5t114 -39.5q84 0 157 38.5t125 88.5l115 655h418l-144 -813l-30 -313h-353z" />
    <glyph glyph-name="Uring" unicode="&#x16e;" horiz-adv-x="1640" 
d="M1286 1821q-21 -121 -101.5 -179.5t-207.5 -58.5q-144 0 -217 77.5t-49 219.5q41 236 309 236q145 0 217.5 -76.5t48.5 -218.5zM924 1843q-6 -35 11.5 -51t49.5 -16q36 0 59 22t29 60q6 33 -11.5 50t-47.5 17q-36 0 -60 -23t-30 -59zM1509 758q-19 -107 -38 -188.5
t-46 -162t-59.5 -139t-77 -112t-100.5 -89t-128 -62t-161.5 -38.5t-198.5 -12q-128 0 -226 18.5t-167 52.5t-114 89.5t-68.5 120.5t-28 155t4 184.5t30.5 215.5l123 702h424l-121 -700q-33 -173 -27 -275t52.5 -143t152.5 -41q149 0 227.5 102.5t122.5 354.5l123 702h430z
" />
    <glyph glyph-name="uring" unicode="&#x16f;" horiz-adv-x="1550" 
d="M1219 1485q-21 -119 -102 -177.5t-208 -58.5q-145 0 -217.5 77t-46.5 218q41 236 307 236q145 0 218 -76t49 -219zM858 1507q-6 -33 11.5 -50t48.5 -17q35 0 58.5 23t29.5 59q4 34 -12.5 50.5t-47.5 16.5q-35 0 -58.5 -23t-29.5 -59zM952 0l-16 160q-27 -25 -65 -51
t-95.5 -57t-132.5 -50.5t-151 -19.5q-249 0 -335 135t-34 422l106 585h416l-108 -610q-14 -91 13 -130.5t114 -39.5q84 0 157 38.5t125 88.5l115 655h418l-144 -813l-30 -313h-353z" />
    <glyph glyph-name="Uhungarumlaut" unicode="&#x170;" horiz-adv-x="1640" 
d="M469 1595l274 322h431l-326 -322h-379zM979 1595l330 322h430l-383 -322h-377zM1509 758q-19 -107 -38 -188.5t-46 -162t-59.5 -139t-77 -112t-100.5 -89t-128 -62t-161.5 -38.5t-198.5 -12q-128 0 -226 18.5t-167 52.5t-114 89.5t-68.5 120.5t-28 155t4 184.5
t30.5 215.5l123 702h424l-121 -700q-33 -173 -27 -275t52.5 -143t152.5 -41q149 0 227.5 102.5t122.5 354.5l123 702h430z" />
    <glyph glyph-name="uhungarumlaut" unicode="&#x171;" horiz-adv-x="1550" 
d="M387 1278l287 393h426l-338 -393h-375zM895 1278l342 393h428l-393 -393h-377zM952 0l-16 160q-27 -25 -65 -51t-95.5 -57t-132.5 -50.5t-151 -19.5q-249 0 -335 135t-34 422l106 585h416l-108 -610q-14 -91 13 -130.5t114 -39.5q84 0 157 38.5t125 88.5l115 655h418
l-144 -813l-30 -313h-353z" />
    <glyph glyph-name="Uogonek" unicode="&#x172;" horiz-adv-x="1640" 
d="M629 -176q10 65 69 131q-99 0 -180.5 11t-144.5 32t-110 54.5t-80 74t-52.5 95t-28.5 114t-7.5 134t10.5 151t26 170.5l123 702h424l-121 -700q-33 -173 -27 -275t52.5 -143t152.5 -41q149 0 227.5 102.5t122.5 354.5l123 702h430l-129 -735q-21 -118 -42.5 -206
t-52.5 -172.5t-69.5 -146t-92.5 -112.5t-122 -86q-119 -82 -131 -158q-12 -59 56 -59q23 0 52 9t47 17l17 9l-20 -181l-8.5 -8.5t-27 -19.5t-48 -24.5t-71.5 -19t-97 -8.5q-59 0 -106 10.5t-76 28.5t-50.5 41t-29 49t-11 52.5t2.5 50.5z" />
    <glyph glyph-name="uogonek" unicode="&#x173;" horiz-adv-x="1550" 
d="M707 -248q7 43 33 84t56.5 69t65 51.5t56.5 34.5t32 15l-14 154q-27 -25 -65 -51t-95.5 -57t-132.5 -50.5t-151 -19.5q-249 0 -335 135t-34 422l106 585h416l-108 -610q-14 -91 13 -130.5t114 -39.5q84 0 157 38.5t125 88.5l115 655h418l-144 -813l-30 -313h-37
q-7 -4 -19 -11t-43 -28.5t-55.5 -43t-47 -52.5t-26.5 -60q-12 -59 56 -59q23 0 52 9t47 17l17 9l-20 -180l-8.5 -8.5t-27 -19.5t-48 -24.5t-71.5 -19t-97 -8.5q-59 0 -106 10.5t-76 28t-50.5 41t-29 49t-11 52t2.5 50.5z" />
    <glyph glyph-name="Wcircumflex" unicode="&#x174;" horiz-adv-x="2531" 
d="M1905 1591h-318l-135 135l-170 -135h-340l340 334h385zM1329 1108l-407 -1108h-617l-180 1493h504l41 -1149l442 1149h580l30 -1145l467 1145h480l-721 -1493h-613z" />
    <glyph glyph-name="wcircumflex" unicode="&#x175;" horiz-adv-x="2119" 
d="M1657 1272h-316l-133 155l-178 -155h-348l377 387h350zM1071 688l-285 -688h-503l-185 1126h455l49 -774l332 774h450l62 -764l305 764h463l-547 -1126h-532z" />
    <glyph glyph-name="Ycircumflex" unicode="&#x176;" horiz-adv-x="1501" 
d="M1356 1591h-318l-135 135l-170 -135h-340l340 334h385zM393 0l72 408l-365 1085h465l170 -702l400 702h507l-755 -1092h-4l-70 -401h-420z" />
    <glyph glyph-name="ycircumflex" unicode="&#x177;" horiz-adv-x="1390" 
d="M1276 1272h-315l-134 155l-178 -155h-348l377 387h350zM233 -483l236 483h-166l-237 1126h448l127 -778l381 778h459l-844 -1609h-404z" />
    <glyph glyph-name="Ydieresis" unicode="&#x178;" horiz-adv-x="1501" 
d="M377 1591l59 340h418l-59 -340h-418zM946 1591l62 340h417l-61 -340h-418zM393 0l72 408l-365 1085h465l170 -702l400 702h507l-755 -1092h-4l-70 -401h-420z" />
    <glyph glyph-name="Zacute" unicode="&#x179;" horiz-adv-x="1472" 
d="M688 1591l281 322h428l-330 -322h-379zM-59 4l32 176l27 182l860 768h-694l61 357h1274l-22 -119h2l-39 -238l-871 -768h752l-63 -358h-1319z" />
    <glyph glyph-name="zacute" unicode="&#x17a;" horiz-adv-x="1249" 
d="M578 1278l290 393h396l-346 -393h-340zM-25 0l33 182l19 127l655 512h-539l56 305h1069l-33 -186l-16 -117l-656 -514h561l-55 -309h-1094z" />
    <glyph glyph-name="Zdotaccent" unicode="&#x17b;" horiz-adv-x="1472" 
d="M678 1591l59 340h418l-59 -340h-418zM-59 4l32 176l27 182l860 768h-694l61 357h1274l-22 -119h2l-39 -238l-871 -768h752l-63 -358h-1319z" />
    <glyph glyph-name="zdotaccent" unicode="&#x17c;" horiz-adv-x="1249" 
d="M549 1282l57 332h420l-59 -332h-418zM-25 0l33 182l19 127l655 512h-539l56 305h1069l-33 -186l-16 -117l-656 -514h561l-55 -309h-1094z" />
    <glyph glyph-name="Zcaron" unicode="&#x17d;" horiz-adv-x="1472" 
d="M1438 1925l-355 -334h-385l-223 334h303l135 -137l172 137h353zM-59 4l32 176l27 182l860 768h-694l61 357h1274l-22 -119h2l-39 -238l-871 -768h752l-63 -358h-1319z" />
    <glyph glyph-name="zcaron" unicode="&#x17e;" horiz-adv-x="1249" 
d="M1309 1659l-383 -387h-351l-229 387h301l133 -146l178 146h351zM-25 0l33 182l19 127l655 512h-539l56 305h1069l-33 -186l-16 -117l-656 -514h561l-55 -309h-1094z" />
    <glyph glyph-name="uni018F" unicode="&#x18f;" horiz-adv-x="1726" 
d="M1608 713q-72 -400 -278 -579t-585 -179q-399 0 -552 206.5t-72 663.5h1085q21 178 -41.5 265.5t-220.5 87.5q-113 0 -207 -52.5t-145 -154.5l-434 -2q87 304 287 436.5t528 132.5q396 0 552.5 -200t82.5 -625zM778 315q151 0 240 61.5t139 209.5h-639q-3 -139 60 -205
t200 -66z" />
    <glyph glyph-name="uni019D" unicode="&#x19d;" horiz-adv-x="1820" 
d="M614 1067l-178 -1067q-14 -81 -37 -145.5t-72.5 -130t-121 -109t-186.5 -71t-265 -27.5h-139l55 317h115q130 0 193.5 38.5t78.5 127.5l267 1493h485l424 -1053l162 1053h393l-262 -1493h-469z" />
    <glyph glyph-name="Gcaron" unicode="&#x1e6;" horiz-adv-x="1681" 
d="M1565 1944l-355 -334h-385l-223 334h303l135 -138l172 138h353zM1462 203q-1 -2 -14 -15t-43.5 -35.5t-70.5 -48t-101 -52t-130 -48t-161.5 -35.5t-191.5 -14q-393 -2 -550 198t-83 621q70 402 277 583t581 181q354 0 509 -150t103 -454l-397 2q14 124 -51.5 182
t-192.5 58q-156 0 -260 -100.5t-145 -301.5q-49 -237 9.5 -356t244.5 -119q68 0 130.5 13t101.5 31.5t62 36t25 28.5l21 118h-271l45 258h654z" />
    <glyph glyph-name="gcaron" unicode="&#x1e7;" horiz-adv-x="1628" 
d="M1505 1659l-383 -387h-350l-229 387h301l133 -146l178 146h350zM1343 -23q-21 -122 -36 -167q-64 -192 -267 -270q-155 -60 -395 -60q-105 0 -191 14.5t-142.5 39t-99.5 56t-65.5 66.5t-37.5 70t-17.5 66.5t-3 56t2.5 39.5l3 14h416q0 -2 -2.5 -13t-3.5 -17.5t-1.5 -19.5
t1 -21.5t5.5 -21t11 -20.5t18.5 -17.5t27 -15t38 -9t49.5 -3.5q63 0 109.5 14t74.5 35.5t48 58.5t29 70.5t18 83.5l12 76q-145 -109 -350 -109q-268 0 -371 158.5t-51 456.5q48 279 189.5 422t390.5 143q86 0 160.5 -18t122.5 -47t73.5 -50t42.5 -41l59 129h359l-82 -331z
M764 281q125 0 233 108l66 383q-74 70 -193 70q-110 0 -183.5 -72.5t-98.5 -204.5q-27 -151 13 -217.5t163 -66.5z" />
    <glyph glyph-name="uni01EA" unicode="&#x1ea;" horiz-adv-x="1738" 
d="M702 -166q8 60 62 121h-8q-395 0 -554 200t-85 621q70 401 278.5 581.5t587.5 180.5q394 0 553 -200t86 -621q-47 -265 -152.5 -431.5t-275.5 -246.5q-112 -81 -121 -152q-12 -59 55 -59q23 0 52 9t47 17l18 9l-20 -180l-8.5 -8.5t-27 -19.5t-48 -24.5t-71.5 -19
t-97 -8.5q-87 0 -147 22t-86.5 58t-35.5 73.5t-2 77.5zM541 774q-49 -234 6.5 -346.5t236.5 -112.5q171 0 272 98.5t142 303.5q47 235 -9 348t-237 113q-326 0 -411 -404z" />
    <glyph glyph-name="uni01EB" unicode="&#x1eb;" horiz-adv-x="1515" 
d="M551 -190q13 81 92 153q-339 9 -466.5 170t-72.5 459q24 141 75.5 244.5t138.5 178t216.5 111.5t303.5 37q360 1 495 -161t80 -470q-33 -187 -116 -312t-228 -189q-136 -88 -147 -168q-12 -60 55 -60q23 0 52 8.5t47 17.5l18 9l-21 -180l-8.5 -8.5t-27 -19.5t-48 -24.5
t-71.5 -19t-97 -8.5q-59 0 -106 10.5t-76 28.5t-50.5 41t-29 49t-11 52.5t2.5 50.5zM526 567q-32 -163 7 -227t163 -64q126 0 195 64.5t98 216.5q32 164 -7 228.5t-163 64.5q-125 0 -194.5 -65.5t-98.5 -217.5z" />
    <glyph glyph-name="Aringacute" unicode="&#x1fa;" horiz-adv-x="1665" 
d="M897 2226l281 322h428l-330 -322h-379zM1313 1821q-21 -121 -101.5 -179.5t-207.5 -58.5q-144 0 -217.5 77.5t-49.5 219.5q41 236 310 236q145 0 217.5 -76.5t48.5 -218.5zM950 1843q-6 -35 12 -51t50 -16q36 0 59 22t29 60q6 33 -12 50t-48 17q-36 0 -60 -23t-30 -59z
M-145 0l847 1493h515l321 -1493h-455l-34 219h-621l-111 -219h-462zM588 528h411l-98 613z" />
    <glyph glyph-name="aringacute" unicode="&#x1fb;" horiz-adv-x="1501" 
d="M823 1872l291 393h395l-346 -393h-340zM1221 1501q-21 -119 -102 -177t-208 -58q-145 0 -217.5 77t-46.5 218q41 235 307 235q145 0 218 -76t49 -219zM860 1524q-6 -34 11.5 -51t48.5 -17q35 0 58.5 23t29.5 59q4 34 -12.5 51t-47.5 17q-35 0 -58.5 -23t-29.5 -59zM903 0
l-18 76q-176 -113 -389 -113q-247 0 -360.5 97t-78.5 292q16 99 63.5 168t123 106.5t163.5 53.5t203 16q211 0 348 -18l3 4q15 76 11 122.5t-43 66.5t-132 20q-115 0 -175 -40t-69 -91l-360 2q5 29 12.5 56.5t26.5 68t46 74.5t73 70.5t103.5 62t143 41.5t186.5 16
q133 0 233 -17t166.5 -44.5t108 -76t61 -97t22 -122t-4.5 -137t-24 -155.5l-35 -185l-33 -317h-375zM625 236q144 0 272 86l29 159q-65 6 -162 6q-132 0 -200 -30.5t-81 -102.5q-11 -60 22.5 -89t119.5 -29z" />
    <glyph glyph-name="AEacute" unicode="&#x1fc;" horiz-adv-x="2369" 
d="M1030 1591l281 322h428l-330 -322h-379zM-145 0l1085 1493h1464l-61 -342h-768l-41 -242h647l-53 -309h-649l-45 -260h784l-59 -340h-1209l43 252h-489l-170 -252h-479zM1049 563l116 660l-448 -660h332z" />
    <glyph glyph-name="aeacute" unicode="&#x1fd;" horiz-adv-x="2306" 
d="M1147 1278l291 393h395l-346 -393h-340zM2167 369q-102 -406 -678 -406q-373 0 -512 187q-202 -179 -479 -179q-506 0 -441 381q16 99 63 166.5t122.5 104t163 51t204.5 14.5h324q20 69 41 117q1 54 -38.5 70t-137.5 16q-116 0 -176.5 -40t-69.5 -91l-360 2
q5 29 12.5 56.5t26.5 68t46 74.5t73 70.5t103.5 62t143 41.5t186.5 16q248 0 381 -111q177 123 482 123q342 0 474 -161.5t70 -520.5h-870q-15 -134 29 -188.5t153 -54.5q119 0 180.5 37.5t77.5 93.5h406zM1638 909q-102 0 -165.5 -47.5t-102.5 -156.5h438q3 122 -36 163
t-134 41zM905 328q-12 70 -6 151h-137q-136 0 -201.5 -28.5t-77.5 -104.5q-8 -51 25.5 -80.5t116.5 -29.5q153 0 280 92z" />
    <glyph glyph-name="Oslashacute" unicode="&#x1fe;" horiz-adv-x="1738" 
d="M707 1591l280 322h428l-330 -322h-378zM12 -27l183 189q-151 204 -78 614q70 401 278.5 581.5t587.5 180.5q278 0 438 -100l72 75h201l-164 -170q165 -198 92 -626q-71 -402 -279.5 -582t-586.5 -180q-292 0 -455 108l-86 -90h-203zM541 774q-36 -169 -19 -270l606 631
q-64 43 -176 43q-326 0 -411 -404zM1198 717q37 181 10 293l-614 -641q66 -54 190 -54q171 0 272 98.5t142 303.5z" />
    <glyph glyph-name="oslashacute" unicode="&#x1ff;" horiz-adv-x="1515" 
d="M707 1276l290 393h396l-346 -393h-340zM6 -63l187 178q-149 159 -89 477q24 141 75.5 244.5t138.5 178t216.5 111.5t303.5 37q243 0 383 -73l108 102h168l-182 -172q156 -156 98 -488q-25 -141 -77 -244t-138.5 -177.5t-215.5 -111t-302 -36.5q-249 0 -393 78l-111 -104
h-170zM526 567q-17 -87 -14 -149l430 407q-48 25 -123 25q-125 0 -194.5 -65.5t-98.5 -217.5zM989 557q20 112 12 164l-436 -416q45 -29 131 -29q126 0 195 64.5t98 216.5z" />
    <glyph glyph-name="Scommaaccent" unicode="&#x218;" horiz-adv-x="1617" 
d="M1458 422q-41 -241 -232 -355t-534 -112q-348 2 -513.5 144.5t-117.5 426.5h408q-21 -123 47.5 -178t220.5 -57q78 -1 138.5 12t105.5 49t55 94q7 42 -21 70t-82 44t-125.5 28t-150.5 25t-157 30.5t-145.5 50t-115.5 78.5t-67.5 121t-1.5 172q88 476 741 473
q366 0 514.5 -140t100.5 -413h-402q9 46 2.5 85t-28 67t-74 44t-135.5 17q-141 1 -214.5 -42.5t-84.5 -121.5q-8 -42 20.5 -70.5t82 -44.5t125 -27.5t150.5 -24t157 -29t145.5 -48.5t116 -77.5t68.5 -119.5t3 -171zM303 -715q69 140 141 318q27 64 50 128.5t32 96.5l9 33
h366q-49 -164 -137 -334q-44 -83 -86.5 -143.5t-63.5 -79.5l-20 -19h-291z" />
    <glyph glyph-name="scommaaccent" unicode="&#x219;" horiz-adv-x="1419" 
d="M1294 315q-30 -179 -186.5 -266t-486.5 -86q-314 1 -465.5 117t-114.5 317l391 -2q-12 -69 36.5 -116t176.5 -48q112 -1 171 30t69 85q9 45 -32 69.5t-112.5 33.5t-159 16t-173 25t-153.5 51t-102.5 103t-17.5 173q55 349 647 346q311 -1 451 -103.5t106 -299.5l-383 2
q7 22 0 46.5t-23 45.5t-60 34.5t-109 14.5q-116 1 -168.5 -35t-58.5 -80q-6 -35 26.5 -56.5t90 -29t131.5 -16t151.5 -16.5t149 -32t124 -60t76.5 -103.5t8 -159.5zM238 -682q69 139 141 317q27 64 49.5 129t31.5 98l9 32h367q-50 -164 -138 -334q-44 -83 -86.5 -143.5
t-63.5 -79.5l-20 -19h-290z" />
    <glyph glyph-name="uni021A" unicode="&#x21a;" horiz-adv-x="1323" 
d="M319 0l199 1118h-481l65 375h1375l-68 -375h-467l-199 -1118h-424zM92 -686q67 139 141 315q27 65 50 129.5t32 96.5l9 32h366q-47 -163 -137 -331q-44 -84 -87 -144.5t-64 -79.5l-21 -18h-289z" />
    <glyph glyph-name="uni021B" unicode="&#x21b;" horiz-adv-x="899" 
d="M748 0h-109q-111 0 -195.5 14.5t-141.5 39t-93.5 65.5t-54.5 84.5t-22 105.5t1.5 120t18.5 136l49 285h-162l49 276h162l53 297l428 62l-63 -359h272l-49 -276h-273l-51 -299q-22 -122 5 -166.5t133 -44.5h104zM104 -643q70 139 142 317q27 64 49.5 128.5t31.5 97.5l9 32
h366q-49 -163 -137 -333q-44 -83 -86.5 -143.5t-62.5 -79.5l-21 -19h-291z" />
    <glyph glyph-name="uni0232" unicode="&#x232;" horiz-adv-x="1501" 
d="M539 1880h768l-50 -281h-768zM393 0l72 408l-365 1085h465l170 -702l400 702h507l-755 -1092h-4l-70 -401h-420z" />
    <glyph glyph-name="uni0233" unicode="&#x233;" horiz-adv-x="1390" 
d="M463 1563h770l-45 -246h-768zM233 -483l236 483h-166l-237 1126h448l127 -778l381 778h459l-844 -1609h-404z" />
    <glyph glyph-name="uni0237" unicode="&#x237;" horiz-adv-x="755" 
d="M524 176q-35 -200 -66 -284q-63 -175 -209 -259q-175 -100 -513 -100l35 356q67 0 118 9t85.5 30.5t57.5 45t39 64.5t24 75.5t18 91.5l163 921h416z" />
    <glyph glyph-name="uni0259" unicode="&#x259;" horiz-adv-x="1497" 
d="M1395 535q-24 -141 -76.5 -245t-140 -179t-216 -112.5t-298.5 -37.5q-351 0 -480 158t-67 506h866q21 147 -21.5 206.5t-154.5 59.5q-114 0 -179 -39.5t-79 -93.5h-408q103 405 682 405q684 0 572 -628zM674 219q96 0 156.5 42t99.5 140l-432 -2q0 -105 41 -142.5
t135 -37.5z" />
    <glyph glyph-name="uni0272" unicode="&#x272;" horiz-adv-x="1560" 
d="M524 180q-35 -203 -66 -287q-61 -170 -199 -251q-174 -103 -523 -103l35 357q76 0 130.5 12.5t89 32.5t57.5 58t35 76.5t23 100.5l113 641l31 309h352l14 -147q26 23 64.5 47t96.5 52.5t133.5 46.5t152.5 18q249 0 330 -138.5t26 -451.5l-98 -553h-416l103 575
q20 107 -8.5 156t-125.5 49q-139 0 -264 -106z" />
    <glyph glyph-name="circumflex" unicode="&#x2c6;" horiz-adv-x="1218" 
d="M1153 1272h-315l-133 155l-179 -155h-348l377 387h350z" />
    <glyph glyph-name="caron" unicode="&#x2c7;" horiz-adv-x="1218" 
d="M1153 1659l-383 -387h-350l-230 387h302l133 -146l178 146h350z" />
    <glyph glyph-name="breve" unicode="&#x2d8;" horiz-adv-x="1210" 
d="M1024 1649q-9 -51 -30.5 -101t-62.5 -102t-96 -91t-138 -64t-181 -25q-75 0 -138.5 13t-108 35.5t-80 52.5t-54.5 65t-32 72t-12 74t5 71h301q-9 -50 27 -89.5t102 -39.5q63 0 119.5 40.5t65.5 88.5h313z" />
    <glyph glyph-name="dotaccent" unicode="&#x2d9;" horiz-adv-x="1140" 
d="M111 1282l57 332h420l-60 -332h-417z" />
    <glyph glyph-name="ring" unicode="&#x2da;" horiz-adv-x="1165" 
d="M729 1485q-21 -120 -101.5 -178t-207.5 -58q-145 0 -217.5 77t-46.5 218q41 236 307 236q145 0 217.5 -76t48.5 -219zM369 1507q-6 -34 11 -50.5t48 -16.5q35 0 58.5 23t29.5 59q4 34 -12 50.5t-47 16.5q-35 0 -58.5 -23t-29.5 -59z" />
    <glyph glyph-name="ogonek" unicode="&#x2db;" horiz-adv-x="1175" 
d="M121 -229q8 45 36 87.5t63 72t69 52t57 33.5l23 11l313 -9q-7 -4 -19 -10.5t-42.5 -28t-55 -43.5t-47 -52.5t-26.5 -59.5q-12 -60 55 -60q23 0 52 9t47 17l18 9l-21 -180l-8.5 -8.5t-27 -19.5t-48 -24.5t-71.5 -19t-97 -8.5q-59 0 -106 10.5t-76 28.5t-50.5 41t-29 49
t-11 52.5t2.5 50.5z" />
    <glyph glyph-name="tilde" unicode="&#x2dc;" horiz-adv-x="1284" 
d="M1153 1651q-17 -92 -37.5 -154.5t-55 -115t-88 -78t-126.5 -25.5q-72 0 -126.5 17t-80 37t-59 37t-68.5 17q-72 0 -117.5 -44.5t-52.5 -79.5l-174 32q17 90 38 153t55.5 115t87.5 77.5t126 25.5q60 0 106 -11t74 -27.5t50.5 -32.5t48.5 -27t55 -11q39 0 72.5 15.5
t53.5 38t31.5 41t14.5 30.5z" />
    <glyph glyph-name="hungarumlaut" unicode="&#x2dd;" horiz-adv-x="1286" 
d="M123 1278l287 393h426l-338 -393h-375zM631 1278l342 393h428l-393 -393h-377z" />
    <glyph glyph-name="gravecomb" unicode="&#x300;" 
d="M-104 1278h-324l-205 393h375z" />
    <glyph glyph-name="acutecomb" unicode="&#x301;" 
d="M-811 1278l291 393h395l-346 -393h-340z" />
    <glyph glyph-name="uni0302" unicode="&#x302;" 
d="M-190 1272h-316l-133 155l-178 -155h-348l377 387h350z" />
    <glyph glyph-name="tildecomb" unicode="&#x303;" 
d="M-170 1651q-17 -92 -37.5 -154.5t-55 -115t-88 -78t-126.5 -25.5q-72 0 -126.5 17t-80 37t-59 37t-68.5 17q-72 0 -117.5 -44.5t-52.5 -79.5l-174 32q17 90 38 153t55.5 115t87.5 77.5t126 25.5q60 0 106 -11t74 -27.5t50.5 -32.5t48.5 -27t55 -11q39 0 72.5 15.5
t53.5 38t31.5 41t14.5 30.5z" />
    <glyph glyph-name="uni0304" unicode="&#x304;" 
d="M-907 1563h770l-45 -246h-768z" />
    <glyph glyph-name="uni0306" unicode="&#x306;" 
d="M-90 1649q-9 -51 -30.5 -101t-62.5 -102t-96 -91t-138 -64t-181 -25q-75 0 -138.5 13t-108 35.5t-80 52.5t-54.5 65t-32 72t-12 74t5 71h301q-9 -50 27 -89.5t102 -39.5q63 0 119.5 40.5t65.5 88.5h313z" />
    <glyph glyph-name="uni0307" unicode="&#x307;" 
d="M-586 1282l58 332h419l-59 -332h-418z" />
    <glyph glyph-name="uni0308" unicode="&#x308;" 
d="M-1126 1272l59 342h385l-61 -342h-383zM-588 1272l60 342h385l-62 -342h-383z" />
    <glyph glyph-name="uni030A" unicode="&#x30a;" 
d="M-143 1485q-21 -119 -102 -177.5t-208 -58.5q-145 0 -217.5 77t-46.5 218q41 236 307 236q145 0 218 -76t49 -219zM-504 1507q-6 -33 11.5 -50t48.5 -17q35 0 58.5 23t29.5 59q4 34 -12.5 50.5t-47.5 16.5q-35 0 -58.5 -23t-29.5 -59z" />
    <glyph glyph-name="uni030B" unicode="&#x30b;" 
d="M-1399 1278l287 393h426l-338 -393h-375zM-891 1278l342 393h428l-393 -393h-377z" />
    <glyph glyph-name="uni030C" unicode="&#x30c;" 
d="M-190 1659l-383 -387h-351l-229 387h301l133 -146l178 146h351z" />
    <glyph glyph-name="uni0312" unicode="&#x312;" 
d="M-90 1782q-76 -138 -148 -324q-28 -69 -51 -134.5t-32 -96.5l-9 -31h-366q4 21 13 56.5t43.5 129t78.5 168.5q50 82 95 140t65 75l20 17h291z" />
    <glyph glyph-name="dotbelowcomb" unicode="&#x323;" 
d="M-584 -436l58 321h417l-57 -321h-418z" />
    <glyph glyph-name="uni0326" unicode="&#x326;" 
d="M-717 -686q70 139 142 317q27 64 49.5 128.5t31.5 96.5l9 33h366q-49 -163 -137 -333q-44 -83 -86.5 -143.5t-63.5 -79.5l-20 -19h-291z" />
    <glyph glyph-name="uni0327" unicode="&#x327;" 
d="M-137 -377q-8 -52 -31.5 -88.5t-72.5 -65.5t-134 -43t-209 -14q-81 0 -145.5 8t-88.5 16l-24 7l15 158q0 -4 106 -4q87 0 138.5 34t62.5 93q6 40 -24 53.5t-97 15.5h-78l154 211h340l-107 -141q44 -4 81.5 -19t68 -42.5t43 -73.5t2.5 -105z" />
    <glyph glyph-name="uni0328" unicode="&#x328;" 
d="M-741 -229q8 45 36 87.5t63 72t68.5 52t56.5 33.5l23 11l314 -9q-7 -4 -19 -10.5t-43 -28t-55.5 -43.5t-47 -52.5t-26.5 -59.5q-12 -60 56 -60q23 0 52 9t47 17l17 9l-20 -180l-8.5 -8.5t-27 -19.5t-48 -24.5t-71.5 -19t-97 -8.5q-59 0 -106 10.5t-76 28.5t-50.5 41
t-29 49t-11 52.5t2.5 50.5z" />
    <glyph glyph-name="uni0335" unicode="&#x335;" 
d="M-956 643l34 195h840l-33 -195h-841z" />
    <glyph glyph-name="uni0336" unicode="&#x336;" 
d="M-1923 659l29 162h1695l-28 -162h-1696z" />
    <glyph glyph-name="uni0337" unicode="&#x337;" 
d="M-1047 362l-67 226l960 409l68 -225z" />
    <glyph glyph-name="uni0338" unicode="&#x338;" 
d="M-1346 154l1323 1255h168l-1321 -1255h-170z" />
    <glyph glyph-name="pi" unicode="&#x3c0;" horiz-adv-x="1638" 
d="M1288 920v-431q0 -107 20.5 -149.5t92.5 -42.5h59v-297h-76q-65 0 -117.5 6t-94 17t-73 30t-54.5 40.5t-39 54.5t-26 65.5t-15 79.5t-7 91t-2 105v431h-309v-920h-332v920h-188v262h1350v-262h-189z" />
    <glyph glyph-name="Wgrave" unicode="&#x1e80;" horiz-adv-x="2531" 
d="M1589 1595h-356l-219 322h409zM1329 1108l-407 -1108h-617l-180 1493h504l41 -1149l442 1149h580l30 -1145l467 1145h480l-721 -1493h-613z" />
    <glyph glyph-name="wgrave" unicode="&#x1e81;" horiz-adv-x="2119" 
d="M1335 1278h-323l-205 393h375zM1071 688l-285 -688h-503l-185 1126h455l49 -774l332 774h450l62 -764l305 764h463l-547 -1126h-532z" />
    <glyph glyph-name="Wacute" unicode="&#x1e82;" horiz-adv-x="2531" 
d="M1223 1591l280 322h428l-329 -322h-379zM1329 1108l-407 -1108h-617l-180 1493h504l41 -1149l442 1149h580l30 -1145l467 1145h480l-721 -1493h-613z" />
    <glyph glyph-name="wacute" unicode="&#x1e83;" horiz-adv-x="2119" 
d="M1001 1278l291 393h396l-347 -393h-340zM1071 688l-285 -688h-503l-185 1126h455l49 -774l332 774h450l62 -764l305 764h463l-547 -1126h-532z" />
    <glyph glyph-name="Wdieresis" unicode="&#x1e84;" horiz-adv-x="2531" 
d="M926 1591l59 340h418l-60 -340h-417zM1495 1591l61 340h418l-61 -340h-418zM1329 1108l-407 -1108h-617l-180 1493h504l41 -1149l442 1149h580l30 -1145l467 1145h480l-721 -1493h-613z" />
    <glyph glyph-name="wdieresis" unicode="&#x1e85;" horiz-adv-x="2119" 
d="M719 1272l59 342h385l-61 -342h-383zM1257 1272l60 342h385l-62 -342h-383zM1071 688l-285 -688h-503l-185 1126h455l49 -774l332 774h450l62 -764l305 764h463l-547 -1126h-532z" />
    <glyph glyph-name="uni1E9E" unicode="&#x1e9e;" horiz-adv-x="1718" 
d="M1604 430q-10 -57 -36.5 -112t-83 -113.5t-134.5 -102.5t-200.5 -72t-272.5 -28h-302l56 348h219q150 0 233 51.5t99 139.5q9 63 -48 110t-182 47q-45 0 -94 -6.5t-76 -13.5l-26 -6l45 258v2q6 4 14 6l387 252h-313q-125 0 -200.5 -69t-96.5 -189l-166 -932h-418l166 944
q13 74 26.5 127.5t38.5 114.5t58.5 103t86.5 83t121 65.5t163 40t213 15.5h845l-53 -303l-379 -256q199 -50 272 -176t38 -328z" />
    <glyph glyph-name="uni1EA0" unicode="&#x1ea0;" horiz-adv-x="1665" 
d="M-145 0l847 1493h515l321 -1493h-455l-34 219h-621l-111 -219h-462zM588 528h411l-98 613zM412 -436l57 321h418l-58 -321h-417z" />
    <glyph glyph-name="uni1EA1" unicode="&#x1ea1;" horiz-adv-x="1501" 
d="M903 0l-18 76q-176 -113 -389 -113q-247 0 -360.5 97t-78.5 292q16 99 63.5 168t123 106.5t163.5 53.5t203 16q211 0 348 -18l3 4q15 76 11 122.5t-43 66.5t-132 20q-115 0 -175 -40t-69 -91l-360 2q5 29 12.5 56.5t26.5 68t46 74.5t73 70.5t103.5 62t143 41.5t186.5 16
q133 0 233 -17t166.5 -44.5t108 -76t61 -97t22 -122t-4.5 -137t-24 -155.5l-35 -185l-33 -317h-375zM625 236q144 0 272 86l29 159q-65 6 -162 6q-132 0 -200 -30.5t-81 -102.5q-11 -60 22.5 -89t119.5 -29zM369 -469l57 322h418l-58 -322h-417z" />
    <glyph glyph-name="uni1EB8" unicode="&#x1eb8;" horiz-adv-x="1441" 
d="M23 0l262 1493h1192l-62 -342h-766l-41 -242h645l-53 -309h-647l-45 -260h784l-61 -340h-1208zM350 -436l58 321h417l-57 -321h-418z" />
    <glyph glyph-name="uni1EB9" unicode="&#x1eb9;" horiz-adv-x="1497" 
d="M1358 369q-102 -406 -678 -406q-689 0 -576 629q51 285 224.5 428t509.5 143q342 0 474 -161.5t70 -520.5h-870q-15 -134 29 -188.5t153 -54.5q113 0 178 38.5t80 92.5h406zM827 909q-101 0 -164 -47.5t-102 -156.5h438q3 122 -36.5 163t-135.5 41zM381 -463l57 322h418
l-57 -322h-418z" />
    <glyph glyph-name="uni1EBC" unicode="&#x1ebc;" horiz-adv-x="1441" 
d="M1417 1960q-17 -91 -37.5 -153t-55 -114.5t-88 -78t-128.5 -25.5q-73 0 -126 16.5t-77 36t-57 36t-70 16.5q-72 0 -118.5 -45t-51.5 -78l-174 31q16 90 37 153t55.5 114.5t88.5 77t128 25.5q60 0 105.5 -10.5t72 -26t48.5 -31t47.5 -26t56.5 -10.5q40 0 74 15.5t54 37
t31 40.5t13 30zM23 0l262 1493h1192l-62 -342h-766l-41 -242h645l-53 -309h-647l-45 -260h784l-61 -340h-1208z" />
    <glyph glyph-name="uni1EBD" unicode="&#x1ebd;" horiz-adv-x="1497" 
d="M1417 1651q-17 -92 -37.5 -154.5t-55 -115t-88 -78t-126.5 -25.5q-72 0 -126.5 17t-80 37t-59 37t-68.5 17q-72 0 -117.5 -44.5t-52.5 -79.5l-174 32q17 90 38 153t55.5 115t87.5 77.5t126 25.5q60 0 106 -11t74 -27.5t50.5 -32.5t48.5 -27t55 -11q39 0 72.5 15.5
t53.5 38t31.5 41t14.5 30.5zM1358 369q-102 -406 -678 -406q-689 0 -576 629q51 285 224.5 428t509.5 143q342 0 474 -161.5t70 -520.5h-870q-15 -134 29 -188.5t153 -54.5q113 0 178 38.5t80 92.5h406zM827 909q-101 0 -164 -47.5t-102 -156.5h438q3 122 -36.5 163
t-135.5 41z" />
    <glyph glyph-name="uni1ECA" unicode="&#x1eca;" horiz-adv-x="743" 
d="M23 0l262 1493h426l-262 -1493h-426zM-51 -453l57 322h418l-57 -322h-418z" />
    <glyph glyph-name="uni1ECB" unicode="&#x1ecb;" horiz-adv-x="720" 
d="M279 1282l57 332h420l-60 -332h-417zM51 0l199 1126h418l-199 -1126h-418zM-27 -436l58 321h418l-58 -321h-418z" />
    <glyph glyph-name="uni1ECC" unicode="&#x1ecc;" horiz-adv-x="1738" 
d="M1622 717q-71 -402 -279.5 -582t-586.5 -180q-395 0 -554 200t-85 621q70 401 278.5 581.5t587.5 180.5q394 0 553 -200t86 -621zM541 774q-49 -234 6.5 -346.5t236.5 -112.5q171 0 272 98.5t142 303.5q47 235 -9 348t-237 113q-326 0 -411 -404zM449 -471l57 321h418
l-58 -321h-417z" />
    <glyph glyph-name="uni1ECD" unicode="&#x1ecd;" horiz-adv-x="1515" 
d="M1413 532q-25 -141 -77 -244t-138.5 -177.5t-215.5 -111t-302 -36.5q-183 0 -309 43t-192 124t-85.5 198t10.5 264q24 141 75.5 244.5t138.5 178t216.5 111.5t303.5 37q360 1 495 -161t80 -470zM526 567q-32 -163 7 -227t163 -64q126 0 195 64.5t98 216.5
q32 164 -7 228.5t-163 64.5q-125 0 -194.5 -65.5t-98.5 -217.5zM371 -471l57 321h418l-58 -321h-417z" />
    <glyph glyph-name="uni1EE4" unicode="&#x1ee4;" horiz-adv-x="1640" 
d="M1509 758q-19 -107 -38 -188.5t-46 -162t-59.5 -139t-77 -112t-100.5 -89t-128 -62t-161.5 -38.5t-198.5 -12q-128 0 -226 18.5t-167 52.5t-114 89.5t-68.5 120.5t-28 155t4 184.5t30.5 215.5l123 702h424l-121 -700q-33 -173 -27 -275t52.5 -143t152.5 -41
q149 0 227.5 102.5t122.5 354.5l123 702h430zM395 -471l58 321h417l-57 -321h-418z" />
    <glyph glyph-name="uni1EE5" unicode="&#x1ee5;" horiz-adv-x="1550" 
d="M952 0l-16 160q-27 -25 -65 -51t-95.5 -57t-132.5 -50.5t-151 -19.5q-249 0 -335 135t-34 422l106 585h416l-108 -610q-14 -91 13 -130.5t114 -39.5q84 0 157 38.5t125 88.5l115 655h418l-144 -813l-30 -313h-353zM377 -471l57 321h418l-57 -321h-418z" />
    <glyph glyph-name="Ygrave" unicode="&#x1ef2;" horiz-adv-x="1501" 
d="M1040 1595h-356l-219 322h409zM393 0l72 408l-365 1085h465l170 -702l400 702h507l-755 -1092h-4l-70 -401h-420z" />
    <glyph glyph-name="ygrave" unicode="&#x1ef3;" horiz-adv-x="1390" 
d="M954 1278h-323l-205 393h375zM233 -483l236 483h-166l-237 1126h448l127 -778l381 778h459l-844 -1609h-404z" />
    <glyph glyph-name="uni1EF8" unicode="&#x1ef8;" horiz-adv-x="1501" 
d="M1395 1960q-17 -91 -37.5 -153t-55.5 -114.5t-88.5 -78t-128.5 -25.5q-73 0 -125.5 16.5t-76.5 36t-57 36t-70 16.5q-72 0 -118.5 -45t-51.5 -78l-174 31q16 90 37 153t55.5 114.5t88.5 77t128 25.5q60 0 105.5 -10.5t72 -26t48.5 -31t47.5 -26t56.5 -10.5q40 0 74 15.5
t54 37t31 40.5t13 30zM393 0l72 408l-365 1085h465l170 -702l400 702h507l-755 -1092h-4l-70 -401h-420z" />
    <glyph glyph-name="uni1EF9" unicode="&#x1ef9;" horiz-adv-x="1390" 
d="M1325 1651q-17 -92 -37.5 -154.5t-55 -115t-88 -78t-126.5 -25.5q-72 0 -126.5 17t-80 37t-59 37t-68.5 17q-72 0 -117.5 -44.5t-52.5 -79.5l-174 32q17 90 38 153t55.5 115t87.5 77.5t126 25.5q60 0 106 -11t74 -27.5t50.5 -32.5t48.5 -27t55 -11q39 0 72.5 15.5
t53.5 38t31.5 41t14.5 30.5zM233 -483l236 483h-166l-237 1126h448l127 -778l381 778h459l-844 -1609h-404z" />
    <glyph glyph-name="uni2009" unicode="&#x2009;" horiz-adv-x="126" 
 />
    <glyph glyph-name="endash" unicode="&#x2013;" horiz-adv-x="1509" 
d="M133 506l51 299h1159l-53 -299h-1157z" />
    <glyph glyph-name="emdash" unicode="&#x2014;" horiz-adv-x="2334" 
d="M164 506l51 299h1923l-51 -299h-1923z" />
    <glyph glyph-name="uni2016" unicode="&#x2016;" horiz-adv-x="1275" 
d="M8 -369l367 2069h289l-367 -2069h-289zM524 -369l365 2069h289l-365 -2069h-289z" />
    <glyph glyph-name="quoteleft" unicode="&#x2018;" horiz-adv-x="743" 
d="M123 911q3 16 11 45.5t44 124.5t86 195q32 64 65 116.5t56.5 81.5t42.5 49t29 27l10 6h305q-88 -153 -174 -370q-36 -91 -59 -160t-28 -92l-5 -23h-383z" />
    <glyph glyph-name="quoteright" unicode="&#x2019;" horiz-adv-x="724" 
d="M88 918q88 163 174 380q36 91 59 155.5t28 83.5l5 19h383q-28 -123 -141 -348q-51 -102 -102 -174.5t-76 -93.5l-25 -22h-305z" />
    <glyph glyph-name="quotesinglbase" unicode="&#x201a;" horiz-adv-x="598" 
d="M-170 -311q88 164 174 381q36 91 59 159.5t28 91.5l5 23h383q-30 -139 -141 -364q-50 -102 -101.5 -174.5t-77.5 -94.5l-26 -22h-303z" />
    <glyph glyph-name="quotedblleft" unicode="&#x201c;" horiz-adv-x="1224" 
d="M123 911q30 140 141 365q32 64 64.5 116.5t56 81.5t43 49t29.5 27l10 6h305q-88 -153 -174 -370q-36 -91 -59 -160t-28 -92l-5 -23h-383zM604 911q30 140 141 365q32 64 65 116.5t57 81.5t43.5 49t29.5 27l10 6h303q-88 -153 -174 -370q-36 -91 -59 -160t-28 -92l-5 -23
h-383z" />
    <glyph glyph-name="quotedblright" unicode="&#x201d;" horiz-adv-x="1206" 
d="M88 918q86 163 174 380q37 91 60 155.5t28 83.5l4 19h383q-28 -123 -141 -348q-32 -64 -64.5 -117.5t-56 -84t-43 -52t-29.5 -28.5l-10 -8h-305zM571 918q84 163 172 380q37 91 60.5 155.5t28.5 83.5l4 19h383q-29 -123 -142 -348q-32 -64 -64.5 -117.5t-56 -84t-43 -52
t-29.5 -28.5l-10 -8h-303z" />
    <glyph glyph-name="quotedblbase" unicode="&#x201e;" horiz-adv-x="1398" 
d="M104 -319q91 161 177 382q35 91 57.5 159.5t27.5 91.5l5 22h383q-3 -16 -10.5 -46.5t-43.5 -126t-88 -192.5q-51 -99 -101.5 -171.5t-75.5 -95.5l-25 -23h-306zM588 -319q90 161 174 382q35 91 57.5 159.5t27.5 91.5l5 22h383q-3 -16 -10.5 -46.5t-43.5 -126t-87 -192.5
q-51 -99 -102 -171.5t-76 -95.5l-25 -23h-303z" />
    <glyph glyph-name="dagger" unicode="&#x2020;" horiz-adv-x="1220" 
d="M180 1262h346l68 383h287l-68 -383h346l-43 -246h-346l-178 -1016h-289l178 1016h-344z" />
    <glyph glyph-name="daggerdbl" unicode="&#x2021;" horiz-adv-x="1363" 
d="M281 1262h346l67 383h287l-68 -383h347l-43 -246h-349l-71 -408h348l-43 -243h-348l-64 -365h-287l64 365h-346l45 243h344l72 408h-346z" />
    <glyph glyph-name="bullet" unicode="&#x2022;" horiz-adv-x="1247" 
d="M289 381l84 475h499l-84 -475h-499z" />
    <glyph glyph-name="ellipsis" unicode="&#x2026;" horiz-adv-x="1869" 
d="M10 0l62 346h420l-62 -346h-420zM608 0l62 346h420l-62 -346h-420zM1206 0l62 346h420l-62 -346h-420z" />
    <glyph glyph-name="perthousand" unicode="&#x2030;" horiz-adv-x="2990" 
d="M930 1063q-32 -175 -141.5 -262.5t-331.5 -87.5q-121 0 -206 29t-129 82.5t-59 129t3 168.5q32 178 143.5 269.5t331.5 91.5q460 0 389 -420zM143 0l1350 1438h397l-1347 -1438h-400zM324 1063q-13 -66 18.5 -104.5t116.5 -38.5q89 0 141 48t72 154q25 152 -131 152
q-178 0 -217 -211zM1958 305q-20 -115 -71 -190.5t-150.5 -118.5t-249.5 -43q-240 0 -333.5 108.5t-59.5 303.5q32 177 144 268.5t333 91.5q459 0 387 -420zM2904 305q-20 -115 -71 -190.5t-150.5 -118.5t-249.5 -43q-240 0 -333.5 108.5t-59.5 303.5q32 177 144 268.5
t333 91.5q459 0 387 -420zM1350 305q-24 -143 135 -143q89 0 142 48.5t71 154.5q26 151 -131 151q-178 0 -217 -211zM2296 305q-24 -143 137 -143q176 0 211 203q26 151 -131 151q-178 0 -217 -211z" />
    <glyph glyph-name="guilsinglleft" unicode="&#x2039;" horiz-adv-x="1136" 
d="M354 154l-213 368l2 64l344 383h453l-401 -420l266 -395h-451z" />
    <glyph glyph-name="guilsinglright" unicode="&#x203a;" horiz-adv-x="1083" 
d="M559 154h-453l400 403l-262 412h434l227 -383l-4 -64z" />
    <glyph glyph-name="fraction" unicode="&#x2044;" horiz-adv-x="835" 
d="M-446 -82l1370 1618h327l-1370 -1618h-327z" />
    <glyph glyph-name="uni2070" unicode="&#x2070;" horiz-adv-x="1339" 
d="M1319 1122q-31 -172 -83 -287.5t-133 -182.5t-181 -94.5t-240 -27.5q-98 0 -174 14t-136.5 45.5t-99 82t-59.5 122.5t-20 168t22 218q31 172 83 287.5t132 182.5t180 94.5t240 27.5q118 0 204 -21t151 -67.5t96.5 -122t38.5 -185t-21 -254.5zM547 1122
q-15 -76 -16.5 -130t7.5 -88.5t31.5 -54.5t52.5 -28t74 -8q53 0 94 16t79 55.5t67 113t49 182.5q14 77 16 130.5t-7 88.5t-31.5 55t-52 27.5t-74.5 7.5q-53 0 -93.5 -16t-78.5 -55t-67 -113t-50 -183z" />
    <glyph glyph-name="uni2074" unicode="&#x2074;" horiz-adv-x="1212" 
d="M686 555l31 178h-662l39 254l658 756h473l-135 -756h151l-45 -254h-152l-30 -178h-328zM762 987l92 529l-426 -529h334z" />
    <glyph glyph-name="uni2075" unicode="&#x2075;" horiz-adv-x="1214" 
d="M662 1485l-76 -211q102 59 237 59q82 0 147 -17.5t106.5 -48.5t71 -72t40 -88t14 -97t-7.5 -99q-11 -59 -33.5 -110.5t-67 -102.5t-106 -87t-154.5 -58.5t-208 -22.5q-79 0 -147.5 10t-118 28t-90 42.5t-65.5 52.5t-44 59.5t-25 63t-9 62t5 57.5h352q-2 -10 3.5 -26
t20 -35.5t48.5 -33t82 -13.5q89 0 147 52.5t70 121.5q9 57 -26.5 97t-125.5 40q-58 0 -108 -19t-69.5 -34t-24.5 -23l-322 2l232 709h856l-49 -275z" />
    <glyph glyph-name="uni2076" unicode="&#x2076;" horiz-adv-x="1298" 
d="M1272 907q-10 -57 -32.5 -108t-67 -101.5t-107.5 -86.5t-160 -58.5t-217 -22.5q-161 -1 -267 38t-158.5 114t-65 185.5t15.5 252.5q33 187 81 309t125 200t181.5 110.5t255.5 32.5q81 0 150 -12t118 -32.5t88 -49t61.5 -61.5t37 -69.5t15 -73.5t-4.5 -73h-332
q1 14 1 29.5t-9 31.5t-23 29t-41.5 21t-64.5 8q-87 0 -151 -60.5t-109 -206.5q121 66 270 66q86 0 155.5 -16t115.5 -44.5t79.5 -67.5t47.5 -84.5t19 -96.5t-7 -103zM780 1108q-132 0 -239 -90q-15 -123 16 -178.5t123 -55.5q103 0 167.5 56.5t76.5 124.5q12 73 -21.5 108
t-122.5 35z" />
    <glyph glyph-name="uni2077" unicode="&#x2077;" horiz-adv-x="1021" 
d="M197 555q18 99 58.5 203.5t91.5 193t108.5 172.5t111.5 148.5t98 113.5t71 75l26 26l-633 -27l49 281h985l-49 -264q-20 -20 -54 -56t-123 -144t-161.5 -213.5t-141 -247t-89.5 -261.5h-348z" />
    <glyph glyph-name="uni2078" unicode="&#x2078;" horiz-adv-x="1259" 
d="M641 530q-130 0 -226.5 18.5t-155.5 53t-93 83.5t-39 109.5t6 131.5q12 66 47.5 120.5t79 86t84 48.5t70.5 19q-14 3 -39.5 21t-54.5 49t-45 83.5t-5 112.5q12 71 44 124t92.5 96t161.5 65.5t241 22.5q148 0 249.5 -27.5t152.5 -79t66.5 -115.5t0.5 -145
q-9 -52 -37.5 -93.5t-65 -65.5t-68.5 -36.5t-56 -15.5q16 -2 40.5 -16.5t53 -41.5t50.5 -66.5t32.5 -91t-0.5 -114.5q-15 -82 -49.5 -140.5t-100.5 -104.5t-174.5 -68.5t-261.5 -22.5zM811 1561q-87 0 -143.5 -51t-71.5 -136q-7 -46 23 -74t110 -28q89 0 145 48t68 114
q11 65 -18 96t-113 31zM733 1102q-100 0 -160 -57.5t-73 -137.5q-11 -62 21 -98.5t120 -36.5q98 0 158.5 55.5t74.5 139.5q10 60 -21.5 97.5t-119.5 37.5z" />
    <glyph glyph-name="uni2079" unicode="&#x2079;" horiz-adv-x="1316" 
d="M1296 1174q-33 -189 -78.5 -309t-122.5 -197t-183 -107.5t-265 -30.5q-88 0 -162 11.5t-126 32.5t-92.5 49t-63 61t-37 69.5t-14.5 73t4 72.5h333q-6 -44 27 -80.5t123 -36.5q98 0 162.5 54t109.5 194q-117 -67 -254 -67q-115 0 -199 22t-131.5 61t-74 93t-27 118
t10.5 136q11 58 33.5 109t68 102.5t108 88t159 59t216.5 22.5q212 0 330 -69.5t148 -203t-3 -327.5zM727 1174q129 0 240 94q19 134 -12 193t-128 59q-101 0 -165 -57.5t-74 -125.5q-17 -86 18 -124.5t121 -38.5z" />
    <glyph glyph-name="Euro" unicode="&#x20ac;" horiz-adv-x="1669" 
d="M647 461q8 -96 61 -141.5t166 -45.5q95 0 163 32.5t79 74.5h348q-47 -212 -203.5 -325t-426.5 -113q-327 0 -469 126.5t-140 391.5h-174l33 194h158q8 61 14 90l4 27h-156l35 193h166q55 184 143 297.5t236.5 173t368.5 59.5q290 0 426.5 -122.5t105.5 -342.5h-350
q7 47 -42 90t-142 43q-200 0 -301 -198h503l-36 -193h-533q-12 -52 -16 -84l-6 -33h536l-35 -194h-516z" />
    <glyph glyph-name="uni20BD" unicode="&#x20bd;" horiz-adv-x="1789" 
d="M211 0l37 213h-191l43 244h191l22 121h-190l49 282h190l109 610h549q105 0 189.5 -4t159.5 -12.5t132 -23t104.5 -35t79.5 -48.5t54.5 -63t31.5 -80t8 -98t-12 -117q-12 -67 -30.5 -119t-48 -94.5t-65.5 -72.5t-90 -52.5t-113.5 -36t-144.5 -22t-175 -11.5t-211 -3h-150
l-22 -121h395l-43 -244h-395l-37 -213h-426zM846 1188l-58 -330h181q163 0 256 39.5t112 136.5q7 40 -2 68t-29.5 44.5t-60 26t-83.5 12.5t-111 3h-205z" />
    <glyph glyph-name="uni2116" unicode="&#x2116;" horiz-adv-x="3143" 
d="M2906 1026q-16 -89 -43 -157t-72.5 -124.5t-110.5 -92t-156.5 -55t-209.5 -19.5q-146 0 -246.5 33t-151 94t-67 147.5t5.5 194.5q19 112 57 191.5t106 139.5t173.5 89.5t251.5 29.5q118 1 206.5 -20.5t143.5 -62t86.5 -99t35.5 -131t-9 -158.5zM25 0l264 1485h436
l477 -950l166 950h344l-260 -1485h-434l-477 948l-168 -948h-348zM2204 1036q-21 -117 11.5 -164t127.5 -47q96 0 144.5 47t70.5 164q20 117 -13 164t-128 47t-144 -47t-69 -164zM1704 82l55 313h1024l-55 -313h-1024z" />
    <glyph glyph-name="uni2117" unicode="&#x2117;" horiz-adv-x="1951" 
d="M1849 682q-13 -120 -53 -229t-117 -209.5t-184.5 -173.5t-264 -116.5t-345.5 -43.5q-123 0 -227.5 18.5t-183.5 53t-143 82.5t-106 106.5t-73 126t-43 140t-17 149.5t6 155q12 119 53 229.5t119.5 213t186.5 177.5t264 120t342 45q124 0 230 -19.5t185 -54.5t143.5 -84
t105.5 -108.5t71.5 -128.5t42 -142.5t15.5 -151t-7 -155.5zM285 682q-9 -92 1.5 -174t49.5 -163t106.5 -139t181.5 -94t265 -36q116 0 216.5 20.5t176 56t137.5 85.5t105 108t73.5 125t46 133.5t21.5 136.5q7 93 -3.5 176t-49.5 166t-105.5 142.5t-181.5 97t-268 37.5
q-133 0 -245.5 -28t-193 -78t-142 -114.5t-100.5 -142.5t-61 -155t-30 -160zM526 270l160 906h418q235 0 324 -84.5t53 -290.5q-14 -79 -38 -132t-59 -88t-92 -54t-124.5 -26t-168.5 -7h-168l-38 -224h-267zM913 963l-45 -258h123q102 0 155.5 26t67.5 105q14 74 -21 100.5
t-130 26.5h-150z" />
    <glyph glyph-name="uni2120" unicode="&#x2120;" horiz-adv-x="2058" 
d="M819 961q-20 -110 -103.5 -159t-252.5 -48q-186 0 -264 62t-52 204h199q-11 -64 17 -84.5t104 -20.5q56 -2 90 13t41 55q5 24 -11 39.5t-46.5 22t-69.5 14t-80.5 14t-79 24t-65 43t-39 71.5t-0.5 108q18 97 97 144.5t239 47.5q183 -1 257 -62t52 -183h-197q8 43 -14.5 63
t-87.5 21q-121 0 -137 -70q-5 -25 17.5 -40t62 -23t87 -15.5t94 -22.5t82.5 -39t53.5 -69.5t6.5 -109.5zM897 772l127 721h307l70 -555l262 555h319l-129 -721h-200l112 535l-282 -535h-221l-88 567l-80 -567h-197z" />
    <glyph glyph-name="trademark" unicode="&#x2122;" horiz-adv-x="1878" 
d="M340 774l92 526h-213l33 193h647l-35 -193h-215l-90 -526h-219zM846 772l127 721h307l70 -557l262 557h319l-129 -721h-198l112 535l-284 -535h-220l-88 563l-82 -563h-196z" />
    <glyph glyph-name="oneeighth" unicode="&#x215b;" horiz-adv-x="2805" 
d="M131 416l148 862l-228 -76l45 273l377 131h199l-211 -1190h-330zM274 -82l1371 1618h327l-1370 -1618h-328zM2089 -25q-130 0 -226.5 18.5t-155.5 53t-93 83.5t-39 109.5t6 131.5q12 66 47.5 120.5t79 86t84 48.5t70.5 19q-14 3 -39.5 21t-54.5 49t-45 83.5t-5 112.5
q12 71 44 124t92.5 96t161.5 65.5t241 22.5q148 0 249.5 -27.5t152.5 -79t66.5 -115.5t0.5 -145q-9 -52 -37.5 -93.5t-65 -65.5t-68.5 -36.5t-56 -15.5q16 -2 40.5 -16.5t53 -41.5t50.5 -66.5t32.5 -91t-0.5 -114.5q-15 -82 -49.5 -140.5t-100.5 -104.5t-174.5 -68.5
t-261.5 -22.5zM2259 1006q-87 0 -143.5 -51t-71.5 -136q-7 -46 23 -74t110 -28q89 0 145 48t68 114q11 65 -18 96t-113 31zM2181 547q-100 0 -160 -57.5t-73 -137.5q-11 -62 21 -98.5t120 -36.5q98 0 158.5 55.5t74.5 139.5q10 60 -21.5 97.5t-119.5 37.5z" />
    <glyph glyph-name="threeeighths" unicode="&#x215c;" horiz-adv-x="3198" 
d="M793 1145q154 -41 209.5 -138.5t29.5 -250.5q-10 -54 -31.5 -102.5t-65.5 -98t-104 -85t-153.5 -57.5t-208.5 -22q-88 0 -160 12.5t-122.5 35t-89 54t-59 69t-33 80t-10.5 88t9 91.5h334q-6 -22 -0.5 -48t18 -48.5t44 -37.5t77.5 -15q86 0 142.5 51.5t68.5 118.5
q12 63 -31.5 105t-156.5 42q-44 0 -84 -6t-58 -12l-18 -6l20 178l9 4l336 186l-572 -22l53 291h975l-45 -250zM668 -82l1370 1618h327l-1370 -1618h-327zM2482 -25q-130 0 -226.5 18.5t-155.5 53t-93 83.5t-39 109.5t6 131.5q12 66 47.5 120.5t79 86t84 48.5t70.5 19
q-14 3 -39.5 21t-54.5 49t-45 83.5t-5 112.5q12 71 44 124t92.5 96t161.5 65.5t241 22.5q148 0 249.5 -27.5t152.5 -79t66.5 -115.5t0.5 -145q-9 -52 -37.5 -93.5t-65 -65.5t-68.5 -36.5t-56 -15.5q16 -2 40.5 -16.5t53 -41.5t50.5 -66.5t32.5 -91t-0.5 -114.5
q-15 -82 -49.5 -140.5t-100.5 -104.5t-174.5 -68.5t-261.5 -22.5zM2652 1006q-87 0 -143.5 -51t-71.5 -136q-7 -46 23 -74t110 -28q89 0 145 48t68 114q11 65 -18 96t-113 31zM2574 547q-100 0 -160 -57.5t-73 -137.5q-11 -62 21 -98.5t120 -36.5q98 0 159 55.5t75 139.5
q10 59 -22 97t-120 38z" />
    <glyph glyph-name="fiveeighths" unicode="&#x215d;" horiz-adv-x="3262" 
d="M563 1346l-76 -211q102 59 238 59q82 0 147 -17.5t106.5 -48.5t71 -72t40 -88t14 -97t-7.5 -99q-11 -59 -33.5 -110.5t-67 -102.5t-106.5 -87t-155 -58.5t-208 -22.5q-79 0 -147.5 10t-117.5 28t-90 42.5t-66 52.5t-44 59.5t-24.5 63t-8.5 62t5 57.5h352q-2 -10 3.5 -26
t20 -35.5t48.5 -33.5t82 -14q89 0 147 52.5t70 121.5q9 57 -26.5 97.5t-125.5 40.5q-36 0 -70 -7.5t-56.5 -17.5t-40.5 -21.5t-26 -19t-10 -10.5l-321 2l231 709h856l-49 -275zM731 -82l1370 1618h328l-1370 -1618h-328zM2546 -25q-130 0 -226.5 18.5t-155.5 53t-93 83.5
t-39 109.5t6 131.5q12 66 47 120.5t79 86t84 48.5t70 19q-10 2 -29 13t-43 34t-43 52.5t-28 73.5t0 93q12 71 44 124t92.5 96t161.5 65.5t241 22.5q148 0 249.5 -27.5t152.5 -79t66.5 -115.5t0.5 -145q-9 -52 -38 -93.5t-65.5 -65.5t-68.5 -36.5t-56 -15.5q16 -2 40.5 -16.5
t53 -41.5t50.5 -66.5t32.5 -91t-0.5 -114.5q-12 -65 -35 -115t-67 -92.5t-108 -70t-158 -43t-217 -15.5zM2716 1006q-87 0 -143.5 -51t-71.5 -136q-7 -46 23 -74t110 -28q89 0 145 48t68 114q11 65 -18 96t-113 31zM2638 547q-100 0 -160.5 -57.5t-73.5 -137.5
q-11 -62 21.5 -98.5t120.5 -36.5q98 0 158.5 55.5t74.5 139.5q10 60 -21.5 97.5t-119.5 37.5z" />
    <glyph glyph-name="seveneighths" unicode="&#x215e;" horiz-adv-x="2953" 
d="M98 416q18 99 58.5 203.5t91.5 193t108.5 172.5t112 148.5t98.5 113.5t71 75l26 26l-633 -27l49 281h985l-49 -265q-10 -10 -28 -29t-71 -78.5t-102.5 -120.5t-112.5 -150t-111.5 -173.5t-89 -183.5t-55.5 -186h-348zM422 -82l1370 1618h328l-1370 -1618h-328zM2236 -25
q-130 0 -226.5 18.5t-155.5 53t-92.5 83.5t-38.5 109.5t6 131.5q12 66 47 120.5t79 86t84 48.5t70 19q-10 2 -29 13t-43 34t-43 52.5t-28 73.5t0 93q10 56 31 100.5t61.5 84.5t99.5 66.5t146.5 41.5t199.5 15q148 0 249.5 -27.5t152.5 -79t66.5 -115.5t0.5 -145
q-9 -52 -37.5 -93.5t-65 -65.5t-68.5 -36.5t-56 -15.5q16 -2 40.5 -16.5t53 -41.5t50.5 -66.5t32.5 -91t-0.5 -114.5q-15 -82 -49.5 -140.5t-100.5 -104.5t-174.5 -68.5t-261.5 -22.5zM2406 1006q-87 0 -143.5 -51t-71.5 -136q-7 -46 23 -74t110 -28q89 0 145 48t68 114
q11 65 -18 96t-113 31zM2329 547q-100 0 -160.5 -57.5t-73.5 -137.5q-11 -62 21 -98.5t120 -36.5q98 0 159 55.5t75 139.5q10 60 -21.5 97.5t-119.5 37.5z" />
    <glyph glyph-name="arrowleft" unicode="&#x2190;" horiz-adv-x="1456" 
d="M1370 358l-776 50l328 -304l-222 -243l-598 577v256l598 576l222 -244l-326 -301l774 49v-416z" />
    <glyph glyph-name="arrowup" unicode="&#x2191;" horiz-adv-x="1519" 
d="M553 -39l49 776l-303 -327l-244 221l578 598h254l577 -598l-243 -221l-303 325l51 -774h-416z" />
    <glyph glyph-name="arrowright" unicode="&#x2192;" horiz-adv-x="1456" 
d="M86 774l774 -51l-325 303l221 244l598 -578v-254l-598 -577l-221 243l325 302l-774 -50v418z" />
    <glyph glyph-name="arrowdown" unicode="&#x2193;" horiz-adv-x="1499" 
d="M958 1182l-51 -779l303 330l244 -221l-577 -598h-254l-578 598l244 221l303 -327l-49 776h415z" />
    <glyph glyph-name="arrowboth" unicode="&#x2194;" horiz-adv-x="2170" 
d="M1473 1274l595 -578v-254l-595 -577l-222 244l318 294l-973 -8l326 -299l-222 -243l-598 575v256l598 578l222 -244l-340 -313l1015 6l-344 321z" />
    <glyph glyph-name="arrowupdn" unicode="&#x2195;" horiz-adv-x="1531" 
d="M899 -389h-256l-575 594l243 221l295 -317l-6 897l-301 -328l-244 219l578 602h254l577 -602l-243 -219l-297 321l6 -899l303 326l244 -221z" />
    <glyph glyph-name="uni2196" unicode="&#x2196;" horiz-adv-x="1310" 
d="M948 4l-514 586l19 -447l-328 -16l-14 831l178 181l831 -15l-16 -327l-447 16l586 -514z" />
    <glyph glyph-name="uni2197" unicode="&#x2197;" horiz-adv-x="1310" 
d="M68 313l585 514l-448 -16l-15 328l832 14l180 -178l-16 -832l-328 15l19 448l-517 -586z" />
    <glyph glyph-name="uni2198" unicode="&#x2198;" horiz-adv-x="1310" 
d="M362 1157l515 -586l-19 447l328 16l16 -831l-180 -180l-832 14l15 328l448 -19l-585 516z" />
    <glyph glyph-name="uni2199" unicode="&#x2199;" horiz-adv-x="1310" 
d="M1243 862l-586 -516l449 19l14 -328l-831 -14l-178 180l14 829l328 -14l-19 -449l516 586z" />
    <glyph glyph-name="minus" unicode="&#x2212;" horiz-adv-x="1169" 
d="M51 553l43 246h1000l-43 -246h-1000z" />
    <glyph glyph-name="infinity" unicode="&#x221e;" horiz-adv-x="1996" 
d="M473 227q-234 0 -336.5 111.5t-66.5 312.5q31 180 157.5 273t360.5 94q75 0 138 -19t112.5 -55.5t85.5 -75t75 -92.5q59 54 108 91.5t112 74.5t133 56t145 20q233 0 337.5 -111.5t70.5 -312.5q-66 -367 -521 -367q-75 0 -138.5 19t-113.5 55.5t-86 75t-75 92.5
q-124 -115 -240 -178.5t-258 -63.5zM330 621q-13 -75 24.5 -122.5t132.5 -47.5t180 48t185 138q-62 76 -126.5 117t-150.5 41q-98 0 -166 -52.5t-79 -121.5zM1645 625q13 74 -25.5 121.5t-134.5 48.5q-95 0 -180 -48t-185 -139q61 -76 126 -116.5t153 -40.5q97 0 166 53
t80 121z" />
    <glyph glyph-name="approxequal" unicode="&#x2248;" horiz-adv-x="1617" 
d="M197 725q17 99 44 168.5t74 126.5t122 85t179 28q76 0 141 -18t103 -39.5t92 -39.5t111 -18q48 0 90 16t67.5 38.5t40 43t17.5 33.5l205 -33q-17 -99 -44 -168.5t-74.5 -126t-123 -84.5t-180.5 -28q-76 0 -140.5 18t-103 39t-92.5 39t-111 18q-91 0 -149.5 -48t-63.5 -83
zM111 240q17 99 44 168.5t74 126t122 84.5t179 28q76 0 141 -18t103.5 -39.5t93 -39.5t111.5 -18q88 0 147 48t66 84l205 -33q-17 -99 -44 -168.5t-74.5 -126.5t-123 -85t-180.5 -28q-76 0 -140.5 18t-103 39.5t-92.5 39.5t-111 18q-90 0 -149 -48t-64 -83z" />
    <glyph glyph-name="notequal" unicode="&#x2260;" horiz-adv-x="1435" 
d="M147 143l152 187h-188l41 243h346l112 140h-434l45 245h590l137 168h234l-138 -168h259l-46 -245h-411l-115 -140h502l-43 -243h-655l-152 -187h-236z" />
    <glyph glyph-name="lessequal" unicode="&#x2264;" horiz-adv-x="1548" 
d="M1229 408l-979 270l55 321l1073 263l-53 -293l-750 -131l703 -136zM139 104l43 246h1037l-45 -246h-1035z" />
    <glyph glyph-name="greaterequal" unicode="&#x2265;" horiz-adv-x="1458" 
d="M184 406l49 294l756 136l-708 131l51 293l981 -263l-56 -323zM129 104l43 246h1034l-43 -246h-1034z" />
    <glyph glyph-name="uni2661" unicode="&#x2661;" horiz-adv-x="1716" 
d="M1563 825q-17 -93 -72.5 -189.5t-130.5 -176.5t-163.5 -155t-172.5 -131t-155 -98.5t-113.5 -64.5t-46.5 -22t-39 24t-90.5 70t-119 106.5t-124.5 140.5t-107 165.5t-65.5 188t-1.5 200.5q30 164 148 260t263 96q63 0 119.5 -16t92 -38.5t62 -45t41 -38.5t17.5 -16
q2 0 18 16t44 38.5t65 45t90.5 38.5t110.5 16q79 0 147 -29.5t114.5 -82.5t65.5 -131.5t3 -170.5zM522 733q-9 -47 13.5 -100t62.5 -96t80.5 -78.5t71.5 -58.5t32 -25q0 1 36 21.5t88.5 55.5t106.5 78.5t97 101.5t53 113q12 74 -24.5 111t-94.5 37q-25 0 -49 -4.5t-42 -12.5
t-34 -17t-27 -18t-19 -17t-13 -12l-4 -5h-6q-2 3 -5.5 9t-16.5 21t-29 26t-42 20.5t-55 9.5q-33 0 -68 -13.5t-69 -52t-43 -94.5z" />
    <glyph glyph-name="i.loclTRK" horiz-adv-x="720" 
d="M279 1282l57 332h420l-60 -332h-417zM51 0l199 1126h418l-199 -1126h-418z" />
    <glyph glyph-name="a.sc" horiz-adv-x="1433" 
d="M-117 0l703 1217h481l272 -1217h-428l-26 143h-490l-78 -143h-434zM551 434h278l-69 383z" />
    <glyph glyph-name="aacute.sc" horiz-adv-x="1433" 
d="M686 1368l291 393h395l-346 -393h-340zM-117 0l703 1217h481l272 -1217h-428l-26 143h-490l-78 -143h-434zM551 434h278l-69 383z" />
    <glyph glyph-name="abreve.sc" horiz-adv-x="1433" 
d="M1395 1739q-9 -51 -30.5 -101t-62.5 -102t-96 -91t-138 -64t-181 -25q-75 0 -138.5 13t-108 35.5t-80 52.5t-54.5 65t-32 72t-12 74t5 71h301q-9 -50 27 -89.5t102 -39.5q63 0 119 40.5t65 88.5h314zM-117 0l703 1217h481l272 -1217h-428l-26 143h-490l-78 -143h-434z
M551 434h278l-69 383z" />
    <glyph glyph-name="acircumflex.sc" horiz-adv-x="1433" 
d="M1341 1362h-315l-133 156l-178 -156h-348l376 387h351zM-117 0l703 1217h481l272 -1217h-428l-26 143h-490l-78 -143h-434zM551 434h278l-69 383z" />
    <glyph glyph-name="adieresis.sc" horiz-adv-x="1433" 
d="M403 1362l60 342h385l-62 -342h-383zM942 1362l59 342h385l-61 -342h-383zM-117 0l703 1217h481l272 -1217h-428l-26 143h-490l-78 -143h-434zM551 434h278l-69 383z" />
    <glyph glyph-name="uni1EA1.sc" horiz-adv-x="1433" 
d="M-117 0l703 1217h481l272 -1217h-428l-26 143h-490l-78 -143h-434zM551 434h278l-69 383zM328 -436l57 321h418l-58 -321h-417z" />
    <glyph glyph-name="agrave.sc" horiz-adv-x="1433" 
d="M1020 1368h-324l-204 393h374zM-117 0l703 1217h481l272 -1217h-428l-26 143h-490l-78 -143h-434zM551 434h278l-69 383z" />
    <glyph glyph-name="amacron.sc" horiz-adv-x="1433" 
d="M528 1653h770l-45 -246h-768zM-117 0l703 1217h481l272 -1217h-428l-26 143h-490l-78 -143h-434zM551 434h278l-69 383z" />
    <glyph glyph-name="aogonek.sc" horiz-adv-x="1433" 
d="M666 -248q7 43 33 84t56 68.5t66.5 51.5t55.5 34t32 16l-24 137h-490l-78 -143h-434l703 1217h481l272 -1217h-112q-7 -4 -19 -11t-43 -28.5t-55.5 -43t-47 -52.5t-26.5 -60q-12 -59 56 -59q23 0 52 9t46 17l18 9l-20 -180l-8.5 -8.5t-27 -19.5t-48 -24.5t-71.5 -19
t-97 -8.5q-59 0 -106 10.5t-76 28t-50.5 41t-29 49t-11 52t2.5 50.5zM551 434h278l-69 383z" />
    <glyph glyph-name="aring.sc" horiz-adv-x="1433" 
d="M1192 1575q-21 -120 -101.5 -178t-207.5 -58q-145 0 -218 77t-47 218q41 236 308 236q145 0 217.5 -76t48.5 -219zM831 1597q-6 -33 11.5 -50t48.5 -17q35 0 58.5 23t29.5 59q4 34 -12 50.5t-47 16.5q-35 0 -59 -23.5t-30 -58.5zM-117 0l703 1217h481l272 -1217h-428
l-26 143h-490l-78 -143h-434zM551 434h278l-69 383z" />
    <glyph glyph-name="aringacute.sc" horiz-adv-x="1433" 
d="M795 1946l290 393h396l-346 -393h-340zM1192 1575q-21 -120 -101.5 -178t-207.5 -58q-145 0 -218 77t-47 218q41 236 308 236q145 0 217.5 -76t48.5 -219zM831 1597q-6 -33 11.5 -50t48.5 -17q35 0 58.5 23t29.5 59q4 34 -12 50.5t-47 16.5q-35 0 -59 -23.5t-30 -58.5z
M-117 0l703 1217h481l272 -1217h-428l-26 143h-490l-78 -143h-434zM551 434h278l-69 383z" />
    <glyph glyph-name="atilde.sc" horiz-adv-x="1433" 
d="M1391 1741q-17 -91 -38 -154t-55.5 -115.5t-88 -78t-126.5 -25.5q-59 0 -105 11t-73.5 27t-50.5 32.5t-49 27.5t-55 11q-72 0 -117.5 -45t-52.5 -80l-174 32q17 90 38 153t55.5 115t87.5 77.5t126 25.5t127.5 -17t80 -37t58.5 -37t68 -17q39 0 72.5 15.5t53.5 38t31.5 41
t14.5 30.5zM-117 0l703 1217h481l272 -1217h-428l-26 143h-490l-78 -143h-434zM551 434h278l-69 383z" />
    <glyph glyph-name="ae.sc" horiz-adv-x="2056" 
d="M-117 0l899 1217h1286l-53 -302h-631l-30 -176h528l-43 -256h-530l-33 -182h645l-53 -301h-1043l31 176h-403l-119 -176h-451zM907 467l88 506l-344 -506h256z" />
    <glyph glyph-name="aeacute.sc" horiz-adv-x="2056" 
d="M879 1368l290 393h396l-346 -393h-340zM-117 0l899 1217h1286l-53 -302h-631l-30 -176h528l-43 -256h-530l-33 -182h645l-53 -301h-1043l31 176h-403l-119 -176h-451zM907 467l88 506l-344 -506h256z" />
    <glyph glyph-name="b.sc" horiz-adv-x="1443" 
d="M264 1219h535q243 0 373 -36.5t173 -112.5t19 -210q-32 -183 -211 -250q103 -42 137 -115.5t15 -177.5q-11 -68 -27.5 -112.5t-49 -82.5t-78.5 -59.5t-123 -36.5t-175.5 -20.5t-241.5 -5.5h-561zM616 961l-43 -244h166q124 0 179.5 27t68.5 104q9 67 -34.5 90t-180.5 23
h-156zM539 512l-45 -258h129q66 0 109 3t81.5 11t61.5 23t38 39t21 59q10 70 -35 96.5t-172 26.5h-188z" />
    <glyph glyph-name="ordfeminine.sc" horiz-adv-x="1083" 
d="M676 569l-10 52q-124 -80 -273 -80q-177 0 -259 74t-58 221q11 69 44 117t85.5 74t115 37t144.5 11q154 0 250 -14l4 18q13 82 -7.5 115t-105.5 33t-128.5 -32t-49.5 -71h-256q55 287 416 287q73 0 132 -7.5t103 -21t76.5 -35t54 -45.5t33.5 -57.5t17 -65.5t3.5 -74.5
t-6.5 -80.5t-14 -88l-24 -139l-25 -228h-262zM481 733q107 0 193 72l18 117q-58 4 -106 4q-106 0 -158 -26t-61 -81q-6 -42 19.5 -64t94.5 -22z" />
    <glyph glyph-name="ordmasculine.sc" horiz-adv-x="1077" 
d="M997 946q-18 -102 -53.5 -175.5t-95.5 -126.5t-150 -79t-213 -26q-131 0 -220 32t-134.5 92t-59 146.5t6.5 196.5q35 208 154 309.5t358 101.5q258 0 353 -121t54 -350zM373 981q-21 -114 4 -167.5t115 -53.5t141 49t72 164q20 115 -5 168t-116 53q-88 0 -139 -49
t-72 -164z" />
    <glyph glyph-name="c.sc" horiz-adv-x="1478" 
d="M1358 508q-23 -124 -65.5 -217t-100.5 -155.5t-138.5 -101t-172.5 -55t-209 -16.5q-337 0 -478 162t-79 514q59 330 236 472t495 142q150 0 258.5 -27.5t184.5 -88.5t103 -165.5t1 -250.5l-385 2q12 111 -31.5 161t-153.5 50q-124 0 -197.5 -75t-107.5 -230
q-23 -112 -18 -189.5t52.5 -117.5t141.5 -39q108 2 176.5 52t98.5 175z" />
    <glyph glyph-name="cacute.sc" horiz-adv-x="1478" 
d="M723 1386l291 394h395l-346 -394h-340zM1358 508q-23 -124 -65.5 -217t-100.5 -155.5t-138.5 -101t-172.5 -55t-209 -16.5q-337 0 -478 162t-79 514q59 330 236 472t495 142q150 0 258.5 -27.5t184.5 -88.5t103 -165.5t1 -250.5l-385 2q12 111 -31.5 161t-153.5 50
q-124 0 -197.5 -75t-107.5 -230q-23 -112 -18 -189.5t52.5 -117.5t141.5 -39q108 2 176.5 52t98.5 175z" />
    <glyph glyph-name="ccaron.sc" horiz-adv-x="1478" 
d="M1454 1767l-383 -387h-350l-229 387h301l133 -145l178 145h350zM1358 508q-23 -124 -65.5 -217t-100.5 -155.5t-138.5 -101t-172.5 -55t-209 -16.5q-337 0 -478 162t-79 514q59 330 236 472t495 142q150 0 258.5 -27.5t184.5 -88.5t103 -165.5t1 -250.5l-385 2
q12 111 -31.5 161t-153.5 50q-124 0 -197.5 -75t-107.5 -230q-23 -112 -18 -189.5t52.5 -117.5t141.5 -39q108 2 176.5 52t98.5 175z" />
    <glyph glyph-name="ccedilla.sc" horiz-adv-x="1478" 
d="M936 -377q-8 -52 -31.5 -88.5t-72.5 -65.5t-134 -43t-209 -14q-81 0 -145.5 8t-88.5 16l-24 7l15 158q0 -4 106 -4q87 0 138.5 34t62.5 93q6 40 -24 53.5t-97 15.5h-78l133 184q-237 39 -331 200t-41 462q59 330 236 472t495 142q150 0 258.5 -27.5t184.5 -88.5
t103 -165.5t1 -250.5l-385 2q12 111 -31.5 161t-153.5 50q-124 0 -197.5 -75t-107.5 -230q-23 -112 -18 -189.5t52.5 -117.5t141.5 -39q108 2 176.5 52t98.5 175l389 -2q-49 -261 -180.5 -386t-354.5 -151l-82 -108q44 -4 81.5 -19t68 -42.5t43 -73.5t2.5 -105z" />
    <glyph glyph-name="ccircumflex.sc" horiz-adv-x="1478" 
d="M1378 1380h-315l-133 156l-178 -156h-349l377 387h350zM1358 508q-23 -124 -65.5 -217t-100.5 -155.5t-138.5 -101t-172.5 -55t-209 -16.5q-337 0 -478 162t-79 514q59 330 236 472t495 142q150 0 258.5 -27.5t184.5 -88.5t103 -165.5t1 -250.5l-385 2q12 111 -31.5 161
t-153.5 50q-124 0 -197.5 -75t-107.5 -230q-23 -112 -18 -189.5t52.5 -117.5t141.5 -39q108 2 176.5 52t98.5 175z" />
    <glyph glyph-name="cdotaccent.sc" horiz-adv-x="1478" 
d="M694 1391l58 331h419l-59 -331h-418zM1358 508q-23 -124 -65.5 -217t-100.5 -155.5t-138.5 -101t-172.5 -55t-209 -16.5q-337 0 -478 162t-79 514q59 330 236 472t495 142q150 0 258.5 -27.5t184.5 -88.5t103 -165.5t1 -250.5l-385 2q12 111 -31.5 161t-153.5 50
q-124 0 -197.5 -75t-107.5 -230q-23 -112 -18 -189.5t52.5 -117.5t141.5 -39q108 2 176.5 52t98.5 175z" />
    <glyph glyph-name="d.sc" horiz-adv-x="1523" 
d="M264 1219h475q242 0 391 -41t215.5 -121t78.5 -199.5t-19 -277.5q-16 -91 -35 -157.5t-50.5 -130.5t-74.5 -107.5t-105.5 -80.5t-146 -58.5t-193 -33.5t-249.5 -12h-502zM612 897l-102 -582h152q160 -2 235 66.5t107 255.5q22 142 -27 201t-193 59h-172z" />
    <glyph glyph-name="eth.sc" horiz-adv-x="1523" 
d="M139 512h-112l39 195h108l90 512h475q242 0 391 -41t215.5 -121t78.5 -199.5t-19 -277.5q-16 -91 -35 -157.5t-50.5 -130.5t-74.5 -107.5t-105.5 -80.5t-146 -58.5t-193 -33.5t-249.5 -12h-502zM545 512l-35 -197h152q160 -2 235 66.5t107 255.5q22 142 -27 201t-193 59
h-172l-34 -190h206l-36 -195h-203z" />
    <glyph glyph-name="dcaron.sc" horiz-adv-x="1523" 
d="M1411 1749l-383 -387h-350l-229 387h301l133 -145l178 145h350zM264 1219h475q242 0 391 -41t215.5 -121t78.5 -199.5t-19 -277.5q-16 -91 -35 -157.5t-50.5 -130.5t-74.5 -107.5t-105.5 -80.5t-146 -58.5t-193 -33.5t-249.5 -12h-502zM612 897l-102 -582h152
q160 -2 235 66.5t107 255.5q22 142 -27 201t-193 59h-172z" />
    <glyph glyph-name="dcroat.sc" horiz-adv-x="1523" 
d="M139 512h-112l39 195h108l90 512h475q242 0 391 -41t215.5 -121t78.5 -199.5t-19 -277.5q-16 -91 -35 -157.5t-50.5 -130.5t-74.5 -107.5t-105.5 -80.5t-146 -58.5t-193 -33.5t-249.5 -12h-502zM545 512l-35 -197h152q160 -2 235 66.5t107 255.5q22 142 -27 201t-193 59
h-172l-32 -190h204l-36 -195h-203z" />
    <glyph glyph-name="e.sc" horiz-adv-x="1280" 
d="M49 0l215 1217h1028l-53 -302h-629l-32 -176h528l-45 -256h-529l-30 -182h643l-53 -301h-1043z" />
    <glyph glyph-name="eacute.sc" horiz-adv-x="1280" 
d="M621 1368l290 393h396l-346 -393h-340zM49 0l215 1217h1028l-53 -302h-629l-32 -176h528l-45 -256h-529l-30 -182h643l-53 -301h-1043z" />
    <glyph glyph-name="ebreve.sc" horiz-adv-x="1280" 
d="M1329 1739q-9 -51 -30.5 -101t-62.5 -102t-96 -91t-138 -64t-181 -25q-75 0 -138.5 13t-108 35.5t-80 52.5t-54.5 65t-32 72t-12 74t5 71h301q-9 -50 27 -89.5t102 -39.5q63 0 119.5 40.5t65.5 88.5h313zM49 0l215 1217h1028l-53 -302h-629l-32 -176h528l-45 -256h-529
l-30 -182h643l-53 -301h-1043z" />
    <glyph glyph-name="ecaron.sc" horiz-adv-x="1280" 
d="M1352 1749l-383 -387h-351l-229 387h301l133 -145l178 145h351zM49 0l215 1217h1028l-53 -302h-629l-32 -176h528l-45 -256h-529l-30 -182h643l-53 -301h-1043z" />
    <glyph glyph-name="ecircumflex.sc" horiz-adv-x="1280" 
d="M1276 1362h-315l-134 156l-178 -156h-348l377 387h350zM49 0l215 1217h1028l-53 -302h-629l-32 -176h528l-45 -256h-529l-30 -182h643l-53 -301h-1043z" />
    <glyph glyph-name="edieresis.sc" horiz-adv-x="1280" 
d="M338 1362l59 342h385l-61 -342h-383zM877 1362l59 342h385l-61 -342h-383zM49 0l215 1217h1028l-53 -302h-629l-32 -176h528l-45 -256h-529l-30 -182h643l-53 -301h-1043z" />
    <glyph glyph-name="edotaccent.sc" horiz-adv-x="1280" 
d="M592 1372l57 332h420l-59 -332h-418zM49 0l215 1217h1028l-53 -302h-629l-32 -176h528l-45 -256h-529l-30 -182h643l-53 -301h-1043z" />
    <glyph glyph-name="uni1EB9.sc" horiz-adv-x="1280" 
d="M49 0l215 1217h1028l-53 -302h-629l-32 -176h528l-45 -256h-529l-30 -182h643l-53 -301h-1043zM295 -436l57 321h418l-57 -321h-418z" />
    <glyph glyph-name="egrave.sc" horiz-adv-x="1280" 
d="M954 1368h-323l-205 393h375zM49 0l215 1217h1028l-53 -302h-629l-32 -176h528l-45 -256h-529l-30 -182h643l-53 -301h-1043z" />
    <glyph glyph-name="emacron.sc" horiz-adv-x="1280" 
d="M463 1653h770l-45 -246h-768zM49 0l215 1217h1028l-53 -302h-629l-32 -176h528l-45 -256h-529l-30 -182h643l-53 -301h-1043z" />
    <glyph glyph-name="eogonek.sc" horiz-adv-x="1280" 
d="M530 -248q7 46 35.5 89.5t69 75.5t68.5 50t57 33h-711l215 1217h1028l-53 -302h-629l-32 -176h528l-45 -256h-529l-30 -182h643l-53 -301q-7 -4 -19 -11t-43 -28.5t-55.5 -43t-47 -52.5t-26.5 -60q-12 -59 55 -59q23 0 52 9t47 17l18 9l-20 -180l-8.5 -8.5t-27 -19.5
t-48 -24.5t-71.5 -19t-97 -8.5q-87 0 -147 22t-86.5 58t-35.5 73.5t-2 77.5z" />
    <glyph glyph-name="uni1EBD.sc" horiz-adv-x="1280" 
d="M1325 1741q-17 -92 -37.5 -154.5t-55 -115t-88 -78t-126.5 -25.5q-59 0 -105 11t-74 27t-51 32.5t-49 27.5t-55 11q-72 0 -117.5 -45t-52.5 -80l-174 32q17 90 38 153t55.5 115t87.5 77.5t126 25.5t127.5 -17t80 -37t58.5 -37t68 -17q39 0 72.5 15.5t53.5 38t31.5 41
t14.5 30.5zM49 0l215 1217h1028l-53 -302h-629l-32 -176h528l-45 -256h-529l-30 -182h643l-53 -301h-1043z" />
    <glyph glyph-name="f.sc" horiz-adv-x="1191" 
d="M49 0l215 1217h998l-52 -302h-600l-41 -225h498l-45 -264h-498l-75 -426h-400z" />
    <glyph glyph-name="g.sc" horiz-adv-x="1488" 
d="M1282 174q0 -2 -22.5 -22.5t-73.5 -52t-119 -62t-174 -52t-223 -22.5q-339 -2 -478 160.5t-77 515.5q59 331 234 472.5t495 141.5q310 0 444.5 -122.5t89.5 -380.5l-370 2q10 93 -38.5 137.5t-150.5 44.5q-122 0 -194.5 -75.5t-106.5 -229.5q-22 -113 -17.5 -193.5
t55.5 -125t151 -44.5q65 0 125.5 21.5t91 45t30.5 36.5l13 80h-197l35 188h555z" />
    <glyph glyph-name="gbreve.sc" horiz-adv-x="1488" 
d="M1421 1757q-9 -51 -30.5 -101t-62.5 -102t-96 -91t-138 -64t-181 -25q-87 0 -158.5 17.5t-117.5 47t-80 68t-47.5 81t-19.5 86t4 83.5h301q-9 -50 27 -89.5t102 -39.5q63 0 119 40.5t65 88.5h313zM1282 174q0 -2 -22.5 -22.5t-73.5 -52t-119 -62t-174 -52t-223 -22.5
q-339 -2 -478 160.5t-77 515.5q59 331 234 472.5t495 141.5q310 0 444.5 -122.5t89.5 -380.5l-370 2q10 93 -38.5 137.5t-150.5 44.5q-122 0 -194.5 -75.5t-106.5 -229.5q-22 -113 -17.5 -193.5t55.5 -125t151 -44.5q65 0 125.5 21.5t91 45t30.5 36.5l13 80h-197l35 188h555
z" />
    <glyph glyph-name="gcaron.sc" horiz-adv-x="1488" 
d="M1444 1767l-383 -387h-350l-230 387h301l133 -145l179 145h350zM1282 174q0 -2 -22.5 -22.5t-73.5 -52t-119 -62t-174 -52t-223 -22.5q-339 -2 -478 160.5t-77 515.5q59 331 234 472.5t495 141.5q310 0 444.5 -122.5t89.5 -380.5l-370 2q10 93 -38.5 137.5t-150.5 44.5
q-122 0 -194.5 -75.5t-106.5 -229.5q-22 -113 -17.5 -193.5t55.5 -125t151 -44.5q65 0 125.5 21.5t91 45t30.5 36.5l13 80h-197l35 188h555z" />
    <glyph glyph-name="gcircumflex.sc" horiz-adv-x="1488" 
d="M1368 1380h-315l-133 156l-179 -156h-348l377 387h350zM1282 174q0 -2 -22.5 -22.5t-73.5 -52t-119 -62t-174 -52t-223 -22.5q-339 -2 -478 160.5t-77 515.5q59 331 234 472.5t495 141.5q310 0 444.5 -122.5t89.5 -380.5l-370 2q10 93 -38.5 137.5t-150.5 44.5
q-122 0 -194.5 -75.5t-106.5 -229.5q-22 -113 -17.5 -193.5t55.5 -125t151 -44.5q65 0 125.5 21.5t91 45t30.5 36.5l13 80h-197l35 188h555z" />
    <glyph glyph-name="gcommaaccent.sc" horiz-adv-x="1488" 
d="M1282 174q0 -2 -22.5 -22.5t-73.5 -52t-119 -62t-174 -52t-223 -22.5q-339 -2 -478 160.5t-77 515.5q59 331 234 472.5t495 141.5q310 0 444.5 -122.5t89.5 -380.5l-370 2q10 93 -38.5 137.5t-150.5 44.5q-122 0 -194.5 -75.5t-106.5 -229.5q-22 -113 -17.5 -193.5
t55.5 -125t151 -44.5q65 0 125.5 21.5t91 45t30.5 36.5l13 80h-197l35 188h555zM266 -723q70 139 142 317q27 64 49.5 129t31.5 97l9 33h366q-49 -164 -137 -334q-44 -83 -86.5 -143.5t-62.5 -79.5l-21 -19h-291z" />
    <glyph glyph-name="gdotaccent.sc" horiz-adv-x="1488" 
d="M684 1391l57 331h420l-59 -331h-418zM1282 174q0 -2 -22.5 -22.5t-73.5 -52t-119 -62t-174 -52t-223 -22.5q-339 -2 -478 160.5t-77 515.5q59 331 234 472.5t495 141.5q310 0 444.5 -122.5t89.5 -380.5l-370 2q10 93 -38.5 137.5t-150.5 44.5q-122 0 -194.5 -75.5
t-106.5 -229.5q-22 -113 -17.5 -193.5t55.5 -125t151 -44.5q65 0 125.5 21.5t91 45t30.5 36.5l13 80h-197l35 188h555z" />
    <glyph glyph-name="h.sc" horiz-adv-x="1525" 
d="M49 0l215 1217h400l-78 -439h413l78 439h400l-215 -1217h-398l80 457h-416l-79 -457h-400z" />
    <glyph glyph-name="hbar.sc" horiz-adv-x="1525" 
d="M1421 903l-159 -903h-398l80 457h-416l-79 -457h-400l160 903h-148v162h177l26 152h400l-27 -152h414l26 152h400l-27 -152h129v-162h-158zM999 778l23 125h-414l-22 -125h413z" />
    <glyph glyph-name="hcircumflex.sc" horiz-adv-x="1525" 
d="M1374 1362h-315l-133 156l-178 -156h-349l377 387h350zM49 0l215 1217h400l-78 -439h413l78 439h400l-215 -1217h-398l80 457h-416l-79 -457h-400z" />
    <glyph glyph-name="i.sc" horiz-adv-x="712" 
d="M49 0l215 1217h400l-215 -1217h-400z" />
    <glyph glyph-name="iacute.sc" horiz-adv-x="712" 
d="M322 1368l290 393h396l-346 -393h-340zM49 0l215 1217h400l-215 -1217h-400z" />
    <glyph glyph-name="ibreve.sc" horiz-adv-x="712" 
d="M1030 1739q-9 -51 -30.5 -101t-62.5 -102t-96 -91t-138 -64t-181 -25q-75 0 -138.5 13t-108 35.5t-80 52.5t-54.5 65t-32 72t-12 74t5 71h301q-9 -50 27 -89.5t102 -39.5q63 0 119.5 40.5t65.5 88.5h313zM49 0l215 1217h400l-215 -1217h-400z" />
    <glyph glyph-name="icircumflex.sc" horiz-adv-x="712" 
d="M977 1362h-315l-134 156l-178 -156h-348l377 387h350zM49 0l215 1217h400l-215 -1217h-400z" />
    <glyph glyph-name="idieresis.sc" horiz-adv-x="712" 
d="M39 1362l59 342h385l-61 -342h-383zM578 1362l59 342h385l-61 -342h-383zM49 0l215 1217h400l-215 -1217h-400z" />
    <glyph glyph-name="i.sc.loclTRK" horiz-adv-x="712" 
d="M293 1372l57 332h420l-59 -332h-418zM49 0l215 1217h400l-215 -1217h-400z" />
    <glyph glyph-name="uni1ECB.sc" horiz-adv-x="712" 
d="M49 0l215 1217h400l-215 -1217h-400zM-39 -453l57 322h418l-57 -322h-418z" />
    <glyph glyph-name="igrave.sc" horiz-adv-x="712" 
d="M655 1368h-323l-205 393h375zM49 0l215 1217h400l-215 -1217h-400z" />
    <glyph glyph-name="ij.sc" horiz-adv-x="1521" 
d="M49 0l215 1217h400l-215 -1217h-400zM1380 539q-21 -117 -36 -179.5t-45.5 -134.5t-71.5 -106t-110.5 -66t-166.5 -42.5t-235 -10.5h-113l60 344h90q109 0 161 50.5t74 174.5l115 648h399z" />
    <glyph glyph-name="imacron.sc" horiz-adv-x="712" 
d="M164 1653h770l-45 -246h-768zM49 0l215 1217h400l-215 -1217h-400z" />
    <glyph glyph-name="iogonek.sc" horiz-adv-x="712" 
d="M-195 -248q8 43 34 84t57 69t65.5 51.5t56 34.5t31.5 15l215 1211h400l-215 -1217h-82q-7 -4 -19 -11t-43 -28.5t-55.5 -43t-47 -52.5t-26.5 -60q-12 -59 55 -59q23 0 52 9t47 17l18 9l-20 -180l-8.5 -8.5t-27 -19.5t-48 -24.5t-71.5 -19t-97 -8.5q-87 0 -147 22
t-86.5 58t-35.5 73.5t-2 77.5z" />
    <glyph glyph-name="itilde.sc" horiz-adv-x="712" 
d="M1026 1741q-17 -92 -37.5 -154.5t-55 -115t-88 -78t-126.5 -25.5q-59 0 -105 11t-74 27t-51 32.5t-49 27.5t-55 11q-72 0 -117.5 -45t-52.5 -80l-174 32q17 90 38 153t55.5 115t87.5 77.5t126 25.5t127.5 -17t80 -37t58.5 -37t68 -17q39 0 72.5 15.5t53.5 38t31.5 41
t14.5 30.5zM49 0l215 1217h400l-215 -1217h-400z" />
    <glyph glyph-name="j.sc" horiz-adv-x="808" 
d="M668 539q-20 -116 -35.5 -179.5t-46 -135t-72 -105.5t-111 -66t-166.5 -42.5t-235 -10.5h-113l60 344h90q109 0 161 50.5t74 174.5l115 648h399z" />
    <glyph glyph-name="jcircumflex.sc" horiz-adv-x="808" 
d="M1077 1303h-315l-133 155l-178 -155h-349l377 387h350zM668 539q-20 -116 -35.5 -179.5t-46 -135t-72 -105.5t-111 -66t-166.5 -42.5t-235 -10.5h-113l60 344h90q109 0 161 50.5t74 174.5l115 648h399z" />
    <glyph glyph-name="k.sc" horiz-adv-x="1443" 
d="M49 0l215 1217h400l-103 -574l543 574h448l-526 -500l311 -717h-417l-191 432l-246 -233l-34 -199h-400z" />
    <glyph glyph-name="kcommaaccent.sc" horiz-adv-x="1443" 
d="M49 0l215 1217h400l-103 -574l543 574h448l-526 -500l311 -717h-417l-191 432l-246 -233l-34 -199h-400zM272 -686q70 139 142 317q27 64 49.5 128.5t31.5 96.5l9 33h366q-49 -163 -137 -333q-44 -83 -86.5 -143.5t-62.5 -79.5l-21 -19h-291z" />
    <glyph glyph-name="l.sc" horiz-adv-x="1105" 
d="M49 0l215 1217h400l-154 -867h526l-63 -350h-924z" />
    <glyph glyph-name="lacute.sc" horiz-adv-x="1105" 
d="M319 1368l291 393h396l-347 -393h-340zM49 0l215 1217h400l-154 -867h526l-63 -350h-924z" />
    <glyph glyph-name="lcaron.sc" horiz-adv-x="1105" 
d="M709 895l219 451h327l-309 -451h-237zM49 0l215 1217h400l-154 -867h526l-63 -350h-924z" />
    <glyph glyph-name="lcommaaccent.sc" horiz-adv-x="1105" 
d="M49 0l215 1217h400l-154 -867h526l-63 -350h-924zM80 -717q69 140 141 318q27 64 49.5 128.5t31.5 96.5l9 33h367q-49 -164 -137 -334q-44 -83 -86.5 -143.5t-62.5 -79.5l-21 -19h-291z" />
    <glyph glyph-name="ldot.sc" horiz-adv-x="1105" 
d="M49 0l215 1217h400l-154 -867h526l-63 -350h-924zM627 532l57 330h420l-57 -330h-420z" />
    <glyph glyph-name="lslash.sc" horiz-adv-x="1105" 
d="M563 655l-53 -305h526l-63 -350h-924l84 471l-215 -90l-68 225l330 142l84 469h400l-52 -285l199 84l68 -225z" />
    <glyph glyph-name="m.sc" horiz-adv-x="2050" 
d="M49 0l215 1217h576l125 -914l438 914h598l-217 -1217h-381l199 909l-498 -909h-389l-166 907l-123 -907h-377z" />
    <glyph glyph-name="n.sc" horiz-adv-x="1619" 
d="M553 754l-115 -754h-389l219 1217h492l313 -736l113 736h385l-215 -1217h-494z" />
    <glyph glyph-name="nacute.sc" horiz-adv-x="1619" 
d="M795 1368l290 393h396l-346 -393h-340zM553 754l-115 -754h-389l219 1217h492l313 -736l113 736h385l-215 -1217h-494z" />
    <glyph glyph-name="ncaron.sc" horiz-adv-x="1619" 
d="M1526 1749l-383 -387h-350l-230 387h301l133 -145l179 145h350zM553 754l-115 -754h-389l219 1217h492l313 -736l113 736h385l-215 -1217h-494z" />
    <glyph glyph-name="ncommaaccent.sc" horiz-adv-x="1619" 
d="M553 754l-115 -754h-389l219 1217h492l313 -736l113 736h385l-215 -1217h-494zM338 -686q69 139 141 317q27 64 49.5 128.5t31.5 96.5l9 33h367q-49 -163 -137 -333q-44 -83 -86.5 -143.5t-62.5 -79.5l-21 -19h-291z" />
    <glyph glyph-name="eng.sc" horiz-adv-x="1585" 
d="M1536 1217l-215 -1217q-12 -64 -32 -115.5t-64.5 -106.5t-108.5 -92t-169 -61t-240 -24h-125l51 272h98q108 0 176 32t78 95l-453 731l-110 -731h-373l219 1217h406l395 -652l98 652h369z" />
    <glyph glyph-name="uni0272.sc" horiz-adv-x="1531" 
d="M215 1217h457l325 -783l117 783h369l-213 -1217h-457l-326 817l-135 -817q-11 -64 -30.5 -115.5t-63 -106.5t-106 -92t-165 -61t-235.5 -24h-123l52 278h96q198 0 221 121z" />
    <glyph glyph-name="ntilde.sc" horiz-adv-x="1619" 
d="M1499 1741q-17 -92 -37.5 -154.5t-55 -115t-88 -78t-126.5 -25.5q-59 0 -105 11t-74 27t-51 32.5t-49 27.5t-55 11q-72 0 -117.5 -45t-52.5 -80l-174 32q17 90 38 153t55.5 115t87.5 77.5t126 25.5t127.5 -17t80 -37t58.5 -37t68 -17q39 0 72.5 15.5t53.5 38t31.5 41
t14.5 30.5zM553 754l-115 -754h-389l219 1217h492l313 -736l113 736h385l-215 -1217h-494z" />
    <glyph glyph-name="o.sc" horiz-adv-x="1523" 
d="M1409 580q-59 -330 -237.5 -473.5t-497.5 -143.5q-340 0 -480 162t-77 514q59 331 235 472.5t496 141.5q340 0 481.5 -160.5t79.5 -512.5zM520 629q-24 -112 -19.5 -189.5t52.5 -117.5t143 -39q134 1 205 75t103 230q23 113 18 190t-52.5 116.5t-142.5 39.5
q-127 0 -200.5 -75t-106.5 -230z" />
    <glyph glyph-name="oacute.sc" horiz-adv-x="1523" 
d="M721 1386l291 394h395l-346 -394h-340zM1409 580q-59 -330 -237.5 -473.5t-497.5 -143.5q-340 0 -480 162t-77 514q59 331 235 472.5t496 141.5q340 0 481.5 -160.5t79.5 -512.5zM520 629q-24 -112 -19.5 -189.5t52.5 -117.5t143 -39q134 1 205 75t103 230q23 113 18 190
t-52.5 116.5t-142.5 39.5q-127 0 -200.5 -75t-106.5 -230z" />
    <glyph glyph-name="obreve.sc" horiz-adv-x="1523" 
d="M1430 1757q-9 -51 -30.5 -101t-62.5 -102t-96 -91t-138 -64t-181 -25q-75 0 -138.5 13t-108 35.5t-80 52.5t-54.5 65t-32 72t-12 74t5 71h301q-9 -50 27 -89.5t102 -39.5q63 0 119 40.5t65 88.5h314zM1409 580q-59 -330 -237.5 -473.5t-497.5 -143.5q-340 0 -480 162
t-77 514q59 331 235 472.5t496 141.5q340 0 481.5 -160.5t79.5 -512.5zM520 629q-24 -112 -19.5 -189.5t52.5 -117.5t143 -39q134 1 205 75t103 230q23 113 18 190t-52.5 116.5t-142.5 39.5q-127 0 -200.5 -75t-106.5 -230z" />
    <glyph glyph-name="ocircumflex.sc" horiz-adv-x="1523" 
d="M1376 1380h-315l-133 156l-178 -156h-349l377 387h350zM1409 580q-59 -330 -237.5 -473.5t-497.5 -143.5q-340 0 -480 162t-77 514q59 331 235 472.5t496 141.5q340 0 481.5 -160.5t79.5 -512.5zM520 629q-24 -112 -19.5 -189.5t52.5 -117.5t143 -39q134 1 205 75
t103 230q23 113 18 190t-52.5 116.5t-142.5 39.5q-127 0 -200.5 -75t-106.5 -230z" />
    <glyph glyph-name="odieresis.sc" horiz-adv-x="1523" 
d="M438 1380l60 342h385l-62 -342h-383zM977 1380l59 342h385l-61 -342h-383zM1409 580q-59 -330 -237.5 -473.5t-497.5 -143.5q-340 0 -480 162t-77 514q59 331 235 472.5t496 141.5q340 0 481.5 -160.5t79.5 -512.5zM520 629q-24 -112 -19.5 -189.5t52.5 -117.5t143 -39
q134 1 205 75t103 230q23 113 18 190t-52.5 116.5t-142.5 39.5q-127 0 -200.5 -75t-106.5 -230z" />
    <glyph glyph-name="uni1ECD.sc" horiz-adv-x="1523" 
d="M1409 580q-59 -330 -237.5 -473.5t-497.5 -143.5q-340 0 -480 162t-77 514q59 331 235 472.5t496 141.5q340 0 481.5 -160.5t79.5 -512.5zM520 629q-24 -112 -19.5 -189.5t52.5 -117.5t143 -39q134 1 205 75t103 230q23 113 18 190t-52.5 116.5t-142.5 39.5
q-127 0 -200.5 -75t-106.5 -230zM369 -483l57 321h418l-58 -321h-417z" />
    <glyph glyph-name="ograve.sc" horiz-adv-x="1523" 
d="M1055 1386h-324l-205 394h375zM1409 580q-59 -330 -237.5 -473.5t-497.5 -143.5q-340 0 -480 162t-77 514q59 331 235 472.5t496 141.5q340 0 481.5 -160.5t79.5 -512.5zM520 629q-24 -112 -19.5 -189.5t52.5 -117.5t143 -39q134 1 205 75t103 230q23 113 18 190
t-52.5 116.5t-142.5 39.5q-127 0 -200.5 -75t-106.5 -230z" />
    <glyph glyph-name="ohungarumlaut.sc" horiz-adv-x="1523" 
d="M395 1386l287 394h426l-338 -394h-375zM903 1386l342 394h428l-393 -394h-377zM1409 580q-59 -330 -237.5 -473.5t-497.5 -143.5q-340 0 -480 162t-77 514q59 331 235 472.5t496 141.5q340 0 481.5 -160.5t79.5 -512.5zM520 629q-24 -112 -19.5 -189.5t52.5 -117.5
t143 -39q134 1 205 75t103 230q23 113 18 190t-52.5 116.5t-142.5 39.5q-127 0 -200.5 -75t-106.5 -230z" />
    <glyph glyph-name="omacron.sc" horiz-adv-x="1523" 
d="M563 1671h770l-45 -246h-768zM1409 580q-59 -330 -237.5 -473.5t-497.5 -143.5q-340 0 -480 162t-77 514q59 331 235 472.5t496 141.5q340 0 481.5 -160.5t79.5 -512.5zM520 629q-24 -112 -19.5 -189.5t52.5 -117.5t143 -39q134 1 205 75t103 230q23 113 18 190
t-52.5 116.5t-142.5 39.5q-127 0 -200.5 -75t-106.5 -230z" />
    <glyph glyph-name="uni01EB.sc" horiz-adv-x="1523" 
d="M553 -178q10 71 80 141q-318 9 -448 171.5t-68 504.5q59 331 235 472.5t496 141.5q340 0 481.5 -160.5t79.5 -512.5q-38 -213 -125 -346.5t-227 -198.5q-121 -83 -133 -160q-12 -59 55 -59q23 0 52 8.5t47 17.5l18 8l-21 -180l-8.5 -8.5t-27 -19.5t-48 -24.5t-71.5 -19
t-97 -8.5q-59 0 -106 10.5t-76 28.5t-50.5 41t-29 49t-11 52.5t2.5 50.5zM520 629q-24 -112 -19.5 -189.5t52.5 -117.5t143 -39q134 1 205 75t103 230q23 113 18 190t-52.5 116.5t-142.5 39.5q-127 0 -200.5 -75t-106.5 -230z" />
    <glyph glyph-name="oslash.sc" horiz-adv-x="1523" 
d="M6 -27l174 166q-124 164 -63 500q59 331 235 472.5t496 141.5q265 0 405 -96l76 72h168l-158 -150q127 -165 70 -499q-59 -330 -237.5 -473.5t-497.5 -143.5q-268 0 -408 96l-90 -86h-170zM520 629q-25 -118 -20 -187l473 449q-49 43 -146 43q-127 0 -200.5 -75
t-106.5 -230zM1004 588q23 122 18 188l-475 -450q52 -46 149 -43q134 1 205 75t103 230z" />
    <glyph glyph-name="oslashacute.sc" horiz-adv-x="1523" 
d="M721 1386l291 394h395l-346 -394h-340zM6 -27l174 166q-124 164 -63 500q59 331 235 472.5t496 141.5q265 0 405 -96l76 72h168l-158 -150q127 -165 70 -499q-59 -330 -237.5 -473.5t-497.5 -143.5q-268 0 -408 96l-90 -86h-170zM520 629q-25 -118 -20 -187l473 449
q-49 43 -146 43q-127 0 -200.5 -75t-106.5 -230zM1004 588q23 122 18 188l-475 -450q52 -46 149 -43q134 1 205 75t103 230z" />
    <glyph glyph-name="otilde.sc" horiz-adv-x="1523" 
d="M1425 1759q-17 -92 -37.5 -154.5t-55 -115t-88 -78t-126.5 -25.5q-59 0 -105 11t-74 27t-51 32.5t-49 27.5t-55 11q-72 0 -117.5 -45t-52.5 -80l-174 33q17 90 38 153t56 115t88 77.5t126 25.5t127 -17t79.5 -37.5t58.5 -37.5t68 -17q39 0 72.5 15.5t53.5 38t31.5 41
t14.5 30.5zM1409 580q-59 -330 -237.5 -473.5t-497.5 -143.5q-340 0 -480 162t-77 514q59 331 235 472.5t496 141.5q340 0 481.5 -160.5t79.5 -512.5zM520 629q-24 -112 -19.5 -189.5t52.5 -117.5t143 -39q134 1 205 75t103 230q23 113 18 190t-52.5 116.5t-142.5 39.5
q-127 0 -200.5 -75t-106.5 -230z" />
    <glyph glyph-name="oe.sc" horiz-adv-x="2023" 
d="M666 0q-97 0 -172 8t-142 28t-113 52.5t-79.5 81.5t-48.5 115.5t-13.5 155t21.5 198.5q18 104 45 185.5t61.5 142.5t82 104t101 71.5t125.5 45t148 23t174 6.5h1180l-54 -302h-628l-33 -176h528l-43 -256h-530l-31 -182h643l-53 -301h-1169zM518 580q-12 -67 -12 -114.5
t11.5 -79t36.5 -50t59.5 -26t84.5 -7.5h148l108 610h-123q-64 0 -109.5 -12.5t-87 -47.5t-70 -102t-46.5 -171z" />
    <glyph glyph-name="p.sc" horiz-adv-x="1435" 
d="M49 0l215 1219h477q124 0 219 -7.5t173 -24t130.5 -43t90 -65t52.5 -89.5t18.5 -116t-13.5 -145q-16 -89 -41.5 -153t-69.5 -114t-102.5 -81t-146.5 -50.5t-194 -27.5t-253 -8h-104l-51 -295h-400zM608 913l-53 -305h133q62 0 102 2.5t82 12t67 27t44 48t27 74.5
q14 87 -41 114t-205 27h-156z" />
    <glyph glyph-name="thorn.sc" horiz-adv-x="1443" 
d="M49 0l215 1217h402l-25 -136h186q98 0 175.5 -7.5t142 -24.5t109 -44.5t77.5 -66.5t46 -90.5t15.5 -118t-14.5 -147.5q-19 -106 -53.5 -179t-86 -123t-133 -77.5t-182 -39t-245.5 -11.5h-203l-26 -152h-400zM584 766l-54 -303h146q56 0 95.5 3.5t77 13.5t61.5 27.5
t42 47.5t25 72q14 86 -35.5 112.5t-189.5 26.5h-168z" />
    <glyph glyph-name="q.sc" horiz-adv-x="1519" 
d="M1409 580q-62 -354 -274 -500l149 -150l-274 -206l-199 247q-57 -8 -137 -8q-340 0 -480 162t-77 514q59 331 235 472.5t496 141.5q340 0 481.5 -160.5t79.5 -512.5zM520 631q-24 -113 -19.5 -190.5t52.5 -118t143 -39.5q134 1 205 75t103 230q23 113 18 190t-53 116.5
t-144 39.5q-126 0 -199 -75t-106 -228z" />
    <glyph glyph-name="r.sc" horiz-adv-x="1501" 
d="M49 0l215 1219h590q103 0 183 -7.5t147.5 -23.5t112.5 -42.5t79 -65t47.5 -89.5t16 -117t-14.5 -147q-26 -155 -87.5 -241.5t-176.5 -127.5l131 -358h-418l-90 309h-282l-53 -309h-400zM608 905l-51 -287h150q64 0 106 3t82.5 12t64.5 25.5t41.5 44.5t24.5 69
q13 82 -41 107.5t-207 25.5h-170z" />
    <glyph glyph-name="racute.sc" horiz-adv-x="1501" 
d="M666 1368l290 393h396l-346 -393h-340zM49 0l215 1219h590q103 0 183 -7.5t147.5 -23.5t112.5 -42.5t79 -65t47.5 -89.5t16 -117t-14.5 -147q-26 -155 -87.5 -241.5t-176.5 -127.5l131 -358h-418l-90 309h-282l-53 -309h-400zM608 905l-51 -287h150q64 0 106 3t82.5 12
t64.5 25.5t41.5 44.5t24.5 69q13 82 -41 107.5t-207 25.5h-170z" />
    <glyph glyph-name="rcaron.sc" horiz-adv-x="1501" 
d="M1397 1749l-383 -387h-350l-230 387h301l133 -145l179 145h350zM49 0l215 1219h590q103 0 183 -7.5t147.5 -23.5t112.5 -42.5t79 -65t47.5 -89.5t16 -117t-14.5 -147q-26 -155 -87.5 -241.5t-176.5 -127.5l131 -358h-418l-90 309h-282l-53 -309h-400zM608 905l-51 -287
h150q64 0 106 3t82.5 12t64.5 25.5t41.5 44.5t24.5 69q13 82 -41 107.5t-207 25.5h-170z" />
    <glyph glyph-name="rcommaaccent.sc" horiz-adv-x="1501" 
d="M49 0l215 1219h590q103 0 183 -7.5t147.5 -23.5t112.5 -42.5t79 -65t47.5 -89.5t16 -117t-14.5 -147q-26 -155 -87.5 -241.5t-176.5 -127.5l131 -358h-418l-90 309h-282l-53 -309h-400zM608 905l-51 -287h150q64 0 106 3t82.5 12t64.5 25.5t41.5 44.5t24.5 69
q13 82 -41 107.5t-207 25.5h-170zM225 -686q70 139 142 317q27 64 49.5 128.5t31.5 96.5l9 33h366q-49 -163 -137 -333q-44 -83 -86.5 -143.5t-63.5 -79.5l-20 -19h-291z" />
    <glyph glyph-name="s.sc" horiz-adv-x="1431" 
d="M1280 352q-35 -201 -198 -296t-459 -93q-308 2 -450.5 116.5t-102.5 330.5l370 -2q-14 -82 41.5 -118t169.5 -38q222 -3 244 119q6 32 -19 53.5t-71 33.5t-106.5 20.5t-127.5 18t-133 23.5t-123 40.5t-98 64t-57.5 98.5t-1.5 141q74 394 637 391q322 -1 450.5 -112
t91.5 -320l-370 2q4 26 -1 47.5t-23 42.5t-61 33t-108 13q-212 3 -229 -121q-5 -33 20 -54.5t70.5 -33.5t106 -20t127 -17t132 -22.5t122 -39t97.5 -62.5t57.5 -98t2.5 -141z" />
    <glyph glyph-name="sacute.sc" horiz-adv-x="1431" 
d="M672 1386l291 394h395l-346 -394h-340zM1280 352q-35 -201 -198 -296t-459 -93q-308 2 -450.5 116.5t-102.5 330.5l370 -2q-14 -82 41.5 -118t169.5 -38q222 -3 244 119q6 32 -19 53.5t-71 33.5t-106.5 20.5t-127.5 18t-133 23.5t-123 40.5t-98 64t-57.5 98.5t-1.5 141
q74 394 637 391q322 -1 450.5 -112t91.5 -320l-370 2q4 26 -1 47.5t-23 42.5t-61 33t-108 13q-212 3 -229 -121q-5 -33 20 -54.5t70.5 -33.5t106 -20t127 -17t132 -22.5t122 -39t97.5 -62.5t57.5 -98t2.5 -141z" />
    <glyph glyph-name="scaron.sc" horiz-adv-x="1431" 
d="M1403 1767l-383 -387h-350l-230 387h301l133 -145l179 145h350zM1280 352q-35 -201 -198 -296t-459 -93q-308 2 -450.5 116.5t-102.5 330.5l370 -2q-14 -82 41.5 -118t169.5 -38q222 -3 244 119q6 32 -19 53.5t-71 33.5t-106.5 20.5t-127.5 18t-133 23.5t-123 40.5
t-98 64t-57.5 98.5t-1.5 141q74 394 637 391q322 -1 450.5 -112t91.5 -320l-370 2q4 26 -1 47.5t-23 42.5t-61 33t-108 13q-212 3 -229 -121q-5 -33 20 -54.5t70.5 -33.5t106 -20t127 -17t132 -22.5t122 -39t97.5 -62.5t57.5 -98t2.5 -141z" />
    <glyph glyph-name="scedilla.sc" horiz-adv-x="1431" 
d="M881 -399q-8 -52 -31.5 -88.5t-72.5 -65.5t-134 -43t-209 -14q-81 0 -145.5 7.5t-88.5 14.5l-24 8l14 158q0 -4 107 -4q87 0 138.5 34t62.5 93q6 40 -24 54t-97 16h-78l147 204q-217 31 -313.5 141.5t-62.5 293.5l370 -2q-14 -82 41.5 -118t169.5 -38q222 -3 244 119
q6 32 -19 53.5t-71 33.5t-106.5 20.5t-127.5 18t-133 23.5t-123 40.5t-98 64t-57.5 98.5t-1.5 141q74 394 637 391q322 -1 450.5 -112t91.5 -320l-370 2q4 26 -1 47.5t-23 42.5t-61 33t-108 13q-212 3 -229 -121q-5 -33 20 -54.5t70.5 -33.5t106 -20t127 -17t132 -22.5
t122 -39t97.5 -62.5t57.5 -98t2.5 -141q-31 -172 -153.5 -265.5t-342.5 -115.5l-98 -131q44 -4 81.5 -19t68 -42.5t43 -73t2.5 -104.5z" />
    <glyph glyph-name="scircumflex.sc" horiz-adv-x="1431" 
d="M1327 1380h-315l-133 156l-179 -156h-348l377 387h350zM1280 352q-35 -201 -198 -296t-459 -93q-308 2 -450.5 116.5t-102.5 330.5l370 -2q-14 -82 41.5 -118t169.5 -38q222 -3 244 119q6 32 -19 53.5t-71 33.5t-106.5 20.5t-127.5 18t-133 23.5t-123 40.5t-98 64
t-57.5 98.5t-1.5 141q74 394 637 391q322 -1 450.5 -112t91.5 -320l-370 2q4 26 -1 47.5t-23 42.5t-61 33t-108 13q-212 3 -229 -121q-5 -33 20 -54.5t70.5 -33.5t106 -20t127 -17t132 -22.5t122 -39t97.5 -62.5t57.5 -98t2.5 -141z" />
    <glyph glyph-name="scommaaccent.sc" horiz-adv-x="1431" 
d="M1280 352q-35 -201 -198 -296t-459 -93q-308 2 -450.5 116.5t-102.5 330.5l370 -2q-14 -82 41.5 -118t169.5 -38q222 -3 244 119q6 32 -19 53.5t-71 33.5t-106.5 20.5t-127.5 18t-133 23.5t-123 40.5t-98 64t-57.5 98.5t-1.5 141q74 394 637 391q322 -1 450.5 -112
t91.5 -320l-370 2q4 26 -1 47.5t-23 42.5t-61 33t-108 13q-212 3 -229 -121q-5 -33 20 -54.5t70.5 -33.5t106 -20t127 -17t132 -22.5t122 -39t97.5 -62.5t57.5 -98t2.5 -141zM236 -709q69 140 141 318q27 64 49.5 128.5t31.5 96.5l9 33h367q-50 -164 -138 -334
q-44 -83 -86.5 -143.5t-63.5 -79.5l-20 -19h-290z" />
    <glyph glyph-name="germandbls.sc" horiz-adv-x="1497" 
d="M1409 344q-6 -35 -23 -70.5t-47 -75.5t-79.5 -74t-113.5 -62t-157 -44t-203 -16h-254l60 315h147q253 0 273 134q7 41 -38.5 74.5t-131.5 33.5q-40 0 -79.5 -5t-58.5 -10l-20 -5l39 221h2l297 192h-229q-98 0 -159 -52.5t-77 -137.5l-135 -762h-391l135 758
q11 63 21.5 106t31.5 95t49 86.5t73.5 69.5t105.5 55.5t144.5 33.5t190.5 13h727l-47 -265l-293 -194q155 -44 211 -148t29 -266z" />
    <glyph glyph-name="uni0259.sc" horiz-adv-x="1511" 
d="M1397 580q-59 -331 -234.5 -474t-496.5 -143q-229 0 -362.5 70t-181.5 227.5t-3 411.5h882q16 133 -27 197.5t-165 64.5q-94 0 -161.5 -40.5t-94.5 -109.5h-406q71 253 242 361t451 108q343 0 481 -160t76 -513zM680 264q115 0 181 50t102 169h-467q-4 -121 41 -170
t143 -49z" />
    <glyph glyph-name="t.sc" horiz-adv-x="1138" 
d="M256 0l154 866h-387l59 351h1180l-62 -351h-391l-154 -866h-399z" />
    <glyph glyph-name="tbar.sc" horiz-adv-x="1138" 
d="M256 0l72 401h-158l39 195h151l50 270h-387l59 351h1180l-62 -351h-391l-49 -270h168l-37 -195h-164l-72 -401h-399z" />
    <glyph glyph-name="tcaron.sc" horiz-adv-x="1138" 
d="M1251 1749l-383 -387h-350l-229 387h301l133 -145l178 145h350zM256 0l154 866h-387l59 351h1180l-62 -351h-391l-154 -866h-399z" />
    <glyph glyph-name="uni0163.sc" horiz-adv-x="1138" 
d="M684 -381q-8 -52 -31 -88.5t-72 -65.5t-134 -43t-209 -14q-81 0 -145.5 8t-88.5 16l-24 7l14 158q0 -5 106 -5q87 0 138.5 34t62.5 93q6 40 -24 54t-97 16h-78l154 211l154 866h-387l59 351h1180l-62 -351h-391l-154 -866h-59l-107 -141q44 -4 81.5 -19t68 -42.5
t43 -73.5t2.5 -105z" />
    <glyph glyph-name="uni021B.sc" horiz-adv-x="1138" 
d="M256 0l154 866h-387l59 351h1180l-62 -351h-391l-154 -866h-399zM18 -686q68 139 142 315q27 65 49.5 129.5t31.5 96.5l9 32h366q-47 -163 -137 -331q-44 -84 -87 -144.5t-64 -79.5l-21 -18h-289z" />
    <glyph glyph-name="u.sc" horiz-adv-x="1456" 
d="M1329 614q-18 -102 -36.5 -176t-46.5 -146t-63.5 -120.5t-85.5 -91t-115.5 -66.5t-150.5 -37.5t-192 -13.5q-195 0 -313 44.5t-167.5 131t-54.5 213.5t27 293l102 572h400l-113 -625q-23 -137 6 -205t136 -68q119 0 177.5 66t84.5 207l108 625h404z" />
    <glyph glyph-name="uacute.sc" horiz-adv-x="1456" 
d="M684 1368l291 393h395l-346 -393h-340zM1329 614q-18 -102 -36.5 -176t-46.5 -146t-63.5 -120.5t-85.5 -91t-115.5 -66.5t-150.5 -37.5t-192 -13.5q-195 0 -313 44.5t-167.5 131t-54.5 213.5t27 293l102 572h400l-113 -625q-23 -137 6 -205t136 -68q119 0 177.5 66
t84.5 207l108 625h404z" />
    <glyph glyph-name="ubreve.sc" horiz-adv-x="1456" 
d="M1393 1739q-9 -51 -30.5 -101t-62.5 -102t-96 -91t-138 -64t-181 -25q-75 0 -138.5 13t-108 35.5t-80 52.5t-54.5 65t-32 72t-12 74t5 71h301q-9 -50 27 -89.5t102 -39.5q63 0 119 40.5t65 88.5h314zM1329 614q-18 -102 -36.5 -176t-46.5 -146t-63.5 -120.5t-85.5 -91
t-115.5 -66.5t-150.5 -37.5t-192 -13.5q-195 0 -313 44.5t-167.5 131t-54.5 213.5t27 293l102 572h400l-113 -625q-23 -137 6 -205t136 -68q119 0 177.5 66t84.5 207l108 625h404z" />
    <glyph glyph-name="ucircumflex.sc" horiz-adv-x="1456" 
d="M1339 1362h-315l-133 156l-178 -156h-348l376 387h351zM1329 614q-18 -102 -36.5 -176t-46.5 -146t-63.5 -120.5t-85.5 -91t-115.5 -66.5t-150.5 -37.5t-192 -13.5q-195 0 -313 44.5t-167.5 131t-54.5 213.5t27 293l102 572h400l-113 -625q-23 -137 6 -205t136 -68
q119 0 177.5 66t84.5 207l108 625h404z" />
    <glyph glyph-name="udieresis.sc" horiz-adv-x="1456" 
d="M401 1362l60 342h385l-62 -342h-383zM940 1362l59 342h385l-61 -342h-383zM1329 614q-18 -102 -36.5 -176t-46.5 -146t-63.5 -120.5t-85.5 -91t-115.5 -66.5t-150.5 -37.5t-192 -13.5q-195 0 -313 44.5t-167.5 131t-54.5 213.5t27 293l102 572h400l-113 -625
q-23 -137 6 -205t136 -68q119 0 177.5 66t84.5 207l108 625h404z" />
    <glyph glyph-name="uni1EE5.sc" horiz-adv-x="1456" 
d="M1329 614q-18 -102 -36.5 -176t-46.5 -146t-63.5 -120.5t-85.5 -91t-115.5 -66.5t-150.5 -37.5t-192 -13.5q-195 0 -313 44.5t-167.5 131t-54.5 213.5t27 293l102 572h400l-113 -625q-23 -137 6 -205t136 -68q119 0 177.5 66t84.5 207l108 625h404zM332 -469l57 322h418
l-57 -322h-418z" />
    <glyph glyph-name="ugrave.sc" horiz-adv-x="1456" 
d="M1018 1368h-324l-205 393h375zM1329 614q-18 -102 -36.5 -176t-46.5 -146t-63.5 -120.5t-85.5 -91t-115.5 -66.5t-150.5 -37.5t-192 -13.5q-195 0 -313 44.5t-167.5 131t-54.5 213.5t27 293l102 572h400l-113 -625q-23 -137 6 -205t136 -68q119 0 177.5 66t84.5 207
l108 625h404z" />
    <glyph glyph-name="uhungarumlaut.sc" horiz-adv-x="1456" 
d="M358 1368l287 393h426l-338 -393h-375zM866 1368l342 393h428l-393 -393h-377zM1329 614q-18 -102 -36.5 -176t-46.5 -146t-63.5 -120.5t-85.5 -91t-115.5 -66.5t-150.5 -37.5t-192 -13.5q-195 0 -313 44.5t-167.5 131t-54.5 213.5t27 293l102 572h400l-113 -625
q-23 -137 6 -205t136 -68q119 0 177.5 66t84.5 207l108 625h404z" />
    <glyph glyph-name="umacron.sc" horiz-adv-x="1456" 
d="M526 1653h770l-45 -246h-768zM1329 614q-18 -102 -36.5 -176t-46.5 -146t-63.5 -120.5t-85.5 -91t-115.5 -66.5t-150.5 -37.5t-192 -13.5q-195 0 -313 44.5t-167.5 131t-54.5 213.5t27 293l102 572h400l-113 -625q-23 -137 6 -205t136 -68q119 0 177.5 66t84.5 207
l108 625h404z" />
    <glyph glyph-name="uogonek.sc" horiz-adv-x="1456" 
d="M502 -188q14 82 90 151q-179 5 -287 52t-153 133t-48.5 211t27.5 286l102 572h400l-113 -625q-23 -137 6 -205t136 -68q119 0 177.5 66t84.5 207l108 625h404l-107 -603q-22 -123 -45 -208.5t-59 -162.5t-89 -129.5t-126 -86.5q-126 -84 -138 -162q-12 -60 56 -60
q23 0 52 8.5t46 17.5l18 9l-20 -180l-8.5 -8.5t-27 -19.5t-48 -24.5t-71.5 -19t-97 -8.5q-59 0 -106 10.5t-76 28.5t-50.5 41t-29 49t-11 52.5t2.5 50.5z" />
    <glyph glyph-name="uring.sc" horiz-adv-x="1456" 
d="M1190 1575q-21 -120 -101.5 -178t-207.5 -58q-145 0 -218 77t-47 218q41 236 308 236q145 0 217.5 -76t48.5 -219zM829 1597q-6 -33 11.5 -50t48.5 -17q35 0 58.5 23t29.5 59q4 34 -12 50.5t-47 16.5q-35 0 -59 -23.5t-30 -58.5zM1329 614q-18 -102 -36.5 -176
t-46.5 -146t-63.5 -120.5t-85.5 -91t-115.5 -66.5t-150.5 -37.5t-192 -13.5q-195 0 -313 44.5t-167.5 131t-54.5 213.5t27 293l102 572h400l-113 -625q-23 -137 6 -205t136 -68q119 0 177.5 66t84.5 207l108 625h404z" />
    <glyph glyph-name="utilde.sc" horiz-adv-x="1456" 
d="M1389 1741q-17 -91 -38 -154t-55.5 -115.5t-88 -78t-126.5 -25.5q-59 0 -105 11t-73.5 27t-50.5 32.5t-49 27.5t-55 11q-72 0 -117.5 -45t-52.5 -80l-175 32q17 90 38 153t56 115t88 77.5t126 25.5t127 -17t79.5 -37t58.5 -37t68 -17q39 0 72.5 15.5t54 38t32 41
t14.5 30.5zM1329 614q-18 -102 -36.5 -176t-46.5 -146t-63.5 -120.5t-85.5 -91t-115.5 -66.5t-150.5 -37.5t-192 -13.5q-195 0 -313 44.5t-167.5 131t-54.5 213.5t27 293l102 572h400l-113 -625q-23 -137 6 -205t136 -68q119 0 177.5 66t84.5 207l108 625h404z" />
    <glyph glyph-name="v.sc" horiz-adv-x="1415" 
d="M135 1217h445l94 -861l403 861h447l-647 -1217h-525z" />
    <glyph glyph-name="w.sc" horiz-adv-x="2215" 
d="M1178 848l-308 -848h-577l-154 1217h475l21 -805l307 805h610l17 -814l329 814h449l-600 -1217h-576z" />
    <glyph glyph-name="wacute.sc" horiz-adv-x="2215" 
d="M1094 1368l290 393h396l-346 -393h-340zM1178 848l-308 -848h-577l-154 1217h475l21 -805l307 805h610l17 -814l329 814h449l-600 -1217h-576z" />
    <glyph glyph-name="wcircumflex.sc" horiz-adv-x="2215" 
d="M1749 1362h-315l-134 156l-178 -156h-348l377 387h350zM1178 848l-308 -848h-577l-154 1217h475l21 -805l307 805h610l17 -814l329 814h449l-600 -1217h-576z" />
    <glyph glyph-name="wdieresis.sc" horiz-adv-x="2215" 
d="M811 1362l59 342h385l-61 -342h-383zM1350 1362l59 342h385l-61 -342h-383zM1178 848l-308 -848h-577l-154 1217h475l21 -805l307 805h610l17 -814l329 814h449l-600 -1217h-576z" />
    <glyph glyph-name="wgrave.sc" horiz-adv-x="2215" 
d="M1427 1368h-323l-205 393h375zM1178 848l-308 -848h-577l-154 1217h475l21 -805l307 805h610l17 -814l329 814h449l-600 -1217h-576z" />
    <glyph glyph-name="x.sc" horiz-adv-x="1388" 
d="M635 336l-289 -336h-467l524 600l-294 617h442l178 -357l305 357h463l-541 -613l285 -604h-440z" />
    <glyph glyph-name="y.sc" horiz-adv-x="1318" 
d="M365 0l55 319l-303 898h436l125 -537l297 537h479l-637 -908h-4l-55 -309h-393z" />
    <glyph glyph-name="yacute.sc" horiz-adv-x="1318" 
d="M612 1368l291 393h395l-346 -393h-340zM365 0l55 319l-303 898h436l125 -537l297 537h479l-637 -908h-4l-55 -309h-393z" />
    <glyph glyph-name="ycircumflex.sc" horiz-adv-x="1318" 
d="M1268 1362h-316l-133 156l-178 -156h-348l377 387h350zM365 0l55 319l-303 898h436l125 -537l297 537h479l-637 -908h-4l-55 -309h-393z" />
    <glyph glyph-name="ydieresis.sc" horiz-adv-x="1318" 
d="M330 1362l59 342h385l-61 -342h-383zM868 1362l60 342h385l-62 -342h-383zM365 0l55 319l-303 898h436l125 -537l297 537h479l-637 -908h-4l-55 -309h-393z" />
    <glyph glyph-name="ygrave.sc" horiz-adv-x="1318" 
d="M946 1368h-323l-205 393h375zM365 0l55 319l-303 898h436l125 -537l297 537h479l-637 -908h-4l-55 -309h-393z" />
    <glyph glyph-name="uni0233.sc" horiz-adv-x="1318" 
d="M455 1653h770l-45 -246h-768zM365 0l55 319l-303 898h436l125 -537l297 537h479l-637 -908h-4l-55 -309h-393z" />
    <glyph glyph-name="uni1EF9.sc" horiz-adv-x="1318" 
d="M1317 1741q-17 -92 -37.5 -154.5t-55 -115t-88 -78t-126.5 -25.5q-59 0 -105 11t-74 27t-51 32.5t-49 27.5t-55 11q-72 0 -117.5 -45t-52.5 -80l-174 32q17 90 38 153t55.5 115t87.5 77.5t126 25.5t127.5 -17t80 -37t58.5 -37t68 -17q39 0 72.5 15.5t53.5 38t31.5 41
t14.5 30.5zM365 0l55 319l-303 898h436l125 -537l297 537h479l-637 -908h-4l-55 -309h-393z" />
    <glyph glyph-name="z.sc" horiz-adv-x="1255" 
d="M-59 2l22 125l31 211l682 541h-561l59 335h1102l-25 -131l-28 -204l-693 -541h607l-60 -336h-1136z" />
    <glyph glyph-name="zacute.sc" horiz-adv-x="1255" 
d="M571 1368l291 393h395l-346 -393h-340zM-59 2l22 125l31 211l682 541h-561l59 335h1102l-25 -131l-28 -204l-693 -541h607l-60 -336h-1136z" />
    <glyph glyph-name="zcaron.sc" horiz-adv-x="1255" 
d="M1303 1749l-383 -387h-351l-229 387h301l133 -145l178 145h351zM-59 2l22 125l31 211l682 541h-561l59 335h1102l-25 -131l-28 -204l-693 -541h607l-60 -336h-1136z" />
    <glyph glyph-name="zdotaccent.sc" horiz-adv-x="1255" 
d="M543 1372l57 332h420l-59 -332h-418zM-59 2l22 125l31 211l682 541h-561l59 335h1102l-25 -131l-28 -204l-693 -541h607l-60 -336h-1136z" />
    <glyph glyph-name="zero.osf" horiz-adv-x="1548" 
d="M1446 553q-26 -149 -79 -256t-142 -183.5t-221.5 -113.5t-311.5 -37q-372 0 -509 163.5t-79 485.5q26 149 78.5 256.5t142 184t222 114t313.5 37.5q188 1 316 -42t194.5 -126.5t85.5 -205t-10 -277.5zM520 553q-28 -152 12.5 -214.5t178.5 -62.5q136 0 211 77.5
t108 258.5q29 153 -11 216t-179 63q-136 0 -210.5 -78t-109.5 -260z" />
    <glyph glyph-name="one.osf" horiz-adv-x="968" 
d="M-63 0l49 274h258l88 517l-228 -25l48 289l399 123h246l-160 -904h246l-49 -274h-897z" />
    <glyph glyph-name="two.osf" horiz-adv-x="1337" 
d="M-51 0l18 94l27 168h2v2h2q195 98 403 191q40 19 101 47.5t95.5 45t81 40t73 42.5t54 42.5t42 49t20.5 54.5q8 50 -31 83.5t-135 33.5q-99 0 -167 -46t-76 -102h-383q14 81 40 146t74.5 124t118 99t173 63t235.5 23q106 0 192.5 -13.5t145.5 -37t102 -57t66.5 -71t35 -83
t11 -88.5t-9.5 -90q-11 -59 -36.5 -110.5t-58 -91t-82.5 -80.5t-96.5 -73t-112.5 -75q-24 -15 -36 -23l340 19l-58 -326h-1171z" />
    <glyph glyph-name="three.osf" horiz-adv-x="1392" 
d="M940 633q368 -98 305 -463q-13 -67 -40.5 -128.5t-82.5 -124t-129.5 -108t-188.5 -74t-253 -28.5q-92 0 -169.5 12t-135.5 35t-103.5 53.5t-75.5 69t-49.5 80.5t-27 88.5t-6.5 93t10 94.5h399q-5 -25 0.5 -54t22.5 -57.5t56 -47.5t93 -19q109 0 181 63.5t85 145.5
q13 71 -47 121.5t-196 50.5q-54 0 -105 -7t-75 -14l-25 -7l27 225l430 215l-684 -29l63 361h1178l-56 -310z" />
    <glyph glyph-name="four.osf" horiz-adv-x="1521" 
d="M762 -301l51 301h-846l51 315l826 865h569l-151 -865h184l-57 -315h-183l-53 -301h-391zM868 315l109 615l-547 -615h438z" />
    <glyph glyph-name="five.osf" horiz-adv-x="1409" 
d="M604 858l-92 -260q127 76 307 76q84 0 153 -16.5t117.5 -45t85 -68.5t57 -85t31 -95.5t10.5 -100t-9 -99.5q-12 -70 -41 -133.5t-84.5 -127t-132.5 -109.5t-193.5 -74.5t-259.5 -28.5q-85 0 -158.5 9.5t-130 26.5t-104.5 41t-80.5 52.5t-58.5 60.5t-39 66t-22 69t-7 68.5
t6 65.5h422q-1 -7 3 -20t17.5 -31.5t34 -34.5t58 -27.5t84.5 -11.5q109 0 182 60.5t86 135.5q12 69 -33 120.5t-154 51.5q-56 0 -105.5 -12t-79.5 -28.5t-47 -29.5t-21 -20l-386 4l291 871h1035l-60 -342z" />
    <glyph glyph-name="six.osf" horiz-adv-x="1542" 
d="M1452 436q-12 -68 -40.5 -130.5t-86.5 -125.5t-138 -109t-203.5 -74.5t-274.5 -29.5q-197 -1 -329 47.5t-197.5 140.5t-82 225t16.5 302q53 303 147.5 477t252 252t407.5 78q142 0 253 -28.5t177 -74.5t106 -106t50.5 -120.5t0.5 -121.5h-415q3 19 -2.5 40t-23 43.5
t-59 37.5t-100.5 15q-109 0 -186.5 -72.5t-134.5 -251.5q150 82 342 82q92 0 169.5 -14.5t133.5 -41t100 -63t69 -80t40.5 -92.5t15 -100.5t-7.5 -104.5zM813 668q-163 0 -289 -101q-18 -142 27 -212t160 -70q134 0 213 62.5t94 148.5q14 86 -34.5 129t-170.5 43z" />
    <glyph glyph-name="seven.osf" horiz-adv-x="1253" 
d="M119 -326q23 133 76 270t118.5 250t139 218.5t142.5 185t125 139t90 90.5l34 31l-783 -29l62 351h1190l-60 -334q-13 -12 -36 -35t-90.5 -95.5t-130 -148.5t-143 -188t-143 -219.5t-115 -237.5t-73.5 -248h-403z" />
    <glyph glyph-name="eight.osf" horiz-adv-x="1581" 
d="M715 -27q-134 0 -239.5 16t-177.5 46.5t-122 73t-72.5 95.5t-29.5 114.5t8 130.5q12 65 46 122.5t76.5 96t90 67t86 42t63.5 14.5q-12 2 -36 15t-55.5 41t-58 63t-39.5 88t-3 110q16 85 56.5 150.5t117 119t204 82.5t300.5 29q105 0 192 -11.5t150 -33t111 -52.5
t76 -68.5t44.5 -81.5t17 -92.5t-7.5 -100.5q-12 -61 -51 -113.5t-87 -82.5t-88.5 -47t-65.5 -20q18 -3 48.5 -19.5t68 -51t67.5 -79t44.5 -110t2.5 -137.5q-14 -78 -44 -139t-86.5 -114t-137 -88t-199 -55t-270.5 -20zM915 1223q-101 0 -169 -58.5t-87 -154.5q-9 -51 36 -90
t145 -39q95 0 167.5 60t84.5 128q14 77 -26.5 115.5t-150.5 38.5zM819 668q-109 0 -185 -71t-93 -157q-12 -74 31 -119t159 -45q114 0 189.5 66t89.5 158q6 30 -1 58.5t-27.5 53.5t-62 40.5t-100.5 15.5z" />
    <glyph glyph-name="nine.osf" horiz-adv-x="1517" 
d="M1395 481q-40 -232 -101.5 -386t-158.5 -250.5t-227 -137.5t-316 -41q-143 0 -255 28.5t-178.5 74.5t-106.5 106t-50.5 120.5t0.5 121.5h397q-2 -14 1.5 -30.5t16.5 -35.5t34 -34t59 -25t86 -10q122 0 202.5 70t137.5 251q-151 -88 -328 -88q-596 0 -506 520
q12 67 43.5 130.5t90.5 125.5t138.5 108.5t195 75t251.5 29.5q185 1 312 -47t193 -140.5t84 -227.5t-15 -308zM705 479q164 0 296 115q19 152 -24 223.5t-160 71.5q-113 0 -199 -69.5t-98 -143.5q-18 -98 30.5 -147.5t154.5 -49.5z" />
    <glyph glyph-name="zero.tf" horiz-adv-x="1599" 
d="M1499 702q-36 -207 -103 -349t-169 -225.5t-228.5 -119t-298.5 -35.5q-120 0 -214 17.5t-170 56.5t-123.5 100t-76 149t-26.5 203.5t25 262.5q30 167 79.5 290.5t117 207t159.5 134.5t199.5 73t244.5 22q120 0 214 -17.5t170 -56t123.5 -100t76 -149t26.5 -203
t-26 -261.5zM530 702q-17 -91 -17.5 -157t12.5 -108t42 -67t66.5 -34.5t91.5 -9.5q65 0 116 19t98.5 66t83.5 135t60 216q16 91 16.5 156t-12 107.5t-41 67.5t-66 34.5t-91.5 9.5q-51 0 -93.5 -11.5t-84 -41t-74 -78t-60.5 -125t-47 -179.5z" />
    <glyph glyph-name="one.tf" horiz-adv-x="1599" 
d="M240 0l53 324h282l130 739l-285 -45l49 287l475 159h246l-203 -1140h275l-54 -324h-968z" />
    <glyph glyph-name="two.tf" horiz-adv-x="1599" 
d="M25 6l41 230l14 81v2q230 121 455 244q35 20 96 53t93 50.5t80 46.5t74 48.5t59.5 47.5t51 53t32.5 56.5t21 64.5q3 20 -2.5 42t-22 45t-55 37.5t-94.5 14.5q-106 0 -185 -59.5t-89 -124.5h-414q15 87 47.5 164.5t90.5 149t135.5 123t190 82t247.5 30.5q97 0 178 -12.5
t140.5 -36t106.5 -54.5t77 -70t49 -81t26.5 -89t6.5 -91.5t-9 -91.5q-8 -43 -22.5 -84t-32 -75t-45.5 -69.5t-51.5 -62t-62 -59t-65.5 -54t-73 -52.5t-73.5 -49t-78.5 -50.5t-77 -49.5l-17 -8l486 19l-64 -361h-1265z" />
    <glyph glyph-name="three.tf" horiz-adv-x="1599" 
d="M1069 895q376 -97 313 -465q-13 -68 -41 -129t-83.5 -123.5t-133 -108t-197 -74t-265.5 -28.5q-96 0 -177.5 12.5t-142 35t-108 53t-79 69t-52 80.5t-28.5 89t-7.5 93t8.5 95h418q-5 -25 1 -54t24 -58t59 -48t100 -19q113 0 187 63.5t87 145.5q12 72 -49.5 122t-204.5 50
q-54 0 -105 -7t-75 -14l-24 -7l26 225q4 2 6 2l439 221l-725 -31l63 363h1231l-53 -309z" />
    </font>
</defs>
</svg>
