<svg xmlns="http://www.w3.org/2000/svg">
<defs>
<font id="TofinoProPersonal-BlackItalic" horiz-adv-x="0" >
  <font-face 
    font-family="Tofino Pro Personal Black Ita"
    font-weight="475"
    font-style="italic"
    font-stretch="normal"
    units-per-em="2048"
    panose-1="0 0 5 0 0 0 0 0 0 0"
    ascent="1556"
    descent="-492"
    x-height="1124"
    cap-height="1485"
    bbox="-1708 -700 2828.23 2499"
    underline-thickness="102"
    underline-position="-255"
    slope="-10"
    unicode-range="U+0020-2661"
  />
<missing-glyph horiz-adv-x="1261" 
d="M1026 1067q28 -19 31 -61q3 -43 -23 -66q-20 -14 -49 -14q-31 0 -94 18q123 -129 123 -311q0 -178 -119.5 -305t-286.5 -127q-166 0 -284.5 127t-118.5 305q0 93 34 175.5t95 141.5q-44 63 -17 131q26 64 108.5 106t182.5 42q102 0 187 -44t114 -112l2 -4q79 24 115 -2z
M608 1180q-85 0 -155.5 -33.5t-90.5 -83.5q-16 -37 9 -80q105 81 229 84q0 25 6 41q17 42 51 51q28 7 58 -11.5t71 -55.5l5 -5q18 7 30 7q7 0 19 -4q-36 41 -101 65.5t-131 24.5zM653 1090q-7 -18 -2 -25q11 -19 88 -29q2 -2 6 -2q3 3 3 6l6 15q-66 61 -86 57q-9 -5 -15 -22
zM823 991q23 0 27 19q4 11 -2 20t-19 12q-2 2 -8 2q-20 0 -26 -18q-2 -6 2 -18q8 -13 18 -15zM901 993q89 -26 103 -14q8 4 4 25q0 15 -9 24q-16 11 -92 -10q-2 -2 -8 -2q0 -15 -2 -21q2 -2 4 -2zM467 987q-31 -36 -10 -84q15 -31 52 -61.5t96 -57.5t150 -41.5t197 -9.5
q-36 134 -135 211q-10 0 -16 2q-31 9 -45 37h-2l-21 4q-68 8 -100 29q-8 2 -25 2q-71 0 -141 -31zM414 883q-15 30 -15 61q-110 -89 -137 -229q60 -1 126 21.5t106 54.5q-58 43 -80 92zM915 651q18 24 29 33h-49q-215 0 -358 80q-42 -41 -113.5 -68t-140.5 -30l16 -15
q34 19 117 19q99 0 145 -21q47 -23 94 0q43 21 146 21q84 0 114 -19zM254 633q0 -158 104 -271.5t250 -113.5q148 0 252.5 113t104.5 272q0 6 -1 17.5t-1 17.5q-15 -12 -33 -37v-2q6 -57 -14.5 -102.5t-65.5 -51.5q-32 -4 -66 -4q-73 0 -96 14q-44 24 -57 93q-2 4 -2 10

<glyph glyph-name="f_f" unicode="ff" horiz-adv-x="1591" 
d="M977 1569l-57 -316h-50q-82 0 -134 -47.5t-66 -128.5l-6 -35h333l25 134q11 61 31 114.5t58.5 106.5t90.5 91t130.5 61t174.5 22l211 -2l-57 -316h-49q-82 0 -134.5 -47.5t-64.5 -128.5l-6 -35h221l-47 -270h-223l-135 -772h-410l137 772h-336l-135 -772h-407l135 772
h-148l45 270h150l25 134q11 61 32 114.5t59.5 106.5t90 90.5t130 60.5t173.5 23z" />
    <glyph glyph-name="f_f_i" unicode="ffi" horiz-adv-x="2269" 
d="M1849 1264l56 321h411l-57 -321h-410zM1718 1569l-57 -316h-49q-82 0 -134.5 -47.5t-64.5 -128.5l-6 -35h221l-47 -270h-223l-135 -772h-410l137 772h-336l-135 -772h-407l135 772h-148l45 270h150l25 134q11 61 32 114.5t59.5 106.5t90 90.5t130 60.5t173.5 23l213 -2
l-57 -316h-50q-82 0 -134 -47.5t-66 -128.5l-6 -35h333l25 134q11 61 31 114.5t58.5 106.5t90.5 91t130.5 61t174.5 22zM1624 0l201 1126h409l-200 -1126h-410z" />
    <glyph glyph-name="f_f_l" unicode="ffl" horiz-adv-x="2269" 
d="M1718 1569l-57 -316h-49q-82 0 -134.5 -47.5t-64.5 -128.5l-6 -35h221l-47 -270h-223l-135 -772h-410l137 772h-336l-135 -772h-407l135 772h-148l45 270h150l25 134q11 61 32 114.5t59.5 106.5t90 90.5t130 60.5t173.5 23l213 -2l-57 -316h-50q-82 0 -134 -47.5
t-66 -128.5l-6 -35h333l25 134q11 61 31 114.5t58.5 106.5t90.5 91t130.5 61t174.5 22zM1626 0l275 1552h407l-274 -1552h-408z" />
    <glyph glyph-name=".notdef" horiz-adv-x="1261" 
d="M1026 1067q28 -19 31 -61q3 -43 -23 -66q-20 -14 -49 -14q-31 0 -94 18q123 -129 123 -311q0 -178 -119.5 -305t-286.5 -127q-166 0 -284.5 127t-118.5 305q0 93 34 175.5t95 141.5q-44 63 -17 131q26 64 108.5 106t182.5 42q102 0 187 -44t114 -112l2 -4q79 24 115 -2z
M608 1180q-85 0 -155.5 -33.5t-90.5 -83.5q-16 -37 9 -80q105 81 229 84q0 25 6 41q17 42 51 51q28 7 58 -11.5t71 -55.5l5 -5q18 7 30 7q7 0 19 -4q-36 41 -101 65.5t-131 24.5zM653 1090q-7 -18 -2 -25q11 -19 88 -29q2 -2 6 -2q3 3 3 6l6 15q-66 61 -86 57q-9 -5 -15 -22
zM823 991q23 0 27 19q4 11 -2 20t-19 12q-2 2 -8 2q-20 0 -26 -18q-2 -6 2 -18q8 -13 18 -15zM901 993q89 -26 103 -14q8 4 4 25q0 15 -9 24q-16 11 -92 -10q-2 -2 -8 -2q0 -15 -2 -21q2 -2 4 -2zM467 987q-31 -36 -10 -84q15 -31 52 -61.5t96 -57.5t150 -41.5t197 -9.5
q-36 134 -135 211q-10 0 -16 2q-31 9 -45 37h-2l-21 4q-68 8 -100 29q-8 2 -25 2q-71 0 -141 -31zM414 883q-15 30 -15 61q-110 -89 -137 -229q60 -1 126 21.5t106 54.5q-58 43 -80 92zM915 651q18 24 29 33h-49q-215 0 -358 80q-42 -41 -113.5 -68t-140.5 -30l16 -15
q34 19 117 19q99 0 145 -21q47 -23 94 0q43 21 146 21q84 0 114 -19zM254 633q0 -158 104 -271.5t250 -113.5q148 0 252.5 113t104.5 272q0 6 -1 17.5t-1 17.5q-15 -12 -33 -37v-2q6 -57 -14.5 -102.5t-65.5 -51.5q-32 -4 -66 -4q-73 0 -96 14q-44 24 -57 93q-2 4 -2 10
q-6 20 -23 20q-11 0 -18 -20q-2 -2 -2 -10q-5 -27 -20.5 -54t-39.5 -39q-23 -14 -96 -14q-35 0 -63 4q-45 6 -66.5 52t-15.5 102v2l-31 28v-26zM516 506q35 21 45 76q6 28 -4 41l-4 4h-2q-36 20 -135 20q-36 0 -62.5 -4.5t-35.5 -8.5t-9 -7q-2 -26 1.5 -52t18.5 -49t40 -26
q32 -4 61 -4q66 0 86 10zM784 496q32 0 64 4q34 4 48.5 44.5t10.5 82.5q-2 3 -10 7t-34 8.5t-62 4.5q-99 0 -135 -20q-2 0 -2 -2l-5 -2q-10 -13 -4 -41q3 -24 16 -45.5t29 -30.5q20 -10 84 -10zM463 602q22 -13 22 -43q0 -20 -14.5 -34.5t-34.5 -14.5t-34.5 14.5t-14.5 34.5
q0 10 2 16l-22 19q-7 3 0 10q3 3 10 0l18 -16l6 8l-12 22q-2 1 -1.5 5.5t3.5 5.5q6 3 10 -4l13 -21l8 4l-4 25q0 8 8 8q5 0 8 -6l2 -25q2 0 6.5 -1t6.5 -1l6 27q3 6 10 6q7 -4 4 -10zM848 604q2 2 5 2t5 -2q4 -7 -2 -10l-20 -21q0 -2 1 -6.5t1 -7.5q0 -20 -15 -34.5
t-37 -14.5q-20 0 -34.5 14.5t-14.5 34.5q0 29 25 43l-8 29q0 7 6 10q8 0 8 -6l6 -27q4 2 12 2l5 25q0 6 8 6q6 0 6 -8l-4 -25l10 -4l12 21q4 8 8 4q3 -1 5 -5t0 -6l-15 -22q6 -3 6 -8zM606 293q46 0 78.5 22t32.5 54q0 31 -32.5 52t-78.5 21t-78 -21t-32 -52q0 -32 32 -54
t78 -22z" />
    <glyph glyph-name=".null" 
 />
    <glyph glyph-name="nonmarkingreturn" horiz-adv-x="682" 
 />
    <glyph glyph-name="space" unicode=" " horiz-adv-x="399" 
 />
    <glyph glyph-name="exclam" unicode="!" horiz-adv-x="628" 
d="M78 408l158 1077h409l-223 -1077h-344zM-27 0l58 326h409l-57 -326h-410z" />
    <glyph glyph-name="quotedbl" unicode="&#x22;" horiz-adv-x="1071" 
d="M154 950l43 592h430l-164 -592h-309zM649 950l45 592h428l-161 -592h-312z" />
    <glyph glyph-name="numbersign" unicode="#" horiz-adv-x="1628" 
d="M109 0l122 326h-172l52 290h229l92 242h-182l51 291h240l108 289h299l-108 -289h209l108 289h299l-108 -289h186l-51 -291h-244l-92 -242h196l-51 -290h-254l-120 -326h-302l123 326h-209l-120 -326h-301zM639 616h209l92 242h-209z" />
    <glyph glyph-name="dollar" unicode="$" horiz-adv-x="1234" 
d="M326 -66l26 156q-384 64 -313 465h340q-18 -101 22.5 -147t139.5 -48q176 0 198 127q7 35 -13 61t-58 41t-89 30t-107 27.5t-111.5 33.5t-103 48.5t-81 72t-46 104t2.5 144.5q65 338 455 376l22 129h264l-24 -133q199 -29 273 -141.5t38 -312.5h-338q9 37 6 70t-17 57
t-49 38t-91 15q-83 0 -131 -37t-58 -92q-6 -36 14 -62t58 -41t89.5 -29.5t108 -26.5t112.5 -32.5t103.5 -47.5t82 -70.5t47 -103t-1.5 -144.5q-31 -173 -149 -267.5t-333 -111.5l-24 -148h-264z" />
    <glyph glyph-name="percent" unicode="%" horiz-adv-x="1851" 
d="M836 1065q-32 -181 -127 -266.5t-295 -85.5q-217 0 -297 104t-43 305q32 184 128.5 271.5t295.5 87.5q218 0 296.5 -105.5t41.5 -310.5zM131 0l1196 1438h385l-1196 -1438h-385zM324 1065q-13 -74 6 -110.5t86 -36.5q68 0 108 46.5t60 157.5q13 77 -3.5 116.5t-82.5 39.5
q-68 0 -110.5 -50t-63.5 -163zM1761 305q-32 -181 -127 -265.5t-293 -84.5q-219 0 -298 103t-44 304q32 185 129 273t297 88q217 0 295 -106.5t41 -311.5zM1247 305q-13 -73 6 -109t86 -36q69 0 109.5 46t60.5 156q6 48 4 82.5t-24.5 54t-67.5 19.5q-68 0 -110.5 -50
t-63.5 -163z" />
    <glyph glyph-name="ampersand" unicode="&#x26;" horiz-adv-x="1425" 
d="M813 1528q265 0 377.5 -125.5t71.5 -351.5h-371q16 92 -4 138t-92 46q-152 0 -177 -148q-5 -33 -3.5 -63t11 -61.5t24.5 -61.5t36.5 -63t47 -66.5t57 -71.5t64.5 -78q11 -13 17 -20q10 -14 31.5 -38.5t28.5 -33.5q67 131 102 322h336q-60 -336 -233 -557
q45 -52 91 -102.5t70 -75.5l23 -25l-10 -108h-369l-68 84q-201 -111 -442 -111q-270 0 -388.5 130.5t-76.5 375.5q48 271 330 399q-66 145 -39 299q66 367 555 367zM526 526q-12 15 -24.5 31.5t-27.5 36.5t-23 31q-116 -101 -136 -217q-15 -84 27.5 -129.5t169.5 -45.5
q105 0 197 50z" />
    <glyph glyph-name="quotesingle" unicode="'" horiz-adv-x="575" 
d="M154 950l43 592h430l-164 -592h-309z" />
    <glyph glyph-name="parenleft" unicode="(" horiz-adv-x="1013" 
d="M182 606q29 165 79 323t100 266.5t96 193.5t75 126l29 41h391q-12 -17 -33 -48.5t-78.5 -135t-107 -214t-103.5 -277t-83 -332.5q-27 -159 -30 -315t12.5 -265t35 -196t36.5 -129l17 -43h-378q-7 16 -17.5 46t-33 130t-34 209.5t-7.5 278.5t34 341z" />
    <glyph glyph-name="parenright" unicode=")" horiz-adv-x="989" 
d="M778 1556q5 -16 13 -46t24.5 -131t23.5 -210.5t-0.5 -278.5t-37.5 -341q-21 -120 -55 -237.5t-71.5 -209t-78 -174t-77 -141t-65.5 -101.5t-46 -64l-17 -21h-393q14 17 37 48t86 134t117 213t111.5 277t86.5 333q27 158 33.5 314t-4.5 266t-26 197t-29 130l-13 43h381z
" />
    <glyph glyph-name="asterisk" unicode="*" horiz-adv-x="933" 
d="M129 1139l117 225l192 -92l29 217h242l-54 -217l217 92l56 -236l-244 -61l139 -180l-237 -146l-86 193l-156 -193l-197 162l203 170z" />
    <glyph glyph-name="plus" unicode="+" horiz-adv-x="1081" 
d="M88 797h324l61 340h277l-62 -340h326l-43 -242h-326l-59 -342h-277l60 342h-324z" />
    <glyph glyph-name="comma" unicode="," horiz-adv-x="581" 
d="M-141 -309q81 164 161 379q34 90 56 158t28 91l5 23l374 -2q-31 -137 -137 -360q-47 -100 -94.5 -172t-71.5 -94l-24 -23h-297z" />
    <glyph glyph-name="hyphen" unicode="-" horiz-adv-x="851" 
d="M80 492l55 309h553l-55 -309h-553z" />
    <glyph glyph-name="period" unicode="." horiz-adv-x="563" 
d="M-18 0l59 326h410l-58 -326h-411z" />
    <glyph glyph-name="slash" unicode="/" horiz-adv-x="1409" 
d="M55 -82l938 1720h369l-940 -1720h-367z" />
    <glyph glyph-name="zero" unicode="0" horiz-adv-x="1423" 
d="M1321 702q-30 -172 -77 -297.5t-107 -208t-142.5 -132t-175.5 -69.5t-215 -20q-107 0 -189.5 16.5t-149 53t-108.5 96.5t-64 146.5t-19.5 204.5t28.5 268q30 172 77 297.5t107 208.5t142.5 132.5t175.5 70t215 20.5q107 0 190 -16.5t150 -53.5t109 -97.5t64 -147
t19 -204.5t-30 -268zM510 702q-22 -119 -24.5 -195.5t15.5 -117t48 -55.5t80 -15q38 0 68.5 10.5t62.5 39.5t58 77.5t50.5 127.5t44.5 186q21 119 23.5 195.5t-15 117t-47 55.5t-79.5 15q-47 0 -85 -18.5t-75.5 -64.5t-68.5 -135.5t-56 -222.5z" />
    <glyph glyph-name="one" unicode="1" horiz-adv-x="808" 
d="M111 0l184 1063l-238 -45l47 287l428 159h240l-258 -1464h-403z" />
    <glyph glyph-name="two" unicode="2" horiz-adv-x="1327" 
d="M-47 2l37 197l18 112q193 117 377 242q200 134 250 171q163 124 202 232q7 20 11 41q21 131 -119 131q-87 0 -144 -52.5t-71 -135.5h-405q17 95 46 173.5t80 149.5t120.5 119t170.5 76.5t226 28.5q100 0 181.5 -15.5t138 -42t97.5 -65t63.5 -82t33 -95.5t9.5 -103
t-11 -107q-7 -41 -21.5 -81.5t-31.5 -74.5t-44 -71t-50 -65.5t-59 -63.5t-61.5 -58t-67.5 -57t-67 -53t-69.5 -53t-65.5 -50l-20 -12l434 18l-64 -354h-1124z" />
    <glyph glyph-name="three" unicode="3" horiz-adv-x="1306" 
d="M934 889q162 -51 216 -165.5t21 -299.5q-13 -72 -38 -134t-74.5 -123t-118 -104t-174 -69.5t-236.5 -26.5q-99 0 -179 15t-137 41t-98.5 64t-65 82.5t-34.5 98t-10 108.5t12 116h410q-6 -45 -3.5 -85t33 -68t87.5 -28q85 0 138.5 58.5t68.5 146.5q15 90 -25.5 136
t-159.5 46q-50 0 -93 -6.5t-61 -13.5l-18 -6l27 221l358 227l-608 -26l61 354h1098l-53 -305z" />
    <glyph glyph-name="four" unicode="4" horiz-adv-x="1339" 
d="M623 0l39 221h-721l49 307l715 922h573l-162 -922h156l-53 -307h-156l-39 -221h-401zM715 528l106 605l-432 -605h326z" />
    <glyph glyph-name="five" unicode="5" horiz-adv-x="1341" 
d="M653 1130l-82 -245q107 65 254 65q91 0 161.5 -20.5t115.5 -57t74 -84.5t40 -106.5t10.5 -118.5t-12.5 -125q-13 -76 -39 -141t-76 -127.5t-120 -106t-175.5 -70t-236.5 -26.5q-90 0 -165.5 11t-131 31t-99.5 47t-72.5 61t-47 70.5t-26 77t-7.5 79.5t7 80h432
q-6 -13 -1 -35t15.5 -43.5t41.5 -37t77 -15.5q86 0 141.5 58.5t69.5 146.5q14 82 -13.5 129t-119.5 47q-75 0 -128 -33.5t-67 -58.5l-395 4l270 860h961l-60 -334z" />
    <glyph glyph-name="six" unicode="6" horiz-adv-x="1386" 
d="M1270 436q-13 -75 -39.5 -138.5t-78 -126t-123 -106t-180.5 -70.5t-245 -28q-240 -1 -370 80t-160.5 240t10.5 395q42 235 98 386.5t144.5 247t206 134.5t288.5 39q92 0 169 -14t132.5 -38.5t99 -58.5t67.5 -74t39.5 -84.5t15 -90t-6.5 -91.5h-405q6 22 2 47t-14 46
t-38.5 35t-72.5 14q-84 0 -145.5 -68.5t-112.5 -245.5q122 66 276 66q95 0 170.5 -18.5t126.5 -51.5t87 -79t51 -101t18.5 -117.5t-10.5 -128.5zM709 674q-124 0 -224 -88q-25 -165 2 -236t119 -71q103 0 162.5 59.5t75.5 157.5q17 96 -14 137t-121 41z" />
    <glyph glyph-name="seven" unicode="7" horiz-adv-x="1101" 
d="M84 0q21 121 66 249t101 236t118.5 210t120.5 179.5t105.5 137t76.5 90.5l28 31l-667 -29l61 344h1096l-60 -328q-11 -12 -30.5 -35t-76 -95t-110 -146.5t-121.5 -182.5t-121 -210.5t-98.5 -223t-64.5 -227.5h-424z" />
    <glyph glyph-name="eight" unicode="8" horiz-adv-x="1378" 
d="M584 -25q-147 0 -254.5 21.5t-173 61.5t-102 98t-41 131t9.5 159q12 70 42 129.5t66 97.5t76.5 65.5t72.5 39.5t54 13q-11 2 -30 14.5t-45.5 37.5t-46 61.5t-30.5 88t2 115.5q13 71 38 126.5t72 104.5t114 81t166 50.5t227 18.5q112 0 200.5 -15t148 -42.5t100.5 -67
t58.5 -88t22 -105.5t-9.5 -120q-12 -66 -45.5 -119.5t-74.5 -83t-74 -44.5t-56 -18q15 -2 40.5 -18t56 -48t53.5 -79t34.5 -110t-2.5 -142q-19 -103 -59 -175.5t-115.5 -128t-198.5 -83t-296 -27.5zM788 1227q-80 0 -132.5 -56.5t-71.5 -158.5q-11 -66 16 -100.5t111 -34.5
q77 0 129.5 54.5t66.5 137.5q16 83 -9 120.5t-110 37.5zM690 670q-87 0 -143.5 -65.5t-75.5 -164.5q-13 -82 13.5 -125t117.5 -43q88 0 144.5 63.5t72.5 162.5q15 80 -11.5 126t-117.5 46z" />
    <glyph glyph-name="nine" unicode="9" horiz-adv-x="1392" 
d="M1296 766q-27 -158 -59 -273.5t-77 -207t-99.5 -150.5t-130.5 -97.5t-167.5 -54.5t-211.5 -16q-87 0 -161.5 10.5t-129.5 30t-100 46t-73 59t-48.5 69t-27.5 75.5t-8.5 79t7.5 80h406q-6 -21 -1 -45.5t16.5 -45.5t43.5 -35t80 -14q92 0 153 62t113 227q-114 -67 -256 -67
q-128 0 -220 25t-144 71t-79.5 110.5t-26.5 143.5t16 170q12 74 39.5 138.5t79.5 127t124 106.5t180 71t242 28q240 0 370 -80.5t161.5 -241t-11.5 -401.5zM662 756q119 0 229 102q28 170 1.5 245t-120.5 75q-95 0 -157.5 -65.5t-77.5 -151.5q-20 -109 12 -157t113 -48z" />
    <glyph glyph-name="colon" unicode=":" horiz-adv-x="800" 
d="M195 788l57 326h412l-58 -326h-411zM61 31l60 344h411l-61 -344h-410z" />
    <glyph glyph-name="semicolon" unicode=";" horiz-adv-x="753" 
d="M143 758l58 325h411l-57 -325h-412zM-154 -309q82 164 162 379q34 90 56 158t27 91l5 23l375 -2q-28 -137 -137 -360q-48 -100 -96 -172t-72 -94l-23 -23h-297z" />
    <glyph glyph-name="less" unicode="&#x3c;" horiz-adv-x="1230" 
d="M950 264l-864 268l53 316l959 266l-51 -293l-664 -131l616 -133z" />
    <glyph glyph-name="equal" unicode="=" horiz-adv-x="1273" 
d="M154 711l43 241h966l-43 -241h-966zM86 328l41 241h969l-41 -241h-969z" />
    <glyph glyph-name="greater" unicode="&#x3e;" horiz-adv-x="1198" 
d="M92 264l51 293l664 133l-617 131l52 293l864 -268l-53 -316z" />
    <glyph glyph-name="question" unicode="?" horiz-adv-x="1236" 
d="M723 375h-414l10 59q13 73 42 133.5t66.5 102.5t80 78.5t84 69.5t77.5 67t63 79t36 97q21 127 -104 127q-73 0 -125 -55.5t-72 -167.5h-387q19 105 47.5 188t76.5 156t113 121.5t157.5 76t209.5 27.5q108 0 194.5 -18t145.5 -50.5t100.5 -78t59.5 -100.5t23 -119t-9 -132
q-12 -71 -40.5 -129t-65 -98.5t-79 -75.5t-85.5 -68t-81 -68t-69 -85t-47 -109zM242 0l53 299h410l-54 -299h-409z" />
    <glyph glyph-name="at" unicode="@" horiz-adv-x="1822" 
d="M1503 600q60 330 -51 486.5t-434 156.5t-506.5 -179t-241.5 -509q-20 -110 -21 -200t23.5 -175.5t77.5 -143.5t150 -93t233 -35q119 0 241.5 19.5t194.5 52.5l-14 -224q-151 -53 -410 -53q-130 0 -236.5 23t-185.5 65t-137.5 104t-93.5 138.5t-51 168.5t-13 194t23 216
q25 143 74.5 266.5t130 229.5t186.5 180.5t249.5 117t312.5 42.5q153 0 276.5 -30.5t208 -86.5t143.5 -135t84.5 -177t30 -211.5t-20.5 -238.5q-25 -140 -58.5 -234t-87 -161t-130.5 -97t-186 -30q-193 3 -258 133q-104 -90 -275 -90q-193 0 -264 131.5t-29 374.5
q38 225 136.5 338t273.5 113q140 0 239 -99l37 92h244l-113 -641q-15 -84 2 -122.5t68 -40.5q28 0 50 14.5t45 52.5t43.5 112t39.5 185zM803 326q118 0 180 88q0 10 2 16l53 318q-35 61 -133 61q-68 0 -119.5 -65.5t-72.5 -188.5q-23 -119 -2 -174t92 -55z" />
    <glyph glyph-name="A" unicode="A" horiz-adv-x="1482" 
d="M-137 0l758 1485h501l234 -1485h-447l-22 219h-477l-99 -219h-448zM549 524h307l-55 551z" />
    <glyph glyph-name="B" unicode="B" horiz-adv-x="1437" 
d="M123 -2h-119l264 1489h563q239 0 370 -45t173 -135.5t15 -243.5q-21 -115 -80.5 -192.5t-169.5 -118.5q116 -49 153.5 -140t14.5 -223q-14 -80 -32.5 -133.5t-52.5 -100.5t-83 -75t-125.5 -48t-177.5 -28t-242 -8h-471v2zM631 1188l-51 -297h151q119 0 177.5 34.5
t76.5 127.5q13 79 -26.5 107t-161.5 28h-166zM530 621l-57 -326h139q150 0 216 34.5t85 137.5q15 88 -29 121t-173 33h-181z" />
    <glyph glyph-name="C" unicode="C" horiz-adv-x="1484" 
d="M1360 608q-33 -185 -93 -311.5t-151.5 -201t-205 -106.5t-265.5 -32q-113 0 -202 18.5t-160 58t-117 103.5t-70 153.5t-22.5 209.5t28.5 270q38 215 103 362.5t162.5 234.5t218.5 124t284 37q102 0 183 -13.5t151 -44.5t115.5 -80t75 -120.5t31 -166t-16.5 -216.5h-405
q25 161 -13.5 224t-148.5 63q-116 0 -196.5 -92.5t-125.5 -311.5q-53 -254 -18 -356.5t172 -102.5q57 0 97 12t76 44t61.5 91.5t45.5 151.5z" />
    <glyph glyph-name="D" unicode="D" horiz-adv-x="1519" 
d="M268 1487h480q330 0 491 -81t192.5 -253t-18.5 -440q-21 -117 -44 -202t-57.5 -164t-81 -132t-111.5 -97t-152 -68.5t-199 -38t-256 -13.5h-508zM629 1133l-137 -787h135q88 0 143 16.5t99 63.5t70.5 125.5t49.5 208.5q17 95 19.5 158.5t-7.5 106.5t-38.5 66.5t-68 32.5
t-101.5 9h-164z" />
    <glyph glyph-name="E" unicode="E" horiz-adv-x="1271" 
d="M4 0l262 1485h1051l-60 -334h-632l-43 -248h530l-53 -303h-531l-47 -266h649l-61 -334h-1065z" />
    <glyph glyph-name="F" unicode="F" horiz-adv-x="1202" 
d="M4 0l262 1485h1018l-59 -334h-600l-54 -301h498l-55 -315h-498l-94 -535h-418z" />
    <glyph glyph-name="G" unicode="G" horiz-adv-x="1478" 
d="M1276 203q-1 -3 -12.5 -16.5t-38 -36t-62 -48t-89 -51t-115 -46.5t-144.5 -34.5t-172 -13.5q-138 -1 -239.5 25.5t-176.5 86t-111 154t-42.5 231t28.5 316.5q38 215 102 362t161 234t218.5 124.5t286.5 37.5q318 0 451 -143.5t80 -448.5l-389 2q33 236 -170 236
q-117 0 -198 -92.5t-124 -311.5q-55 -254 -17 -364.5t185 -110.5q103 0 172.5 37.5t73.5 70.5l20 125h-209l46 254h585z" />
    <glyph glyph-name="H" unicode="H" horiz-adv-x="1519" 
d="M4 0l262 1485h418l-98 -547h405l99 547h415l-262 -1485h-416l99 565h-406l-98 -565h-418z" />
    <glyph glyph-name="I" unicode="I" horiz-adv-x="698" 
d="M4 0l262 1485h418l-262 -1485h-418z" />
    <glyph glyph-name="J" unicode="J" horiz-adv-x="925" 
d="M784 655q-15 -83 -26.5 -140t-28.5 -119.5t-34 -103t-42.5 -83.5t-54.5 -69.5t-69.5 -52.5t-88 -40.5t-109.5 -26t-135 -16t-163 -4.5h-144l64 360h117q135 0 202.5 69t100.5 257l141 799h418z" />
    <glyph glyph-name="K" unicode="K" horiz-adv-x="1476" 
d="M4 0l262 1485h418l-121 -680l567 680h465l-559 -613l297 -872h-434l-170 537l-264 -287l-43 -250h-418z" />
    <glyph glyph-name="L" unicode="L" horiz-adv-x="1083" 
d="M4 0l262 1485h418l-199 -1118h529l-66 -367h-944z" />
    <glyph glyph-name="M" unicode="M" horiz-adv-x="2072" 
d="M4 0l262 1485h606l91 -1098l467 1098h628l-262 -1485h-399l229 1090l-512 -1090h-442l-111 1128l-162 -1128h-395z" />
    <glyph glyph-name="N" unicode="N" horiz-adv-x="1599" 
d="M549 1008l-156 -1008h-389l264 1485h486l288 -1000l156 1000h387l-262 -1485h-469z" />
    <glyph glyph-name="O" unicode="O" horiz-adv-x="1521" 
d="M1417 713q-38 -215 -103 -361.5t-163 -233.5t-219 -124t-285 -37q-114 0 -203 18.5t-160.5 58t-117.5 103.5t-70 153.5t-22.5 209.5t28.5 270q38 216 103 363t163 234t219 124t285 37q114 0 203 -18.5t160 -58.5t117 -104t70 -154t22.5 -210t-27.5 -270zM520 770
q-53 -254 -18 -356.5t174 -102.5q127 0 204 90.5t121 313.5q51 253 15.5 356t-172.5 103q-118 0 -198.5 -92.5t-125.5 -311.5z" />
    <glyph glyph-name="P" unicode="P" horiz-adv-x="1443" 
d="M4 0l264 1487h494q125 0 221.5 -9t174 -28t130.5 -50.5t89 -75.5t51 -105t14.5 -135.5t-17.5 -170.5q-19 -106 -47 -182t-73.5 -135.5t-105.5 -96t-149.5 -60.5t-197 -33t-256.5 -9h-104l-70 -397h-418zM625 1159l-74 -426h131q60 0 99.5 4t80.5 17t67 37t46.5 65.5
t30.5 101.5q7 37 6.5 66t-6 50t-19.5 36t-31.5 24.5t-45 15t-57 7.5t-69.5 2h-159z" />
    <glyph glyph-name="Q" unicode="Q" horiz-adv-x="1519" 
d="M1417 713q-82 -455 -301 -625l158 -168l-289 -215l-199 260q-60 -8 -139 -8q-114 0 -203 18.5t-160.5 58t-117.5 103.5t-70 153.5t-22.5 209.5t28.5 270q38 216 103 363t163 234t219 124t285 37q114 0 203 -18.5t160 -58.5t117 -104t70 -154t22.5 -210t-27.5 -270z
M520 770q-53 -254 -18 -356.5t174 -102.5q127 0 204 90.5t121 313.5q51 253 15.5 356t-172.5 103q-118 0 -198.5 -92.5t-125.5 -311.5z" />
    <glyph glyph-name="R" unicode="R" horiz-adv-x="1499" 
d="M4 0l264 1487h611q104 0 184.5 -8.5t147.5 -27t113.5 -49.5t78.5 -75t46 -103.5t13 -134.5t-18 -169q-34 -188 -100.5 -292t-188.5 -153l123 -475h-438l-80 420h-264l-74 -420h-418zM625 1151l-70 -397h147q62 0 102.5 3.5t81 16t65.5 35t44 60.5t29 94q6 35 6 62t-5 47
t-19 34t-31 23t-45 13.5t-58 6.5t-73 2h-174z" />
    <glyph glyph-name="S" unicode="S" horiz-adv-x="1423" 
d="M1274 408q-39 -227 -206.5 -339t-477.5 -112q-314 0 -455 140t-94 415l401 -2q-21 -115 28 -169t165 -54q87 -2 149 35.5t74 107.5q7 40 -16 70t-67.5 47.5t-104 34.5t-124.5 31.5t-129.5 39t-120 56t-94.5 83t-53 120.5t3 167q88 451 659 451q324 -1 455.5 -136.5
t83.5 -406.5h-396q19 108 -14 157.5t-149 49.5q-103 1 -159.5 -40t-68.5 -105q-7 -41 16 -70.5t67.5 -46.5t103.5 -33.5t124.5 -30.5t130 -37.5t120.5 -54.5t95.5 -82t54.5 -119.5t-1 -166.5z" />
    <glyph glyph-name="T" unicode="T" horiz-adv-x="1183" 
d="M254 0l199 1118h-400l66 367h1198l-64 -367h-385l-198 -1118h-416z" />
    <glyph glyph-name="U" unicode="U" horiz-adv-x="1443" 
d="M1309 680q-18 -101 -35.5 -176.5t-41.5 -149.5t-53 -126t-68 -99t-87.5 -77t-111 -52.5t-140 -32.5t-172.5 -10q-195 0 -312.5 46.5t-167.5 140.5t-52 235.5t34 331.5l138 774h415l-135 -772q-14 -82 -21 -138.5t-6.5 -101t8 -71t25.5 -44t43.5 -24t63.5 -6.5
q70 0 116.5 33t82 116.5t61.5 233.5l137 774h420z" />
    <glyph glyph-name="V" unicode="V" horiz-adv-x="1437" 
d="M131 1485h463l53 -1090l443 1090h466l-720 -1485h-510z" />
    <glyph glyph-name="W" unicode="W" horiz-adv-x="2209" 
d="M1161 1059l-389 -1059h-522l-105 1485h476l-17 -1079l381 1079h516l-16 -1086l399 1086h449l-654 -1485h-520z" />
    <glyph glyph-name="X" unicode="X" horiz-adv-x="1443" 
d="M662 453l-308 -453h-473l565 741l-284 744h436l156 -479l323 479h475l-587 -754l272 -731h-434z" />
    <glyph glyph-name="Y" unicode="Y" horiz-adv-x="1345" 
d="M319 0l72 401l-274 1084h454l84 -721l328 721h494l-674 -1088l-72 -397h-412z" />
    <glyph glyph-name="Z" unicode="Z" horiz-adv-x="1310" 
d="M-68 2l60 350l760 781h-592l61 350h1125l-60 -350l-768 -781h635l-61 -350h-1160z" />
    <glyph glyph-name="bracketleft" unicode="[" horiz-adv-x="1329" 
d="M205 -408l346 1964h717l-56 -309h-358l-238 -1345h361l-55 -310h-717z" />
    <glyph glyph-name="backslash" unicode="\" horiz-adv-x="794" 
d="M739 -82h-354l-330 1720h353z" />
    <glyph glyph-name="bracketright" unicode="]" horiz-adv-x="1171" 
d="M688 -408h-719l56 310h356l237 1345h-356l53 309h717z" />
    <glyph glyph-name="asciicircum" unicode="^" horiz-adv-x="970" 
d="M881 930h-271l-65 334l-185 -334h-288l383 616h264z" />
    <glyph glyph-name="underscore" unicode="_" horiz-adv-x="1282" 
d="M168 0l51 293h897l-51 -293h-897z" />
    <glyph glyph-name="grave" unicode="`" horiz-adv-x="1009" 
d="M625 1266h-316l-182 368h367z" />
    <glyph glyph-name="a" unicode="a" horiz-adv-x="1314" 
d="M752 0l-13 59q-147 -96 -321 -96q-219 0 -318.5 96t-66.5 293q14 76 45.5 134.5t75.5 96.5t103 61.5t123 33.5t140 10q157 0 289 -16l8 47q10 59 10 98.5t-28 58.5t-92 19q-80 0 -129 -37t-60 -98l-354 2q69 389 530 389q91 0 165 -9.5t129.5 -25.5t96.5 -43t68 -57
t42.5 -72t22 -83.5t4 -97t-9 -106t-18.5 -116.5l-39 -226l-35 -315h-368zM543 229q111 0 205 78l28 172q-62 4 -106 4q-191 0 -217 -131q-14 -63 8 -93t82 -30z" />
    <glyph glyph-name="b" unicode="b" horiz-adv-x="1372" 
d="M18 0l78 332l217 1220h408l-84 -483q125 84 278 84q240 0 328 -156.5t33 -466.5q-52 -289 -174 -423t-342 -134q-235 0 -332 158l-59 -131h-351zM764 846q-90 0 -182 -88l-72 -416q52 -66 139 -66q81 0 136 64t81 215q29 166 6 228.5t-108 62.5z" />
    <glyph glyph-name="c" unicode="c" horiz-adv-x="1314" 
d="M1204 436q-29 -117 -71 -199t-112 -146.5t-177 -96t-254 -31.5q-321 0 -436.5 158t-61.5 471q26 144 73.5 247t125.5 176.5t191.5 109.5t267.5 36q152 0 256 -34t159.5 -100.5t73.5 -156t2 -208.5h-395q15 107 -10.5 149.5t-100.5 42.5q-90 0 -143.5 -65t-83.5 -222
q-30 -158 -7 -227.5t109 -69.5q75 0 123 38t70 128h401z" />
    <glyph glyph-name="d" unicode="d" horiz-adv-x="1372" 
d="M811 0l-12 125q-132 -152 -342 -152q-241 0 -329 153t-32 462q50 290 173 427.5t343 137.5q189 0 299 -119l90 518h408l-215 -1220l-39 -332h-344zM623 276q83 0 174 95l71 413q-51 62 -125 62q-94 0 -153.5 -68t-85.5 -213q-29 -166 -3 -227.5t122 -61.5z" />
    <glyph glyph-name="e" unicode="e" horiz-adv-x="1329" 
d="M1204 369q-17 -67 -44 -123t-75 -110t-112.5 -91t-161.5 -59.5t-217 -22.5q-321 0 -438.5 158.5t-63.5 470.5q35 193 110 315.5t211.5 188t340.5 65.5q310 0 422 -160.5t49 -517.5h-733q-21 -143 7 -196.5t111 -53.5t131.5 38.5t63.5 97.5h399zM745 913q-79 0 -127 -47
t-81 -164h321q10 125 -15 168t-98 43z" />
    <glyph glyph-name="f" unicode="f" horiz-adv-x="849" 
d="M977 1569l-57 -316h-50q-82 0 -134 -47.5t-66 -128.5l-6 -35h223l-47 -270h-226l-135 -772h-407l135 772h-148l45 270h150l25 134q11 61 32 114.5t59.5 106.5t90 90.5t130 60.5t173.5 23z" />
    <glyph glyph-name="g" unicode="g" horiz-adv-x="1441" 
d="M1194 -23q-2 -10 -6 -33q-9 -53 -15 -82t-25.5 -82t-44.5 -85t-71.5 -72.5t-107 -62.5t-151.5 -38t-204 -16q-94 0 -171 13.5t-127.5 36.5t-88.5 52.5t-58 62.5t-32.5 66t-15 62.5t-2 52.5t3.5 36l2 14h405q0 -2 -3 -16t-4 -21t-1 -21.5t2.5 -23t9 -20t17 -18t28.5 -11
t41 -4.5q58 0 96.5 15.5t61.5 50.5t34.5 72.5t23.5 100.5l10 62q-118 -95 -283 -95q-239 0 -326.5 153t-33.5 462q50 289 173.5 427t342.5 138q71 0 130.5 -16.5t99 -44t63 -51t39.5 -48.5l59 133h352l-80 -331zM684 276q84 0 168 91l74 417q-51 62 -138 62
q-170 0 -223 -281q-29 -166 -3 -227.5t122 -61.5z" />
    <glyph glyph-name="h" unicode="h" horiz-adv-x="1388" 
d="M37 0l272 1552h410l-94 -528q163 119 338 119q220 0 290 -128t19 -401l-111 -614h-407l112 637q12 72 -5 110.5t-85 38.5q-113 0 -211 -108l-119 -678h-409z" />
    <glyph glyph-name="i" unicode="i" horiz-adv-x="677" 
d="M258 1264l55 321h412l-57 -321h-410zM33 0l200 1126h410l-201 -1126h-409z" />
    <glyph glyph-name="j" unicode="j" horiz-adv-x="694" 
d="M272 1264l56 321h411l-57 -321h-410zM489 172q-36 -206 -66 -289q-60 -171 -194 -251q-163 -97 -481 -97l35 350q44 0 79.5 4.5t63 16t48 24.5t36.5 36t27 44t20.5 55.5t15 63.5t13.5 74l164 923h409z" />
    <glyph glyph-name="k" unicode="k" horiz-adv-x="1286" 
d="M35 0l272 1552h395l-149 -843l354 417h441l-437 -448l254 -678h-444l-105 375l-149 -152l-39 -223h-393z" />
    <glyph glyph-name="l" unicode="l" horiz-adv-x="677" 
d="M35 0l274 1552h408l-275 -1552h-407z" />
    <glyph glyph-name="m" unicode="m" horiz-adv-x="2011" 
d="M37 0l143 817l35 309h344l10 -125q153 142 340 142q233 0 301 -164q19 20 49.5 43.5t79.5 53t115 48.5t133 19q211 0 285 -130t24 -399l-110 -614h-389l112 637q12 73 -4 111t-82 38q-100 0 -192 -88q-1 -16 -6 -47.5t-6 -36.5l-111 -614h-373l113 637q12 72 -4.5 110.5
t-81.5 38.5q-103 0 -197 -94l-119 -692h-409z" />
    <glyph glyph-name="n" unicode="n" horiz-adv-x="1376" 
d="M37 0l143 817l35 309h344l12 -143q23 22 56 45.5t82.5 51.5t114.5 45.5t130 17.5q222 0 290 -131.5t16 -429.5l-105 -582h-407l106 604q19 88 2 135t-86 47q-110 0 -205 -100l-119 -686h-409z" />
    <glyph glyph-name="o" unicode="o" horiz-adv-x="1349" 
d="M1255 532q-25 -144 -72.5 -247.5t-125.5 -177t-192 -109t-269 -35.5q-324 0 -441 158t-63 471q26 144 74 247.5t126.5 177t192.5 109.5t269 37q323 0 440 -159t61 -472zM508 567q-32 -175 -9 -236t113 -61q93 0 146.5 64t83.5 223q32 175 9 237t-114 62q-93 0 -146 -64.5
t-83 -224.5z" />
    <glyph glyph-name="p" unicode="p" horiz-adv-x="1353" 
d="M-68 -492l228 1287l39 331h342l10 -108q52 50 140 92.5t206 42.5q238 0 325.5 -156.5t34.5 -466.5q-51 -288 -174 -422.5t-342 -134.5q-198 0 -301 115l-100 -580h-408zM743 846q-96 0 -186 -94l-72 -406q53 -70 144 -70q80 0 138 68.5t83 210.5q27 166 3 228.5
t-110 62.5z" />
    <glyph glyph-name="q" unicode="q" horiz-adv-x="1361" 
d="M641 -492l96 560q-118 -95 -280 -95q-241 0 -329 153t-32 462q50 290 173 427.5t343 137.5q70 0 129.5 -16.5t99.5 -44t63 -50.5t40 -47l60 131h350l-76 -321l-229 -1297h-408zM606 276q93 0 182 93l74 417q-53 60 -135 60q-173 0 -223 -281q-28 -166 -5 -227.5
t107 -61.5z" />
    <glyph glyph-name="r" unicode="r" horiz-adv-x="960" 
d="M37 0l139 786l39 340h346l10 -188q18 36 46 69.5t76.5 70t126.5 59t175 22.5l-34 -356q-71 0 -135 -17.5t-107.5 -42.5t-80.5 -59t-57.5 -61t-35.5 -54l-99 -569h-409z" />
    <glyph glyph-name="s" unicode="s" horiz-adv-x="1257" 
d="M1147 305q-14 -85 -52 -146.5t-108 -106.5t-180 -67t-262 -22q-287 0 -420.5 112.5t-95.5 319.5h381q-14 -83 23 -125.5t136 -42.5q158 -3 179 109q6 33 -14.5 56t-59.5 35.5t-91 21.5t-109 19t-114 24t-106 39.5t-84.5 62t-49.5 96t-1 137.5q27 168 166.5 252t414.5 84
q286 -1 410 -101.5t90 -301.5l-375 2q10 70 -19 107.5t-124 37.5q-152 0 -172 -108q-5 -30 16 -50.5t61 -31.5t93 -21t111 -19t115.5 -26t107 -41.5t85 -65.5t49 -98.5t-0.5 -140.5z" />
    <glyph glyph-name="t" unicode="t" horiz-adv-x="821" 
d="M674 0h-99q-79 0 -143.5 8.5t-113 23t-84.5 38.5t-60 51.5t-38 66t-19.5 77t-4 89t7.5 98.5t17 109l51 295h-149l49 270h148l53 297l418 62l-64 -359h223l-49 -270h-221l-53 -309q-23 -127 -3 -170t103 -43h90z" />
    <glyph glyph-name="u" unicode="u" horiz-adv-x="1368" 
d="M801 0l-15 152q-25 -25 -57.5 -50t-81.5 -54t-112 -47.5t-127 -18.5q-219 0 -289.5 127t-22.5 401l113 614h407l-114 -637q-13 -81 1.5 -115t71.5 -34q114 0 220 115l118 673h410l-143 -813l-33 -313h-346z" />
    <glyph glyph-name="v" unicode="v" horiz-adv-x="1241" 
d="M78 1126h450l25 -850l317 850h455l-586 -1126h-463z" />
    <glyph glyph-name="w" unicode="w" horiz-adv-x="1896" 
d="M969 731l-252 -731h-490l-121 1126h422v-825l289 825h443l6 -837l293 837h430l-512 -1126h-502z" />
    <glyph glyph-name="x" unicode="x" horiz-adv-x="1339" 
d="M604 289l-217 -289h-461l494 582l-291 544h444l134 -325l239 325h463l-516 -612l270 -514h-444z" />
    <glyph glyph-name="y" unicode="y" horiz-adv-x="1230" 
d="M178 -483l213 483h-131l-182 1126h422l45 -782l346 782h424l-766 -1609h-371z" />
    <glyph glyph-name="z" unicode="z" horiz-adv-x="1118" 
d="M-27 2l50 301l577 524h-463l56 297h950l-47 -295l-576 -526l477 2l-53 -303h-971z" />
    <glyph glyph-name="braceleft" unicode="{" horiz-adv-x="1126" 
d="M422 1139q11 61 21 106t26 86.5t30.5 69.5t41 52.5t51.5 40t67.5 28t82.5 18.5t104 10t125 5t151 1l-24 -290q-79 0 -128 -11t-87.5 -44t-61 -88.5t-39.5 -147.5l-34 -189q-8 -49 -30 -88.5t-48.5 -61.5t-53.5 -36t-45 -19t-22 -3q-3 -1 10 -11.5t35 -32.5t42.5 -50.5
t31.5 -72.5t2 -92l-37 -204q-10 -59 -13.5 -97t2.5 -67t17 -43.5t39.5 -23.5t60 -11t86.5 -2l-24 -293q-143 0 -238.5 7t-168.5 28t-111 52t-57 86.5t-17 123.5t20 170l52 287q3 31 4 50.5t-15.5 30.5t-47 15t-89.5 4l21 273q110 0 157 31.5t58 97.5z" />
    <glyph glyph-name="bar" unicode="|" horiz-adv-x="657" 
d="M-37 -369l363 2048h280l-362 -2048h-281z" />
    <glyph glyph-name="braceright" unicode="}" horiz-adv-x="1085" 
d="M662 -4q-11 -61 -21 -106t-25.5 -86.5t-30.5 -69.5t-41.5 -53t-51.5 -40t-67.5 -27.5t-82.5 -18.5t-104 -10.5t-125.5 -5.5t-151.5 -1l27 293q79 0 127 11t86 43.5t60 88t40 148.5l35 188q9 48 32 87.5t49.5 62t53 36.5t44.5 18.5t22 2.5q2 1 -12 12t-36 32.5t-42.5 50
t-31 72.5t-1.5 93l37 205q9 51 12 85.5t2.5 62t-11 44t-23.5 28t-41 16t-56.5 6.5t-75.5 2l27 290q107 0 185 -4t145 -14.5t110.5 -26t76 -42t48.5 -59.5t21.5 -81.5t1 -104.5t-18.5 -132l-51 -289q-3 -31 -4.5 -50t15 -29.5t46.5 -14.5t90 -4l-22 -275q-110 0 -156 -30.5
t-57 -96.5z" />
    <glyph glyph-name="asciitilde" unicode="~" horiz-adv-x="1292" 
d="M49 467q17 97 43 165.5t70 124.5t113 83.5t165 27.5q67 0 124 -17.5t90 -38.5t79 -38.5t94 -17.5q78 0 131 47t60 82l201 -33q-17 -97 -43 -165.5t-70.5 -124.5t-114 -83.5t-166.5 -27.5q-66 0 -122.5 17.5t-90 38.5t-80 38.5t-94.5 17.5q-77 0 -129 -46t-59 -81z" />
    <glyph glyph-name="exclamdown" unicode="&#xa1;" horiz-adv-x="561" 
d="M78 801l57 325h410l-58 -325h-409zM-127 -358l223 1077h344l-157 -1077h-410z" />
    <glyph glyph-name="cent" unicode="&#xa2;" horiz-adv-x="1314" 
d="M403 -41l27 162q-227 37 -306 192t-32 424q47 264 174.5 403t372.5 163l27 151h258l-27 -156q212 -31 292 -155t54 -334h-395q13 115 -12.5 158t-100.5 43q-90 0 -143.5 -65t-83.5 -222q-30 -158 -7 -227.5t109 -69.5q79 0 125.5 36.5t67.5 121.5h401
q-26 -106 -63 -183.5t-96.5 -140.5t-148 -99t-208.5 -46l-26 -156h-259z" />
    <glyph glyph-name="sterling" unicode="&#xa3;" horiz-adv-x="1318" 
d="M686 475q-26 -123 -115 -190l592 18l-53 -311h-1110l49 278q7 3 19 9.5t45 27t60 42.5t55 56.5t40 69.5h-217l41 223h172q-8 29 -23.5 67.5t-26.5 65t-22 69t-11 79.5t7 98q11 62 36.5 115t73.5 101.5t115 82.5t164.5 54t217.5 20q115 0 203 -17t146 -50t95 -77
t52.5 -103t15 -123t-14.5 -142h-397q12 90 -12.5 130t-96.5 40q-74 0 -122.5 -44t-59.5 -114q-7 -41 5 -79t37 -87.5t36 -85.5h301l-39 -223h-258z" />
    <glyph glyph-name="currency" unicode="&#xa4;" horiz-adv-x="1611" 
d="M1389 973q39 -140 2 -340q-29 -168 -95 -287l105 -119l-248 -219l-102 117q-132 -57 -324 -57q-203 0 -326 63l-139 -123l-188 219l145 129q-40 132 -2 334q29 174 98 291l-106 121l248 217l100 -117q133 59 328 62q194 0 323 -66l140 125l188 -217zM616 649
q-10 -66 -7.5 -119t38.5 -86.5t105 -33.5q98 0 158 70t83 194q44 248 -133 248q-99 0 -161 -74t-83 -199z" />
    <glyph glyph-name="yen" unicode="&#xa5;" horiz-adv-x="1331" 
d="M326 0l47 268h-232l35 197h232l16 100h-229l34 199h172l-284 688h452l115 -508l283 508h495l-538 -688h161l-32 -199h-234l-16 -100h231l-35 -197h-231l-47 -268h-395z" />
    <glyph glyph-name="brokenbar" unicode="&#xa6;" horiz-adv-x="657" 
d="M170 809l154 870h282l-153 -870h-283zM397 502l-153 -871h-281l152 871h282z" />
    <glyph glyph-name="section" unicode="&#xa7;" horiz-adv-x="1286" 
d="M1171 776q-23 -138 -153 -221q94 -91 63 -266q-19 -114 -79 -187t-182.5 -114t-313.5 -41q-293 0 -403 100.5t-72 312.5h358q-18 -97 14 -135.5t105 -38.5q81 0 129 30.5t57 86.5q7 36 -11.5 61.5t-55 39t-85 25.5t-102 22t-107 27.5t-99 42t-78 66t-45 99t1.5 141.5
q23 133 161 215q-105 91 -71 273q27 157 159.5 237t391.5 80q280 0 394.5 -95.5t80.5 -287.5h-359q14 80 -10.5 112t-105.5 32q-72 0 -116 -33.5t-54 -83.5q-6 -34 13 -56.5t56 -34t86 -21t103.5 -17.5t108 -23.5t99.5 -39t78.5 -65t44.5 -99.5t-2 -144zM494 770
q-3 -19 1 -33t20 -24.5t29 -17t44.5 -12.5t49 -9t58.5 -8q75 60 90 141q3 23 -6 41.5t-23 30t-44.5 21.5t-54 15.5t-66.5 14.5q-84 -71 -98 -160z" />
    <glyph glyph-name="dieresis" unicode="&#xa8;" horiz-adv-x="1173" 
d="M131 1260l57 325h377l-57 -325h-377zM629 1260l57 325h377l-57 -325h-377z" />
    <glyph glyph-name="copyright" unicode="&#xa9;" horiz-adv-x="1714" 
d="M1628 684q-16 -134 -55 -247t-109 -210t-166.5 -164t-231.5 -105t-300 -38q-122 0 -223 21t-175 60.5t-130.5 96t-90 126t-53.5 152t-20.5 174t8.5 191.5q15 133 55 247.5t110 212.5t167 167.5t231.5 108.5t296.5 39q144 0 258.5 -29.5t192.5 -83.5t132.5 -130t79 -168.5
t32 -199t-8.5 -221.5zM266 684q-11 -84 -5 -161t23.5 -143.5t57 -120.5t96 -92.5t141 -59.5t191.5 -21q137 0 246 33.5t183.5 91.5t127 142t80 179t37.5 209q60 609 -508 609q-135 0 -243 -35t-181.5 -94.5t-126 -146t-80 -182t-39.5 -208.5zM1235 637q-21 -116 -58 -195.5
t-92.5 -126t-123.5 -66.5t-160 -20q-87 0 -151.5 17t-113 54.5t-72 97.5t-28.5 146.5t17 200.5q23 132 62.5 221.5t99.5 141.5t133 74t172 22q76 0 135 -12t107.5 -40.5t74 -74.5t35.5 -113.5t-8 -158.5h-258q10 92 -13 132t-82 40q-73 0 -121.5 -64t-74.5 -225
q-21 -135 0 -183t94 -48q62 0 105 38.5t63 141.5h258z" />
    <glyph glyph-name="ordfeminine" unicode="&#xaa;" horiz-adv-x="923" 
d="M549 741l-8 37q-97 -63 -215 -63q-156 0 -228.5 69.5t-46.5 210.5q22 124 107 175t223 51q76 0 205 -11l8 47q10 55 -4.5 80t-69.5 25q-58 0 -91.5 -25.5t-39.5 -66.5l-248 2q6 35 15 63.5t34 69.5t61 68.5t101 48t150 20.5q82 0 144.5 -11t104 -29.5t68 -49t39.5 -63.5
t15.5 -80.5t-2 -91t-15.5 -103.5l-27 -153l-22 -220h-258zM412 903q70 0 133 55l18 115q-18 2 -61 2q-144 0 -164 -96q-8 -39 9.5 -57.5t64.5 -18.5z" />
    <glyph glyph-name="guillemotleft" unicode="&#xab;" horiz-adv-x="1619" 
d="M287 156l-176 366l4 62l305 381h442l-360 -418l225 -391h-440zM877 156l-175 366l3 62l305 381h442l-360 -420l225 -389h-440z" />
    <glyph glyph-name="registered" unicode="&#xae;" horiz-adv-x="1714" 
d="M1628 684q-16 -134 -55 -247t-109 -210t-166.5 -164t-231.5 -105t-300 -38q-122 0 -223 21t-175 60.5t-130.5 96t-90 126t-53.5 152t-20.5 174t8.5 191.5q15 133 55 247.5t110 212.5t167 167.5t231.5 108.5t296.5 39q144 0 258.5 -29.5t192.5 -83.5t132.5 -130t79 -168.5
t32 -199t-8.5 -221.5zM266 684q-11 -84 -5 -161t23.5 -143.5t57 -120.5t96 -92.5t141 -59.5t191.5 -21q137 0 246 33.5t183.5 91.5t127 142t80 179t37.5 209q60 609 -508 609q-135 0 -243 -35t-181.5 -94.5t-126 -146t-80 -182t-39.5 -208.5zM406 272l159 902h373
q218 0 296.5 -79t43.5 -278q-20 -113 -59.5 -173.5t-112.5 -88.5l68 -283h-269l-43 252h-151l-45 -252h-260zM788 965l-40 -232h83q86 0 131 23.5t58 93.5q10 66 -16.5 90.5t-104.5 24.5h-111z" />
    <glyph glyph-name="macron" unicode="&#xaf;" horiz-adv-x="1167" 
d="M166 1546h702l-43 -241h-702z" />
    <glyph glyph-name="degree" unicode="&#xb0;" horiz-adv-x="718" 
d="M725 1178q-26 -141 -107 -204t-219 -63q-153 0 -225 82t-43 242q24 143 106 206.5t218 63.5q155 0 227 -82t43 -245zM340 1194q-16 -102 68 -102q45 0 72.5 33.5t35.5 93.5q2 28 1.5 52t-17.5 40t-51 16q-44 0 -72.5 -36t-36.5 -97z" />
    <glyph glyph-name="plusminus" unicode="&#xb1;" horiz-adv-x="1243" 
d="M449 477l38 228h-319l43 241h319l41 225h277l-41 -225h321l-43 -241h-321l-39 -228h-276zM72 156l43 241h917l-41 -241h-919z" />
    <glyph glyph-name="uni00B2" unicode="&#xb2;" horiz-adv-x="997" 
d="M41 559l43 244v2h4q160 100 295 190q175 116 231 164q107 91 123 174q7 49 -9.5 75t-78.5 26q-61 0 -105.5 -47t-56.5 -101h-325q14 78 36.5 139.5t61.5 118.5t92.5 95t132 60.5t177.5 22.5q80 0 145 -12t110 -33t77.5 -51.5t51 -65t26.5 -75.5t7.5 -81.5t-8.5 -84.5
q-6 -35 -18 -68.5t-32 -66.5t-37 -59t-48 -57.5t-50 -51t-58 -51.5t-56.5 -46t-60.5 -47t-56 -43l318 15l-49 -285h-883z" />
    <glyph glyph-name="uni00B3" unicode="&#xb3;" horiz-adv-x="1021" 
d="M823 1249q124 -40 165.5 -131t15.5 -237q-9 -55 -28.5 -102t-58 -94t-92 -79.5t-135.5 -53t-184 -20.5q-91 0 -163 15.5t-118 43t-78 66t-44 84.5t-14.5 98t9.5 107h328q-26 -139 86 -139q62 0 103.5 46.5t52.5 113.5q11 65 -18 99t-118 34q-41 0 -75 -6t-48 -12l-14 -5
l23 176l270 172l-473 -20l49 285h864l-43 -246z" />
    <glyph glyph-name="acute" unicode="&#xb4;" horiz-adv-x="1157" 
d="M98 1266l262 368h385l-313 -368h-334z" />
    <glyph glyph-name="paragraph" unicode="&#xb6;" horiz-adv-x="1538" 
d="M561 0l88 504q-110 3 -192.5 12.5t-151.5 28t-115.5 48.5t-78.5 71.5t-45 99.5t-11.5 130t17.5 165q18 105 45.5 179.5t72.5 131.5t102 91.5t144 56.5t188.5 30t243.5 8h703l-275 -1556h-282l219 1247h-170l-219 -1247h-283zM449 1020q-20 -118 31 -158t225 -43l75 426
q-165 -8 -237 -56t-94 -169z" />
    <glyph glyph-name="periodcentered" unicode="&#xb7;" horiz-adv-x="671" 
d="M63 459l58 325h411l-57 -325h-412z" />
    <glyph glyph-name="cedilla" unicode="&#xb8;" horiz-adv-x="1118" 
d="M782 -365q-8 -50 -29 -85t-66.5 -63.5t-124.5 -42t-195 -13.5q-77 0 -138 7t-83 14l-23 7l14 156q12 -2 92 -2q74 0 121 33t56 88q3 16 0 28t-13.5 19t-21.5 11t-33 6t-38 2.5t-46 0.5h-23l146 203h332l-97 -133q84 -9 137.5 -67.5t32.5 -168.5z" />
    <glyph glyph-name="uni00B9" unicode="&#xb9;" horiz-adv-x="647" 
d="M195 557l137 811l-191 -70l45 269l336 125h195l-201 -1135h-321z" />
    <glyph glyph-name="ordmasculine" unicode="&#xba;" horiz-adv-x="921" 
d="M864 1100q-24 -134 -74 -216.5t-142.5 -126.5t-235.5 -44q-227 0 -310.5 113t-44.5 333q35 199 138.5 294t312.5 95q228 0 311 -113.5t45 -334.5zM346 1135q-22 -106 -7.5 -156.5t77.5 -50.5q64 0 101.5 43.5t57.5 152.5q22 106 7.5 156.5t-78.5 50.5q-62 0 -100.5 -44
t-57.5 -152z" />
    <glyph glyph-name="guillemotright" unicode="&#xbb;" horiz-adv-x="1568" 
d="M512 156h-444l358 403l-221 406h424l188 -381l-2 -62zM1102 156h-445l359 403l-221 406h424l188 -381l-2 -62z" />
    <glyph glyph-name="onequarter" unicode="&#xbc;" horiz-adv-x="2369" 
d="M96 420l137 811l-190 -70l45 269l336 124h194l-200 -1134h-322zM274 -82l1184 1620h320l-1182 -1620h-322zM1786 0l29 168h-562l41 248l551 717h463l-127 -717h123l-45 -248h-121l-29 -168h-323zM1860 416l82 461l-326 -461h244z" />
    <glyph glyph-name="onehalf" unicode="&#xbd;" horiz-adv-x="2420" 
d="M96 420l137 811l-190 -70l45 269l336 124h194l-200 -1134h-322zM274 -82l1184 1620h320l-1182 -1620h-322zM1366 2l43 244v2h4q160 100 295 190q175 116 231 164q107 91 123 174q7 49 -9.5 75t-78.5 26q-61 0 -105.5 -47t-56.5 -101h-325q14 78 36.5 139.5t61.5 118.5
t92.5 95t132 60.5t177.5 22.5q80 0 145 -12t110 -33t77.5 -51.5t51 -65t26.5 -75.5t7.5 -81.5t-8.5 -84.5q-6 -35 -18 -68.5t-32 -66.5t-37 -59t-48 -57.5t-50 -51t-58 -51.5t-56.5 -46t-60.5 -47t-56 -43l318 15l-49 -285h-883z" />
    <glyph glyph-name="threequarters" unicode="&#xbe;" horiz-adv-x="2691" 
d="M725 1112q123 -40 164.5 -131.5t15.5 -237.5q-9 -55 -28.5 -102t-58 -93.5t-91.5 -79.5t-135 -53t-184 -20q-91 0 -163 15.5t-118 43t-78 66t-44 84.5t-14.5 98t9.5 107h328q-26 -139 86 -139q62 0 103 46t52 113q11 65 -18 99.5t-117 34.5q-41 0 -75 -5.5t-48 -11.5
l-14 -6l22 176l271 172l-473 -20l49 284h864l-43 -245zM596 -82l1184 1620h319l-1181 -1620h-322zM2107 0l29 168h-561l41 248l551 717h463l-127 -717h123l-46 -248h-120l-29 -168h-324zM2181 416l82 461l-326 -461h244z" />
    <glyph glyph-name="questiondown" unicode="&#xbf;" horiz-adv-x="1112" 
d="M848 1126l-53 -299h-410l53 299h410zM367 752h413l-10 -60q-13 -73 -42 -134t-66 -103t-79.5 -78.5t-84.5 -69t-77.5 -66t-62.5 -78.5t-36 -97q-21 -127 104 -127q71 0 124 59.5t73 161.5h387q-23 -138 -64 -238t-110.5 -177t-176.5 -116t-253 -39q-108 0 -195 18
t-145.5 50.5t-100.5 78.5t-60 101t-23 118.5t9 131.5q12 71 40.5 129.5t65 99t79 75.5t85.5 68t81 68t69 84.5t47 108.5z" />
    <glyph glyph-name="Agrave" unicode="&#xc0;" horiz-adv-x="1482" 
d="M1055 1595h-348l-195 312h401zM-137 0l758 1485h501l234 -1485h-447l-22 219h-477l-99 -219h-448zM549 524h307l-55 551z" />
    <glyph glyph-name="Aacute" unicode="&#xc1;" horiz-adv-x="1482" 
d="M698 1589l254 314h418l-301 -314h-371zM-137 0l758 1485h501l234 -1485h-447l-22 219h-477l-99 -219h-448zM549 524h307l-55 551z" />
    <glyph glyph-name="Acircumflex" unicode="&#xc2;" horiz-adv-x="1482" 
d="M1341 1589h-311l-110 131l-146 -131h-328l308 330h379zM-137 0l758 1485h501l234 -1485h-447l-22 219h-477l-99 -219h-448zM549 524h307l-55 551z" />
    <glyph glyph-name="Atilde" unicode="&#xc3;" horiz-adv-x="1482" 
d="M1378 1939q-17 -88 -37 -148.5t-53 -109t-82 -71.5t-116 -23q-66 0 -115.5 14.5t-73 32.5t-53.5 32.5t-62 14.5q-65 0 -107 -40t-46 -72l-170 30q32 180 95 267.5t192 87.5q67 0 116.5 -14.5t73 -32.5t53 -32.5t60.5 -14.5q65 0 107.5 40t47.5 70zM-137 0l758 1485h501
l234 -1485h-447l-22 219h-477l-99 -219h-448zM549 524h307l-55 551z" />
    <glyph glyph-name="Adieresis" unicode="&#xc4;" horiz-adv-x="1482" 
d="M420 1589l57 326h410l-58 -326h-409zM950 1589l58 326h409l-57 -326h-410zM-137 0l758 1485h501l234 -1485h-447l-22 219h-477l-99 -219h-448zM549 524h307l-55 551z" />
    <glyph glyph-name="Aring" unicode="&#xc5;" horiz-adv-x="1482" 
d="M1206 1810q-20 -115 -97 -171t-200 -56q-140 0 -211 75t-47 212q41 227 299 227q139 0 209.5 -74.5t46.5 -212.5zM860 1833q-4 -30 12 -45.5t43 -15.5q33 0 55 21t27 54q6 30 -10.5 46t-44.5 16q-33 0 -55 -21.5t-27 -54.5zM-137 0l758 1485h501l234 -1485h-447l-22 219
h-477l-99 -219h-448zM549 524h307l-55 551z" />
    <glyph glyph-name="AE" unicode="&#xc6;" horiz-adv-x="2088" 
d="M-137 0l952 1485h1319l-59 -334h-635l-43 -248h530l-53 -303h-531l-47 -266h650l-60 -334h-1065l45 254h-387l-149 -254h-467zM920 557l108 623l-369 -623h261z" />
    <glyph glyph-name="Ccedilla" unicode="&#xc7;" horiz-adv-x="1484" 
d="M893 -369q-8 -50 -29.5 -85t-66.5 -63.5t-124.5 -42t-195.5 -13.5q-77 0 -138 7t-83 14l-23 7l15 156q12 -2 92 -2q74 0 120.5 33t55.5 88q3 16 0.5 28t-13.5 19t-21.5 11t-32.5 6t-38 2.5t-46 0.5h-23l123 174q-121 20 -203.5 74.5t-131.5 151.5t-54.5 238t26.5 335
q38 215 103 362.5t162.5 234.5t218.5 124t284 37q102 0 183 -13.5t151 -44.5t115.5 -80t75 -120.5t31 -166t-16.5 -216.5h-405q25 161 -13.5 224t-148.5 63q-116 0 -196.5 -92.5t-125.5 -311.5q-53 -254 -18 -356.5t172 -102.5q57 0 97 12t76 44t61.5 91.5t45.5 151.5
l406 -2q-37 -213 -114 -350t-186.5 -204.5t-264.5 -86.5l-72 -100q84 -9 137.5 -67.5t32.5 -168.5z" />
    <glyph glyph-name="Egrave" unicode="&#xc8;" horiz-adv-x="1271" 
d="M971 1595h-348l-195 312h401zM4 0l262 1485h1051l-60 -334h-632l-43 -248h530l-53 -303h-531l-47 -266h649l-61 -334h-1065z" />
    <glyph glyph-name="Eacute" unicode="&#xc9;" horiz-adv-x="1271" 
d="M614 1589l254 314h418l-301 -314h-371zM4 0l262 1485h1051l-60 -334h-632l-43 -248h530l-53 -303h-531l-47 -266h649l-61 -334h-1065z" />
    <glyph glyph-name="Ecircumflex" unicode="&#xca;" horiz-adv-x="1271" 
d="M1257 1589h-311l-110 131l-146 -131h-328l308 330h379zM4 0l262 1485h1051l-60 -334h-632l-43 -248h530l-53 -303h-531l-47 -266h649l-61 -334h-1065z" />
    <glyph glyph-name="Edieresis" unicode="&#xcb;" horiz-adv-x="1271" 
d="M336 1589l57 326h410l-58 -326h-409zM866 1589l58 326h409l-57 -326h-410zM4 0l262 1485h1051l-60 -334h-632l-43 -248h530l-53 -303h-531l-47 -266h649l-61 -334h-1065z" />
    <glyph glyph-name="Igrave" unicode="&#xcc;" horiz-adv-x="698" 
d="M670 1595h-348l-195 312h401zM4 0l262 1485h418l-262 -1485h-418z" />
    <glyph glyph-name="Iacute" unicode="&#xcd;" horiz-adv-x="698" 
d="M313 1589l254 314h418l-301 -314h-371zM4 0l262 1485h418l-262 -1485h-418z" />
    <glyph glyph-name="Icircumflex" unicode="&#xce;" horiz-adv-x="698" 
d="M956 1589h-311l-110 131l-146 -131h-328l308 330h379zM4 0l262 1485h418l-262 -1485h-418z" />
    <glyph glyph-name="Idieresis" unicode="&#xcf;" horiz-adv-x="698" 
d="M35 1589l57 326h410l-58 -326h-409zM565 1589l58 326h409l-57 -326h-410zM4 0l262 1485h418l-262 -1485h-418z" />
    <glyph glyph-name="Eth" unicode="&#xd0;" horiz-adv-x="1519" 
d="M119 645h-121l35 193h119l116 649h480q330 0 491 -81t192.5 -253t-18.5 -440q-21 -117 -44 -202t-57.5 -164t-81 -132t-111.5 -97t-152 -68.5t-199 -38t-256 -13.5h-508zM543 645l-51 -299h135q88 0 143 16.5t99 63.5t70.5 125.5t49.5 208.5q17 95 19.5 158.5t-7.5 106.5
t-38.5 66.5t-68 32.5t-101.5 9h-164l-51 -295h215l-33 -193h-217z" />
    <glyph glyph-name="Ntilde" unicode="&#xd1;" horiz-adv-x="1599" 
d="M1425 1939q-17 -88 -37 -148.5t-53 -109t-82 -71.5t-116 -23q-54 0 -96 9.5t-67.5 23.5t-46 28t-44 23.5t-49.5 9.5q-65 0 -107.5 -40.5t-46.5 -71.5l-170 30q32 180 95 267.5t192 87.5q67 0 116.5 -14.5t73 -32.5t53 -32.5t60.5 -14.5q65 0 107.5 40t47.5 70zM549 1008
l-156 -1008h-389l264 1485h486l288 -1000l156 1000h387l-262 -1485h-469z" />
    <glyph glyph-name="Ograve" unicode="&#xd2;" horiz-adv-x="1521" 
d="M1079 1612h-348l-194 311h401zM1417 713q-38 -215 -103 -361.5t-163 -233.5t-219 -124t-285 -37q-114 0 -203 18.5t-160.5 58t-117.5 103.5t-70 153.5t-22.5 209.5t28.5 270q38 216 103 363t163 234t219 124t285 37q114 0 203 -18.5t160 -58.5t117 -104t70 -154
t22.5 -210t-27.5 -270zM520 770q-53 -254 -18 -356.5t174 -102.5q127 0 204 90.5t121 313.5q51 253 15.5 356t-172.5 103q-118 0 -198.5 -92.5t-125.5 -311.5z" />
    <glyph glyph-name="Oacute" unicode="&#xd3;" horiz-adv-x="1521" 
d="M723 1606l254 313h418l-301 -313h-371zM1417 713q-38 -215 -103 -361.5t-163 -233.5t-219 -124t-285 -37q-114 0 -203 18.5t-160.5 58t-117.5 103.5t-70 153.5t-22.5 209.5t28.5 270q38 216 103 363t163 234t219 124t285 37q114 0 203 -18.5t160 -58.5t117 -104t70 -154
t22.5 -210t-27.5 -270zM520 770q-53 -254 -18 -356.5t174 -102.5q127 0 204 90.5t121 313.5q51 253 15.5 356t-172.5 103q-118 0 -198.5 -92.5t-125.5 -311.5z" />
    <glyph glyph-name="Ocircumflex" unicode="&#xd4;" horiz-adv-x="1521" 
d="M1366 1606h-311l-111 131l-145 -131h-328l307 329h379zM1417 713q-38 -215 -103 -361.5t-163 -233.5t-219 -124t-285 -37q-114 0 -203 18.5t-160.5 58t-117.5 103.5t-70 153.5t-22.5 209.5t28.5 270q38 216 103 363t163 234t219 124t285 37q114 0 203 -18.5t160 -58.5
t117 -104t70 -154t22.5 -210t-27.5 -270zM520 770q-53 -254 -18 -356.5t174 -102.5q127 0 204 90.5t121 313.5q51 253 15.5 356t-172.5 103q-118 0 -198.5 -92.5t-125.5 -311.5z" />
    <glyph glyph-name="Otilde" unicode="&#xd5;" horiz-adv-x="1521" 
d="M1403 1956q-16 -88 -37 -148.5t-53.5 -109t-82 -71.5t-116.5 -23q-54 0 -96 9.5t-67.5 23.5t-46 28t-44 23.5t-49.5 9.5q-65 0 -107.5 -40.5t-46.5 -72.5l-170 31q32 180 95 267t192 87q67 0 116.5 -14.5t73 -32.5t53 -32.5t60.5 -14.5q65 0 108 40.5t48 70.5zM1417 713
q-38 -215 -103 -361.5t-163 -233.5t-219 -124t-285 -37q-114 0 -203 18.5t-160.5 58t-117.5 103.5t-70 153.5t-22.5 209.5t28.5 270q38 216 103 363t163 234t219 124t285 37q114 0 203 -18.5t160 -58.5t117 -104t70 -154t22.5 -210t-27.5 -270zM520 770q-53 -254 -18 -356.5
t174 -102.5q127 0 204 90.5t121 313.5q51 253 15.5 356t-172.5 103q-118 0 -198.5 -92.5t-125.5 -311.5z" />
    <glyph glyph-name="Odieresis" unicode="&#xd6;" horiz-adv-x="1521" 
d="M444 1606l58 325h409l-57 -325h-410zM975 1606l57 325h410l-58 -325h-409zM1417 713q-38 -215 -103 -361.5t-163 -233.5t-219 -124t-285 -37q-114 0 -203 18.5t-160.5 58t-117.5 103.5t-70 153.5t-22.5 209.5t28.5 270q38 216 103 363t163 234t219 124t285 37
q114 0 203 -18.5t160 -58.5t117 -104t70 -154t22.5 -210t-27.5 -270zM520 770q-53 -254 -18 -356.5t174 -102.5q127 0 204 90.5t121 313.5q51 253 15.5 356t-172.5 103q-118 0 -198.5 -92.5t-125.5 -311.5z" />
    <glyph glyph-name="multiply" unicode="&#xd7;" horiz-adv-x="1136" 
d="M752 197l-217 270l-310 -274l-153 167l319 283l-219 275l186 157l217 -268l310 272l153 -166l-319 -284l221 -273z" />
    <glyph glyph-name="Oslash" unicode="&#xd8;" horiz-adv-x="1521" 
d="M-12 -27l162 189q-122 196 -48 608q38 216 103 363t163 234t219 124t285 37q241 0 375 -84l60 67h194l-145 -170q135 -194 61 -628q-38 -215 -103 -361.5t-163 -233.5t-219 -124t-285 -37q-259 0 -393 94l-68 -78h-198zM520 770q-27 -125 -33 -213l492 573
q-47 44 -135 44q-118 0 -198.5 -92.5t-125.5 -311.5zM1001 715q29 145 29 246l-506 -592q46 -58 152 -58q127 0 204 90.5t121 313.5z" />
    <glyph glyph-name="Ugrave" unicode="&#xd9;" horiz-adv-x="1443" 
d="M1026 1595h-348l-195 312h402zM1309 680q-18 -101 -35.5 -176.5t-41.5 -149.5t-53 -126t-68 -99t-87.5 -77t-111 -52.5t-140 -32.5t-172.5 -10q-195 0 -312.5 46.5t-167.5 140.5t-52 235.5t34 331.5l138 774h415l-135 -772q-14 -82 -21 -138.5t-6.5 -101t8 -71t25.5 -44
t43.5 -24t63.5 -6.5q70 0 116.5 33t82 116.5t61.5 233.5l137 774h420z" />
    <glyph glyph-name="Uacute" unicode="&#xda;" horiz-adv-x="1443" 
d="M670 1589l254 314h417l-301 -314h-370zM1309 680q-18 -101 -35.5 -176.5t-41.5 -149.5t-53 -126t-68 -99t-87.5 -77t-111 -52.5t-140 -32.5t-172.5 -10q-195 0 -312.5 46.5t-167.5 140.5t-52 235.5t34 331.5l138 774h415l-135 -772q-14 -82 -21 -138.5t-6.5 -101t8 -71
t25.5 -44t43.5 -24t63.5 -6.5q70 0 116.5 33t82 116.5t61.5 233.5l137 774h420z" />
    <glyph glyph-name="Ucircumflex" unicode="&#xdb;" horiz-adv-x="1443" 
d="M1313 1589h-312l-110 131l-146 -131h-327l307 330h379zM1309 680q-18 -101 -35.5 -176.5t-41.5 -149.5t-53 -126t-68 -99t-87.5 -77t-111 -52.5t-140 -32.5t-172.5 -10q-195 0 -312.5 46.5t-167.5 140.5t-52 235.5t34 331.5l138 774h415l-135 -772q-14 -82 -21 -138.5
t-6.5 -101t8 -71t25.5 -44t43.5 -24t63.5 -6.5q70 0 116.5 33t82 116.5t61.5 233.5l137 774h420z" />
    <glyph glyph-name="Udieresis" unicode="&#xdc;" horiz-adv-x="1443" 
d="M391 1589l58 326h409l-57 -326h-410zM922 1589l57 326h410l-58 -326h-409zM1309 680q-18 -101 -35.5 -176.5t-41.5 -149.5t-53 -126t-68 -99t-87.5 -77t-111 -52.5t-140 -32.5t-172.5 -10q-195 0 -312.5 46.5t-167.5 140.5t-52 235.5t34 331.5l138 774h415l-135 -772
q-14 -82 -21 -138.5t-6.5 -101t8 -71t25.5 -44t43.5 -24t63.5 -6.5q70 0 116.5 33t82 116.5t61.5 233.5l137 774h420z" />
    <glyph glyph-name="Yacute" unicode="&#xdd;" horiz-adv-x="1345" 
d="M602 1589l254 314h418l-301 -314h-371zM319 0l72 401l-274 1084h454l84 -721l328 721h494l-674 -1088l-72 -397h-412z" />
    <glyph glyph-name="Thorn" unicode="&#xde;" horiz-adv-x="1447" 
d="M4 0l262 1485h422l-35 -197h183q101 0 180 -8.5t144.5 -27.5t111.5 -50.5t77.5 -75.5t45 -104t12.5 -136t-18 -171q-22 -126 -59.5 -212t-91.5 -144t-139 -90t-188.5 -45t-253.5 -13h-198l-37 -211h-418zM592 952l-72 -407h137q73 0 118.5 6.5t88 28t67.5 65.5t38 115
q6 36 6 63.5t-5.5 48t-18.5 34.5t-30 23t-43.5 14t-55 7t-68.5 2h-162z" />
    <glyph glyph-name="germandbls" unicode="&#xdf;" horiz-adv-x="1345" 
d="M29 0l184 1047q10 56 18.5 95t23 87.5t32 82.5t44 72t59.5 63.5t79 50.5t101.5 39t127.5 23t158 9q163 0 272.5 -32t162.5 -91t70 -142t-5 -184q-14 -83 -48.5 -148t-72.5 -100t-76.5 -56.5t-63 -28t-28.5 -3.5q-2 -1 3 -3q51 -26 57 -29q160 -100 135 -321
q-2 -17 -5 -34q-15 -82 -34 -137.5t-54 -102.5t-84 -75t-126.5 -47.5t-178 -27t-241.5 -7.5l49 295q130 0 191.5 39.5t78.5 136.5q10 51 1 83.5t-40 48.5t-67 21.5t-97 6.5l45 270q90 0 154 49.5t78 128.5q19 107 -2 150t-101 43q-162 0 -200 -205l-191 -1067h-409z" />
    <glyph glyph-name="agrave" unicode="&#xe0;" horiz-adv-x="1314" 
d="M934 1266h-316l-182 368h367zM752 0l-13 59q-147 -96 -321 -96q-219 0 -318.5 96t-66.5 293q14 76 45.5 134.5t75.5 96.5t103 61.5t123 33.5t140 10q157 0 289 -16l8 47q10 59 10 98.5t-28 58.5t-92 19q-80 0 -129 -37t-60 -98l-354 2q69 389 530 389q91 0 165 -9.5
t129.5 -25.5t96.5 -43t68 -57t42.5 -72t22 -83.5t4 -97t-9 -106t-18.5 -116.5l-39 -226l-35 -315h-368zM543 229q111 0 205 78l28 172q-62 4 -106 4q-191 0 -217 -131q-14 -63 8 -93t82 -30z" />
    <glyph glyph-name="aacute" unicode="&#xe1;" horiz-adv-x="1314" 
d="M614 1266l263 368h385l-314 -368h-334zM752 0l-13 59q-147 -96 -321 -96q-219 0 -318.5 96t-66.5 293q14 76 45.5 134.5t75.5 96.5t103 61.5t123 33.5t140 10q157 0 289 -16l8 47q10 59 10 98.5t-28 58.5t-92 19q-80 0 -129 -37t-60 -98l-354 2q69 389 530 389
q91 0 165 -9.5t129.5 -25.5t96.5 -43t68 -57t42.5 -72t22 -83.5t4 -97t-9 -106t-18.5 -116.5l-39 -226l-35 -315h-368zM543 229q111 0 205 78l28 172q-62 4 -106 4q-191 0 -217 -131q-14 -63 8 -93t82 -30z" />
    <glyph glyph-name="acircumflex" unicode="&#xe2;" horiz-adv-x="1314" 
d="M1227 1260h-309l-111 135l-148 -135h-340l340 364h349zM752 0l-13 59q-147 -96 -321 -96q-219 0 -318.5 96t-66.5 293q14 76 45.5 134.5t75.5 96.5t103 61.5t123 33.5t140 10q157 0 289 -16l8 47q10 59 10 98.5t-28 58.5t-92 19q-80 0 -129 -37t-60 -98l-354 2
q69 389 530 389q91 0 165 -9.5t129.5 -25.5t96.5 -43t68 -57t42.5 -72t22 -83.5t4 -97t-9 -106t-18.5 -116.5l-39 -226l-35 -315h-368zM543 229q111 0 205 78l28 172q-62 4 -106 4q-191 0 -217 -131q-14 -63 8 -93t82 -30z" />
    <glyph glyph-name="atilde" unicode="&#xe3;" horiz-adv-x="1314" 
d="M1276 1626q-16 -88 -37 -148.5t-54 -108.5t-82 -71.5t-116 -23.5q-66 0 -116 14.5t-74 32.5t-54 32.5t-61 14.5q-63 0 -105.5 -40.5t-46.5 -70.5l-172 31q32 178 96 265t193 87q54 0 96.5 -9.5t68 -23.5t46.5 -28t44 -23.5t48 -9.5q63 0 106 40.5t50 70.5zM752 0l-13 59
q-147 -96 -321 -96q-219 0 -318.5 96t-66.5 293q14 76 45.5 134.5t75.5 96.5t103 61.5t123 33.5t140 10q157 0 289 -16l8 47q10 59 10 98.5t-28 58.5t-92 19q-80 0 -129 -37t-60 -98l-354 2q69 389 530 389q91 0 165 -9.5t129.5 -25.5t96.5 -43t68 -57t42.5 -72t22 -83.5
t4 -97t-9 -106t-18.5 -116.5l-39 -226l-35 -315h-368zM543 229q111 0 205 78l28 172q-62 4 -106 4q-191 0 -217 -131q-14 -63 8 -93t82 -30z" />
    <glyph glyph-name="adieresis" unicode="&#xe4;" horiz-adv-x="1314" 
d="M344 1260l57 325h377l-57 -325h-377zM842 1260l57 325h377l-57 -325h-377zM752 0l-13 59q-147 -96 -321 -96q-219 0 -318.5 96t-66.5 293q14 76 45.5 134.5t75.5 96.5t103 61.5t123 33.5t140 10q157 0 289 -16l8 47q10 59 10 98.5t-28 58.5t-92 19q-80 0 -129 -37
t-60 -98l-354 2q69 389 530 389q91 0 165 -9.5t129.5 -25.5t96.5 -43t68 -57t42.5 -72t22 -83.5t4 -97t-9 -106t-18.5 -116.5l-39 -226l-35 -315h-368zM543 229q111 0 205 78l28 172q-62 4 -106 4q-191 0 -217 -131q-14 -63 8 -93t82 -30z" />
    <glyph glyph-name="aring" unicode="&#xe5;" horiz-adv-x="1314" 
d="M1100 1464q-20 -115 -97 -171t-200 -56q-139 0 -210 75t-48 212q41 227 299 227q138 0 209 -75.5t47 -211.5zM754 1487q-4 -30 12 -46t43 -16q32 0 54 21t30 55q4 31 -12.5 46.5t-44.5 15.5q-31 0 -53.5 -21.5t-28.5 -54.5zM752 0l-13 59q-147 -96 -321 -96
q-219 0 -318.5 96t-66.5 293q14 76 45.5 134.5t75.5 96.5t103 61.5t123 33.5t140 10q157 0 289 -16l8 47q10 59 10 98.5t-28 58.5t-92 19q-80 0 -129 -37t-60 -98l-354 2q69 389 530 389q91 0 165 -9.5t129.5 -25.5t96.5 -43t68 -57t42.5 -72t22 -83.5t4 -97t-9 -106
t-18.5 -116.5l-39 -226l-35 -315h-368zM543 229q111 0 205 78l28 172q-62 4 -106 4q-191 0 -217 -131q-14 -63 8 -93t82 -30z" />
    <glyph glyph-name="ae" unicode="&#xe6;" horiz-adv-x="2009" 
d="M1884 369q-17 -67 -44 -123t-75 -110t-112.5 -91t-161.5 -59.5t-217 -22.5q-329 0 -447 168q-175 -160 -407 -160q-220 0 -320 92.5t-67 288.5q17 95 60.5 161.5t110 103.5t143 53t173.5 16h273q12 47 34 111q4 56 -23.5 77t-96.5 21q-80 0 -129 -37t-60 -98l-354 2
q69 389 530 389q206 0 324 -98q150 108 416 108q310 0 422 -160.5t49 -517.5h-734q-21 -143 7.5 -196.5t111.5 -53.5q160 0 195 136h399zM1425 913q-79 0 -127 -47t-81 -164h321q10 125 -15 168t-98 43zM758 319q-9 74 0 160h-88q-98 0 -152.5 -31t-66.5 -102
q-19 -117 92 -117q121 0 215 90z" />
    <glyph glyph-name="ccedilla" unicode="&#xe7;" horiz-adv-x="1314" 
d="M823 -365q-8 -50 -29 -85t-66.5 -63.5t-124.5 -42t-195 -13.5q-77 0 -138 7t-84 14l-22 7l14 156q12 -2 92 -2q74 0 120.5 33t55.5 88q3 16 0.5 28t-13.5 19t-21.5 11t-32.5 6t-38 2.5t-46 0.5h-23l129 181q-211 42 -283 194.5t-26 415.5q26 144 73.5 247t125.5 176.5
t191.5 109.5t267.5 36q152 0 256 -34t159.5 -100.5t73.5 -156t2 -208.5h-395q15 107 -10.5 149.5t-100.5 42.5q-90 0 -143.5 -65t-83.5 -222q-30 -158 -7 -227.5t109 -69.5q75 0 123 38t70 128h401q-25 -102 -60 -177t-90.5 -137t-137 -99.5t-191.5 -51.5l-72 -100
q84 -9 137.5 -67.5t32.5 -168.5z" />
    <glyph glyph-name="egrave" unicode="&#xe8;" horiz-adv-x="1329" 
d="M956 1266h-315l-182 368h366zM1204 369q-17 -67 -44 -123t-75 -110t-112.5 -91t-161.5 -59.5t-217 -22.5q-321 0 -438.5 158.5t-63.5 470.5q35 193 110 315.5t211.5 188t340.5 65.5q310 0 422 -160.5t49 -517.5h-733q-21 -143 7 -196.5t111 -53.5t131.5 38.5t63.5 97.5
h399zM745 913q-79 0 -127 -47t-81 -164h321q10 125 -15 168t-98 43z" />
    <glyph glyph-name="eacute" unicode="&#xe9;" horiz-adv-x="1329" 
d="M637 1266l262 368h385l-313 -368h-334zM1204 369q-17 -67 -44 -123t-75 -110t-112.5 -91t-161.5 -59.5t-217 -22.5q-321 0 -438.5 158.5t-63.5 470.5q35 193 110 315.5t211.5 188t340.5 65.5q310 0 422 -160.5t49 -517.5h-733q-21 -143 7 -196.5t111 -53.5t131.5 38.5
t63.5 97.5h399zM745 913q-79 0 -127 -47t-81 -164h321q10 125 -15 168t-98 43z" />
    <glyph glyph-name="ecircumflex" unicode="&#xea;" horiz-adv-x="1329" 
d="M1249 1260h-309l-111 135l-147 -135h-340l340 364h348zM1204 369q-17 -67 -44 -123t-75 -110t-112.5 -91t-161.5 -59.5t-217 -22.5q-321 0 -438.5 158.5t-63.5 470.5q35 193 110 315.5t211.5 188t340.5 65.5q310 0 422 -160.5t49 -517.5h-733q-21 -143 7 -196.5
t111 -53.5t131.5 38.5t63.5 97.5h399zM745 913q-79 0 -127 -47t-81 -164h321q10 125 -15 168t-98 43z" />
    <glyph glyph-name="edieresis" unicode="&#xeb;" horiz-adv-x="1329" 
d="M367 1260l57 325h377l-58 -325h-376zM864 1260l58 325h376l-57 -325h-377zM1204 369q-17 -67 -44 -123t-75 -110t-112.5 -91t-161.5 -59.5t-217 -22.5q-321 0 -438.5 158.5t-63.5 470.5q35 193 110 315.5t211.5 188t340.5 65.5q310 0 422 -160.5t49 -517.5h-733
q-21 -143 7 -196.5t111 -53.5t131.5 38.5t63.5 97.5h399zM745 913q-79 0 -127 -47t-81 -164h321q10 125 -15 168t-98 43z" />
    <glyph glyph-name="igrave" unicode="&#xec;" horiz-adv-x="677" 
d="M614 1266h-315l-182 368h366zM33 0l200 1126h410l-201 -1126h-409z" />
    <glyph glyph-name="iacute" unicode="&#xed;" horiz-adv-x="677" 
d="M295 1266l262 368h385l-313 -368h-334zM33 0l200 1126h410l-201 -1126h-409z" />
    <glyph glyph-name="icircumflex" unicode="&#xee;" horiz-adv-x="677" 
d="M907 1260h-309l-111 135l-147 -135h-340l340 364h348zM33 0l200 1126h410l-201 -1126h-409z" />
    <glyph glyph-name="idieresis" unicode="&#xef;" horiz-adv-x="677" 
d="M25 1260l57 325h377l-58 -325h-376zM522 1260l58 325h376l-57 -325h-377zM33 0l200 1126h410l-201 -1126h-409z" />
    <glyph glyph-name="eth" unicode="&#xf0;" horiz-adv-x="1349" 
d="M1065 1395q124 -198 175.5 -424t14.5 -449q-48 -285 -204 -422t-455 -137q-324 0 -441 158t-63 471q23 132 69.5 228.5t124.5 167t193.5 105.5t270.5 35q4 0 13 -1t13 -1q-20 49 -53 113l-168 -76l-61 113l161 72q-43 62 -90.5 116t-73.5 78l-26 23l479 -9q18 -20 49 -59
l142 64l65 -105zM844 565q21 122 10 238q-45 53 -117 53q-98 0 -151 -73.5t-84 -250.5q-27 -150 -1 -206t111 -56q101 0 152.5 66.5t79.5 228.5z" />
    <glyph glyph-name="ntilde" unicode="&#xf1;" horiz-adv-x="1376" 
d="M1313 1626q-16 -88 -37 -148.5t-54 -108.5t-82 -71.5t-116 -23.5q-66 0 -116 14.5t-74 32.5t-54 32.5t-61 14.5q-63 0 -105.5 -40.5t-46.5 -70.5l-172 31q32 178 96 265t193 87q54 0 96.5 -9.5t68 -23.5t46.5 -28t44 -23.5t48 -9.5q63 0 106 40.5t50 70.5zM37 0l143 817
l35 309h344l12 -143q23 22 56 45.5t82.5 51.5t114.5 45.5t130 17.5q222 0 290 -131.5t16 -429.5l-105 -582h-407l106 604q19 88 2 135t-86 47q-110 0 -205 -100l-119 -686h-409z" />
    <glyph glyph-name="ograve" unicode="&#xf2;" horiz-adv-x="1349" 
d="M950 1262h-315l-182 368h366zM1255 532q-25 -144 -72.5 -247.5t-125.5 -177t-192 -109t-269 -35.5q-324 0 -441 158t-63 471q26 144 74 247.5t126.5 177t192.5 109.5t269 37q323 0 440 -159t61 -472zM508 567q-32 -175 -9 -236t113 -61q93 0 146.5 64t83.5 223
q32 175 9 237t-114 62q-93 0 -146 -64.5t-83 -224.5z" />
    <glyph glyph-name="oacute" unicode="&#xf3;" horiz-adv-x="1349" 
d="M631 1262l262 368h385l-313 -368h-334zM1255 532q-25 -144 -72.5 -247.5t-125.5 -177t-192 -109t-269 -35.5q-324 0 -441 158t-63 471q26 144 74 247.5t126.5 177t192.5 109.5t269 37q323 0 440 -159t61 -472zM508 567q-32 -175 -9 -236t113 -61q93 0 146.5 64t83.5 223
q32 175 9 237t-114 62q-93 0 -146 -64.5t-83 -224.5z" />
    <glyph glyph-name="ocircumflex" unicode="&#xf4;" horiz-adv-x="1349" 
d="M1243 1255h-309l-111 136l-147 -136h-340l340 365h348zM1255 532q-25 -144 -72.5 -247.5t-125.5 -177t-192 -109t-269 -35.5q-324 0 -441 158t-63 471q26 144 74 247.5t126.5 177t192.5 109.5t269 37q323 0 440 -159t61 -472zM508 567q-32 -175 -9 -236t113 -61
q93 0 146.5 64t83.5 223q32 175 9 237t-114 62q-93 0 -146 -64.5t-83 -224.5z" />
    <glyph glyph-name="otilde" unicode="&#xf5;" horiz-adv-x="1349" 
d="M1292 1622q-16 -88 -37 -148.5t-54 -108.5t-81.5 -71.5t-115.5 -23.5q-54 0 -96.5 9.5t-68.5 23.5t-47.5 28t-44.5 23.5t-49 9.5q-63 0 -104.5 -40.5t-46.5 -70.5l-172 31q32 178 96 265t193 87q54 0 96.5 -9.5t68 -23.5t46.5 -28t44 -23.5t48 -9.5q63 0 105.5 40.5
t49.5 70.5zM1255 532q-25 -144 -72.5 -247.5t-125.5 -177t-192 -109t-269 -35.5q-324 0 -441 158t-63 471q26 144 74 247.5t126.5 177t192.5 109.5t269 37q323 0 440 -159t61 -472zM508 567q-32 -175 -9 -236t113 -61q93 0 146.5 64t83.5 223q32 175 9 237t-114 62
q-93 0 -146 -64.5t-83 -224.5z" />
    <glyph glyph-name="odieresis" unicode="&#xf6;" horiz-adv-x="1349" 
d="M360 1255l58 326h377l-58 -326h-377zM858 1255l57 326h377l-57 -326h-377zM1255 532q-25 -144 -72.5 -247.5t-125.5 -177t-192 -109t-269 -35.5q-324 0 -441 158t-63 471q26 144 74 247.5t126.5 177t192.5 109.5t269 37q323 0 440 -159t61 -472zM508 567
q-32 -175 -9 -236t113 -61q93 0 146.5 64t83.5 223q32 175 9 237t-114 62q-93 0 -146 -64.5t-83 -224.5z" />
    <glyph glyph-name="divide" unicode="&#xf7;" horiz-adv-x="1116" 
d="M395 887l56 317h376l-55 -317h-377zM45 555l43 242h959l-43 -242h-959zM264 147l55 318h377l-55 -318h-377z" />
    <glyph glyph-name="oslash" unicode="&#xf8;" horiz-adv-x="1349" 
d="M-2 -59l162 172q-125 154 -68 479q26 144 74 247.5t126.5 177t192.5 109.5t269 37q208 0 331 -69l95 100h163l-163 -174q133 -150 75 -488q-25 -144 -72.5 -247.5t-125.5 -177t-192 -109t-269 -35.5q-215 0 -344 74l-90 -96h-164zM508 567q-14 -66 -16 -102l339 360
q-27 31 -94 31q-93 0 -146 -64.5t-83 -224.5zM842 557q14 79 16 123l-348 -371q27 -39 102 -39q93 0 146.5 64t83.5 223z" />
    <glyph glyph-name="ugrave" unicode="&#xf9;" horiz-adv-x="1368" 
d="M946 1266h-315l-182 368h366zM801 0l-15 152q-25 -25 -57.5 -50t-81.5 -54t-112 -47.5t-127 -18.5q-219 0 -289.5 127t-22.5 401l113 614h407l-114 -637q-13 -81 1.5 -115t71.5 -34q114 0 220 115l118 673h410l-143 -813l-33 -313h-346z" />
    <glyph glyph-name="uacute" unicode="&#xfa;" horiz-adv-x="1368" 
d="M627 1266l262 368h385l-313 -368h-334zM801 0l-15 152q-25 -25 -57.5 -50t-81.5 -54t-112 -47.5t-127 -18.5q-219 0 -289.5 127t-22.5 401l113 614h407l-114 -637q-13 -81 1.5 -115t71.5 -34q114 0 220 115l118 673h410l-143 -813l-33 -313h-346z" />
    <glyph glyph-name="ucircumflex" unicode="&#xfb;" horiz-adv-x="1368" 
d="M1239 1260h-309l-111 135l-147 -135h-340l340 364h348zM801 0l-15 152q-25 -25 -57.5 -50t-81.5 -54t-112 -47.5t-127 -18.5q-219 0 -289.5 127t-22.5 401l113 614h407l-114 -637q-13 -81 1.5 -115t71.5 -34q114 0 220 115l118 673h410l-143 -813l-33 -313h-346z" />
    <glyph glyph-name="udieresis" unicode="&#xfc;" horiz-adv-x="1368" 
d="M356 1260l58 325h377l-58 -325h-377zM854 1260l57 325h377l-57 -325h-377zM801 0l-15 152q-25 -25 -57.5 -50t-81.5 -54t-112 -47.5t-127 -18.5q-219 0 -289.5 127t-22.5 401l113 614h407l-114 -637q-13 -81 1.5 -115t71.5 -34q114 0 220 115l118 673h410l-143 -813
l-33 -313h-346z" />
    <glyph glyph-name="yacute" unicode="&#xfd;" horiz-adv-x="1230" 
d="M555 1266l262 368h385l-313 -368h-334zM178 -483l213 483h-131l-182 1126h422l45 -782l346 782h424l-766 -1609h-371z" />
    <glyph glyph-name="thorn" unicode="&#xfe;" horiz-adv-x="1374" 
d="M-51 -492l360 2044h408l-86 -487q125 88 287 88q238 0 325.5 -156.5t34.5 -466.5q-51 -288 -174 -422.5t-342 -134.5q-198 0 -303 117l-103 -582h-407zM764 846q-99 0 -189 -98l-71 -398q53 -74 145 -74q167 0 219 279q27 166 4 228.5t-108 62.5z" />
    <glyph glyph-name="ydieresis" unicode="&#xff;" horiz-adv-x="1230" 
d="M285 1260l57 325h377l-57 -325h-377zM782 1260l58 325h377l-58 -325h-377zM178 -483l213 483h-131l-182 1126h422l45 -782l346 782h424l-766 -1609h-371z" />
    <glyph glyph-name="Amacron" unicode="&#x100;" horiz-adv-x="1482" 
d="M588 1876h702l-49 -274h-702zM-137 0l758 1485h501l234 -1485h-447l-22 219h-477l-99 -219h-448zM549 524h307l-55 551z" />
    <glyph glyph-name="amacron" unicode="&#x101;" horiz-adv-x="1314" 
d="M479 1546h703l-43 -241h-703zM752 0l-13 59q-147 -96 -321 -96q-219 0 -318.5 96t-66.5 293q14 76 45.5 134.5t75.5 96.5t103 61.5t123 33.5t140 10q157 0 289 -16l8 47q10 59 10 98.5t-28 58.5t-92 19q-80 0 -129 -37t-60 -98l-354 2q69 389 530 389q91 0 165 -9.5
t129.5 -25.5t96.5 -43t68 -57t42.5 -72t22 -83.5t4 -97t-9 -106t-18.5 -116.5l-39 -226l-35 -315h-368zM543 229q111 0 205 78l28 172q-62 4 -106 4q-191 0 -217 -131q-14 -63 8 -93t82 -30z" />
    <glyph glyph-name="Abreve" unicode="&#x102;" horiz-adv-x="1482" 
d="M1360 1905q-9 -49 -28.5 -94t-55.5 -90.5t-84.5 -78.5t-121.5 -54t-161 -21q-69 0 -126.5 10.5t-98.5 29.5t-73 45t-49.5 56t-29 63.5t-11 67t4.5 66.5h283q-6 -38 26.5 -64t84.5 -26q46 0 93.5 27t53.5 63h293zM-137 0l758 1485h501l234 -1485h-447l-22 219h-477
l-99 -219h-448zM549 524h307l-55 551z" />
    <glyph glyph-name="abreve" unicode="&#x103;" horiz-adv-x="1314" 
d="M1278 1612q-9 -49 -28.5 -96t-57.5 -96t-88.5 -85t-127 -59t-169.5 -23q-72 0 -132.5 12t-102 32.5t-74.5 49t-50.5 60.5t-29.5 67t-11 70t5 68h297q-8 -42 20 -75.5t86 -33.5q55 0 100.5 34.5t53.5 74.5h309zM752 0l-13 59q-147 -96 -321 -96q-219 0 -318.5 96
t-66.5 293q14 76 45.5 134.5t75.5 96.5t103 61.5t123 33.5t140 10q157 0 289 -16l8 47q10 59 10 98.5t-28 58.5t-92 19q-80 0 -129 -37t-60 -98l-354 2q69 389 530 389q91 0 165 -9.5t129.5 -25.5t96.5 -43t68 -57t42.5 -72t22 -83.5t4 -97t-9 -106t-18.5 -116.5l-39 -226
l-35 -315h-368zM543 229q111 0 205 78l28 172q-62 4 -106 4q-191 0 -217 -131q-14 -63 8 -93t82 -30z" />
    <glyph glyph-name="Aogonek" unicode="&#x104;" horiz-adv-x="1482" 
d="M690 -238q23 140 217 248l-20 209h-477l-99 -219h-448l758 1485h501l234 -1485h-139q-15 -9 -33 -22t-49 -39t-53 -59t-27 -66q-6 -31 4 -44.5t41 -13.5q20 0 45.5 8t40.5 16l16 9l-20 -178q-2 -3 -7.5 -8t-25.5 -18.5t-44.5 -23.5t-67.5 -18t-93 -8q-81 0 -137.5 21.5
t-82 56.5t-33.5 72.5t-1 76.5zM549 524h307l-55 551z" />
    <glyph glyph-name="aogonek" unicode="&#x105;" horiz-adv-x="1314" 
d="M530 -238q9 52 40.5 99.5t75 80t64.5 45.5t40 23l-11 49q-147 -96 -321 -96q-219 0 -318.5 96t-66.5 293q14 76 45.5 134.5t75.5 96.5t103 61.5t123 33.5t140 10q157 0 289 -16l8 47q10 59 10 98.5t-28 58.5t-92 19q-80 0 -129 -37t-60 -98l-354 2q69 389 530 389
q91 0 165 -9.5t129.5 -25.5t96.5 -43t68 -57t42.5 -72t22 -83.5t4 -97t-9 -106t-18.5 -116.5l-39 -226l-35 -315h-63q-15 -9 -33 -22t-49 -39t-53 -59t-27 -66q-6 -31 4 -44.5t41 -13.5q20 0 45.5 8t40.5 16l16 9l-20 -178q-2 -3 -7.5 -8t-25.5 -18.5t-44.5 -23.5t-67.5 -18
t-93 -8q-81 0 -137.5 21.5t-82 56.5t-33.5 72.5t-1 76.5zM543 229q111 0 205 78l28 172q-62 4 -106 4q-191 0 -217 -131q-14 -63 8 -93t82 -30z" />
    <glyph glyph-name="Cacute" unicode="&#x106;" horiz-adv-x="1484" 
d="M727 1606l254 313h418l-301 -313h-371zM1360 608q-33 -185 -93 -311.5t-151.5 -201t-205 -106.5t-265.5 -32q-113 0 -202 18.5t-160 58t-117 103.5t-70 153.5t-22.5 209.5t28.5 270q38 215 103 362.5t162.5 234.5t218.5 124t284 37q102 0 183 -13.5t151 -44.5t115.5 -80
t75 -120.5t31 -166t-16.5 -216.5h-405q25 161 -13.5 224t-148.5 63q-116 0 -196.5 -92.5t-125.5 -311.5q-53 -254 -18 -356.5t172 -102.5q57 0 97 12t76 44t61.5 91.5t45.5 151.5z" />
    <glyph glyph-name="cacute" unicode="&#x107;" horiz-adv-x="1314" 
d="M612 1266l262 368h386l-314 -368h-334zM1204 436q-29 -117 -71 -199t-112 -146.5t-177 -96t-254 -31.5q-321 0 -436.5 158t-61.5 471q26 144 73.5 247t125.5 176.5t191.5 109.5t267.5 36q152 0 256 -34t159.5 -100.5t73.5 -156t2 -208.5h-395q15 107 -10.5 149.5
t-100.5 42.5q-90 0 -143.5 -65t-83.5 -222q-30 -158 -7 -227.5t109 -69.5q75 0 123 38t70 128h401z" />
    <glyph glyph-name="Ccircumflex" unicode="&#x108;" horiz-adv-x="1484" 
d="M1370 1606h-311l-111 131l-145 -131h-328l307 329h379zM1360 608q-33 -185 -93 -311.5t-151.5 -201t-205 -106.5t-265.5 -32q-113 0 -202 18.5t-160 58t-117 103.5t-70 153.5t-22.5 209.5t28.5 270q38 215 103 362.5t162.5 234.5t218.5 124t284 37q102 0 183 -13.5
t151 -44.5t115.5 -80t75 -120.5t31 -166t-16.5 -216.5h-405q25 161 -13.5 224t-148.5 63q-116 0 -196.5 -92.5t-125.5 -311.5q-53 -254 -18 -356.5t172 -102.5q57 0 97 12t76 44t61.5 91.5t45.5 151.5z" />
    <glyph glyph-name="ccircumflex" unicode="&#x109;" horiz-adv-x="1314" 
d="M1225 1260h-310l-110 135l-148 -135h-340l340 364h349zM1204 436q-29 -117 -71 -199t-112 -146.5t-177 -96t-254 -31.5q-321 0 -436.5 158t-61.5 471q26 144 73.5 247t125.5 176.5t191.5 109.5t267.5 36q152 0 256 -34t159.5 -100.5t73.5 -156t2 -208.5h-395
q15 107 -10.5 149.5t-100.5 42.5q-90 0 -143.5 -65t-83.5 -222q-30 -158 -7 -227.5t109 -69.5q75 0 123 38t70 128h401z" />
    <glyph glyph-name="Cdotaccent" unicode="&#x10a;" horiz-adv-x="1484" 
d="M713 1606l57 325h410l-58 -325h-409zM1360 608q-33 -185 -93 -311.5t-151.5 -201t-205 -106.5t-265.5 -32q-113 0 -202 18.5t-160 58t-117 103.5t-70 153.5t-22.5 209.5t28.5 270q38 215 103 362.5t162.5 234.5t218.5 124t284 37q102 0 183 -13.5t151 -44.5t115.5 -80
t75 -120.5t31 -166t-16.5 -216.5h-405q25 161 -13.5 224t-148.5 63q-116 0 -196.5 -92.5t-125.5 -311.5q-53 -254 -18 -356.5t172 -102.5q57 0 97 12t76 44t61.5 91.5t45.5 151.5z" />
    <glyph glyph-name="cdotaccent" unicode="&#x10b;" horiz-adv-x="1314" 
d="M575 1264l56 321h411l-57 -321h-410zM1204 436q-29 -117 -71 -199t-112 -146.5t-177 -96t-254 -31.5q-321 0 -436.5 158t-61.5 471q26 144 73.5 247t125.5 176.5t191.5 109.5t267.5 36q152 0 256 -34t159.5 -100.5t73.5 -156t2 -208.5h-395q15 107 -10.5 149.5
t-100.5 42.5q-90 0 -143.5 -65t-83.5 -222q-30 -158 -7 -227.5t109 -69.5q75 0 123 38t70 128h401z" />
    <glyph glyph-name="Ccaron" unicode="&#x10c;" horiz-adv-x="1484" 
d="M1436 1935l-324 -329h-379l-192 329h295l110 -131l146 131h344zM1360 608q-33 -185 -93 -311.5t-151.5 -201t-205 -106.5t-265.5 -32q-113 0 -202 18.5t-160 58t-117 103.5t-70 153.5t-22.5 209.5t28.5 270q38 215 103 362.5t162.5 234.5t218.5 124t284 37
q102 0 183 -13.5t151 -44.5t115.5 -80t75 -120.5t31 -166t-16.5 -216.5h-405q25 161 -13.5 224t-148.5 63q-116 0 -196.5 -92.5t-125.5 -311.5q-53 -254 -18 -356.5t172 -102.5q57 0 97 12t76 44t61.5 91.5t45.5 151.5z" />
    <glyph glyph-name="ccaron" unicode="&#x10d;" horiz-adv-x="1314" 
d="M1296 1624l-346 -364h-348l-201 364h293l111 -127l147 127h344zM1204 436q-29 -117 -71 -199t-112 -146.5t-177 -96t-254 -31.5q-321 0 -436.5 158t-61.5 471q26 144 73.5 247t125.5 176.5t191.5 109.5t267.5 36q152 0 256 -34t159.5 -100.5t73.5 -156t2 -208.5h-395
q15 107 -10.5 149.5t-100.5 42.5q-90 0 -143.5 -65t-83.5 -222q-30 -158 -7 -227.5t109 -69.5q75 0 123 38t70 128h401z" />
    <glyph glyph-name="Dcaron" unicode="&#x10e;" horiz-adv-x="1519" 
d="M1380 1919l-323 -330h-379l-193 330h295l111 -131l145 131h344zM268 1487h480q330 0 491 -81t192.5 -253t-18.5 -440q-21 -117 -44 -202t-57.5 -164t-81 -132t-111.5 -97t-152 -68.5t-199 -38t-256 -13.5h-508zM629 1133l-137 -787h135q88 0 143 16.5t99 63.5t70.5 125.5
t49.5 208.5q17 95 19.5 158.5t-7.5 106.5t-38.5 66.5t-68 32.5t-101.5 9h-164z" />
    <glyph glyph-name="dcaron" unicode="&#x10f;" horiz-adv-x="1372" 
d="M1374 1130l199 426h317l-282 -426h-234zM811 0l-12 125q-132 -152 -342 -152q-241 0 -329 153t-32 462q50 290 173 427.5t343 137.5q189 0 299 -119l90 518h408l-215 -1220l-39 -332h-344zM623 276q83 0 174 95l71 413q-51 62 -125 62q-94 0 -153.5 -68t-85.5 -213
q-29 -166 -3 -227.5t122 -61.5z" />
    <glyph glyph-name="Dcroat" unicode="&#x110;" horiz-adv-x="1519" 
d="M119 645h-121l35 193h119l116 649h480q330 0 491 -81t192.5 -253t-18.5 -440q-21 -117 -44 -202t-57.5 -164t-81 -132t-111.5 -97t-152 -68.5t-199 -38t-256 -13.5h-508zM543 645l-51 -299h135q88 0 143 16.5t99 63.5t70.5 125.5t49.5 208.5q17 95 19.5 158.5t-7.5 106.5
t-38.5 66.5t-68 32.5t-101.5 9h-164l-51 -295h215l-33 -193h-217z" />
    <glyph glyph-name="dcroat" unicode="&#x111;" horiz-adv-x="1372" 
d="M1348 1210l-154 -878l-39 -332h-344l-12 125q-132 -152 -342 -152q-241 0 -329 153t-32 462q50 290 173 427.5t343 137.5q189 0 299 -119l31 176h-223l35 193h221l26 149h408l-27 -149h131l-32 -193h-133zM623 276q83 0 174 95l71 413q-51 62 -125 62q-94 0 -153.5 -68
t-85.5 -213q-29 -166 -3 -227.5t122 -61.5z" />
    <glyph glyph-name="Emacron" unicode="&#x112;" horiz-adv-x="1271" 
d="M504 1876h702l-49 -274h-702zM4 0l262 1485h1051l-60 -334h-632l-43 -248h530l-53 -303h-531l-47 -266h649l-61 -334h-1065z" />
    <glyph glyph-name="emacron" unicode="&#x113;" horiz-adv-x="1329" 
d="M502 1546h702l-43 -241h-702zM1204 369q-17 -67 -44 -123t-75 -110t-112.5 -91t-161.5 -59.5t-217 -22.5q-321 0 -438.5 158.5t-63.5 470.5q35 193 110 315.5t211.5 188t340.5 65.5q310 0 422 -160.5t49 -517.5h-733q-21 -143 7 -196.5t111 -53.5t131.5 38.5t63.5 97.5
h399zM745 913q-79 0 -127 -47t-81 -164h321q10 125 -15 168t-98 43z" />
    <glyph glyph-name="Ebreve" unicode="&#x114;" horiz-adv-x="1271" 
d="M1276 1905q-9 -49 -28.5 -94t-55.5 -90.5t-84.5 -78.5t-121.5 -54t-161 -21q-69 0 -126.5 10.5t-98.5 29.5t-73 45t-49.5 56t-29 63.5t-11 67t4.5 66.5h283q-6 -38 26.5 -64t84.5 -26q46 0 93.5 27t53.5 63h293zM4 0l262 1485h1051l-60 -334h-632l-43 -248h530l-53 -303
h-531l-47 -266h649l-61 -334h-1065z" />
    <glyph glyph-name="ebreve" unicode="&#x115;" horiz-adv-x="1329" 
d="M1300 1612q-9 -49 -28.5 -96t-57.5 -96t-88.5 -85t-127 -59t-169.5 -23q-72 0 -132.5 12t-102 32.5t-74.5 49t-50.5 60.5t-29.5 67t-11 70t5 68h297q-8 -42 20.5 -75.5t86.5 -33.5q55 0 100 34.5t53 74.5h309zM1204 369q-17 -67 -44 -123t-75 -110t-112.5 -91
t-161.5 -59.5t-217 -22.5q-321 0 -438.5 158.5t-63.5 470.5q35 193 110 315.5t211.5 188t340.5 65.5q310 0 422 -160.5t49 -517.5h-733q-21 -143 7 -196.5t111 -53.5t131.5 38.5t63.5 97.5h399zM745 913q-79 0 -127 -47t-81 -164h321q10 125 -15 168t-98 43z" />
    <glyph glyph-name="Edotaccent" unicode="&#x116;" horiz-adv-x="1271" 
d="M600 1589l57 326h410l-57 -326h-410zM4 0l262 1485h1051l-60 -334h-632l-43 -248h530l-53 -303h-531l-47 -266h649l-61 -334h-1065z" />
    <glyph glyph-name="edotaccent" unicode="&#x117;" horiz-adv-x="1329" 
d="M600 1264l55 321h412l-57 -321h-410zM1204 369q-17 -67 -44 -123t-75 -110t-112.5 -91t-161.5 -59.5t-217 -22.5q-321 0 -438.5 158.5t-63.5 470.5q35 193 110 315.5t211.5 188t340.5 65.5q310 0 422 -160.5t49 -517.5h-733q-21 -143 7 -196.5t111 -53.5t131.5 38.5
t63.5 97.5h399zM745 913q-79 0 -127 -47t-81 -164h321q10 125 -15 168t-98 43z" />
    <glyph glyph-name="Eogonek" unicode="&#x118;" horiz-adv-x="1271" 
d="M541 -240q22 137 202 240h-739l262 1485h1051l-60 -334h-632l-43 -248h530l-53 -303h-531l-47 -266h649l-61 -334q-20 -10 -41.5 -24.5t-49 -38t-47.5 -56.5t-26 -69q-6 -31 4 -44.5t41 -13.5q20 0 46 8t42 16l15 9l-21 -178q-2 -3 -7 -8t-25 -18.5t-44.5 -23.5
t-67.5 -18t-93 -8q-81 0 -137.5 21.5t-82 56.5t-33.5 72.5t-1 76.5z" />
    <glyph glyph-name="eogonek" unicode="&#x119;" horiz-adv-x="1329" 
d="M461 -182q13 76 80 147q-290 12 -396 170t-53 457q35 193 110 315.5t211.5 188t340.5 65.5q310 0 422 -160.5t49 -517.5h-733q-21 -143 7 -196.5t111 -53.5t131.5 38.5t63.5 97.5h399q-59 -222 -227 -320q-140 -92 -152 -180q-6 -31 4 -44t41 -13q20 0 46 8t42 16l15 8
l-21 -178q-2 -3 -7 -8t-25 -18.5t-44.5 -23.5t-67.5 -18t-93 -8q-81 0 -137.5 21.5t-82 57t-33.5 72.5t-1 77zM745 913q-79 0 -127 -47t-81 -164h321q10 125 -15 168t-98 43z" />
    <glyph glyph-name="Ecaron" unicode="&#x11a;" horiz-adv-x="1271" 
d="M1323 1919l-324 -330h-378l-193 330h295l111 -131l145 131h344zM4 0l262 1485h1051l-60 -334h-632l-43 -248h530l-53 -303h-531l-47 -266h649l-61 -334h-1065z" />
    <glyph glyph-name="ecaron" unicode="&#x11b;" horiz-adv-x="1329" 
d="M1321 1624l-346 -364h-348l-201 364h293l110 -127l148 127h344zM1204 369q-17 -67 -44 -123t-75 -110t-112.5 -91t-161.5 -59.5t-217 -22.5q-321 0 -438.5 158.5t-63.5 470.5q35 193 110 315.5t211.5 188t340.5 65.5q310 0 422 -160.5t49 -517.5h-733q-21 -143 7 -196.5
t111 -53.5t131.5 38.5t63.5 97.5h399zM745 913q-79 0 -127 -47t-81 -164h321q10 125 -15 168t-98 43z" />
    <glyph glyph-name="Gcircumflex" unicode="&#x11c;" horiz-adv-x="1478" 
d="M1360 1606h-311l-111 131l-145 -131h-328l307 329h379zM1276 203q-1 -3 -12.5 -16.5t-38 -36t-62 -48t-89 -51t-115 -46.5t-144.5 -34.5t-172 -13.5q-138 -1 -239.5 25.5t-176.5 86t-111 154t-42.5 231t28.5 316.5q38 215 102 362t161 234t218.5 124.5t286.5 37.5
q318 0 451 -143.5t80 -448.5l-389 2q33 236 -170 236q-117 0 -198 -92.5t-124 -311.5q-55 -254 -17 -364.5t185 -110.5q103 0 172.5 37.5t73.5 70.5l20 125h-209l46 254h585z" />
    <glyph glyph-name="gcircumflex" unicode="&#x11d;" horiz-adv-x="1441" 
d="M1313 1260h-309l-111 135l-148 -135h-339l339 364h349zM1194 -23q-2 -10 -6 -33q-9 -53 -15 -82t-25.5 -82t-44.5 -85t-71.5 -72.5t-107 -62.5t-151.5 -38t-204 -16q-94 0 -171 13.5t-127.5 36.5t-88.5 52.5t-58 62.5t-32.5 66t-15 62.5t-2 52.5t3.5 36l2 14h405
q0 -2 -3 -16t-4 -21t-1 -21.5t2.5 -23t9 -20t17 -18t28.5 -11t41 -4.5q58 0 96.5 15.5t61.5 50.5t34.5 72.5t23.5 100.5l10 62q-118 -95 -283 -95q-239 0 -326.5 153t-33.5 462q50 289 173.5 427t342.5 138q71 0 130.5 -16.5t99 -44t63 -51t39.5 -48.5l59 133h352l-80 -331z
M684 276q84 0 168 91l74 417q-51 62 -138 62q-170 0 -223 -281q-29 -166 -3 -227.5t122 -61.5z" />
    <glyph glyph-name="Gbreve" unicode="&#x11e;" horiz-adv-x="1478" 
d="M1378 1921q-9 -49 -28 -94t-55 -90.5t-84.5 -78.5t-121.5 -54t-161 -21q-69 0 -126.5 10.5t-98.5 29.5t-73 45t-49.5 56t-29 63.5t-11 67t4.5 66.5h282q-6 -38 26.5 -64t84.5 -26q46 0 93.5 27t53.5 63h293zM1276 203q-1 -3 -12.5 -16.5t-38 -36t-62 -48t-89 -51
t-115 -46.5t-144.5 -34.5t-172 -13.5q-138 -1 -239.5 25.5t-176.5 86t-111 154t-42.5 231t28.5 316.5q38 215 102 362t161 234t218.5 124.5t286.5 37.5q318 0 451 -143.5t80 -448.5l-389 2q33 236 -170 236q-117 0 -198 -92.5t-124 -311.5q-55 -254 -17 -364.5t185 -110.5
q103 0 172.5 37.5t73.5 70.5l20 125h-209l46 254h585z" />
    <glyph glyph-name="gbreve" unicode="&#x11f;" horiz-adv-x="1441" 
d="M1364 1612q-9 -49 -28.5 -96t-57.5 -96t-88.5 -85t-127 -59t-169.5 -23q-72 0 -132.5 12t-102 32.5t-74.5 49t-50.5 60.5t-29.5 67t-11 70t5 68h297q-8 -42 20 -75.5t86 -33.5q55 0 100.5 34.5t53.5 74.5h309zM1194 -23q-2 -10 -6 -33q-9 -53 -15 -82t-25.5 -82
t-44.5 -85t-71.5 -72.5t-107 -62.5t-151.5 -38t-204 -16q-94 0 -171 13.5t-127.5 36.5t-88.5 52.5t-58 62.5t-32.5 66t-15 62.5t-2 52.5t3.5 36l2 14h405q0 -2 -3 -16t-4 -21t-1 -21.5t2.5 -23t9 -20t17 -18t28.5 -11t41 -4.5q58 0 96.5 15.5t61.5 50.5t34.5 72.5
t23.5 100.5l10 62q-118 -95 -283 -95q-239 0 -326.5 153t-33.5 462q50 289 173.5 427t342.5 138q71 0 130.5 -16.5t99 -44t63 -51t39.5 -48.5l59 133h352l-80 -331zM684 276q84 0 168 91l74 417q-51 62 -138 62q-170 0 -223 -281q-29 -166 -3 -227.5t122 -61.5z" />
    <glyph glyph-name="Gdotaccent" unicode="&#x120;" horiz-adv-x="1478" 
d="M702 1606l58 325h409l-57 -325h-410zM1276 203q-1 -3 -12.5 -16.5t-38 -36t-62 -48t-89 -51t-115 -46.5t-144.5 -34.5t-172 -13.5q-138 -1 -239.5 25.5t-176.5 86t-111 154t-42.5 231t28.5 316.5q38 215 102 362t161 234t218.5 124.5t286.5 37.5q318 0 451 -143.5
t80 -448.5l-389 2q33 236 -170 236q-117 0 -198 -92.5t-124 -311.5q-55 -254 -17 -364.5t185 -110.5q103 0 172.5 37.5t73.5 70.5l20 125h-209l46 254h585z" />
    <glyph glyph-name="gdotaccent" unicode="&#x121;" horiz-adv-x="1441" 
d="M664 1264l55 321h411l-57 -321h-409zM1194 -23q-2 -10 -6 -33q-9 -53 -15 -82t-25.5 -82t-44.5 -85t-71.5 -72.5t-107 -62.5t-151.5 -38t-204 -16q-94 0 -171 13.5t-127.5 36.5t-88.5 52.5t-58 62.5t-32.5 66t-15 62.5t-2 52.5t3.5 36l2 14h405q0 -2 -3 -16t-4 -21
t-1 -21.5t2.5 -23t9 -20t17 -18t28.5 -11t41 -4.5q58 0 96.5 15.5t61.5 50.5t34.5 72.5t23.5 100.5l10 62q-118 -95 -283 -95q-239 0 -326.5 153t-33.5 462q50 289 173.5 427t342.5 138q71 0 130.5 -16.5t99 -44t63 -51t39.5 -48.5l59 133h352l-80 -331zM684 276
q84 0 168 91l74 417q-51 62 -138 62q-170 0 -223 -281q-29 -166 -3 -227.5t122 -61.5z" />
    <glyph glyph-name="Gcommaaccent" unicode="&#x122;" horiz-adv-x="1478" 
d="M1276 203q-1 -3 -12.5 -16.5t-38 -36t-62 -48t-89 -51t-115 -46.5t-144.5 -34.5t-172 -13.5q-138 -1 -239.5 25.5t-176.5 86t-111 154t-42.5 231t28.5 316.5q38 215 102 362t161 234t218.5 124.5t286.5 37.5q318 0 451 -143.5t80 -448.5l-389 2q33 236 -170 236
q-117 0 -198 -92.5t-124 -311.5q-55 -254 -17 -364.5t185 -110.5q103 0 172.5 37.5t73.5 70.5l20 125h-209l46 254h585zM264 -674q61 123 129 299q25 64 46 126.5t29 92.5l9 31h359q-47 -155 -131 -321q-42 -83 -81.5 -140t-57.5 -72l-19 -16h-283z" />
    <glyph glyph-name="gcommaaccent" unicode="&#x123;" horiz-adv-x="1441" 
d="M1239 1763q-65 -121 -133 -307q-25 -69 -46.5 -132.5t-30.5 -92.5l-9 -29h-356q4 20 12.5 53.5t42 124.5t76.5 166q46 81 86.5 135.5t57.5 68.5l17 15zM1194 -23q-2 -10 -6 -33q-9 -53 -15 -82t-25.5 -82t-44.5 -85t-71.5 -72.5t-107 -62.5t-151.5 -38t-204 -16
q-94 0 -171 13.5t-127.5 36.5t-88.5 52.5t-58 62.5t-32.5 66t-15 62.5t-2 52.5t3.5 36l2 14h405q0 -2 -3 -16t-4 -21t-1 -21.5t2.5 -23t9 -20t17 -18t28.5 -11t41 -4.5q58 0 96.5 15.5t61.5 50.5t34.5 72.5t23.5 100.5l10 62q-118 -95 -283 -95q-239 0 -326.5 153t-33.5 462
q50 289 173.5 427t342.5 138q71 0 130.5 -16.5t99 -44t63 -51t39.5 -48.5l59 133h352l-80 -331zM684 276q84 0 168 91l74 417q-51 62 -138 62q-170 0 -223 -281q-29 -166 -3 -227.5t122 -61.5z" />
    <glyph glyph-name="Hcircumflex" unicode="&#x124;" horiz-adv-x="1519" 
d="M1350 1589h-312l-110 131l-146 -131h-327l307 330h379zM4 0l262 1485h418l-98 -547h405l99 547h415l-262 -1485h-416l99 565h-406l-98 -565h-418z" />
    <glyph glyph-name="hcircumflex" unicode="&#x125;" horiz-adv-x="1388" 
d="M975 1618h-311l-111 131l-145 -131h-328l307 330h379zM37 0l272 1552h410l-94 -528q163 119 338 119q220 0 290 -128t19 -401l-111 -614h-407l112 637q12 72 -5 110.5t-85 38.5q-113 0 -211 -108l-119 -678h-409z" />
    <glyph glyph-name="Hbar" unicode="&#x126;" horiz-adv-x="1519" 
d="M1442 1133l-199 -1133h-416l99 565h-406l-98 -565h-418l199 1133h-135l28 159h135l35 193h418l-35 -193h406l35 193h415l-35 -193h125l-28 -159h-125zM991 938l35 195h-405l-35 -195h405z" />
    <glyph glyph-name="hbar" unicode="&#x127;" horiz-adv-x="1388" 
d="M659 1217l-34 -193q163 119 338 119q220 0 290 -128t19 -401l-111 -614h-407l112 637q12 72 -5 110.5t-85 38.5q-113 0 -211 -108l-119 -678h-409l213 1217h-131l35 192h129l26 143h410l-27 -143h221l-32 -192h-222z" />
    <glyph glyph-name="Itilde" unicode="&#x128;" horiz-adv-x="698" 
d="M993 1939q-17 -88 -37 -148.5t-53 -109t-82 -71.5t-116 -23q-66 0 -115.5 14.5t-73 32.5t-53.5 32.5t-62 14.5q-65 0 -107 -40t-46 -72l-170 30q32 180 95 267.5t192 87.5q67 0 116.5 -14.5t73 -32.5t53 -32.5t60.5 -14.5q65 0 107.5 40t47.5 70zM4 0l262 1485h418
l-262 -1485h-418z" />
    <glyph glyph-name="itilde" unicode="&#x129;" horiz-adv-x="677" 
d="M956 1626q-16 -88 -37 -148.5t-54 -108.5t-81.5 -71.5t-115.5 -23.5q-54 0 -96.5 9.5t-68.5 23.5t-47.5 28t-44.5 23.5t-49 9.5q-63 0 -104.5 -40.5t-46.5 -70.5l-172 31q32 178 96 265t193 87q54 0 96.5 -9.5t68 -23.5t46.5 -28t44 -23.5t48 -9.5q63 0 105.5 40.5
t49.5 70.5zM33 0l200 1126h410l-201 -1126h-409z" />
    <glyph glyph-name="Imacron" unicode="&#x12a;" horiz-adv-x="698" 
d="M203 1876h702l-49 -274h-702zM4 0l262 1485h418l-262 -1485h-418z" />
    <glyph glyph-name="imacron" unicode="&#x12b;" horiz-adv-x="677" 
d="M160 1546h702l-43 -241h-702zM33 0l200 1126h410l-201 -1126h-409z" />
    <glyph glyph-name="Ibreve" unicode="&#x12c;" horiz-adv-x="698" 
d="M975 1905q-9 -49 -28.5 -94t-55.5 -90.5t-84.5 -78.5t-121.5 -54t-161 -21q-69 0 -126.5 10.5t-98.5 29.5t-73 45t-49.5 56t-29 63.5t-11 67t4.5 66.5h283q-6 -38 26.5 -64t84.5 -26q46 0 93.5 27t53.5 63h293zM4 0l262 1485h418l-262 -1485h-418z" />
    <glyph glyph-name="ibreve" unicode="&#x12d;" horiz-adv-x="677" 
d="M958 1612q-9 -49 -28.5 -96t-57.5 -96t-88.5 -85t-127 -59t-169.5 -23q-72 0 -132.5 12t-102 32.5t-74.5 49t-50.5 60.5t-29.5 67t-11 70t5 68h297q-8 -42 20.5 -75.5t86.5 -33.5q55 0 100 34.5t53 74.5h309zM33 0l200 1126h410l-201 -1126h-409z" />
    <glyph glyph-name="Iogonek" unicode="&#x12e;" horiz-adv-x="698" 
d="M-215 -238q8 44 34 85.5t52 67.5t62.5 51t47.5 31t25 13l260 1475h418l-262 -1485h-111q-14 -8 -32.5 -22t-48.5 -39.5t-52 -58.5t-28 -66q-6 -31 4 -44.5t41 -13.5q20 0 45.5 8t41.5 16l15 9l-21 -178q-2 -3 -7 -8t-25 -18.5t-44.5 -23.5t-67.5 -18t-93 -8
q-81 0 -137.5 21.5t-82 56.5t-33.5 72.5t-1 76.5z" />
    <glyph glyph-name="iogonek" unicode="&#x12f;" horiz-adv-x="677" 
d="M258 1264l55 321h412l-57 -321h-410zM-186 -233q8 44 34.5 86t52.5 67.5t63.5 51t47.5 30.5t23 12l198 1112h410l-201 -1126h-110q-23 -13 -51.5 -35.5t-62.5 -64.5t-40 -82q-6 -31 4 -44.5t41 -13.5q20 0 45.5 8t41.5 16l16 9l-21 -178q-2 -3 -7 -8t-25 -18.5
t-44.5 -23.5t-67.5 -18t-93 -8q-81 0 -137.5 21.5t-82 57t-33.5 72.5t-1 77z" />
    <glyph glyph-name="Idotaccent" unicode="&#x130;" horiz-adv-x="698" 
d="M299 1589l57 326h410l-57 -326h-410zM4 0l262 1485h418l-262 -1485h-418z" />
    <glyph glyph-name="dotlessi" unicode="&#x131;" horiz-adv-x="677" 
d="M33 0l200 1126h410l-201 -1126h-409z" />
    <glyph glyph-name="IJ" unicode="&#x132;" horiz-adv-x="1624" 
d="M4 0l262 1485h418l-262 -1485h-418zM1483 655q-15 -83 -26.5 -140.5t-28.5 -119.5t-34 -102.5t-42.5 -83.5t-55 -69.5t-69.5 -52.5t-88 -40.5t-110 -26t-135 -16t-163 -4.5h-143l63 360h117q135 0 202.5 69t100.5 257l141 799h418z" />
    <glyph glyph-name="ij" unicode="&#x133;" horiz-adv-x="1415" 
d="M258 1264l55 321h412l-57 -321h-410zM993 1264l56 321h411l-57 -321h-410zM33 0l200 1126h410l-201 -1126h-409zM1210 172q-36 -206 -66 -289q-60 -171 -194 -251q-163 -97 -481 -97l35 350q44 0 79.5 4.5t63 16t48 24.5t36.5 36t27 44t20.5 55.5t15 63.5t13.5 74
l164 923h409z" />
    <glyph glyph-name="Jcircumflex" unicode="&#x134;" horiz-adv-x="925" 
d="M1190 1589h-311l-111 131l-145 -131h-328l307 330h379zM784 655q-15 -83 -26.5 -140t-28.5 -119.5t-34 -103t-42.5 -83.5t-54.5 -69.5t-69.5 -52.5t-88 -40.5t-109.5 -26t-135 -16t-163 -4.5h-144l64 360h117q135 0 202.5 69t100.5 257l141 799h418z" />
    <glyph glyph-name="jcircumflex" unicode="&#x135;" horiz-adv-x="694" 
d="M922 1260h-310l-110 135l-148 -135h-340l340 364h348zM489 172q-36 -206 -66 -289q-60 -171 -194 -251q-163 -97 -481 -97l35 350q44 0 79.5 4.5t63 16t48 24.5t36.5 36t27 44t20.5 55.5t15 63.5t13.5 74l164 923h409z" />
    <glyph glyph-name="Kcommaaccent" unicode="&#x136;" horiz-adv-x="1476" 
d="M4 0l262 1485h418l-121 -680l567 680h465l-559 -613l297 -872h-434l-170 537l-264 -287l-43 -250h-418zM268 -666q61 123 129 299q25 64 46 126.5t29 92.5l9 31h359q-47 -155 -131 -321q-42 -83 -81.5 -140t-57.5 -72l-19 -16h-283z" />
    <glyph glyph-name="kcommaaccent" unicode="&#x137;" horiz-adv-x="1286" 
d="M35 0l272 1552h395l-149 -843l354 417h441l-437 -448l254 -678h-444l-105 375l-149 -152l-39 -223h-393zM184 -666q61 123 129 299q25 64 46 126.5t29 92.5l9 31h359q-47 -155 -131 -321q-42 -83 -81.5 -140t-57.5 -72l-19 -16h-283z" />
    <glyph glyph-name="kgreenlandic" unicode="&#x138;" horiz-adv-x="1286" 
d="M35 0l198 1126h394l-74 -419l354 419h441l-437 -448l254 -678h-444l-107 375l-147 -152l-39 -223h-393z" />
    <glyph glyph-name="Lacute" unicode="&#x139;" horiz-adv-x="1083" 
d="M311 1589l254 314h418l-301 -314h-371zM4 0l262 1485h418l-199 -1118h529l-66 -367h-944z" />
    <glyph glyph-name="lacute" unicode="&#x13a;" horiz-adv-x="677" 
d="M336 1647l254 313h418l-301 -313h-371zM35 0l274 1552h408l-275 -1552h-407z" />
    <glyph glyph-name="Lcommaaccent" unicode="&#x13b;" horiz-adv-x="1083" 
d="M4 0l262 1485h418l-199 -1118h529l-66 -367h-944zM53 -666q61 123 129 299q25 64 46 126.5t30 92.5l8 31h359q-47 -155 -131 -321q-42 -83 -81.5 -140t-58.5 -72l-18 -16h-283z" />
    <glyph glyph-name="lcommaaccent" unicode="&#x13c;" horiz-adv-x="677" 
d="M35 0l274 1552h408l-275 -1552h-407zM-174 -666q61 123 129 299q25 64 46 126.5t29 92.5l9 31h358q-47 -155 -131 -321q-26 -52 -52 -94.5t-44 -66.5t-32.5 -40t-21.5 -21l-7 -6h-283z" />
    <glyph glyph-name="Lcaron" unicode="&#x13d;" horiz-adv-x="1083" 
d="M702 1100l224 471h336l-277 -471h-283zM4 0l262 1485h418l-199 -1118h529l-66 -367h-944z" />
    <glyph glyph-name="lcaron" unicode="&#x13e;" horiz-adv-x="677" 
d="M674 1130l198 426h318l-283 -426h-233zM35 0l274 1552h408l-275 -1552h-407z" />
    <glyph glyph-name="Ldot" unicode="&#x13f;" horiz-adv-x="1083" 
d="M4 0l262 1485h418l-199 -1118h529l-66 -367h-944zM625 631l57 325h412l-58 -325h-411z" />
    <glyph glyph-name="ldot" unicode="&#x140;" horiz-adv-x="677" 
d="M35 0l274 1552h408l-275 -1552h-407zM621 588l57 325h412l-58 -325h-411z" />
    <glyph glyph-name="Lslash" unicode="&#x141;" horiz-adv-x="1083" 
d="M559 788l-74 -421h529l-66 -367h-944l102 582l-149 -68l-70 221l267 121l112 629h418l-76 -424l174 80l70 -219z" />
    <glyph glyph-name="lslash" unicode="&#x142;" horiz-adv-x="677" 
d="M35 0l96 541l-156 -70l-69 221l272 123l131 737h408l-96 -536l180 82l69 -219l-297 -136l-131 -743h-407z" />
    <glyph glyph-name="Nacute" unicode="&#x143;" horiz-adv-x="1599" 
d="M745 1589l254 314h418l-301 -314h-371zM549 1008l-156 -1008h-389l264 1485h486l288 -1000l156 1000h387l-262 -1485h-469z" />
    <glyph glyph-name="nacute" unicode="&#x144;" horiz-adv-x="1376" 
d="M651 1266l262 368h385l-313 -368h-334zM37 0l143 817l35 309h344l12 -143q23 22 56 45.5t82.5 51.5t114.5 45.5t130 17.5q222 0 290 -131.5t16 -429.5l-105 -582h-407l106 604q19 88 2 135t-86 47q-110 0 -205 -100l-119 -686h-409z" />
    <glyph glyph-name="Ncommaaccent" unicode="&#x145;" horiz-adv-x="1599" 
d="M549 1008l-156 -1008h-389l264 1485h486l288 -1000l156 1000h387l-262 -1485h-469zM295 -666q61 123 129 299q25 64 46 126.5t30 92.5l8 31h358q-47 -155 -131 -321q-26 -52 -52 -94.5t-44 -66.5t-32.5 -40t-21.5 -21l-7 -6h-283z" />
    <glyph glyph-name="ncommaaccent" unicode="&#x146;" horiz-adv-x="1376" 
d="M37 0l143 817l35 309h344l12 -143q23 22 56 45.5t82.5 51.5t114.5 45.5t130 17.5q222 0 290 -131.5t16 -429.5l-105 -582h-407l106 604q19 88 2 135t-86 47q-110 0 -205 -100l-119 -686h-409zM199 -666q61 123 129 299q25 64 46 126.5t30 92.5l8 31h358
q-47 -155 -131 -321q-42 -83 -81.5 -140t-57.5 -72l-19 -16h-282z" />
    <glyph glyph-name="Ncaron" unicode="&#x147;" horiz-adv-x="1599" 
d="M1454 1919l-324 -330h-378l-193 330h295l111 -131l145 131h344zM549 1008l-156 -1008h-389l264 1485h486l288 -1000l156 1000h387l-262 -1485h-469z" />
    <glyph glyph-name="ncaron" unicode="&#x148;" horiz-adv-x="1376" 
d="M1335 1624l-346 -364h-348l-201 364h293l111 -127l147 127h344zM37 0l143 817l35 309h344l12 -143q23 22 56 45.5t82.5 51.5t114.5 45.5t130 17.5q222 0 290 -131.5t16 -429.5l-105 -582h-407l106 604q19 88 2 135t-86 47q-110 0 -205 -100l-119 -686h-409z" />
    <glyph glyph-name="Eng" unicode="&#x14a;" horiz-adv-x="1597" 
d="M1583 1485l-262 -1485q-10 -57 -24 -104t-39 -98t-58 -91t-82.5 -76.5t-112 -60.5t-147.5 -38.5t-186 -14.5h-125l55 311h100q113 0 181 39t86 133l-430 938l-146 -938h-389l264 1485h434l367 -832l129 832h385z" />
    <glyph glyph-name="eng" unicode="&#x14b;" horiz-adv-x="1386" 
d="M1198 178q-35 -208 -67 -295q-62 -171 -202 -250q-163 -92 -472 -92l32 350q50 0 89 7.5t67.5 18.5t50 34t35.5 44.5t26 60t19 69.5t17 84l71 395q19 88 2 135t-86 47q-118 0 -217 -114l-117 -672h-409l188 1126h334l14 -151q18 19 49 43t82 54.5t120.5 50.5t140.5 20
q222 0 290 -132t15 -429z" />
    <glyph glyph-name="Omacron" unicode="&#x14c;" horiz-adv-x="1521" 
d="M612 1892h703l-49 -274h-703zM1417 713q-38 -215 -103 -361.5t-163 -233.5t-219 -124t-285 -37q-114 0 -203 18.5t-160.5 58t-117.5 103.5t-70 153.5t-22.5 209.5t28.5 270q38 216 103 363t163 234t219 124t285 37q114 0 203 -18.5t160 -58.5t117 -104t70 -154t22.5 -210
t-27.5 -270zM520 770q-53 -254 -18 -356.5t174 -102.5q127 0 204 90.5t121 313.5q51 253 15.5 356t-172.5 103q-118 0 -198.5 -92.5t-125.5 -311.5z" />
    <glyph glyph-name="omacron" unicode="&#x14d;" horiz-adv-x="1349" 
d="M496 1542h702l-43 -242h-702zM1255 532q-25 -144 -72.5 -247.5t-125.5 -177t-192 -109t-269 -35.5q-324 0 -441 158t-63 471q26 144 74 247.5t126.5 177t192.5 109.5t269 37q323 0 440 -159t61 -472zM508 567q-32 -175 -9 -236t113 -61q93 0 146.5 64t83.5 223
q32 175 9 237t-114 62q-93 0 -146 -64.5t-83 -224.5z" />
    <glyph glyph-name="Obreve" unicode="&#x14e;" horiz-adv-x="1521" 
d="M1384 1921q-9 -49 -28 -94t-55 -90.5t-84.5 -78.5t-121.5 -54t-161 -21q-69 0 -126.5 10.5t-98.5 29.5t-73 45t-49.5 56t-29 63.5t-11 67t4.5 66.5h283q-6 -38 26.5 -64t83.5 -26q46 0 94 27t54 63h292zM1417 713q-38 -215 -103 -361.5t-163 -233.5t-219 -124t-285 -37
q-114 0 -203 18.5t-160.5 58t-117.5 103.5t-70 153.5t-22.5 209.5t28.5 270q38 216 103 363t163 234t219 124t285 37q114 0 203 -18.5t160 -58.5t117 -104t70 -154t22.5 -210t-27.5 -270zM520 770q-53 -254 -18 -356.5t174 -102.5q127 0 204 90.5t121 313.5q51 253 15.5 356
t-172.5 103q-118 0 -198.5 -92.5t-125.5 -311.5z" />
    <glyph glyph-name="obreve" unicode="&#x14f;" horiz-adv-x="1349" 
d="M1294 1608q-9 -49 -28.5 -96t-57.5 -96t-88.5 -85t-127 -59t-169.5 -23q-72 0 -132.5 12t-102 32.5t-74.5 49t-50.5 60.5t-29.5 67t-11 70t5 68h297q-8 -42 20 -75.5t86 -33.5q55 0 100.5 34.5t53.5 74.5h309zM1255 532q-25 -144 -72.5 -247.5t-125.5 -177t-192 -109
t-269 -35.5q-324 0 -441 158t-63 471q26 144 74 247.5t126.5 177t192.5 109.5t269 37q323 0 440 -159t61 -472zM508 567q-32 -175 -9 -236t113 -61q93 0 146.5 64t83.5 223q32 175 9 237t-114 62q-93 0 -146 -64.5t-83 -224.5z" />
    <glyph glyph-name="Ohungarumlaut" unicode="&#x150;" horiz-adv-x="1521" 
d="M453 1612l249 311h420l-299 -311h-370zM926 1612l303 311h420l-353 -311h-370zM1417 713q-38 -215 -103 -361.5t-163 -233.5t-219 -124t-285 -37q-114 0 -203 18.5t-160.5 58t-117.5 103.5t-70 153.5t-22.5 209.5t28.5 270q38 216 103 363t163 234t219 124t285 37
q114 0 203 -18.5t160 -58.5t117 -104t70 -154t22.5 -210t-27.5 -270zM520 770q-53 -254 -18 -356.5t174 -102.5q127 0 204 90.5t121 313.5q51 253 15.5 356t-172.5 103q-118 0 -198.5 -92.5t-125.5 -311.5z" />
    <glyph glyph-name="ohungarumlaut" unicode="&#x151;" horiz-adv-x="1349" 
d="M319 1262l261 368h417l-309 -368h-369zM793 1262l315 368h418l-365 -368h-368zM1255 532q-25 -144 -72.5 -247.5t-125.5 -177t-192 -109t-269 -35.5q-324 0 -441 158t-63 471q26 144 74 247.5t126.5 177t192.5 109.5t269 37q323 0 440 -159t61 -472zM508 567
q-32 -175 -9 -236t113 -61q93 0 146.5 64t83.5 223q32 175 9 237t-114 62q-93 0 -146 -64.5t-83 -224.5z" />
    <glyph glyph-name="OE" unicode="&#x152;" horiz-adv-x="2029" 
d="M639 0q-113 0 -200 15.5t-158 51.5t-115.5 95t-68.5 143.5t-22.5 200.5t27.5 264q25 142 61 251t86 188t110.5 132.5t140.5 85t169 45t203 13.5h1203l-60 -334h-633l-43 -248h531l-53 -303h-531l-47 -266h649l-59 -334h-1190zM520 713q-22 -123 -23 -201t20.5 -121
t57.5 -58.5t97 -15.5h147l150 850h-121q-60 0 -107.5 -21t-90 -71t-75.5 -140.5t-55 -221.5z" />
    <glyph glyph-name="oe" unicode="&#x153;" horiz-adv-x="2088" 
d="M1962 371q-17 -67 -43.5 -122.5t-74.5 -110t-112 -92t-161 -60.5t-217 -23q-266 0 -369 115q-127 -115 -389 -115q-324 0 -441 158t-63 471q26 144 74 247.5t126.5 177t192.5 109.5t269 37q267 0 368 -116q126 114 389 114q311 0 423 -160.5t51 -517.5h-734
q-21 -143 6.5 -196.5t110.5 -53.5q162 0 197 136zM1503 913q-78 0 -126 -47.5t-81 -163.5h320q12 125 -13 168t-100 43zM502 532q-27 -149 -7 -205.5t103 -56.5q72 0 117 26t78.5 96.5t54.5 199.5q27 149 7 206.5t-103 57.5q-72 0 -117 -26.5t-78.5 -97.5t-54.5 -200z" />
    <glyph glyph-name="Racute" unicode="&#x154;" horiz-adv-x="1499" 
d="M659 1589l254 314h418l-301 -314h-371zM4 0l264 1487h611q104 0 184.5 -8.5t147.5 -27t113.5 -49.5t78.5 -75t46 -103.5t13 -134.5t-18 -169q-34 -188 -100.5 -292t-188.5 -153l123 -475h-438l-80 420h-264l-74 -420h-418zM625 1151l-70 -397h147q62 0 102.5 3.5t81 16
t65.5 35t44 60.5t29 94q6 35 6 62t-5 47t-19 34t-31 23t-45 13.5t-58 6.5t-73 2h-174z" />
    <glyph glyph-name="racute" unicode="&#x155;" horiz-adv-x="960" 
d="M449 1266l262 368h385l-314 -368h-333zM37 0l139 786l39 340h346l10 -188q18 36 46 69.5t76.5 70t126.5 59t175 22.5l-34 -356q-71 0 -135 -17.5t-107.5 -42.5t-80.5 -59t-57.5 -61t-35.5 -54l-99 -569h-409z" />
    <glyph glyph-name="Rcommaaccent" unicode="&#x156;" horiz-adv-x="1499" 
d="M4 0l264 1487h611q104 0 184.5 -8.5t147.5 -27t113.5 -49.5t78.5 -75t46 -103.5t13 -134.5t-18 -169q-34 -188 -100.5 -292t-188.5 -153l123 -475h-438l-80 420h-264l-74 -420h-418zM625 1151l-70 -397h147q62 0 102.5 3.5t81 16t65.5 35t44 60.5t29 94q6 35 6 62t-5 47
t-19 34t-31 23t-45 13.5t-58 6.5t-73 2h-174zM207 -666q61 123 129 299q25 64 46 126.5t30 92.5l8 31h358q-47 -155 -131 -321q-42 -83 -81.5 -140t-57.5 -72l-19 -16h-282z" />
    <glyph glyph-name="rcommaaccent" unicode="&#x157;" horiz-adv-x="960" 
d="M37 0l139 786l39 340h346l10 -188q18 36 46 69.5t76.5 70t126.5 59t175 22.5l-34 -356q-71 0 -135 -17.5t-107.5 -42.5t-80.5 -59t-57.5 -61t-35.5 -54l-99 -569h-409zM-182 -666q61 123 129 299q25 64 46 126.5t29 92.5l9 31h358q-47 -155 -131 -321q-42 -83 -81.5 -140
t-58.5 -72l-18 -16h-282z" />
    <glyph glyph-name="Rcaron" unicode="&#x158;" horiz-adv-x="1499" 
d="M1368 1919l-324 -330h-378l-193 330h295l111 -131l145 131h344zM4 0l264 1487h611q104 0 184.5 -8.5t147.5 -27t113.5 -49.5t78.5 -75t46 -103.5t13 -134.5t-18 -169q-34 -188 -100.5 -292t-188.5 -153l123 -475h-438l-80 420h-264l-74 -420h-418zM625 1151l-70 -397h147
q62 0 102.5 3.5t81 16t65.5 35t44 60.5t29 94q6 35 6 62t-5 47t-19 34t-31 23t-45 13.5t-58 6.5t-73 2h-174z" />
    <glyph glyph-name="rcaron" unicode="&#x159;" horiz-adv-x="960" 
d="M1133 1624l-347 -364h-348l-200 364h292l111 -127l147 127h345zM37 0l139 786l39 340h346l10 -188q18 36 46 69.5t76.5 70t126.5 59t175 22.5l-34 -356q-71 0 -135 -17.5t-107.5 -42.5t-80.5 -59t-57.5 -61t-35.5 -54l-99 -569h-409z" />
    <glyph glyph-name="Sacute" unicode="&#x15a;" horiz-adv-x="1423" 
d="M668 1606l254 313h417l-301 -313h-370zM1274 408q-39 -227 -206.5 -339t-477.5 -112q-314 0 -455 140t-94 415l401 -2q-21 -115 28 -169t165 -54q87 -2 149 35.5t74 107.5q7 40 -16 70t-67.5 47.5t-104 34.5t-124.5 31.5t-129.5 39t-120 56t-94.5 83t-53 120.5t3 167
q88 451 659 451q324 -1 455.5 -136.5t83.5 -406.5h-396q19 108 -14 157.5t-149 49.5q-103 1 -159.5 -40t-68.5 -105q-7 -41 16 -70.5t67.5 -46.5t103.5 -33.5t124.5 -30.5t130 -37.5t120.5 -54.5t95.5 -82t54.5 -119.5t-1 -166.5z" />
    <glyph glyph-name="sacute" unicode="&#x15b;" horiz-adv-x="1257" 
d="M582 1266l262 368h385l-314 -368h-333zM1147 305q-14 -85 -52 -146.5t-108 -106.5t-180 -67t-262 -22q-287 0 -420.5 112.5t-95.5 319.5h381q-14 -83 23 -125.5t136 -42.5q158 -3 179 109q6 33 -14.5 56t-59.5 35.5t-91 21.5t-109 19t-114 24t-106 39.5t-84.5 62
t-49.5 96t-1 137.5q27 168 166.5 252t414.5 84q286 -1 410 -101.5t90 -301.5l-375 2q10 70 -19 107.5t-124 37.5q-152 0 -172 -108q-5 -30 16 -50.5t61 -31.5t93 -21t111 -19t115.5 -26t107 -41.5t85 -65.5t49 -98.5t-0.5 -140.5z" />
    <glyph glyph-name="Scircumflex" unicode="&#x15c;" horiz-adv-x="1423" 
d="M1311 1606h-312l-110 131l-146 -131h-327l307 329h379zM1274 408q-39 -227 -206.5 -339t-477.5 -112q-314 0 -455 140t-94 415l401 -2q-21 -115 28 -169t165 -54q87 -2 149 35.5t74 107.5q7 40 -16 70t-67.5 47.5t-104 34.5t-124.5 31.5t-129.5 39t-120 56t-94.5 83
t-53 120.5t3 167q88 451 659 451q324 -1 455.5 -136.5t83.5 -406.5h-396q19 108 -14 157.5t-149 49.5q-103 1 -159.5 -40t-68.5 -105q-7 -41 16 -70.5t67.5 -46.5t103.5 -33.5t124.5 -30.5t130 -37.5t120.5 -54.5t95.5 -82t54.5 -119.5t-1 -166.5z" />
    <glyph glyph-name="scircumflex" unicode="&#x15d;" horiz-adv-x="1257" 
d="M1194 1260h-309l-111 135l-147 -135h-340l340 364h348zM1147 305q-14 -85 -52 -146.5t-108 -106.5t-180 -67t-262 -22q-287 0 -420.5 112.5t-95.5 319.5h381q-14 -83 23 -125.5t136 -42.5q158 -3 179 109q6 33 -14.5 56t-59.5 35.5t-91 21.5t-109 19t-114 24t-106 39.5
t-84.5 62t-49.5 96t-1 137.5q27 168 166.5 252t414.5 84q286 -1 410 -101.5t90 -301.5l-375 2q10 70 -19 107.5t-124 37.5q-152 0 -172 -108q-5 -30 16 -50.5t61 -31.5t93 -21t111 -19t115.5 -26t107 -41.5t85 -65.5t49 -98.5t-0.5 -140.5z" />
    <glyph glyph-name="Scedilla" unicode="&#x15e;" horiz-adv-x="1423" 
d="M829 -387q-8 -50 -29 -85t-66.5 -63.5t-124.5 -42.5t-195 -14q-77 0 -138 7t-84 15l-22 7l14 155q12 -2 92 -2q74 0 121 33t56 88q3 16 0 28t-13.5 19t-21.5 11.5t-32.5 6.5t-38.5 2.5t-46 0.5h-22l137 190q-223 35 -319 172.5t-56 370.5l401 -2q-21 -115 28 -169
t165 -54q87 -2 149 35.5t74 107.5q7 40 -16 70t-67.5 47.5t-104 34.5t-124.5 31.5t-129.5 39t-120 56t-94.5 83t-53 120.5t3 167q88 451 659 451q324 -1 455.5 -136.5t83.5 -406.5h-396q19 108 -14 157.5t-149 49.5q-103 1 -159.5 -40t-68.5 -105q-7 -41 16 -70.5
t67.5 -46.5t103.5 -33.5t124.5 -30.5t130 -37.5t120.5 -54.5t95.5 -82t54.5 -119.5t-1 -166.5q-34 -197 -165 -307t-366 -136l-84 -117q38 -4 71 -18.5t61.5 -43t37.5 -71t0 -102.5z" />
    <glyph glyph-name="scedilla" unicode="&#x15f;" horiz-adv-x="1257" 
d="M786 -360q-13 -68 -47.5 -110t-124.5 -68.5t-243 -26.5q-77 0 -138 7t-83 14l-23 7l14 156q12 -2 92 -2q74 0 121 33t56 88q3 16 0 28t-13.5 19t-21.5 11t-33 6t-38 2.5t-46 0.5h-22l122 175q-191 32 -275.5 138.5t-53.5 276.5h381q-14 -83 23 -125.5t136 -42.5
q81 0 124.5 26.5t54.5 82.5q6 33 -14.5 56t-59.5 35.5t-90.5 21.5t-109 19t-114 24t-105.5 39.5t-84.5 62t-50 96t-1.5 137.5q28 168 167 252t414 84q286 -1 410 -101.5t90 -301.5l-375 2q10 70 -19 107.5t-124 37.5q-152 0 -172 -108q-5 -30 16 -50.5t61 -32t92.5 -20.5
t110.5 -19.5t115.5 -25t107 -42t85 -65.5t49.5 -99t0 -140q-26 -151 -133 -233.5t-330 -102.5l-68 -94q38 -4 71.5 -19t60.5 -42t37.5 -72t0.5 -102z" />
    <glyph glyph-name="Scaron" unicode="&#x160;" horiz-adv-x="1423" 
d="M1376 1935l-323 -329h-379l-193 329h295l111 -131l145 131h344zM1274 408q-39 -227 -206.5 -339t-477.5 -112q-314 0 -455 140t-94 415l401 -2q-21 -115 28 -169t165 -54q87 -2 149 35.5t74 107.5q7 40 -16 70t-67.5 47.5t-104 34.5t-124.5 31.5t-129.5 39t-120 56
t-94.5 83t-53 120.5t3 167q88 451 659 451q324 -1 455.5 -136.5t83.5 -406.5h-396q19 108 -14 157.5t-149 49.5q-103 1 -159.5 -40t-68.5 -105q-7 -41 16 -70.5t67.5 -46.5t103.5 -33.5t124.5 -30.5t130 -37.5t120.5 -54.5t95.5 -82t54.5 -119.5t-1 -166.5z" />
    <glyph glyph-name="scaron" unicode="&#x161;" horiz-adv-x="1257" 
d="M1266 1624l-346 -364h-349l-200 364h293l110 -127l148 127h344zM1147 305q-14 -85 -52 -146.5t-108 -106.5t-180 -67t-262 -22q-287 0 -420.5 112.5t-95.5 319.5h381q-14 -83 23 -125.5t136 -42.5q158 -3 179 109q6 33 -14.5 56t-59.5 35.5t-91 21.5t-109 19t-114 24
t-106 39.5t-84.5 62t-49.5 96t-1 137.5q27 168 166.5 252t414.5 84q286 -1 410 -101.5t90 -301.5l-375 2q10 70 -19 107.5t-124 37.5q-152 0 -172 -108q-5 -30 16 -50.5t61 -31.5t93 -21t111 -19t115.5 -26t107 -41.5t85 -65.5t49 -98.5t-0.5 -140.5z" />
    <glyph glyph-name="uni0162" unicode="&#x162;" horiz-adv-x="1183" 
d="M662 -367q-9 -51 -30.5 -85.5t-66.5 -63t-124 -42t-195 -13.5q-77 0 -138 7t-84 14l-22 7l14 156q13 -2 93 -2q74 0 120.5 33t55.5 88q3 16 0 28t-13.5 19t-21.5 11t-33 6t-38 2.5t-46 0.5h-22l143 201l199 1118h-400l66 367h1198l-64 -367h-385l-198 -1118h-84l-94 -131
q38 -4 71.5 -19t60.5 -42t37.5 -72.5t0.5 -102.5z" />
    <glyph glyph-name="uni0163" unicode="&#x163;" horiz-adv-x="821" 
d="M690 -324q-9 -51 -30.5 -85.5t-66.5 -63t-124 -42t-195 -13.5q-77 0 -138 7t-83 14l-22 7l14 156q12 -2 92 -2q74 0 120.5 33t55.5 88q3 16 0.5 28t-13.5 19t-21.5 11t-32.5 6t-38 2.5t-46 0.5h-23l146 201q-71 30 -111.5 78.5t-52.5 119t-7.5 143t23.5 177.5l51 295
h-149l49 270h148l53 297l418 62l-64 -359h223l-49 -270h-221l-53 -309q-23 -127 -3 -170t103 -43h90l-59 -334h-90l-64 -88q38 -4 71.5 -19t60.5 -42t37.5 -72.5t0.5 -102.5z" />
    <glyph glyph-name="Tcaron" unicode="&#x164;" horiz-adv-x="1183" 
d="M1247 1919l-323 -330h-379l-193 330h295l111 -131l145 131h344zM254 0l199 1118h-400l66 367h1198l-64 -367h-385l-198 -1118h-416z" />
    <glyph glyph-name="tcaron" unicode="&#x165;" horiz-adv-x="821" 
d="M709 1202l198 426h318l-283 -426h-233zM674 0h-99q-79 0 -143.5 8.5t-113 23t-84.5 38.5t-60 51.5t-38 66t-19.5 77t-4 89t7.5 98.5t17 109l51 295h-149l49 270h148l53 297l418 62l-64 -359h223l-49 -270h-221l-53 -309q-23 -127 -3 -170t103 -43h90z" />
    <glyph glyph-name="Tbar" unicode="&#x166;" horiz-adv-x="1183" 
d="M254 0l94 535h-178l35 192h178l70 391h-400l66 367h1198l-64 -367h-385l-69 -391h166l-33 -192h-168l-94 -535h-416z" />
    <glyph glyph-name="tbar" unicode="&#x167;" horiz-adv-x="821" 
d="M535 496q-13 -95 10 -128.5t98 -33.5h90l-59 -334h-99q-133 0 -224.5 22.5t-141.5 65t-74.5 103t-23 137.5t13.5 168h-129l35 192h129l28 168h-149l49 270h148l53 297l418 62l-64 -359h223l-49 -270h-221l-29 -168h224l-33 -192h-223z" />
    <glyph glyph-name="Utilde" unicode="&#x168;" horiz-adv-x="1443" 
d="M1350 1939q-16 -88 -37 -148.5t-53.5 -109t-82 -71.5t-116.5 -23q-54 0 -96 9.5t-67.5 23.5t-46 28t-44 23.5t-49.5 9.5q-65 0 -107.5 -40.5t-46.5 -71.5l-170 30q32 180 95 267.5t192 87.5q67 0 116.5 -14.5t73 -32.5t53 -32.5t60.5 -14.5q65 0 108 40.5t48 69.5z
M1309 680q-18 -101 -35.5 -176.5t-41.5 -149.5t-53 -126t-68 -99t-87.5 -77t-111 -52.5t-140 -32.5t-172.5 -10q-195 0 -312.5 46.5t-167.5 140.5t-52 235.5t34 331.5l138 774h415l-135 -772q-14 -82 -21 -138.5t-6.5 -101t8 -71t25.5 -44t43.5 -24t63.5 -6.5q70 0 116.5 33
t82 116.5t61.5 233.5l137 774h420z" />
    <glyph glyph-name="utilde" unicode="&#x169;" horiz-adv-x="1368" 
d="M1288 1626q-16 -88 -37 -148.5t-54 -108.5t-82 -71.5t-116 -23.5q-66 0 -116 14.5t-74 32.5t-54 32.5t-61 14.5q-63 0 -104.5 -40.5t-46.5 -70.5l-172 31q32 178 95.5 265t192.5 87q66 0 116 -14.5t74 -32.5t54 -32.5t60 -14.5q63 0 105.5 40.5t49.5 70.5zM801 0l-15 152
q-25 -25 -57.5 -50t-81.5 -54t-112 -47.5t-127 -18.5q-219 0 -289.5 127t-22.5 401l113 614h407l-114 -637q-13 -81 1.5 -115t71.5 -34q114 0 220 115l118 673h410l-143 -813l-33 -313h-346z" />
    <glyph glyph-name="Umacron" unicode="&#x16a;" horiz-adv-x="1443" 
d="M559 1876h703l-50 -274h-702zM1309 680q-18 -101 -35.5 -176.5t-41.5 -149.5t-53 -126t-68 -99t-87.5 -77t-111 -52.5t-140 -32.5t-172.5 -10q-195 0 -312.5 46.5t-167.5 140.5t-52 235.5t34 331.5l138 774h415l-135 -772q-14 -82 -21 -138.5t-6.5 -101t8 -71t25.5 -44
t43.5 -24t63.5 -6.5q70 0 116.5 33t82 116.5t61.5 233.5l137 774h420z" />
    <glyph glyph-name="umacron" unicode="&#x16b;" horiz-adv-x="1368" 
d="M492 1546h702l-43 -241h-702zM801 0l-15 152q-25 -25 -57.5 -50t-81.5 -54t-112 -47.5t-127 -18.5q-219 0 -289.5 127t-22.5 401l113 614h407l-114 -637q-13 -81 1.5 -115t71.5 -34q114 0 220 115l118 673h410l-143 -813l-33 -313h-346z" />
    <glyph glyph-name="Ubreve" unicode="&#x16c;" horiz-adv-x="1443" 
d="M1331 1905q-9 -49 -28 -94t-55 -90.5t-84.5 -78.5t-121.5 -54t-161 -21q-69 0 -126.5 10.5t-98.5 29.5t-73 45t-49.5 56t-29 63.5t-11 67t4.5 66.5h282q-6 -38 26.5 -64t84.5 -26q46 0 93.5 27t53.5 63h293zM1309 680q-18 -101 -35.5 -176.5t-41.5 -149.5t-53 -126
t-68 -99t-87.5 -77t-111 -52.5t-140 -32.5t-172.5 -10q-195 0 -312.5 46.5t-167.5 140.5t-52 235.5t34 331.5l138 774h415l-135 -772q-14 -82 -21 -138.5t-6.5 -101t8 -71t25.5 -44t43.5 -24t63.5 -6.5q70 0 116.5 33t82 116.5t61.5 233.5l137 774h420z" />
    <glyph glyph-name="ubreve" unicode="&#x16d;" horiz-adv-x="1368" 
d="M1290 1612q-9 -49 -28.5 -96t-57.5 -96t-88.5 -85t-127 -59t-169.5 -23q-72 0 -132.5 12t-102 32.5t-74.5 49t-50.5 60.5t-29.5 67t-11 70t5 68h297q-8 -42 20 -75.5t86 -33.5q55 0 100.5 34.5t53.5 74.5h309zM801 0l-15 152q-25 -25 -57.5 -50t-81.5 -54t-112 -47.5
t-127 -18.5q-219 0 -289.5 127t-22.5 401l113 614h407l-114 -637q-13 -81 1.5 -115t71.5 -34q114 0 220 115l118 673h410l-143 -813l-33 -313h-346z" />
    <glyph glyph-name="Uring" unicode="&#x16e;" horiz-adv-x="1443" 
d="M1178 1810q-20 -115 -97 -171t-200 -56q-140 0 -211 75t-47 212q41 227 299 227q139 0 209.5 -74.5t46.5 -212.5zM831 1833q-4 -30 12.5 -45.5t43.5 -15.5q33 0 55 21t27 54q6 30 -10.5 46t-45.5 16q-33 0 -55 -21.5t-27 -54.5zM1309 680q-18 -101 -35.5 -176.5
t-41.5 -149.5t-53 -126t-68 -99t-87.5 -77t-111 -52.5t-140 -32.5t-172.5 -10q-195 0 -312.5 46.5t-167.5 140.5t-52 235.5t34 331.5l138 774h415l-135 -772q-14 -82 -21 -138.5t-6.5 -101t8 -71t25.5 -44t43.5 -24t63.5 -6.5q70 0 116.5 33t82 116.5t61.5 233.5l137 774
h420z" />
    <glyph glyph-name="uring" unicode="&#x16f;" horiz-adv-x="1368" 
d="M1112 1464q-20 -115 -97 -171t-200 -56q-139 0 -210 75t-48 212q41 227 299 227q138 0 209 -75.5t47 -211.5zM766 1487q-4 -30 12 -46t43 -16q32 0 54 21t30 55q4 31 -12.5 46.5t-44.5 15.5q-31 0 -53.5 -21.5t-28.5 -54.5zM801 0l-15 152q-25 -25 -57.5 -50t-81.5 -54
t-112 -47.5t-127 -18.5q-219 0 -289.5 127t-22.5 401l113 614h407l-114 -637q-13 -81 1.5 -115t71.5 -34q114 0 220 115l118 673h410l-143 -813l-33 -313h-346z" />
    <glyph glyph-name="Uhungarumlaut" unicode="&#x170;" horiz-adv-x="1443" 
d="M399 1595l250 312h420l-299 -312h-371zM872 1595l304 312h419l-352 -312h-371zM1309 680q-18 -101 -35.5 -176.5t-41.5 -149.5t-53 -126t-68 -99t-87.5 -77t-111 -52.5t-140 -32.5t-172.5 -10q-195 0 -312.5 46.5t-167.5 140.5t-52 235.5t34 331.5l138 774h415l-135 -772
q-14 -82 -21 -138.5t-6.5 -101t8 -71t25.5 -44t43.5 -24t63.5 -6.5q70 0 116.5 33t82 116.5t61.5 233.5l137 774h420z" />
    <glyph glyph-name="uhungarumlaut" unicode="&#x171;" horiz-adv-x="1368" 
d="M315 1266l260 368h418l-309 -368h-369zM788 1266l316 368h418l-365 -368h-369zM801 0l-15 152q-25 -25 -57.5 -50t-81.5 -54t-112 -47.5t-127 -18.5q-219 0 -289.5 127t-22.5 401l113 614h407l-114 -637q-13 -81 1.5 -115t71.5 -34q114 0 220 115l118 673h410l-143 -813
l-33 -313h-346z" />
    <glyph glyph-name="Uogonek" unicode="&#x172;" horiz-adv-x="1443" 
d="M516 -172q11 69 64 129q-188 2 -301.5 50t-161.5 142t-49.5 234.5t34.5 327.5l138 774h415l-135 -772q-14 -82 -21 -138.5t-6.5 -101t8 -71t25.5 -44t43.5 -24t63.5 -6.5q70 0 116.5 33t82 116.5t61.5 233.5l137 774h420l-141 -805q-12 -71 -21 -115.5t-26.5 -117
t-39 -124t-51.5 -108.5t-71.5 -100t-91.5 -72q-114 -83 -127 -164q-5 -31 5 -44t40 -13q20 0 45.5 8t40.5 16l16 9l-20 -179q-2 -3 -7.5 -8t-25.5 -18t-44.5 -23t-67.5 -18t-93 -8q-81 0 -137.5 21.5t-82 56.5t-33.5 72.5t-1 76.5z" />
    <glyph glyph-name="uogonek" unicode="&#x173;" horiz-adv-x="1368" 
d="M586 -225q8 49 37 94t66.5 75.5t63.5 47.5t46 26l-13 134q-25 -25 -57.5 -50t-81.5 -54t-112 -47.5t-127 -18.5q-219 0 -289.5 127t-22.5 401l113 614h407l-114 -637q-16 -77 -0.5 -113t73.5 -36q114 0 220 115l118 673h410l-143 -813l-33 -313h-53q-128 -85 -144 -174
q-6 -31 4 -44t41 -13q20 0 45.5 8t41.5 16l16 8l-21 -178q-2 -3 -7 -8t-25 -18.5t-44.5 -23.5t-67.5 -18t-93 -8q-81 0 -137.5 21.5t-82 57t-33.5 72.5t-1 77z" />
    <glyph glyph-name="Wcircumflex" unicode="&#x174;" horiz-adv-x="2209" 
d="M1716 1589h-311l-111 131l-145 -131h-328l307 330h379zM1161 1059l-389 -1059h-522l-105 1485h476l-17 -1079l381 1079h516l-16 -1086l399 1086h449l-654 -1485h-520z" />
    <glyph glyph-name="wcircumflex" unicode="&#x175;" horiz-adv-x="1896" 
d="M1511 1260h-309l-110 135l-148 -135h-340l340 364h348zM969 731l-252 -731h-490l-121 1126h422v-825l289 825h443l6 -837l293 837h430l-512 -1126h-502z" />
    <glyph glyph-name="Ycircumflex" unicode="&#x176;" horiz-adv-x="1345" 
d="M1245 1589h-311l-111 131l-145 -131h-328l307 330h379zM319 0l72 401l-274 1084h454l84 -721l328 721h494l-674 -1088l-72 -397h-412z" />
    <glyph glyph-name="ycircumflex" unicode="&#x177;" horiz-adv-x="1230" 
d="M1167 1260h-309l-110 135l-148 -135h-340l340 364h348zM178 -483l213 483h-131l-182 1126h422l45 -782l346 782h424l-766 -1609h-371z" />
    <glyph glyph-name="Ydieresis" unicode="&#x178;" horiz-adv-x="1345" 
d="M324 1589l57 326h410l-58 -326h-409zM854 1589l57 326h410l-57 -326h-410zM319 0l72 401l-274 1084h454l84 -721l328 721h494l-674 -1088l-72 -397h-412z" />
    <glyph glyph-name="Zacute" unicode="&#x179;" horiz-adv-x="1310" 
d="M606 1589l254 314h418l-301 -314h-371zM-68 2l60 350l760 781h-592l61 350h1125l-60 -350l-768 -781h635l-61 -350h-1160z" />
    <glyph glyph-name="zacute" unicode="&#x17a;" horiz-adv-x="1118" 
d="M518 1266l262 368h385l-313 -368h-334zM-27 2l50 301l577 524h-463l56 297h950l-47 -295l-576 -526l477 2l-53 -303h-971z" />
    <glyph glyph-name="Zdotaccent" unicode="&#x17b;" horiz-adv-x="1310" 
d="M592 1589l57 326h410l-58 -326h-409zM-68 2l60 350l760 781h-592l61 350h1125l-60 -350l-768 -781h635l-61 -350h-1160z" />
    <glyph glyph-name="zdotaccent" unicode="&#x17c;" horiz-adv-x="1118" 
d="M481 1264l56 321h411l-57 -321h-410zM-27 2l50 301l577 524h-463l56 297h950l-47 -295l-576 -526l477 2l-53 -303h-971z" />
    <glyph glyph-name="Zcaron" unicode="&#x17d;" horiz-adv-x="1310" 
d="M1315 1919l-324 -330h-379l-192 330h295l110 -131l146 131h344zM-68 2l60 350l760 781h-592l61 350h1125l-60 -350l-768 -781h635l-61 -350h-1160z" />
    <glyph glyph-name="zcaron" unicode="&#x17e;" horiz-adv-x="1118" 
d="M1202 1624l-346 -364h-348l-201 364h293l111 -127l147 127h344zM-27 2l50 301l577 524h-463l56 297h950l-47 -295l-576 -526l477 2l-53 -303h-971z" />
    <glyph glyph-name="uni018F" unicode="&#x18f;" horiz-adv-x="1509" 
d="M1405 713q-39 -215 -103 -361.5t-161 -233.5t-218 -124t-286 -37q-116 0 -205 18.5t-159.5 60t-114.5 109t-66 163t-18.5 224t32.5 291.5h908q26 190 -15 270.5t-161 80.5q-179 0 -273 -201l-424 -2q78 298 253 427.5t468 129.5q115 0 205 -18.5t160.5 -58.5t115.5 -104
t68.5 -154t21.5 -210t-28 -270zM668 311q57 0 98 11t78.5 41t67 84.5t53.5 138.5h-476q-13 -151 29.5 -213t149.5 -62z" />
    <glyph glyph-name="uni019D" unicode="&#x19d;" horiz-adv-x="1624" 
d="M571 1022l-170 -1022q-14 -82 -36 -146t-68 -129.5t-112 -108.5t-171.5 -70t-242.5 -27h-125l55 309h98q105 0 160 40t72 132l264 1485h483l291 -1002l154 1002h387l-262 -1485h-469z" />
    <glyph glyph-name="Gcaron" unicode="&#x1e6;" horiz-adv-x="1478" 
d="M1425 1935l-323 -329h-379l-193 329h295l111 -131l145 131h344zM1276 203q-1 -3 -12.5 -16.5t-38 -36t-62 -48t-89 -51t-115 -46.5t-144.5 -34.5t-172 -13.5q-138 -1 -239.5 25.5t-176.5 86t-111 154t-42.5 231t28.5 316.5q38 215 102 362t161 234t218.5 124.5
t286.5 37.5q318 0 451 -143.5t80 -448.5l-389 2q33 236 -170 236q-117 0 -198 -92.5t-124 -311.5q-55 -254 -17 -364.5t185 -110.5q103 0 172.5 37.5t73.5 70.5l20 125h-209l46 254h585z" />
    <glyph glyph-name="gcaron" unicode="&#x1e7;" horiz-adv-x="1441" 
d="M1384 1624l-346 -364h-348l-201 364h293l111 -127l147 127h344zM1194 -23q-2 -10 -6 -33q-9 -53 -15 -82t-25.5 -82t-44.5 -85t-71.5 -72.5t-107 -62.5t-151.5 -38t-204 -16q-94 0 -171 13.5t-127.5 36.5t-88.5 52.5t-58 62.5t-32.5 66t-15 62.5t-2 52.5t3.5 36l2 14h405
q0 -2 -3 -16t-4 -21t-1 -21.5t2.5 -23t9 -20t17 -18t28.5 -11t41 -4.5q58 0 96.5 15.5t61.5 50.5t34.5 72.5t23.5 100.5l10 62q-118 -95 -283 -95q-239 0 -326.5 153t-33.5 462q50 289 173.5 427t342.5 138q71 0 130.5 -16.5t99 -44t63 -51t39.5 -48.5l59 133h352l-80 -331z
M684 276q84 0 168 91l74 417q-51 62 -138 62q-170 0 -223 -281q-29 -166 -3 -227.5t122 -61.5z" />
    <glyph glyph-name="uni01EA" unicode="&#x1ea;" horiz-adv-x="1521" 
d="M563 -160q8 59 55 117q-109 3 -194 23t-152.5 60.5t-111 104.5t-66 153t-20.5 207t28 265q38 216 103 363t163 234t219 124t285 37q114 0 203 -18.5t160 -58.5t117 -104t70 -154t22.5 -210t-27.5 -270q-50 -280 -146 -444t-247 -238q-83 -68 -96 -140q-5 -31 5 -44
t40 -13q20 0 45.5 8t41.5 16l15 9l-20 -178q-2 -3 -7.5 -8t-25.5 -18.5t-44.5 -23.5t-67.5 -18t-93 -8q-81 0 -137.5 21.5t-82 56.5t-33.5 72.5t-1 76.5zM520 770q-53 -254 -18 -356.5t174 -102.5q127 0 204 90.5t121 313.5q51 253 15.5 356t-172.5 103q-118 0 -198.5 -92.5
t-125.5 -311.5z" />
    <glyph glyph-name="uni01EB" unicode="&#x1eb;" horiz-adv-x="1349" 
d="M446 -184q14 81 82 149q-285 17 -386 173.5t-50 453.5q26 144 74 247.5t126.5 177t192.5 109.5t269 37q323 0 440 -159t61 -472q-35 -197 -112 -321.5t-213 -185.5q-107 -79 -119 -158q-6 -31 4 -44t41 -13q20 0 45.5 8t40.5 16l16 8l-20 -178q-2 -3 -7.5 -8t-25.5 -18.5
t-44.5 -23.5t-67.5 -18t-93 -8q-81 0 -137.5 21.5t-82 57t-33.5 72.5t-1 77zM508 567q-32 -175 -9 -236t113 -61q93 0 146.5 64t83.5 223q32 175 9 237t-114 62q-93 0 -146 -64.5t-83 -224.5z" />
    <glyph glyph-name="Aringacute" unicode="&#x1fa;" horiz-adv-x="1482" 
d="M803 2185l254 314h418l-301 -314h-371zM1206 1810q-20 -115 -97 -171t-200 -56q-140 0 -211 75t-47 212q41 227 299 227q139 0 209.5 -74.5t46.5 -212.5zM860 1833q-4 -30 12 -45.5t43 -15.5q33 0 55 21t27 54q6 30 -10.5 46t-44.5 16q-33 0 -55 -21.5t-27 -54.5zM-137 0
l758 1485h501l234 -1485h-447l-22 219h-477l-99 -219h-448zM549 524h307l-55 551z" />
    <glyph glyph-name="aringacute" unicode="&#x1fb;" horiz-adv-x="1314" 
d="M715 1817l262 368h385l-313 -368h-334zM1100 1464q-20 -115 -97 -171t-200 -56q-139 0 -210 75t-48 212q41 227 299 227q138 0 209 -75.5t47 -211.5zM754 1487q-4 -30 12 -46t43 -16q32 0 54 21t30 55q4 31 -12.5 46.5t-44.5 15.5q-31 0 -53.5 -21.5t-28.5 -54.5zM752 0
l-13 59q-147 -96 -321 -96q-219 0 -318.5 96t-66.5 293q14 76 45.5 134.5t75.5 96.5t103 61.5t123 33.5t140 10q157 0 289 -16l8 47q10 59 10 98.5t-28 58.5t-92 19q-80 0 -129 -37t-60 -98l-354 2q69 389 530 389q91 0 165 -9.5t129.5 -25.5t96.5 -43t68 -57t42.5 -72
t22 -83.5t4 -97t-9 -106t-18.5 -116.5l-39 -226l-35 -315h-368zM543 229q111 0 205 78l28 172q-62 4 -106 4q-191 0 -217 -131q-14 -63 8 -93t82 -30z" />
    <glyph glyph-name="AEacute" unicode="&#x1fc;" horiz-adv-x="2088" 
d="M901 1589l254 314h418l-301 -314h-371zM-137 0l952 1485h1319l-59 -334h-635l-43 -248h530l-53 -303h-531l-47 -266h650l-60 -334h-1065l45 254h-387l-149 -254h-467zM920 557l108 623l-369 -623h261z" />
    <glyph glyph-name="aeacute" unicode="&#x1fd;" horiz-adv-x="2009" 
d="M989 1266l262 368h385l-313 -368h-334zM1884 369q-17 -67 -44 -123t-75 -110t-112.5 -91t-161.5 -59.5t-217 -22.5q-329 0 -447 168q-175 -160 -407 -160q-220 0 -320 92.5t-67 288.5q17 95 60.5 161.5t110 103.5t143 53t173.5 16h273q12 47 34 111q4 56 -23.5 77
t-96.5 21q-80 0 -129 -37t-60 -98l-354 2q69 389 530 389q206 0 324 -98q150 108 416 108q310 0 422 -160.5t49 -517.5h-734q-21 -143 7.5 -196.5t111.5 -53.5q160 0 195 136h399zM1425 913q-79 0 -127 -47t-81 -164h321q10 125 -15 168t-98 43zM758 319q-9 74 0 160h-88
q-98 0 -152.5 -31t-66.5 -102q-19 -117 92 -117q121 0 215 90z" />
    <glyph glyph-name="Oslashacute" unicode="&#x1fe;" horiz-adv-x="1521" 
d="M647 1589l254 314h418l-301 -314h-371zM-12 -27l162 189q-122 196 -48 608q38 216 103 363t163 234t219 124t285 37q241 0 375 -84l60 67h194l-145 -170q135 -194 61 -628q-38 -215 -103 -361.5t-163 -233.5t-219 -124t-285 -37q-259 0 -393 94l-68 -78h-198zM520 770
q-27 -125 -33 -213l492 573q-47 44 -135 44q-118 0 -198.5 -92.5t-125.5 -311.5zM1001 715q29 145 29 246l-506 -592q46 -58 152 -58q127 0 204 90.5t121 313.5z" />
    <glyph glyph-name="oslashacute" unicode="&#x1ff;" horiz-adv-x="1349" 
d="M631 1262l262 368h385l-313 -368h-334zM-2 -59l162 172q-125 154 -68 479q26 144 74 247.5t126.5 177t192.5 109.5t269 37q208 0 331 -69l95 100h163l-163 -174q133 -150 75 -488q-25 -144 -72.5 -247.5t-125.5 -177t-192 -109t-269 -35.5q-215 0 -344 74l-90 -96h-164z
M508 567q-14 -66 -16 -102l339 360q-27 31 -94 31q-93 0 -146 -64.5t-83 -224.5zM842 557q14 79 16 123l-348 -371q27 -39 102 -39q93 0 146.5 64t83.5 223z" />
    <glyph glyph-name="Scommaaccent" unicode="&#x218;" horiz-adv-x="1423" 
d="M1274 408q-39 -227 -206.5 -339t-477.5 -112q-314 0 -455 140t-94 415l401 -2q-21 -115 28 -169t165 -54q87 -2 149 35.5t74 107.5q7 40 -16 70t-67.5 47.5t-104 34.5t-124.5 31.5t-129.5 39t-120 56t-94.5 83t-53 120.5t3 167q88 451 659 451q324 -1 455.5 -136.5
t83.5 -406.5h-396q19 108 -14 157.5t-149 49.5q-103 1 -159.5 -40t-68.5 -105q-7 -41 16 -70.5t67.5 -46.5t103.5 -33.5t124.5 -30.5t130 -37.5t120.5 -54.5t95.5 -82t54.5 -119.5t-1 -166.5zM215 -688q61 123 129 299q25 64 46 126.5t30 92.5l8 31h358q-47 -156 -131 -322
q-42 -83 -81 -139.5t-58 -71.5l-18 -16h-283z" />
    <glyph glyph-name="scommaaccent" unicode="&#x219;" horiz-adv-x="1257" 
d="M1147 305q-14 -85 -52 -146.5t-108 -106.5t-180 -67t-262 -22q-287 0 -420.5 112.5t-95.5 319.5h381q-14 -83 23 -125.5t136 -42.5q158 -3 179 109q6 33 -14.5 56t-59.5 35.5t-91 21.5t-109 19t-114 24t-106 39.5t-84.5 62t-49.5 96t-1 137.5q27 168 166.5 252t414.5 84
q286 -1 410 -101.5t90 -301.5l-375 2q10 70 -19 107.5t-124 37.5q-152 0 -172 -108q-5 -30 16 -50.5t61 -31.5t93 -21t111 -19t115.5 -26t107 -41.5t85 -65.5t49 -98.5t-0.5 -140.5zM172 -662q61 124 129 300q25 64 46 126.5t29 92.5l9 30h358q-47 -155 -131 -321
q-26 -52 -52 -94.5t-44 -66.5t-32.5 -40t-21.5 -21l-7 -6h-283z" />
    <glyph glyph-name="uni021A" unicode="&#x21a;" horiz-adv-x="1183" 
d="M254 0l199 1118h-400l66 367h1198l-64 -367h-385l-198 -1118h-416zM45 -668q59 125 129 301q25 64 46 126t30 92l8 30h356q-45 -155 -129 -321q-42 -82 -81 -139t-58 -73l-18 -16h-283z" />
    <glyph glyph-name="uni021B" unicode="&#x21b;" horiz-adv-x="821" 
d="M674 0h-99q-79 0 -143.5 8.5t-113 23t-84.5 38.5t-60 51.5t-38 66t-19.5 77t-4 89t7.5 98.5t17 109l51 295h-149l49 270h148l53 297l418 62l-64 -359h223l-49 -270h-221l-53 -309q-23 -127 -3 -170t103 -43h90zM76 -625q61 123 129 299q25 64 46 126.5t29 93.5l9 30h358
q-47 -155 -131 -321q-42 -83 -81.5 -140t-58.5 -73l-18 -15h-282z" />
    <glyph glyph-name="uni0232" unicode="&#x232;" horiz-adv-x="1345" 
d="M492 1876h702l-49 -274h-703zM319 0l72 401l-274 1084h454l84 -721l328 721h494l-674 -1088l-72 -397h-412z" />
    <glyph glyph-name="uni0233" unicode="&#x233;" horiz-adv-x="1230" 
d="M420 1546h702l-43 -241h-702zM178 -483l213 483h-131l-182 1126h422l45 -782l346 782h424l-766 -1609h-371z" />
    <glyph glyph-name="uni0237" unicode="&#x237;" horiz-adv-x="694" 
d="M489 172q-36 -206 -66 -289q-60 -171 -194 -251q-163 -97 -481 -97l35 350q44 0 79.5 4.5t63 16t48 24.5t36.5 36t27 44t20.5 55.5t15 63.5t13.5 74l164 923h409z" />
    <glyph glyph-name="uni0259" unicode="&#x259;" horiz-adv-x="1333" 
d="M1239 537q-26 -144 -74 -248.5t-126.5 -178.5t-192.5 -110.5t-268 -36.5q-319 0 -427.5 157t-46.5 505h730q26 153 -0.5 211.5t-110.5 58.5q-83 0 -132.5 -39t-64.5 -98h-399q17 67 43.5 122t74.5 109.5t113 91t162.5 59.5t218.5 23q320 0 437 -158t63 -468zM588 215
q76 0 122 43t78 150l-317 -2q-9 -113 17.5 -152t99.5 -39z" />
    <glyph glyph-name="uni0272" unicode="&#x272;" horiz-adv-x="1388" 
d="M489 178q-36 -207 -67 -292q-61 -170 -198 -250q-162 -95 -476 -95l35 350q50 0 89 7.5t67.5 18.5t50.5 34t35.5 44.5t25.5 59.5t19 70t16 84l109 608l32 309h344l13 -143q23 22 56 45.5t83 51.5t115 45.5t131 17.5q220 0 287.5 -131.5t15.5 -429.5l-105 -582h-407
l106 604q19 88 2 135t-86 47q-104 0 -202 -98z" />
    <glyph glyph-name="circumflex" unicode="&#x2c6;" horiz-adv-x="1128" 
d="M1069 1260h-309l-111 135l-147 -135h-340l340 364h348z" />
    <glyph glyph-name="caron" unicode="&#x2c7;" horiz-adv-x="1128" 
d="M1069 1624l-346 -364h-348l-201 364h293l111 -127l147 127h344z" />
    <glyph glyph-name="breve" unicode="&#x2d8;" horiz-adv-x="1124" 
d="M944 1612q-9 -49 -28.5 -96t-57.5 -96t-88.5 -85t-127 -59t-169.5 -23q-72 0 -132.5 12t-102 32.5t-74.5 49t-50.5 60.5t-29.5 67t-11 70t5 68h297q-8 -42 20 -75.5t86 -33.5q55 0 100.5 34.5t53.5 74.5h309z" />
    <glyph glyph-name="dotaccent" unicode="&#x2d9;" horiz-adv-x="1114" 
d="M98 1264l56 321h411l-57 -321h-410z" />
    <glyph glyph-name="ring" unicode="&#x2da;" horiz-adv-x="1099" 
d="M684 1464q-20 -115 -97 -171t-200 -56q-139 0 -210 75t-48 212q41 227 299 227q138 0 209 -75.5t47 -211.5zM338 1487q-4 -30 12 -46t43 -16q32 0 54 21t30 55q4 31 -12.5 46.5t-44.5 15.5q-31 0 -53.5 -21.5t-28.5 -54.5z" />
    <glyph glyph-name="ogonek" unicode="&#x2db;" horiz-adv-x="1114" 
d="M113 -223q8 44 33.5 86t57 70.5t61.5 50.5t51 32l20 11l307 -11q-6 -4 -16.5 -10t-37 -26.5t-48 -41.5t-41 -51t-23.5 -59q-6 -31 4 -44t41 -13q20 0 46 8t42 16l15 8l-21 -178q-2 -3 -7 -8t-25 -18.5t-44.5 -23.5t-67.5 -18t-93 -8q-81 0 -137.5 21.5t-82 57t-33.5 72.5
t-1 77z" />
    <glyph glyph-name="tilde" unicode="&#x2dc;" horiz-adv-x="1189" 
d="M1069 1626q-16 -88 -37 -148.5t-54 -108.5t-82 -71.5t-116 -23.5q-66 0 -116 14.5t-74 32.5t-54 32.5t-61 14.5q-63 0 -104.5 -40.5t-46.5 -70.5l-172 31q32 178 95.5 265t192.5 87q54 0 96.5 -9.5t68 -23.5t46.5 -28t44 -23.5t48 -9.5q63 0 106 40.5t50 70.5z" />
    <glyph glyph-name="hungarumlaut" unicode="&#x2dd;" horiz-adv-x="1196" 
d="M109 1266l260 368h417l-309 -368h-368zM582 1266l315 368h418l-365 -368h-368z" />
    <glyph glyph-name="gravecomb" unicode="&#x300;" 
d="M-92 1266h-316l-182 368h367z" />
    <glyph glyph-name="acutecomb" unicode="&#x301;" 
d="M-768 1266l262 368h385l-313 -368h-334z" />
    <glyph glyph-name="uni0302" unicode="&#x302;" 
d="M-172 1260h-309l-111 135l-147 -135h-340l340 364h348z" />
    <glyph glyph-name="tildecomb" unicode="&#x303;" 
d="M-150 1626q-16 -88 -37 -148.5t-54 -108.5t-81.5 -71.5t-115.5 -23.5q-66 0 -116 14.5t-74 32.5t-54 32.5t-61 14.5q-63 0 -105.5 -40.5t-46.5 -70.5l-172 31q32 178 96 265t193 87q54 0 96.5 -9.5t68 -23.5t46.5 -28t44 -23.5t48 -9.5q63 0 106 40.5t50 70.5z" />
    <glyph glyph-name="uni0304" unicode="&#x304;" 
d="M-825 1546h702l-43 -241h-702z" />
    <glyph glyph-name="uni0306" unicode="&#x306;" 
d="M-72 1612q-9 -49 -28.5 -96t-57.5 -96t-88.5 -85t-127 -59t-169.5 -23q-72 0 -132.5 12t-102 32.5t-74.5 49t-50.5 60.5t-29.5 67t-11 70t5 68h297q-8 -42 20 -75.5t86 -33.5q55 0 100.5 34.5t53.5 74.5h309z" />
    <glyph glyph-name="uni0307" unicode="&#x307;" 
d="M-563 1264l55 321h412l-58 -321h-409z" />
    <glyph glyph-name="uni0308" unicode="&#x308;" 
d="M-1063 1260l57 325h377l-57 -325h-377zM-565 1260l57 325h377l-57 -325h-377z" />
    <glyph glyph-name="uni030A" unicode="&#x30a;" 
d="M-115 1464q-20 -115 -97 -171t-200 -56q-139 0 -210 75t-48 212q41 227 299 227q138 0 209 -75.5t47 -211.5zM-461 1487q-4 -30 12 -46t43 -16q32 0 54 21t30 55q4 31 -12.5 46.5t-44.5 15.5q-31 0 -53.5 -21.5t-28.5 -54.5z" />
    <glyph glyph-name="uni030B" unicode="&#x30b;" 
d="M-1315 1266l260 368h418l-309 -368h-369zM-842 1266l316 368h417l-364 -368h-369z" />
    <glyph glyph-name="uni030C" unicode="&#x30c;" 
d="M-172 1624l-346 -364h-348l-201 364h293l110 -127l148 127h344z" />
    <glyph glyph-name="uni0312" unicode="&#x312;" 
d="M-78 1763q-65 -121 -133 -307q-25 -69 -46.5 -132.5t-30.5 -92.5l-9 -29h-356q4 20 12.5 53.5t42 124.5t76.5 166q46 81 86.5 135.5t57.5 68.5l18 15z" />
    <glyph glyph-name="dotbelowcomb" unicode="&#x323;" 
d="M-563 -416l55 320h410l-56 -320h-409z" />
    <glyph glyph-name="uni0326" unicode="&#x326;" 
d="M-666 -666q61 123 129 299q25 64 46 126.5t29 92.5l9 31h359q-47 -155 -131 -321q-42 -83 -81.5 -140t-57.5 -72l-19 -16h-283z" />
    <glyph glyph-name="uni0327" unicode="&#x327;" 
d="M-125 -365q-8 -50 -29.5 -85t-66.5 -63.5t-124.5 -42t-195.5 -13.5q-77 0 -138 7t-83 14l-22 7l14 156q12 -2 92 -2q74 0 120.5 33t55.5 88q3 16 0.5 28t-13.5 19t-21.5 11t-32.5 6t-38 2.5t-46 0.5h-23l146 203h331l-96 -133q84 -9 137.5 -67.5t32.5 -168.5z" />
    <glyph glyph-name="uni0328" unicode="&#x328;" 
d="M-674 -223q8 44 33.5 86t57 70.5t61.5 50.5t50 32l21 11l308 -11q-6 -4 -16.5 -10t-37 -26.5t-48 -41.5t-41 -51t-23.5 -59q-6 -31 4 -44t41 -13q20 0 45.5 8t40.5 16l16 8l-20 -178q-2 -3 -7.5 -8t-25.5 -18.5t-44.5 -23.5t-67.5 -18t-93 -8q-81 0 -137.5 21.5t-82 57
t-33.5 72.5t-1 77z" />
    <glyph glyph-name="uni0335" unicode="&#x335;" 
d="M-868 643l34 193h760l-32 -193h-762z" />
    <glyph glyph-name="uni0336" unicode="&#x336;" 
d="M-1708 659l29 160h1499l-29 -160h-1499z" />
    <glyph glyph-name="uni0337" unicode="&#x337;" 
d="M-967 365l-69 221l895 405l69 -219z" />
    <glyph glyph-name="uni0338" unicode="&#x338;" 
d="M-1237 158l1182 1253h164l-1182 -1253h-164z" />
    <glyph glyph-name="pi" unicode="&#x3c0;" horiz-adv-x="1417" 
d="M1126 922v-437q0 -108 15 -150t71 -42h58v-293h-74q-68 0 -121 7t-93.5 23t-69.5 36t-49 53t-32.5 67t-19 84.5t-8.5 98.5t-2 116v437h-213v-922h-326v922h-160v258h1184v-258h-160z" />
    <glyph glyph-name="Wgrave" unicode="&#x1e80;" horiz-adv-x="2209" 
d="M1430 1595h-349l-194 312h401zM1161 1059l-389 -1059h-522l-105 1485h476l-17 -1079l381 1079h516l-16 -1086l399 1086h449l-654 -1485h-520z" />
    <glyph glyph-name="wgrave" unicode="&#x1e81;" horiz-adv-x="1896" 
d="M1219 1266h-316l-182 368h366zM969 731l-252 -731h-490l-121 1126h422v-825l289 825h443l6 -837l293 837h430l-512 -1126h-502z" />
    <glyph glyph-name="Wacute" unicode="&#x1e82;" horiz-adv-x="2209" 
d="M1073 1589l254 314h418l-301 -314h-371zM1161 1059l-389 -1059h-522l-105 1485h476l-17 -1079l381 1079h516l-16 -1086l399 1086h449l-654 -1485h-520z" />
    <glyph glyph-name="wacute" unicode="&#x1e83;" horiz-adv-x="1896" 
d="M899 1266l262 368h385l-313 -368h-334zM969 731l-252 -731h-490l-121 1126h422v-825l289 825h443l6 -837l293 837h430l-512 -1126h-502z" />
    <glyph glyph-name="Wdieresis" unicode="&#x1e84;" horiz-adv-x="2209" 
d="M795 1589l57 326h410l-58 -326h-409zM1325 1589l57 326h410l-57 -326h-410zM1161 1059l-389 -1059h-522l-105 1485h476l-17 -1079l381 1079h516l-16 -1086l399 1086h449l-654 -1485h-520z" />
    <glyph glyph-name="wdieresis" unicode="&#x1e85;" horiz-adv-x="1896" 
d="M629 1260l57 325h377l-57 -325h-377zM1126 1260l58 325h377l-58 -325h-377zM969 731l-252 -731h-490l-121 1126h422v-825l289 825h443l6 -837l293 837h430l-512 -1126h-502z" />
    <glyph glyph-name="uni1E9E" unicode="&#x1e9e;" horiz-adv-x="1511" 
d="M1409 424q-11 -62 -35.5 -117.5t-74.5 -113t-119.5 -98.5t-177.5 -67t-242 -26h-232l56 342h151q119 0 181 47t77 141q32 166 -155 166q-43 0 -84.5 -6.5t-61.5 -13.5l-20 -6l43 254l6 6l307 256h-217q-99 0 -159.5 -65t-80.5 -173l-168 -950h-409l170 963
q9 55 17.5 94.5t23 88t31.5 82t43.5 71.5t59.5 63.5t79 50.5t101.5 39.5t127.5 23.5t158 9h735l-53 -297l-313 -262q162 -50 216.5 -173t18.5 -329z" />
    <glyph glyph-name="uni1EA0" unicode="&#x1ea0;" horiz-adv-x="1482" 
d="M-137 0l758 1485h501l234 -1485h-447l-22 219h-477l-99 -219h-448zM549 524h307l-55 551zM332 -416l55 320h410l-56 -320h-409z" />
    <glyph glyph-name="uni1EA1" unicode="&#x1ea1;" horiz-adv-x="1314" 
d="M752 0l-13 59q-147 -96 -321 -96q-219 0 -318.5 96t-66.5 293q14 76 45.5 134.5t75.5 96.5t103 61.5t123 33.5t140 10q157 0 289 -16l8 47q10 59 10 98.5t-28 58.5t-92 19q-80 0 -129 -37t-60 -98l-354 2q69 389 530 389q91 0 165 -9.5t129.5 -25.5t96.5 -43t68 -57
t42.5 -72t22 -83.5t4 -97t-9 -106t-18.5 -116.5l-39 -226l-35 -315h-368zM543 229q111 0 205 78l28 172q-62 4 -106 4q-191 0 -217 -131q-14 -63 8 -93t82 -30zM274 -449l56 320h409l-55 -320h-410z" />
    <glyph glyph-name="uni1EB8" unicode="&#x1eb8;" horiz-adv-x="1271" 
d="M4 0l262 1485h1051l-60 -334h-632l-43 -248h530l-53 -303h-531l-47 -266h649l-61 -334h-1065zM270 -416l56 320h409l-55 -320h-410z" />
    <glyph glyph-name="uni1EB9" unicode="&#x1eb9;" horiz-adv-x="1329" 
d="M1204 369q-17 -67 -44 -123t-75 -110t-112.5 -91t-161.5 -59.5t-217 -22.5q-321 0 -438.5 158.5t-63.5 470.5q35 193 110 315.5t211.5 188t340.5 65.5q310 0 422 -160.5t49 -517.5h-733q-21 -143 7 -196.5t111 -53.5t131.5 38.5t63.5 97.5h399zM745 913q-79 0 -127 -47
t-81 -164h321q10 125 -15 168t-98 43zM303 -440l55 319h410l-55 -319h-410z" />
    <glyph glyph-name="uni1EBC" unicode="&#x1ebc;" horiz-adv-x="1271" 
d="M1294 1939q-17 -88 -37 -148.5t-53 -109t-82 -71.5t-116 -23q-66 0 -115.5 14.5t-73 32.5t-53.5 32.5t-62 14.5q-65 0 -107 -40t-46 -72l-170 30q32 180 95 267.5t192 87.5q67 0 116.5 -14.5t73 -32.5t53 -32.5t60.5 -14.5q65 0 107.5 40t47.5 70zM4 0l262 1485h1051
l-60 -334h-632l-43 -248h530l-53 -303h-531l-47 -266h649l-61 -334h-1065z" />
    <glyph glyph-name="uni1EBD" unicode="&#x1ebd;" horiz-adv-x="1329" 
d="M1298 1626q-16 -88 -37 -148.5t-54 -108.5t-81.5 -71.5t-115.5 -23.5q-66 0 -116 14.5t-74 32.5t-54 32.5t-61 14.5q-63 0 -105.5 -40.5t-46.5 -70.5l-172 31q32 178 96 265t193 87q54 0 96.5 -9.5t68 -23.5t46.5 -28t44 -23.5t48 -9.5q63 0 105.5 40.5t49.5 70.5z
M1204 369q-17 -67 -44 -123t-75 -110t-112.5 -91t-161.5 -59.5t-217 -22.5q-321 0 -438.5 158.5t-63.5 470.5q35 193 110 315.5t211.5 188t340.5 65.5q310 0 422 -160.5t49 -517.5h-733q-21 -143 7 -196.5t111 -53.5t131.5 38.5t63.5 97.5h399zM745 913q-79 0 -127 -47
t-81 -164h321q10 125 -15 168t-98 43z" />
    <glyph glyph-name="uni1ECA" unicode="&#x1eca;" horiz-adv-x="698" 
d="M4 0l262 1485h418l-262 -1485h-418zM-66 -432l56 319h409l-55 -319h-410z" />
    <glyph glyph-name="uni1ECB" unicode="&#x1ecb;" horiz-adv-x="677" 
d="M258 1264l55 321h412l-57 -321h-410zM33 0l200 1126h410l-201 -1126h-409zM-41 -416l55 320h410l-55 -320h-410z" />
    <glyph glyph-name="uni1ECC" unicode="&#x1ecc;" horiz-adv-x="1521" 
d="M1417 713q-38 -215 -103 -361.5t-163 -233.5t-219 -124t-285 -37q-114 0 -203 18.5t-160.5 58t-117.5 103.5t-70 153.5t-22.5 209.5t28.5 270q38 216 103 363t163 234t219 124t285 37q114 0 203 -18.5t160 -58.5t117 -104t70 -154t22.5 -210t-27.5 -270zM520 770
q-53 -254 -18 -356.5t174 -102.5q127 0 204 90.5t121 313.5q51 253 15.5 356t-172.5 103q-118 0 -198.5 -92.5t-125.5 -311.5zM348 -449l55 320h410l-55 -320h-410z" />
    <glyph glyph-name="uni1ECD" unicode="&#x1ecd;" horiz-adv-x="1349" 
d="M1255 532q-25 -144 -72.5 -247.5t-125.5 -177t-192 -109t-269 -35.5q-324 0 -441 158t-63 471q26 144 74 247.5t126.5 177t192.5 109.5t269 37q323 0 440 -159t61 -472zM508 567q-32 -175 -9 -236t113 -61q93 0 146.5 64t83.5 223q32 175 9 237t-114 62q-93 0 -146 -64.5
t-83 -224.5zM295 -449l55 320h410l-55 -320h-410z" />
    <glyph glyph-name="uni1EE4" unicode="&#x1ee4;" horiz-adv-x="1443" 
d="M1309 680q-18 -101 -35.5 -176.5t-41.5 -149.5t-53 -126t-68 -99t-87.5 -77t-111 -52.5t-140 -32.5t-172.5 -10q-195 0 -312.5 46.5t-167.5 140.5t-52 235.5t34 331.5l138 774h415l-135 -772q-14 -82 -21 -138.5t-6.5 -101t8 -71t25.5 -44t43.5 -24t63.5 -6.5
q70 0 116.5 33t82 116.5t61.5 233.5l137 774h420zM303 -449l55 320h410l-55 -320h-410z" />
    <glyph glyph-name="uni1EE5" unicode="&#x1ee5;" horiz-adv-x="1368" 
d="M801 0l-15 152q-25 -25 -57.5 -50t-81.5 -54t-112 -47.5t-127 -18.5q-219 0 -289.5 127t-22.5 401l113 614h407l-114 -637q-13 -81 1.5 -115t71.5 -34q114 0 220 115l118 673h410l-143 -813l-33 -313h-346zM293 -449l55 320h410l-56 -320h-409z" />
    <glyph glyph-name="Ygrave" unicode="&#x1ef2;" horiz-adv-x="1345" 
d="M958 1595h-348l-194 312h401zM319 0l72 401l-274 1084h454l84 -721l328 721h494l-674 -1088l-72 -397h-412z" />
    <glyph glyph-name="ygrave" unicode="&#x1ef3;" horiz-adv-x="1230" 
d="M874 1266h-315l-182 368h366zM178 -483l213 483h-131l-182 1126h422l45 -782l346 782h424l-766 -1609h-371z" />
    <glyph glyph-name="uni1EF8" unicode="&#x1ef8;" horiz-adv-x="1345" 
d="M1282 1939q-16 -88 -37 -148.5t-53.5 -109t-82 -71.5t-116.5 -23q-54 0 -96 9.5t-67.5 23.5t-46 28t-44 23.5t-49.5 9.5q-65 0 -107 -40t-46 -72l-170 30q32 180 94.5 267.5t191.5 87.5q67 0 116.5 -14.5t73 -32.5t53 -32.5t60.5 -14.5q65 0 108 40.5t48 69.5zM319 0
l72 401l-274 1084h454l84 -721l328 721h494l-674 -1088l-72 -397h-412z" />
    <glyph glyph-name="uni1EF9" unicode="&#x1ef9;" horiz-adv-x="1230" 
d="M1217 1626q-16 -88 -37 -148.5t-54 -108.5t-82 -71.5t-116 -23.5q-66 0 -116 14.5t-74 32.5t-54 32.5t-61 14.5q-63 0 -105.5 -40.5t-46.5 -70.5l-172 31q32 178 96 265t193 87q54 0 96.5 -9.5t68 -23.5t46.5 -28t44 -23.5t48 -9.5q63 0 106 40.5t50 70.5zM178 -483
l213 483h-131l-182 1126h422l45 -782l346 782h424l-766 -1609h-371z" />
    <glyph glyph-name="uni2009" unicode="&#x2009;" horiz-adv-x="112" 
 />
    <glyph glyph-name="endash" unicode="&#x2013;" horiz-adv-x="1316" 
d="M109 510l53 291h1012l-52 -291h-1013z" />
    <glyph glyph-name="emdash" unicode="&#x2014;" horiz-adv-x="2029" 
d="M133 510l51 291h1678l-52 -291h-1677z" />
    <glyph glyph-name="uni2016" unicode="&#x2016;" horiz-adv-x="1122" 
d="M-37 -369l361 2048h282l-362 -2048h-281zM426 -369l362 2048h283l-362 -2048h-283z" />
    <glyph glyph-name="quoteleft" unicode="&#x2018;" horiz-adv-x="688" 
d="M111 918q3 15 10.5 44t42 123t82.5 193q31 64 62 116t53 80.5t39.5 48.5t26.5 27l9 6h297q-80 -153 -162 -368q-34 -89 -56 -156.5t-27 -90.5l-5 -23h-372z" />
    <glyph glyph-name="quoteright" unicode="&#x2019;" horiz-adv-x="647" 
d="M76 922q82 163 162 378q35 89 57 153t27 83l4 20h374q-28 -123 -137 -346q-31 -63 -61.5 -116t-52 -83.5t-39 -51.5t-26.5 -29l-9 -8h-299z" />
    <glyph glyph-name="quotesinglbase" unicode="&#x201a;" horiz-adv-x="561" 
d="M-178 -309q82 164 162 379q34 90 56 158t27 91l5 23l374 -2q-31 -137 -137 -360q-47 -100 -94.5 -172t-71.5 -94l-24 -23h-297z" />
    <glyph glyph-name="quotedblleft" unicode="&#x201c;" horiz-adv-x="1140" 
d="M111 918q29 137 135 360q31 64 61.5 116t52.5 80.5t40 48.5t27 27l9 6h297q-80 -153 -162 -368q-34 -89 -56 -156.5t-27 -90.5l-5 -23h-372zM563 918q29 137 135 360q31 64 61.5 116t53 80.5t40.5 48.5t27 27l9 6h297q-80 -153 -162 -368q-34 -89 -56 -156.5t-27 -90.5
l-5 -23h-373z" />
    <glyph glyph-name="quotedblright" unicode="&#x201d;" horiz-adv-x="1099" 
d="M76 922q80 163 162 378q36 89 58 153t26 83l4 20h374q-31 -123 -137 -346q-47 -100 -94 -172t-71 -94l-23 -22h-299zM528 922q80 163 162 378q35 89 57 153t27 83l4 20h375q-31 -123 -137 -346q-47 -100 -94.5 -172t-71.5 -94l-23 -22h-299z" />
    <glyph glyph-name="quotedblbase" unicode="&#x201e;" horiz-adv-x="1236" 
d="M43 -317q82 159 162 378q34 90 56 158.5t27 91.5l5 23l375 -2q-3 -16 -10.5 -46t-43 -124.5t-84.5 -190.5q-49 -98 -96.5 -170t-70.5 -95l-23 -23h-297zM496 -317q81 159 161 378q33 90 55 158.5t28 91.5l5 23l375 -2q-3 -16 -10.5 -46t-42.5 -124.5t-84 -190.5
q-49 -98 -96.5 -170t-70.5 -95l-23 -23h-297z" />
    <glyph glyph-name="dagger" unicode="&#x2020;" horiz-adv-x="1046" 
d="M156 1257h286l66 367h283l-66 -367h291l-43 -241h-291l-178 -1016h-281l178 1016h-288z" />
    <glyph glyph-name="daggerdbl" unicode="&#x2021;" horiz-adv-x="1159" 
d="M238 1257h286l66 367h282l-65 -367h289l-43 -241h-289l-72 -410h289l-43 -241h-289l-63 -365h-283l64 365h-287l43 241h287l71 410h-286z" />
    <glyph glyph-name="bullet" unicode="&#x2022;" horiz-adv-x="1097" 
d="M219 383l82 469h485l-81 -469h-486z" />
    <glyph glyph-name="ellipsis" unicode="&#x2026;" horiz-adv-x="1691" 
d="M-49 0l61 342h412l-62 -342h-411zM512 0l61 342h412l-61 -342h-412zM1073 0l62 342h409l-61 -342h-410z" />
    <glyph glyph-name="perthousand" unicode="&#x2030;" horiz-adv-x="2668" 
d="M836 1065q-32 -181 -127 -266.5t-295 -85.5q-217 0 -297 104t-43 305q32 184 128.5 271.5t295.5 87.5q218 0 296.5 -105.5t41.5 -310.5zM131 0l1196 1438h385l-1196 -1438h-385zM324 1065q-13 -74 6 -110.5t86 -36.5q68 0 108 46.5t60 157.5q13 77 -3.5 116.5t-82.5 39.5
q-68 0 -110.5 -50t-63.5 -163zM1761 305q-32 -181 -127 -265.5t-293 -84.5q-219 0 -298 103t-44 304q32 185 129 273t297 88q217 0 295 -106.5t41 -311.5zM2601 305q-32 -181 -127 -265.5t-293 -84.5q-219 0 -298 103t-44 304q32 185 129 273t297 88q216 0 293.5 -106.5
t42.5 -311.5zM1247 305q-13 -73 6 -109t86 -36q69 0 109.5 46t60.5 156q6 48 4 82.5t-24.5 54t-67.5 19.5q-68 0 -110.5 -50t-63.5 -163zM2087 305q-13 -73 6 -109t86 -36q69 0 109.5 46t60.5 156q6 48 4 82.5t-24.5 54t-67.5 19.5q-68 0 -110.5 -50t-63.5 -163z" />
    <glyph glyph-name="guilsinglleft" unicode="&#x2039;" horiz-adv-x="1030" 
d="M287 156l-176 366l4 62l305 381h442l-360 -418l225 -391h-440z" />
    <glyph glyph-name="guilsinglright" unicode="&#x203a;" horiz-adv-x="978" 
d="M512 156h-444l358 403l-221 406h424l188 -381l-4 -62z" />
    <glyph glyph-name="fraction" unicode="&#x2044;" horiz-adv-x="776" 
d="M-373 -82l1184 1620h319l-1181 -1620h-322z" />
    <glyph glyph-name="uni2070" unicode="&#x2070;" horiz-adv-x="1171" 
d="M1167 1096q-29 -167 -76.5 -278t-119.5 -173.5t-158.5 -87.5t-208.5 -25q-87 0 -153.5 13t-120.5 42t-88 77t-52 116.5t-16 162t23 212.5q30 168 77 278t119 172t159 86.5t210 24.5q86 0 152.5 -13t120.5 -42t88 -76.5t51.5 -115.5t15.5 -161.5t-23 -211.5zM522 1096
q-17 -89 -19.5 -145.5t11 -87t37.5 -41.5t65 -11q38 0 68 14t60 50.5t54.5 106t43.5 173.5q17 90 19.5 146t-11 86.5t-37 41.5t-65.5 11q-37 0 -67 -14t-59.5 -50.5t-54.5 -106t-45 -173.5z" />
    <glyph glyph-name="uni2074" unicode="&#x2074;" horiz-adv-x="1073" 
d="M588 557l28 168h-561l41 248l551 717h463l-127 -717h123l-45 -248h-121l-29 -168h-323zM662 973l81 461l-325 -461h244z" />
    <glyph glyph-name="uni2075" unicode="&#x2075;" horiz-adv-x="1060" 
d="M616 1436l-59 -183q78 47 186 47q72 0 128 -16t91.5 -45.5t59 -67t33 -83.5t9.5 -93t-9 -98q-65 -365 -504 -365q-81 0 -148 12t-113 33t-81.5 49.5t-54 61.5t-30.5 68t-10.5 69.5t5.5 67.5h346q-4 -9 0 -25.5t11 -32.5t30 -28t57 -12q64 0 106.5 46.5t53.5 112.5
q9 58 -11.5 91.5t-86.5 33.5q-56 0 -96 -24t-52 -45l-315 2l209 678h757l-47 -269z" />
    <glyph glyph-name="uni2076" unicode="&#x2076;" horiz-adv-x="1134" 
d="M1124 893q-58 -359 -516 -361q-189 -1 -292.5 63.5t-128 190.5t7.5 312q42 239 109.5 372.5t176 190.5t285.5 57q84 0 153 -14.5t114.5 -40t79.5 -60t48.5 -74t20.5 -81.5t-4 -84h-326q8 43 -9.5 74.5t-78.5 31.5q-63 0 -111 -51.5t-86 -179.5q90 49 207 49q90 0 158 -21
t108.5 -58t65 -87t26 -108t-7.5 -121zM694 1079q-93 0 -180 -71q-18 -122 1 -174t85 -52q77 0 124.5 50t59.5 116q12 72 -8.5 101.5t-81.5 29.5z" />
    <glyph glyph-name="uni2077" unicode="&#x2077;" horiz-adv-x="888" 
d="M166 557q23 129 80.5 267.5t123.5 244t128.5 192.5t103.5 133l41 46l-518 -27l49 275h862l-47 -258q-17 -19 -45 -53t-102.5 -137t-135.5 -203t-119.5 -233.5t-78.5 -246.5h-342z" />
    <glyph glyph-name="uni2078" unicode="&#x2078;" horiz-adv-x="1089" 
d="M557 532q-116 0 -201.5 17t-137.5 49.5t-81 79t-33 104.5t7 127q12 65 43 118t69 82t71.5 44.5t57.5 17.5q-11 4 -30.5 19.5t-44.5 45t-37.5 80t-1.5 109.5q10 55 29 98t55 80.5t88 62t129.5 38.5t177.5 14q89 0 159 -12t117 -34t79.5 -53t46.5 -70t17.5 -84.5
t-6.5 -96.5q-9 -51 -34 -92t-56 -63t-57 -33t-45 -13q16 -3 42 -23.5t54 -57t42 -99t1 -135.5q-11 -64 -32 -111.5t-59.5 -88.5t-95.5 -66.5t-140 -39.5t-193 -14zM719 1507q-64 0 -105 -45.5t-55 -126.5q-10 -46 8.5 -70t75.5 -24q63 0 105 43t53 109q11 62 -6.5 88
t-75.5 26zM643 1075q-71 0 -115 -51.5t-59 -130.5q-8 -59 10.5 -91t79.5 -32q70 0 114.5 51.5t57.5 128.5q10 59 -7.5 92t-80.5 33z" />
    <glyph glyph-name="uni2079" unicode="&#x2079;" horiz-adv-x="1140" 
d="M1141 1145q-32 -184 -73.5 -298t-110 -186.5t-161.5 -100.5t-235 -28q-79 0 -144.5 11t-111.5 30t-81.5 45.5t-55 58t-32.5 66t-12 70.5t5 72h326q-6 -42 14 -73.5t84 -31.5q72 0 121.5 47t87.5 168q-87 -51 -193 -51q-101 0 -174 20t-114.5 56.5t-63 87.5t-20.5 113.5
t12 134.5q13 73 43.5 133.5t88 114t155.5 84t229 30.5q190 0 293.5 -64.5t129.5 -191.5t-7 -317zM639 1151q90 0 174 76q23 129 6 185t-86 56q-76 0 -124 -50t-58 -115q-14 -83 8 -117.5t80 -34.5z" />
    <glyph glyph-name="Euro" unicode="&#x20ac;" horiz-adv-x="1456" 
d="M580 463q-2 -101 36 -147t129 -46q74 0 123.5 29.5t59.5 81.5h342q-48 -219 -185.5 -327.5t-379.5 -108.5q-295 0 -418 124t-117 394h-141l32 190h127q4 33 15 92l4 29h-125l35 189h133q51 187 132 301t214 171.5t330 57.5q260 0 378.5 -118.5t84.5 -344.5h-342
q10 58 -22 97.5t-103 39.5q-84 0 -143 -50.5t-101 -153.5h432l-35 -189h-452q-15 -74 -17 -86l-6 -35h455l-33 -190h-442z" />
    <glyph glyph-name="uni20BD" unicode="&#x20bd;" horiz-adv-x="1572" 
d="M145 0l39 217h-155l43 242h155l21 121h-156l49 278h156l109 610h485q108 0 192.5 -5t157.5 -16.5t126 -29.5t94 -45.5t65 -63t36 -83t11 -105t-14 -129.5q-16 -90 -41.5 -153t-70 -110t-100.5 -75t-146 -44.5t-192 -22.5t-251 -6h-92l-21 -121h330l-45 -242h-328
l-39 -217h-418zM774 1192l-59 -336h121q133 0 207.5 39.5t93.5 140.5q9 51 1 82t-38.5 47.5t-71 21.5t-108.5 5h-146z" />
    <glyph glyph-name="uni2116" unicode="&#x2116;" horiz-adv-x="2801" 
d="M2599 973q-21 -119 -57.5 -202t-99 -143.5t-157 -89t-225.5 -28.5q-140 0 -232.5 34.5t-138 101t-56 163.5t13.5 221q20 118 56 201t98 144t156.5 90.5t225.5 29.5q140 0 233 -35t138.5 -102t57 -164t-12.5 -221zM4 0l264 1485h432l344 -903l160 903h338l-262 -1485h-430
l-344 899l-160 -899h-342zM1980 973q-23 -123 -5.5 -170t93.5 -47q75 0 122.5 62t74.5 212q23 123 4 170t-94 47q-76 0 -122 -61.5t-73 -212.5zM1499 55l55 310h920l-55 -310h-920z" />
    <glyph glyph-name="uni2117" unicode="&#x2117;" horiz-adv-x="1714" 
d="M1628 684q-16 -134 -55 -247t-109 -210t-166.5 -164t-231.5 -105t-300 -38q-122 0 -223 21t-175 60.5t-130.5 96t-90 126t-53.5 152t-20.5 174t8.5 191.5q15 133 55 247.5t110 212.5t167 167.5t231.5 108.5t296.5 39q144 0 258.5 -29.5t192.5 -83.5t132.5 -130t79 -168.5
t32 -199t-8.5 -221.5zM266 684q-11 -84 -5 -161t23.5 -143.5t57 -120.5t96 -92.5t141 -59.5t191.5 -21q137 0 246 33.5t183.5 91.5t127 142t80 179t37.5 209q60 609 -508 609q-135 0 -243 -35t-181.5 -94.5t-126 -146t-80 -182t-39.5 -208.5zM440 272l160 902h375
q215 0 293.5 -83.5t42.5 -287.5q-14 -79 -35.5 -131t-53.5 -87.5t-83.5 -54t-113 -25.5t-155.5 -7h-129l-39 -226h-262zM823 965l-45 -260h84q85 0 129 26t60 105q13 76 -12.5 102.5t-104.5 26.5h-111z" />
    <glyph glyph-name="uni2120" unicode="&#x2120;" horiz-adv-x="1804" 
d="M725 954q-19 -105 -90.5 -152.5t-228.5 -47.5q-171 0 -238.5 61.5t-42.5 198.5h197q-10 -59 9.5 -80t78.5 -21q85 -3 98 64q6 27 -11.5 44t-50 26t-72 18t-77.5 26t-67.5 43t-42.5 75.5t-1 117.5q18 93 87.5 139.5t213.5 46.5q166 -2 232 -60.5t43 -184.5h-193
q8 46 -8 66t-63 20q-41 0 -69 -17t-34 -47q-5 -24 13.5 -40.5t51 -26.5t72.5 -20t78.5 -27.5t68.5 -42.5t43.5 -71t2.5 -108zM778 772l127 721h305l31 -516l211 516h317l-129 -721h-196l106 504l-235 -504h-217l-49 543l-76 -543h-195z" />
    <glyph glyph-name="trademark" unicode="&#x2122;" horiz-adv-x="1642" 
d="M231 774l93 529h-174l32 190h561l-32 -190h-174l-93 -529h-213zM684 772l129 721h303l31 -514l211 514h317l-129 -721h-196l106 502l-233 -502h-217l-50 545l-77 -545h-195z" />
    <glyph glyph-name="oneeighth" unicode="&#x215b;" horiz-adv-x="2502" 
d="M96 420l137 811l-190 -70l45 269l336 124h194l-200 -1134h-322zM274 -82l1184 1620h320l-1182 -1620h-322zM1872 -25q-116 0 -201.5 17t-137.5 49.5t-81.5 79t-33.5 104.5t7 127q12 65 43.5 118t69.5 82t71.5 44.5t57.5 17.5q-8 3 -22 12.5t-35 30.5t-36 50t-24 70t2 91
q12 70 41 121t82.5 91t143 60.5t213.5 20.5q89 0 159 -12t117 -34t79.5 -53t46.5 -70t17.5 -84.5t-6.5 -96.5q-9 -51 -34 -92t-56 -63t-57 -33t-45 -13q16 -3 42 -23.5t54 -57t42 -99t1 -135.5q-11 -64 -32 -111.5t-59.5 -88.5t-95.5 -66.5t-140 -39.5t-193 -14zM2034 950
q-64 0 -105 -45.5t-55 -126.5q-10 -46 8.5 -70t75.5 -24q63 0 105 43t53 109q11 62 -6.5 88t-75.5 26zM1958 518q-71 0 -115 -51.5t-59 -130.5q-8 -59 10.5 -91t79.5 -32q70 0 114.5 51.5t57.5 128.5q10 59 -7.5 92t-80.5 33z" />
    <glyph glyph-name="threeeighths" unicode="&#x215c;" horiz-adv-x="2824" 
d="M725 1112q123 -40 164.5 -131.5t15.5 -237.5q-9 -55 -28.5 -102t-58 -93.5t-91.5 -79.5t-135 -53t-184 -20q-91 0 -163 15.5t-118 43t-78 66t-44 84.5t-14.5 98t9.5 107h328q-26 -139 86 -139q62 0 103 46t52 113q11 65 -18 99.5t-117 34.5q-41 0 -75 -5.5t-48 -11.5
l-14 -6l22 176l271 172l-473 -20l49 284h864l-43 -245zM596 -82l1184 1620h319l-1181 -1620h-322zM2193 -25q-116 0 -201.5 17t-137.5 49.5t-81 79t-33 104.5t7 127q12 65 43.5 118t69.5 82t71.5 44.5t57.5 17.5q-8 3 -22 12.5t-35 30.5t-36 50t-24 70t2 91q10 55 29 98
t55 80.5t88 62t129.5 38.5t177.5 14q106 0 185.5 -17t127 -48t75 -74.5t31.5 -96.5t-5 -114q-7 -42 -25.5 -77t-40.5 -56.5t-47.5 -37t-45 -22.5t-34.5 -8q12 -2 31.5 -15t43.5 -38.5t41.5 -62t26.5 -87t-3 -112.5q-11 -64 -32 -111.5t-59.5 -88.5t-95.5 -66.5t-140.5 -39.5
t-193.5 -14zM2355 950q-64 0 -105 -45.5t-55 -126.5q-10 -46 8.5 -70t75.5 -24q63 0 105 43t53 109q11 62 -6.5 88t-75.5 26zM2279 518q-71 0 -115 -51.5t-59 -130.5q-8 -59 10.5 -91t79.5 -32q70 0 114.5 51.5t57.5 128.5q10 59 -7.5 92t-80.5 33z" />
    <glyph glyph-name="fiveeighths" unicode="&#x215d;" horiz-adv-x="2879" 
d="M518 1298l-59 -182q78 47 186 47q72 0 128 -16t91.5 -45.5t59 -67t32.5 -83.5t9 -93t-9 -98q-65 -365 -503 -365q-81 0 -148 12t-113 33t-82 49.5t-54.5 61.5t-30.5 68t-10.5 69.5t5.5 67.5h347q-4 -9 0 -26t11 -33t30 -28t57 -12q64 0 106.5 46.5t53.5 113.5
q9 58 -12 91.5t-87 33.5q-56 0 -95.5 -24.5t-51.5 -45.5l-316 2l209 678h758l-47 -268zM651 -82l1184 1620h319l-1181 -1620h-322zM2249 -25q-116 0 -201.5 17t-137.5 49.5t-81.5 79t-33.5 104.5t7 127q12 65 43.5 118t69.5 82t71.5 44.5t57.5 17.5q-8 3 -22 12.5t-35 30.5
t-36 50t-24 70t2 91q10 55 29 98t55 80.5t88 62t129.5 38.5t177.5 14q106 0 185.5 -17t127 -48t75 -74.5t31.5 -96.5t-5 -114q-9 -51 -34 -92t-56 -63t-57 -33t-45 -13q16 -3 42 -23.5t54 -57t42 -99t1 -135.5q-11 -64 -32 -111.5t-59.5 -88.5t-95.5 -66.5t-140 -39.5
t-193 -14zM2410 950q-63 0 -104 -45.5t-55 -126.5q-10 -46 8.5 -70t75.5 -24q63 0 104.5 43t52.5 109q11 62 -6.5 88t-75.5 26zM2335 518q-71 0 -115 -51.5t-59 -130.5q-8 -59 10.5 -91t79.5 -32q70 0 114.5 51.5t57.5 128.5q10 59 -7.5 92t-80.5 33z" />
    <glyph glyph-name="seveneighths" unicode="&#x215e;" horiz-adv-x="2605" 
d="M68 420q23 129 80.5 267.5t123.5 244t128.5 192.5t103.5 133l41 46l-518 -27l49 274h862l-47 -258q-17 -19 -45 -53t-102.5 -136.5t-135.5 -202.5t-119.5 -233.5t-78.5 -246.5h-342zM377 -82l1184 1620h319l-1182 -1620h-321zM1974 -25q-116 0 -201.5 17t-137.5 49.5
t-81 79t-33 104.5t7 127q12 65 43 118t69 82t71.5 44.5t57.5 17.5q-11 4 -30.5 19.5t-44.5 45t-37.5 80t-1.5 109.5q10 55 29 98t55 80.5t88 62t129.5 38.5t177.5 14q106 0 185.5 -17t127 -48t75 -74.5t31.5 -96.5t-5 -114q-7 -42 -25.5 -77t-40.5 -56.5t-47.5 -37
t-45 -22.5t-34.5 -8q16 -3 42 -23.5t54 -57t42 -99t1 -135.5q-11 -64 -32 -111.5t-59.5 -88.5t-95.5 -66.5t-140 -39.5t-193 -14zM2136 950q-64 0 -105 -45.5t-55 -126.5q-10 -46 8.5 -70t75.5 -24q63 0 105 43t53 109q11 62 -6.5 88t-75.5 26zM2060 518q-71 0 -115 -51.5
t-59 -130.5q-8 -59 10.5 -91t79.5 -32q70 0 114.5 51.5t57.5 128.5q10 59 -7.5 92t-80.5 33z" />
    <glyph glyph-name="arrowleft" unicode="&#x2190;" horiz-adv-x="1468" 
d="M1372 360l-749 48l292 -236l-213 -242l-593 510v252l593 508l213 -242l-290 -235l747 47v-410z" />
    <glyph glyph-name="arrowup" unicode="&#x2191;" horiz-adv-x="1374" 
d="M481 -39l47 748l-235 -291l-242 213l510 596h252l508 -596l-242 -213l-235 291l47 -748h-410z" />
    <glyph glyph-name="arrowright" unicode="&#x2192;" horiz-adv-x="1468" 
d="M94 770l750 -47l-291 235l213 242l594 -508v-252l-594 -510l-213 242l291 236l-750 -48v410z" />
    <glyph glyph-name="arrowdown" unicode="&#x2193;" horiz-adv-x="1366" 
d="M889 1186l-47 -750l235 293l242 -213l-510 -594h-252l-508 594l242 213l233 -291l-45 748h410z" />
    <glyph glyph-name="arrowboth" unicode="&#x2194;" horiz-adv-x="2029" 
d="M1329 1227l594 -510v-250l-594 -510l-213 242l283 229l-776 -6l292 -236l-213 -241l-593 510v252l593 507l213 -241l-303 -246l815 6l-311 252z" />
    <glyph glyph-name="arrowupdn" unicode="&#x2195;" horiz-adv-x="1386" 
d="M825 -385h-252l-510 594l242 213l232 -287l-7 846l-235 -291l-244 213l510 594h252l508 -594l-240 -213l-233 287l6 -848l238 293l241 -213z" />
    <glyph glyph-name="uni2196" unicode="&#x2196;" horiz-adv-x="1275" 
d="M930 2l-498 565l41 -377l-321 -18l-60 780l176 178l783 -61l-21 -321l-375 40l564 -497z" />
    <glyph glyph-name="uni2197" unicode="&#x2197;" horiz-adv-x="1275" 
d="M57 291l564 497l-375 -40l-19 321l781 61l178 -178l-62 -780l-321 21l41 372l-498 -563z" />
    <glyph glyph-name="uni2198" unicode="&#x2198;" horiz-adv-x="1275" 
d="M348 1159l496 -563l-41 373l321 20l62 -782l-178 -176l-781 59l19 322l375 -41l-564 497z" />
    <glyph glyph-name="uni2199" unicode="&#x2199;" horiz-adv-x="1275" 
d="M1221 868l-566 -497l375 41l21 -322l-783 -59l-176 176l60 782l321 -20l-41 -377l498 567z" />
    <glyph glyph-name="minus" unicode="&#x2212;" horiz-adv-x="1030" 
d="M31 555l45 242h899l-43 -242h-901z" />
    <glyph glyph-name="infinity" unicode="&#x221e;" horiz-adv-x="1761" 
d="M412 229q-210 0 -301 108.5t-56 313.5q33 184 146.5 274t324.5 91q65 0 120 -18.5t98.5 -54.5t74.5 -73.5t64 -89.5q72 72 129.5 118t141 82t169.5 36q210 -1 302.5 -110t57.5 -312q-34 -185 -149.5 -275t-325.5 -90q-65 0 -120 18t-98 53.5t-74 73t-64 89.5
q-108 -110 -212 -172t-228 -62zM309 621q-30 -170 117 -170q82 0 156.5 48t162.5 138q-49 75 -103 116.5t-128 41.5q-80 0 -136.5 -50t-68.5 -124zM1430 625q30 167 -121 170q-82 0 -157.5 -49t-162.5 -140q48 -74 103 -114.5t129 -40.5q81 0 139 50t70 124z" />
    <glyph glyph-name="approxequal" unicode="&#x2248;" horiz-adv-x="1449" 
d="M170 723q17 97 43 165.5t70 124.5t114 83.5t166 27.5q66 0 123 -17.5t90 -38.5t79 -38.5t93 -17.5q79 0 131.5 46.5t59.5 82.5l202 -31q-17 -97 -43 -165.5t-70.5 -124.5t-114.5 -83.5t-167 -27.5q-66 0 -122.5 17.5t-90 38.5t-79.5 38.5t-93 17.5q-79 0 -131.5 -47
t-56.5 -82zM86 244q16 97 42 166t70 124.5t113.5 83t165.5 27.5q55 0 102 -11.5t79.5 -28t63 -33.5t67.5 -28.5t77 -11.5q77 0 129.5 46t59.5 81l200 -30q-11 -64 -25.5 -114t-36.5 -97t-52 -81t-69.5 -59.5t-92 -38t-117.5 -12.5q-66 0 -123 17.5t-90.5 39t-79.5 39
t-94 17.5q-78 0 -131 -47.5t-57 -81.5z" />
    <glyph glyph-name="notequal" unicode="&#x2260;" horiz-adv-x="1273" 
d="M104 141l142 189h-160l43 239h295l106 142h-376l43 241h514l129 172h229l-129 -172h223l-43 -241h-362l-107 -142h443l-41 -239h-580l-141 -189h-228z" />
    <glyph glyph-name="lessequal" unicode="&#x2264;" horiz-adv-x="1368" 
d="M1081 406l-862 272l53 315l959 262l-51 -292l-664 -129l617 -136zM111 106l43 242h917l-43 -242h-917z" />
    <glyph glyph-name="greaterequal" unicode="&#x2265;" horiz-adv-x="1280" 
d="M152 406l49 292l665 136l-618 129l51 292l864 -264l-53 -315zM96 106l43 242h920l-45 -242h-918z" />
    <glyph glyph-name="uni2661" unicode="&#x2661;" horiz-adv-x="1536" 
d="M1405 838q-17 -95 -69 -193t-121.5 -178.5t-151 -156t-159 -132t-142.5 -99.5t-104.5 -65t-43.5 -22t-35.5 24t-81 69t-106 107.5t-110.5 140.5t-94 168t-56.5 189t2.5 205q29 155 136 248.5t241 93.5q57 0 108 -15.5t83 -38t56 -45t37 -38t15 -15.5t17 15.5t40.5 38
t59 45t82 38t98.5 15.5q100 0 175.5 -49.5t110 -141.5t13.5 -208zM485 748q-11 -61 17 -130t67 -114.5t77.5 -84.5t39.5 -40q1 1 34 23.5t76 57.5t89 80t82.5 104t46.5 116q11 67 -15 101t-77 34q-29 0 -56 -9t-45.5 -21.5t-32 -25t-20.5 -21.5l-8 -9h-4l-4 9q-5 9 -14 21.5
t-22 25t-34 21.5t-45 9q-49 0 -94.5 -36.5t-57.5 -110.5z" />
    <glyph glyph-name="i.loclTRK" horiz-adv-x="677" 
d="M258 1264l55 321h412l-57 -321h-410zM33 0l200 1126h410l-201 -1126h-409z" />
    <glyph glyph-name="a.sc" horiz-adv-x="1265" 
d="M-119 0l627 1217h471l197 -1217h-418l-13 166h-372l-70 -166h-422zM485 432h242l-33 490z" />
    <glyph glyph-name="aacute.sc" horiz-adv-x="1265" 
d="M606 1356l262 368h385l-313 -368h-334zM-119 0l627 1217h471l197 -1217h-418l-13 166h-372l-70 -166h-422zM485 432h242l-33 490z" />
    <glyph glyph-name="abreve.sc" horiz-adv-x="1265" 
d="M1270 1702q-9 -49 -28.5 -96t-57.5 -96t-88.5 -85t-127 -59t-169.5 -23q-72 0 -132.5 12t-102 32.5t-75 49t-51 60.5t-29.5 67t-11 70t5 68h297q-8 -42 20.5 -75.5t86.5 -33.5q55 0 100.5 34.5t53.5 74.5h309zM-119 0l627 1217h471l197 -1217h-418l-13 166h-372l-70 -166
h-422zM485 432h242l-33 490z" />
    <glyph glyph-name="acircumflex.sc" horiz-adv-x="1265" 
d="M1219 1350h-310l-110 135l-148 -135h-340l340 364h348zM-119 0l627 1217h471l197 -1217h-418l-13 166h-372l-70 -166h-422zM485 432h242l-33 490z" />
    <glyph glyph-name="adieresis.sc" horiz-adv-x="1265" 
d="M336 1350l57 325h377l-57 -325h-377zM834 1350l57 325h377l-58 -325h-376zM-119 0l627 1217h471l197 -1217h-418l-13 166h-372l-70 -166h-422zM485 432h242l-33 490z" />
    <glyph glyph-name="uni1EA1.sc" horiz-adv-x="1265" 
d="M-119 0l627 1217h471l197 -1217h-418l-13 166h-372l-70 -166h-422zM485 432h242l-33 490zM252 -416l55 320h410l-55 -320h-410z" />
    <glyph glyph-name="agrave.sc" horiz-adv-x="1265" 
d="M926 1356h-316l-182 368h367zM-119 0l627 1217h471l197 -1217h-418l-13 166h-372l-70 -166h-422zM485 432h242l-33 490z" />
    <glyph glyph-name="amacron.sc" horiz-adv-x="1265" 
d="M471 1636h703l-44 -241h-702zM-119 0l627 1217h471l197 -1217h-418l-13 166h-372l-70 -166h-422zM485 432h242l-33 490z" />
    <glyph glyph-name="aogonek.sc" horiz-adv-x="1265" 
d="M549 -240q8 46 35 89.5t62.5 74t62 48.5t49.5 30l-13 164h-372l-70 -166h-422l627 1217h471l197 -1217h-97q-6 -4 -16.5 -10t-37 -26.5t-48 -41.5t-41 -51t-23.5 -59q-6 -31 4 -44.5t41 -13.5q20 0 46 8t42 16l15 9l-21 -178q-2 -3 -7 -8t-25 -18.5t-44.5 -23.5
t-67.5 -18t-93 -8q-81 0 -137.5 21.5t-82 56.5t-33.5 72.5t-1 76.5zM485 432h242l-33 490z" />
    <glyph glyph-name="aring.sc" horiz-adv-x="1265" 
d="M1092 1554q-20 -115 -97 -171t-200 -56q-139 0 -210 75t-48 212q41 227 299 227q138 0 209 -75.5t47 -211.5zM745 1577q-4 -30 12.5 -45.5t43.5 -15.5q33 0 54.5 20.5t29.5 54.5q4 30 -13 46t-45 16q-31 0 -53.5 -21.5t-28.5 -54.5zM-119 0l627 1217h471l197 -1217h-418
l-13 166h-372l-70 -166h-422zM485 432h242l-33 490z" />
    <glyph glyph-name="aringacute.sc" horiz-adv-x="1265" 
d="M707 1907l262 368h385l-314 -368h-333zM1092 1554q-20 -115 -97 -171t-200 -56q-139 0 -210 75t-48 212q41 227 299 227q138 0 209 -75.5t47 -211.5zM745 1577q-4 -30 12.5 -45.5t43.5 -15.5q33 0 54.5 20.5t29.5 54.5q4 30 -13 46t-45 16q-31 0 -53.5 -21.5t-28.5 -54.5
zM-119 0l627 1217h471l197 -1217h-418l-13 166h-372l-70 -166h-422zM485 432h242l-33 490z" />
    <glyph glyph-name="atilde.sc" horiz-adv-x="1265" 
d="M1268 1716q-16 -88 -37 -148.5t-54 -108.5t-82 -71.5t-116 -23.5q-66 0 -116 14.5t-74 32.5t-54 32.5t-61 14.5q-63 0 -105.5 -40t-46.5 -70l-172 30q32 178 96 265.5t193 87.5q66 0 116 -15t73.5 -32.5t53.5 -32.5t60 -15q63 0 106 40.5t50 70.5zM-119 0l627 1217h471
l197 -1217h-418l-13 166h-372l-70 -166h-422zM485 432h242l-33 490z" />
    <glyph glyph-name="ae.sc" horiz-adv-x="1802" 
d="M-119 0l789 1217h1161l-51 -295h-520l-33 -185h432l-43 -250h-432l-35 -192h532l-51 -295h-923l30 182h-311l-107 -182h-438zM788 465l82 467l-276 -467h194z" />
    <glyph glyph-name="aeacute.sc" horiz-adv-x="1802" 
d="M764 1356l262 368h385l-313 -368h-334zM-119 0l789 1217h1161l-51 -295h-520l-33 -185h432l-43 -250h-432l-35 -192h532l-51 -295h-923l30 182h-311l-107 -182h-438zM788 465l82 467l-276 -467h194z" />
    <glyph glyph-name="b.sc" horiz-adv-x="1271" 
d="M139 0h-112l215 1219h487q210 0 323 -36.5t150.5 -113t14.5 -207.5q-31 -187 -197 -252q91 -41 120 -114t11 -179q-14 -81 -34.5 -131t-59.5 -89.5t-106.5 -59.5t-164.5 -29.5t-245 -9.5h-402v2zM588 965l-43 -248h96q98 0 144.5 26t60.5 107q9 69 -20.5 92t-123.5 23
h-114zM508 514l-47 -264h92q114 0 166.5 26.5t66.5 110.5q10 75 -23.5 101t-133.5 26h-121z" />
    <glyph glyph-name="ordfeminine.sc" horiz-adv-x="923" 
d="M549 573l-8 37q-97 -63 -215 -63q-156 0 -227.5 69t-47.5 211q22 124 107 175t223 51q76 0 205 -11l8 48q10 56 -4.5 81t-69.5 25q-58 0 -91.5 -25.5t-39.5 -66.5h-248q6 35 15 63.5t34 69.5t61 68.5t101 48t150 20.5q82 0 144.5 -11t104.5 -29.5t68.5 -49t39.5 -63.5
t15 -80t-2.5 -91.5t-15.5 -103.5l-27 -153l-22 -220h-258zM412 735q69 0 133 56l18 114q-18 2 -61 2q-144 0 -164 -96q-8 -39 9.5 -57.5t64.5 -18.5z" />
    <glyph glyph-name="ordmasculine.sc" horiz-adv-x="921" 
d="M864 934q-24 -134 -74 -217t-143 -127.5t-235 -44.5q-227 0 -310 112.5t-45 333.5q35 200 138.5 294.5t312.5 94.5q228 0 311.5 -112.5t44.5 -333.5zM346 967q-22 -106 -7.5 -155.5t77.5 -49.5q64 0 101.5 43.5t57.5 150.5q22 106 7.5 156.5t-78.5 50.5q-61 0 -99 -44
t-59 -152z" />
    <glyph glyph-name="c.sc" horiz-adv-x="1280" 
d="M1188 506q-28 -156 -80 -262t-131 -167.5t-176 -87.5t-228 -26q-83 0 -150.5 10.5t-125.5 33.5t-99.5 59.5t-70.5 89.5t-42 122.5t-10.5 159.5t21.5 199q26 145 68 251.5t97.5 176.5t131.5 112t160.5 59t194.5 17q75 0 137.5 -8t119 -26t97.5 -46.5t73 -69.5t46.5 -96.5
t17.5 -126t-14 -157.5l-377 2q15 119 -12 167t-109 48q-90 0 -143.5 -69t-89.5 -242q-42 -194 -21 -274t123 -79q78 2 130 52.5t81 177.5h381z" />
    <glyph glyph-name="cacute.sc" horiz-adv-x="1280" 
d="M637 1372l262 369h385l-313 -369h-334zM1188 506q-28 -156 -80 -262t-131 -167.5t-176 -87.5t-228 -26q-83 0 -150.5 10.5t-125.5 33.5t-99.5 59.5t-70.5 89.5t-42 122.5t-10.5 159.5t21.5 199q26 145 68 251.5t97.5 176.5t131.5 112t160.5 59t194.5 17q75 0 137.5 -8
t119 -26t97.5 -46.5t73 -69.5t46.5 -96.5t17.5 -126t-14 -157.5l-377 2q15 119 -12 167t-109 48q-90 0 -143.5 -69t-89.5 -242q-42 -194 -21 -274t123 -79q78 2 130 52.5t81 177.5h381z" />
    <glyph glyph-name="ccaron.sc" horiz-adv-x="1280" 
d="M1321 1731l-346 -365h-348l-201 365h293l110 -127l148 127h344zM1188 506q-28 -156 -80 -262t-131 -167.5t-176 -87.5t-228 -26q-83 0 -150.5 10.5t-125.5 33.5t-99.5 59.5t-70.5 89.5t-42 122.5t-10.5 159.5t21.5 199q26 145 68 251.5t97.5 176.5t131.5 112t160.5 59
t194.5 17q75 0 137.5 -8t119 -26t97.5 -46.5t73 -69.5t46.5 -96.5t17.5 -126t-14 -157.5l-377 2q15 119 -12 167t-109 48q-90 0 -143.5 -69t-89.5 -242q-42 -194 -21 -274t123 -79q78 2 130 52.5t81 177.5h381z" />
    <glyph glyph-name="ccedilla.sc" horiz-adv-x="1280" 
d="M819 -367q-8 -50 -29.5 -85t-66.5 -63.5t-124.5 -42t-195.5 -13.5q-77 0 -138 7t-83 14l-22 7l14 156q12 -2 92 -2q74 0 120.5 33t55.5 88q3 16 0.5 28t-13.5 19t-21.5 11t-32.5 6t-38 2.5t-46 0.5h-23l127 178q-201 38 -277.5 194t-21.5 466q26 145 68 251.5t97.5 176.5
t131.5 112t160.5 59t194.5 17q75 0 137.5 -8t119 -26t97.5 -46.5t73 -69.5t46.5 -96.5t17.5 -126t-14 -157.5l-377 2q15 119 -12 167t-109 48q-90 0 -143.5 -69t-89.5 -242q-42 -194 -21 -274t123 -79q78 2 130 52.5t81 177.5h381q-46 -256 -159 -380t-304 -153l-76 -104
q84 -9 137.5 -67.5t32.5 -168.5z" />
    <glyph glyph-name="ccircumflex.sc" horiz-adv-x="1280" 
d="M1249 1366h-309l-111 135l-147 -135h-340l340 365h348zM1188 506q-28 -156 -80 -262t-131 -167.5t-176 -87.5t-228 -26q-83 0 -150.5 10.5t-125.5 33.5t-99.5 59.5t-70.5 89.5t-42 122.5t-10.5 159.5t21.5 199q26 145 68 251.5t97.5 176.5t131.5 112t160.5 59t194.5 17
q75 0 137.5 -8t119 -26t97.5 -46.5t73 -69.5t46.5 -96.5t17.5 -126t-14 -157.5l-377 2q15 119 -12 167t-109 48q-90 0 -143.5 -69t-89.5 -242q-42 -194 -21 -274t123 -79q78 2 130 52.5t81 177.5h381z" />
    <glyph glyph-name="cdotaccent.sc" horiz-adv-x="1280" 
d="M600 1370l55 322h412l-57 -322h-410zM1188 506q-28 -156 -80 -262t-131 -167.5t-176 -87.5t-228 -26q-83 0 -150.5 10.5t-125.5 33.5t-99.5 59.5t-70.5 89.5t-42 122.5t-10.5 159.5t21.5 199q26 145 68 251.5t97.5 176.5t131.5 112t160.5 59t194.5 17q75 0 137.5 -8
t119 -26t97.5 -46.5t73 -69.5t46.5 -96.5t17.5 -126t-14 -157.5l-377 2q15 119 -12 167t-109 48q-90 0 -143.5 -69t-89.5 -242q-42 -194 -21 -274t123 -79q78 2 130 52.5t81 177.5h381z" />
    <glyph glyph-name="d.sc" horiz-adv-x="1339" 
d="M242 1219h411q289 0 430.5 -66.5t170 -208.5t-12.5 -364q-15 -85 -31 -147.5t-40 -122.5t-54 -101.5t-72.5 -78t-96.5 -59.5t-125.5 -40t-159 -24t-197.5 -7h-438zM584 903l-107 -594h96q84 0 132.5 24.5t83.5 96t57 207.5q24 153 -9 209.5t-141 56.5h-112z" />
    <glyph glyph-name="eth.sc" horiz-adv-x="1339" 
d="M117 512h-84l37 193h80l92 514h411q289 0 430.5 -66.5t170 -208.5t-12.5 -364q-15 -85 -31 -147.5t-40 -122.5t-54 -101.5t-72.5 -78t-96.5 -59.5t-125.5 -40t-159 -24t-197.5 -7h-438zM514 512l-37 -203h96q84 0 132.5 24.5t83.5 96t57 207.5q24 153 -9 209.5t-141 56.5
h-112l-37 -198h168l-37 -193h-164z" />
    <glyph glyph-name="dcaron.sc" horiz-adv-x="1339" 
d="M1284 1714l-346 -364h-348l-201 364h293l111 -127l147 127h344zM242 1219h411q289 0 430.5 -66.5t170 -208.5t-12.5 -364q-15 -85 -31 -147.5t-40 -122.5t-54 -101.5t-72.5 -78t-96.5 -59.5t-125.5 -40t-159 -24t-197.5 -7h-438zM584 903l-107 -594h96q84 0 132.5 24.5
t83.5 96t57 207.5q24 153 -9 209.5t-141 56.5h-112z" />
    <glyph glyph-name="dcroat.sc" horiz-adv-x="1339" 
d="M117 512h-84l37 193h80l92 514h411q289 0 430.5 -66.5t170 -208.5t-12.5 -364q-15 -85 -31 -147.5t-40 -122.5t-54 -101.5t-72.5 -78t-96.5 -59.5t-125.5 -40t-159 -24t-197.5 -7h-438zM514 512l-37 -203h96q84 0 132.5 24.5t83.5 96t57 207.5q24 153 -9 209.5t-141 56.5
h-114l-35 -198h168l-37 -193h-164z" />
    <glyph glyph-name="e.sc" horiz-adv-x="1122" 
d="M27 0l215 1217h909l-51 -295h-520l-33 -185h432l-43 -250h-432l-35 -192h532l-51 -295h-923z" />
    <glyph glyph-name="eacute.sc" horiz-adv-x="1122" 
d="M549 1356l262 368h385l-313 -368h-334zM27 0l215 1217h909l-51 -295h-520l-33 -185h432l-43 -250h-432l-35 -192h532l-51 -295h-923z" />
    <glyph glyph-name="ebreve.sc" horiz-adv-x="1122" 
d="M1212 1702q-9 -49 -28.5 -96t-57.5 -96t-88.5 -85t-127 -59t-169.5 -23q-72 0 -132.5 12t-102 32.5t-74.5 49t-50.5 60.5t-29.5 67t-11 70t5 68h297q-8 -42 20.5 -75.5t86.5 -33.5q55 0 100 34.5t53 74.5h309zM27 0l215 1217h909l-51 -295h-520l-33 -185h432l-43 -250
h-432l-35 -192h532l-51 -295h-923z" />
    <glyph glyph-name="ecaron.sc" horiz-adv-x="1122" 
d="M1233 1714l-346 -364h-348l-201 364h293l110 -127l148 127h344zM27 0l215 1217h909l-51 -295h-520l-33 -185h432l-43 -250h-432l-35 -192h532l-51 -295h-923z" />
    <glyph glyph-name="ecircumflex.sc" horiz-adv-x="1122" 
d="M1161 1350h-309l-111 135l-147 -135h-340l340 364h348zM27 0l215 1217h909l-51 -295h-520l-33 -185h432l-43 -250h-432l-35 -192h532l-51 -295h-923z" />
    <glyph glyph-name="edieresis.sc" horiz-adv-x="1122" 
d="M279 1350l57 325h377l-58 -325h-376zM776 1350l58 325h376l-57 -325h-377zM27 0l215 1217h909l-51 -295h-520l-33 -185h432l-43 -250h-432l-35 -192h532l-51 -295h-923z" />
    <glyph glyph-name="edotaccent.sc" horiz-adv-x="1122" 
d="M512 1354l55 321h412l-57 -321h-410zM27 0l215 1217h909l-51 -295h-520l-33 -185h432l-43 -250h-432l-35 -192h532l-51 -295h-923z" />
    <glyph glyph-name="uni1EB9.sc" horiz-adv-x="1122" 
d="M27 0l215 1217h909l-51 -295h-520l-33 -185h432l-43 -250h-432l-35 -192h532l-51 -295h-923zM221 -416l55 320h410l-55 -320h-410z" />
    <glyph glyph-name="egrave.sc" horiz-adv-x="1122" 
d="M868 1356h-315l-182 368h366zM27 0l215 1217h909l-51 -295h-520l-33 -185h432l-43 -250h-432l-35 -192h532l-51 -295h-923z" />
    <glyph glyph-name="emacron.sc" horiz-adv-x="1122" 
d="M414 1636h702l-43 -241h-702zM27 0l215 1217h909l-51 -295h-520l-33 -185h432l-43 -250h-432l-35 -192h532l-51 -295h-923z" />
    <glyph glyph-name="eogonek.sc" horiz-adv-x="1122" 
d="M420 -240q7 44 31.5 85.5t59.5 72.5t60.5 49t51.5 33h-596l215 1217h909l-51 -295h-520l-33 -185h432l-43 -250h-432l-35 -192h532l-51 -295q-6 -4 -16.5 -10t-37 -26.5t-48 -41.5t-41 -51t-23.5 -59q-6 -31 4 -44.5t41 -13.5q20 0 45.5 8t41.5 16l16 9l-21 -178
q-2 -3 -7 -8t-25 -18.5t-44.5 -23.5t-67.5 -18t-93 -8q-81 0 -137.5 21.5t-82 56.5t-33.5 72.5t-1 76.5z" />
    <glyph glyph-name="uni1EBD.sc" horiz-adv-x="1122" 
d="M1210 1716q-16 -88 -37 -148.5t-54 -108.5t-81.5 -71.5t-115.5 -23.5q-54 0 -96.5 9.5t-68.5 23.5t-47.5 28t-44.5 23.5t-49 9.5q-63 0 -105 -40t-46 -70l-172 30q32 178 96 265.5t193 87.5q66 0 116 -15t73.5 -32.5t53.5 -32.5t60 -15q63 0 105.5 40.5t49.5 70.5zM27 0
l215 1217h909l-51 -295h-520l-33 -185h432l-43 -250h-432l-35 -192h532l-51 -295h-923z" />
    <glyph glyph-name="f.sc" horiz-adv-x="1042" 
d="M27 0l215 1217h878l-51 -295h-489l-41 -234h399l-45 -260h-399l-76 -428h-391z" />
    <glyph glyph-name="g.sc" horiz-adv-x="1298" 
d="M1118 172q-1 -2 -11 -13t-32.5 -30.5t-53 -41t-76.5 -43.5t-99 -40t-124.5 -29.5t-148.5 -11.5q-98 -1 -174.5 13.5t-139 46t-102.5 84t-62 127t-21.5 175t22.5 228.5q26 145 67.5 251.5t96.5 176.5t130.5 112t161.5 59t198 17q278 0 394 -118.5t70 -382.5l-364 2
q13 101 -18.5 143.5t-106.5 42.5q-90 0 -142.5 -68.5t-88.5 -242.5q-44 -193 -20 -281t136 -88q73 0 129 37t58 65l14 89h-147l32 186h502z" />
    <glyph glyph-name="gbreve.sc" horiz-adv-x="1298" 
d="M1290 1718q-9 -49 -28.5 -96t-57.5 -95.5t-88.5 -84.5t-127 -59t-169.5 -23q-72 0 -132.5 12t-102 32.5t-74.5 48.5t-50.5 60.5t-29.5 67.5t-11 69.5t5 67.5h297q-8 -42 20 -75t86 -33q55 0 100.5 34t53.5 74h309zM1118 172q-1 -2 -11 -13t-32.5 -30.5t-53 -41
t-76.5 -43.5t-99 -40t-124.5 -29.5t-148.5 -11.5q-98 -1 -174.5 13.5t-139 46t-102.5 84t-62 127t-21.5 175t22.5 228.5q26 145 67.5 251.5t96.5 176.5t130.5 112t161.5 59t198 17q278 0 394 -118.5t70 -382.5l-364 2q13 101 -18.5 143.5t-106.5 42.5q-90 0 -142.5 -68.5
t-88.5 -242.5q-44 -193 -20 -281t136 -88q73 0 129 37t58 65l14 89h-147l32 186h502z" />
    <glyph glyph-name="gcaron.sc" horiz-adv-x="1298" 
d="M1311 1731l-346 -365h-349l-200 365h293l110 -127l148 127h344zM1118 172q-1 -2 -11 -13t-32.5 -30.5t-53 -41t-76.5 -43.5t-99 -40t-124.5 -29.5t-148.5 -11.5q-98 -1 -174.5 13.5t-139 46t-102.5 84t-62 127t-21.5 175t22.5 228.5q26 145 67.5 251.5t96.5 176.5
t130.5 112t161.5 59t198 17q278 0 394 -118.5t70 -382.5l-364 2q13 101 -18.5 143.5t-106.5 42.5q-90 0 -142.5 -68.5t-88.5 -242.5q-44 -193 -20 -281t136 -88q73 0 129 37t58 65l14 89h-147l32 186h502z" />
    <glyph glyph-name="gcircumflex.sc" horiz-adv-x="1298" 
d="M1239 1366h-309l-111 135l-147 -135h-340l340 365h348zM1118 172q-1 -2 -11 -13t-32.5 -30.5t-53 -41t-76.5 -43.5t-99 -40t-124.5 -29.5t-148.5 -11.5q-98 -1 -174.5 13.5t-139 46t-102.5 84t-62 127t-21.5 175t22.5 228.5q26 145 67.5 251.5t96.5 176.5t130.5 112
t161.5 59t198 17q278 0 394 -118.5t70 -382.5l-364 2q13 101 -18.5 143.5t-106.5 42.5q-90 0 -142.5 -68.5t-88.5 -242.5q-44 -193 -20 -281t136 -88q73 0 129 37t58 65l14 89h-147l32 186h502z" />
    <glyph glyph-name="gcommaaccent.sc" horiz-adv-x="1298" 
d="M1118 172q-1 -2 -11 -13t-32.5 -30.5t-53 -41t-76.5 -43.5t-99 -40t-124.5 -29.5t-148.5 -11.5q-98 -1 -174.5 13.5t-139 46t-102.5 84t-62 127t-21.5 175t22.5 228.5q26 145 67.5 251.5t96.5 176.5t130.5 112t161.5 59t198 17q278 0 394 -118.5t70 -382.5l-364 2
q13 101 -18.5 143.5t-106.5 42.5q-90 0 -142.5 -68.5t-88.5 -242.5q-44 -193 -20 -281t136 -88q73 0 129 37t58 65l14 89h-147l32 186h502zM186 -700q61 123 129 299q25 64 46 126.5t29 92.5l9 30h359q-47 -155 -131 -321q-42 -83 -81.5 -139.5t-57.5 -71.5l-19 -16h-283z
" />
    <glyph glyph-name="gdotaccent.sc" horiz-adv-x="1298" 
d="M590 1370l55 322h412l-58 -322h-409zM1118 172q-1 -2 -11 -13t-32.5 -30.5t-53 -41t-76.5 -43.5t-99 -40t-124.5 -29.5t-148.5 -11.5q-98 -1 -174.5 13.5t-139 46t-102.5 84t-62 127t-21.5 175t22.5 228.5q26 145 67.5 251.5t96.5 176.5t130.5 112t161.5 59t198 17
q278 0 394 -118.5t70 -382.5l-364 2q13 101 -18.5 143.5t-106.5 42.5q-90 0 -142.5 -68.5t-88.5 -242.5q-44 -193 -20 -281t136 -88q73 0 129 37t58 65l14 89h-147l32 186h502z" />
    <glyph glyph-name="h.sc" horiz-adv-x="1341" 
d="M27 0l215 1217h391l-80 -447h291l80 447h391l-215 -1217h-391l79 455h-290l-80 -455h-391z" />
    <glyph glyph-name="hbar.sc" horiz-adv-x="1341" 
d="M1260 903l-160 -903h-391l79 455h-290l-80 -455h-391l159 903h-131v160h160l27 154h391l-29 -154h291l29 154h391l-27 -154h117v-160h-145zM844 770l22 133h-291l-22 -133h291z" />
    <glyph glyph-name="hcircumflex.sc" horiz-adv-x="1341" 
d="M1247 1350h-309l-111 135l-147 -135h-340l340 364h348zM27 0l215 1217h391l-80 -447h291l80 447h391l-215 -1217h-391l79 455h-290l-80 -455h-391z" />
    <glyph glyph-name="i.sc" horiz-adv-x="659" 
d="M27 0l215 1217h391l-215 -1217h-391z" />
    <glyph glyph-name="iacute.sc" horiz-adv-x="659" 
d="M303 1356l262 368h385l-313 -368h-334zM27 0l215 1217h391l-215 -1217h-391z" />
    <glyph glyph-name="ibreve.sc" horiz-adv-x="659" 
d="M967 1702q-9 -49 -28.5 -96t-57.5 -96t-88.5 -85t-127 -59t-169.5 -23q-72 0 -132.5 12t-102 32.5t-75 49t-51 60.5t-29.5 67t-11 70t5 68h297q-8 -42 20.5 -75.5t86.5 -33.5q55 0 100 34.5t53 74.5h310zM27 0l215 1217h391l-215 -1217h-391z" />
    <glyph glyph-name="icircumflex.sc" horiz-adv-x="659" 
d="M915 1350h-309l-110 135l-148 -135h-340l340 364h348zM27 0l215 1217h391l-215 -1217h-391z" />
    <glyph glyph-name="idieresis.sc" horiz-adv-x="659" 
d="M33 1350l57 325h377l-57 -325h-377zM530 1350l58 325h377l-58 -325h-377zM27 0l215 1217h391l-215 -1217h-391z" />
    <glyph glyph-name="i.sc.loclTRK" horiz-adv-x="659" 
d="M266 1354l56 321h411l-57 -321h-410zM27 0l215 1217h391l-215 -1217h-391z" />
    <glyph glyph-name="uni1ECB.sc" horiz-adv-x="659" 
d="M27 0l215 1217h391l-215 -1217h-391zM-55 -430l55 319h410l-56 -319h-409z" />
    <glyph glyph-name="igrave.sc" horiz-adv-x="659" 
d="M623 1356h-316l-182 368h367zM27 0l215 1217h391l-215 -1217h-391z" />
    <glyph glyph-name="ij.sc" horiz-adv-x="1409" 
d="M27 0l215 1217h391l-215 -1217h-391zM1294 547q-21 -119 -37 -187t-46.5 -139t-70.5 -105.5t-107.5 -65t-158 -40.5t-221.5 -10h-116l59 338h92q95 0 145 51.5t74 188.5l115 639h391z" />
    <glyph glyph-name="imacron.sc" horiz-adv-x="659" 
d="M168 1636h702l-43 -241h-702zM27 0l215 1217h391l-215 -1217h-391z" />
    <glyph glyph-name="iogonek.sc" horiz-adv-x="659" 
d="M-193 -240q8 44 34 86t52 67.5t63 51t48 31l25 12.5l213 1209h391l-215 -1217h-80q-6 -4 -16.5 -10t-37 -26.5t-48 -41.5t-41 -51t-23.5 -59q-6 -31 4 -44.5t41 -13.5q20 0 45.5 8t41.5 16l15 9l-20 -178q-2 -3 -7.5 -8t-25.5 -18.5t-44.5 -23.5t-67.5 -18t-93 -8
q-81 0 -137.5 21.5t-82 56.5t-33.5 72.5t-1 76.5z" />
    <glyph glyph-name="itilde.sc" horiz-adv-x="659" 
d="M965 1716q-16 -88 -37 -148.5t-54 -108.5t-82 -71.5t-116 -23.5q-66 0 -116 14.5t-74 32.5t-54 32.5t-61 14.5q-63 0 -105.5 -40t-46.5 -70l-172 30q32 178 96 265.5t193 87.5q66 0 116 -15t73.5 -32.5t53.5 -32.5t60 -15q63 0 106 40.5t50 70.5zM27 0l215 1217h391
l-215 -1217h-391z" />
    <glyph glyph-name="j.sc" horiz-adv-x="749" 
d="M635 547q-21 -119 -37 -187t-46.5 -139t-70.5 -105.5t-107.5 -65t-158 -40.5t-221.5 -10h-117l60 338h92q95 0 145 51.5t74 188.5l114 639h392z" />
    <glyph glyph-name="jcircumflex.sc" horiz-adv-x="749" 
d="M1018 1327h-309l-111 135l-147 -135h-340l340 365h348zM635 547q-21 -119 -37 -187t-46.5 -139t-70.5 -105.5t-107.5 -65t-158 -40.5t-221.5 -10h-117l60 338h92q95 0 145 51.5t74 188.5l114 639h392z" />
    <glyph glyph-name="k.sc" horiz-adv-x="1286" 
d="M27 0l215 1217h391l-94 -531l428 531h436l-463 -498l248 -719h-408l-131 408l-196 -211l-35 -197h-391z" />
    <glyph glyph-name="kcommaaccent.sc" horiz-adv-x="1286" 
d="M27 0l215 1217h391l-94 -531l428 531h436l-463 -498l248 -719h-408l-131 408l-196 -211l-35 -197h-391zM221 -666q61 123 129 299q25 64 46 126.5t30 92.5l8 31h359q-47 -155 -131 -321q-42 -83 -81.5 -140t-58.5 -72l-18 -16h-283z" />
    <glyph glyph-name="l.sc" horiz-adv-x="974" 
d="M27 0l215 1217h391l-156 -873h426l-61 -344h-815z" />
    <glyph glyph-name="lacute.sc" horiz-adv-x="974" 
d="M299 1356l262 368h385l-313 -368h-334zM27 0l215 1217h391l-156 -873h426l-61 -344h-815z" />
    <glyph glyph-name="lcaron.sc" horiz-adv-x="974" 
d="M637 928l199 426h317l-283 -426h-233zM27 0l215 1217h391l-156 -873h426l-61 -344h-815z" />
    <glyph glyph-name="lcommaaccent.sc" horiz-adv-x="974" 
d="M27 0l215 1217h391l-156 -873h426l-61 -344h-815zM23 -694q61 123 129 299q25 64 46 126.5t30 92.5l8 31h358q-47 -156 -131 -322q-42 -83 -81.5 -139.5t-57.5 -71.5l-19 -16h-282z" />
    <glyph glyph-name="ldot.sc" horiz-adv-x="974" 
d="M27 0l215 1217h391l-156 -873h426l-61 -344h-815zM582 532l57 326h412l-58 -326h-411z" />
    <glyph glyph-name="lslash.sc" horiz-adv-x="974" 
d="M532 662l-55 -318h426l-61 -344h-815l82 467l-187 -84l-69 221l305 137l84 476h391l-51 -283l166 76l69 -219z" />
    <glyph glyph-name="m.sc" horiz-adv-x="1830" 
d="M27 0l215 1217h567l59 -840l349 840h587l-217 -1217h-373l185 854l-408 -854h-381l-98 848l-115 -848h-370z" />
    <glyph glyph-name="n.sc" horiz-adv-x="1413" 
d="M504 784l-117 -784h-360l217 1217h450l219 -760l115 760h358l-215 -1217h-450z" />
    <glyph glyph-name="nacute.sc" horiz-adv-x="1413" 
d="M664 1356l262 368h385l-314 -368h-333zM504 784l-117 -784h-360l217 1217h450l219 -760l115 760h358l-215 -1217h-450z" />
    <glyph glyph-name="ncaron.sc" horiz-adv-x="1413" 
d="M1348 1714l-347 -364h-348l-200 364h292l111 -127l148 127h344zM504 784l-117 -784h-360l217 1217h450l219 -760l115 760h358l-215 -1217h-450z" />
    <glyph glyph-name="ncommaaccent.sc" horiz-adv-x="1413" 
d="M504 784l-117 -784h-360l217 1217h450l219 -760l115 760h358l-215 -1217h-450zM233 -666q61 123 129 299q25 64 46 126.5t30 92.5l8 31h359q-47 -155 -131 -321q-42 -83 -81.5 -140t-58.5 -72l-18 -16h-283z" />
    <glyph glyph-name="eng.sc" horiz-adv-x="1413" 
d="M1386 1217l-215 -1217q-12 -65 -31 -116.5t-61 -106.5t-101.5 -92t-156 -60.5t-221.5 -23.5h-113l50 268h88q86 0 145.5 34t69.5 97l-342 711l-107 -711h-364l217 1217h405l281 -613l94 613h362z" />
    <glyph glyph-name="uni0272.sc" horiz-adv-x="1357" 
d="M446 768l-127 -768q-8 -45 -19 -83t-32 -80t-49 -75.5t-71 -64t-96.5 -51.5t-127.5 -33t-162 -12h-110l49 274h86q82 0 128.5 32.5t57.5 92.5l213 1217h459l213 -728l111 728h362l-215 -1217h-454z" />
    <glyph glyph-name="ntilde.sc" horiz-adv-x="1413" 
d="M1325 1716q-16 -88 -37 -148.5t-54 -108.5t-82 -71.5t-116 -23.5q-66 0 -116 14.5t-74 32.5t-54 32.5t-61 14.5q-63 0 -105 -40t-46 -70l-172 30q32 178 95.5 265.5t192.5 87.5q66 0 116 -15t73.5 -32.5t53.5 -32.5t60 -15q63 0 106 40.5t50 70.5zM504 784l-117 -784
h-360l217 1217h450l219 -760l115 760h358l-215 -1217h-450z" />
    <glyph glyph-name="o.sc" horiz-adv-x="1325" 
d="M1229 580q-32 -180 -88.5 -301.5t-141 -190t-186.5 -97t-240 -28.5q-83 0 -150.5 10.5t-125.5 33.5t-99.5 59.5t-70.5 89.5t-42 122.5t-10.5 159.5t21.5 199q32 181 88 302.5t140.5 189.5t185.5 96t240 28q97 0 173 -14t139.5 -46t103 -83t63.5 -126t22 -175t-22 -229z
M494 629q-42 -194 -21 -274t123 -79q97 2 148.5 69t86.5 243q28 134 28 207.5t-30.5 109t-101.5 35.5q-90 0 -143.5 -69t-89.5 -242z" />
    <glyph glyph-name="oacute.sc" horiz-adv-x="1325" 
d="M629 1372l262 369h385l-313 -369h-334zM1229 580q-32 -180 -88.5 -301.5t-141 -190t-186.5 -97t-240 -28.5q-83 0 -150.5 10.5t-125.5 33.5t-99.5 59.5t-70.5 89.5t-42 122.5t-10.5 159.5t21.5 199q32 181 88 302.5t140.5 189.5t185.5 96t240 28q97 0 173 -14t139.5 -46
t103 -83t63.5 -126t22 -175t-22 -229zM494 629q-42 -194 -21 -274t123 -79q97 2 148.5 69t86.5 243q28 134 28 207.5t-30.5 109t-101.5 35.5q-90 0 -143.5 -69t-89.5 -242z" />
    <glyph glyph-name="obreve.sc" horiz-adv-x="1325" 
d="M1292 1718q-9 -49 -28.5 -96t-57.5 -95.5t-88.5 -84.5t-127 -59t-169.5 -23q-72 0 -132.5 12t-102 32.5t-74.5 48.5t-50.5 60.5t-29.5 67.5t-11 69.5t5 67.5h297q-8 -42 20 -75t86 -33q55 0 100.5 34t53.5 74h309zM1229 580q-32 -180 -88.5 -301.5t-141 -190t-186.5 -97
t-240 -28.5q-83 0 -150.5 10.5t-125.5 33.5t-99.5 59.5t-70.5 89.5t-42 122.5t-10.5 159.5t21.5 199q32 181 88 302.5t140.5 189.5t185.5 96t240 28q97 0 173 -14t139.5 -46t103 -83t63.5 -126t22 -175t-22 -229zM494 629q-42 -194 -21 -274t123 -79q97 2 148.5 69t86.5 243
q28 134 28 207.5t-30.5 109t-101.5 35.5q-90 0 -143.5 -69t-89.5 -242z" />
    <glyph glyph-name="ocircumflex.sc" horiz-adv-x="1325" 
d="M1241 1366h-309l-111 135l-147 -135h-340l340 365h348zM1229 580q-32 -180 -88.5 -301.5t-141 -190t-186.5 -97t-240 -28.5q-83 0 -150.5 10.5t-125.5 33.5t-99.5 59.5t-70.5 89.5t-42 122.5t-10.5 159.5t21.5 199q32 181 88 302.5t140.5 189.5t185.5 96t240 28
q97 0 173 -14t139.5 -46t103 -83t63.5 -126t22 -175t-22 -229zM494 629q-42 -194 -21 -274t123 -79q97 2 148.5 69t86.5 243q28 134 28 207.5t-30.5 109t-101.5 35.5q-90 0 -143.5 -69t-89.5 -242z" />
    <glyph glyph-name="odieresis.sc" horiz-adv-x="1325" 
d="M358 1366l58 326h377l-58 -326h-377zM856 1366l57 326h377l-57 -326h-377zM1229 580q-32 -180 -88.5 -301.5t-141 -190t-186.5 -97t-240 -28.5q-83 0 -150.5 10.5t-125.5 33.5t-99.5 59.5t-70.5 89.5t-42 122.5t-10.5 159.5t21.5 199q32 181 88 302.5t140.5 189.5
t185.5 96t240 28q97 0 173 -14t139.5 -46t103 -83t63.5 -126t22 -175t-22 -229zM494 629q-42 -194 -21 -274t123 -79q97 2 148.5 69t86.5 243q28 134 28 207.5t-30.5 109t-101.5 35.5q-90 0 -143.5 -69t-89.5 -242z" />
    <glyph glyph-name="uni1ECD.sc" horiz-adv-x="1325" 
d="M1229 580q-32 -180 -88.5 -301.5t-141 -190t-186.5 -97t-240 -28.5q-83 0 -150.5 10.5t-125.5 33.5t-99.5 59.5t-70.5 89.5t-42 122.5t-10.5 159.5t21.5 199q32 181 88 302.5t140.5 189.5t185.5 96t240 28q97 0 173 -14t139.5 -46t103 -83t63.5 -126t22 -175t-22 -229z
M494 629q-42 -194 -21 -274t123 -79q97 2 148.5 69t86.5 243q28 134 28 207.5t-30.5 109t-101.5 35.5q-90 0 -143.5 -69t-89.5 -242zM276 -461l56 320h409l-55 -320h-410z" />
    <glyph glyph-name="ograve.sc" horiz-adv-x="1325" 
d="M948 1372h-315l-182 369h366zM1229 580q-32 -180 -88.5 -301.5t-141 -190t-186.5 -97t-240 -28.5q-83 0 -150.5 10.5t-125.5 33.5t-99.5 59.5t-70.5 89.5t-42 122.5t-10.5 159.5t21.5 199q32 181 88 302.5t140.5 189.5t185.5 96t240 28q97 0 173 -14t139.5 -46t103 -83
t63.5 -126t22 -175t-22 -229zM494 629q-42 -194 -21 -274t123 -79q97 2 148.5 69t86.5 243q28 134 28 207.5t-30.5 109t-101.5 35.5q-90 0 -143.5 -69t-89.5 -242z" />
    <glyph glyph-name="ohungarumlaut.sc" horiz-adv-x="1325" 
d="M317 1372l261 369h417l-309 -369h-369zM791 1372l315 369h418l-365 -369h-368zM1229 580q-32 -180 -88.5 -301.5t-141 -190t-186.5 -97t-240 -28.5q-83 0 -150.5 10.5t-125.5 33.5t-99.5 59.5t-70.5 89.5t-42 122.5t-10.5 159.5t21.5 199q32 181 88 302.5t140.5 189.5
t185.5 96t240 28q97 0 173 -14t139.5 -46t103 -83t63.5 -126t22 -175t-22 -229zM494 629q-42 -194 -21 -274t123 -79q97 2 148.5 69t86.5 243q28 134 28 207.5t-30.5 109t-101.5 35.5q-90 0 -143.5 -69t-89.5 -242z" />
    <glyph glyph-name="omacron.sc" horiz-adv-x="1325" 
d="M494 1653h702l-43 -242h-702zM1229 580q-32 -180 -88.5 -301.5t-141 -190t-186.5 -97t-240 -28.5q-83 0 -150.5 10.5t-125.5 33.5t-99.5 59.5t-70.5 89.5t-42 122.5t-10.5 159.5t21.5 199q32 181 88 302.5t140.5 189.5t185.5 96t240 28q97 0 173 -14t139.5 -46t103 -83
t63.5 -126t22 -175t-22 -229zM494 629q-42 -194 -21 -274t123 -79q97 2 148.5 69t86.5 243q28 134 28 207.5t-30.5 109t-101.5 35.5q-90 0 -143.5 -69t-89.5 -242z" />
    <glyph glyph-name="uni01EB.sc" horiz-adv-x="1325" 
d="M438 -172q11 72 72 137q-104 6 -180.5 30.5t-135 74t-86.5 126.5t-34 186.5t22 254.5q32 181 88 302.5t140.5 189.5t185.5 96t240 28q98 0 174 -14t139 -45.5t103.5 -83.5t63 -126t22.5 -175t-23 -229q-40 -224 -118 -356t-198 -195q-98 -72 -110 -150q-6 -31 4 -44
t41 -13q20 0 45.5 8t40.5 16l16 9l-20 -179q-2 -3 -7.5 -8t-25.5 -18t-44.5 -23t-67.5 -18t-93 -8q-81 0 -137.5 21.5t-82 56.5t-33.5 72.5t-1 76.5zM494 629q-42 -194 -21 -274t123 -79q97 2 148.5 69t86.5 243q28 134 28 207.5t-30.5 109t-101.5 35.5q-90 0 -143.5 -69
t-89.5 -242z" />
    <glyph glyph-name="oslash.sc" horiz-adv-x="1325" 
d="M-16 -23l151 162q-99 163 -39 498q32 181 88 302.5t140.5 189.5t185.5 96t240 28q236 0 354 -86l61 64h164l-143 -152q103 -158 43 -499q-32 -180 -88.5 -301.5t-141 -190t-186.5 -97t-240 -28.5q-235 0 -356 88l-70 -74h-163zM469 494l373 393q-29 53 -115 53
q-90 0 -143.5 -69t-89.5 -242zM831 588q19 102 23 139l-373 -395q26 -59 115 -56q97 2 148.5 69t86.5 243z" />
    <glyph glyph-name="oslashacute.sc" horiz-adv-x="1325" 
d="M629 1372l262 369h385l-313 -369h-334zM-16 -23l151 162q-99 163 -39 498q32 181 88 302.5t140.5 189.5t185.5 96t240 28q236 0 354 -86l61 64h164l-143 -152q103 -158 43 -499q-32 -180 -88.5 -301.5t-141 -190t-186.5 -97t-240 -28.5q-235 0 -356 88l-70 -74h-163z
M469 494l373 393q-29 53 -115 53q-90 0 -143.5 -69t-89.5 -242zM831 588q19 102 23 139l-373 -395q26 -59 115 -56q97 2 148.5 69t86.5 243z" />
    <glyph glyph-name="otilde.sc" horiz-adv-x="1325" 
d="M1290 1733q-16 -88 -37 -148.5t-54 -109t-82 -72t-116 -23.5q-66 0 -116 15t-74 32.5t-54 32.5t-61 15q-63 0 -104.5 -40.5t-46.5 -70.5l-172 31q32 178 96 265t193 87q54 0 96.5 -9.5t68 -23.5t46.5 -28t44 -23.5t48 -9.5q63 0 105.5 40t49.5 70zM1229 580
q-32 -180 -88.5 -301.5t-141 -190t-186.5 -97t-240 -28.5q-83 0 -150.5 10.5t-125.5 33.5t-99.5 59.5t-70.5 89.5t-42 122.5t-10.5 159.5t21.5 199q32 181 88 302.5t140.5 189.5t185.5 96t240 28q97 0 173 -14t139.5 -46t103 -83t63.5 -126t22 -175t-22 -229zM494 629
q-42 -194 -21 -274t123 -79q97 2 148.5 69t86.5 243q28 134 28 207.5t-30.5 109t-101.5 35.5q-90 0 -143.5 -69t-89.5 -242z" />
    <glyph glyph-name="oe.sc" horiz-adv-x="1742" 
d="M565 0q-97 0 -170.5 11.5t-136 39.5t-102 75.5t-61.5 117.5t-21.5 168t22.5 225q21 121 51.5 211.5t74.5 154.5t95 106t121 65.5t144 33t172 9.5h1018l-52 -295h-520l-33 -185h432l-43 -250h-432l-34 -192h532l-51 -295h-1006zM487 580q-28 -162 -1.5 -222.5t110.5 -60.5
h102l111 623h-78q-43 0 -76 -13.5t-66 -49t-58.5 -105t-43.5 -172.5z" />
    <glyph glyph-name="p.sc" horiz-adv-x="1271" 
d="M27 0l215 1219h424q111 0 196.5 -7.5t154 -24t115 -43.5t78 -64t44.5 -89t12.5 -115.5t-15.5 -144.5q-18 -107 -49.5 -178.5t-82.5 -122.5t-134 -79t-191 -40t-266 -12h-57l-53 -299h-391zM580 920l-56 -314h86q39 0 65 2t54.5 7.5t47 17t36 29.5t28.5 46t17 66
q16 90 -22 118t-150 28h-106z" />
    <glyph glyph-name="thorn.sc" horiz-adv-x="1280" 
d="M27 0l215 1217h395l-27 -148h127q104 0 182 -10t140.5 -33t99.5 -60.5t59.5 -91.5t21.5 -126.5t-15 -165.5q-16 -88 -38.5 -151.5t-59 -111t-82.5 -77.5t-115 -48t-149 -25t-191 -7h-144l-28 -162h-391zM555 762l-53 -297h86q47 0 78 3t61.5 12t49 26.5t33 47t21.5 71.5
q13 87 -21.5 112t-147.5 25h-107z" />
    <glyph glyph-name="q.sc" horiz-adv-x="1325" 
d="M1229 580q-64 -366 -248 -508l127 -131l-270 -203l-172 229q-58 -4 -93 -4q-83 0 -150.5 10.5t-125.5 33.5t-99.5 59.5t-70.5 89.5t-42 122.5t-10.5 159.5t21.5 199q32 181 88 302.5t140.5 189.5t185.5 96t240 28q97 0 173 -14t139.5 -46t103 -83t63.5 -126t22 -175
t-22 -229zM494 629q-42 -194 -21 -274t123 -79q97 2 148.5 69t86.5 243q28 134 28 207.5t-30.5 109t-101.5 35.5q-90 0 -143.5 -69t-89.5 -242z" />
    <glyph glyph-name="r.sc" horiz-adv-x="1329" 
d="M27 0l215 1219h534q91 0 161.5 -7.5t128.5 -23.5t98 -43t67.5 -64.5t39.5 -89t11 -115.5t-16 -145q-27 -151 -79.5 -236.5t-148.5 -127.5l95 -367h-410l-57 313h-193l-55 -313h-391zM578 911l-52 -295h103q49 0 80 2.5t62 12t49.5 26.5t32.5 46.5t21 72.5
q13 85 -22.5 110t-149.5 25h-124z" />
    <glyph glyph-name="racute.sc" horiz-adv-x="1329" 
d="M588 1356l262 368h385l-313 -368h-334zM27 0l215 1219h534q91 0 161.5 -7.5t128.5 -23.5t98 -43t67.5 -64.5t39.5 -89t11 -115.5t-16 -145q-27 -151 -79.5 -236.5t-148.5 -127.5l95 -367h-410l-57 313h-193l-55 -313h-391zM578 911l-52 -295h103q49 0 80 2.5t62 12
t49.5 26.5t32.5 46.5t21 72.5q13 85 -22.5 110t-149.5 25h-124z" />
    <glyph glyph-name="rcaron.sc" horiz-adv-x="1329" 
d="M1272 1714l-346 -364h-348l-201 364h293l110 -127l148 127h344zM27 0l215 1219h534q91 0 161.5 -7.5t128.5 -23.5t98 -43t67.5 -64.5t39.5 -89t11 -115.5t-16 -145q-27 -151 -79.5 -236.5t-148.5 -127.5l95 -367h-410l-57 313h-193l-55 -313h-391zM578 911l-52 -295h103
q49 0 80 2.5t62 12t49.5 26.5t32.5 46.5t21 72.5q13 85 -22.5 110t-149.5 25h-124z" />
    <glyph glyph-name="rcommaaccent.sc" horiz-adv-x="1329" 
d="M27 0l215 1219h534q91 0 161.5 -7.5t128.5 -23.5t98 -43t67.5 -64.5t39.5 -89t11 -115.5t-16 -145q-27 -151 -79.5 -236.5t-148.5 -127.5l95 -367h-410l-57 313h-193l-55 -313h-391zM578 911l-52 -295h103q49 0 80 2.5t62 12t49.5 26.5t32.5 46.5t21 72.5
q13 85 -22.5 110t-149.5 25h-124zM158 -666q61 123 129 299q25 64 46 126.5t29 92.5l9 31h358q-47 -155 -131 -321q-42 -83 -81.5 -140t-58.5 -72l-18 -16h-282z" />
    <glyph glyph-name="s.sc" horiz-adv-x="1253" 
d="M1120 340q-33 -190 -175.5 -283.5t-409.5 -93.5q-281 0 -402.5 112.5t-85.5 321.5h365q-13 -79 25 -114t124 -35q78 -1 124.5 27.5t55.5 82.5q6 34 -20 58.5t-73 37.5t-107 28t-122.5 29.5t-120 43.5t-99 67t-59 103.5t-1.5 151.5q72 378 570 378q287 0 400 -108t75 -322
l-363 2q10 67 -17 103.5t-116 36.5q-78 0 -120 -31.5t-48 -83.5q-5 -32 15 -54.5t58 -35.5t88 -25t105 -22.5t109 -29t100.5 -44t80 -66.5t46 -97.5t-1.5 -137.5z" />
    <glyph glyph-name="sacute.sc" horiz-adv-x="1253" 
d="M592 1372l262 369h385l-313 -369h-334zM1120 340q-33 -190 -175.5 -283.5t-409.5 -93.5q-281 0 -402.5 112.5t-85.5 321.5h365q-13 -79 25 -114t124 -35q78 -1 124.5 27.5t55.5 82.5q6 34 -20 58.5t-73 37.5t-107 28t-122.5 29.5t-120 43.5t-99 67t-59 103.5t-1.5 151.5
q72 378 570 378q287 0 400 -108t75 -322l-363 2q10 67 -17 103.5t-116 36.5q-78 0 -120 -31.5t-48 -83.5q-5 -32 15 -54.5t58 -35.5t88 -25t105 -22.5t109 -29t100.5 -44t80 -66.5t46 -97.5t-1.5 -137.5z" />
    <glyph glyph-name="scaron.sc" horiz-adv-x="1253" 
d="M1276 1731l-346 -365h-348l-201 365h293l110 -127l148 127h344zM1120 340q-33 -190 -175.5 -283.5t-409.5 -93.5q-281 0 -402.5 112.5t-85.5 321.5h365q-13 -79 25 -114t124 -35q78 -1 124.5 27.5t55.5 82.5q6 34 -20 58.5t-73 37.5t-107 28t-122.5 29.5t-120 43.5
t-99 67t-59 103.5t-1.5 151.5q72 378 570 378q287 0 400 -108t75 -322l-363 2q10 67 -17 103.5t-116 36.5q-78 0 -120 -31.5t-48 -83.5q-5 -32 15 -54.5t58 -35.5t88 -25t105 -22.5t109 -29t100.5 -44t80 -66.5t46 -97.5t-1.5 -137.5z" />
    <glyph glyph-name="scedilla.sc" horiz-adv-x="1253" 
d="M774 -381q-8 -50 -29.5 -85t-66.5 -63.5t-124.5 -42.5t-195.5 -14q-77 0 -138 7t-83 15l-22 7l14 156q12 -2 92 -2q74 0 120.5 32.5t55.5 87.5q3 16 0 28t-13 19t-21.5 11.5t-32.5 6.5t-38 2.5t-46 0.5h-23l137 192q-188 32 -265.5 139t-47.5 281h365q-13 -79 25 -114
t124 -35q78 -1 124.5 27.5t55.5 82.5q6 34 -20 58.5t-73 37.5t-107 28t-122.5 29.5t-120 43.5t-99 67t-59 103.5t-1.5 151.5q72 378 570 378q287 0 400 -108t75 -322l-363 2q10 67 -17 103.5t-116 36.5q-78 0 -120 -31.5t-48 -83.5q-5 -32 15 -54.5t58 -35.5t88 -25
t105 -22.5t109 -29t100.5 -44t80 -66.5t46 -97.5t-1.5 -137.5q-28 -161 -134 -252.5t-298 -114.5l-84 -118q84 -9 137.5 -67.5t32.5 -168.5z" />
    <glyph glyph-name="scircumflex.sc" horiz-adv-x="1253" 
d="M1204 1366h-309l-111 135l-147 -135h-340l340 365h348zM1120 340q-33 -190 -175.5 -283.5t-409.5 -93.5q-281 0 -402.5 112.5t-85.5 321.5h365q-13 -79 25 -114t124 -35q78 -1 124.5 27.5t55.5 82.5q6 34 -20 58.5t-73 37.5t-107 28t-122.5 29.5t-120 43.5t-99 67
t-59 103.5t-1.5 151.5q72 378 570 378q287 0 400 -108t75 -322l-363 2q10 67 -17 103.5t-116 36.5q-78 0 -120 -31.5t-48 -83.5q-5 -32 15 -54.5t58 -35.5t88 -25t105 -22.5t109 -29t100.5 -44t80 -66.5t46 -97.5t-1.5 -137.5z" />
    <glyph glyph-name="scommaaccent.sc" horiz-adv-x="1253" 
d="M1120 340q-33 -190 -175.5 -283.5t-409.5 -93.5q-281 0 -402.5 112.5t-85.5 321.5h365q-13 -79 25 -114t124 -35q78 -1 124.5 27.5t55.5 82.5q6 34 -20 58.5t-73 37.5t-107 28t-122.5 29.5t-120 43.5t-99 67t-59 103.5t-1.5 151.5q72 378 570 378q287 0 400 -108t75 -322
l-363 2q10 67 -17 103.5t-116 36.5q-78 0 -120 -31.5t-48 -83.5q-5 -32 15 -54.5t58 -35.5t88 -25t105 -22.5t109 -29t100.5 -44t80 -66.5t46 -97.5t-1.5 -137.5zM160 -682q61 123 129 299q25 64 46 126.5t29 92.5l9 31h358q-47 -156 -131 -322q-42 -83 -81.5 -139.5
t-58.5 -71.5l-18 -16h-282z" />
    <glyph glyph-name="germandbls.sc" horiz-adv-x="1312" 
d="M1233 338q-8 -47 -27.5 -89.5t-61.5 -89t-101.5 -80t-154 -55.5t-212.5 -22h-193l56 309h94q105 0 153.5 32t57.5 101q9 55 -18 87t-95 32q-36 0 -69 -5t-48 -10l-14 -5l39 217l223 196h-147q-75 0 -124 -49t-63 -129l-137 -778h-385l137 774q8 49 15 80.5t19.5 74
t26.5 70t37.5 60.5t51.5 54t68.5 42.5t90 33.5t114 20t141.5 8h632l-45 -261l-239 -204q125 -45 166 -146t12 -268z" />
    <glyph glyph-name="uni0259.sc" horiz-adv-x="1314" 
d="M1217 580q-26 -145 -67 -251t-96 -176.5t-130.5 -112.5t-161 -59.5t-197.5 -17.5q-99 0 -175 14.5t-138 47t-101 87t-59.5 132.5t-18 185t26.5 243h729q24 149 -1 208.5t-117 59.5q-140 0 -189 -154l-397 -2q66 253 215 361t401 108q99 0 175.5 -14t139 -45.5
t102.5 -83.5t62 -126t21 -175t-24 -229zM580 260q87 0 133 46t80 179h-328q-13 -133 15 -179t100 -46z" />
    <glyph glyph-name="t.sc" horiz-adv-x="999" 
d="M193 0l153 872h-319l59 345h1032l-59 -345h-322l-153 -872h-391z" />
    <glyph glyph-name="tbar.sc" horiz-adv-x="999" 
d="M193 0l71 406h-125l37 192h121l49 274h-319l59 345h1032l-59 -345h-322l-49 -274h133l-37 -192h-129l-71 -406h-391z" />
    <glyph glyph-name="tcaron.sc" horiz-adv-x="999" 
d="M1143 1714l-346 -364h-348l-201 364h293l110 -127l148 127h344zM193 0l153 872h-319l59 345h1032l-59 -345h-322l-153 -872h-391z" />
    <glyph glyph-name="uni0163.sc" horiz-adv-x="999" 
d="M598 -365q-8 -50 -29.5 -85t-66.5 -63.5t-124.5 -42t-195.5 -13.5q-77 0 -138 7t-83 14l-22 7l14 156q12 -2 92 -2q74 0 120.5 33t55.5 88q3 16 0.5 28t-13.5 19t-21.5 11t-32.5 6t-38 2.5t-46 0.5h-23l146 203l153 868h-319l59 345h1032l-59 -345h-322l-153 -872h-64
l-92 -129q84 -9 137.5 -67.5t32.5 -168.5z" />
    <glyph glyph-name="uni021B.sc" horiz-adv-x="999" 
d="M193 0l153 872h-319l59 345h1032l-59 -345h-322l-153 -872h-391zM-27 -666q59 123 129 299q25 64 46 126.5t30 92.5l8 31l357 -2q-45 -153 -131 -321q-42 -82 -81 -139t-57 -73l-18 -16z" />
    <glyph glyph-name="u.sc" horiz-adv-x="1269" 
d="M1155 549q-14 -84 -28.5 -146t-34.5 -122t-44 -102t-57 -80t-74.5 -61.5t-95.5 -41.5t-120.5 -25.5t-149.5 -7.5q-227 0 -337.5 66.5t-128.5 203.5t19 347l113 637h393l-125 -691q-22 -107 -3 -161t91 -54q83 0 123.5 49t61.5 166l123 691h393z" />
    <glyph glyph-name="uacute.sc" horiz-adv-x="1269" 
d="M602 1356l262 368h385l-313 -368h-334zM1155 549q-14 -84 -28.5 -146t-34.5 -122t-44 -102t-57 -80t-74.5 -61.5t-95.5 -41.5t-120.5 -25.5t-149.5 -7.5q-227 0 -337.5 66.5t-128.5 203.5t19 347l113 637h393l-125 -691q-22 -107 -3 -161t91 -54q83 0 123.5 49t61.5 166
l123 691h393z" />
    <glyph glyph-name="ubreve.sc" horiz-adv-x="1269" 
d="M1266 1702q-9 -49 -28.5 -96t-57.5 -96t-88.5 -85t-127 -59t-169.5 -23q-72 0 -132.5 12t-102 32.5t-75 49t-51 60.5t-29.5 67t-11 70t5 68h297q-8 -42 20.5 -75.5t86.5 -33.5q55 0 100 34.5t53 74.5h310zM1155 549q-14 -84 -28.5 -146t-34.5 -122t-44 -102t-57 -80
t-74.5 -61.5t-95.5 -41.5t-120.5 -25.5t-149.5 -7.5q-227 0 -337.5 66.5t-128.5 203.5t19 347l113 637h393l-125 -691q-22 -107 -3 -161t91 -54q83 0 123.5 49t61.5 166l123 691h393z" />
    <glyph glyph-name="ucircumflex.sc" horiz-adv-x="1269" 
d="M1214 1350h-309l-110 135l-148 -135h-340l340 364h348zM1155 549q-14 -84 -28.5 -146t-34.5 -122t-44 -102t-57 -80t-74.5 -61.5t-95.5 -41.5t-120.5 -25.5t-149.5 -7.5q-227 0 -337.5 66.5t-128.5 203.5t19 347l113 637h393l-125 -691q-22 -107 -3 -161t91 -54
q83 0 123.5 49t61.5 166l123 691h393z" />
    <glyph glyph-name="udieresis.sc" horiz-adv-x="1269" 
d="M332 1350l57 325h377l-57 -325h-377zM829 1350l58 325h377l-58 -325h-377zM1155 549q-14 -84 -28.5 -146t-34.5 -122t-44 -102t-57 -80t-74.5 -61.5t-95.5 -41.5t-120.5 -25.5t-149.5 -7.5q-227 0 -337.5 66.5t-128.5 203.5t19 347l113 637h393l-125 -691
q-22 -107 -3 -161t91 -54q83 0 123.5 49t61.5 166l123 691h393z" />
    <glyph glyph-name="uni1EE5.sc" horiz-adv-x="1269" 
d="M1155 549q-14 -84 -28.5 -146t-34.5 -122t-44 -102t-57 -80t-74.5 -61.5t-95.5 -41.5t-120.5 -25.5t-149.5 -7.5q-227 0 -337.5 66.5t-128.5 203.5t19 347l113 637h393l-125 -691q-22 -107 -3 -161t91 -54q83 0 123.5 49t61.5 166l123 691h393zM252 -449l55 320h410
l-55 -320h-410z" />
    <glyph glyph-name="ugrave.sc" horiz-adv-x="1269" 
d="M922 1356h-316l-182 368h367zM1155 549q-14 -84 -28.5 -146t-34.5 -122t-44 -102t-57 -80t-74.5 -61.5t-95.5 -41.5t-120.5 -25.5t-149.5 -7.5q-227 0 -337.5 66.5t-128.5 203.5t19 347l113 637h393l-125 -691q-22 -107 -3 -161t91 -54q83 0 123.5 49t61.5 166l123 691
h393z" />
    <glyph glyph-name="uhungarumlaut.sc" horiz-adv-x="1269" 
d="M291 1356l260 368h418l-310 -368h-368zM764 1356l315 368h418l-364 -368h-369zM1155 549q-14 -84 -28.5 -146t-34.5 -122t-44 -102t-57 -80t-74.5 -61.5t-95.5 -41.5t-120.5 -25.5t-149.5 -7.5q-227 0 -337.5 66.5t-128.5 203.5t19 347l113 637h393l-125 -691
q-22 -107 -3 -161t91 -54q83 0 123.5 49t61.5 166l123 691h393z" />
    <glyph glyph-name="umacron.sc" horiz-adv-x="1269" 
d="M467 1636h702l-43 -241h-702zM1155 549q-14 -84 -28.5 -146t-34.5 -122t-44 -102t-57 -80t-74.5 -61.5t-95.5 -41.5t-120.5 -25.5t-149.5 -7.5q-227 0 -337.5 66.5t-128.5 203.5t19 347l113 637h393l-125 -691q-22 -107 -3 -161t91 -54q83 0 123.5 49t61.5 166l123 691
h393z" />
    <glyph glyph-name="uogonek.sc" horiz-adv-x="1269" 
d="M406 -182q14 82 79 147q-197 9 -293 79t-109.5 203.5t21.5 332.5l113 637h393l-125 -691q-22 -107 -3 -161t91 -54q83 0 123.5 49t61.5 166l123 691h393l-119 -668q-20 -115 -40.5 -194t-52.5 -148t-77 -115t-108 -76q-95 -73 -107 -147q-6 -31 4 -44t41 -13q20 0 45.5 8
t41.5 16l16 8l-21 -178q-2 -3 -7.5 -8t-25.5 -18.5t-44.5 -23.5t-67.5 -18t-93 -8q-81 0 -137.5 21.5t-81.5 57t-33 72.5t-1 77z" />
    <glyph glyph-name="uring.sc" horiz-adv-x="1269" 
d="M1087 1554q-20 -115 -96.5 -171t-199.5 -56q-140 0 -211 75t-48 212q41 227 299 227q138 0 209 -75.5t47 -211.5zM741 1577q-4 -30 12.5 -45.5t43.5 -15.5q33 0 54.5 20.5t29.5 54.5q4 30 -13 46t-45 16q-31 0 -53.5 -21.5t-28.5 -54.5zM1155 549q-14 -84 -28.5 -146
t-34.5 -122t-44 -102t-57 -80t-74.5 -61.5t-95.5 -41.5t-120.5 -25.5t-149.5 -7.5q-227 0 -337.5 66.5t-128.5 203.5t19 347l113 637h393l-125 -691q-22 -107 -3 -161t91 -54q83 0 123.5 49t61.5 166l123 691h393z" />
    <glyph glyph-name="utilde.sc" horiz-adv-x="1269" 
d="M1264 1716q-16 -88 -37 -148.5t-54 -108.5t-82 -71.5t-116 -23.5q-66 0 -116 14.5t-74 32.5t-54 32.5t-61 14.5q-63 0 -105.5 -40t-46.5 -70l-172 30q32 178 96 265.5t193 87.5q66 0 116 -15t73.5 -32.5t53.5 -32.5t60 -15q63 0 106 40.5t50 70.5zM1155 549
q-14 -84 -28.5 -146t-34.5 -122t-44 -102t-57 -80t-74.5 -61.5t-95.5 -41.5t-120.5 -25.5t-149.5 -7.5q-227 0 -337.5 66.5t-128.5 203.5t19 347l113 637h393l-125 -691q-22 -107 -3 -161t91 -54q83 0 123.5 49t61.5 166l123 691h393z" />
    <glyph glyph-name="v.sc" horiz-adv-x="1265" 
d="M137 1217h436l31 -838l332 838h436l-592 -1217h-479z" />
    <glyph glyph-name="w.sc" horiz-adv-x="1921" 
d="M1020 813l-297 -813h-490l-88 1217h445l-21 -844l303 844h453l-10 -846l305 846h424l-545 -1217h-487z" />
    <glyph glyph-name="wacute.sc" horiz-adv-x="1921" 
d="M956 1356l263 368h385l-314 -368h-334zM1020 813l-297 -813h-490l-88 1217h445l-21 -844l303 844h453l-10 -846l305 846h424l-545 -1217h-487z" />
    <glyph glyph-name="wcircumflex.sc" horiz-adv-x="1921" 
d="M1569 1350h-309l-111 135l-148 -135h-339l339 364h349zM1020 813l-297 -813h-490l-88 1217h445l-21 -844l303 844h453l-10 -846l305 846h424l-545 -1217h-487z" />
    <glyph glyph-name="wdieresis.sc" horiz-adv-x="1921" 
d="M686 1350l57 325h377l-57 -325h-377zM1184 1350l57 325h377l-57 -325h-377zM1020 813l-297 -813h-490l-88 1217h445l-21 -844l303 844h453l-10 -846l305 846h424l-545 -1217h-487z" />
    <glyph glyph-name="wgrave.sc" horiz-adv-x="1921" 
d="M1276 1356h-315l-183 368h367zM1020 813l-297 -813h-490l-88 1217h445l-21 -844l303 844h453l-10 -846l305 846h424l-545 -1217h-487z" />
    <glyph glyph-name="x.sc" horiz-adv-x="1204" 
d="M541 332l-224 -332h-436l461 602l-236 615h418l113 -361l240 361h436l-479 -613l221 -604h-416z" />
    <glyph glyph-name="y.sc" horiz-adv-x="1171" 
d="M291 0l55 313l-229 904h428l53 -543l236 543h466l-569 -912l-55 -305h-385z" />
    <glyph glyph-name="yacute.sc" horiz-adv-x="1171" 
d="M549 1356l262 368h385l-313 -368h-334zM291 0l55 313l-229 904h428l53 -543l236 543h466l-569 -912l-55 -305h-385z" />
    <glyph glyph-name="ycircumflex.sc" horiz-adv-x="1171" 
d="M1161 1350h-309l-111 135l-147 -135h-340l340 364h348zM291 0l55 313l-229 904h428l53 -543l236 543h466l-569 -912l-55 -305h-385z" />
    <glyph glyph-name="ydieresis.sc" horiz-adv-x="1171" 
d="M279 1350l57 325h377l-58 -325h-376zM776 1350l58 325h376l-57 -325h-377zM291 0l55 313l-229 904h428l53 -543l236 543h466l-569 -912l-55 -305h-385z" />
    <glyph glyph-name="ygrave.sc" horiz-adv-x="1171" 
d="M868 1356h-315l-182 368h366zM291 0l55 313l-229 904h428l53 -543l236 543h466l-569 -912l-55 -305h-385z" />
    <glyph glyph-name="uni0233.sc" horiz-adv-x="1171" 
d="M414 1636h702l-43 -241h-702zM291 0l55 313l-229 904h428l53 -543l236 543h466l-569 -912l-55 -305h-385z" />
    <glyph glyph-name="uni1EF9.sc" horiz-adv-x="1171" 
d="M1210 1716q-16 -88 -37 -148.5t-54 -108.5t-81.5 -71.5t-115.5 -23.5q-54 0 -96.5 9.5t-68.5 23.5t-47.5 28t-44.5 23.5t-49 9.5q-63 0 -105 -40t-46 -70l-172 30q32 178 96 265.5t193 87.5q66 0 116 -15t73.5 -32.5t53.5 -32.5t60 -15q63 0 105.5 40.5t49.5 70.5zM291 0
l55 313l-229 904h428l53 -543l236 543h466l-569 -912l-55 -305h-385z" />
    <glyph glyph-name="z.sc" horiz-adv-x="1110" 
d="M-68 0l54 328l610 561h-487l57 328h977l-53 -328l-619 -561h522l-57 -328h-1004z" />
    <glyph glyph-name="zacute.sc" horiz-adv-x="1110" 
d="M506 1356l262 368h385l-313 -368h-334zM-68 0l54 328l610 561h-487l57 328h977l-53 -328l-619 -561h522l-57 -328h-1004z" />
    <glyph glyph-name="zcaron.sc" horiz-adv-x="1110" 
d="M1190 1714l-346 -364h-348l-201 364h293l110 -127l148 127h344zM-68 0l54 328l610 561h-487l57 328h977l-53 -328l-619 -561h522l-57 -328h-1004z" />
    <glyph glyph-name="zdotaccent.sc" horiz-adv-x="1110" 
d="M469 1354l55 321h412l-57 -321h-410zM-68 0l54 328l610 561h-487l57 328h977l-53 -328l-619 -561h522l-57 -328h-1004z" />
    <glyph glyph-name="zero.osf" horiz-adv-x="1345" 
d="M1260 553q-36 -203 -112 -330t-213 -193.5t-345 -66.5q-327 0 -444 161t-58 488q36 203 111.5 330t212.5 194t346 68q325 0 442 -162t60 -489zM498 553q-32 -158 -9.5 -220.5t119.5 -62.5q94 0 151 77t93 265q31 158 7.5 221.5t-120.5 63.5q-94 0 -150 -77.5t-91 -266.5z
" />
    <glyph glyph-name="one.osf" horiz-adv-x="870" 
d="M-61 0l49 270h229l88 518l-207 -34l49 286l377 134h240l-162 -904h219l-47 -270h-835z" />
    <glyph glyph-name="two.osf" horiz-adv-x="1189" 
d="M-57 0l45 260q191 102 336 186q19 11 57.5 33t59 33.5t55.5 32.5t55 34t49 33t46.5 35t38 34.5t32.5 36t21.5 35.5t13.5 38q16 104 -117 104q-81 0 -132 -41.5t-63 -114.5h-374q14 88 38 155t67.5 126t106.5 96t156 58.5t215 21.5q97 0 174.5 -12.5t131.5 -34t92 -53
t59.5 -67t31 -79t8.5 -86t-9 -90.5q-10 -58 -37.5 -113t-61.5 -97.5t-85 -89.5t-93 -80.5t-102 -78.5q-13 -9 -19 -14l305 18l-57 -319h-1044z" />
    <glyph glyph-name="three.osf" horiz-adv-x="1208" 
d="M825 616q161 -50 216 -164t22 -298q-12 -72 -37.5 -134.5t-74 -123t-115 -103.5t-168 -69.5t-226.5 -26.5q-110 0 -196.5 19.5t-142.5 55t-94 84t-52.5 107t-17.5 124t12 134.5h393q-8 -32 -6 -64.5t11.5 -58.5t37 -42.5t70.5 -16.5q82 0 135 58.5t67 146.5
q15 90 -24.5 137t-155.5 47q-51 0 -94.5 -7t-61.5 -13l-18 -7l29 222l6 4l350 223l-586 -29l62 355h1057l-54 -304z" />
    <glyph glyph-name="four.osf" horiz-adv-x="1292" 
d="M600 -291l51 291h-723l52 309l704 867h559l-153 -867h157l-55 -309h-156l-51 -291h-385zM705 309l100 570l-426 -570h326z" />
    <glyph glyph-name="five.osf" horiz-adv-x="1200" 
d="M559 858l-86 -262q109 66 250 66q89 0 158 -20.5t113 -57t72.5 -84t39 -106.5t10 -118t-11.5 -124q-14 -77 -40 -142t-76 -128t-118.5 -107t-172 -70.5t-232.5 -26.5q-86 0 -158.5 11t-126 31.5t-96 47.5t-70 61t-46 70.5t-25.5 77t-7 79.5t7 79h415q0 -11 -1 -27
t7 -33.5t21 -33t39.5 -25.5t62.5 -10q85 0 139 57.5t68 145.5q15 82 -11.5 129t-117.5 47q-71 0 -122 -32t-68 -60l-379 4l274 877h930l-57 -334z" />
    <glyph glyph-name="six.osf" horiz-adv-x="1372" 
d="M1284 436q-86 -467 -668 -469q-237 -1 -366.5 80t-160 240t10.5 395q41 235 98 387t145.5 247t205 134t285.5 39q92 0 169.5 -14t132.5 -38.5t98.5 -58.5t68 -74t40 -84.5t15.5 -90t-6 -91.5h-408q7 22 3 47t-14 46t-38.5 35t-71.5 14q-82 0 -143.5 -69t-112.5 -245
q122 66 273 66q95 0 171 -18.5t127 -51.5t87 -79t50.5 -101t18 -117.5t-9.5 -128.5zM721 674q-121 0 -217 -88q-27 -163 -1.5 -235t115.5 -72q103 0 162.5 59.5t75.5 157.5q17 96 -14 137t-121 41z" />
    <glyph glyph-name="seven.osf" horiz-adv-x="1118" 
d="M68 -336q24 134 71.5 273t104.5 253t120 221t121.5 186.5t106 140t76.5 91.5l28 31l-645 -29l60 343h1046l-59 -326q-11 -12 -30.5 -35t-76.5 -96t-110.5 -149.5t-122.5 -189.5t-123.5 -222t-101.5 -240.5t-68 -251.5h-397z" />
    <glyph glyph-name="eight.osf" horiz-adv-x="1390" 
d="M618 -25q-146 0 -253.5 21.5t-172.5 61.5t-101 98t-41 131t9 159q12 70 42.5 129.5t66.5 97.5t76.5 65.5t72.5 39.5t54 13q-11 2 -30 14.5t-45.5 37.5t-46 61.5t-30.5 88t2 115.5q13 71 38 126.5t71.5 104.5t113.5 81t165.5 50.5t224.5 18.5q133 0 232.5 -21.5t159 -60
t94.5 -93t39 -121t-7 -142.5q-12 -66 -46 -119.5t-75 -83t-74.5 -44.5t-56.5 -18q15 -2 40.5 -18t56.5 -48t54 -79t34.5 -110t-3.5 -142q-14 -81 -41.5 -143t-77.5 -114.5t-122.5 -86t-178.5 -52t-244 -18.5zM821 1227q-76 0 -128.5 -57t-71.5 -158q-10 -66 16 -100.5
t106 -34.5q76 0 128.5 54.5t66.5 137.5q16 83 -9 120.5t-108 37.5zM723 670q-84 0 -140 -66t-75 -164q-13 -82 12.5 -125t114.5 -43q86 0 141.5 63t73.5 163q14 81 -12 126.5t-115 45.5z" />
    <glyph glyph-name="nine.osf" horiz-adv-x="1339" 
d="M1235 481q-28 -160 -62 -280t-80 -212t-101 -153t-129 -99.5t-160 -54.5t-197 -16q-94 0 -172.5 14t-133.5 38.5t-98.5 58t-67.5 73t-39.5 84t-15 90t6.5 91.5h389q-6 -22 -0.5 -46.5t17 -45.5t42 -34.5t76.5 -13.5t81.5 13.5t70 47.5t64.5 95.5t56 153.5
q-117 -72 -258 -72q-102 0 -180 17t-129.5 50.5t-84 78.5t-45 105t-11 125t15.5 144q12 73 40 138.5t80 127t122.5 106t174 71.5t228.5 28q331 0 448.5 -177.5t51.5 -545.5zM621 471q115 0 225 102q27 170 1.5 245t-116.5 75q-92 0 -155 -66t-76 -151q-20 -109 11.5 -157
t109.5 -48z" />
    </font>
</defs>
</svg>
